<?xml version="1.0" encoding="utf-8"?>
<!-- Generator: Adobe Illustrator 19.0.0, SVG Export Plug-In . SVG Version: 6.00 Build 0)  -->
<svg version="1.1" id="Layer_1" xmlns="http://www.w3.org/2000/svg" xmlns:xlink="http://www.w3.org/1999/xlink" x="0px" y="0px"
	 viewBox="0 0 640 480" style="enable-background:new 0 0 640 480;" xml:space="preserve">
<style type="text/css">
	.st0{fill:none;stroke:#FFFFFF;stroke-width:3;stroke-miterlimit:10;}
	.st1{fill:#FFFFFF;}
	.st2{fill:none;stroke:#000000;stroke-width:3;stroke-miterlimit:10;}
	.st3{fill:none;}
</style>
<g id="XMLID_3_">
	<g id="XMLID_18_">
	</g>
	<g id="XMLID_20_">
		<line id="XMLID_22_" class="st0" x1="290.6" y1="371.3" x2="320" y2="382.3"/>
	</g>
</g>
<g id="XMLID_15_">
	<line id="XMLID_585_" class="st1" x1="290.5" y1="371.3" x2="292.1" y2="367.2"/>
	<path id="XMLID_584_" class="st1" d="M290.4,371.3c0,0-0.1-0.3-0.1-0.8c0-0.2-0.1-0.5-0.1-0.8c0-0.3,0-0.6,0-0.9
		c0-0.3-0.1-0.6-0.1-0.9c0.1-0.2,0.3-0.4,0.6-0.5c0.3-0.1,0.5-0.2,0.8-0.2c0.2,0,0.4,0,0.4,0l0.3,0.1c0,0,0.1,0.1,0.3,0.3
		c0.2,0.2,0.3,0.4,0.5,0.7c0.1,0.3,0.2,0.5,0.1,0.8c-0.1,0.2-0.4,0.4-0.6,0.6c-0.2,0.2-0.4,0.5-0.6,0.7c-0.2,0.2-0.4,0.4-0.6,0.5
		c-0.3,0.3-0.6,0.5-0.6,0.5L290.4,371.3z"/>
</g>
<g id="XMLID_17_">
	<line id="XMLID_582_" class="st1" x1="275.3" y1="321.8" x2="292.1" y2="367.2"/>
	<path id="XMLID_581_" class="st1" d="M275.4,321.8c0,0,1.2,2.8,3,7c1.8,4.2,4.1,9.8,6.4,15.4c0.6,1.4,1.2,2.8,1.8,4.2
		c0.6,1.4,1.2,2.7,1.7,4c0.5,1.3,0.9,2.6,1.3,3.9c0.4,1.2,0.7,2.4,1,3.5c1.2,4.4,1.6,7.5,1.6,7.5l-0.3,0.1c0,0-1.7-2.6-3.6-6.7
		c-0.5-1-1-2.1-1.5-3.3c-0.5-1.2-1-2.5-1.5-3.8c-0.5-1.3-0.9-2.7-1.4-4.2c-0.5-1.4-0.9-2.9-1.4-4.3c-1.9-5.8-3.8-11.5-5.1-15.8
		c-1.4-4.3-2.3-7.2-2.3-7.2L275.4,321.8z"/>
</g>
<g id="XMLID_19_">
	<line id="XMLID_579_" class="st1" x1="275.3" y1="321.8" x2="279.6" y2="310.5"/>
	<path id="XMLID_578_" class="st1" d="M275.2,321.8c0,0,0.1-0.8,0.3-1.9c0.1-0.6,0.2-1.2,0.4-1.9c0.1-0.7,0.3-1.4,0.5-2.2
		c0.2-0.7,0.2-1.5,0.5-2.2c0.2-0.7,0.6-1.2,1-1.7c0.4-0.5,0.8-0.8,1.1-1c0.3-0.2,0.5-0.3,0.5-0.3l0.3,0.1c0,0,0.1,0.2,0.2,0.6
		c0.1,0.4,0.1,0.9,0.1,1.5c0,0.6-0.1,1.3-0.4,1.9c-0.3,0.7-0.8,1.3-1.1,2c-0.4,0.7-0.7,1.3-1.1,2c-0.4,0.6-0.7,1.2-1,1.7
		c-0.6,1-1,1.6-1,1.6L275.2,321.8z"/>
</g>
<g id="XMLID_21_">
	<line id="XMLID_576_" class="st1" x1="279" y1="311" x2="279" y2="285"/>
	<path id="XMLID_575_" class="st1" d="M278.5,311c0,0-0.2-1.7-0.4-4.1c-0.1-1.2-0.2-2.6-0.3-4.2c-0.1-1.5-0.2-3.1-0.3-4.7
		c-0.1-0.8-0.1-1.6-0.2-2.4c-0.1-0.8-0.1-1.6-0.2-2.3c0-0.8,0-1.5,0.1-2.2c0.1-0.7,0.1-1.4,0.3-2c0.4-2.4,1.1-4.1,1.1-4.1h0.3
		c0,0,0.7,1.7,1.1,4.1c0.1,0.6,0.2,1.3,0.3,2c0.1,0.7,0.1,1.4,0.1,2.2c0,0.8-0.1,1.5-0.2,2.3c-0.1,0.8-0.1,1.6-0.2,2.4
		c-0.1,1.6-0.2,3.2-0.3,4.7c-0.1,1.5-0.2,3-0.3,4.2c-0.2,2.4-0.4,4.1-0.4,4.1H278.5z"/>
</g>
<g id="XMLID_12_">
	<g id="XMLID_6_">
	</g>
	<g id="XMLID_7_">
		<line id="XMLID_8_" class="st2" x1="350.7" y1="371.3" x2="321.1" y2="382.3"/>
	</g>
</g>
<g id="XMLID_11_">
	<path id="XMLID_573_" d="M350.5,371.4c0,0-0.3-0.2-0.6-0.5c-0.2-0.2-0.4-0.3-0.6-0.5c-0.2-0.2-0.4-0.4-0.6-0.7
		c-0.2-0.2-0.5-0.4-0.6-0.6c-0.1-0.2,0-0.5,0.1-0.8c0.1-0.3,0.3-0.5,0.5-0.7c0.2-0.2,0.3-0.3,0.3-0.3l0.3-0.1c0,0,0.2,0,0.4,0
		c0.3,0,0.5,0.1,0.8,0.2c0.3,0.1,0.5,0.3,0.6,0.5c0.1,0.3-0.1,0.6-0.1,0.9c0,0.3,0,0.6,0,0.9c0,0.3-0.1,0.6-0.1,0.8
		c0,0.5-0.1,0.8-0.1,0.8L350.5,371.4z"/>
</g>
<g id="XMLID_10_">
	<path id="XMLID_571_" d="M366.1,321.9c0,0-0.9,2.9-2.3,7.2c-1.3,4.3-3.3,10.1-5.2,15.8c-0.5,1.4-0.9,2.9-1.4,4.3
		c-0.4,1.4-0.9,2.8-1.4,4.2c-0.5,1.3-1,2.6-1.5,3.8c-0.5,1.2-1,2.3-1.5,3.3c-1.9,4.1-3.6,6.7-3.6,6.7l-0.3-0.1c0,0,0.4-3.1,1.6-7.5
		c0.3-1.1,0.6-2.3,1-3.5c0.4-1.2,0.8-2.5,1.3-3.9c0.5-1.3,1.1-2.7,1.7-4c0.6-1.4,1.2-2.8,1.8-4.2c2.3-5.6,4.6-11.2,6.4-15.4
		c1.8-4.2,3-7,3-7L366.1,321.9z"/>
</g>
<g id="XMLID_9_">
	<path id="XMLID_569_" d="M365.8,321.9c0,0-0.4-0.6-1-1.6c-0.3-0.5-0.7-1.1-1-1.7c-0.4-0.6-0.7-1.3-1.1-2c-0.4-0.7-0.9-1.3-1.1-2
		c-0.3-0.7-0.3-1.3-0.4-1.9c0-0.6,0-1.1,0.1-1.5c0.1-0.4,0.2-0.6,0.2-0.6l0.3-0.1c0,0,0.2,0.1,0.5,0.3c0.3,0.2,0.7,0.6,1.1,1
		c0.4,0.5,0.8,1,1,1.7c0.2,0.7,0.3,1.5,0.5,2.2c0.2,0.7,0.4,1.5,0.5,2.2c0.2,0.7,0.3,1.4,0.4,1.9c0.2,1.1,0.3,1.9,0.3,1.9
		L365.8,321.9z"/>
</g>
<g id="XMLID_2_">
	<path id="XMLID_567_" d="M360.7,311c0,0-0.2-1.7-0.4-4.1c-0.1-1.2-0.2-2.6-0.3-4.2c-0.1-1.5-0.2-3.1-0.3-4.7
		c-0.1-0.8-0.1-1.6-0.2-2.4c-0.1-0.8-0.1-1.6-0.2-2.3c0-0.8,0-1.5,0.1-2.2c0.1-0.7,0.1-1.4,0.3-2c0.4-2.4,1.1-4.1,1.1-4.1h0.3
		c0,0,0.7,1.7,1.1,4.1c0.1,0.6,0.2,1.3,0.3,2c0.1,0.7,0.1,1.4,0.1,2.2c0,0.8-0.1,1.5-0.2,2.3c-0.1,0.8-0.1,1.6-0.2,2.4
		c-0.1,1.6-0.2,3.2-0.3,4.7c-0.1,1.5-0.2,3-0.3,4.2c-0.2,2.4-0.4,4.1-0.4,4.1H360.7z"/>
</g>
<g id="XMLID_23_">
	<line id="XMLID_565_" class="st1" x1="279.4" y1="285.9" x2="274.2" y2="277.9"/>
	<path id="XMLID_564_" class="st1" d="M279.3,286c0,0-0.5-0.4-1.1-1c-0.3-0.3-0.7-0.7-1.1-1.1c-0.4-0.4-0.8-0.9-1.2-1.3
		c-0.4-0.5-0.9-0.8-1.3-1.3c-0.3-0.5-0.5-1-0.5-1.5c-0.1-0.5-0.1-0.9,0-1.3c0-0.3,0.1-0.6,0.1-0.6l0.3-0.2c0,0,0.2,0,0.6,0.1
		c0.3,0.1,0.7,0.3,1.2,0.5c0.4,0.3,0.8,0.6,1.1,1.1c0.3,0.5,0.4,1.1,0.7,1.7c0.2,0.6,0.5,1.1,0.7,1.7c0.2,0.5,0.4,1,0.6,1.5
		c0.3,0.9,0.5,1.5,0.5,1.5L279.3,286z"/>
</g>
<g id="XMLID_24_">
	<line id="XMLID_562_" class="st1" x1="274.2" y1="277.9" x2="254" y2="280.4"/>
	<path id="XMLID_561_" class="st1" d="M274.2,278c0,0-1.2,0.3-3.1,0.8c-0.9,0.2-2,0.5-3.2,0.7c-1.2,0.3-2.4,0.5-3.7,0.8
		c-1.3,0.2-2.5,0.7-3.7,0.8c-1.2,0.1-2.3,0.1-3.3,0c-1-0.1-1.8-0.2-2.4-0.4c-0.6-0.1-0.9-0.3-0.9-0.3l0-0.3c0,0,0.3-0.2,0.8-0.5
		c0.5-0.3,1.3-0.6,2.2-0.9c0.9-0.3,2-0.6,3.2-0.8c1.2-0.1,2.5,0,3.8-0.1c1.3-0.1,2.6-0.1,3.8-0.1c1.2,0,2.3,0,3.3-0.1
		c1.9,0,3.2,0,3.2,0L274.2,278z"/>
</g>
<g id="XMLID_25_">
	<line id="XMLID_559_" class="st1" x1="254" y1="280.4" x2="235.1" y2="265.6"/>
	<path id="XMLID_558_" class="st1" d="M253.9,280.5c0,0-1.3-0.8-3.2-2c-0.9-0.6-2.1-1.3-3.2-2.1c-1.2-0.8-2.4-1.6-3.7-2.5
		c-1.2-0.9-2.6-1.6-3.7-2.4c-1.1-0.9-2-1.8-2.8-2.6c-0.8-0.9-1.3-1.6-1.7-2.2c-0.4-0.6-0.6-0.9-0.6-0.9l0.2-0.2c0,0,0.4,0.1,1,0.3
		c0.7,0.2,1.5,0.6,2.5,1.1c1,0.5,2.1,1.2,3.2,2.1c1.1,0.9,2.1,2,3.2,3c1.1,1,2.2,2,3.3,3c1,0.9,2,1.9,2.8,2.6
		c1.6,1.5,2.7,2.6,2.7,2.6L253.9,280.5z"/>
</g>
<g id="XMLID_26_">
	<line id="XMLID_556_" class="st1" x1="235.1" y1="265" x2="252.6" y2="251.3"/>
	<path id="XMLID_555_" class="st1" d="M235,264.9c0,0,1-1,2.5-2.4c0.8-0.7,1.6-1.6,2.6-2.5c0.9-0.9,2-1.8,3-2.8c1-0.9,2-2,3-2.8
		c1-0.8,2.1-1.4,3-1.9c0.9-0.5,1.8-0.8,2.4-1c0.6-0.2,1-0.3,1-0.3l0.2,0.2c0,0-0.2,0.4-0.5,0.9c-0.3,0.6-0.9,1.3-1.6,2.1
		c-0.7,0.8-1.6,1.7-2.6,2.5c-1,0.8-2.3,1.4-3.4,2.2c-1.2,0.8-2.3,1.6-3.4,2.3c-1.1,0.7-2.1,1.4-3,1.9c-1.8,1.1-3,1.8-3,1.8
		L235,264.9z"/>
</g>
<g id="XMLID_27_">
	<line id="XMLID_553_" class="st1" x1="253.2" y1="251.3" x2="293.6" y2="265"/>
	<path id="XMLID_552_" class="st1" d="M253.3,251.1c0,0,2.6,0.7,6.4,1.8c3.9,1.1,9,2.6,14.1,4.1c1.3,0.4,2.6,0.7,3.8,1.1
		c1.3,0.3,2.5,0.7,3.7,1.1c1.2,0.4,2.3,0.8,3.4,1.3c1.1,0.4,2.1,0.9,3,1.3c3.7,1.6,6,3.1,6,3.1l-0.1,0.3c0,0-2.7-0.2-6.6-1.2
		c-1-0.2-2-0.5-3.1-0.8c-1.1-0.3-2.3-0.7-3.4-1.1c-1.2-0.4-2.4-0.9-3.6-1.4c-1.2-0.5-2.5-1-3.7-1.5c-5-1.9-10-3.8-13.7-5.4
		c-3.7-1.5-6.2-2.5-6.2-2.5L253.3,251.1z"/>
</g>
<g id="XMLID_32_">
	<path id="XMLID_550_" d="M361.4,285.8c0,0,0.2-0.6,0.5-1.5c0.2-0.4,0.3-0.9,0.6-1.5c0.2-0.5,0.5-1.1,0.7-1.7
		c0.3-0.6,0.4-1.2,0.7-1.7c0.3-0.5,0.7-0.8,1.1-1.1c0.4-0.3,0.8-0.5,1.2-0.5c0.3-0.1,0.6-0.1,0.6-0.1l0.3,0.2c0,0,0.1,0.2,0.1,0.6
		c0,0.3,0,0.8,0,1.3c-0.1,0.5-0.2,1-0.5,1.5c-0.3,0.5-0.9,0.8-1.3,1.3c-0.4,0.4-0.8,0.9-1.2,1.3c-0.4,0.4-0.8,0.8-1.1,1.1
		c-0.7,0.6-1.1,1-1.1,1L361.4,285.8z"/>
</g>
<g id="XMLID_31_">
	<path id="XMLID_548_" d="M366.8,277.7c0,0,1.3,0,3.2,0c1,0,2.1,0,3.3,0.1c1.2,0,2.5,0.1,3.8,0.1c1.3,0.1,2.6,0,3.8,0.1
		c1.2,0.1,2.3,0.4,3.2,0.8c0.9,0.3,1.7,0.7,2.2,0.9c0.5,0.3,0.8,0.5,0.8,0.5l0,0.3c0,0-0.3,0.1-0.9,0.3c-0.6,0.2-1.4,0.3-2.4,0.4
		c-1,0.1-2.1,0.1-3.3,0c-1.2-0.2-2.4-0.6-3.7-0.8c-1.3-0.3-2.5-0.5-3.7-0.8c-1.2-0.3-2.3-0.5-3.2-0.7c-1.9-0.4-3.1-0.8-3.1-0.8
		L366.8,277.7z"/>
</g>
<g id="XMLID_30_">
	<path id="XMLID_546_" d="M387,280.3c0,0,1.1-1.1,2.7-2.6c0.8-0.8,1.8-1.7,2.8-2.6c1-1,2.2-2,3.3-3c1.1-1,2.2-2.1,3.2-3
		c1.1-0.9,2.2-1.5,3.2-2.1c1-0.5,1.9-0.9,2.6-1.1c0.6-0.2,1.1-0.3,1.1-0.3l0.2,0.2c0,0-0.2,0.4-0.6,0.9c-0.4,0.6-1,1.3-1.7,2.2
		c-0.8,0.8-1.7,1.8-2.8,2.6c-1.1,0.8-2.5,1.6-3.7,2.4c-1.2,0.8-2.5,1.7-3.7,2.5c-1.2,0.8-2.3,1.5-3.2,2.1c-1.9,1.2-3.2,2-3.2,2
		L387,280.3z"/>
</g>
<g id="XMLID_29_">
	<path id="XMLID_544_" d="M405.9,265.1c0,0-1.2-0.7-3-1.8c-0.9-0.6-1.9-1.2-3-1.9c-1.1-0.7-2.3-1.5-3.4-2.3
		c-1.1-0.8-2.4-1.4-3.4-2.2c-1-0.8-1.9-1.7-2.6-2.5c-0.7-0.8-1.2-1.5-1.6-2.1c-0.3-0.5-0.5-0.9-0.5-0.9l0.2-0.2c0,0,0.4,0.1,1,0.3
		c0.6,0.2,1.4,0.6,2.4,1c0.9,0.5,2,1.1,3,1.9c1,0.8,2,1.9,3,2.8c1,0.9,2.1,1.9,3,2.8c1,0.9,1.8,1.7,2.6,2.5c1.5,1.4,2.5,2.4,2.5,2.4
		L405.9,265.1z"/>
</g>
<g id="XMLID_28_">
	<path id="XMLID_617_" d="M387.9,251.4c0,0-2.5,1-6.3,2.5c-3.8,1.5-8.9,3.4-13.9,5.4c-1.3,0.5-2.5,1-3.8,1.5c-1.2,0.5-2.5,1-3.7,1.4
		c-1.2,0.4-2.4,0.8-3.5,1.1c-1.1,0.3-2.2,0.6-3.2,0.8c-4,0.9-6.8,1.1-6.8,1.1l-0.1-0.3c0,0,2.4-1.5,6.1-3.1c0.9-0.4,2-0.8,3-1.3
		c1.1-0.4,2.2-0.9,3.4-1.3c1.2-0.4,2.5-0.7,3.8-1.1c1.3-0.4,2.6-0.7,3.9-1.1c5.2-1.5,10.4-3,14.4-4.1c3.9-1.1,6.6-1.8,6.6-1.8
		L387.9,251.4z"/>
</g>
<g id="XMLID_41_">
	<path id="XMLID_616_" class="st1" d="M239.7,236.8"/>
</g>
<g id="XMLID_40_">
	<path id="XMLID_615_" class="st1" d="M250.6,251.3"/>
</g>
<g id="XMLID_116_">
	<path id="XMLID_614_" class="st1" d="M239.7,236.8"/>
</g>
<g id="XMLID_115_">
	<path id="XMLID_613_" class="st3" d="M266,144.6"/>
</g>
<g id="XMLID_35_">
	<path id="XMLID_612_" class="st3" d="M269.1,143.8"/>
</g>
<g id="XMLID_34_">
	<path id="XMLID_611_" class="st3" d="M266,144.6"/>
</g>
<g id="XMLID_114_">
	<path id="XMLID_610_" class="st3" d="M269.1,143.8"/>
</g>
<g id="XMLID_110_">
	<path id="XMLID_609_" class="st1" d="M307.1,251.3"/>
</g>
<g id="XMLID_38_">
	<path id="XMLID_608_" class="st3" d="M389.5,251.3"/>
</g>
<g id="XMLID_112_">
	<path id="XMLID_607_" class="st3" d="M374.2,144.6"/>
</g>
<g id="XMLID_37_">
	<path id="XMLID_606_" class="st3" d="M371.2,143.8"/>
</g>
<g id="XMLID_36_">
	<path id="XMLID_605_" class="st3" d="M374.2,144.6"/>
</g>
<g id="XMLID_71_">
	<path id="XMLID_604_" class="st3" d="M371.2,143.8"/>
</g>
<g id="XMLID_111_">
	<path id="XMLID_475_" class="st3" d="M332.8,251.3"/>
</g>
<g id="XMLID_33_">
	<line id="XMLID_466_" class="st1" x1="239.7" y1="261.1" x2="212.9" y2="242.3"/>
	<path id="XMLID_459_" class="st1" d="M239.6,261.2c0,0-1.8-1-4.4-2.6c-1.3-0.8-2.9-1.7-4.5-2.7c-1.6-1-3.4-2.1-5.1-3.2
		c-0.9-0.5-1.8-1.1-2.6-1.6c-0.9-0.5-1.7-1-2.5-1.6c-0.8-0.6-1.5-1.1-2.2-1.7c-0.7-0.6-1.3-1.1-1.9-1.6c-2.3-2.1-3.6-3.8-3.6-3.8
		l0.2-0.2c0,0,2.1,0.6,4.8,2.1c0.7,0.4,1.4,0.8,2.2,1.2c0.8,0.4,1.5,0.9,2.3,1.5c0.8,0.6,1.6,1.2,2.3,1.8c0.8,0.6,1.6,1.3,2.4,1.9
		c1.6,1.3,3.2,2.5,4.7,3.7c1.5,1.2,2.9,2.3,4.1,3.3c2.4,1.9,4,3.2,4,3.2L239.6,261.2z"/>
</g>
<g id="XMLID_42_">
	<line id="XMLID_453_" class="st1" x1="212.9" y1="242.3" x2="183.5" y2="239.5"/>
	<path id="XMLID_448_" class="st1" d="M212.9,242.5c0,0-1.9,0-4.6-0.1c-1.4,0-3,0-4.7-0.1c-1.7,0-3.6-0.1-5.4-0.2
		c-0.9,0-1.8-0.1-2.8-0.1c-0.9,0-1.8,0-2.7-0.1c-0.9-0.1-1.7-0.2-2.5-0.3c-0.8-0.1-1.5-0.3-2.2-0.5c-2.7-0.6-4.5-1.5-4.5-1.5l0-0.3
		c0,0,1.9-0.5,4.7-0.6c0.7,0,1.5-0.1,2.2,0c0.8,0,1.6,0,2.5,0.1c0.9,0.1,1.7,0.2,2.6,0.4c0.9,0.2,1.8,0.3,2.7,0.5
		c1.8,0.3,3.7,0.5,5.4,0.8c1.7,0.3,3.3,0.6,4.7,0.8c2.7,0.5,4.6,0.8,4.6,0.8L212.9,242.5z"/>
</g>
<g id="XMLID_43_">
	<line id="XMLID_444_" class="st1" x1="183.5" y1="239.5" x2="169.2" y2="229.2"/>
	<path id="XMLID_441_" class="st1" d="M183.4,239.7c0,0-1-0.5-2.5-1.3c-0.7-0.4-1.6-0.9-2.5-1.4c-0.9-0.5-1.9-1.1-2.8-1.6
		c-0.9-0.6-2-1-2.8-1.6c-0.8-0.6-1.5-1.3-2.1-1.9c-0.5-0.7-1-1.2-1.2-1.7c-0.3-0.5-0.4-0.8-0.4-0.8l0.2-0.2c0,0,0.3,0,0.8,0.1
		c0.5,0.1,1.2,0.3,2,0.6c0.8,0.3,1.7,0.8,2.5,1.4c0.8,0.6,1.6,1.5,2.4,2.2c0.8,0.7,1.7,1.4,2.4,2.2c0.8,0.7,1.5,1.4,2.1,1.9
		c1.2,1.1,2,1.9,2,1.9L183.4,239.7z"/>
</g>
<g id="XMLID_44_">
	<line id="XMLID_438_" class="st1" x1="169.2" y1="229.2" x2="166.2" y2="216.6"/>
	<path id="XMLID_436_" class="st1" d="M169.1,229.2c0,0-0.4-0.7-0.8-1.9c-0.2-0.6-0.5-1.2-0.8-1.9c-0.3-0.7-0.6-1.5-0.9-2.2
		c-0.3-0.8-0.7-1.5-0.9-2.2c-0.2-0.7-0.2-1.5-0.1-2.1c0.1-0.6,0.2-1.2,0.3-1.6c0.1-0.4,0.2-0.6,0.2-0.6l0.3-0.1c0,0,0.2,0.2,0.5,0.5
		c0.3,0.3,0.6,0.7,1,1.3c0.3,0.5,0.7,1.2,0.8,1.9c0.2,0.7,0.1,1.6,0.2,2.4c0.1,0.8,0.2,1.6,0.2,2.4c0.1,0.8,0.1,1.5,0.1,2.1
		c0.1,1.2,0.1,2.1,0.1,2.1L169.1,229.2z"/>
</g>
<g id="XMLID_45_">
	<line id="XMLID_434_" class="st1" x1="166.2" y1="216.6" x2="173.5" y2="224.7"/>
	<path id="XMLID_433_" class="st1" d="M166.3,216.5c0,0,0.6,0.4,1.4,1c0.4,0.3,0.9,0.7,1.4,1.1c0.5,0.4,1,0.8,1.6,1.3
		c0.5,0.4,1.2,0.8,1.6,1.2c0.4,0.5,0.7,1,0.9,1.5c0.2,0.5,0.3,1,0.3,1.4c0,0.4,0,0.6,0,0.6l-0.2,0.2c0,0-0.2,0-0.6-0.1
		c-0.4-0.1-0.8-0.2-1.3-0.5c-0.5-0.2-1-0.6-1.4-1.1c-0.4-0.5-0.7-1.2-1.1-1.7c-0.4-0.6-0.8-1.1-1.1-1.7c-0.3-0.5-0.6-1.1-0.9-1.5
		c-0.5-0.9-0.9-1.5-0.9-1.5L166.3,216.5z"/>
</g>
<g id="XMLID_46_">
	<line id="XMLID_431_" class="st1" x1="173.5" y1="224.7" x2="180" y2="229.2"/>
	<path id="XMLID_430_" class="st1" d="M173.6,224.6c0,0,0.5,0.1,1.2,0.4c0.4,0.1,0.8,0.3,1.2,0.4c0.5,0.2,0.9,0.4,1.4,0.6
		c0.5,0.2,1,0.3,1.4,0.5c0.4,0.3,0.6,0.6,0.8,1c0.2,0.4,0.3,0.8,0.4,1.1c0.1,0.3,0.1,0.5,0.1,0.5l-0.2,0.2c0,0-0.2,0.1-0.5,0.1
		c-0.3,0.1-0.7,0.1-1.1,0c-0.4-0.1-0.9-0.2-1.3-0.4c-0.4-0.3-0.6-0.8-1-1.1c-0.3-0.4-0.7-0.7-1-1.1c-0.3-0.4-0.6-0.7-0.8-1
		c-0.5-0.6-0.8-1-0.8-1L173.6,224.6z"/>
</g>
<g id="XMLID_47_">
	<line id="XMLID_428_" class="st1" x1="179" y1="231" x2="191" y2="231"/>
	<path id="XMLID_427_" class="st1" d="M179,230.6c0,0,0.9-0.2,2-0.4c0.6-0.1,1.3-0.2,2-0.3c0.7-0.1,1.5-0.2,2.2-0.3
		c0.8-0.1,1.5-0.3,2.2-0.4c0.7,0,1.4,0.2,1.9,0.4c0.6,0.2,0.9,0.4,1.2,0.7c0.3,0.2,0.4,0.4,0.4,0.4v0.3c0,0,0,0.2-0.4,0.4
		c-0.3,0.2-0.7,0.5-1.3,0.7c-0.6,0.2-1.2,0.4-1.9,0.4c-0.7,0-1.4-0.3-2.2-0.4c-0.8-0.1-1.5-0.2-2.2-0.3c-0.7-0.1-1.5-0.2-2.1-0.3
		c-1.1-0.2-2-0.4-2-0.4V230.6z"/>
</g>
<g id="XMLID_48_">
	<line id="XMLID_425_" class="st1" x1="191.3" y1="230" x2="151.4" y2="180.8"/>
	<path id="XMLID_424_" class="st1" d="M191.2,230.1c0,0-2.6-3-6.5-7.4c-3.9-4.5-9.1-10.5-14.2-16.5c-1.3-1.5-2.6-3-3.9-4.5
		c-1.3-1.5-2.5-2.9-3.7-4.3c-1.2-1.4-2.3-2.8-3.3-4.2c-1-1.4-2-2.7-2.8-3.9c-3.5-4.8-5.4-8.3-5.4-8.3l0.2-0.2c0,0,3,2.6,7.1,7
		c1,1.1,2.1,2.3,3.2,3.6c1.1,1.3,2.3,2.6,3.5,4.1c1.2,1.4,2.3,3,3.5,4.5c1.2,1.6,2.4,3.1,3.6,4.7c4.8,6.3,9.7,12.6,13.2,17.3
		c3.6,4.8,5.9,7.9,5.9,7.9L191.2,230.1z"/>
</g>
<g id="XMLID_49_">
	<line id="XMLID_422_" class="st1" x1="151.4" y1="180.8" x2="148.6" y2="167"/>
	<path id="XMLID_421_" class="st1" d="M151.2,180.9c0,0-0.3-0.8-0.8-2.1c-0.2-0.6-0.5-1.4-0.8-2.2c-0.3-0.8-0.5-1.6-0.8-2.5
		c-0.3-0.8-0.7-1.7-0.9-2.5c-0.2-0.8-0.2-1.6-0.1-2.3c0.1-0.7,0.2-1.3,0.3-1.7c0.1-0.4,0.3-0.7,0.3-0.7l0.3-0.1c0,0,0.2,0.2,0.5,0.5
		c0.3,0.3,0.6,0.8,1,1.4c0.3,0.6,0.6,1.3,0.8,2.1c0.1,0.8,0.1,1.7,0.2,2.6c0.1,0.9,0.2,1.8,0.2,2.6c0.1,0.8,0.1,1.6,0.1,2.3
		c0.1,1.3,0.1,2.2,0.1,2.2L151.2,180.9z"/>
</g>
<g id="XMLID_50_">
	<line id="XMLID_419_" class="st1" x1="148.6" y1="167" x2="150" y2="155.1"/>
	<path id="XMLID_418_" class="st1" d="M148.5,167c0,0-0.1-0.8-0.2-1.9c0-0.6-0.1-1.2-0.1-1.9c0-0.7,0-1.5-0.1-2.2
		c0-0.8-0.2-1.5-0.1-2.2c0.1-0.7,0.3-1.3,0.6-1.9c0.3-0.5,0.6-1,0.8-1.3c0.2-0.3,0.4-0.5,0.4-0.5l0.3,0c0,0,0.2,0.2,0.3,0.6
		c0.2,0.3,0.4,0.8,0.5,1.4c0.1,0.6,0.2,1.2,0.1,1.9c-0.1,0.7-0.4,1.4-0.6,2.1c-0.2,0.7-0.4,1.5-0.6,2.1c-0.2,0.7-0.4,1.3-0.6,1.9
		c-0.3,1.1-0.6,1.8-0.6,1.8L148.5,167z"/>
</g>
<g id="XMLID_51_">
	<line id="XMLID_416_" class="st1" x1="150" y1="155.1" x2="151.4" y2="167"/>
	<path id="XMLID_415_" class="st1" d="M150.2,155.1c0,0,0.3,0.7,0.6,1.8c0.2,0.5,0.4,1.2,0.6,1.9c0.2,0.7,0.4,1.4,0.6,2.1
		c0.2,0.7,0.5,1.4,0.6,2.1c0.1,0.7,0,1.4-0.1,1.9c-0.1,0.6-0.3,1.1-0.5,1.4c-0.2,0.3-0.3,0.6-0.3,0.6l-0.3,0c0,0-0.2-0.2-0.4-0.5
		c-0.3-0.3-0.5-0.7-0.8-1.3c-0.3-0.5-0.5-1.2-0.6-1.9c-0.1-0.7,0.1-1.5,0.1-2.2c0-0.8,0-1.5,0.1-2.2c0-0.7,0.1-1.4,0.1-1.9
		c0.1-1.1,0.2-1.9,0.2-1.9L150.2,155.1z"/>
</g>
<g id="XMLID_52_">
	<line id="XMLID_413_" class="st1" x1="151.4" y1="167" x2="163.9" y2="182.6"/>
	<path id="XMLID_412_" class="st1" d="M151.5,166.9c0,0,0.9,0.9,2.3,2.2c0.7,0.7,1.5,1.4,2.3,2.3c0.8,0.8,1.7,1.8,2.6,2.7
		c0.9,0.9,1.8,1.7,2.6,2.6c0.7,0.9,1.3,1.9,1.7,2.7c0.4,0.9,0.7,1.6,0.9,2.2c0.2,0.6,0.2,0.9,0.2,0.9l-0.2,0.2c0,0-0.3-0.1-0.8-0.4
		c-0.5-0.3-1.2-0.8-1.9-1.4c-0.7-0.6-1.6-1.4-2.3-2.3c-0.7-0.9-1.3-2.1-2-3.1c-0.7-1-1.4-2.1-2.1-3.1c-0.7-1-1.2-1.9-1.7-2.7
		c-1-1.6-1.7-2.7-1.7-2.7L151.5,166.9z"/>
</g>
<g id="XMLID_53_">
	<line id="XMLID_410_" class="st1" x1="163.9" y1="182.6" x2="162.4" y2="133"/>
	<path id="XMLID_409_" class="st1" d="M163.8,182.6c0,0-0.2-3.1-0.6-7.7c-0.4-4.6-0.8-10.8-1.2-17c-0.1-1.5-0.2-3.1-0.3-4.6
		c-0.1-1.5-0.2-3-0.3-4.5c0-1.5-0.1-2.9,0-4.2c0-1.3,0.1-2.6,0.1-3.8c0.2-4.7,0.8-7.8,0.8-7.8l0.3,0c0,0,0.8,3.1,1.3,7.7
		c0.1,1.2,0.3,2.4,0.4,3.7c0.1,1.3,0.2,2.7,0.2,4.2c0,1.5,0,3,0,4.5c0,1.5,0,3.1-0.1,4.6c0,6.2,0,12.4-0.1,17.1
		c-0.1,4.7-0.1,7.8-0.1,7.8L163.8,182.6z"/>
</g>
<g id="XMLID_54_">
	<line id="XMLID_407_" class="st1" x1="162.4" y1="133" x2="181" y2="99.4"/>
	<path id="XMLID_406_" class="st1" d="M162.3,132.9c0,0,1-2.2,2.6-5.4c1.5-3.3,3.7-7.5,5.8-11.8c0.5-1.1,1-2.2,1.6-3.2
		c0.5-1.1,1-2.1,1.5-3.1c0.5-1,1.1-1.9,1.7-2.8c0.6-0.9,1.1-1.7,1.6-2.4c2.1-3,3.8-4.7,3.8-4.7l0.3,0.1c0,0-0.6,2.4-2,5.7
		c-0.3,0.8-0.7,1.7-1.2,2.7c-0.4,0.9-0.9,1.9-1.5,2.9c-0.6,1-1.2,2-1.8,3c-0.6,1-1.3,2-1.9,3c-2.5,4.1-5,8.2-7,11.2
		c-1.9,3-3.2,5.1-3.2,5.1L162.3,132.9z"/>
</g>
<g id="XMLID_55_">
	<line id="XMLID_404_" class="st1" x1="181" y1="99.4" x2="187.3" y2="98.4"/>
	<path id="XMLID_403_" class="st1" d="M181,99.3c0,0,0.4-0.2,0.9-0.5c0.3-0.2,0.6-0.3,1-0.5c0.3-0.2,0.7-0.3,1.1-0.5
		c0.4-0.1,0.7-0.5,1.1-0.5c0.4-0.1,0.7,0,1.1,0.2c0.3,0.2,0.6,0.3,0.8,0.5c0.2,0.2,0.3,0.3,0.3,0.3l0,0.3c0,0-0.1,0.2-0.2,0.4
		c-0.1,0.2-0.3,0.5-0.6,0.8c-0.3,0.2-0.6,0.5-0.9,0.5c-0.4,0-0.8-0.1-1.2-0.2c-0.4,0-0.8-0.1-1.2-0.1c-0.4,0-0.7-0.1-1.1-0.2
		c-0.6-0.1-1-0.2-1-0.2L181,99.3z"/>
</g>
<g id="XMLID_56_">
	<line id="XMLID_401_" class="st1" x1="187.3" y1="98.4" x2="173.5" y2="125.1"/>
	<path id="XMLID_400_" class="st1" d="M187.4,98.5c0,0-0.7,1.8-1.8,4.4c-0.6,1.3-1.2,2.8-1.9,4.4c-0.7,1.6-1.5,3.3-2.3,5.1
		c-0.4,0.9-0.7,1.7-1.1,2.6c-0.4,0.9-0.7,1.7-1.1,2.5c-0.4,0.8-0.8,1.5-1.3,2.2c-0.4,0.7-0.9,1.3-1.3,1.9c-1.6,2.3-3.1,3.7-3.1,3.7
		l-0.3-0.1c0,0,0.3-2,1.2-4.7c0.2-0.7,0.5-1.4,0.8-2.1c0.3-0.8,0.7-1.5,1.1-2.3c0.4-0.8,0.9-1.6,1.4-2.3c0.5-0.8,1-1.6,1.5-2.4
		c1-1.6,1.9-3.3,2.8-4.8c0.9-1.5,1.8-2.9,2.5-4.1c1.5-2.4,2.5-4,2.5-4L187.4,98.5z"/>
</g>
<g id="XMLID_57_">
	<line id="XMLID_398_" class="st1" x1="173.5" y1="125.1" x2="178.3" y2="157.8"/>
	<path id="XMLID_397_" class="st1" d="M173.6,125.1c0,0,0.5,2,1.1,5c0.3,1.5,0.7,3.3,1.1,5.2c0.4,1.9,0.8,3.9,1.2,5.9
		c0.2,1,0.4,2,0.6,3c0.2,1,0.4,2,0.6,2.9c0.1,1,0.2,1.9,0.3,2.8c0.1,0.9,0.1,1.7,0.1,2.5c0.1,3.1-0.3,5.3-0.3,5.3l-0.3,0
		c0,0-1-1.9-1.8-4.9c-0.2-0.7-0.4-1.6-0.6-2.4c-0.2-0.9-0.4-1.8-0.5-2.7c-0.1-1-0.2-2-0.3-3c-0.1-1-0.2-2-0.2-3.1
		c-0.2-2.1-0.4-4.1-0.6-6c-0.2-1.9-0.3-3.7-0.4-5.3c-0.2-3.1-0.4-5.2-0.4-5.2L173.6,125.1z"/>
</g>
<g id="XMLID_58_">
	<line id="XMLID_395_" class="st1" x1="178.3" y1="157.8" x2="198.2" y2="133"/>
	<path id="XMLID_394_" class="st1" d="M178.1,157.7c0,0,1.1-1.7,2.8-4.1c0.9-1.2,1.8-2.7,2.9-4.2c1.1-1.5,2.3-3.1,3.4-4.8
		c0.6-0.8,1.1-1.6,1.7-2.4c0.5-0.8,1.1-1.6,1.7-2.3c0.6-0.7,1.2-1.4,1.8-2c0.6-0.6,1.2-1.2,1.7-1.7c2.2-2.1,3.9-3.2,3.9-3.2l0.2,0.2
		c0,0-0.7,2-2.3,4.5c-0.4,0.6-0.8,1.3-1.3,2c-0.5,0.7-1,1.4-1.6,2.2c-0.6,0.7-1.2,1.4-1.9,2.1c-0.7,0.7-1.3,1.5-2,2.2
		c-1.3,1.5-2.6,3-3.9,4.4c-1.3,1.4-2.4,2.7-3.5,3.8c-2,2.2-3.4,3.6-3.4,3.6L178.1,157.7z"/>
</g>
<g id="XMLID_59_">
	<line id="XMLID_392_" class="st1" x1="198.2" y1="133" x2="208.6" y2="106.2"/>
	<path id="XMLID_391_" class="st1" d="M198.1,132.9c0,0,0.5-1.7,1.3-4.3c0.4-1.3,0.8-2.8,1.3-4.4c0.5-1.6,1.1-3.3,1.6-5
		c0.3-0.9,0.5-1.7,0.8-2.6c0.2-0.9,0.5-1.7,0.8-2.5c0.3-0.8,0.6-1.5,1-2.2c0.3-0.7,0.7-1.3,1-1.9c1.3-2.4,2.6-3.8,2.6-3.8l0.3,0.1
		c0,0,0,1.9-0.6,4.6c-0.1,0.7-0.3,1.4-0.6,2.1c-0.2,0.7-0.5,1.5-0.8,2.3c-0.3,0.8-0.7,1.6-1.1,2.4c-0.4,0.8-0.8,1.6-1.2,2.4
		c-0.7,1.6-1.5,3.3-2.2,4.8c-0.7,1.5-1.4,2.9-2,4.2c-1.2,2.4-2,4-2,4L198.1,132.9z"/>
</g>
<g id="XMLID_60_">
	<line id="XMLID_389_" class="st1" x1="208.6" y1="106.2" x2="203.4" y2="140"/>
	<path id="XMLID_388_" class="st1" d="M208.8,106.3c0,0-0.1,2.1-0.4,5.3c-0.1,1.6-0.3,3.5-0.5,5.5c-0.2,2-0.4,4.1-0.6,6.2
		c-0.1,1.1-0.2,2.1-0.3,3.2c-0.1,1.1-0.2,2.1-0.3,3.1c-0.2,1-0.3,1.9-0.6,2.8c-0.2,0.9-0.4,1.7-0.6,2.5c-0.9,3.1-1.9,5.1-1.9,5.1
		l-0.3,0c0,0-0.3-2.2-0.2-5.4c0-0.8,0.1-1.7,0.1-2.6c0.1-0.9,0.2-1.9,0.3-2.9c0.2-1,0.4-2,0.6-3c0.2-1,0.5-2.1,0.7-3.1
		c0.4-2.1,0.8-4.2,1.3-6.2c0.4-2,0.8-3.8,1.2-5.4c0.7-3.1,1.2-5.2,1.2-5.2L208.8,106.3z"/>
</g>
<g id="XMLID_61_">
	<line id="XMLID_386_" class="st1" x1="203.4" y1="140" x2="189.6" y2="173.9"/>
	<path id="XMLID_385_" class="st1" d="M203.6,140.1c0,0-0.7,2.2-1.8,5.4c-1.1,3.3-2.6,7.6-4.2,11.9c-0.4,1.1-0.7,2.2-1.1,3.2
		c-0.3,1.1-0.7,2.1-1.1,3.1c-0.4,1-0.8,1.9-1.3,2.8c-0.4,0.9-0.9,1.7-1.3,2.5c-1.6,3-3.1,4.9-3.1,4.9l-0.3-0.1c0,0,0.2-2.4,1.2-5.7
		c0.2-0.8,0.5-1.7,0.8-2.7c0.3-0.9,0.7-1.9,1.1-2.9c0.4-1,0.9-2,1.4-3c0.5-1,1-2.1,1.5-3.1c2-4.1,3.9-8.3,5.4-11.4
		c1.5-3.1,2.5-5.2,2.5-5.2L203.6,140.1z"/>
</g>
<g id="XMLID_62_">
	<line id="XMLID_383_" class="st1" x1="189.6" y1="173.9" x2="196.5" y2="168"/>
	<path id="XMLID_382_" class="st1" d="M189.5,173.8c0,0,0.3-0.5,0.8-1.2c0.3-0.4,0.5-0.8,0.9-1.2c0.3-0.4,0.7-0.9,1.1-1.3
		c0.4-0.4,0.6-1,1-1.4c0.4-0.4,0.9-0.5,1.3-0.7c0.5-0.1,0.9-0.2,1.2-0.2c0.3,0,0.5,0,0.5,0l0.2,0.2c0,0,0,0.2,0,0.5
		c0,0.3-0.2,0.7-0.4,1.2c-0.2,0.4-0.5,0.9-0.9,1.2c-0.4,0.3-1,0.5-1.5,0.8c-0.5,0.3-1,0.6-1.5,0.8c-0.5,0.3-0.9,0.5-1.3,0.7
		c-0.8,0.4-1.3,0.6-1.3,0.6L189.5,173.8z"/>
</g>
<g id="XMLID_63_">
	<line id="XMLID_380_" class="st1" x1="196.5" y1="168" x2="195.1" y2="174.8"/>
	<path id="XMLID_379_" class="st1" d="M196.6,168c0,0,0.1,0.5,0.2,1.1c0,0.3,0.1,0.7,0.1,1.2c0,0.4,0,0.9,0.1,1.3
		c0,0.4,0.2,0.9,0.1,1.3c-0.1,0.4-0.3,0.7-0.6,1c-0.3,0.3-0.6,0.5-0.8,0.6c-0.2,0.1-0.4,0.2-0.4,0.2l-0.3-0.1c0,0-0.1-0.1-0.3-0.4
		c-0.2-0.2-0.4-0.5-0.5-0.9c-0.1-0.4-0.2-0.8-0.1-1.2c0.1-0.4,0.4-0.8,0.6-1.2c0.2-0.4,0.4-0.8,0.6-1.2c0.2-0.4,0.4-0.7,0.6-1
		c0.3-0.6,0.6-1,0.6-1L196.6,168z"/>
</g>
<g id="XMLID_64_">
	<line id="XMLID_377_" class="st1" x1="195.1" y1="174.8" x2="199.6" y2="216.6"/>
	<path id="XMLID_376_" class="st1" d="M195.2,174.8c0,0,0.5,2.6,1.1,6.5c0.7,3.9,1.4,9.1,2.2,14.3c0.2,1.3,0.4,2.6,0.6,3.9
		c0.2,1.3,0.4,2.5,0.6,3.8c0.1,1.2,0.2,2.4,0.3,3.5c0.1,1.1,0.1,2.2,0.1,3.2c0,4-0.3,6.6-0.3,6.6l-0.3,0c0,0-1-2.5-1.8-6.4
		c-0.2-1-0.4-2-0.6-3.1c-0.2-1.1-0.4-2.3-0.5-3.5c-0.1-1.2-0.2-2.5-0.3-3.8c-0.1-1.3-0.1-2.6-0.2-3.9c-0.3-5.3-0.7-10.5-0.9-14.5
		c-0.2-3.9-0.3-6.6-0.3-6.6L195.2,174.8z"/>
</g>
<g id="XMLID_65_">
	<line id="XMLID_374_" class="st1" x1="199.6" y1="216.6" x2="206" y2="224.7"/>
	<path id="XMLID_373_" class="st1" d="M199.7,216.5c0,0,0.5,0.4,1.3,1c0.4,0.3,0.8,0.7,1.3,1.1c0.5,0.4,0.9,0.8,1.4,1.3
		c0.5,0.4,1.1,0.8,1.5,1.3c0.4,0.5,0.6,1,0.8,1.5c0.1,0.5,0.2,1,0.2,1.3c0,0.4,0,0.6,0,0.6l-0.2,0.2c0,0-0.2,0-0.6-0.1
		c-0.4-0.1-0.8-0.3-1.2-0.5c-0.5-0.3-0.9-0.6-1.3-1.1c-0.4-0.5-0.6-1.1-0.9-1.7c-0.3-0.6-0.7-1.1-0.9-1.7c-0.3-0.5-0.5-1.1-0.8-1.5
		c-0.4-0.9-0.7-1.5-0.7-1.5L199.7,216.5z"/>
</g>
<g id="XMLID_66_">
	<line id="XMLID_371_" class="st1" x1="206" y1="224.7" x2="257.7" y2="242.3"/>
	<path id="XMLID_370_" class="st1" d="M206.1,224.5c0,0,3.3,1,8.2,2.4c4.9,1.4,11.4,3.4,18,5.4c1.6,0.5,3.3,1,4.9,1.5
		c1.6,0.5,3.2,0.9,4.7,1.4c1.5,0.5,3,1,4.3,1.6c1.4,0.5,2.7,1.1,3.8,1.6c4.7,2,7.7,3.8,7.7,3.8l-0.1,0.3c0,0-3.4-0.5-8.4-1.8
		c-1.2-0.3-2.6-0.7-4-1.1c-1.4-0.4-2.9-0.9-4.4-1.4c-1.5-0.5-3.1-1.1-4.6-1.7c-1.6-0.6-3.2-1.2-4.8-1.8c-6.4-2.4-12.8-4.8-17.6-6.7
		c-4.8-1.9-8-3.1-8-3.1L206.1,224.5z"/>
</g>
<g id="XMLID_67_">
	<line id="XMLID_368_" class="st1" x1="257.7" y1="242.3" x2="235.8" y2="220.6"/>
	<path id="XMLID_367_" class="st1" d="M257.6,242.4c0,0-1.5-1.2-3.7-3.1c-1.1-0.9-2.4-2-3.8-3.2c-1.4-1.2-2.8-2.5-4.3-3.8
		c-0.7-0.6-1.5-1.3-2.2-1.9c-0.7-0.6-1.4-1.2-2.1-1.8c-0.6-0.6-1.2-1.3-1.8-1.9c-0.5-0.6-1-1.2-1.5-1.8c-1.8-2.3-2.7-4.1-2.7-4.1
		l0.2-0.2c0,0,1.8,0.9,4.2,2.6c0.6,0.4,1.2,0.9,1.8,1.5c0.6,0.5,1.3,1.1,1.9,1.8c0.6,0.6,1.3,1.3,1.9,2.1c0.6,0.7,1.3,1.4,1.9,2.2
		c1.3,1.4,2.6,2.8,3.8,4.2c1.2,1.3,2.3,2.6,3.3,3.7c1.9,2.2,3.2,3.7,3.2,3.7L257.6,242.4z"/>
</g>
<g id="XMLID_68_">
	<line id="XMLID_365_" class="st1" x1="235.8" y1="220.6" x2="236.8" y2="212.3"/>
	<path id="XMLID_364_" class="st1" d="M235.6,220.6c0,0-0.1-0.5-0.2-1.3c-0.1-0.4-0.1-0.9-0.2-1.4c-0.1-0.5-0.1-1-0.1-1.6
		c0-0.5-0.2-1.1-0.2-1.6c0.1-0.5,0.3-0.9,0.5-1.3c0.3-0.4,0.5-0.7,0.8-0.9c0.2-0.2,0.4-0.3,0.4-0.3l0.3,0c0,0,0.2,0.2,0.3,0.4
		c0.2,0.3,0.4,0.6,0.5,1c0.1,0.4,0.3,0.9,0.2,1.4c-0.1,0.5-0.4,1-0.5,1.5c-0.2,0.5-0.3,1-0.5,1.5c-0.2,0.5-0.4,0.9-0.5,1.3
		c-0.3,0.8-0.5,1.3-0.5,1.3L235.6,220.6z"/>
</g>
<g id="XMLID_69_">
	<line id="XMLID_362_" class="st1" x1="236.8" y1="212.3" x2="239.7" y2="218.6"/>
	<path id="XMLID_361_" class="st1" d="M236.9,212.3c0,0,0.3,0.3,0.8,0.8c0.2,0.3,0.5,0.5,0.8,0.9c0.3,0.3,0.5,0.7,0.8,1
		c0.3,0.4,0.7,0.6,0.9,1c0.2,0.4,0.2,0.8,0.1,1.2c-0.1,0.4-0.2,0.7-0.3,1c-0.1,0.3-0.2,0.4-0.2,0.4l-0.3,0.1c0,0-0.2,0-0.5-0.1
		c-0.3-0.1-0.6-0.2-0.9-0.4c-0.3-0.2-0.6-0.5-0.8-0.9c-0.2-0.4-0.1-0.9-0.2-1.3c-0.1-0.4-0.2-0.9-0.2-1.3c-0.1-0.4-0.1-0.8-0.1-1.2
		c-0.1-0.7-0.1-1.1-0.1-1.1L236.9,212.3z"/>
</g>
<g id="XMLID_70_">
	<line id="XMLID_359_" class="st1" x1="239.7" y1="218.6" x2="261.9" y2="236.8"/>
	<path id="XMLID_358_" class="st1" d="M239.7,218.5c0,0,1.5,1,3.7,2.5c1.1,0.8,2.4,1.7,3.8,2.6c1.4,1,2.8,2,4.3,3.1
		c0.7,0.5,1.5,1,2.2,1.5c0.7,0.5,1.4,1,2.1,1.5c0.6,0.5,1.3,1.1,1.8,1.6c0.6,0.5,1.1,1.1,1.5,1.6c1.8,2,2.8,3.6,2.8,3.6l-0.2,0.2
		c0,0-1.8-0.6-4.1-2c-0.6-0.3-1.2-0.7-1.8-1.2c-0.6-0.4-1.3-0.9-1.9-1.4c-0.6-0.5-1.3-1.1-1.9-1.8c-0.6-0.6-1.3-1.2-1.9-1.9
		c-1.3-1.2-2.7-2.4-3.9-3.6c-1.2-1.1-2.4-2.2-3.3-3.2c-2-1.9-3.2-3.1-3.2-3.1L239.7,218.5z"/>
</g>
<g id="XMLID_72_">
	<line id="XMLID_356_" class="st1" x1="261.9" y1="236.8" x2="241.8" y2="207.3"/>
	<path id="XMLID_355_" class="st1" d="M261.7,236.9c0,0-1.4-1.7-3.5-4.4c-2.1-2.6-4.8-6.2-7.5-9.8c-0.7-0.9-1.4-1.8-2-2.6
		c-0.7-0.9-1.3-1.7-1.9-2.6c-0.6-0.9-1.1-1.7-1.6-2.6c-0.5-0.8-0.9-1.6-1.3-2.4c-1.6-3-2.3-5.2-2.3-5.2l0.2-0.2c0,0,1.8,1.5,4,4
		c0.6,0.6,1.1,1.3,1.7,2.1c0.6,0.7,1.2,1.6,1.8,2.4c0.6,0.9,1.1,1.8,1.7,2.8c0.6,0.9,1.1,1.9,1.7,2.9c2.3,3.8,4.7,7.6,6.4,10.5
		c1.7,2.9,2.8,4.8,2.8,4.8L261.7,236.9z"/>
</g>
<g id="XMLID_73_">
	<line id="XMLID_353_" class="st1" x1="241" y1="208" x2="241" y2="176"/>
	<path id="XMLID_352_" class="st1" d="M240.9,208c0,0-0.2-2-0.4-4.9c-0.1-1.5-0.2-3.2-0.3-5.1c-0.1-1.9-0.2-3.8-0.3-5.8
		c-0.1-1-0.1-2-0.2-3c-0.1-1-0.1-1.9-0.2-2.9c0-0.9,0-1.8,0.1-2.7c0.1-0.9,0.1-1.8,0.3-2.6c0.4-3,1.1-5.1,1.1-5.1h0.3
		c0,0,0.7,2.1,1.1,5.1c0.1,0.7,0.2,1.6,0.3,2.5c0.1,0.9,0.1,1.8,0.1,2.7c0,0.9-0.1,1.9-0.2,2.9c-0.1,1-0.1,2-0.2,3
		c-0.1,2-0.2,4-0.3,5.8c-0.1,1.9-0.2,3.6-0.3,5.1c-0.2,3-0.4,4.9-0.4,4.9H240.9z"/>
</g>
<g id="XMLID_74_">
	<line id="XMLID_350_" class="st1" x1="241.8" y1="176.3" x2="245" y2="188.9"/>
	<path id="XMLID_349_" class="st1" d="M241.9,176.3c0,0,0.4,0.7,0.9,1.9c0.3,0.6,0.6,1.2,0.9,1.9c0.3,0.7,0.6,1.5,0.9,2.2
		c0.3,0.8,0.7,1.5,1,2.2c0.2,0.7,0.2,1.5,0.2,2.1c-0.1,0.6-0.1,1.2-0.3,1.6c-0.1,0.4-0.2,0.6-0.2,0.6l-0.3,0.1c0,0-0.2-0.2-0.5-0.4
		c-0.3-0.3-0.7-0.7-1-1.3c-0.3-0.5-0.7-1.2-0.9-1.9c-0.2-0.7-0.1-1.6-0.2-2.4c-0.1-0.8-0.2-1.6-0.3-2.4c-0.1-0.8-0.1-1.5-0.2-2.1
		c-0.1-1.2-0.1-2.1-0.1-2.1L241.9,176.3z"/>
</g>
<g id="XMLID_75_">
	<line id="XMLID_603_" class="st1" x1="245" y1="188.9" x2="246.7" y2="205.4"/>
	<path id="XMLID_587_" class="st1" d="M245.2,188.9c0,0,0.3,1,0.6,2.5c0.2,0.8,0.4,1.7,0.6,2.6c0.2,1,0.4,2,0.6,3c0.2,1,0.6,2,0.7,3
		c0.1,1,0,1.9-0.1,2.7c-0.1,0.8-0.3,1.5-0.5,1.9c-0.2,0.5-0.3,0.7-0.3,0.7l-0.3,0c0,0-0.2-0.2-0.5-0.7c-0.3-0.4-0.6-1-0.9-1.8
		c-0.3-0.8-0.5-1.6-0.6-2.6c-0.1-1,0.1-2,0-3.1c0-1,0-2.1,0-3.1c0-1,0-1.9,0.1-2.7c0-1.6,0.1-2.6,0.1-2.6L245.2,188.9z"/>
</g>
<g id="XMLID_118_">
	<path id="XMLID_602_" class="st3" d="M400.1,236.8"/>
</g>
<g id="XMLID_117_">
	<path id="XMLID_339_" class="st3" d="M400.1,236.8"/>
</g>
<g id="XMLID_113_">
	<path id="XMLID_333_" d="M400,261c0,0,1.6-1.3,4-3.2c1.2-1,2.6-2.1,4.1-3.3c1.5-1.2,3.1-2.4,4.7-3.7c0.8-0.6,1.6-1.3,2.4-1.9
		c0.8-0.6,1.6-1.3,2.3-1.8c0.8-0.5,1.6-1.1,2.3-1.5c0.8-0.5,1.5-0.9,2.2-1.2c2.7-1.5,4.8-2.1,4.8-2.1l0.2,0.2c0,0-1.3,1.7-3.6,3.8
		c-0.6,0.5-1.2,1.1-1.9,1.6c-0.7,0.6-1.4,1.1-2.2,1.7c-0.8,0.5-1.6,1.1-2.5,1.6c-0.9,0.5-1.7,1.1-2.6,1.6c-1.7,1.1-3.5,2.2-5.1,3.2
		c-1.6,1-3.2,1.9-4.5,2.7c-2.6,1.6-4.4,2.6-4.4,2.6L400,261z"/>
</g>
<g id="XMLID_109_">
	<path id="XMLID_328_" d="M426.9,242.2c0,0,1.8-0.4,4.6-0.8c1.4-0.2,3-0.5,4.7-0.8c1.7-0.3,3.6-0.5,5.4-0.8c0.9-0.2,1.8-0.3,2.7-0.5
		c0.9-0.2,1.8-0.3,2.6-0.4c0.9-0.1,1.7-0.1,2.5-0.1c0.8,0,1.6,0,2.3,0c2.8,0.1,4.7,0.6,4.7,0.6l0,0.3c0,0-1.8,0.8-4.5,1.5
		c-0.7,0.2-1.4,0.3-2.2,0.5c-0.8,0.2-1.6,0.3-2.5,0.3c-0.9,0.1-1.8,0.1-2.7,0.1c-0.9,0-1.8,0-2.8,0.1c-1.9,0.1-3.7,0.2-5.4,0.2
		c-1.7,0.1-3.4,0.1-4.8,0.1c-2.8,0.1-4.6,0.1-4.6,0.1L426.9,242.2z"/>
</g>
<g id="XMLID_108_">
	<path id="XMLID_326_" d="M456.3,239.4c0,0,0.8-0.8,2-1.9c0.6-0.6,1.3-1.2,2.1-1.9c0.8-0.7,1.6-1.4,2.5-2.2c0.8-0.7,1.6-1.6,2.4-2.2
		c0.8-0.6,1.7-1,2.5-1.4c0.8-0.3,1.5-0.5,2-0.6c0.5-0.1,0.8-0.1,0.8-0.1l0.2,0.2c0,0-0.1,0.3-0.4,0.8c-0.3,0.5-0.7,1.1-1.2,1.7
		c-0.6,0.6-1.2,1.3-2.1,1.9c-0.9,0.6-1.9,1-2.8,1.6c-1,0.6-1.9,1.1-2.8,1.6c-0.9,0.5-1.8,1-2.5,1.4c-1.5,0.8-2.5,1.3-2.5,1.3
		L456.3,239.4z"/>
</g>
<g id="XMLID_107_">
	<path id="XMLID_324_" d="M470.6,229.2c0,0,0-0.8,0.1-2.1c0-0.6,0.1-1.3,0.1-2.1c0.1-0.8,0.2-1.6,0.2-2.4c0.1-0.8,0-1.7,0.2-2.4
		c0.2-0.7,0.5-1.4,0.8-1.9c0.3-0.5,0.7-1,1-1.3c0.3-0.3,0.5-0.5,0.5-0.5l0.3,0.1c0,0,0.1,0.2,0.2,0.6c0.1,0.4,0.2,0.9,0.3,1.6
		c0,0.6,0,1.4-0.1,2.1c-0.2,0.7-0.6,1.5-0.9,2.2c-0.3,0.8-0.6,1.5-0.9,2.2c-0.3,0.7-0.6,1.4-0.8,1.9c-0.5,1.1-0.8,1.9-0.8,1.9
		L470.6,229.2z"/>
</g>
<g id="XMLID_106_">
	<path id="XMLID_322_" d="M473.9,216.7c0,0-0.3,0.6-0.9,1.5c-0.3,0.5-0.6,1-0.9,1.5c-0.3,0.6-0.7,1.1-1.1,1.7
		c-0.4,0.6-0.7,1.2-1.1,1.7c-0.4,0.5-1,0.8-1.4,1.1c-0.5,0.2-1,0.4-1.3,0.5c-0.4,0.1-0.6,0.1-0.6,0.1l-0.2-0.2c0,0,0-0.2,0-0.6
		c0-0.4,0.1-0.8,0.3-1.4c0.2-0.5,0.5-1.1,0.9-1.5c0.4-0.5,1.1-0.8,1.6-1.2c0.5-0.4,1.1-0.9,1.6-1.3c0.5-0.4,1-0.8,1.4-1.1
		c0.8-0.6,1.4-1,1.4-1L473.9,216.7z"/>
</g>
<g id="XMLID_105_">
	<path id="XMLID_320_" d="M466.5,224.8c0,0-0.3,0.4-0.8,1c-0.2,0.3-0.5,0.7-0.9,1c-0.3,0.4-0.7,0.7-1,1.1c-0.4,0.4-0.6,0.8-1,1.1
		c-0.4,0.3-0.8,0.4-1.3,0.4c-0.4,0-0.8,0-1.1,0c-0.3-0.1-0.5-0.1-0.5-0.1l-0.2-0.2c0,0,0-0.2,0.1-0.5c0.1-0.3,0.2-0.7,0.4-1.1
		c0.2-0.4,0.5-0.8,0.8-1c0.4-0.2,1-0.3,1.4-0.5c0.5-0.2,0.9-0.4,1.4-0.6c0.4-0.2,0.9-0.3,1.2-0.4c0.7-0.3,1.2-0.4,1.2-0.4
		L466.5,224.8z"/>
</g>
<g id="XMLID_104_">
	<path id="XMLID_318_" d="M461,230.9c0,0-1,0.2-2.1,0.4c-0.6,0.1-1.3,0.2-2,0.3c-0.7,0.1-1.5,0.2-2.3,0.3c-0.8,0.1-1.5,0.3-2.2,0.4
		c-0.7,0-1.4-0.2-1.9-0.4c-0.6-0.2-0.8-0.4-1.1-0.7c-0.3-0.2-0.3-0.4-0.3-0.4v-0.3c0,0-0.1-0.2,0.3-0.4c0.3-0.2,0.7-0.5,1.2-0.7
		c0.6-0.2,1.2-0.4,1.9-0.4c0.7,0,1.4,0.3,2.2,0.4c0.8,0.1,1.5,0.2,2.2,0.3c0.7,0.1,1.6,0.2,2.1,0.3c1.1,0.2,2.1,0.4,2.1,0.4V230.9z"
		/>
</g>
<g id="XMLID_103_">
	<path id="XMLID_316_" d="M448.4,229.9c0,0,2.4-3.2,6-7.9c3.6-4.8,8.4-11,13.3-17.3c1.2-1.6,2.4-3.2,3.6-4.7
		c1.2-1.6,2.3-3.1,3.5-4.5c1.2-1.4,2.3-2.8,3.5-4.1c1.1-1.3,2.2-2.5,3.2-3.6c4-4.4,7.1-7,7.1-7l0.2,0.2c0,0-2,3.5-5.4,8.3
		c-0.9,1.2-1.8,2.5-2.8,3.9c-1,1.4-2.1,2.8-3.3,4.2c-1.2,1.4-2.4,2.9-3.7,4.3c-1.3,1.5-2.6,3-3.9,4.5c-5.2,6-10.3,12-14.3,16.5
		c-3.9,4.5-6.6,7.4-6.6,7.4L448.4,229.9z"/>
</g>
<g id="XMLID_102_">
	<path id="XMLID_314_" d="M488.5,180.8c0,0,0-0.9,0.1-2.2c0-0.7,0-1.5,0.1-2.3c0-0.8,0.1-1.7,0.2-2.6c0.1-0.9,0-1.8,0.2-2.6
		c0.2-0.8,0.5-1.5,0.8-2.1c0.3-0.6,0.7-1.1,1-1.4c0.3-0.3,0.5-0.5,0.5-0.5l0.3,0.1c0,0,0.1,0.3,0.3,0.7c0.1,0.4,0.3,1,0.3,1.7
		c0.1,0.7,0.1,1.5-0.1,2.3c-0.2,0.8-0.6,1.6-0.9,2.5c-0.3,0.8-0.5,1.7-0.8,2.5c-0.3,0.8-0.5,1.5-0.8,2.2c-0.5,1.3-0.8,2.1-0.8,2.1
		L488.5,180.8z"/>
</g>
<g id="XMLID_101_">
	<path id="XMLID_312_" d="M491.3,167c0,0-0.3-0.7-0.6-1.8c-0.2-0.5-0.4-1.2-0.6-1.9c-0.2-0.7-0.4-1.4-0.6-2.1
		c-0.2-0.7-0.5-1.4-0.6-2.1c-0.1-0.7,0-1.4,0.1-1.9c0.1-0.6,0.3-1.1,0.5-1.4c0.2-0.3,0.3-0.6,0.3-0.6l0.3,0c0,0,0.2,0.2,0.4,0.5
		c0.3,0.3,0.5,0.7,0.8,1.3c0.3,0.5,0.5,1.2,0.6,1.9c0.1,0.7-0.1,1.5-0.1,2.2c0,0.8,0,1.5-0.1,2.2c0,0.7-0.1,1.4-0.1,1.9
		c-0.1,1.1-0.2,1.9-0.2,1.9L491.3,167z"/>
</g>
<g id="XMLID_100_">
	<path id="XMLID_310_" d="M490.2,155.1c0,0,0.1,0.8,0.2,1.9c0,0.6,0.1,1.2,0.1,1.9c0,0.7,0,1.5,0.1,2.2c0,0.8,0.2,1.5,0.1,2.2
		c-0.1,0.7-0.3,1.3-0.6,1.9c-0.3,0.5-0.6,1-0.8,1.3c-0.2,0.3-0.4,0.5-0.4,0.5l-0.3,0c0,0-0.2-0.2-0.3-0.6c-0.2-0.4-0.4-0.8-0.5-1.4
		c-0.1-0.6-0.2-1.2-0.1-1.9c0.1-0.7,0.4-1.4,0.6-2.1c0.2-0.7,0.4-1.5,0.6-2.1c0.2-0.7,0.4-1.3,0.6-1.9c0.3-1.1,0.6-1.8,0.6-1.8
		L490.2,155.1z"/>
</g>
<g id="XMLID_99_">
	<path id="XMLID_308_" d="M488.7,167.1c0,0-0.6,1.1-1.7,2.7c-0.5,0.8-1.1,1.7-1.7,2.7c-0.6,1-1.4,2-2.1,3.1c-0.7,1-1.3,2.2-2,3.1
		c-0.7,0.9-1.6,1.7-2.3,2.3c-0.8,0.6-1.4,1.1-1.9,1.4c-0.5,0.3-0.8,0.4-0.8,0.4l-0.2-0.2c0,0,0.1-0.4,0.2-0.9
		c0.2-0.6,0.5-1.3,0.9-2.2c0.4-0.9,1-1.8,1.7-2.7c0.8-0.9,1.7-1.7,2.6-2.6c0.9-0.9,1.7-1.8,2.6-2.7c0.8-0.8,1.6-1.6,2.3-2.3
		c1.3-1.3,2.3-2.2,2.3-2.2L488.7,167.1z"/>
</g>
<g id="XMLID_98_">
	<path id="XMLID_306_" d="M475.9,182.6c0,0-0.1-3.1-0.1-7.8c-0.1-4.7-0.1-10.9-0.1-17.1c0-1.6,0-3.1-0.1-4.6c0-1.5-0.1-3,0-4.5
		c0-1.5,0.1-2.9,0.2-4.2c0.1-1.3,0.2-2.6,0.4-3.7c0.5-4.6,1.3-7.7,1.3-7.7l0.3,0c0,0,0.6,3.1,0.8,7.8c0.1,1.2,0.1,2.4,0.1,3.8
		c0,1.3,0,2.7,0,4.2c-0.1,1.5-0.2,3-0.3,4.5c-0.1,1.5-0.2,3.1-0.3,4.6c-0.4,6.2-0.8,12.4-1.2,17c-0.4,4.6-0.6,7.7-0.6,7.7
		L475.9,182.6z"/>
</g>
<g id="XMLID_97_">
	<path id="XMLID_304_" d="M477.4,133c0,0-1.3-2-3.2-5.1c-2-3-4.5-7.1-7-11.2c-0.6-1-1.3-2-1.9-3c-0.6-1-1.3-2-1.8-3
		c-0.5-1-1-1.9-1.5-2.9c-0.4-0.9-0.8-1.8-1.2-2.7c-1.4-3.3-2-5.7-2-5.7l0.3-0.1c0,0,1.8,1.8,3.8,4.7c0.5,0.7,1.1,1.5,1.6,2.4
		c0.6,0.9,1.1,1.8,1.7,2.8c0.5,1,1,2,1.5,3.1c0.5,1.1,1,2.1,1.6,3.2c2.1,4.3,4.3,8.6,5.8,11.8c1.6,3.2,2.6,5.4,2.6,5.4L477.4,133z"
		/>
</g>
<g id="XMLID_96_">
	<path id="XMLID_302_" d="M458.9,99.6c0,0-0.4,0.1-1,0.2c-0.3,0.1-0.7,0.1-1.1,0.2c-0.4,0.1-0.8,0.1-1.2,0.1c-0.4,0-0.8,0.2-1.2,0.2
		c-0.4-0.1-0.7-0.3-1-0.5c-0.3-0.3-0.5-0.5-0.6-0.8c-0.1-0.2-0.2-0.4-0.2-0.4l0-0.3c0,0,0.1-0.2,0.3-0.3c0.2-0.2,0.5-0.4,0.8-0.5
		c0.3-0.1,0.7-0.3,1.1-0.2c0.4,0.1,0.7,0.4,1.1,0.5c0.4,0.2,0.8,0.3,1.1,0.5c0.4,0.2,0.7,0.4,1,0.5c0.6,0.3,0.9,0.5,0.9,0.5
		L458.9,99.6z"/>
</g>
<g id="XMLID_95_">
	<path id="XMLID_300_" d="M452.7,98.4c0,0,1,1.6,2.5,4c0.7,1.2,1.6,2.6,2.5,4.1c0.9,1.5,1.9,3.1,2.8,4.8c0.5,0.8,1,1.6,1.5,2.4
		c0.5,0.8,1,1.6,1.4,2.3c0.4,0.8,0.8,1.6,1.1,2.3c0.3,0.7,0.6,1.5,0.8,2.1c1,2.7,1.2,4.7,1.2,4.7l-0.3,0.1c0,0-1.5-1.4-3.1-3.7
		c-0.4-0.6-0.8-1.2-1.3-1.9c-0.4-0.7-0.9-1.4-1.3-2.2c-0.4-0.8-0.8-1.6-1.1-2.5c-0.4-0.9-0.7-1.7-1.1-2.6c-0.8-1.7-1.6-3.4-2.3-5.1
		c-0.7-1.6-1.4-3.1-1.9-4.4c-1.1-2.6-1.8-4.4-1.8-4.4L452.7,98.4z"/>
</g>
<g id="XMLID_94_">
	<path id="XMLID_298_" d="M466.6,125.2c0,0-0.1,2.1-0.4,5.2c-0.1,1.5-0.3,3.3-0.4,5.3c-0.2,1.9-0.4,4-0.6,6c-0.1,1-0.2,2.1-0.2,3.1
		c-0.1,1-0.1,2-0.3,3c-0.1,1-0.3,1.9-0.5,2.7c-0.2,0.9-0.4,1.7-0.6,2.4c-0.8,3-1.8,4.9-1.8,4.9l-0.3,0c0,0-0.4-2.1-0.3-5.3
		c0-0.8,0-1.6,0.1-2.5c0-0.9,0.2-1.8,0.3-2.8c0.2-1,0.4-1.9,0.6-2.9c0.2-1,0.4-2,0.6-3c0.4-2,0.8-4.1,1.2-5.9
		c0.4-1.9,0.8-3.7,1.1-5.2c0.7-3,1.1-5,1.1-5L466.6,125.2z"/>
</g>
<g id="XMLID_93_">
	<path id="XMLID_296_" d="M461.6,157.9c0,0-1.4-1.4-3.4-3.6c-1-1.1-2.2-2.4-3.5-3.8c-1.3-1.4-2.6-2.9-3.9-4.4
		c-0.7-0.7-1.4-1.5-2-2.2c-0.7-0.7-1.3-1.4-1.9-2.1c-0.6-0.7-1.1-1.4-1.6-2.2c-0.5-0.7-0.9-1.4-1.3-2c-1.6-2.6-2.3-4.5-2.3-4.5
		l0.2-0.2c0,0,1.8,1.1,3.9,3.2c0.5,0.5,1.1,1.1,1.7,1.7c0.6,0.6,1.2,1.3,1.8,2c0.6,0.7,1.1,1.5,1.7,2.3c0.6,0.8,1.1,1.6,1.7,2.4
		c1.2,1.6,2.4,3.2,3.4,4.8c1.1,1.5,2.1,3,2.9,4.2c1.7,2.5,2.8,4.1,2.8,4.1L461.6,157.9z"/>
</g>
<g id="XMLID_92_">
	<path id="XMLID_294_" d="M441.5,133c0,0-0.8-1.6-2-4c-0.6-1.2-1.3-2.6-2-4.2c-0.7-1.5-1.5-3.2-2.2-4.8c-0.4-0.8-0.8-1.6-1.2-2.4
		c-0.4-0.8-0.8-1.6-1.1-2.4c-0.3-0.8-0.6-1.5-0.8-2.3c-0.2-0.7-0.4-1.4-0.6-2.1c-0.6-2.6-0.7-4.6-0.7-4.6l0.3-0.1
		c0,0,1.3,1.4,2.6,3.8c0.3,0.6,0.7,1.2,1,1.9c0.4,0.7,0.7,1.4,1,2.2c0.3,0.8,0.6,1.6,0.8,2.5c0.2,0.9,0.5,1.7,0.8,2.6
		c0.6,1.7,1.1,3.4,1.6,5c0.5,1.6,1,3.1,1.4,4.4c0.8,2.6,1.3,4.3,1.3,4.3L441.5,133z"/>
</g>
<g id="XMLID_91_">
	<path id="XMLID_292_" d="M431.3,106.2c0,0,0.5,2.1,1.2,5.2c0.4,1.6,0.8,3.4,1.2,5.4c0.4,2,0.8,4.1,1.3,6.2c0.2,1,0.5,2.1,0.7,3.1
		c0.2,1,0.5,2,0.6,3c0.1,1,0.3,2,0.3,2.9c0.1,0.9,0.1,1.8,0.1,2.6c0.1,3.2-0.2,5.4-0.2,5.4l-0.3,0c0,0-1-2-1.9-5.1
		c-0.2-0.8-0.4-1.6-0.6-2.5c-0.2-0.9-0.4-1.8-0.6-2.8c-0.1-1-0.2-2-0.3-3.1c-0.1-1-0.2-2.1-0.3-3.2c-0.2-2.1-0.5-4.3-0.6-6.2
		c-0.2-2-0.4-3.9-0.5-5.5c-0.3-3.2-0.4-5.3-0.4-5.3L431.3,106.2z"/>
</g>
<g id="XMLID_90_">
	<path id="XMLID_290_" d="M436.5,139.9c0,0,1,2.1,2.5,5.1c1.5,3.1,3.4,7.3,5.4,11.4c0.5,1,1,2.1,1.5,3.1c0.5,1,1,2,1.4,3
		c0.4,1,0.8,2,1.1,2.9c0.3,0.9,0.6,1.8,0.8,2.7c1,3.3,1.2,5.7,1.2,5.7l-0.3,0.1c0,0-1.5-1.9-3.1-4.9c-0.4-0.8-0.9-1.6-1.3-2.5
		c-0.5-0.9-0.9-1.8-1.3-2.8c-0.4-1-0.8-2-1.1-3.1c-0.4-1.1-0.7-2.2-1.1-3.2c-1.5-4.3-3.1-8.6-4.2-11.9c-1.1-3.3-1.8-5.4-1.8-5.4
		L436.5,139.9z"/>
</g>
<g id="XMLID_89_">
	<path id="XMLID_288_" d="M450.2,174c0,0-0.6-0.2-1.3-0.6c-0.4-0.2-0.9-0.4-1.3-0.7c-0.5-0.3-1-0.6-1.5-0.8
		c-0.5-0.3-1.1-0.5-1.5-0.8c-0.4-0.3-0.7-0.8-0.9-1.2c-0.2-0.4-0.3-0.8-0.4-1.2c-0.1-0.3,0-0.5,0-0.5l0.2-0.2c0,0,0.2,0,0.6,0
		c0.3,0,0.8,0,1.2,0.2c0.5,0.1,0.9,0.3,1.3,0.7c0.4,0.4,0.7,0.9,1,1.4c0.4,0.4,0.7,0.9,1.1,1.3c0.3,0.4,0.6,0.9,0.9,1.2
		c0.5,0.7,0.8,1.2,0.8,1.2L450.2,174z"/>
</g>
<g id="XMLID_88_">
	<path id="XMLID_286_" d="M443.5,167.9c0,0,0.3,0.4,0.6,1c0.2,0.3,0.4,0.6,0.6,1c0.2,0.4,0.4,0.8,0.6,1.2c0.2,0.4,0.5,0.8,0.6,1.2
		c0.1,0.4,0,0.8-0.1,1.2c-0.1,0.4-0.3,0.7-0.5,0.9c-0.2,0.2-0.3,0.4-0.3,0.4l-0.3,0.1c0,0-0.2-0.1-0.4-0.2c-0.3-0.1-0.5-0.4-0.8-0.6
		c-0.3-0.3-0.5-0.6-0.6-1c-0.1-0.4,0.1-0.9,0.1-1.3c0-0.4,0-0.9,0.1-1.3c0-0.4,0.1-0.8,0.1-1.2c0.1-0.7,0.2-1.1,0.2-1.1L443.5,167.9
		z"/>
</g>
<g id="XMLID_87_">
	<path id="XMLID_284_" d="M444.9,174.8c0,0-0.1,2.6-0.3,6.6c-0.2,3.9-0.6,9.2-0.9,14.5c-0.1,1.3-0.1,2.6-0.2,3.9
		c-0.1,1.3-0.1,2.6-0.3,3.8c-0.1,1.2-0.3,2.4-0.5,3.5c-0.2,1.1-0.4,2.2-0.6,3.1c-0.8,3.9-1.8,6.4-1.8,6.4l-0.3,0
		c0,0-0.4-2.7-0.3-6.6c0-1,0-2.1,0.1-3.2c0-1.1,0.1-2.3,0.3-3.5c0.1-1.2,0.3-2.5,0.6-3.8c0.2-1.3,0.4-2.6,0.6-3.9
		c0.8-5.2,1.6-10.4,2.2-14.3c0.6-3.9,1.1-6.5,1.1-6.5L444.9,174.8z"/>
</g>
<g id="XMLID_86_">
	<path id="XMLID_282_" d="M440.4,216.7c0,0-0.3,0.6-0.7,1.5c-0.2,0.4-0.5,1-0.8,1.5c-0.3,0.6-0.6,1.1-0.9,1.7
		c-0.3,0.6-0.5,1.2-0.9,1.7c-0.4,0.5-0.9,0.8-1.3,1.1c-0.5,0.2-0.9,0.4-1.3,0.5c-0.3,0.1-0.6,0.1-0.6,0.1l-0.2-0.2c0,0,0-0.2,0-0.6
		c0-0.4,0.1-0.8,0.2-1.3c0.2-0.5,0.4-1,0.8-1.5c0.4-0.5,1-0.8,1.5-1.3c0.5-0.4,1-0.9,1.4-1.3c0.5-0.4,0.9-0.8,1.3-1.1
		c0.8-0.6,1.3-1,1.3-1L440.4,216.7z"/>
</g>
<g id="XMLID_85_">
	<path id="XMLID_280_" d="M433.8,224.8c0,0-3.2,1.2-8,3.1c-4.8,1.9-11.2,4.3-17.6,6.7c-1.6,0.6-3.2,1.2-4.8,1.8
		c-1.6,0.6-3.1,1.2-4.6,1.7c-1.5,0.5-3,1-4.4,1.4c-1.4,0.4-2.8,0.8-4,1.1c-5,1.3-8.4,1.8-8.4,1.8l-0.1-0.3c0,0,3-1.7,7.8-3.8
		c1.2-0.5,2.5-1,3.8-1.6c1.4-0.6,2.8-1.1,4.3-1.6c1.5-0.5,3.1-1,4.7-1.4c1.6-0.5,3.3-1,4.9-1.5c6.6-2,13.1-4,18-5.4
		c4.9-1.4,8.2-2.4,8.2-2.4L433.8,224.8z"/>
</g>
<g id="XMLID_84_">
	<path id="XMLID_278_" d="M381.8,242.2c0,0,1.3-1.5,3.2-3.7c1-1.1,2.1-2.4,3.3-3.7c1.2-1.4,2.5-2.8,3.8-4.2c0.6-0.7,1.3-1.5,1.9-2.2
		c0.6-0.7,1.2-1.4,1.9-2.1c0.6-0.6,1.3-1.2,1.9-1.8c0.6-0.5,1.3-1,1.8-1.5c2.3-1.8,4.2-2.6,4.2-2.6l0.2,0.2c0,0-0.9,1.8-2.7,4.1
		c-0.4,0.6-0.9,1.2-1.5,1.8c-0.5,0.6-1.1,1.3-1.8,1.9c-0.7,0.6-1.4,1.2-2.1,1.8c-0.7,0.6-1.5,1.2-2.2,1.9c-1.5,1.3-2.9,2.6-4.3,3.8
		c-1.4,1.2-2.7,2.3-3.8,3.2c-2.2,1.9-3.7,3.1-3.7,3.1L381.8,242.2z"/>
</g>
<g id="XMLID_83_">
	<path id="XMLID_276_" d="M403.8,220.7c0,0-0.2-0.5-0.5-1.3c-0.2-0.4-0.3-0.8-0.5-1.3c-0.2-0.5-0.3-1-0.5-1.5
		c-0.1-0.5-0.5-1-0.5-1.5c-0.1-0.5,0.1-1,0.2-1.4c0.2-0.4,0.4-0.8,0.5-1c0.2-0.3,0.3-0.4,0.3-0.4l0.3,0c0,0,0.2,0.1,0.4,0.3
		c0.3,0.2,0.5,0.5,0.8,0.9c0.2,0.4,0.5,0.8,0.5,1.3c0,0.5-0.2,1-0.2,1.6c0,0.5-0.1,1.1-0.1,1.6c0,0.5-0.1,1-0.2,1.4
		c-0.1,0.8-0.2,1.3-0.2,1.3L403.8,220.7z"/>
</g>
<g id="XMLID_82_">
	<path id="XMLID_274_" d="M403.1,212.4c0,0,0,0.5-0.1,1.1c0,0.3-0.1,0.7-0.1,1.2c-0.1,0.4-0.2,0.9-0.2,1.3c-0.1,0.4-0.1,0.9-0.2,1.3
		c-0.2,0.4-0.5,0.6-0.8,0.9c-0.3,0.2-0.7,0.4-0.9,0.4c-0.3,0.1-0.5,0.1-0.5,0.1l-0.3-0.1c0,0-0.1-0.2-0.2-0.4
		c-0.1-0.3-0.2-0.6-0.3-1c0-0.4,0-0.8,0.1-1.2c0.2-0.4,0.6-0.6,0.9-1c0.3-0.4,0.5-0.7,0.8-1c0.3-0.3,0.5-0.6,0.8-0.9
		c0.5-0.5,0.8-0.8,0.8-0.8L403.1,212.4z"/>
</g>
<g id="XMLID_81_">
	<path id="XMLID_272_" d="M400.1,218.7c0,0-1.3,1.3-3.2,3.1c-1,0.9-2.1,2-3.4,3.2c-1.2,1.2-2.6,2.4-3.9,3.6c-0.7,0.6-1.3,1.2-2,1.9
		c-0.6,0.6-1.3,1.2-1.9,1.8c-0.7,0.5-1.3,1-2,1.4c-0.6,0.4-1.3,0.8-1.8,1.2c-2.3,1.4-4.1,2-4.1,2l-0.2-0.2c0,0,1-1.7,2.8-3.6
		c0.5-0.5,1-1,1.5-1.6c0.5-0.6,1.2-1.1,1.8-1.6c0.7-0.5,1.4-1,2.1-1.5c0.7-0.5,1.5-1,2.2-1.5c1.5-1.1,2.9-2.1,4.3-3.1
		c1.4-1,2.7-1.9,3.8-2.6c2.2-1.5,3.7-2.5,3.7-2.5L400.1,218.7z"/>
</g>
<g id="XMLID_80_">
	<path id="XMLID_270_" d="M377.6,236.7c0,0,1.1-1.9,2.8-4.8c1.7-2.9,4.1-6.7,6.4-10.5c0.6-1,1.1-1.9,1.7-2.9c0.6-1,1.1-1.9,1.7-2.8
		c0.6-0.9,1.2-1.7,1.8-2.4c0.6-0.8,1.2-1.5,1.7-2.1c2.2-2.6,4-4,4-4l0.2,0.2c0,0-0.7,2.2-2.3,5.2c-0.4,0.7-0.8,1.5-1.3,2.4
		c-0.5,0.8-1,1.7-1.6,2.6c-0.6,0.9-1.3,1.7-2,2.6c-0.7,0.9-1.4,1.8-2,2.6c-2.7,3.6-5.4,7.1-7.5,9.8c-2.1,2.6-3.5,4.4-3.5,4.4
		L377.6,236.7z"/>
</g>
<g id="XMLID_79_">
	<path id="XMLID_268_" d="M397,208c0,0-0.2-2-0.4-4.9c-0.1-1.5-0.2-3.2-0.3-5.1c-0.1-1.9-0.2-3.8-0.3-5.8c-0.1-1-0.1-2-0.2-3
		c-0.1-1-0.1-1.9-0.2-2.9c0-0.9,0-1.8,0.1-2.7c0.1-0.9,0.1-1.8,0.3-2.6c0.4-3,1.1-5.1,1.1-5.1h0.3c0,0,0.7,2.1,1.1,5.1
		c0.1,0.7,0.2,1.6,0.3,2.5c0.1,0.9,0.1,1.8,0.1,2.7c0,0.9-0.1,1.9-0.2,2.9c-0.1,1-0.1,2-0.2,3c-0.1,2-0.2,4-0.3,5.8
		c-0.1,1.9-0.2,3.6-0.3,5.1c-0.2,3-0.4,4.9-0.4,4.9H397z"/>
</g>
<g id="XMLID_78_">
	<path id="XMLID_266_" d="M398.1,176.3c0,0,0,0.8-0.1,2.1c0,0.6-0.1,1.3-0.2,2.1c-0.1,0.8-0.2,1.6-0.3,2.4c-0.1,0.8-0.1,1.7-0.3,2.4
		c-0.2,0.7-0.5,1.4-0.9,1.9c-0.4,0.5-0.7,1-1,1.3c-0.3,0.3-0.5,0.4-0.5,0.4l-0.3-0.1c0,0-0.1-0.2-0.2-0.6c-0.1-0.4-0.2-1-0.3-1.6
		c0-0.6,0-1.4,0.2-2.1c0.2-0.7,0.7-1.5,1-2.2c0.3-0.8,0.6-1.5,0.9-2.2c0.3-0.7,0.6-1.4,0.9-1.9c0.5-1.1,0.9-1.9,0.9-1.9L398.1,176.3
		z"/>
</g>
<g id="XMLID_77_">
	<path id="XMLID_264_" d="M394.8,188.9c0,0,0.1,1,0.1,2.6c0,0.8,0.1,1.7,0.1,2.7c0,1,0,2,0,3.1c0,1,0.1,2.1,0,3.1
		c-0.1,1-0.4,1.9-0.6,2.6c-0.3,0.8-0.6,1.4-0.9,1.8c-0.3,0.4-0.5,0.7-0.5,0.7l-0.3,0c0,0-0.1-0.3-0.3-0.7c-0.2-0.5-0.3-1.1-0.5-1.9
		c-0.1-0.8-0.2-1.7-0.1-2.7c0.1-1,0.5-2,0.7-3c0.2-1,0.4-2,0.6-3c0.2-1,0.4-1.8,0.6-2.6c0.4-1.5,0.6-2.5,0.6-2.5L394.8,188.9z"/>
</g>
<g id="XMLID_119_">
	<line id="XMLID_262_" class="st1" x1="320" y1="345.1" x2="310.7" y2="340.5"/>
	<path id="XMLID_261_" class="st1" d="M319.9,345.2c0,0-0.7-0.1-1.6-0.4c-0.5-0.1-1-0.2-1.6-0.4c-0.6-0.2-1.2-0.4-1.8-0.5
		c-0.6-0.2-1.3-0.3-1.9-0.5c-0.5-0.3-1-0.7-1.3-1c-0.3-0.4-0.6-0.8-0.8-1.1c-0.2-0.3-0.2-0.5-0.2-0.5l0.1-0.3c0,0,0.2-0.1,0.6-0.2
		c0.4-0.1,0.8-0.1,1.3-0.1c0.5,0,1.1,0.1,1.6,0.4c0.5,0.3,1,0.8,1.5,1.2c0.5,0.4,1.1,0.7,1.6,1.1c0.5,0.4,0.9,0.7,1.3,1
		c0.8,0.6,1.3,1.1,1.3,1.1L319.9,345.2z"/>
</g>
<g id="XMLID_120_">
	<line id="XMLID_259_" class="st1" x1="310.7" y1="340.5" x2="306.2" y2="334.7"/>
	<path id="XMLID_258_" class="st1" d="M310.6,340.6c0,0-0.4-0.3-1-0.7c-0.3-0.2-0.6-0.4-1-0.7c-0.4-0.3-0.7-0.6-1.1-0.9
		c-0.4-0.3-0.8-0.5-1.1-0.9c-0.3-0.3-0.4-0.8-0.4-1.2c0-0.4,0-0.8,0-1.1c0-0.3,0.1-0.5,0.1-0.5l0.2-0.2c0,0,0.2,0,0.5,0
		c0.3,0,0.7,0.1,1,0.3c0.4,0.2,0.7,0.4,1,0.7c0.2,0.4,0.3,0.9,0.5,1.3c0.2,0.4,0.4,0.9,0.6,1.3c0.2,0.4,0.3,0.8,0.4,1.2
		c0.3,0.7,0.4,1.2,0.4,1.2L310.6,340.6z"/>
</g>
<g id="XMLID_122_">
	<path id="XMLID_256_" d="M320.3,344.9c0,0,0.5-0.4,1.3-1.1c0.4-0.3,0.8-0.7,1.3-1c0.5-0.4,1-0.7,1.6-1.1c0.5-0.4,1-0.9,1.6-1.2
		c0.5-0.3,1.1-0.4,1.6-0.4c0.5,0,1,0,1.3,0.1c0.3,0.1,0.6,0.2,0.6,0.2l0.1,0.3c0,0-0.1,0.2-0.2,0.5c-0.2,0.3-0.4,0.7-0.8,1.1
		c-0.4,0.4-0.8,0.8-1.3,1c-0.6,0.2-1.2,0.3-1.9,0.5c-0.6,0.2-1.2,0.4-1.8,0.5c-0.6,0.2-1.2,0.3-1.6,0.4c-1,0.2-1.6,0.4-1.6,0.4
		L320.3,344.9z"/>
</g>
<g id="XMLID_121_">
	<path id="XMLID_254_" d="M329.6,340.4c0,0,0.1-0.5,0.4-1.2c0.1-0.3,0.3-0.7,0.5-1.2c0.2-0.4,0.4-0.8,0.6-1.3
		c0.2-0.4,0.3-0.9,0.5-1.3c0.3-0.3,0.6-0.6,1-0.7c0.4-0.1,0.7-0.2,1-0.3c0.3,0,0.5,0,0.5,0l0.2,0.2c0,0,0.1,0.2,0.1,0.5
		c0.1,0.3,0.1,0.7,0,1.1c-0.1,0.4-0.2,0.8-0.4,1.2c-0.3,0.3-0.8,0.5-1.1,0.9c-0.4,0.3-0.7,0.6-1.1,0.9c-0.4,0.3-0.7,0.5-1,0.7
		c-0.6,0.4-1,0.7-1,0.7L329.6,340.4z"/>
</g>
<g id="XMLID_123_">
	<line id="XMLID_252_" class="st1" x1="305.3" y1="334.7" x2="319.7" y2="331.7"/>
	<path id="XMLID_251_" class="st1" d="M305.2,334.5c0,0,0.9-0.4,2.2-0.8c0.7-0.2,1.4-0.5,2.2-0.8c0.8-0.3,1.7-0.6,2.6-0.9
		c0.9-0.3,1.7-0.7,2.6-0.9c0.8-0.2,1.7-0.2,2.4-0.1c0.7,0.1,1.3,0.2,1.8,0.3c0.4,0.1,0.7,0.2,0.7,0.2l0.1,0.3c0,0-0.2,0.2-0.5,0.5
		c-0.4,0.3-0.9,0.6-1.5,1c-0.6,0.3-1.4,0.7-2.2,0.8c-0.9,0.2-1.8,0.1-2.7,0.2c-0.9,0.1-1.8,0.2-2.7,0.2c-0.9,0.1-1.7,0.1-2.4,0.1
		c-1.4,0.1-2.3,0.1-2.3,0.1L305.2,334.5z"/>
</g>
<g id="XMLID_124_">
	<line id="XMLID_249_" class="st1" x1="305.3" y1="334.7" x2="295.8" y2="315.2"/>
	<path id="XMLID_248_" class="st1" d="M305.1,334.7c0,0-0.8-1.1-1.8-2.9c-0.5-0.9-1.2-1.9-1.8-3c-0.7-1.1-1.3-2.3-2-3.4
		c-0.7-1.2-1.5-2.3-2.1-3.4c-0.6-1.1-0.9-2.3-1.2-3.3c-0.3-1-0.4-1.9-0.5-2.5c-0.1-0.6-0.1-1-0.1-1l0.3-0.1c0,0,0.3,0.2,0.8,0.7
		c0.5,0.4,1,1.1,1.7,1.9c0.6,0.8,1.3,1.8,1.8,3c0.5,1.1,0.9,2.5,1.4,3.7c0.5,1.3,1,2.5,1.4,3.7c0.5,1.2,0.9,2.3,1.2,3.3
		c0.7,1.9,1.1,3.2,1.1,3.2L305.1,334.7z"/>
</g>
<g id="XMLID_125_">
	<line id="XMLID_246_" class="st1" x1="295.8" y1="315.2" x2="300.5" y2="300.5"/>
	<path id="XMLID_245_" class="st1" d="M295.7,315.2c0,0,0.1-1,0.4-2.4c0.1-0.7,0.3-1.6,0.4-2.5c0.2-0.9,0.4-1.9,0.6-2.8
		c0.2-0.9,0.3-1.9,0.5-2.8c0.3-0.9,0.7-1.6,1.1-2.3c0.4-0.6,0.8-1.1,1.2-1.5c0.3-0.3,0.6-0.5,0.6-0.5l0.3,0.1c0,0,0.1,0.3,0.2,0.8
		c0.1,0.5,0.1,1.1,0.1,1.9c0,0.8-0.1,1.6-0.4,2.5c-0.3,0.9-0.8,1.7-1.2,2.6c-0.4,0.9-0.8,1.8-1.2,2.6c-0.4,0.8-0.8,1.6-1.1,2.3
		c-0.6,1.3-1.1,2.2-1.1,2.2L295.7,315.2z"/>
</g>
<g id="XMLID_126_">
	<line id="XMLID_243_" class="st1" x1="300" y1="300" x2="300" y2="294"/>
	<path id="XMLID_242_" class="st1" d="M299.6,300c0,0-0.2-0.2-0.4-0.8c-0.1-0.3-0.2-0.5-0.3-0.9c-0.1-0.4-0.2-0.7-0.3-1.1
		c-0.1-0.4-0.3-0.7-0.4-1.1c0-0.4,0.2-0.7,0.4-1c0.2-0.3,0.4-0.6,0.7-0.8c0.2-0.2,0.4-0.4,0.4-0.4h0.3c0,0,0.2,0.2,0.4,0.4
		c0.2,0.2,0.5,0.5,0.7,0.7c0.2,0.3,0.4,0.6,0.4,1c0,0.4-0.3,0.7-0.4,1.1c-0.1,0.4-0.2,0.8-0.3,1.1c-0.1,0.4-0.2,0.5-0.3,0.8
		c-0.2,0.6-0.4,0.8-0.4,0.8H299.6z"/>
</g>
<g id="XMLID_127_">
	<line id="XMLID_240_" class="st1" x1="300.5" y1="294.2" x2="295.8" y2="290.5"/>
	<path id="XMLID_239_" class="st1" d="M300.4,294.3c0,0-0.4-0.1-1-0.3c-0.3-0.1-0.6-0.2-1-0.3c-0.4-0.1-0.7-0.3-1.1-0.4
		c-0.3-0.2-0.8-0.2-1.1-0.4c-0.3-0.2-0.4-0.6-0.5-0.9c-0.1-0.3-0.1-0.7-0.1-0.9c0-0.3,0-0.5,0-0.5l0.2-0.2c0,0,0.2-0.1,0.4-0.1
		c0.3-0.1,0.6-0.1,1-0.1c0.3,0,0.7,0.1,1,0.3c0.3,0.2,0.4,0.7,0.6,1c0.2,0.3,0.5,0.6,0.7,0.9c0.2,0.3,0.4,0.6,0.5,0.9
		c0.3,0.5,0.5,0.9,0.5,0.9L300.4,294.3z"/>
</g>
<g id="XMLID_128_">
	<line id="XMLID_237_" class="st1" x1="295.8" y1="290.5" x2="291.3" y2="291.6"/>
	<path id="XMLID_236_" class="st1" d="M295.9,290.6c0,0-0.2,0.2-0.6,0.5c-0.2,0.2-0.4,0.3-0.6,0.5c-0.2,0.2-0.5,0.3-0.8,0.5
		c-0.3,0.2-0.5,0.5-0.7,0.6c-0.3,0.1-0.6,0-0.8-0.2c-0.3-0.2-0.5-0.3-0.7-0.5c-0.2-0.2-0.3-0.3-0.3-0.3l-0.1-0.3c0,0,0-0.2,0.1-0.4
		c0.1-0.2,0.2-0.5,0.3-0.8c0.2-0.2,0.4-0.5,0.6-0.5c0.3,0,0.6,0.1,0.9,0.1c0.3,0,0.6,0,0.9,0.1c0.3,0,0.6,0.1,0.8,0.2
		c0.5,0.1,0.8,0.2,0.8,0.2L295.9,290.6z"/>
</g>
<g id="XMLID_129_">
	<line id="XMLID_234_" class="st1" x1="291.3" y1="291.6" x2="289.6" y2="287.6"/>
	<path id="XMLID_233_" class="st1" d="M291.2,291.6c0,0-0.3-0.2-0.6-0.5c-0.2-0.1-0.4-0.3-0.6-0.5c-0.2-0.2-0.4-0.4-0.6-0.6
		c-0.2-0.2-0.5-0.4-0.6-0.6c-0.1-0.2,0-0.5,0.1-0.8c0.1-0.3,0.3-0.5,0.4-0.7c0.1-0.2,0.3-0.3,0.3-0.3l0.3-0.1c0,0,0.2,0,0.4,0
		c0.3,0,0.5,0.1,0.8,0.2c0.3,0.1,0.5,0.3,0.6,0.5c0.1,0.2,0,0.6,0,0.9c0,0.3,0,0.6,0,0.9c0,0.3,0,0.5,0,0.8c0,0.5-0.1,0.8-0.1,0.8
		L291.2,291.6z"/>
</g>
<g id="XMLID_130_">
	<line id="XMLID_231_" class="st1" x1="289.6" y1="287.6" x2="295.8" y2="276.1"/>
	<path id="XMLID_230_" class="st1" d="M289.5,287.5c0,0,0.2-0.8,0.6-2c0.2-0.6,0.4-1.3,0.7-2c0.3-0.7,0.6-1.5,0.9-2.3
		c0.3-0.8,0.5-1.6,0.8-2.3c0.4-0.7,0.8-1.2,1.3-1.7c0.5-0.4,0.9-0.8,1.3-1c0.4-0.2,0.6-0.3,0.6-0.3l0.3,0.1c0,0,0.1,0.3,0.1,0.7
		c0,0.4,0,1-0.1,1.6c-0.1,0.6-0.3,1.3-0.7,2c-0.4,0.7-1,1.3-1.5,1.9c-0.5,0.7-0.9,1.3-1.4,2c-0.5,0.6-0.9,1.2-1.3,1.7
		c-0.8,1-1.3,1.6-1.3,1.6L289.5,287.5z"/>
</g>
<g id="XMLID_131_">
	<line id="XMLID_228_" class="st1" x1="295.8" y1="276.1" x2="292.1" y2="270.3"/>
	<path id="XMLID_227_" class="st1" d="M295.7,276.2c0,0-0.4-0.3-0.9-0.7c-0.3-0.2-0.6-0.5-0.9-0.7c-0.3-0.3-0.6-0.6-1-0.9
		c-0.3-0.3-0.8-0.5-1-0.9c-0.2-0.3-0.3-0.7-0.3-1.1c0-0.4,0-0.7,0.1-1c0.1-0.3,0.2-0.5,0.2-0.5l0.3-0.2c0,0,0.2,0,0.5,0
		c0.3,0,0.6,0.1,1,0.3c0.3,0.2,0.7,0.4,0.9,0.7c0.2,0.4,0.2,0.9,0.4,1.3c0.1,0.4,0.3,0.8,0.4,1.2c0.1,0.4,0.2,0.8,0.3,1.1
		c0.2,0.7,0.3,1.1,0.3,1.1L295.7,276.2z"/>
</g>
<g id="XMLID_132_">
	<line id="XMLID_225_" class="st1" x1="292.1" y1="270.3" x2="293.9" y2="263.8"/>
	<path id="XMLID_224_" class="st1" d="M291.9,270.2c0,0-0.1-0.5-0.1-1.1c0-0.3,0-0.7,0-1.1c0-0.4,0-0.8,0-1.3c0-0.4-0.1-0.9,0-1.3
		c0.1-0.4,0.4-0.7,0.6-0.9c0.3-0.2,0.6-0.4,0.9-0.5c0.3-0.1,0.5-0.2,0.5-0.2l0.3,0.1c0,0,0.1,0.2,0.3,0.4c0.2,0.2,0.3,0.6,0.4,0.9
		c0.1,0.4,0.2,0.8,0,1.1c-0.1,0.4-0.5,0.7-0.7,1.1c-0.2,0.4-0.4,0.8-0.7,1.1c-0.2,0.3-0.4,0.7-0.6,0.9c-0.4,0.6-0.7,0.9-0.7,0.9
		L291.9,270.2z"/>
</g>
<g id="XMLID_142_">
	<path id="XMLID_222_" d="M334.9,334.8c0,0-0.9,0-2.3-0.1c-0.7,0-1.5-0.1-2.4-0.1c-0.9-0.1-1.8-0.2-2.7-0.2c-0.9-0.1-1.9,0-2.7-0.2
		c-0.9-0.2-1.6-0.5-2.3-0.8c-0.6-0.3-1.2-0.7-1.5-1c-0.4-0.3-0.5-0.5-0.5-0.5l0.1-0.3c0,0,0.3-0.1,0.7-0.2c0.4-0.1,1.1-0.2,1.8-0.3
		c0.7,0,1.6-0.1,2.4,0.1c0.8,0.2,1.7,0.6,2.6,0.9c0.9,0.3,1.8,0.6,2.6,0.9c0.8,0.3,1.6,0.6,2.3,0.8c1.3,0.5,2.2,0.8,2.2,0.8
		L334.9,334.8z"/>
</g>
<g id="XMLID_141_">
	<path id="XMLID_220_" d="M334.8,334.6c0,0,0.4-1.3,1.1-3.2c0.3-1,0.7-2.1,1.2-3.3c0.4-1.2,1-2.5,1.5-3.7c0.5-1.3,0.9-2.6,1.4-3.7
		c0.6-1.1,1.2-2.1,1.8-3c0.6-0.8,1.2-1.5,1.7-1.9c0.5-0.4,0.8-0.7,0.8-0.7l0.3,0.1c0,0,0,0.4-0.1,1c-0.1,0.6-0.2,1.5-0.5,2.5
		c-0.3,1-0.6,2.1-1.2,3.3c-0.6,1.1-1.4,2.2-2.1,3.4c-0.7,1.2-1.4,2.3-2,3.4c-0.7,1.1-1.3,2.1-1.8,3c-1.1,1.7-1.8,2.9-1.8,2.9
		L334.8,334.6z"/>
</g>
<g id="XMLID_140_">
	<path id="XMLID_218_" d="M344.2,315.3c0,0-0.5-0.9-1.1-2.2c-0.3-0.7-0.7-1.4-1.1-2.3c-0.4-0.8-0.8-1.7-1.2-2.6
		c-0.4-0.9-0.9-1.7-1.2-2.6c-0.3-0.9-0.4-1.7-0.4-2.5c0-0.8,0-1.4,0.1-1.9c0.1-0.5,0.2-0.8,0.2-0.8l0.3-0.1c0,0,0.2,0.2,0.6,0.5
		c0.3,0.3,0.7,0.8,1.2,1.5c0.4,0.6,0.8,1.4,1.1,2.3c0.3,0.9,0.3,1.9,0.5,2.8c0.2,1,0.4,1.9,0.6,2.8c0.2,0.9,0.3,1.7,0.4,2.5
		c0.2,1.4,0.4,2.4,0.4,2.4L344.2,315.3z"/>
</g>
<g id="XMLID_138_">
	<path id="XMLID_216_" d="M339.6,294.1c0,0,0.2-0.4,0.5-0.9c0.2-0.3,0.3-0.6,0.5-0.9c0.2-0.3,0.4-0.6,0.7-0.9c0.2-0.3,0.4-0.7,0.6-1
		c0.3-0.2,0.6-0.3,1-0.3c0.4,0,0.7,0,1,0.1c0.3,0.1,0.4,0.1,0.4,0.1l0.2,0.2c0,0,0,0.2,0,0.5c0,0.3,0,0.6-0.1,0.9
		c-0.1,0.3-0.3,0.7-0.5,0.9c-0.3,0.2-0.7,0.2-1.1,0.4c-0.4,0.2-0.7,0.3-1.1,0.4c-0.3,0.1-0.7,0.2-1,0.3c-0.6,0.2-1,0.3-1,0.3
		L339.6,294.1z"/>
</g>
<g id="XMLID_137_">
	<path id="XMLID_214_" d="M344.4,290.3c0,0,0.3-0.1,0.8-0.2c0.2-0.1,0.5-0.1,0.8-0.2c0.3-0.1,0.6-0.1,0.9-0.1c0.3,0,0.6-0.2,0.9-0.1
		c0.3,0.1,0.5,0.3,0.6,0.5c0.2,0.3,0.3,0.5,0.4,0.8c0.1,0.2,0.1,0.4,0.1,0.4l-0.1,0.3c0,0-0.1,0.2-0.3,0.3c-0.2,0.2-0.4,0.4-0.7,0.5
		c-0.3,0.1-0.5,0.2-0.8,0.2c-0.3-0.1-0.5-0.4-0.7-0.6c-0.3-0.2-0.5-0.3-0.8-0.5c-0.2-0.2-0.5-0.4-0.6-0.5c-0.4-0.3-0.6-0.5-0.6-0.5
		L344.4,290.3z"/>
</g>
<g id="XMLID_136_">
	<path id="XMLID_212_" d="M348.8,291.5c0,0-0.1-0.3-0.1-0.8c0-0.2,0-0.5,0-0.8c0-0.3,0-0.6,0-0.9c0-0.3-0.1-0.6,0-0.9
		c0.1-0.2,0.3-0.4,0.6-0.5c0.3-0.1,0.6-0.2,0.8-0.2c0.2,0,0.4,0,0.4,0l0.3,0.1c0,0,0.1,0.1,0.3,0.3c0.2,0.2,0.3,0.4,0.4,0.7
		c0.1,0.3,0.2,0.5,0.1,0.8c-0.1,0.2-0.5,0.4-0.6,0.6c-0.2,0.2-0.4,0.4-0.6,0.6c-0.2,0.2-0.4,0.4-0.6,0.5c-0.3,0.3-0.6,0.5-0.6,0.5
		L348.8,291.5z"/>
</g>
<g id="XMLID_135_">
	<path id="XMLID_210_" d="M350.5,287.7c0,0-0.5-0.6-1.3-1.6c-0.4-0.5-0.8-1.1-1.3-1.7c-0.5-0.6-0.9-1.3-1.4-2
		c-0.5-0.7-1.1-1.3-1.5-1.9c-0.4-0.7-0.6-1.4-0.7-2c-0.1-0.6-0.1-1.2-0.1-1.6c0-0.4,0.1-0.7,0.1-0.7l0.3-0.1c0,0,0.3,0.1,0.6,0.3
		c0.4,0.2,0.8,0.5,1.3,1c0.5,0.4,1,1,1.3,1.7c0.3,0.7,0.5,1.5,0.8,2.3c0.3,0.8,0.6,1.5,0.9,2.3c0.3,0.7,0.5,1.4,0.7,2
		c0.4,1.2,0.6,2,0.6,2L350.5,287.7z"/>
</g>
<g id="XMLID_134_">
	<path id="XMLID_208_" d="M344.3,276c0,0,0.1-0.5,0.3-1.1c0.1-0.3,0.2-0.7,0.3-1.1c0.1-0.4,0.3-0.8,0.4-1.2c0.2-0.4,0.2-0.9,0.4-1.3
		c0.2-0.3,0.6-0.6,0.9-0.7c0.4-0.2,0.7-0.3,1-0.3c0.3,0,0.5,0,0.5,0l0.3,0.2c0,0,0.1,0.2,0.2,0.5c0.1,0.3,0.1,0.6,0.1,1
		c0,0.4-0.1,0.8-0.3,1.1c-0.2,0.3-0.7,0.6-1,0.9c-0.3,0.3-0.6,0.6-1,0.9c-0.3,0.3-0.6,0.5-0.9,0.7c-0.5,0.4-0.9,0.7-0.9,0.7
		L344.3,276z"/>
</g>
<g id="XMLID_133_">
	<path id="XMLID_206_" d="M348,270.3c0,0-0.3-0.4-0.7-0.9c-0.2-0.3-0.4-0.6-0.6-0.9c-0.2-0.3-0.4-0.7-0.7-1.1
		c-0.2-0.4-0.6-0.7-0.7-1.1c-0.1-0.4-0.1-0.8,0-1.1c0.1-0.4,0.3-0.7,0.4-0.9c0.2-0.2,0.3-0.4,0.3-0.4l0.3-0.1c0,0,0.2,0.1,0.5,0.2
		c0.3,0.1,0.6,0.3,0.9,0.5c0.3,0.3,0.5,0.6,0.6,0.9c0.1,0.4,0,0.9,0,1.3c0,0.4,0.1,0.9,0,1.3c0,0.4,0,0.8,0,1.1
		c0,0.7-0.1,1.1-0.1,1.1L348,270.3z"/>
</g>
<g id="XMLID_139_">
	<path id="XMLID_204_" d="M338,300c0,0-0.2-0.2-0.4-0.8c-0.1-0.3-0.2-0.5-0.3-0.9c-0.1-0.4-0.2-0.7-0.3-1.1
		c-0.1-0.4-0.3-0.7-0.4-1.1c0-0.4,0.2-0.7,0.4-1c0.2-0.3,0.4-0.6,0.7-0.8c0.2-0.2,0.4-0.4,0.4-0.4h0.3c0,0,0.2,0.2,0.4,0.4
		c0.2,0.2,0.5,0.5,0.7,0.7c0.2,0.3,0.4,0.6,0.4,1c0,0.4-0.3,0.7-0.4,1.1c-0.1,0.4-0.2,0.8-0.3,1.1c-0.1,0.4-0.2,0.5-0.3,0.8
		c-0.2,0.6-0.4,0.8-0.4,0.8H338z"/>
</g>
<g id="XMLID_39_">
	<line id="XMLID_202_" class="st1" x1="246.7" y1="205.4" x2="306.2" y2="259.6"/>
	<path id="XMLID_201_" class="st1" d="M246.8,205.3c0,0,3.8,3.3,9.5,8.2c5.7,4.9,13.3,11.5,20.9,18.2c1.9,1.6,3.8,3.3,5.7,4.9
		c1.9,1.6,3.7,3.2,5.5,4.8c1.7,1.6,3.4,3.1,4.9,4.7c1.6,1.5,3,2.9,4.3,4.3c5.3,5.4,8.6,9.3,8.6,9.3l-0.2,0.2c0,0-4.2-2.9-10-7.7
		c-1.5-1.2-3-2.5-4.7-3.9c-1.7-1.4-3.4-2.9-5.1-4.5c-1.7-1.6-3.5-3.3-5.3-5c-1.8-1.7-3.6-3.5-5.4-5.2c-7.3-7-14.6-13.9-20-19.1
		c-5.4-5.3-9-8.8-9-8.8L246.8,205.3z"/>
</g>
<g id="XMLID_76_">
	<line id="XMLID_199_" class="st1" x1="306" y1="261" x2="319" y2="261"/>
	<path id="XMLID_198_" class="st1" d="M306,260.8c0,0,0.8-0.2,2-0.4c0.6-0.1,1.3-0.2,2.1-0.3c0.8-0.1,1.6-0.2,2.5-0.3
		c0.8-0.1,1.7-0.3,2.5-0.4c0.8,0,1.5,0.2,2.2,0.4c0.6,0.2,1,0.4,1.3,0.7c0.4,0.2,0.4,0.4,0.4,0.4v0.3c0,0,0,0.2-0.4,0.4
		c-0.4,0.2-0.8,0.5-1.4,0.7c-0.6,0.2-1.3,0.4-2.1,0.4c-0.8,0-1.6-0.3-2.5-0.4c-0.8-0.1-1.7-0.2-2.5-0.3c-0.8-0.1-1.4-0.2-2.1-0.3
		c-1.3-0.2-2-0.4-2-0.4V260.8z"/>
</g>
<g id="XMLID_144_">
	<path id="XMLID_196_" d="M392.7,205.5c0,0-3.6,3.5-9.1,8.8c-5.4,5.3-12.8,12.2-20.1,19.1c-1.8,1.7-3.6,3.5-5.4,5.2
		c-1.8,1.7-3.6,3.4-5.3,5c-1.8,1.6-3.5,3.1-5.1,4.5c-1.6,1.4-3.2,2.7-4.7,3.9c-5.8,4.8-10,7.7-10,7.7l-0.2-0.2c0,0,3.3-3.9,8.6-9.3
		c1.3-1.3,2.8-2.8,4.3-4.3c1.5-1.5,3.2-3.1,5-4.7c1.8-1.6,3.6-3.2,5.5-4.8c1.9-1.6,3.8-3.3,5.7-4.9c7.6-6.6,15.2-13.2,21-18.2
		c5.7-4.9,9.6-8.2,9.6-8.2L392.7,205.5z"/>
</g>
<g id="XMLID_143_">
	<path id="XMLID_194_" d="M334,261.1c0,0-1.1,0.2-2.3,0.4c-0.6,0.1-1.5,0.2-2.3,0.3c-0.8,0.1-1.7,0.2-2.5,0.3
		c-0.9,0.1-1.7,0.3-2.5,0.4c-0.8,0-1.6-0.2-2.2-0.4c-0.6-0.2-1.2-0.4-1.5-0.7c-0.4-0.2-0.6-0.4-0.6-0.4v-0.3c0,0,0.2-0.2,0.6-0.4
		c0.4-0.2,0.9-0.5,1.5-0.7c0.6-0.2,1.4-0.4,2.2-0.4c0.8,0,1.6,0.3,2.5,0.4c0.9,0.1,1.7,0.2,2.5,0.3c0.8,0.1,1.7,0.2,2.4,0.3
		c1.3,0.2,2.3,0.4,2.3,0.4V261.1z"/>
</g>
<g id="XMLID_145_">
	<line id="XMLID_192_" class="st1" x1="300.5" y1="298" x2="295.8" y2="295.9"/>
	<path id="XMLID_191_" class="st1" d="M300.5,298.1c0,0-0.4,0-0.9,0c-0.3,0-0.6,0-0.9,0c-0.3,0-0.7-0.1-1-0.1c-0.3,0-0.7,0.1-1,0
		c-0.3-0.1-0.5-0.4-0.6-0.7c-0.1-0.3-0.2-0.6-0.3-0.8c0-0.3,0-0.4,0-0.4l0.1-0.3c0,0,0.1-0.1,0.4-0.3c0.2-0.1,0.5-0.3,0.8-0.4
		c0.3-0.1,0.6-0.1,0.9,0c0.3,0.1,0.5,0.5,0.7,0.7c0.3,0.2,0.5,0.4,0.7,0.7c0.2,0.2,0.4,0.5,0.6,0.7c0.4,0.4,0.6,0.7,0.6,0.7
		L300.5,298.1z"/>
</g>
<g id="XMLID_146_">
	<line id="XMLID_189_" class="st1" x1="295.8" y1="295.9" x2="292.1" y2="291.6"/>
	<path id="XMLID_188_" class="st1" d="M295.7,296c0,0-0.4-0.2-0.9-0.4c-0.3-0.1-0.6-0.3-0.9-0.5c-0.3-0.2-0.6-0.4-0.9-0.6
		c-0.3-0.2-0.7-0.3-1-0.6c-0.2-0.2-0.3-0.6-0.3-0.9c0-0.3,0-0.7,0.1-0.9c0.1-0.3,0.1-0.4,0.1-0.4l0.2-0.2c0,0,0.2,0,0.5-0.1
		c0.3,0,0.6,0,0.9,0.1c0.3,0.1,0.7,0.2,0.9,0.5c0.2,0.3,0.2,0.7,0.4,1c0.2,0.3,0.3,0.7,0.4,1c0.1,0.3,0.2,0.6,0.3,0.9
		c0.2,0.5,0.3,0.9,0.3,0.9L295.7,296z"/>
</g>
<g id="XMLID_148_">
	<path id="XMLID_186_" d="M339.4,297.9c0,0,0.2-0.3,0.6-0.7c0.2-0.2,0.4-0.4,0.6-0.7c0.2-0.2,0.5-0.4,0.7-0.7
		c0.3-0.2,0.5-0.6,0.7-0.7c0.3-0.1,0.6-0.1,0.9,0c0.3,0.1,0.6,0.2,0.8,0.4c0.2,0.1,0.4,0.3,0.4,0.3l0.1,0.3c0,0,0,0.2,0,0.4
		c0,0.3-0.1,0.6-0.3,0.8c-0.1,0.3-0.3,0.5-0.6,0.7c-0.3,0.1-0.7,0-1,0c-0.3,0-0.7,0.1-1,0.1c-0.3,0-0.6,0-0.9,0c-0.5,0-0.9,0-0.9,0
		L339.4,297.9z"/>
</g>
<g id="XMLID_147_">
	<path id="XMLID_184_" d="M344.1,295.8c0,0,0.1-0.4,0.3-0.9c0.1-0.3,0.2-0.6,0.3-0.9c0.1-0.3,0.3-0.7,0.5-1c0.2-0.3,0.2-0.8,0.4-1
		c0.2-0.3,0.6-0.4,0.9-0.5c0.3-0.1,0.7-0.1,0.9-0.1c0.3,0,0.5,0.1,0.5,0.1l0.2,0.2c0,0,0.1,0.2,0.1,0.4c0.1,0.3,0.1,0.6,0.1,0.9
		c0,0.3-0.1,0.7-0.3,0.9c-0.2,0.2-0.7,0.3-1,0.6c-0.3,0.2-0.6,0.4-0.9,0.6c-0.3,0.2-0.6,0.3-0.9,0.5c-0.5,0.3-0.9,0.4-0.9,0.4
		L344.1,295.8z"/>
</g>
<g id="XMLID_149_">
	<line id="XMLID_182_" class="st1" x1="319.7" y1="328.3" x2="313.9" y2="324.9"/>
	<path id="XMLID_181_" class="st1" d="M319.7,328.4c0,0-0.5-0.1-1.1-0.2c-0.3-0.1-0.7-0.1-1.1-0.2c-0.4-0.1-0.8-0.2-1.2-0.3
		c-0.4-0.1-0.9-0.1-1.3-0.3c-0.3-0.2-0.6-0.5-0.8-0.8c-0.2-0.3-0.3-0.7-0.3-1c-0.1-0.3-0.1-0.5-0.1-0.5l0.1-0.3c0,0,0.2-0.1,0.4-0.2
		c0.3-0.1,0.6-0.2,1-0.2c0.4,0,0.8,0,1.1,0.2c0.3,0.2,0.6,0.6,0.9,0.9c0.3,0.3,0.6,0.6,0.9,0.9c0.3,0.3,0.5,0.6,0.8,0.8
		c0.4,0.5,0.7,0.9,0.7,0.9L319.7,328.4z"/>
</g>
<g id="XMLID_150_">
	<line id="XMLID_179_" class="st1" x1="313.9" y1="324.9" x2="315.4" y2="321.8"/>
	<path id="XMLID_178_" class="st1" d="M313.8,324.9c0,0-0.1-0.3-0.1-0.6c0-0.2-0.1-0.4-0.1-0.6c0-0.2,0-0.5,0-0.7
		c0-0.2-0.1-0.5-0.1-0.7c0.1-0.2,0.3-0.3,0.6-0.3c0.3-0.1,0.5-0.1,0.8-0.1c0.2,0,0.4,0,0.4,0l0.3,0.1c0,0,0.1,0.1,0.3,0.3
		c0.2,0.2,0.3,0.4,0.4,0.6c0.1,0.2,0.2,0.5,0.1,0.6c-0.1,0.2-0.4,0.3-0.6,0.4c-0.2,0.2-0.4,0.3-0.6,0.4c-0.2,0.1-0.4,0.3-0.5,0.4
		c-0.3,0.2-0.6,0.3-0.6,0.3L313.8,324.9z"/>
</g>
<g id="XMLID_151_">
	<line id="XMLID_176_" class="st1" x1="315.4" y1="321.8" x2="319.7" y2="323.4"/>
	<path id="XMLID_175_" class="st1" d="M315.4,321.7c0,0,0.3-0.1,0.8-0.1c0.2,0,0.5-0.1,0.8-0.1c0.3,0,0.6,0,0.9,0
		c0.3,0,0.7-0.1,0.9-0.1c0.3,0.1,0.4,0.3,0.6,0.6c0.1,0.3,0.2,0.6,0.3,0.8c0,0.2,0.1,0.4,0.1,0.4l-0.1,0.3c0,0-0.1,0.1-0.3,0.3
		c-0.2,0.2-0.4,0.3-0.7,0.5c-0.3,0.1-0.6,0.2-0.8,0.1c-0.3-0.1-0.4-0.4-0.7-0.6c-0.2-0.2-0.5-0.4-0.7-0.6c-0.2-0.2-0.4-0.4-0.6-0.6
		c-0.3-0.3-0.6-0.6-0.6-0.6L315.4,321.7z"/>
</g>
<g id="XMLID_154_">
	<path id="XMLID_173_" d="M320.5,328.1c0,0,0.3-0.4,0.7-0.9c0.2-0.2,0.5-0.5,0.8-0.8c0.3-0.3,0.6-0.6,0.9-0.9
		c0.3-0.3,0.6-0.7,0.9-0.9c0.3-0.2,0.7-0.2,1.1-0.2c0.4,0,0.7,0.1,1,0.2c0.3,0.1,0.4,0.2,0.4,0.2l0.1,0.3c0,0,0,0.2-0.1,0.5
		c0,0.3-0.2,0.6-0.3,1c-0.2,0.3-0.4,0.7-0.8,0.8c-0.4,0.2-0.8,0.2-1.3,0.3c-0.4,0.1-0.8,0.2-1.2,0.3c-0.4,0.1-0.8,0.2-1.1,0.2
		c-0.7,0.1-1.1,0.2-1.1,0.2L320.5,328.1z"/>
</g>
<g id="XMLID_153_">
	<path id="XMLID_171_" d="M326.3,325c0,0-0.3-0.1-0.6-0.3c-0.2-0.1-0.4-0.2-0.5-0.4c-0.2-0.1-0.4-0.3-0.6-0.4
		c-0.2-0.2-0.5-0.2-0.6-0.4c-0.1-0.2,0-0.4,0.1-0.7c0.1-0.2,0.3-0.5,0.4-0.6c0.2-0.2,0.3-0.3,0.3-0.3l0.3-0.1c0,0,0.2,0,0.4,0
		c0.2,0,0.5,0,0.8,0.1c0.2,0.1,0.5,0.2,0.6,0.3c0.1,0.2-0.1,0.5-0.1,0.7c0,0.2,0,0.5,0,0.7c0,0.2-0.1,0.5-0.1,0.6
		c-0.1,0.4-0.1,0.6-0.1,0.6L326.3,325z"/>
</g>
<g id="XMLID_152_">
	<path id="XMLID_541_" d="M325,322c0,0-0.2,0.3-0.6,0.6c-0.2,0.2-0.4,0.4-0.6,0.6c-0.2,0.2-0.5,0.4-0.7,0.6
		c-0.2,0.2-0.4,0.5-0.7,0.6c-0.3,0.1-0.6,0-0.8-0.1c-0.3-0.1-0.5-0.3-0.7-0.5c-0.2-0.2-0.3-0.3-0.3-0.3l-0.1-0.3c0,0,0-0.2,0.1-0.4
		c0-0.3,0.1-0.5,0.3-0.8c0.1-0.3,0.3-0.5,0.6-0.6c0.3-0.1,0.6,0.1,0.9,0.1c0.3,0,0.6,0,0.9,0c0.3,0,0.6,0,0.8,0.1
		c0.5,0,0.8,0.1,0.8,0.1L325,322z"/>
</g>
<g id="XMLID_155_">
	<path id="XMLID_167_" d="M320.1,269c0,0,0.2,2.2,0.4,5.9c0.2,3.7,0.4,8.5,0.7,13.4c0.1,1.2,0.1,2.4,0.2,3.6
		c0.1,1.2,0.1,2.4,0.2,3.5c0,1.2,0,2.3-0.1,3.3c-0.1,1.1-0.1,2.1-0.3,3c-0.4,3.7-1.1,6.2-1.1,6.2h-0.3c0,0-0.7-2.5-1.1-6.2
		c-0.1-0.9-0.2-2-0.3-3c-0.1-1.1-0.1-2.2-0.1-3.3c0-1.2,0.1-2.4,0.2-3.6c0.1-1.2,0.1-2.4,0.2-3.7c0.2-4.9,0.4-9.6,0.7-13.3
		c0.2-3.7,0.4-5.9,0.4-5.9H320.1z"/>
</g>
</svg>
