<?xml version="1.0" encoding="utf-8"?>
<!-- Generator: Adobe Illustrator 19.0.0, SVG Export Plug-In . SVG Version: 6.00 Build 0)  -->
<svg version="1.1" id="Layer_1" xmlns="http://www.w3.org/2000/svg" xmlns:xlink="http://www.w3.org/1999/xlink" x="0px" y="0px"
	 viewBox="220 -40 640 480" style="enable-background:new 220 -40 640 480;" xml:space="preserve">
<style type="text/css">
	.st0{fill:#2B3638;stroke:#2B3638;stroke-width:2;stroke-miterlimit:10;}
	.st1{fill:#2B3638;}
	.st2{fill:#E62739;}
	.st3{fill:none;stroke:#333333;stroke-width:2;stroke-miterlimit:10;}
	.st4{fill:#EAEAEA;stroke:#EAEAEA;stroke-width:2;stroke-miterlimit:10;}
	.st5{fill:#EAEAEA;stroke:#EAEAEA;stroke-miterlimit:10;}
	.st6{fill:#EAEAEA;}
	.st7{fill:none;stroke:#EAEAEA;stroke-width:2;stroke-miterlimit:10;}
</style>
<g id="XMLID_12_">
	<g>
		<g id="XMLID_590_">
			<path id="XMLID_594_" class="st0" d="M570.4,326.2c-9.9,4.4-19.7,8-29.6,11"/>
		</g>
	</g>
</g>
<g id="XMLID_11_">
	<g>
		<path id="XMLID_554_" class="st1" d="M570.2,326.8c0,0-0.3-0.3-0.6-0.6c-0.2-0.2-0.4-0.3-0.6-0.6c-0.2-0.2-0.4-0.4-0.6-0.7
			c-0.2-0.2-0.5-0.4-0.6-0.6c-0.1-0.2,0-0.4,0.1-0.7c0.1-0.3,0.3-0.5,0.5-0.7s0.3-0.3,0.3-0.3c0.1,0,0.2-0.1,0.3-0.1
			c0,0,0.2,0,0.4-0.1c0.3,0,0.5,0,0.8,0.1s0.5,0.3,0.6,0.5c0.1,0.3-0.1,0.7-0.1,1s0,0.7,0,1s-0.1,0.6-0.1,0.9c0,0.5-0.1,0.9-0.1,0.9
			C570.4,326.8,570.3,326.8,570.2,326.8z"/>
	</g>
</g>
<g id="XMLID_10_">
	<g>
		<path id="XMLID_549_" class="st1" d="M585.5,279.4c0,0-0.8,3.5-2.1,8.4c-1.2,4.9-3,11.3-4.8,17c-0.5,1.4-0.8,2.9-1.3,4.3
			c-0.4,1.4-0.8,2.7-1.3,4c-0.5,1.2-0.9,2.4-1.4,3.5s-0.9,2-1.4,2.9c-1.8,3.5-3.5,5.5-3.5,5.5c-0.1-0.1-0.2-0.1-0.3-0.2
			c0,0,0.3-2.6,1.4-6.5c0.3-1,0.5-2,0.9-3.1c0.4-1.1,0.7-2.2,1.2-3.5c0.5-1.2,1-2.5,1.6-3.7c0.6-1.3,1.1-2.7,1.7-4.1
			c2.2-5.6,4.3-11.7,6-16.6c1.7-4.8,2.8-8.3,2.8-8.3C585.2,279.3,585.4,279.4,585.5,279.4z"/>
	</g>
</g>
<g id="XMLID_9_">
	<g>
		<path id="XMLID_545_" class="st1" d="M584.9,281.1c0,0-0.4-0.8-1-1.9c-0.3-0.6-0.7-1.2-1-1.9c-0.4-0.6-0.7-1.3-1.1-2
			s-0.9-1.2-1.1-1.9c-0.3-0.6-0.3-1.2-0.4-1.7c0-0.5,0-1,0.1-1.4c0.1-0.4,0.2-0.6,0.2-0.6c0.1-0.1,0.2-0.1,0.3-0.2
			c0,0,0.2,0,0.5,0.2c0.3,0.1,0.7,0.4,1.1,0.7c0.4,0.4,0.8,0.9,1,1.6s0.3,1.5,0.5,2.3c0.2,0.7,0.4,1.6,0.5,2.3
			c0.2,0.8,0.3,1.5,0.4,2.1c0.2,1.2,0.3,2.1,0.3,2.1C585.1,281,585,281.1,584.9,281.1z"/>
	</g>
</g>
<g id="XMLID_2_">
	<g>
		<path id="XMLID_542_" class="st1" d="M580.7,270.8c0,0-0.2-1.8-0.4-4.3c-0.1-1.2-0.2-2.6-0.3-4.1c-0.1-1.4-0.2-3-0.3-4.4
			c-0.1-0.7-0.1-1.5-0.2-2.2c-0.1-0.7-0.1-1.4-0.2-2c0-0.7,0-1.3,0.1-2s0.1-1.3,0.3-2c0.4-2.4,1.1-4.6,1.1-4.7
			c0.1-0.1,0.2-0.2,0.3-0.2c0,0,0.7,1.2,1.1,3.5c0.1,0.6,0.2,1.3,0.3,2s0.1,1.5,0.1,2.4s-0.1,1.7-0.2,2.6c-0.1,0.9-0.1,1.7-0.2,2.6
			c-0.1,1.7-0.2,3.4-0.3,5c-0.1,1.6-0.2,3.1-0.3,4.3c-0.2,2.4-0.4,3.9-0.4,3.9C581,271.1,580.9,270.9,580.7,270.8z"/>
	</g>
</g>
<g id="XMLID_32_">
	<g>
		<path id="XMLID_537_" class="st1" d="M580.7,244.7c0,0,0.3-0.5,0.7-1.2c0.3-0.4,0.5-0.7,0.9-1.3c0.3-0.5,0.7-0.9,1-1.4
			c0.4-0.5,0.6-1.1,1-1.5c0.4-0.4,0.9-0.7,1.3-1c0.5-0.3,0.9-0.4,1.3-0.4c0.3,0,0.6-0.1,0.6-0.1c0.1,0.1,0.2,0.1,0.3,0.3
			c0,0,0.1,0.2,0,0.6c-0.1,0.3-0.2,0.9-0.3,1.4c-0.2,0.6-0.4,1-0.8,1.6c-0.4,0.4-1.1,0.7-1.6,1.1c-0.5,0.3-1,0.7-1.4,1
			c-0.5,0.3-0.9,0.5-1.3,0.8c-0.8,0.4-1.2,0.6-1.2,0.6C581,245,580.9,244.9,580.7,244.7z"/>
	</g>
</g>
<g id="XMLID_31_">
	<g>
		<path id="XMLID_533_" class="st1" d="M586.7,239c0,0,1.3-0.1,3.2-0.4c1-0.1,2.1-0.2,3.3-0.3c1.2-0.1,2.5-0.2,3.8-0.4
			c1.3,0,2.6-0.3,3.8-0.4c1.2,0,2.3,0.2,3.3,0.5c0.9,0.2,1.8,0.5,2.3,0.8c0.5,0.2,0.9,0.5,0.9,0.5c0,0.1,0,0.2,0,0.3
			c0,0-0.3,0.1-0.9,0.4c-0.6,0.3-1.4,0.4-2.3,0.7s-2.1,0.3-3.3,0.2c-1.2-0.1-2.5-0.4-3.8-0.5c-1.3-0.2-2.5-0.2-3.8-0.4
			c-1.2-0.2-2.3-0.3-3.3-0.4C587.9,239.2,586.7,239.1,586.7,239C586.7,239.2,586.7,239.1,586.7,239z"/>
	</g>
</g>
<g id="XMLID_30_">
	<g>
		<path id="XMLID_529_" class="st1" d="M605.8,239.7c0,0,1.1-0.9,2.8-2.1c0.8-0.7,1.9-1.4,2.9-2.3s2.3-1.8,3.4-2.8s2.3-2,3.3-3
			c1.1-1,2.3-1.6,3.3-2.3c1-0.6,1.9-1,2.7-1.3c0.6-0.3,1.1-0.4,1.1-0.4c0.1,0.1,0.1,0.1,0.2,0.2c0,0-0.2,0.5-0.6,1
			c-0.4,0.7-1.1,1.5-1.8,2.4c-0.8,0.9-1.8,1.9-2.9,2.7c-1.1,0.9-2.6,1.6-3.8,2.3c-1.2,0.7-2.6,1.6-3.8,2.2c-1.2,0.6-2.4,1.2-3.3,1.8
			c-1.9,0.9-3.3,1.5-3.3,1.5C605.9,239.8,605.9,239.7,605.8,239.7z"/>
	</g>
</g>
<g id="XMLID_29_">
	<g>
		<path id="XMLID_525_" class="st1" d="M625.8,225.9c0,0-1.2-0.9-3-2.2c-0.9-0.7-1.9-1.4-3-2.1c-1.1-0.8-2.3-1.6-3.4-2.4
			c-1.1-0.8-2.4-1.4-3.4-2.1s-1.9-1.6-2.6-2.3c-0.7-0.7-1.2-1.3-1.6-1.8c-0.3-0.4-0.5-0.8-0.5-0.8c0.1-0.1,0.1-0.1,0.2-0.2
			c0,0,0.4,0.1,1,0.2s1.4,0.4,2.4,0.8c0.9,0.4,2,0.9,3,1.7c1,0.7,2,1.8,3,2.7c1,0.9,2.1,1.9,3,2.9c1,1,1.8,1.8,2.6,2.7
			c1.5,1.6,2.5,2.8,2.5,2.8C625.9,225.7,625.9,225.8,625.8,225.9z"/>
	</g>
</g>
<g id="XMLID_28_">
	<g>
		<path id="XMLID_468_" class="st1" d="M608.3,212c0,0-2.6,1-6.5,2.5c-3.9,1.5-9.1,3.2-14.2,4.9c-1.3,0.4-2.6,0.8-3.9,1.3
			c-1.2,0.4-2.5,0.7-3.8,1.1c-1.2,0.3-2.4,0.6-3.6,0.8c-1.1,0.2-2.2,0.4-3.2,0.5c-4,0.5-6.8,0.4-6.8,0.4c0-0.1-0.1-0.2-0.1-0.3
			c0,0,2.5-1.2,6.3-2.3c0.9-0.3,2-0.6,3.1-1c1.1-0.3,2.2-0.7,3.5-1c1.2-0.3,2.5-0.5,3.9-0.9c1.3-0.3,2.6-0.5,4-0.9
			c5.3-1.2,10.6-2.6,14.6-3.6c4-1.1,6.7-1.7,6.7-1.7C608.2,211.7,608.3,211.9,608.3,212z"/>
	</g>
</g>
<g id="XMLID_115_">
</g>
<g id="XMLID_35_">
</g>
<g id="XMLID_34_">
</g>
<g id="XMLID_114_">
</g>
<g id="XMLID_38_">
</g>
<g id="XMLID_112_">
</g>
<g id="XMLID_37_">
</g>
<g id="XMLID_36_">
</g>
<g id="XMLID_71_">
</g>
<g id="XMLID_111_">
</g>
<g id="XMLID_118_">
</g>
<g id="XMLID_117_">
</g>
<g id="XMLID_113_">
	<g>
		<path id="XMLID_426_" class="st1" d="M619.4,219.1c0,0,1.7-0.9,4.2-2.4c1.3-0.8,2.7-1.7,4.3-2.7c1.6-1,3.3-2.1,4.9-3.2
			c0.8-0.5,1.7-1.2,2.5-1.7c0.8-0.5,1.7-1.3,2.4-1.7c0.8-0.4,1.7-1.1,2.4-1.5c0.8-0.5,1.6-0.9,2.3-1.2c2.8-1.5,5-2.2,5-2.2
			c0.1,0.1,0.1,0.1,0.2,0.2c0,0-1.4,1.9-3.9,4c-0.6,0.6-1.3,1.1-2,1.7c-0.7,0.6-1.5,1.1-2.3,1.6c-0.8,0.4-1.7,1.1-2.6,1.5
			s-1.8,1-2.7,1.4c-1.8,1-3.6,1.8-5.3,2.7c-1.7,0.8-3.3,1.5-4.7,2.1c-2.7,1.2-4.5,1.8-4.5,1.8C619.4,219.3,619.5,219.2,619.4,219.1z
			"/>
	</g>
</g>
<g id="XMLID_109_">
	<g>
		<path id="XMLID_420_" class="st1" d="M647,202.6c0,0,1.8-0.4,4.6-0.8c1.4-0.2,3-0.6,4.7-0.9c1.7-0.4,3.6-0.6,5.4-1
			c0.9-0.2,1.8-0.4,2.7-0.6s1.8-0.4,2.6-0.5c0.9-0.1,1.7-0.2,2.5-0.2c0.8,0,1.6-0.1,2.3-0.1c2.8,0,4.7,0.4,4.7,0.4
			c0,0.1,0,0.2,0,0.3c0,0-1.8,1-4.4,1.7c-0.7,0.2-1.4,0.3-2.2,0.6c-0.8,0.2-1.6,0.4-2.5,0.4c-0.9,0.1-1.8,0.2-2.7,0.2
			c-0.9,0-1.8,0.1-2.8,0.2c-1.9,0.2-3.7,0.3-5.4,0.3c-1.7,0.2-3.4,0.2-4.8,0.2c-2.8,0.2-4.6,0.2-4.6,0.2
			C647,202.8,647,202.7,647,202.6z"/>
	</g>
</g>
<g id="XMLID_108_">
	<g>
		<path id="XMLID_414_" class="st1" d="M676.3,198.9c0,0,0.8-0.7,2-1.6c0.6-0.5,1.3-1.1,2.1-1.7c0.8-0.7,1.6-1.3,2.5-2.1
			c0.8-0.7,1.6-1.6,2.4-2.3c0.8-0.6,1.7-1.1,2.5-1.6c0.8-0.4,1.5-0.6,2-0.8c0.5-0.1,0.8-0.2,0.8-0.2c0.1,0.1,0.1,0.1,0.2,0.2
			c0,0-0.1,0.3-0.4,0.9c-0.3,0.6-0.7,1.2-1.2,1.9c-0.6,0.7-1.2,1.4-2.1,2.1c-0.9,0.6-1.9,1-2.8,1.6c-1,0.6-1.9,1.1-2.8,1.5
			c-0.9,0.5-1.8,0.9-2.5,1.2c-1.5,0.7-2.5,1-2.5,1C676.4,199,676.4,199,676.3,198.9z"/>
	</g>
</g>
<g id="XMLID_107_">
	<g>
		<path id="XMLID_408_" class="st1" d="M690.6,188.6c0,0,0-0.7,0.1-1.9c0-0.5,0.1-1.2,0.1-1.9c0.1-0.7,0.2-1.5,0.2-2.2
			c0.1-0.7,0-1.6,0.2-2.2c0.2-0.7,0.5-1.4,0.8-2c0.3-0.6,0.7-1.2,1-1.6c0.3-0.4,0.5-0.7,0.5-0.7c0.1,0,0.2,0,0.3,0
			c0,0,0.1,0.2,0.2,0.6c0.1,0.4,0.2,0.9,0.3,1.7c0,0.7,0,1.5-0.1,2.3c-0.2,0.8-0.6,1.7-0.9,2.4c-0.3,0.8-0.6,1.5-0.9,2.2
			s-0.6,1.3-0.8,1.7c-0.5,0.9-0.8,1.5-0.8,1.5C690.7,188.6,690.7,188.6,690.6,188.6z"/>
	</g>
</g>
<g id="XMLID_106_">
	<g>
		<path id="XMLID_402_" class="st1" d="M693.9,176.3c0,0-0.3,0.7-0.9,1.7c-0.3,0.6-0.6,1.1-0.9,1.6c-0.3,0.6-0.7,1.2-1.1,1.8
			s-0.7,1.2-1.1,1.7c-0.4,0.5-1,0.7-1.4,1c-0.5,0.1-1,0.3-1.3,0.3c-0.4,0-0.6,0-0.6,0c-0.1-0.1-0.1-0.1-0.2-0.2c0,0,0-0.2,0-0.5
			c0-0.4,0.1-0.7,0.3-1.2c0.2-0.4,0.5-1,0.9-1.4c0.4-0.5,1.1-0.8,1.6-1.2s1.1-0.9,1.6-1.4c0.5-0.4,1-0.9,1.4-1.2
			c0.8-0.7,1.4-1.2,1.4-1.2C693.7,176.2,693.8,176.2,693.9,176.3z"/>
	</g>
</g>
<g id="XMLID_105_">
	<g>
		<path id="XMLID_396_" class="st1" d="M686.5,184.6c0,0-0.3,0.5-0.8,1.1c-0.2,0.3-0.5,0.8-0.9,1.1c-0.3,0.4-0.7,0.7-1,1.1
			c-0.4,0.4-0.6,0.8-1,1.1c-0.4,0.3-0.8,0.3-1.3,0.3c-0.4,0-0.8-0.1-1.1-0.1c-0.3-0.1-0.5-0.1-0.5-0.1c-0.1-0.1-0.1-0.1-0.2-0.2
			c0,0,0-0.2,0.1-0.4c0.1-0.3,0.2-0.6,0.4-1s0.5-0.7,0.8-0.9c0.4-0.2,1-0.3,1.4-0.5c0.5-0.2,0.9-0.4,1.4-0.7
			c0.4-0.2,0.9-0.4,1.2-0.5c0.7-0.4,1.2-0.5,1.2-0.5C686.3,184.4,686.4,184.5,686.5,184.6z"/>
	</g>
</g>
<g id="XMLID_104_">
	<g>
		<path id="XMLID_390_" class="st1" d="M681,190.9c0,0-1,0.2-2.1,0.4c-0.6,0.1-1.3,0.2-2,0.3c-0.7,0.1-1.5,0.2-2.3,0.3
			c-0.8,0.1-1.5,0.3-2.2,0.3c-0.7,0-1.4-0.2-1.9-0.4c-0.6-0.2-0.8-0.4-1.1-0.7c-0.3-0.2-0.3-0.4-0.3-0.4c0-0.1,0-0.2,0-0.3
			c0,0-0.1-0.2,0.3-0.4c0.3-0.2,0.7-0.5,1.2-0.7c0.6-0.2,1.2-0.4,1.9-0.4c0.7,0,1.4,0.3,2.2,0.3c0.8,0.1,1.5,0.2,2.2,0.3
			s1.6,0.2,2.1,0.3c1.1,0.2,2.1,0.4,2.1,0.4c0,0.2,0,0.4,0,0.5C681.1,190.9,681,190.9,681,190.9z"/>
	</g>
</g>
<g id="XMLID_103_">
	<g>
		<path id="XMLID_384_" class="st1" d="M668.4,187.5c0,0,2.4-2.5,6-6.6c3.6-4.2,8.4-9.8,13.3-16.1c1.2-1.6,2.4-3.2,3.6-4.8
			c1.2-1.7,2.3-3.2,3.5-4.7s2.3-3,3.5-4.5c1.1-1.4,2.2-2.8,3.2-4.1c4-5,7.1-8.3,7.1-8.3c0.1,0.1,0.1,0.1,0.2,0.2c0,0-2,4.1-5.4,9.6
			c-0.9,1.4-1.8,2.8-2.8,4.4c-1,1.5-2.1,3.1-3.3,4.6c-1.2,1.5-2.4,3.1-3.7,4.6c-1.3,1.6-2.6,3.1-3.9,4.6c-5.2,6-10.3,11.5-14.3,15.4
			c-3.9,3.9-6.6,6.1-6.6,6.1C668.7,187.6,668.5,187.5,668.4,187.5z"/>
	</g>
</g>
<g id="XMLID_99_">
	<g>
		<path id="XMLID_360_" class="st1" d="M708.7,126.3c0,0-0.6,1.3-1.7,3.1c-0.5,0.9-1.1,1.9-1.7,3s-1.4,2.1-2.1,3.2
			c-0.7,1-1.3,2.2-2,3c-0.7,0.8-1.6,1.5-2.3,2c-0.8,0.5-1.4,0.9-1.9,1.1c-0.5,0.2-0.8,0.3-0.8,0.3c-0.1-0.1-0.1-0.1-0.2-0.2
			c0,0,0.1-0.3,0.2-0.8c0.2-0.5,0.5-1.1,0.9-1.9c0.4-0.8,1-1.6,1.7-2.4c0.8-0.8,1.7-1.6,2.6-2.5s1.7-1.8,2.6-2.8
			c0.8-0.9,1.6-1.8,2.3-2.6C707.6,127.3,708.6,126.2,708.7,126.3C708.6,126.3,708.7,126.3,708.7,126.3z"/>
	</g>
</g>
<g id="XMLID_98_">
	<g>
		<path id="XMLID_354_" class="st1" d="M695.9,140.7c0,0-0.1-3-0.1-7.3c-0.1-4.4-0.1-10-0.1-15.7c0-1.5,0-2.8-0.1-4.2
			c0-1.4-0.1-2.7,0-4.1c0-1.4,0.1-2.7,0.2-4s0.2-2.6,0.4-3.8c0.5-4.8,1.3-9.3,1.3-9.3c0.1-0.2,0.2-0.3,0.3-0.5c0,0,0.6,2.3,0.8,7.3
			c0.1,1.2,0.1,2.5,0.1,4.1c0,1.4,0,3,0,4.6c-0.1,1.7-0.2,3.4-0.3,5c-0.1,1.7-0.2,3.4-0.3,5c-0.4,6.6-0.8,12.7-1.2,16.7
			c-0.4,4.1-0.6,6.6-0.6,6.6C696.2,141.1,696,140.9,695.9,140.7z"/>
	</g>
</g>
<g id="XMLID_97_">
	<g>
		<path id="XMLID_348_" class="st1" d="M697.4,94.6c0,0-1.3-2.5-3.2-6c-2-3.4-4.5-7.9-7-11.9c-0.6-1-1.3-2-1.9-2.9
			c-0.6-1-1.3-1.9-1.8-2.8s-1-1.7-1.5-2.6c-0.4-0.8-0.8-1.6-1.2-2.4c-1.4-2.9-2-4.9-2-4.9c0.1,0,0.2-0.1,0.3-0.1
			c0,0,1.8,1.3,3.8,3.8c0.5,0.6,1.1,1.3,1.6,2.1c0.6,0.8,1.1,1.6,1.7,2.6c0.5,0.9,1,1.9,1.5,3s1,2.1,1.6,3.2c2.1,4.3,4.3,9,5.8,12.6
			c1.6,3.6,2.6,6.3,2.6,6.2C697.6,94.4,697.5,94.5,697.4,94.6z"/>
	</g>
</g>
<g id="XMLID_95_">
	<g>
		<path id="XMLID_344_" class="st1" d="M672.7,59.7c0,0,1,1.2,2.5,3.3c0.7,1,1.6,2.3,2.5,3.7c0.9,1.4,1.9,2.9,2.8,4.7
			c0.5,0.8,1,1.6,1.5,2.5c0.5,0.8,1,1.7,1.4,2.5c0.4,0.9,0.8,1.8,1.1,2.5c0.3,0.8,0.6,1.7,0.8,2.3c1,3.1,1.2,5.3,1.2,5.3
			c-0.1,0-0.2,0-0.3,0.1c0,0-1.5-1.8-3.1-4.5c-0.4-0.7-0.8-1.4-1.3-2.1c-0.4-0.8-0.9-1.5-1.3-2.4c-0.4-0.8-0.8-1.7-1.1-2.6
			c-0.4-0.9-0.7-1.7-1.1-2.6c-0.8-1.7-1.6-3.3-2.3-4.9c-0.7-1.5-1.4-2.8-1.9-3.9c-1.1-2.3-1.8-3.7-1.8-3.7
			C672.4,59.7,672.6,59.7,672.7,59.7z"/>
	</g>
</g>
<g id="XMLID_94_">
	<g>
		<path id="XMLID_342_" class="st1" d="M686.6,83.6c0,0-0.1,2.4-0.4,5.9c-0.1,1.7-0.3,3.7-0.4,5.8c-0.2,2.1-0.4,4.3-0.6,6.4
			c-0.1,1-0.2,2.2-0.2,3.2c-0.1,1-0.1,2.1-0.3,3.1c-0.1,1-0.3,1.9-0.5,2.6c-0.2,0.8-0.4,1.6-0.6,2.2c-0.8,2.6-1.8,3.8-1.8,3.8
			c-0.1-0.1-0.2-0.1-0.3-0.2c0,0-0.4-2.1-0.3-5c0-0.7,0-1.4,0.1-2.2c0-0.8,0.2-1.6,0.3-2.5c0.2-0.9,0.4-1.7,0.6-2.6
			c0.2-0.9,0.4-1.9,0.6-2.8c0.4-1.9,0.8-4,1.2-5.9c0.4-2,0.8-4,1.1-5.7c0.7-3.4,1.1-5.9,1.1-5.9C686.3,83.7,686.5,83.7,686.6,83.6z"
			/>
	</g>
</g>
<g id="XMLID_93_">
	<g>
		<path id="XMLID_340_" class="st1" d="M681.6,119.1c0,0-1.4-1.7-3.4-4.3c-1-1.3-2.2-2.7-3.5-4.2s-2.6-3.1-3.9-4.6
			c-0.7-0.7-1.4-1.5-2-2.1c-0.7-0.7-1.3-1.3-1.9-2c-0.6-0.6-1.1-1.3-1.6-2c-0.5-0.6-0.9-1.2-1.3-1.8c-1.6-2.3-2.3-3.9-2.3-3.9
			c0.1-0.1,0.1-0.1,0.2-0.2c0,0,1.8,0.7,3.9,2.5c0.5,0.4,1.1,0.9,1.7,1.5c0.6,0.5,1.2,1.2,1.8,1.8s1.1,1.4,1.7,2.2s1.1,1.6,1.7,2.4
			c1.2,1.6,2.4,3.3,3.4,5c1.1,1.6,2.1,3.3,2.9,4.6c1.7,2.8,2.8,4.7,2.8,4.7C681.7,118.9,681.7,119,681.6,119.1z"/>
	</g>
</g>
<g id="XMLID_92_">
	<g>
		<path id="XMLID_337_" class="st1" d="M661.5,94.3c0,0-0.8-2-2-4.7c-0.6-1.4-1.3-2.9-2-4.6c-0.7-1.6-1.5-3.4-2.2-4.9
			c-0.4-0.8-0.8-1.6-1.2-2.3c-0.4-0.8-0.8-1.5-1.1-2.2c-0.3-0.7-0.6-1.3-0.8-2.1c-0.2-0.6-0.4-1.2-0.6-1.8c-0.6-2.3-0.7-4-0.7-4
			c0.1-0.1,0.2-0.1,0.3-0.2c0,0,1.3,0.9,2.6,3c0.3,0.5,0.7,1,1,1.7c0.4,0.6,0.7,1.3,1,2c0.3,0.8,0.6,1.5,0.8,2.4
			c0.2,0.9,0.5,1.7,0.8,2.6c0.6,1.7,1.1,3.5,1.6,5.2s1,3.4,1.4,4.9c0.8,2.9,1.3,5,1.3,4.9C661.6,94.2,661.6,94.2,661.5,94.3z"/>
	</g>
</g>
<g id="XMLID_91_">
	<g>
		<path id="XMLID_335_" class="st1" d="M651.3,67.7c0,0,0.5,1.6,1.2,4.2c0.4,1.4,0.8,3,1.2,4.9c0.4,1.9,0.8,4,1.3,6.2
			c0.2,1,0.5,2.2,0.7,3.3c0.2,1.1,0.5,2.2,0.6,3.3c0.1,1.1,0.3,2.3,0.3,3.2c0.1,1,0.1,2,0.1,2.9c0.1,3.6-0.2,5.8-0.2,5.8
			c-0.1-0.1-0.2-0.1-0.3-0.2c0,0-1-2.8-1.9-6.3c-0.2-0.9-0.4-1.8-0.6-2.7c-0.2-1-0.4-1.9-0.6-2.9c-0.1-1-0.2-2-0.3-3.1
			c-0.1-1-0.2-2-0.3-3.1c-0.2-2-0.5-4-0.6-5.8c-0.2-1.8-0.4-3.5-0.5-4.9c-0.3-2.8-0.4-4.6-0.4-4.6C651.1,67.9,651.2,67.8,651.3,67.7
			z"/>
	</g>
</g>
<g id="XMLID_90_">
	<g>
		<path id="XMLID_330_" class="st1" d="M656.5,101.5c0,0,1,1.6,2.5,4.2c1.5,2.7,3.4,6.5,5.4,10.7c0.5,1,1,2.1,1.5,3.2
			c0.5,1.1,1,2.1,1.4,3.2c0.4,1.1,0.8,2.2,1.1,3.2c0.3,1,0.6,2,0.8,3c1,3.7,1.2,6.5,1.2,6.5c-0.1,0-0.2,0-0.3,0c0,0-1.5-2.5-3.1-5.9
			c-0.4-0.9-0.9-1.8-1.3-2.8c-0.5-1-0.9-2-1.3-3c-0.4-1.1-0.8-2.1-1.1-3.2c-0.4-1.1-0.7-2.2-1.1-3.2c-1.5-4.3-3.1-8.2-4.2-11
			c-1.1-2.9-1.8-4.6-1.8-4.6C656.3,101.7,656.4,101.6,656.5,101.5z"/>
	</g>
</g>
<g id="XMLID_89_">
	<g>
		<path id="XMLID_327_" class="st1" d="M670.2,134.3c0,0-0.6-0.3-1.3-0.7c-0.4-0.2-0.9-0.5-1.3-0.8c-0.5-0.3-1-0.6-1.5-0.9
			c-0.5-0.3-1.1-0.5-1.5-0.8s-0.7-0.7-0.9-1.1c-0.2-0.4-0.3-0.7-0.4-1.1c-0.1-0.3,0-0.5,0-0.5c0.1-0.1,0.1-0.1,0.2-0.2
			c0,0,0.2,0,0.6-0.1c0.3,0,0.8-0.1,1.2,0.1c0.5,0.1,0.9,0.2,1.3,0.6c0.4,0.4,0.7,0.9,1,1.4c0.4,0.4,0.7,0.9,1.1,1.3
			c0.3,0.4,0.6,1,0.9,1.3c0.5,0.8,0.8,1.4,0.8,1.4C670.3,134.3,670.3,134.3,670.2,134.3z"/>
	</g>
</g>
<g id="XMLID_88_">
	<g>
		<path id="XMLID_323_" class="st1" d="M663.5,128.1c0,0,0.3,0.3,0.6,0.8c0.2,0.3,0.4,0.5,0.6,0.9s0.4,0.8,0.6,1.2
			c0.2,0.4,0.5,0.9,0.6,1.3c0.1,0.4,0,0.9-0.1,1.3c-0.1,0.4-0.3,0.7-0.5,0.9c-0.2,0.2-0.3,0.4-0.3,0.4c-0.1,0-0.2,0-0.3,0
			c0,0-0.2-0.1-0.4-0.3c-0.3-0.2-0.5-0.5-0.8-0.7c-0.3-0.3-0.5-0.6-0.6-1c-0.1-0.4,0.1-0.8,0.1-1.2s0-0.8,0.1-1.2
			c0-0.4,0.1-0.7,0.1-1.1c0.1-0.7,0.2-1.1,0.2-1.1C663.4,128.3,663.5,128.2,663.5,128.1z"/>
	</g>
</g>
<g id="XMLID_87_">
	<g>
		<path id="XMLID_315_" class="st1" d="M664.2,133.2c0,0-0.1,3-0.3,7.4c-0.2,4.4-0.6,10.2-0.9,15.8c-0.1,1.4-0.1,2.7-0.2,4.1
			c-0.1,1.3-0.1,2.7-0.3,3.9c-0.1,1.2-0.3,2.4-0.5,3.4s-0.4,2-0.6,2.8c-0.8,3.4-1.8,4.9-1.8,4.9c-0.1-0.1-0.2-0.2-0.3-0.2
			c0,0-0.4-2.8-0.3-6.2c0-0.9,0-1.9,0.1-2.8c0-1,0.1-2,0.3-3.1c0.1-1.1,0.3-2.2,0.6-3.4c0.2-1.2,0.4-2.4,0.6-3.7
			c0.8-5,1.6-10.5,2.2-15c0.6-4.4,1.1-7.7,1.1-7.7C664,133.4,664.1,133.3,664.2,133.2z"/>
	</g>
</g>
<g id="XMLID_86_">
	<g>
		<path id="XMLID_307_" class="st1" d="M659.7,175.2c0,0-0.2,0.7-0.5,1.8c-0.2,0.4-0.4,1.1-0.6,1.7c-0.2,0.6-0.5,1.3-0.7,1.9
			c-0.2,0.6-0.4,1.2-0.7,1.8s-0.8,0.8-1.2,1.1c-0.5,0.1-0.9,0.4-1.3,0.4c-0.3,0.1-0.6,0.1-0.6,0.1c-0.1-0.1-0.1-0.1-0.2-0.2
			c0,0,0-0.2,0-0.5c0-0.4,0-0.7,0.1-1.2c0.2-0.4,0.3-0.9,0.7-1.4c0.3-0.5,0.9-0.8,1.4-1.3c0.5-0.4,0.9-1,1.3-1.5
			c0.5-0.4,0.8-1,1.2-1.3c0.7-0.8,1.2-1.3,1.2-1.3C659.6,175.1,659.6,175.1,659.7,175.2z"/>
	</g>
</g>
<g id="XMLID_85_">
	<g>
		<path id="XMLID_299_" class="st1" d="M653.8,183.9c0,0-3.2,1.4-8,3.6c-4.8,2.1-11.2,4.7-17.6,7.1c-1.6,0.6-3.2,1.2-4.8,1.7
			c-1.6,0.6-3.1,1.1-4.6,1.6s-3,0.9-4.4,1.2c-1.4,0.3-2.8,0.7-4,0.9c-5,1.1-8.4,1.4-8.4,1.4c0-0.1-0.1-0.2-0.1-0.3
			c0,0,3-1.4,7.8-3.3c1.2-0.4,2.5-0.9,3.8-1.4c1.4-0.5,2.8-1,4.3-1.5s3.1-1,4.7-1.3c1.6-0.5,3.3-1,4.9-1.5c6.6-2,13.1-4.2,18-5.8
			s8.2-2.8,8.2-2.8C653.7,183.7,653.7,183.8,653.8,183.9z"/>
	</g>
</g>
<g id="XMLID_84_">
	<g>
		<path id="XMLID_275_" class="st1" d="M601.8,201.1c0,0,1.3-1.2,3.2-3.1c1-1,2.1-2.1,3.3-3.3c1.2-1.3,2.5-2.7,3.8-4
			c0.6-0.7,1.3-1.5,1.9-2.2c0.6-0.7,1.2-1.5,1.9-2.2c0.6-0.6,1.3-1.3,1.9-2c0.6-0.6,1.3-1.1,1.8-1.7c2.3-2.1,4.2-3.2,4.2-3.2
			c0.1,0.1,0.1,0.1,0.2,0.2c0,0-0.9,2.1-2.7,4.7c-0.4,0.7-0.9,1.3-1.5,2c-0.5,0.7-1.1,1.4-1.8,2.1c-0.7,0.6-1.4,1.3-2.1,1.9
			c-0.7,0.6-1.5,1.2-2.2,1.9c-1.5,1.3-2.9,2.5-4.3,3.6s-2.7,2.1-3.8,2.8C603.4,200.2,601.9,201.1,601.8,201.1
			C601.9,201.1,601.8,201.1,601.8,201.1z"/>
	</g>
</g>
<g id="XMLID_81_">
	<g>
		<path id="XMLID_255_" class="st1" d="M620.1,177.8c0,0-1.3,1.5-3.2,3.6c-1,1-2.1,2.2-3.4,3.5c-1.2,1.3-2.6,2.5-3.9,3.7
			c-0.7,0.6-1.3,1.2-2,1.9c-0.6,0.6-1.3,1.1-1.9,1.7c-0.7,0.5-1.3,0.9-2,1.3c-0.6,0.4-1.3,0.7-1.8,1c-2.3,1.2-4.1,1.5-4.1,1.5
			c-0.1-0.1-0.1-0.1-0.2-0.2c0,0,1-1.4,2.8-3.1c0.5-0.4,1-0.9,1.5-1.4s1.2-1,1.8-1.5c0.7-0.5,1.4-0.9,2.1-1.4s1.5-1,2.2-1.5
			c1.5-1.1,2.9-2.1,4.3-3.2c1.4-1.1,2.7-2.1,3.8-2.9c2.2-1.7,3.7-3,3.7-3C619.9,177.8,620,177.8,620.1,177.8z"/>
	</g>
</g>
<g id="XMLID_80_">
	<g>
		<path id="XMLID_250_" class="st1" d="M597.6,195.2c0,0,1.1-1.5,2.8-4c1.7-2.5,4.1-6,6.4-9.8c0.6-1,1.1-1.9,1.7-2.9s1.1-2,1.7-2.9
			c0.6-1,1.2-1.8,1.8-2.6c0.6-0.9,1.2-1.7,1.7-2.4c2.2-3,4-4.8,4-4.8c0.1,0.1,0.1,0.1,0.2,0.2c0,0-0.7,2.5-2.3,5.9
			c-0.4,0.8-0.8,1.7-1.3,2.7c-0.5,0.9-1,1.9-1.6,2.8c-0.6,1-1.3,1.8-2,2.8c-0.7,0.9-1.4,1.9-2,2.7c-2.7,3.6-5.4,6.8-7.5,9.1
			c-2.1,2.2-3.5,3.6-3.5,3.6C597.7,195.4,597.6,195.3,597.6,195.2z"/>
	</g>
</g>
<g id="XMLID_79_">
	<g>
		<path id="XMLID_244_" class="st1" d="M617,167.8c0,0-0.2-2.2-0.4-5.1c-0.1-1.5-0.2-3.2-0.3-5c-0.1-1.8-0.2-3.6-0.3-5.5
			c-0.1-0.9-0.1-1.8-0.2-2.7c-0.1-0.9-0.1-1.7-0.2-2.6c0-0.8,0-1.6,0.1-2.5s0.1-1.7,0.3-2.6c0.4-3,1.1-5.8,1.1-5.8
			c0.1-0.1,0.2-0.2,0.3-0.3c0,0,0.7,1.4,1.1,4.4c0.1,0.7,0.2,1.6,0.3,2.5c0.1,0.9,0.1,1.9,0.1,2.9s-0.1,2.1-0.2,3.2
			c-0.1,1.1-0.1,2.2-0.2,3.3c-0.1,2.2-0.2,4.3-0.3,6.1c-0.1,2-0.2,3.7-0.3,5.2c-0.2,3-0.4,4.7-0.4,4.7
			C617.3,168,617.2,167.8,617,167.8C617,167.7,617,167.7,617,167.8z"/>
	</g>
</g>
<g id="XMLID_77_">
	<g>
		<path id="XMLID_229_" class="st1" d="M613.8,146.1c0,0,0.1,1,0.1,2.8c0,0.9,0.1,1.8,0.1,2.9c0,1.1,0,2.2,0,3.4
			c0,1.1,0.1,2.3,0,3.4c-0.1,1.1-0.4,2-0.6,2.6c-0.3,0.7-0.6,1.2-0.9,1.5s-0.5,0.5-0.5,0.5c-0.1-0.1-0.2-0.1-0.3-0.2
			c0,0-0.1-0.3-0.3-0.8c-0.2-0.6-0.3-1.2-0.5-2c-0.1-0.8-0.2-1.6-0.1-2.5c0.1-0.9,0.5-1.8,0.7-2.7s0.4-1.9,0.6-2.9s0.4-1.9,0.6-2.8
			c0.4-1.7,0.6-2.8,0.6-2.8C613.5,146.4,613.6,146.3,613.8,146.1z"/>
	</g>
</g>
<g id="XMLID_122_">
	<g>
		<path id="XMLID_223_" class="st1" d="M540.3,304.7c0,0,0.5-0.3,1.3-1c0.4-0.3,0.8-0.6,1.3-0.9c0.5-0.4,1-0.7,1.6-1.1
			c0.5-0.4,1-0.9,1.6-1.3c0.5-0.3,1.1-0.5,1.6-0.5s1-0.1,1.3,0c0.3,0.1,0.6,0.2,0.6,0.2c0,0.1,0.1,0.2,0.1,0.3c0,0-0.1,0.2-0.2,0.6
			c-0.2,0.3-0.4,0.8-0.8,1.2c-0.4,0.4-0.8,0.9-1.3,1.1c-0.6,0.2-1.2,0.3-1.9,0.5c-0.6,0.2-1.2,0.4-1.8,0.4c-0.6,0.2-1.2,0.2-1.6,0.3
			c-1,0.1-1.6,0.3-1.6,0.3C540.4,304.8,540.4,304.7,540.3,304.7z"/>
	</g>
</g>
<g id="XMLID_121_">
	<g>
		<path id="XMLID_219_" class="st1" d="M549.6,300.1c0,0,0.1-0.4,0.4-1.1c0.1-0.3,0.3-0.6,0.5-1.1c0.2-0.4,0.4-0.8,0.6-1.2
			c0.2-0.4,0.3-0.9,0.5-1.3c0.3-0.3,0.6-0.7,1-0.8c0.4-0.1,0.7-0.3,1-0.4c0.3,0,0.5-0.1,0.5-0.1c0.1,0.1,0.1,0.1,0.2,0.2
			c0,0,0.1,0.2,0.1,0.5c0.1,0.3,0.1,0.8,0,1.2c-0.1,0.4-0.2,0.9-0.4,1.3c-0.3,0.3-0.8,0.5-1.1,0.9c-0.4,0.3-0.7,0.6-1.1,0.9
			c-0.4,0.3-0.7,0.4-1,0.6c-0.6,0.3-1,0.5-1,0.5C549.7,300.2,549.7,300.2,549.6,300.1z"/>
	</g>
</g>
<g id="XMLID_142_">
	<g>
		<path id="XMLID_215_" class="st1" d="M554.9,295c0,0-0.9,0-2.3-0.2c-0.7,0-1.5-0.1-2.4-0.2s-1.8-0.2-2.7-0.3
			c-0.9-0.1-1.9,0-2.7-0.2c-0.9-0.2-1.6-0.5-2.3-0.8c-0.6-0.3-1.2-0.6-1.5-0.9c-0.4-0.3-0.5-0.4-0.5-0.4c0-0.1,0.1-0.2,0.1-0.3
			c0,0,0.3-0.1,0.7-0.2c0.4-0.1,1.1-0.2,1.8-0.3c0.7,0,1.6-0.1,2.4,0c0.8,0.2,1.7,0.5,2.6,0.8c0.9,0.3,1.8,0.6,2.6,0.9
			s1.6,0.6,2.3,0.9c1.3,0.6,2.2,0.9,2.2,0.9C555.1,294.8,555,294.9,554.9,295z"/>
	</g>
</g>
<g id="XMLID_141_">
	<g>
		<path id="XMLID_211_" class="st1" d="M554.3,295.1c0,0,0.4-1.1,1.1-2.7c0.3-0.9,0.7-1.9,1.2-3c0.4-1.1,1-2.3,1.5-3.5
			c0.5-1.3,0.9-2.6,1.4-3.7c0.6-1.2,1.2-2.3,1.8-3.3c0.6-0.9,1.2-1.8,1.7-2.3s0.8-0.9,0.8-0.9c0.1,0,0.2,0,0.3,0c0,0,0,0.4-0.1,1.1
			c-0.1,0.7-0.2,1.7-0.5,2.8c-0.3,1.1-0.6,2.3-1.2,3.7c-0.6,1.2-1.4,2.4-2.1,3.6s-1.4,2.3-2,3.3c-0.7,1-1.3,1.9-1.8,2.7
			c-1.1,1.4-1.8,2.4-1.8,2.4C554.5,295.2,554.4,295.2,554.3,295.1z"/>
	</g>
</g>
<g id="XMLID_140_">
	<g>
		<path id="XMLID_207_" class="st1" d="M563.7,275.9c0,0-0.5-1.1-1.1-2.6c-0.3-0.8-0.7-1.6-1.1-2.5c-0.4-0.8-0.8-1.8-1.2-2.6
			c-0.4-0.9-0.9-1.6-1.2-2.4c-0.3-0.8-0.4-1.5-0.4-2.2s0-1.3,0.1-1.7c0.1-0.5,0.2-0.8,0.2-0.8c0.1-0.1,0.2-0.1,0.3-0.2
			c0,0,0.2,0.1,0.6,0.3c0.3,0.2,0.7,0.6,1.2,1.2c0.4,0.5,0.8,1.3,1.1,2.1c0.3,0.9,0.3,1.9,0.5,2.9s0.4,2,0.6,3
			c0.2,1,0.3,1.9,0.4,2.7c0.2,1.6,0.4,2.7,0.4,2.7C564,275.9,563.8,275.9,563.7,275.9z"/>
	</g>
</g>
<g id="XMLID_135_">
	<g>
		<path id="XMLID_185_" class="st1" d="M570.5,248.2c0,0-0.5-0.8-1.3-1.9c-0.4-0.6-0.8-1.2-1.3-1.9c-0.5-0.6-0.9-1.4-1.4-2
			c-0.5-0.7-1.1-1.2-1.5-1.8c-0.4-0.6-0.6-1.2-0.7-1.8c-0.1-0.5-0.1-1.1-0.1-1.4c0-0.4,0.1-0.6,0.1-0.6c0.1,0,0.2-0.1,0.3-0.1
			c0,0,0.3,0,0.6,0.2c0.4,0.1,0.8,0.3,1.3,0.8c0.5,0.3,1,0.9,1.3,1.5c0.3,0.7,0.5,1.5,0.8,2.3s0.6,1.6,0.9,2.4
			c0.3,0.8,0.5,1.5,0.7,2.2c0.4,1.3,0.6,2.3,0.6,2.3C570.7,248.3,570.6,248.2,570.5,248.2z"/>
	</g>
</g>
<g id="XMLID_134_">
	<g>
		<path id="XMLID_180_" class="st1" d="M564.4,237.1c0,0,0.1-0.4,0.3-1c0.1-0.3,0.2-0.6,0.3-1s0.3-0.7,0.4-1.1
			c0.2-0.4,0.2-0.9,0.4-1.3c0.2-0.3,0.6-0.6,0.9-0.8c0.4-0.3,0.7-0.4,1-0.4c0.3,0,0.5-0.1,0.5-0.1c0.1,0.1,0.2,0.1,0.3,0.2
			c0,0,0.1,0.2,0.2,0.5c0.1,0.3,0.1,0.6,0.1,1.1c0,0.4-0.1,0.9-0.3,1.2c-0.2,0.3-0.7,0.6-1,0.9s-0.6,0.6-1,0.9
			c-0.3,0.3-0.6,0.4-0.9,0.6c-0.5,0.3-0.9,0.5-0.9,0.5C564.6,237.3,564.5,237.2,564.4,237.1z"/>
	</g>
</g>
<g id="XMLID_133_">
	<g>
		<path id="XMLID_172_" class="st1" d="M568.2,231.9c0,0-0.3-0.5-0.7-1.1c-0.2-0.3-0.4-0.7-0.6-1s-0.4-0.7-0.7-1.1
			c-0.2-0.4-0.6-0.7-0.7-1c-0.1-0.4-0.1-0.7,0-1c0.1-0.4,0.3-0.7,0.4-0.9c0.2-0.2,0.3-0.4,0.3-0.4c0.1-0.1,0.2-0.1,0.3-0.2
			c0,0,0.2,0.1,0.5,0.1s0.6,0.2,0.9,0.4c0.3,0.3,0.5,0.6,0.6,0.9c0.1,0.4,0,1,0,1.4s0.1,1,0,1.4c0,0.4,0,0.9,0,1.2
			c0,0.8-0.1,1.2-0.1,1.2C568.3,231.8,568.3,231.8,568.2,231.9z"/>
	</g>
</g>
<g id="XMLID_144_">
	<g>
		<path id="XMLID_166_" class="st1" d="M612.7,162.8c0,0-3.6,4.2-9.1,10.2c-5.4,6-12.8,13.5-20.1,20.4c-1.8,1.7-3.6,3.5-5.4,5.1
			c-1.8,1.6-3.6,3.2-5.3,4.7c-1.8,1.5-3.5,2.8-5.1,4.1c-1.6,1.2-3.2,2.4-4.7,3.4c-5.8,4.1-10,6.3-10,6.3c-0.1-0.1-0.1-0.1-0.2-0.2
			c0,0,3.3-3.2,8.6-7.9c1.3-1.1,2.8-2.5,4.3-3.8s3.2-2.8,5-4.3c1.8-1.5,3.6-3,5.5-4.5c1.9-1.5,3.8-3.2,5.7-4.8
			c7.6-6.6,15.2-13.8,21-19.5c5.7-5.6,9.6-9.6,9.6-9.6C612.6,162.5,612.6,162.7,612.7,162.8z"/>
	</g>
</g>
<g id="XMLID_143_">
	<g>
		<path id="XMLID_164_" class="st1" d="M553.2,217.5c0,0-0.8,0.7-1.8,1.5c-0.5,0.4-1.2,0.9-1.8,1.4c-0.6,0.5-1.4,1-2,1.5
			c-0.7,0.5-1.3,1.1-2,1.5c-0.7,0.4-1.5,0.7-2.1,0.8c-0.6,0.1-1.2,0.3-1.6,0.2c-0.4,0-0.7,0-0.7,0c-0.1-0.1-0.1-0.2-0.2-0.3
			c0,0,0.1-0.3,0.3-0.7c0.2-0.4,0.5-0.9,0.9-1.4c0.4-0.5,1-1.1,1.7-1.5c0.7-0.4,1.5-0.6,2.3-1c0.8-0.4,1.6-0.7,2.3-1
			c0.7-0.3,1.6-0.7,2.2-1c1.2-0.5,2.2-0.8,2.2-0.8C553.1,217.2,553.2,217.3,553.2,217.5C553.3,217.4,553.2,217.5,553.2,217.5z"/>
	</g>
</g>
<g id="XMLID_154_">
	<g>
		<path id="XMLID_160_" class="st1" d="M540.5,287.9c0,0,0.3-0.3,0.7-0.8c0.2-0.2,0.5-0.5,0.8-0.7c0.3-0.3,0.6-0.6,0.9-0.9
			c0.3-0.3,0.6-0.7,0.9-0.9c0.3-0.2,0.7-0.3,1.1-0.3c0.4,0,0.7,0.1,1,0.1c0.3,0.1,0.4,0.2,0.4,0.2c0,0.1,0.1,0.2,0.1,0.3
			c0,0,0,0.2-0.1,0.6c0,0.3-0.2,0.7-0.3,1.1c-0.2,0.3-0.4,0.8-0.8,0.8c-0.4,0.2-0.8,0.2-1.3,0.3c-0.4,0.1-0.8,0.2-1.2,0.2
			c-0.4,0.1-0.8,0.1-1.1,0.1c-0.7,0.1-1.1,0.1-1.1,0.1C540.5,288.1,540.5,288,540.5,287.9z"/>
	</g>
</g>
<g id="XMLID_153_">
	<g>
		<path id="XMLID_159_" class="st1" d="M546.3,285.1c0,0-0.3-0.1-0.6-0.4c-0.2-0.1-0.4-0.2-0.5-0.4c-0.2-0.1-0.4-0.3-0.6-0.4
			c-0.2-0.2-0.5-0.2-0.6-0.4c-0.1-0.2,0-0.4,0.1-0.6s0.3-0.5,0.4-0.6c0.2-0.2,0.3-0.3,0.3-0.3c0.1,0,0.2-0.1,0.3-0.1
			c0,0,0.2,0,0.4,0s0.5-0.1,0.8,0c0.2,0.1,0.5,0.2,0.6,0.3c0.1,0.2-0.1,0.6-0.1,0.8c0,0.2,0,0.5,0,0.8c0,0.2-0.1,0.5-0.1,0.6
			c-0.1,0.4-0.1,0.6-0.1,0.6C546.5,285,546.4,285,546.3,285.1z"/>
	</g>
</g>
<g id="XMLID_152_">
	<g>
		<path id="XMLID_158_" class="st1" d="M545,281.9c0,0-0.2,0.3-0.6,0.7c-0.2,0.2-0.4,0.4-0.6,0.6s-0.5,0.4-0.7,0.6s-0.4,0.5-0.7,0.6
			s-0.6,0-0.8-0.1c-0.3-0.1-0.5-0.3-0.7-0.5s-0.3-0.3-0.3-0.3c0-0.1-0.1-0.2-0.1-0.3c0,0,0-0.2,0.1-0.4c0-0.3,0.1-0.5,0.3-0.7
			c0.1-0.3,0.3-0.5,0.6-0.6c0.3-0.1,0.6,0.1,0.9,0c0.3,0,0.6,0,0.9-0.1c0.3,0,0.6,0,0.8,0.1c0.5,0,0.8,0.1,0.8,0.1
			C544.9,281.7,545,281.8,545,281.9z"/>
	</g>
</g>
<path class="st2" d="M555.2,256.9c4.3-2,8.8-4.1,12-7.8c1-1.2,1.9-2.5,3.3-3c0.5,5-2.6,10.2-7.2,12.1c-2.6,1-5.8,1-7.8-1"/>
<path class="st3" d="M589.6,228.5c4.9-3.5,10.9-5.4,16.9-5.5c1.5,0,3.2,0.2,3.8,1.5c-5,3.2-10.6,5.6-16.4,7"/>
<g id="XMLID_165_">
	<g>
		<g id="XMLID_167_">
			<path id="XMLID_168_" class="st4" d="M540.3,337.3c-9.9-3-19.7-6.6-29.6-11"/>
		</g>
	</g>
</g>
<g id="XMLID_162_">
	<g>
		<path id="XMLID_163_" class="st5" d="M510.5,326.9c0,0-0.1-0.4-0.1-0.9c0-0.3-0.1-0.6-0.1-0.9s0-0.7,0-1s-0.2-0.7-0.1-1
			c0.1-0.2,0.3-0.4,0.6-0.5s0.5-0.1,0.8-0.1c0.2,0.1,0.4,0.1,0.4,0.1c0.1,0,0.2,0.1,0.3,0.1c0,0,0.1,0.1,0.3,0.3s0.4,0.4,0.5,0.7
			c0.1,0.3,0.2,0.5,0.1,0.7c-0.1,0.2-0.4,0.4-0.6,0.6c-0.2,0.3-0.4,0.5-0.6,0.7c-0.2,0.3-0.4,0.4-0.6,0.6c-0.3,0.3-0.6,0.6-0.6,0.6
			C510.7,326.9,510.6,326.9,510.5,326.9z"/>
	</g>
</g>
<g id="XMLID_157_">
	<g>
		<path id="XMLID_161_" class="st6" d="M496,279.1c0,0,1.1,3.4,2.8,8.3c1.7,4.8,3.8,11,6,16.6c0.6,1.4,1.1,2.8,1.7,4.1
			c0.6,1.2,1.1,2.5,1.6,3.7c0.5,1.3,0.8,2.4,1.2,3.5c0.4,1.1,0.6,2.1,0.9,3.1c1.1,3.9,1.4,6.5,1.4,6.5c-0.1,0.1-0.2,0.1-0.3,0.2
			c0,0-1.7-1.9-3.5-5.5c-0.5-0.9-1-1.8-1.4-2.9c-0.5-1.1-0.9-2.3-1.4-3.5c-0.5-1.3-0.9-2.6-1.3-4c-0.5-1.4-0.8-2.9-1.3-4.3
			c-1.8-5.7-3.6-12.1-4.8-17c-1.3-4.8-2.1-8.4-2.1-8.4C495.6,279.5,495.8,279.4,496,279.1z"/>
	</g>
</g>
<g id="XMLID_155_">
	<g>
		<path id="XMLID_156_" class="st6" d="M495.9,280.9c0,0,0.1-0.9,0.3-2.1c0.1-0.6,0.2-1.3,0.4-2.1c0.1-0.7,0.3-1.6,0.5-2.3
			c0.2-0.8,0.3-1.6,0.5-2.3s0.6-1.2,1-1.6c0.4-0.3,0.8-0.6,1.1-0.7c0.3-0.2,0.5-0.2,0.5-0.2c0.1,0.1,0.2,0.1,0.3,0.2
			c0,0,0.1,0.2,0.2,0.6s0.1,0.9,0.1,1.4c-0.1,0.5-0.1,1.1-0.4,1.7c-0.2,0.7-0.7,1.2-1.1,1.9s-0.7,1.4-1.1,2c-0.3,0.7-0.7,1.3-1,1.9
			c-0.6,1.1-1,1.9-1,1.9C496.1,281.2,496,281.1,495.9,280.9z"/>
	</g>
</g>
<g id="XMLID_150_">
	<g>
		<path id="XMLID_151_" class="st6" d="M499.9,271.3c0,0-0.2-1.5-0.4-3.9c-0.1-1.2-0.2-2.7-0.3-4.3c-0.1-1.6-0.2-3.3-0.3-5
			c-0.1-0.9-0.1-1.7-0.2-2.6c-0.1-0.9-0.2-1.7-0.2-2.6s0-1.7,0.1-2.4c0.1-0.7,0.2-1.4,0.3-2c0.4-2.3,1.1-3.5,1.1-3.5
			c0.1,0,0.2,0.1,0.3,0.2c0,0.1,0.7,2.3,1.1,4.7c0.2,0.7,0.2,1.3,0.3,2s0.1,1.3,0.1,2c-0.1,0.6-0.1,1.3-0.2,2
			c-0.1,0.7-0.1,1.5-0.2,2.2c-0.1,1.4-0.2,3-0.3,4.4c-0.1,1.5-0.2,2.9-0.3,4.1c-0.2,2.5-0.4,4.3-0.4,4.3
			C500.2,271,500.1,271.2,499.9,271.3z"/>
	</g>
</g>
<g id="XMLID_148_">
	<g>
		<path id="XMLID_149_" class="st6" d="M499.8,245.3c0,0-0.5-0.2-1.2-0.6c-0.4-0.2-0.8-0.4-1.3-0.8s-1-0.7-1.4-1
			c-0.5-0.4-1.2-0.7-1.6-1.1c-0.4-0.5-0.6-1-0.8-1.6c-0.1-0.5-0.2-1.1-0.3-1.4c-0.1-0.4,0-0.6,0-0.6c0.1-0.1,0.2-0.1,0.3-0.3
			c0,0,0.3,0,0.6,0.1c0.4,0,0.8,0.1,1.3,0.4c0.5,0.2,0.9,0.5,1.3,1c0.4,0.4,0.6,1,1,1.5c0.3,0.5,0.7,1,1,1.4
			c0.4,0.5,0.6,0.9,0.9,1.3c0.5,0.7,0.7,1.2,0.7,1.2C500.2,245,500,245.2,499.8,245.3z"/>
	</g>
</g>
<g id="XMLID_146_">
	<g>
		<path id="XMLID_147_" class="st6" d="M494.4,239.2c0,0-1.2,0.2-3.2,0.4c-0.9,0.1-2,0.2-3.3,0.4c-1.2,0.2-2.4,0.2-3.8,0.4
			c-1.3,0.1-2.6,0.4-3.8,0.5c-1.2,0.1-2.3,0-3.3-0.2c-1-0.2-1.8-0.4-2.3-0.7c-0.6-0.3-0.9-0.4-0.9-0.4c0-0.1,0-0.2,0-0.3
			c0,0,0.3-0.3,0.9-0.5c0.5-0.2,1.4-0.6,2.3-0.8c0.9-0.3,2.1-0.5,3.3-0.5c1.2,0.1,2.5,0.4,3.8,0.4c1.3,0.2,2.6,0.3,3.8,0.4
			s2.3,0.2,3.3,0.3C493.1,239,494.4,239.1,494.4,239.2C494.4,239.2,494.3,239.3,494.4,239.2z"/>
	</g>
</g>
<g id="XMLID_139_">
	<g>
		<path id="XMLID_145_" class="st6" d="M475,239.9c0,0-1.3-0.5-3.3-1.5c-0.9-0.6-2-1.1-3.3-1.8c-1.2-0.6-2.6-1.5-3.8-2.2
			c-1.2-0.7-2.7-1.5-3.8-2.3c-1.1-0.8-2.1-1.8-2.9-2.7c-0.7-1-1.4-1.7-1.8-2.4c-0.4-0.5-0.6-1-0.6-1c0.1-0.1,0.1-0.1,0.2-0.2
			c0,0,0.5,0.1,1.1,0.4c0.7,0.3,1.6,0.7,2.7,1.3c1,0.7,2.2,1.3,3.3,2.3c1,1,2.2,2,3.3,3c1.1,1,2.4,1.9,3.4,2.8s2.1,1.6,2.9,2.3
			c1.7,1.2,2.8,2.1,2.8,2.1C475.1,239.8,475.1,239.9,475,239.9z"/>
	</g>
</g>
<g id="XMLID_137_">
	<g>
		<path id="XMLID_138_" class="st6" d="M455,225.9c0,0,1-1.2,2.5-2.8c0.8-0.9,1.6-1.7,2.6-2.7c0.9-1,2-2,3-2.9c1-0.9,2-2,3-2.7
			c1-0.8,2.1-1.3,3-1.7c1-0.4,1.8-0.7,2.4-0.8s1-0.2,1-0.2c0.1,0.1,0.1,0.1,0.2,0.2c0,0-0.2,0.4-0.5,0.8c-0.4,0.5-0.9,1.1-1.6,1.8
			c-0.7,0.7-1.6,1.6-2.6,2.3s-2.3,1.3-3.4,2.1c-1.1,0.8-2.3,1.6-3.4,2.4c-1.1,0.7-2.1,1.4-3,2.1c-1.8,1.3-3,2.2-3,2.2
			C455.1,225.9,455.1,225.8,455,225.9z"/>
	</g>
</g>
<g id="XMLID_132_">
	<g>
		<path id="XMLID_136_" class="st6" d="M472.9,211.8c0,0,2.7,0.6,6.7,1.7c4.1,1.1,9.4,2.4,14.6,3.6c1.3,0.3,2.6,0.5,4,0.9
			s2.6,0.5,3.9,0.9c1.2,0.3,2.3,0.7,3.5,1c1,0.4,2.1,0.7,3.1,1c3.8,1.2,6.3,2.3,6.3,2.3c0,0.1-0.1,0.2-0.1,0.3c0,0-2.8,0.1-6.8-0.4
			c-1-0.1-2.1-0.3-3.2-0.5s-2.3-0.5-3.6-0.8c-1.2-0.3-2.5-0.6-3.8-1.1c-1.3-0.4-2.6-0.8-3.9-1.3c-5.1-1.7-10.3-3.4-14.2-4.9
			c-3.9-1.5-6.5-2.5-6.5-2.5C472.8,212,472.9,211.9,472.9,211.8z"/>
	</g>
</g>
<g id="XMLID_130_">
	<g>
		<path id="XMLID_131_" class="st6" d="M461.5,219.4c0,0-1.8-0.6-4.5-1.8c-1.3-0.6-3-1.3-4.7-2.1c-1.7-0.9-3.5-1.7-5.3-2.7
			c-0.9-0.4-1.8-1-2.7-1.4s-1.8-1.1-2.6-1.5c-0.8-0.5-1.6-1-2.3-1.6c-0.7-0.5-1.4-1.1-2-1.7c-2.5-2.1-3.9-4-3.9-4
			c0.1-0.1,0.1-0.1,0.2-0.2c0,0,2.2,0.7,5,2.2c0.7,0.3,1.5,0.7,2.3,1.2c0.7,0.4,1.6,1.1,2.4,1.5c0.7,0.4,1.6,1.2,2.4,1.7
			c0.8,0.5,1.7,1.2,2.5,1.7c1.7,1.2,3.4,2.3,4.9,3.2c1.6,1,3,1.9,4.3,2.7c2.5,1.5,4.2,2.4,4.2,2.4
			C461.6,219.3,461.6,219.4,461.5,219.4z"/>
	</g>
</g>
<g id="XMLID_128_">
	<g>
		<path id="XMLID_129_" class="st6" d="M434.1,203.1c0,0-1.8,0-4.6-0.2c-1.4,0.1-3.1,0-4.8-0.2c-1.7,0-3.5-0.1-5.4-0.3
			c-1-0.1-1.9-0.2-2.8-0.2c-0.9,0-1.8-0.1-2.7-0.2c-0.9,0-1.7-0.2-2.5-0.4c-0.8-0.2-1.5-0.3-2.2-0.6c-2.7-0.8-4.4-1.7-4.4-1.7
			c0-0.1,0-0.2,0-0.3c0,0,1.9-0.4,4.7-0.4c0.7,0,1.5,0,2.3,0.1c0.8,0,1.6,0.1,2.5,0.2c0.8,0.1,1.7,0.3,2.6,0.5
			c0.9,0.2,1.8,0.4,2.7,0.6c1.8,0.4,3.7,0.6,5.4,1c1.7,0.3,3.3,0.6,4.7,0.9c2.8,0.5,4.6,0.8,4.6,0.8
			C434.1,202.8,434.1,202.9,434.1,203.1z"/>
	</g>
</g>
<g id="XMLID_126_">
	<g>
		<path id="XMLID_127_" class="st6" d="M404.6,199.1c0,0-1-0.3-2.5-1c-0.7-0.3-1.6-0.7-2.5-1.2c-0.9-0.4-1.8-0.9-2.8-1.5
			c-0.9-0.6-1.9-1-2.8-1.6c-0.9-0.7-1.5-1.4-2.1-2.1c-0.5-0.7-0.9-1.3-1.2-1.9c-0.3-0.6-0.4-0.9-0.4-0.9c0.1-0.1,0.1-0.1,0.2-0.2
			c0,0,0.3,0.1,0.8,0.2c0.5,0.2,1.2,0.4,2,0.8c0.8,0.5,1.7,1,2.5,1.6c0.8,0.7,1.6,1.6,2.4,2.3c0.9,0.8,1.7,1.4,2.5,2.1
			c0.8,0.6,1.5,1.2,2.1,1.7c1.2,0.9,2,1.6,2,1.6C404.7,199.1,404.7,199.1,404.6,199.1z"/>
	</g>
</g>
<g id="XMLID_124_">
	<g>
		<path id="XMLID_125_" class="st6" d="M390.3,188.6c0,0-0.3-0.6-0.8-1.5c-0.2-0.4-0.5-1-0.8-1.7s-0.6-1.4-0.9-2.2
			c-0.3-0.7-0.7-1.6-0.9-2.4c-0.1-0.8-0.1-1.6-0.1-2.3c0.1-0.8,0.2-1.3,0.3-1.7c0.1-0.4,0.2-0.6,0.2-0.6c0.1,0,0.2,0,0.3,0
			c0,0,0.2,0.3,0.5,0.7c0.3,0.4,0.7,1,1,1.6s0.6,1.3,0.8,2c0.2,0.6,0.1,1.5,0.2,2.2c0,0.7,0.1,1.5,0.2,2.2c0,0.7,0.1,1.4,0.1,1.9
			c0.1,1.2,0.1,1.9,0.1,1.9C390.4,188.7,390.4,188.7,390.3,188.6z"/>
	</g>
</g>
<g id="XMLID_120_">
	<g>
		<path id="XMLID_123_" class="st6" d="M387.5,176.2c0,0,0.6,0.5,1.4,1.2c0.4,0.3,0.9,0.8,1.4,1.2c0.5,0.5,1.1,1,1.6,1.4
			s1.2,0.7,1.6,1.2c0.4,0.4,0.7,1,0.9,1.4c0.2,0.5,0.3,0.8,0.3,1.2c0,0.3,0,0.5,0,0.5c-0.1,0.1-0.1,0.1-0.2,0.2c0,0-0.2,0-0.6,0
			c-0.3,0-0.8-0.2-1.3-0.3c-0.4-0.3-1-0.5-1.4-1s-0.7-1.1-1.1-1.7s-0.8-1.2-1.1-1.8c-0.3-0.5-0.6-1-0.9-1.6c-0.6-1-0.9-1.7-0.9-1.7
			C387.3,176.3,387.4,176.3,387.5,176.2z"/>
	</g>
</g>
<g id="XMLID_116_">
	<g>
		<path id="XMLID_119_" class="st6" d="M394.9,184.5c0,0,0.5,0.1,1.2,0.5c0.3,0.1,0.8,0.3,1.2,0.5c0.5,0.3,0.9,0.5,1.4,0.7
			c0.4,0.2,1,0.3,1.4,0.5c0.3,0.2,0.6,0.5,0.8,0.9c0.2,0.4,0.3,0.7,0.4,1c0.1,0.2,0.1,0.4,0.1,0.4c-0.1,0.1-0.1,0.1-0.2,0.2
			c0,0-0.2,0-0.5,0.1c-0.3,0-0.7,0.1-1.1,0.1c-0.5,0-0.9,0-1.3-0.3s-0.6-0.7-1-1.1c-0.3-0.4-0.7-0.7-1-1.1c-0.4-0.3-0.7-0.8-0.9-1.1
			c-0.5-0.6-0.8-1.1-0.8-1.1C394.7,184.6,394.8,184.5,394.9,184.5z"/>
	</g>
</g>
<g id="XMLID_102_">
	<g>
		<path id="XMLID_110_" class="st6" d="M400,190.8c0-0.1,0-0.3,0-0.5c0,0,1-0.2,2.1-0.4c0.5-0.1,1.4-0.2,2.1-0.3s1.4-0.2,2.2-0.3
			c0.8,0,1.5-0.3,2.2-0.3c0.7,0,1.3,0.2,1.9,0.4c0.5,0.2,0.9,0.5,1.2,0.7c0.4,0.2,0.3,0.4,0.3,0.4c0,0.1,0,0.2,0,0.3
			c0,0,0,0.2-0.3,0.4c-0.3,0.3-0.5,0.5-1.1,0.7c-0.5,0.2-1.2,0.4-1.9,0.4s-1.4-0.2-2.2-0.3s-1.6-0.2-2.3-0.3s-1.4-0.2-2-0.3
			c-1.1-0.2-2.1-0.4-2.1-0.4S400,191,400,190.8z"/>
	</g>
</g>
<g id="XMLID_100_">
	<g>
		<path id="XMLID_101_" class="st6" d="M412.3,188c0,0-2.7-2.2-6.6-6.1c-4-3.9-9.1-9.4-14.3-15.4c-1.3-1.5-2.6-3-3.9-4.6
			c-1.3-1.5-2.5-3.1-3.7-4.6c-1.2-1.5-2.3-3.1-3.3-4.6c-1-1.6-1.9-3-2.8-4.4c-3.4-5.5-5.4-9.6-5.4-9.6c0.1-0.1,0.1-0.1,0.2-0.2
			c0,0,3.1,3.3,7.1,8.3c1,1.3,2.1,2.7,3.2,4.1c1.2,1.5,2.3,3,3.5,4.5s2.3,3,3.5,4.7c1.2,1.6,2.4,3.2,3.6,4.8
			c4.9,6.3,9.7,11.9,13.3,16.1c3.6,4.1,6,6.6,6,6.6C412.6,187.6,412.4,187.7,412.3,188z"/>
	</g>
</g>
<g id="XMLID_83_">
	<g>
		<path id="XMLID_96_" class="st6" d="M372.4,126.4c0.1-0.1,1.1,1,2.4,2.5c0.7,0.8,1.5,1.7,2.3,2.6c0.9,1,1.7,1.9,2.6,2.8
			s1.8,1.7,2.6,2.5c0.7,0.8,1.3,1.6,1.7,2.4c0.4,0.8,0.7,1.4,0.9,1.9c0.1,0.5,0.2,0.8,0.2,0.8c-0.1,0.1-0.1,0.1-0.2,0.2
			c0,0-0.3-0.1-0.8-0.3c-0.5-0.2-1.1-0.6-1.9-1.1c-0.7-0.5-1.6-1.2-2.3-2s-1.3-2-2-3c-0.7-1.1-1.5-2.1-2.1-3.2s-1.2-2.1-1.7-3
			C373,127.7,372.4,126.4,372.4,126.4S372.5,126.4,372.4,126.4z"/>
	</g>
</g>
<g id="XMLID_78_">
	<g>
		<path id="XMLID_82_" class="st6" d="M384.8,141.2c0,0-0.2-2.5-0.6-6.6c-0.4-4-0.8-10.1-1.2-16.7c-0.1-1.6-0.2-3.3-0.3-5
			c-0.1-1.6-0.2-3.3-0.3-5c0-1.6,0-3.2,0-4.6c0-1.6,0-2.9,0.1-4.1c0.2-5,0.8-7.3,0.8-7.3c0.1,0.2,0.2,0.3,0.3,0.5
			c0,0,0.8,4.5,1.3,9.3c0.2,1.2,0.3,2.5,0.4,3.8s0.2,2.6,0.2,4c0.1,1.4,0,2.7,0,4.1c-0.1,1.4-0.1,2.7-0.1,4.2c0,5.7,0,11.3-0.1,15.7
			c0,4.3-0.1,7.3-0.1,7.3C385.1,141,384.9,141.2,384.8,141.2z"/>
	</g>
</g>
<g id="XMLID_75_">
	<g>
		<path id="XMLID_76_" class="st6" d="M383.4,94.6c0,0.1,1-2.6,2.6-6.2c1.5-3.6,3.7-8.3,5.8-12.6c0.6-1.1,1.1-2.1,1.6-3.2
			s1-2.1,1.5-3c0.6-1,1.1-1.8,1.7-2.6c0.5-0.8,1.1-1.5,1.6-2.1c2-2.5,3.8-3.8,3.8-3.8c0.1,0,0.2,0.1,0.3,0.1c0,0-0.6,2-2,4.9
			c-0.4,0.8-0.8,1.6-1.2,2.4c-0.5,0.9-1,1.7-1.5,2.6s-1.2,1.8-1.8,2.8c-0.6,0.9-1.3,1.9-1.9,2.9c-2.5,4-5,8.5-7,11.9
			c-1.9,3.5-3.2,6-3.2,6C383.6,94.6,383.5,94.5,383.4,94.6z"/>
	</g>
</g>
<g id="XMLID_73_">
	<g>
		<path id="XMLID_74_" class="st6" d="M408.8,60c0,0-0.7,1.4-1.8,3.7c-0.5,1.1-1.2,2.4-1.9,3.9c-0.7,1.6-1.5,3.2-2.3,4.9
			c-0.4,0.9-0.7,1.7-1.1,2.6c-0.3,0.9-0.7,1.8-1.1,2.6c-0.4,0.9-0.9,1.6-1.3,2.4c-0.5,0.7-0.9,1.4-1.3,2.1c-1.6,2.7-3.1,4.5-3.1,4.5
			c-0.1-0.1-0.2-0.1-0.3-0.1c0,0,0.2-2.2,1.2-5.3c0.2-0.6,0.5-1.5,0.8-2.3c0.3-0.7,0.7-1.6,1.1-2.5c0.4-0.8,0.9-1.7,1.4-2.5
			c0.5-0.9,1-1.7,1.5-2.5c0.9-1.8,1.9-3.3,2.8-4.7c0.9-1.4,1.8-2.7,2.5-3.7c1.5-2.1,2.5-3.3,2.5-3.3C408.5,59.8,408.7,59.8,408.8,60
			z"/>
	</g>
</g>
<g id="XMLID_70_">
	<g>
		<path id="XMLID_72_" class="st6" d="M394.9,83.9c0,0,0.4,2.5,1.1,5.9c0.3,1.7,0.7,3.7,1.1,5.7c0.4,1.9,0.8,4,1.2,5.9
			c0.2,0.9,0.4,1.9,0.6,2.8c0.2,0.9,0.4,1.7,0.6,2.6c0.1,0.9,0.3,1.7,0.3,2.5c0.1,0.8,0.1,1.5,0.1,2.2c0.1,2.9-0.3,5-0.3,5
			c-0.1,0.1-0.2,0.1-0.3,0.2c0,0-1-1.2-1.8-3.8c-0.2-0.6-0.4-1.4-0.6-2.2c-0.2-0.7-0.4-1.6-0.5-2.6c-0.2-1-0.2-2.1-0.3-3.1
			c0-1-0.1-2.2-0.2-3.2c-0.2-2.1-0.4-4.3-0.6-6.4c-0.1-2.1-0.3-4.1-0.4-5.8c-0.3-3.5-0.4-5.9-0.4-5.9
			C394.6,83.8,394.8,83.8,394.9,83.9z"/>
	</g>
</g>
<g id="XMLID_68_">
	<g>
		<path id="XMLID_69_" class="st6" d="M399.3,118.8c0,0,1.1-1.9,2.8-4.7c0.8-1.3,1.8-3,2.9-4.6c1-1.7,2.2-3.4,3.4-5
			c0.6-0.8,1.1-1.6,1.7-2.4s1.1-1.6,1.7-2.2c0.6-0.6,1.2-1.3,1.8-1.8c0.6-0.6,1.2-1.1,1.7-1.5c2.1-1.8,3.9-2.5,3.9-2.5
			c0.1,0.1,0.1,0.1,0.2,0.2c0,0-0.7,1.6-2.3,3.9c-0.4,0.6-0.8,1.2-1.3,1.8c-0.5,0.7-1,1.4-1.6,2c-0.6,0.7-1.2,1.3-1.9,2
			c-0.6,0.6-1.3,1.4-2,2.1c-1.3,1.5-2.6,3.1-3.9,4.6s-2.5,2.9-3.5,4.2c-2,2.6-3.4,4.3-3.4,4.3C399.4,119.1,399.4,119,399.3,118.8z"
			/>
	</g>
</g>
<g id="XMLID_66_">
	<g>
		<path id="XMLID_67_" class="st6" d="M419.4,94.3c0,0.1,0.5-2,1.3-4.9c0.4-1.5,0.9-3.2,1.4-4.9s1-3.5,1.6-5.2
			c0.3-0.9,0.6-1.7,0.8-2.6c0.2-0.9,0.5-1.6,0.8-2.4c0.3-0.7,0.6-1.4,1-2c0.3-0.7,0.7-1.2,1-1.7c1.3-2.1,2.6-3,2.6-3
			c0.1,0.1,0.2,0.1,0.3,0.2c0,0-0.1,1.7-0.7,4c-0.2,0.6-0.4,1.2-0.6,1.8c-0.2,0.8-0.5,1.4-0.8,2.1c-0.3,0.7-0.7,1.4-1.1,2.2
			c-0.4,0.7-0.8,1.5-1.2,2.3c-0.7,1.5-1.5,3.3-2.2,4.9c-0.7,1.7-1.4,3.2-2,4.6c-1.2,2.7-2,4.7-2,4.7
			C419.5,94.3,419.5,94.3,419.4,94.3z"/>
	</g>
</g>
<g id="XMLID_64_">
	<g>
		<path id="XMLID_65_" class="st6" d="M430.1,68c0,0-0.1,1.8-0.4,4.6c-0.1,1.4-0.3,3.1-0.5,4.9c-0.1,1.8-0.4,3.8-0.6,5.8
			c-0.1,1.1-0.2,2.1-0.3,3.1c-0.1,1.1-0.2,2.1-0.3,3.1c-0.2,1-0.4,1.9-0.6,2.9c-0.2,0.9-0.4,1.8-0.6,2.7c-0.9,3.5-1.9,6.3-1.9,6.3
			c-0.1,0.1-0.2,0.1-0.3,0.2c0,0-0.3-2.2-0.2-5.8c0-0.9,0-1.9,0.1-2.9c0-0.9,0.2-2.1,0.3-3.2c0.1-1.1,0.4-2.2,0.6-3.3
			c0.2-1.1,0.5-2.3,0.7-3.3c0.5-2.2,0.9-4.3,1.3-6.2c0.4-1.9,0.8-3.5,1.2-4.9c0.7-2.6,1.2-4.2,1.2-4.2C429.9,67.9,430,68,430.1,68z"
			/>
	</g>
</g>
<g id="XMLID_62_">
	<g>
		<path id="XMLID_63_" class="st6" d="M424.9,101.9c0,0-0.7,1.7-1.8,4.6c-1.1,2.8-2.7,6.7-4.2,11c-0.4,1-0.7,2.1-1.1,3.2
			c-0.3,1.1-0.7,2.1-1.1,3.2c-0.4,1-0.8,2-1.3,3c-0.4,1-0.9,1.9-1.3,2.8c-1.6,3.4-3.1,5.9-3.1,5.9c-0.1,0-0.2,0-0.3,0
			c0,0,0.2-2.8,1.2-6.5c0.2-1,0.5-2,0.8-3c0.3-1,0.7-2.1,1.1-3.2c0.4-1.1,0.9-2.1,1.4-3.2c0.5-1.1,1-2.2,1.5-3.2
			c2-4.2,3.9-8,5.4-10.7c1.5-2.6,2.5-4.2,2.5-4.2C424.7,101.7,424.8,101.8,424.9,101.9z"/>
	</g>
</g>
<g id="XMLID_60_">
	<g>
		<path id="XMLID_61_" class="st6" d="M410.7,134.3c0,0,0.3-0.6,0.8-1.4c0.3-0.3,0.6-0.9,0.9-1.3c0.4-0.4,0.7-0.9,1.1-1.3
			c0.3-0.5,0.6-1,1-1.4c0.4-0.4,0.8-0.5,1.3-0.6c0.4-0.2,0.9-0.1,1.2-0.1c0.4,0.1,0.6,0.1,0.6,0.1c0.1,0.1,0.1,0.1,0.2,0.2
			c0,0,0.1,0.2,0,0.5c-0.1,0.4-0.2,0.7-0.4,1.1c-0.2,0.4-0.5,0.8-0.9,1.1s-1,0.5-1.5,0.8c-0.5,0.3-1,0.6-1.5,0.9
			c-0.4,0.3-0.9,0.6-1.3,0.8c-0.7,0.4-1.3,0.7-1.3,0.7C410.8,134.4,410.8,134.4,410.7,134.3z"/>
	</g>
</g>
<g id="XMLID_58_">
	<g>
		<path id="XMLID_59_" class="st6" d="M417.7,128.4c0,0,0.1,0.4,0.2,1.1c0,0.4,0.1,0.7,0.1,1.1c0.1,0.4,0.1,0.8,0.1,1.2
			s0.2,0.8,0.1,1.2s-0.3,0.7-0.6,1c-0.3,0.2-0.5,0.5-0.8,0.7c-0.2,0.2-0.4,0.3-0.4,0.3c-0.1,0-0.2,0-0.3,0c0,0-0.1-0.2-0.3-0.4
			s-0.4-0.5-0.5-0.9c-0.1-0.4-0.2-0.9-0.1-1.3c0.1-0.4,0.4-0.9,0.6-1.3s0.4-0.8,0.6-1.2s0.4-0.6,0.6-0.9c0.3-0.5,0.6-0.8,0.6-0.8
			C417.6,128.3,417.7,128.4,417.7,128.4z"/>
	</g>
</g>
<g id="XMLID_56_">
	<g>
		<path id="XMLID_57_" class="st6" d="M417.1,133.5c0,0,0.5,3.3,1.1,7.7c0.6,4.5,1.4,10,2.2,15c0.2,1.3,0.4,2.5,0.6,3.7
			c0.3,1.2,0.5,2.3,0.6,3.4c0.2,1.1,0.3,2.1,0.3,3.1c0.1,0.9,0.1,1.9,0.1,2.8c0.1,3.4-0.3,6.2-0.3,6.2c-0.1,0-0.2,0.1-0.3,0.2
			c0,0-1-1.5-1.8-4.9c-0.2-0.8-0.4-1.8-0.6-2.8s-0.4-2.2-0.5-3.4c-0.2-1.2-0.2-2.6-0.3-3.9c-0.1-1.4-0.1-2.7-0.2-4.1
			c-0.3-5.6-0.7-11.4-0.9-15.8c-0.2-4.4-0.3-7.4-0.3-7.4C416.9,133.4,417,133.5,417.1,133.5z"/>
	</g>
</g>
<g id="XMLID_54_">
	<g>
		<path id="XMLID_55_" class="st6" d="M421.6,175.3c0,0,0.4,0.5,1.2,1.3c0.4,0.3,0.7,0.9,1.2,1.3c0.3,0.5,0.8,1.1,1.3,1.5
			c0.4,0.5,1,0.8,1.4,1.3c0.4,0.4,0.5,1,0.7,1.4c0,0.5,0.1,0.8,0.1,1.2c0,0.3,0,0.5,0,0.5c-0.1,0.1-0.1,0.1-0.2,0.2
			c0,0-0.3,0.1-0.6-0.1c-0.4,0-0.8-0.3-1.3-0.4c-0.4-0.3-0.8-0.6-1.2-1.1c-0.3-0.5-0.5-1.2-0.7-1.8c-0.2-0.6-0.5-1.3-0.7-1.9
			c-0.2-0.5-0.5-1.3-0.6-1.7c-0.3-1-0.5-1.8-0.5-1.8C421.5,175.3,421.5,175.3,421.6,175.3z"/>
	</g>
</g>
<g id="XMLID_52_">
	<g>
		<path id="XMLID_53_" class="st6" d="M427.5,183.6c0,0,3.3,1.2,8.2,2.8s11.4,3.8,18,5.8c1.6,0.5,3.3,1,4.9,1.5
			c1.6,0.3,3.2,0.8,4.7,1.3s2.9,1,4.3,1.5c1.3,0.5,2.6,1,3.8,1.4c4.8,1.9,7.8,3.3,7.8,3.3c0,0.1-0.1,0.2-0.1,0.3
			c0,0-3.4-0.3-8.4-1.4c-1.2-0.2-2.6-0.6-4-0.9s-2.9-0.7-4.4-1.2s-3-1-4.6-1.6c-1.6-0.5-3.2-1.1-4.8-1.7c-6.4-2.4-12.8-5-17.6-7.1
			c-4.8-2.2-8-3.6-8-3.6C427.4,183.9,427.4,183.8,427.5,183.6z"/>
	</g>
</g>
<g id="XMLID_50_">
	<g>
		<path id="XMLID_51_" class="st6" d="M479.3,201.2c-0.1,0-1.6-0.9-3.8-2.5c-1.1-0.7-2.4-1.7-3.8-2.8s-2.8-2.3-4.3-3.6
			c-0.7-0.7-1.5-1.3-2.2-1.9c-0.7-0.6-1.4-1.3-2.1-1.9c-0.7-0.7-1.3-1.4-1.8-2.1c-0.6-0.7-1.1-1.3-1.5-2c-1.8-2.6-2.7-4.7-2.7-4.7
			c0.1-0.1,0.1-0.1,0.2-0.2c0,0,1.9,1.1,4.2,3.2c0.5,0.6,1.2,1.1,1.8,1.7c0.6,0.7,1.3,1.4,1.9,2c0.7,0.7,1.3,1.5,1.9,2.2
			s1.3,1.5,1.9,2.2c1.3,1.3,2.6,2.7,3.8,4c1.2,1.2,2.3,2.3,3.3,3.3C478,200,479.3,201.2,479.3,201.2S479.2,201.2,479.3,201.2z"/>
	</g>
</g>
<g id="XMLID_48_">
	<g>
		<path id="XMLID_49_" class="st6" d="M461.3,177.9c0,0,1.5,1.3,3.7,3c1.1,0.8,2.4,1.8,3.8,2.9c1.4,1.1,2.8,2.1,4.3,3.2
			c0.7,0.5,1.5,1,2.2,1.5s1.4,0.9,2.1,1.4c0.6,0.5,1.3,1,1.8,1.5s1,1,1.5,1.4c1.8,1.7,2.8,3.1,2.8,3.1c-0.1,0.1-0.1,0.1-0.2,0.2
			c0,0-1.8-0.3-4.1-1.5c-0.5-0.3-1.2-0.6-1.8-1c-0.7-0.4-1.3-0.8-2-1.3c-0.6-0.6-1.3-1.1-1.9-1.7c-0.7-0.7-1.3-1.3-2-1.9
			c-1.3-1.2-2.7-2.4-3.9-3.7c-1.3-1.3-2.4-2.5-3.4-3.5c-1.9-2.1-3.2-3.6-3.2-3.6C461.1,177.9,461.2,177.9,461.3,177.9z"/>
	</g>
</g>
<g id="XMLID_46_">
	<g>
		<path id="XMLID_47_" class="st6" d="M483.4,195.7c0,0-1.4-1.4-3.5-3.6c-2.1-2.3-4.8-5.5-7.5-9.1c-0.6-0.8-1.3-1.8-2-2.7
			c-0.7-1-1.4-1.8-2-2.8c-0.6-0.9-1.1-1.9-1.6-2.8c-0.5-1-0.9-1.9-1.3-2.7c-1.6-3.4-2.3-5.9-2.3-5.9c0.1-0.1,0.1-0.1,0.2-0.2
			c0,0,1.8,1.8,4,4.8c0.5,0.7,1.1,1.5,1.7,2.4c0.6,0.8,1.2,1.6,1.8,2.6c0.6,0.9,1.1,1.9,1.7,2.9s1.1,1.9,1.7,2.9
			c2.3,3.8,4.7,7.3,6.4,9.8c1.7,2.5,2.8,4,2.8,4C483.5,195.4,483.4,195.5,483.4,195.7z"/>
	</g>
</g>
<g id="XMLID_44_">
	<g>
		<path id="XMLID_45_" class="st6" d="M464.1,167.9c-0.2,0-0.3,0.2-0.5,0.2c0,0-0.2-1.7-0.4-4.7c-0.1-1.5-0.2-3.2-0.3-5.2
			c-0.1-1.8-0.2-3.9-0.3-6.1c-0.1-1.1-0.1-2.2-0.2-3.3c-0.1-1.1-0.2-2.2-0.2-3.2s0-2,0.1-2.9c0.1-0.9,0.2-1.8,0.3-2.5
			c0.4-3,1.1-4.4,1.1-4.4c0.1,0.1,0.2,0.2,0.3,0.3c0,0,0.7,2.8,1.1,5.8c0.2,0.9,0.2,1.7,0.3,2.6s0.1,1.7,0.1,2.5
			c-0.1,0.9-0.1,1.7-0.2,2.6s-0.1,1.8-0.2,2.7c-0.1,1.9-0.2,3.7-0.3,5.5c-0.1,1.8-0.2,3.5-0.3,5
			C464.3,165.7,464.1,167.9,464.1,167.9C464.1,167.8,464.1,167.8,464.1,167.9z"/>
	</g>
</g>
<g id="XMLID_42_">
	<g>
		<path id="XMLID_43_" class="st6" d="M467.8,146.6c0,0,0.2,1.1,0.6,2.8c0.2,0.9,0.4,1.8,0.6,2.8s0.4,2,0.6,2.9s0.6,1.8,0.7,2.7
			s0,1.7-0.1,2.5c-0.2,0.8-0.3,1.4-0.5,2c-0.2,0.5-0.3,0.8-0.3,0.8c-0.1,0.1-0.2,0.1-0.3,0.2c0,0-0.2-0.2-0.5-0.5s-0.6-0.8-0.9-1.5
			c-0.2-0.6-0.5-1.5-0.6-2.6c-0.1-1.1,0-2.3,0-3.4c0-1.2,0-2.3,0-3.4c0-1.1,0.1-2,0.1-2.9c0-1.8,0.1-2.8,0.1-2.8
			C467.5,146.4,467.6,146.5,467.8,146.6z"/>
	</g>
</g>
<g id="XMLID_40_">
	<g>
		<path id="XMLID_41_" class="st6" d="M540.6,304.9c0,0-0.6-0.2-1.6-0.3c-0.4-0.1-1-0.1-1.6-0.3c-0.6,0-1.2-0.2-1.8-0.4
			c-0.7-0.2-1.3-0.3-1.9-0.5c-0.5-0.2-0.9-0.7-1.3-1.1c-0.4-0.4-0.6-0.9-0.8-1.2c-0.1-0.4-0.2-0.6-0.2-0.6c0-0.1,0.1-0.2,0.1-0.3
			c0,0,0.3-0.1,0.6-0.2s0.8,0,1.3,0s1.1,0.2,1.6,0.5c0.6,0.4,1.1,0.9,1.6,1.3c0.6,0.4,1.1,0.7,1.6,1.1c0.5,0.3,0.9,0.6,1.3,0.9
			c0.8,0.7,1.3,1,1.3,1C540.7,304.8,540.7,304.9,540.6,304.9z"/>
	</g>
</g>
<g id="XMLID_33_">
	<g>
		<path id="XMLID_39_" class="st6" d="M531.3,300.3c0,0-0.4-0.2-1-0.5c-0.3-0.2-0.6-0.3-1-0.6c-0.4-0.3-0.7-0.6-1.1-0.9
			c-0.3-0.4-0.8-0.6-1.1-0.9c-0.2-0.4-0.3-0.9-0.4-1.3c-0.1-0.4-0.1-0.9,0-1.2c0-0.3,0.1-0.5,0.1-0.5c0.1-0.1,0.1-0.1,0.2-0.2
			c0,0,0.2,0.1,0.5,0.1c0.3,0.1,0.6,0.3,1,0.4c0.4,0.1,0.7,0.5,1,0.8c0.2,0.4,0.3,0.9,0.5,1.3c0.2,0.4,0.4,0.8,0.6,1.2
			c0.2,0.5,0.4,0.8,0.5,1.1c0.3,0.7,0.4,1.1,0.4,1.1C531.4,300.3,531.4,300.3,531.3,300.3z"/>
	</g>
</g>
<g id="XMLID_26_">
	<g>
		<path id="XMLID_27_" class="st6" d="M525.9,294.8c0,0,0.9-0.3,2.2-0.9c0.7-0.3,1.5-0.6,2.3-0.9c0.8-0.3,1.7-0.6,2.6-0.9
			c0.9-0.3,1.8-0.6,2.6-0.8c0.8-0.1,1.7,0,2.4,0c0.7,0.1,1.4,0.2,1.8,0.3s0.7,0.2,0.7,0.2c0,0.1,0.1,0.2,0.1,0.3
			c0,0-0.1,0.1-0.5,0.4c-0.3,0.3-0.9,0.6-1.5,0.9c-0.7,0.3-1.4,0.6-2.3,0.8c-0.8,0.2-1.8,0.1-2.7,0.2c-0.9,0.1-1.8,0.2-2.7,0.3
			c-0.9,0.1-1.7,0.2-2.4,0.2c-1.4,0.2-2.3,0.2-2.3,0.2C526.1,295,526,294.9,525.9,294.8z"/>
	</g>
</g>
<g id="XMLID_24_">
	<g>
		<path id="XMLID_25_" class="st6" d="M526.5,295.5c0,0-0.7-1-1.8-2.4c-0.5-0.8-1.1-1.7-1.8-2.7c-0.6-1-1.3-2.1-2-3.3
			s-1.5-2.4-2.1-3.6c-0.6-1.4-0.9-2.6-1.2-3.7c-0.3-1.1-0.4-2.1-0.5-2.8c-0.1-0.7-0.1-1.1-0.1-1.1c0.1,0,0.2,0,0.3,0
			c0,0,0.3,0.4,0.8,0.9s1.1,1.4,1.7,2.3c0.6,1,1.2,2.1,1.8,3.3c0.5,1.1,0.9,2.4,1.4,3.7c0.5,1.2,1.1,2.4,1.5,3.5
			c0.5,1.1,0.9,2.1,1.2,3c0.7,1.6,1.1,2.7,1.1,2.7C526.7,295.4,526.6,295.4,526.5,295.5z"/>
	</g>
</g>
<g id="XMLID_22_">
	<g>
		<path id="XMLID_23_" class="st6" d="M517,275.9c0,0,0.2-1.1,0.4-2.7c0.1-0.8,0.2-1.7,0.4-2.7s0.4-2,0.6-3s0.2-2,0.5-2.9
			c0.3-0.8,0.7-1.6,1.1-2.1c0.5-0.6,0.9-1,1.2-1.2c0.4-0.2,0.6-0.3,0.6-0.3c0.1,0.1,0.2,0.1,0.3,0.2c0,0,0.1,0.3,0.2,0.8
			c0.1,0.4,0.1,1,0.1,1.7s-0.1,1.4-0.4,2.2s-0.8,1.5-1.2,2.4c-0.4,0.8-0.8,1.8-1.2,2.6c-0.4,0.9-0.8,1.7-1.1,2.5
			c-0.6,1.5-1.1,2.6-1.1,2.6C517.3,276,517.1,276,517,275.9z"/>
	</g>
</g>
<g id="XMLID_20_">
	<g>
		<path id="XMLID_21_" class="st6" d="M510.3,248.5c0,0,0.2-1,0.6-2.3c0.2-0.7,0.4-1.4,0.7-2.2s0.6-1.6,0.9-2.4s0.5-1.6,0.8-2.3
			c0.3-0.6,0.8-1.2,1.3-1.5c0.5-0.5,0.9-0.7,1.3-0.8c0.3-0.2,0.6-0.2,0.6-0.2c0.1,0,0.2,0.1,0.3,0.1c0,0,0.1,0.2,0.1,0.6
			c0,0.3,0,0.9-0.1,1.4c-0.1,0.6-0.3,1.2-0.7,1.8c-0.4,0.6-1,1.1-1.5,1.8c-0.5,0.6-0.9,1.4-1.4,2c-0.5,0.7-0.9,1.3-1.3,1.9
			c-0.8,1.1-1.3,1.9-1.3,1.9C510.5,248.3,510.4,248.4,510.3,248.5z"/>
	</g>
</g>
<g id="XMLID_18_">
	<g>
		<path id="XMLID_19_" class="st6" d="M516.3,237.4c0,0-0.4-0.2-0.9-0.5c-0.3-0.2-0.6-0.3-0.9-0.6c-0.4-0.3-0.7-0.6-1-0.9
			s-0.8-0.6-1-0.9c-0.2-0.3-0.3-0.8-0.3-1.2c0-0.5,0-0.8,0.1-1.1c0.1-0.3,0.2-0.5,0.2-0.5c0.1-0.1,0.2-0.1,0.3-0.2
			c0,0,0.2,0.1,0.5,0.1s0.6,0.1,1,0.4c0.3,0.2,0.7,0.5,0.9,0.8c0.2,0.4,0.2,0.9,0.4,1.3c0.1,0.4,0.3,0.7,0.4,1.1s0.2,0.7,0.3,1
			c0.2,0.6,0.3,1,0.3,1C516.5,237.3,516.4,237.4,516.3,237.4z"/>
	</g>
</g>
<g id="XMLID_16_">
	<g>
		<path id="XMLID_17_" class="st6" d="M512.7,231.9c0,0-0.1-0.4-0.1-1.2c0-0.3,0-0.8,0-1.2c-0.1-0.4,0-1,0-1.4s-0.1-1,0-1.4
			c0.1-0.3,0.3-0.6,0.6-0.9c0.3-0.2,0.6-0.4,0.9-0.4s0.5-0.1,0.5-0.1c0.1,0.1,0.2,0.1,0.3,0.2c0,0,0.1,0.2,0.3,0.4
			c0.1,0.2,0.3,0.5,0.4,0.9c0.1,0.3,0.1,0.6,0,1c-0.1,0.3-0.5,0.6-0.7,1c-0.3,0.4-0.5,0.8-0.7,1.1s-0.4,0.7-0.6,1
			c-0.4,0.6-0.7,1.1-0.7,1.1C512.8,231.9,512.8,231.9,512.7,231.9z"/>
	</g>
</g>
<g id="XMLID_14_">
	<g>
		<path id="XMLID_15_" class="st6" d="M468.6,162.5c0,0,3.9,4,9.6,9.6c5.8,5.7,13.4,12.9,21,19.5c1.9,1.6,3.8,3.3,5.7,4.8
			s3.7,3,5.5,4.5c1.8,1.5,3.5,3,5,4.3s3,2.7,4.3,3.8c5.3,4.7,8.6,7.9,8.6,7.9c-0.1,0.1-0.1,0.1-0.2,0.2c0,0-4.2-2.2-10-6.3
			c-1.5-1-3.1-2.2-4.7-3.4c-1.6-1.3-3.3-2.6-5.1-4.1c-1.7-1.5-3.5-3.1-5.3-4.7s-3.6-3.4-5.4-5.1c-7.3-6.9-14.7-14.4-20.1-20.4
			c-5.5-6-9.1-10.2-9.1-10.2C468.5,162.8,468.5,162.6,468.6,162.5z"/>
	</g>
</g>
<g id="XMLID_8_">
	<g>
		<path id="XMLID_13_" class="st6" d="M527.9,217.6c0-0.2,0.1-0.3,0.3-0.7c0,0,1,0.3,2.2,0.8c0.7,0.3,1.5,0.7,2.2,1
			c0.7,0.3,1.5,0.7,2.3,1c0.8,0.5,1.6,0.6,2.3,1c0.7,0.4,1.3,1,1.7,1.5c0.4,0.5,0.7,1,0.9,1.4c0.2,0.4,0.3,0.7,0.3,0.7
			c-0.1,0.1-0.1,0.2-0.2,0.3c0,0-0.3,0.1-0.7,0c-0.4,0.1-1,0-1.6-0.2c-0.6-0.1-1.4-0.4-2.1-0.8s-1.3-1-2-1.5c-0.6-0.5-1.4-1-2-1.5
			c-0.6-0.5-1.4-1-1.8-1.4C528.7,218.4,527.9,217.6,527.9,217.6S527.8,217.6,527.9,217.6z"/>
	</g>
</g>
<g id="XMLID_6_">
	<g>
		<path id="XMLID_7_" class="st6" d="M540.6,288.2c0,0-0.4,0-1.1-0.1c-0.3,0-0.7,0-1.1-0.1c-0.4,0-0.8-0.1-1.2-0.2
			c-0.5-0.1-0.9-0.1-1.3-0.3c-0.4,0-0.6-0.5-0.8-0.8c-0.1-0.4-0.3-0.8-0.3-1.1c-0.1-0.4-0.1-0.6-0.1-0.6c0-0.1,0.1-0.2,0.1-0.3
			c0,0,0.1-0.1,0.4-0.2c0.3,0,0.6-0.1,1-0.1c0.4,0,0.8,0.1,1.1,0.3c0.3,0.2,0.6,0.6,0.9,0.9s0.6,0.6,0.9,0.9
			c0.3,0.2,0.6,0.5,0.8,0.7c0.4,0.5,0.7,0.8,0.7,0.8C540.6,288.1,540.6,288.2,540.6,288.2z"/>
	</g>
</g>
<g id="XMLID_4_">
	<g>
		<path id="XMLID_5_" class="st6" d="M534.5,285.1c0,0,0-0.2-0.1-0.6c0-0.1-0.1-0.4-0.1-0.6c0-0.3,0-0.6,0-0.8
			c0-0.2-0.2-0.6-0.1-0.8c0.1-0.1,0.4-0.2,0.6-0.3c0.3-0.1,0.6,0,0.8,0s0.4,0,0.4,0c0.1,0,0.2,0.1,0.3,0.1c0,0,0.1,0.1,0.3,0.3
			c0.1,0.1,0.3,0.4,0.4,0.6c0.1,0.2,0.2,0.4,0.1,0.6c-0.1,0.2-0.4,0.2-0.6,0.4c-0.2,0.1-0.4,0.3-0.6,0.4c-0.1,0.2-0.3,0.3-0.5,0.4
			c-0.3,0.3-0.6,0.4-0.6,0.4C534.7,285.1,534.6,285.1,534.5,285.1z"/>
	</g>
</g>
<g id="XMLID_1_">
	<g>
		<path id="XMLID_3_" class="st6" d="M536.2,281.7c0,0,0.3-0.1,0.8-0.1c0.2-0.1,0.5-0.1,0.8-0.1c0.3,0.1,0.6,0.1,0.9,0.1
			c0.3,0.1,0.6-0.1,0.9,0s0.5,0.3,0.6,0.6c0.2,0.2,0.3,0.4,0.3,0.7c0.1,0.2,0.1,0.4,0.1,0.4c0,0.1-0.1,0.2-0.1,0.3
			c0,0-0.1,0.1-0.3,0.3s-0.4,0.4-0.7,0.5c-0.2,0.1-0.5,0.2-0.8,0.1s-0.5-0.4-0.7-0.6s-0.5-0.4-0.7-0.6s-0.4-0.4-0.6-0.6
			c-0.4-0.4-0.6-0.7-0.6-0.7C536.1,281.9,536.2,281.8,536.2,281.7z"/>
	</g>
</g>
<path class="st2" d="M525.9,257c-4.3-2-8.8-4.1-12-7.8c-1-1.2-1.9-2.5-3.3-3c-0.5,5,2.6,10.2,7.2,12.1c2.6,1,5.8,1,7.8-1"/>
<path class="st7" d="M491.4,228.6c-4.9-3.5-10.9-5.4-16.9-5.5c-1.5,0-3.2,0.2-3.8,1.5c5,3.2,10.6,5.6,16.4,7"/>
</svg>
