<?xml version="1.0" encoding="utf-8"?>
<!-- Generator: Adobe Illustrator 19.0.0, SVG Export Plug-In . SVG Version: 6.00 Build 0)  -->
<svg version="1.1" id="Layer_1" xmlns="http://www.w3.org/2000/svg" xmlns:xlink="http://www.w3.org/1999/xlink" x="0px" y="0px"
	 viewBox="0 0 960 560" style="enable-background:new 0 0 960 560;" xml:space="preserve">
<style type="text/css">
	.st0{fill:none;stroke:#FFFFFF;stroke-width:4;stroke-miterlimit:10;}
	.st1{fill:#FFFFFF;}
	.st2{fill:none;stroke:#000000;stroke-width:4;stroke-miterlimit:10;}
	.st3{fill:none;}
</style>
<g id="XMLID_3_">
	<g id="XMLID_18_">
	</g>
	<g id="XMLID_20_">
		<line id="XMLID_22_" class="st0" x1="450.9" y1="468.5" x2="493" y2="484.2"/>
	</g>
</g>
<g id="XMLID_15_">
	<line id="XMLID_1045_" class="st1" x1="450.9" y1="468.5" x2="453.1" y2="462.5"/>
	<path id="XMLID_1044_" class="st1" d="M450.7,468.4c0,0-0.1,0-0.2-0.1c-0.1-0.1-0.2-0.2-0.4-0.4c-0.3-0.3-0.7-0.7-1-1.1
		c-0.3-0.4-0.5-0.9-0.6-1.3c-0.1-0.2-0.1-0.4-0.1-0.6c0-0.2,0.1-0.4,0.1-0.6c0.1-0.2,0.2-0.4,0.3-0.5c0.1-0.2,0.3-0.3,0.5-0.4
		c0.4-0.3,0.8-0.5,1.3-0.6c0.5-0.1,1-0.4,1.5-0.5c0.2,0,0.4-0.3,0.5-0.3c0.1,0,0.2,0,0.2,0l0.4,0.4c0,0-0.1,0.5-0.2,1.1
		c-0.2,0.6-0.4,1.4-0.7,2.1c-0.3,0.7-0.6,1.5-0.8,2c-0.3,0.5-0.4,0.9-0.4,0.9L450.7,468.4z"/>
</g>
<g id="XMLID_17_">
	<line id="XMLID_1042_" class="st1" x1="429.1" y1="397.7" x2="453.1" y2="462.5"/>
	<path id="XMLID_1041_" class="st1" d="M429.3,397.7c0,0,0.2,0.2,0.5,0.7c0.3,0.4,0.7,1.1,1.2,1.9c0.5,0.8,1.1,1.8,1.8,3
		c0.7,1.2,1.4,2.5,2.1,3.9c0.8,1.4,1.6,3,2.4,4.7c0.8,1.7,1.7,3.4,2.5,5.3c0.8,1.9,1.7,3.8,2.4,5.8c0.8,2,1.6,4,2.3,6
		c0.7,2,1.4,4.1,2.1,6.1c0.7,2,1.3,4,1.9,6c0.6,1.9,1.1,3.8,1.6,5.6c0.5,1.8,0.9,3.5,1.3,5.1c0.4,1.6,0.7,3.1,0.9,4.4
		c0.3,1.3,0.4,2.5,0.6,3.4c0.2,0.9,0.2,1.7,0.3,2.2c0.1,0.5,0.1,0.8,0.1,0.8l-0.4,0.1c0,0-1.5-4-3.8-10.1
		c-2.3-6.1-5.3-14.2-8.3-22.2c-3-8.1-5.9-16.2-8.1-22.3c-2.2-6.1-3.6-10.2-3.6-10.2L429.3,397.7z"/>
</g>
<g id="XMLID_19_">
	<line id="XMLID_1039_" class="st1" x1="429.1" y1="397.7" x2="435.3" y2="381.5"/>
	<path id="XMLID_1038_" class="st1" d="M429,397.7c0,0,0-0.1-0.1-0.3c-0.1-0.2-0.2-0.4-0.3-0.7c-0.2-0.6-0.4-1.4-0.5-2.3
		c-0.1-0.9-0.1-1.9,0-3c0.1-0.5,0.2-1,0.3-1.6c0.1-0.5,0.3-1,0.5-1.5c0.2-0.5,0.4-1,0.7-1.5c0.2-0.5,0.5-0.9,0.8-1.4
		c0.6-0.9,1.3-1.6,2-2.2c0.7-0.6,1.4-1.1,1.9-1.4c0.2-0.2,0.5-0.3,0.6-0.3c0.2-0.1,0.3-0.1,0.3-0.1l0.4,0.1c0,0-0.1,0.3-0.2,0.7
		c-0.2,0.4-0.3,1.1-0.6,1.9c-0.6,1.5-1.3,3.6-2,5.6c-0.8,2-1.6,4-2.2,5.5c-0.3,0.8-0.6,1.4-0.8,1.8c-0.2,0.4-0.3,0.7-0.3,0.7
		L429,397.7z"/>
</g>
<g id="XMLID_21_">
	<line id="XMLID_1036_" class="st1" x1="434" y1="382" x2="434" y2="345"/>
	<path id="XMLID_1035_" class="st1" d="M433.8,382c0,0-0.1-0.1-0.2-0.4c-0.1-0.3-0.3-0.6-0.5-1.1c-0.2-0.5-0.4-1.1-0.6-1.8
		c-0.2-0.7-0.5-1.5-0.7-2.3c-0.2-0.9-0.4-1.8-0.6-2.8c-0.2-1-0.3-2-0.5-3.1c-0.1-1.1-0.2-2.2-0.3-3.3c-0.1-1.1-0.1-2.3-0.1-3.4
		c0-1.1,0-2.3,0.1-3.4c0.1-1.1,0.2-2.2,0.3-3.3c0.1-1.1,0.3-2.1,0.5-3.1c0.2-1,0.4-1.9,0.6-2.8c0.2-0.9,0.4-1.6,0.6-2.3
		c0.2-0.7,0.4-1.3,0.6-1.8c0.2-0.5,0.4-1.1,0.5-1.3c0.1-0.3,0.2-0.6,0.2-0.6h0.4c0,0,0,0.7,0,1.8c0,1,0.1,2.5,0.1,4.2
		c0,3.4,0.1,8.1,0.1,12.7c0,4.6-0.1,9.2-0.1,12.6c0,1.7-0.1,3.1-0.1,4.1c0,1,0,1.6,0,1.6H433.8z"/>
</g>
<g id="XMLID_12_">
	<g id="XMLID_6_">
	</g>
	<g id="XMLID_7_">
		<line id="XMLID_8_" class="st2" x1="536.9" y1="468.5" x2="494.6" y2="484.2"/>
	</g>
</g>
<g id="XMLID_11_">
	<path id="XMLID_1033_" d="M536.6,469c0,0-0.1,0-0.2,0c-0.1,0-0.3-0.2-0.5-0.3c-0.4,0-1-0.2-1.5-0.3c-0.5-0.1-1-0.4-1.3-0.6
		c-0.2-0.1-0.3-0.3-0.5-0.5c-0.1-0.2-0.2-0.4-0.3-0.5c-0.1-0.2-0.1-0.4-0.1-0.6c0-0.2,0-0.4,0.1-0.6c0.1-0.4,0.3-0.9,0.6-1.3
		c0.3-0.4,0.7-0.8,1-1.1c0.1-0.1,0.3-0.3,0.4-0.4c0.1-0.1,0.2-0.1,0.2-0.1l0.4-0.1c0,0,0.2,0.4,0.4,0.9c0.3,0.5,0.5,1.3,0.8,2
		c0.3,0.7,0.5,1.5,0.7,2.1c0.2,0.6,0.2,1.2,0.2,1.2L536.6,469z"/>
</g>
<g id="XMLID_10_">
	<path id="XMLID_1031_" d="M558.9,397.8c0,0,0,0.3-0.1,0.8c-0.1,0.5-0.1,1.3-0.3,2.2c-0.2,1-0.3,2.1-0.6,3.4
		c-0.3,1.3-0.5,2.8-0.9,4.4c-0.4,1.6-0.8,3.3-1.3,5.1c-0.5,1.8-1,3.7-1.6,5.6c-0.6,1.9-1.2,4-1.9,6c-0.7,2-1.4,4-2.1,6.1
		c-0.8,2-1.6,4-2.4,6c-0.8,2-1.7,3.9-2.4,5.8c-0.8,1.9-1.7,3.6-2.5,5.3c-0.8,1.7-1.6,3.3-2.4,4.7c-0.7,1.5-1.5,2.8-2.1,3.9
		c-0.6,1.2-1.3,2.2-1.8,3c-0.5,0.8-0.9,1.5-1.2,1.9c-0.3,0.4-0.5,0.7-0.5,0.7l-0.4-0.1c0,0,1.5-4.1,3.7-10.2
		c2.2-6.1,5.2-14.2,8.2-22.3c3-8.1,6.1-16.2,8.3-22.2c2.3-6.1,3.9-10.1,3.9-10.1L558.9,397.8z"/>
</g>
<g id="XMLID_9_">
	<path id="XMLID_1029_" d="M558.5,397.8c0,0-0.1,0-0.3-0.1c-0.1-0.1-0.4-0.2-0.6-0.3c-0.5-0.3-1.2-0.8-1.9-1.4
		c-0.7-0.6-1.4-1.4-2-2.2c-0.3-0.4-0.6-0.9-0.8-1.4c-0.3-0.5-0.5-1-0.7-1.5c-0.2-0.5-0.4-1-0.5-1.5c-0.1-0.5-0.2-1-0.3-1.6
		c-0.1-1-0.1-2.1,0-3c0.1-0.9,0.3-1.7,0.5-2.3c0.1-0.3,0.2-0.5,0.2-0.7c0.1-0.2,0.1-0.3,0.1-0.3l0.4-0.1c0,0,0.1,0.2,0.3,0.7
		c0.2,0.4,0.5,1.1,0.8,1.8c0.6,1.5,1.4,3.5,2.2,5.5c0.7,2,1.5,4.1,2,5.6c0.3,0.8,0.5,1.4,0.6,1.9c0.1,0.5,0.2,0.7,0.2,0.7
		L558.5,397.8z"/>
</g>
<g id="XMLID_2_">
	<path id="XMLID_1027_" d="M551.1,382c0,0-0.1-0.1-0.2-0.4c-0.1-0.3-0.3-0.6-0.5-1.1c-0.2-0.5-0.4-1.1-0.6-1.8
		c-0.2-0.7-0.5-1.5-0.7-2.3c-0.2-0.9-0.4-1.8-0.6-2.8c-0.2-1-0.3-2-0.5-3.1c-0.1-1.1-0.2-2.2-0.3-3.3c-0.1-1.1-0.1-2.3-0.1-3.4
		c0-1.1,0-2.3,0.1-3.4c0.1-1.1,0.2-2.2,0.3-3.3c0.1-1.1,0.3-2.1,0.5-3.1c0.2-1,0.4-1.9,0.6-2.8c0.2-0.9,0.4-1.6,0.6-2.3
		c0.2-0.7,0.4-1.3,0.6-1.8c0.2-0.5,0.4-1.1,0.5-1.3c0.1-0.3,0.2-0.6,0.2-0.6h0.4c0,0,0,0.7,0,1.8c0,1,0.1,2.5,0.1,4.2
		c0,3.4,0.1,8.1,0.1,12.7c0,4.6-0.1,9.2-0.1,12.6c0,1.7-0.1,3.1-0.1,4.1c0,1,0,1.6,0,1.6H551.1z"/>
</g>
<g id="XMLID_23_">
	<line id="XMLID_1025_" class="st1" x1="435.1" y1="346.4" x2="427.5" y2="334.9"/>
	<path id="XMLID_1024_" class="st1" d="M434.9,346.5c0,0-0.1,0-0.2,0c-0.1,0-0.4,0-0.6-0.1c-0.5-0.1-1.2-0.3-1.9-0.6
		c-0.7-0.3-1.4-0.7-2.1-1.3c-0.3-0.3-0.6-0.6-0.9-0.9c-0.3-0.3-0.5-0.7-0.8-1c-0.2-0.4-0.4-0.7-0.6-1.1c-0.2-0.4-0.3-0.8-0.4-1.2
		c-0.2-0.8-0.3-1.6-0.3-2.4c0-0.8,0.1-1.5,0.2-2c0-0.3,0.1-0.5,0.2-0.6c0.1-0.2,0.1-0.2,0.1-0.2l0.3-0.2c0,0,0.5,0.7,1.3,1.7
		c0.8,1.1,1.7,2.5,2.7,3.9c0.9,1.4,1.9,2.9,2.5,4c0.7,1.1,1.1,1.9,1.1,1.9L434.9,346.5z"/>
</g>
<g id="XMLID_24_">
	<line id="XMLID_1022_" class="st1" x1="427.5" y1="334.9" x2="398.7" y2="338.5"/>
	<path id="XMLID_1021_" class="st1" d="M427.6,335.1c0,0-0.1,0.1-0.3,0.2c-0.2,0.1-0.5,0.4-0.9,0.6c-0.7,0.5-1.8,1.1-3.1,1.7
		c-1.3,0.6-2.8,1.2-4.5,1.6c-0.8,0.2-1.7,0.4-2.6,0.6c-0.9,0.2-1.8,0.3-2.7,0.4c-0.9,0.1-1.8,0.2-2.7,0.2c-0.9,0.1-1.8,0.1-2.6,0
		c-1.7,0-3.3-0.2-4.8-0.5c-1.4-0.3-2.6-0.6-3.4-0.9c-0.4-0.1-0.8-0.3-1-0.4c-0.2-0.1-0.3-0.2-0.3-0.2l0-0.4c0,0,0.4-0.1,1.2-0.2
		c0.8-0.1,1.9-0.3,3.3-0.5c2.7-0.4,6.3-0.8,9.9-1.3c3.6-0.4,7.2-0.8,9.9-1.1c1.4-0.2,2.5-0.3,3.3-0.3c0.8-0.1,1.2-0.1,1.2-0.1
		L427.6,335.1z"/>
</g>
<g id="XMLID_25_">
	<line id="XMLID_1019_" class="st1" x1="398.7" y1="338.5" x2="371.8" y2="317.4"/>
	<path id="XMLID_1018_" class="st1" d="M398.5,338.7c0,0-0.1,0-0.4-0.1c-0.3-0.1-0.7-0.1-1.2-0.3c-1-0.3-2.3-0.7-3.8-1.4
		c-1.5-0.7-3.2-1.5-5-2.6c-0.9-0.5-1.7-1.1-2.6-1.7c-0.9-0.6-1.7-1.2-2.6-1.9c-0.8-0.7-1.7-1.3-2.4-2c-0.8-0.7-1.5-1.4-2.3-2.1
		c-1.4-1.4-2.7-2.9-3.7-4.2c-1-1.3-1.8-2.5-2.3-3.4c-0.3-0.4-0.4-0.8-0.6-1c-0.1-0.3-0.2-0.4-0.2-0.4l0.2-0.3c0,0,0.4,0.3,1.2,0.9
		c0.7,0.6,1.8,1.3,3.1,2.3c2.5,2,5.9,4.6,9.3,7.2c3.3,2.7,6.7,5.3,9.2,7.3c1.3,1,2.3,1.9,3,2.4c0.7,0.6,1.1,0.9,1.1,0.9L398.5,338.7
		z"/>
</g>
<g id="XMLID_26_">
	<line id="XMLID_1016_" class="st1" x1="371.8" y1="316.5" x2="396.7" y2="296.9"/>
	<path id="XMLID_1015_" class="st1" d="M371.6,316.4c0,0,0.1-0.1,0.2-0.4c0.1-0.2,0.3-0.6,0.5-1c0.4-0.8,1.1-2,2-3.2
		c0.9-1.3,2-2.6,3.3-4c0.7-0.7,1.3-1.4,2.1-2c0.7-0.7,1.5-1.3,2.3-1.9c0.8-0.6,1.6-1.2,2.4-1.7c0.8-0.6,1.6-1.1,2.4-1.5
		c1.6-1,3.2-1.7,4.6-2.3c1.4-0.6,2.7-1,3.6-1.2c0.4-0.1,0.8-0.2,1.1-0.2c0.3,0,0.4-0.1,0.4-0.1l0.2,0.3c0,0-0.4,0.3-1.1,0.9
		c-0.7,0.5-1.6,1.4-2.8,2.3c-2.3,1.9-5.4,4.3-8.5,6.8c-3.1,2.4-6.3,4.9-8.6,6.7c-1.2,0.9-2.2,1.6-2.9,2.2c-0.7,0.5-1.1,0.8-1.1,0.8
		L371.6,316.4z"/>
</g>
<g id="XMLID_27_">
	<line id="XMLID_1013_" class="st1" x1="397.6" y1="296.9" x2="455.2" y2="316.5"/>
	<path id="XMLID_1012_" class="st1" d="M397.6,296.7c0,0,0.2,0,0.7,0c0.5,0,1.1,0.1,2,0.2c0.8,0.1,1.9,0.2,3,0.4
		c1.2,0.2,2.5,0.4,3.9,0.6c1.4,0.3,3,0.5,4.6,0.9c1.6,0.4,3.3,0.7,5,1.2c1.7,0.5,3.5,0.9,5.3,1.5c1.8,0.5,3.6,1.1,5.4,1.7
		c1.8,0.6,3.6,1.3,5.3,1.9c1.8,0.6,3.5,1.4,5.1,2.1c1.7,0.7,3.2,1.4,4.7,2.1c1.5,0.7,2.9,1.4,4.2,2c1.3,0.6,2.5,1.3,3.5,1.9
		c1,0.6,1.9,1.1,2.6,1.6c0.7,0.4,1.3,0.8,1.7,1.1c0.4,0.3,0.6,0.4,0.6,0.4l-0.1,0.4c0,0-3.6-1.2-9-3c-5.4-1.8-12.6-4.2-19.8-6.7
		c-7.2-2.5-14.4-5-19.8-6.8c-5.4-1.9-9-3.2-9-3.2L397.6,296.7z"/>
</g>
<g id="XMLID_32_">
	<path id="XMLID_1010_" d="M552.1,346.3c0,0,0-0.1-0.1-0.2c0-0.1-0.1-0.4-0.2-0.6c-0.1-0.5-0.2-1.2-0.2-2c0-0.8,0.1-1.6,0.3-2.4
		c0.1-0.4,0.3-0.8,0.4-1.2c0.2-0.4,0.4-0.8,0.6-1.1c0.3-0.3,0.5-0.7,0.8-1c0.3-0.3,0.6-0.6,0.9-0.9c0.7-0.5,1.4-1,2.1-1.3
		c0.7-0.3,1.4-0.5,1.9-0.6c0.2-0.1,0.5-0.1,0.6-0.1c0.2,0,0.2,0,0.2,0l0.3,0.2c0,0-0.4,0.8-1.1,1.9c-0.7,1.1-1.6,2.6-2.5,4
		c-1,1.4-1.9,2.9-2.7,3.9c-0.8,1.1-1.3,1.7-1.3,1.7L552.1,346.3z"/>
</g>
<g id="XMLID_31_">
	<path id="XMLID_1008_" d="M559.9,334.7c0,0,0.1-0.1,0.3-0.2c0.2-0.1,0.6-0.2,1-0.4c0.8-0.3,2-0.6,3.4-0.9c1.4-0.3,3-0.4,4.8-0.5
		c0.9,0,1.8,0,2.7,0c0.9,0,1.8,0.1,2.7,0.2c0.9,0.1,1.8,0.3,2.7,0.4c0.9,0.2,1.7,0.4,2.6,0.6c1.7,0.5,3.2,1,4.5,1.6
		c1.3,0.6,2.4,1.2,3.1,1.7c0.4,0.2,0.7,0.5,0.9,0.6c0.2,0.2,0.3,0.2,0.3,0.2l0,0.4c0,0-0.5,0-1.2-0.1c-0.8-0.1-1.9-0.2-3.3-0.3
		c-2.7-0.3-6.3-0.7-10-1.1c-3.6-0.5-7.2-1-10-1.3c-1.4-0.2-2.5-0.4-3.3-0.5c-0.8-0.1-1.2-0.2-1.2-0.2L559.9,334.7z"/>
</g>
<g id="XMLID_30_">
	<path id="XMLID_1006_" d="M588.7,338.4c0,0,0.1-0.1,0.2-0.4c0.1-0.2,0.3-0.6,0.6-1c0.5-0.9,1.3-2.1,2.3-3.4c1-1.3,2.3-2.8,3.7-4.2
		c0.7-0.7,1.5-1.4,2.3-2.1c0.8-0.7,1.6-1.4,2.5-2c0.9-0.6,1.7-1.3,2.6-1.9c0.9-0.6,1.7-1.2,2.6-1.7c1.7-1,3.4-1.9,5-2.5
		c1.5-0.6,2.9-1.1,3.9-1.4c0.5-0.2,0.9-0.2,1.2-0.3c0.3-0.1,0.4-0.1,0.4-0.1l0.2,0.3c0,0-0.4,0.3-1.1,0.9c-0.7,0.6-1.8,1.5-3,2.4
		c-2.5,2-5.9,4.7-9.2,7.3c-3.4,2.6-6.8,5.2-9.3,7.2c-1.3,1-2.4,1.8-3.1,2.3c-0.8,0.6-1.2,0.9-1.2,0.9L588.7,338.4z"/>
</g>
<g id="XMLID_29_">
	<path id="XMLID_1004_" d="M615.7,316.7c0,0-0.1,0-0.4-0.1c-0.3-0.1-0.6-0.1-1.1-0.2c-0.9-0.2-2.2-0.6-3.6-1.2
		c-1.4-0.6-3-1.4-4.7-2.3c-0.8-0.5-1.6-1-2.4-1.5c-0.8-0.5-1.6-1.2-2.4-1.8c-0.8-0.6-1.5-1.2-2.3-1.9c-0.7-0.6-1.4-1.3-2.1-2
		c-1.3-1.3-2.5-2.7-3.4-4c-0.9-1.3-1.6-2.4-2-3.2c-0.2-0.4-0.4-0.8-0.5-1c-0.1-0.2-0.2-0.4-0.2-0.4l0.2-0.3c0,0,0.4,0.3,1.1,0.8
		c0.7,0.5,1.7,1.3,2.9,2.2c2.4,1.8,5.5,4.2,8.7,6.7c3.1,2.5,6.2,5,8.5,6.8c1.2,0.9,2.1,1.7,2.8,2.3c0.7,0.6,1.1,0.9,1.1,0.9
		L615.7,316.7z"/>
</g>
<g id="XMLID_28_">
	<path id="XMLID_1002_" d="M590,297.1c0,0-0.2,0.1-0.6,0.4c-0.4,0.2-1,0.6-1.7,1.1c-0.7,0.4-1.6,1-2.7,1.6c-1.1,0.6-2.2,1.2-3.6,1.9
		c-1.3,0.7-2.7,1.4-4.3,2c-1.5,0.7-3.1,1.4-4.8,2.1c-1.7,0.7-3.4,1.4-5.2,2.1c-1.8,0.7-3.6,1.3-5.5,1.9c-1.8,0.6-3.7,1.2-5.5,1.7
		c-1.8,0.6-3.7,1-5.4,1.5c-1.7,0.5-3.5,0.9-5.1,1.2c-1.6,0.4-3.2,0.7-4.6,0.9c-1.4,0.3-2.8,0.5-4,0.6c-1.2,0.2-2.2,0.3-3.1,0.4
		c-0.9,0.1-1.6,0.1-2,0.2c-0.5,0-0.7,0-0.7,0l-0.1-0.4c0,0,3.7-1.3,9.2-3.2c5.5-1.9,12.9-4.3,20.2-6.8c7.4-2.4,14.7-4.8,20.3-6.7
		c5.5-1.8,9.2-3,9.2-3L590,297.1z"/>
</g>
<g id="XMLID_41_">
	<path id="XMLID_999_" class="st1" d="M378.2,276.2"/>
</g>
<g id="XMLID_40_">
	<path id="XMLID_996_" class="st1" d="M393.9,296.9"/>
</g>
<g id="XMLID_116_">
	<path id="XMLID_993_" class="st1" d="M378.2,276.2"/>
</g>
<g id="XMLID_115_">
	<path id="XMLID_990_" class="st3" d="M415.9,144.5"/>
</g>
<g id="XMLID_35_">
	<path id="XMLID_987_" class="st3" d="M420.3,143.4"/>
</g>
<g id="XMLID_34_">
	<path id="XMLID_984_" class="st3" d="M415.9,144.5"/>
</g>
<g id="XMLID_114_">
	<path id="XMLID_981_" class="st3" d="M420.3,143.4"/>
</g>
<g id="XMLID_110_">
	<path id="XMLID_978_" class="st1" d="M474.5,296.9"/>
</g>
<g id="XMLID_38_">
	<path id="XMLID_975_" class="st3" d="M592.2,296.9"/>
</g>
<g id="XMLID_112_">
	<path id="XMLID_972_" class="st3" d="M570.4,144.5"/>
</g>
<g id="XMLID_37_">
	<path id="XMLID_969_" class="st3" d="M566.1,143.4"/>
</g>
<g id="XMLID_36_">
	<path id="XMLID_964_" class="st3" d="M570.4,144.5"/>
</g>
<g id="XMLID_71_">
	<path id="XMLID_955_" class="st3" d="M566.1,143.4"/>
</g>
<g id="XMLID_111_">
	<path id="XMLID_944_" class="st3" d="M511.3,296.9"/>
</g>
<g id="XMLID_33_">
	<line id="XMLID_935_" class="st1" x1="378.2" y1="311" x2="340" y2="284.1"/>
	<path id="XMLID_928_" class="st1" d="M378.1,311.1c0,0-0.2,0-0.5-0.1c-0.3-0.1-0.9-0.2-1.5-0.5c-0.6-0.2-1.4-0.5-2.2-0.8
		c-0.9-0.3-1.8-0.7-2.8-1.2c-1-0.5-2.1-1-3.2-1.6c-1.1-0.6-2.3-1.2-3.5-1.9c-1.2-0.7-2.4-1.4-3.6-2.2c-1.2-0.8-2.4-1.6-3.6-2.4
		c-1.2-0.9-2.4-1.7-3.5-2.6c-1.1-0.9-2.2-1.8-3.3-2.7c-1.1-0.9-2-1.8-3-2.7c-0.9-0.8-1.8-1.7-2.6-2.5c-0.8-0.8-1.5-1.6-2.1-2.2
		c-0.6-0.7-1.1-1.3-1.5-1.8c-0.4-0.5-0.7-1-0.9-1.2c-0.2-0.3-0.3-0.5-0.3-0.5l0.2-0.3c0,0,0.6,0.4,1.7,1.1c1.1,0.7,2.6,1.7,4.4,3
		c3.6,2.5,8.4,5.8,13.2,9.1c4.8,3.4,9.5,6.8,13.1,9.3c1.8,1.3,3.3,2.4,4.3,3.1c1,0.8,1.6,1.2,1.6,1.2L378.1,311.1z"/>
</g>
<g id="XMLID_42_">
	<line id="XMLID_912_" class="st1" x1="340" y1="284.1" x2="298" y2="280.2"/>
	<path id="XMLID_903_" class="st1" d="M340,284.3c0,0-0.2,0.1-0.5,0.2c-0.3,0.1-0.8,0.2-1.4,0.4c-0.6,0.1-1.3,0.3-2.1,0.4
		c-0.8,0.1-1.7,0.3-2.7,0.4c-1,0.1-2.1,0.2-3.2,0.3c-1.1,0.1-2.3,0.1-3.6,0.1c-1.2,0-2.5,0-3.8-0.1c-1.3,0-2.6-0.2-3.9-0.3
		c-1.3-0.1-2.6-0.3-3.9-0.5c-1.3-0.2-2.5-0.4-3.8-0.6c-1.2-0.2-2.4-0.5-3.5-0.8c-1.1-0.3-2.2-0.6-3.1-0.9c-1-0.3-1.8-0.6-2.6-0.9
		c-0.8-0.3-1.5-0.6-2-0.8c-0.6-0.2-1-0.5-1.3-0.6c-0.3-0.2-0.5-0.2-0.5-0.2l0-0.4c0,0,0.7,0,1.8,0.1c1.1,0.1,2.8,0.2,4.8,0.4
		c3.9,0.3,9.2,0.8,14.4,1.3c5.2,0.5,10.5,1.1,14.4,1.5c2,0.2,3.6,0.4,4.7,0.5c1.1,0.1,1.8,0.2,1.8,0.2L340,284.3z"/>
</g>
<g id="XMLID_43_">
	<line id="XMLID_894_" class="st1" x1="298" y1="280.2" x2="277.6" y2="265.4"/>
	<path id="XMLID_887_" class="st1" d="M297.9,280.4c0,0-0.1,0-0.3,0c-0.2,0-0.5,0-0.9-0.1c-0.8-0.1-1.9-0.3-3.1-0.6
		c-1.2-0.3-2.5-0.9-3.9-1.5c-0.7-0.3-1.4-0.7-2-1.1c-0.7-0.4-1.3-0.8-2-1.3c-0.6-0.5-1.3-0.9-1.8-1.5c-0.6-0.5-1.2-1-1.7-1.6
		c-1.1-1.1-2-2.2-2.7-3.2c-0.7-1-1.2-2-1.6-2.7c-0.2-0.3-0.3-0.7-0.4-0.9c-0.1-0.2-0.1-0.3-0.1-0.3l0.2-0.3c0,0,0.3,0.2,0.9,0.6
		c0.6,0.4,1.4,0.9,2.4,1.6c1.9,1.4,4.5,3.2,7.1,5c2.5,1.9,5.1,3.7,7,5.1c1,0.7,1.7,1.3,2.3,1.7c0.5,0.4,0.9,0.7,0.9,0.7L297.9,280.4
		z"/>
</g>
<g id="XMLID_44_">
	<line id="XMLID_878_" class="st1" x1="277.6" y1="265.4" x2="273.3" y2="247.4"/>
	<path id="XMLID_871_" class="st1" d="M277.4,265.5c0,0-0.1-0.1-0.2-0.2c-0.1-0.1-0.4-0.3-0.6-0.5c-0.5-0.4-1.1-1-1.7-1.7
		c-0.6-0.7-1.2-1.6-1.7-2.6c-0.2-0.5-0.5-1-0.7-1.6c-0.2-0.5-0.3-1.1-0.5-1.7c-0.1-0.6-0.2-1.1-0.3-1.7c-0.1-0.6-0.1-1.1-0.1-1.7
		c0-1.1,0.1-2.2,0.3-3.1c0.2-0.9,0.5-1.8,0.8-2.3c0.1-0.3,0.3-0.5,0.3-0.7c0.1-0.2,0.1-0.2,0.1-0.2l0.4-0.1c0,0,0.1,0.3,0.2,0.8
		c0.1,0.5,0.3,1.2,0.6,2c0.4,1.7,1,3.9,1.6,6.2c0.5,2.3,1,4.5,1.4,6.2c0.2,0.8,0.3,1.6,0.4,2.1c0.1,0.5,0.2,0.8,0.2,0.8L277.4,265.5
		z"/>
</g>
<g id="XMLID_45_">
	<line id="XMLID_862_" class="st1" x1="273.3" y1="247.4" x2="283.7" y2="258.9"/>
	<path id="XMLID_855_" class="st1" d="M273.4,247.3c0,0,0.1,0,0.3,0c0.2,0,0.4,0,0.7,0c0.6,0.1,1.3,0.2,2.1,0.4
		c0.8,0.3,1.6,0.6,2.4,1.1c0.4,0.3,0.8,0.5,1.1,0.9c0.4,0.3,0.7,0.7,1,1c0.3,0.4,0.6,0.7,0.9,1.1c0.3,0.4,0.5,0.8,0.7,1.2
		c0.4,0.8,0.7,1.7,0.9,2.5c0.2,0.8,0.2,1.6,0.2,2.2c0,0.3,0,0.5,0,0.7c0,0.2,0,0.3,0,0.3l-0.3,0.3c0,0-0.2-0.2-0.5-0.5
		c-0.3-0.3-0.7-0.7-1.2-1.3c-1-1.1-2.3-2.5-3.6-3.9c-1.3-1.5-2.6-2.9-3.5-4c-0.5-0.5-0.9-1-1.1-1.4c-0.3-0.3-0.4-0.5-0.4-0.5
		L273.4,247.3z"/>
</g>
<g id="XMLID_46_">
	<line id="XMLID_846_" class="st1" x1="283.7" y1="258.9" x2="293" y2="265.4"/>
	<path id="XMLID_839_" class="st1" d="M283.8,258.8c0,0,0.1,0,0.2-0.1c0.1,0,0.3-0.1,0.6-0.2c0.5-0.1,1.1-0.3,1.8-0.3
		c0.7,0,1.4,0,2.1,0.2c0.3,0.1,0.7,0.2,1,0.4c0.3,0.1,0.6,0.3,0.9,0.5c0.3,0.2,0.6,0.4,0.8,0.7c0.3,0.2,0.5,0.5,0.7,0.8
		c0.4,0.6,0.7,1.2,0.9,1.9c0.2,0.7,0.3,1.3,0.3,1.8c0,0.2,0,0.5,0,0.6c0,0.2,0,0.2,0,0.2l-0.2,0.3c0,0-0.6-0.4-1.5-0.9
		c-0.9-0.6-2.1-1.4-3.3-2.2c-1.2-0.8-2.3-1.6-3.2-2.3c-0.8-0.7-1.4-1.1-1.4-1.1L283.8,258.8z"/>
</g>
<g id="XMLID_47_">
	<line id="XMLID_833_" class="st1" x1="292" y1="268" x2="309" y2="268"/>
	<path id="XMLID_827_" class="st1" d="M292,267.4c0,0,0-0.1,0.2-0.2c0.1-0.1,0.3-0.3,0.5-0.5c0.5-0.4,1.1-0.9,1.9-1.3
		c0.8-0.4,1.7-0.8,2.8-1c0.5-0.1,1-0.2,1.6-0.3c0.5-0.1,1.1-0.1,1.6-0.1c0.5,0,1.1,0,1.6,0.1c0.5,0.1,1.1,0.2,1.6,0.3
		c1,0.2,2,0.6,2.8,1c0.8,0.4,1.5,0.9,2,1.3c0.2,0.2,0.3,0.4,0.5,0.5c0.1,0.1,0.1,0.2,0.1,0.2v0.4c0,0-0.2,0-0.7,0
		c-0.5,0-1.1,0.1-1.9,0.1c-1.6,0-3.7,0.1-5.9,0.1c-2.2,0-4.3-0.1-5.9-0.1c-0.8,0-1.4-0.1-1.9-0.1c-0.5,0-0.7,0-0.7,0V267.4z"/>
</g>
<g id="XMLID_48_">
	<line id="XMLID_821_" class="st1" x1="309.2" y1="266.5" x2="252.1" y2="196.3"/>
	<path id="XMLID_815_" class="st1" d="M309,266.6c0,0-0.3-0.2-0.8-0.7c-0.5-0.4-1.3-1.1-2.2-1.9c-0.9-0.8-2.1-1.9-3.3-3.1
		c-1.3-1.2-2.7-2.6-4.2-4.1c-1.5-1.5-3.1-3.2-4.8-4.9c-1.7-1.8-3.4-3.6-5.2-5.6c-1.7-2-3.6-4-5.4-6.2c-1.8-2.1-3.6-4.3-5.4-6.5
		c-1.8-2.2-3.5-4.4-5.2-6.6c-1.7-2.2-3.3-4.4-4.9-6.5c-1.6-2.1-3.1-4.2-4.5-6.2c-1.4-2-2.7-3.9-3.9-5.7c-1.2-1.8-2.2-3.4-3.1-4.9
		c-0.9-1.5-1.7-2.8-2.3-3.9c-0.6-1.1-1.1-2-1.4-2.5c-0.3-0.6-0.5-0.9-0.5-0.9l0.3-0.3c0,0,14.3,17.5,28.7,35
		c14.2,17.6,28.4,35.2,28.4,35.2L309,266.6z"/>
</g>
<g id="XMLID_49_">
	<line id="XMLID_809_" class="st1" x1="252.1" y1="196.3" x2="248.2" y2="176.5"/>
	<path id="XMLID_803_" class="st1" d="M251.9,196.3c0,0-0.1-0.1-0.2-0.2c-0.1-0.1-0.4-0.3-0.6-0.5c-0.5-0.5-1.1-1.1-1.7-2
		c-0.6-0.8-1.2-1.9-1.7-3c-0.2-0.6-0.5-1.1-0.6-1.7c-0.2-0.6-0.3-1.2-0.5-1.8c-0.1-0.6-0.2-1.2-0.3-1.9c-0.1-0.6-0.1-1.2-0.1-1.8
		c0-1.2,0.2-2.4,0.4-3.4c0.2-1,0.5-1.9,0.8-2.5c0.1-0.3,0.3-0.6,0.3-0.7c0.1-0.2,0.1-0.3,0.1-0.3l0.4-0.1c0,0,0.1,0.3,0.2,0.8
		c0.1,0.5,0.3,1.3,0.5,2.2c0.4,1.9,0.9,4.3,1.4,6.8c0.5,2.5,0.9,5,1.3,6.8c0.2,0.9,0.3,1.7,0.4,2.3c0.1,0.5,0.1,0.9,0.1,0.9
		L251.9,196.3z"/>
</g>
<g id="XMLID_50_">
	<line id="XMLID_797_" class="st1" x1="248.2" y1="176.5" x2="250.2" y2="159.6"/>
	<path id="XMLID_791_" class="st1" d="M248,176.5c0,0-0.1-0.1-0.2-0.2c-0.1-0.1-0.3-0.3-0.4-0.6c-0.3-0.5-0.7-1.2-1.1-2.1
		c-0.3-0.8-0.6-1.8-0.7-2.8c-0.1-0.5-0.1-1-0.1-1.6c0-0.5,0-1.1,0.1-1.6c0.1-0.5,0.2-1.1,0.3-1.6c0.1-0.5,0.3-1,0.5-1.5
		c0.4-1,0.8-1.8,1.4-2.6c0.5-0.7,1.1-1.3,1.5-1.8c0.2-0.2,0.4-0.4,0.5-0.5c0.1-0.1,0.2-0.2,0.2-0.2l0.4,0c0,0,0,0.3-0.1,0.7
		c0,0.5-0.1,1.1-0.1,1.9c-0.2,1.6-0.4,3.7-0.6,5.8c-0.3,2.1-0.6,4.2-0.8,5.8c-0.1,0.8-0.2,1.4-0.3,1.9c-0.1,0.5-0.1,0.7-0.1,0.7
		L248,176.5z"/>
</g>
<g id="XMLID_51_">
	<line id="XMLID_785_" class="st1" x1="250.2" y1="159.6" x2="252.1" y2="176.5"/>
	<path id="XMLID_769_" class="st1" d="M250.4,159.6c0,0,0.1,0.1,0.2,0.2c0.1,0.1,0.3,0.3,0.5,0.5c0.4,0.4,1,1,1.5,1.8
		c0.5,0.7,1,1.6,1.4,2.6c0.2,0.5,0.3,1,0.5,1.5c0.1,0.5,0.2,1,0.3,1.6c0,0.5,0.1,1.1,0.1,1.6c0,0.5,0,1.1-0.1,1.6
		c-0.1,1-0.4,2-0.7,2.8c-0.3,0.8-0.7,1.6-1.1,2.1c-0.1,0.3-0.3,0.5-0.4,0.6c-0.1,0.1-0.2,0.2-0.2,0.2l-0.4,0c0,0,0-0.3-0.1-0.7
		c-0.1-0.5-0.2-1.1-0.3-1.9c-0.2-1.6-0.5-3.7-0.8-5.8c-0.2-2.1-0.4-4.2-0.6-5.8c-0.1-0.8-0.1-1.5-0.1-1.9c0-0.5-0.1-0.7-0.1-0.7
		L250.4,159.6z"/>
</g>
<g id="XMLID_52_">
	<line id="XMLID_763_" class="st1" x1="252.1" y1="176.5" x2="270.1" y2="198.8"/>
	<path id="XMLID_757_" class="st1" d="M252.3,176.4c0,0,0.1,0,0.4,0.1c0.2,0.1,0.6,0.2,0.9,0.4c0.8,0.4,1.9,0.9,3,1.7
		c1.2,0.8,2.4,1.8,3.7,2.9c0.6,0.6,1.2,1.2,1.8,1.8c0.6,0.6,1.2,1.3,1.8,2c0.5,0.7,1.1,1.4,1.6,2.1c0.5,0.7,1,1.5,1.4,2.2
		c0.9,1.5,1.5,2.9,2.1,4.2c0.5,1.3,0.8,2.5,1,3.3c0.1,0.4,0.1,0.8,0.2,1c0,0.2,0,0.4,0,0.4l-0.3,0.3c0,0-0.3-0.3-0.8-0.9
		c-0.5-0.6-1.2-1.4-2.1-2.5c-1.7-2.1-4-4.8-6.2-7.6c-2.2-2.8-4.4-5.6-6.1-7.7c-0.8-1.1-1.5-2-2-2.6c-0.5-0.6-0.7-1-0.7-1
		L252.3,176.4z"/>
</g>
<g id="XMLID_53_">
	<line id="XMLID_751_" class="st1" x1="270.1" y1="198.8" x2="267.9" y2="127.9"/>
	<path id="XMLID_746_" class="st1" d="M269.9,198.8c0,0-0.1-0.3-0.2-0.8c-0.1-0.5-0.3-1.3-0.5-2.2c-0.2-1-0.5-2.1-0.7-3.5
		c-0.3-1.3-0.6-2.9-0.8-4.5c-0.3-1.7-0.5-3.4-0.7-5.3c-0.2-1.9-0.5-3.9-0.6-6c-0.1-2.1-0.4-4.2-0.5-6.4c-0.1-2.2-0.2-4.4-0.3-6.6
		c0-2.2-0.1-4.4-0.1-6.6c-0.1-2.2,0.1-4.3,0.1-6.4c0-2.1,0.2-4.1,0.3-6c0.1-1.9,0.3-3.7,0.4-5.4c0.1-1.7,0.3-3.2,0.5-4.6
		c0.2-1.4,0.4-2.5,0.5-3.5c0.1-1,0.3-1.7,0.4-2.3c0.1-0.5,0.2-0.8,0.2-0.8l0.4,0c0,0,0.2,4.4,0.4,11.1c0.2,6.6,0.5,15.5,0.8,24.4
		c0.2,8.9,0.5,17.7,0.6,24.4c0.1,6.7,0.2,11.1,0.2,11.1L269.9,198.8z"/>
</g>
<g id="XMLID_54_">
	<line id="XMLID_742_" class="st1" x1="267.9" y1="127.9" x2="294.5" y2="80"/>
	<path id="XMLID_739_" class="st1" d="M267.7,127.8c0,0,0-0.2,0.1-0.6c0.1-0.4,0.2-1,0.4-1.8c0.2-0.7,0.4-1.7,0.8-2.7
		c0.3-1,0.7-2.2,1.1-3.4c0.4-1.2,0.9-2.6,1.5-3.9c0.6-1.4,1.1-2.8,1.8-4.3c0.7-1.5,1.4-3,2.2-4.5c0.7-1.5,1.6-3,2.4-4.5
		c0.8-1.5,1.7-3,2.6-4.4c0.9-1.4,1.8-2.8,2.6-4.2c0.9-1.4,1.8-2.6,2.7-3.8c0.8-1.2,1.7-2.3,2.5-3.3c0.8-1,1.6-1.9,2.3-2.7
		c0.7-0.8,1.3-1.5,1.9-2.1c0.5-0.6,1-1,1.3-1.3c0.3-0.3,0.5-0.4,0.5-0.4l0.3,0.2c0,0-1.6,3-4.1,7.5c-2.5,4.5-5.8,10.5-9,16.5
		c-3.3,6-6.7,11.9-9.2,16.4c-2.5,4.5-4.2,7.4-4.2,7.4L267.7,127.8z"/>
</g>
<g id="XMLID_55_">
	<line id="XMLID_736_" class="st1" x1="294.5" y1="80" x2="303.4" y2="78.6"/>
	<path id="XMLID_734_" class="st1" d="M294.4,79.8c0,0,0-0.1,0.1-0.2c0-0.1,0.1-0.3,0.2-0.5c0.2-0.4,0.5-0.9,0.8-1.4
		c0.4-0.5,0.8-0.9,1.3-1.3c0.2-0.2,0.5-0.3,0.8-0.4c0.3-0.1,0.5-0.2,0.8-0.2c0.3,0,0.6-0.1,0.9,0c0.3,0,0.6,0.1,0.9,0.2
		c0.6,0.2,1.1,0.4,1.6,0.8c0.5,0.4,0.9,0.8,1.2,1.1c0.1,0.2,0.3,0.3,0.4,0.4c0.1,0.1,0.1,0.2,0.1,0.2l0.1,0.4c0,0-0.6,0.1-1.4,0.3
		c-0.8,0.2-1.9,0.4-3.1,0.6c-1.1,0.2-2.2,0.3-3.1,0.4c-0.8,0.1-1.4,0.1-1.4,0.1L294.4,79.8z"/>
</g>
<g id="XMLID_56_">
	<line id="XMLID_723_" class="st1" x1="303.4" y1="78.6" x2="283.7" y2="116.7"/>
	<path id="XMLID_721_" class="st1" d="M303.6,78.7c0,0,0,0.2,0,0.5c0,0.3-0.1,0.8-0.2,1.4c-0.1,0.6-0.2,1.4-0.4,2.2
		c-0.2,0.8-0.4,1.8-0.7,2.7c-0.3,1-0.6,2.1-1,3.2c-0.4,1.1-0.8,2.3-1.3,3.4c-0.5,1.2-1,2.4-1.5,3.6c-0.5,1.2-1.2,2.4-1.8,3.6
		c-0.6,1.2-1.3,2.4-1.9,3.5c-0.7,1.1-1.3,2.3-2,3.3c-0.7,1.1-1.4,2.1-2.1,3c-0.7,0.9-1.4,1.8-2,2.6c-0.6,0.8-1.3,1.5-1.8,2.1
		c-0.5,0.6-1.1,1.2-1.5,1.6c-0.4,0.4-0.8,0.8-1.1,1c-0.3,0.2-0.4,0.3-0.4,0.3l-0.4-0.2c0,0,0.3-0.6,0.8-1.7c0.5-1.1,1.3-2.6,2.2-4.4
		c1.8-3.6,4.3-8.4,6.7-13.2c2.5-4.8,5-9.5,6.9-13.1c0.9-1.8,1.7-3.3,2.3-4.3c0.6-1,0.9-1.6,0.9-1.6L303.6,78.7z"/>
</g>
<g id="XMLID_57_">
	<line id="XMLID_709_" class="st1" x1="283.7" y1="116.7" x2="290.5" y2="163.4"/>
	<path id="XMLID_699_" class="st1" d="M283.9,116.7c0,0,0.1,0.2,0.3,0.5c0.2,0.3,0.4,0.8,0.7,1.4c0.3,0.6,0.6,1.3,1,2.2
		c0.3,0.9,0.7,1.8,1.1,2.9c0.4,1.1,0.8,2.2,1.1,3.4c0.4,1.2,0.7,2.5,1,3.9c0.3,1.3,0.6,2.7,0.9,4.2c0.3,1.4,0.5,2.9,0.7,4.3
		c0.2,1.5,0.4,2.9,0.5,4.4c0.2,1.4,0.3,2.9,0.3,4.3c0.1,1.4,0.1,2.7,0.1,4c0,1.3,0,2.5-0.1,3.6c0,1.1-0.1,2.2-0.2,3.1
		c-0.1,0.9-0.2,1.7-0.3,2.4c-0.1,0.7-0.2,1.2-0.3,1.5c-0.1,0.4-0.1,0.6-0.1,0.6l-0.4,0.1c0,0-0.5-2.9-1.2-7.3
		c-0.7-4.4-1.5-10.2-2.4-16c-0.8-5.8-1.6-11.7-2.3-16c-0.6-4.4-1-7.3-1-7.3L283.9,116.7z"/>
</g>
<g id="XMLID_58_">
	<line id="XMLID_696_" class="st1" x1="290.5" y1="163.4" x2="319" y2="127.9"/>
	<path id="XMLID_695_" class="st1" d="M290.4,163.2c0,0,0.1-0.2,0.2-0.5c0.1-0.3,0.3-0.8,0.5-1.4c0.2-0.6,0.5-1.3,0.9-2.1
		c0.4-0.8,0.8-1.7,1.3-2.7c0.5-1,1.1-2,1.7-3.1c0.6-1.1,1.3-2.2,2-3.3c0.7-1.1,1.5-2.3,2.4-3.4c0.8-1.1,1.7-2.3,2.6-3.4
		c0.9-1.1,1.8-2.2,2.7-3.2c0.9-1.1,1.9-2.1,2.8-3c0.9-1,1.9-1.8,2.8-2.7c0.9-0.9,1.8-1.6,2.6-2.3c0.8-0.7,1.6-1.3,2.3-1.9
		c0.7-0.6,1.4-1,1.9-1.4c0.5-0.4,1-0.6,1.3-0.8c0.3-0.2,0.5-0.3,0.5-0.3l0.3,0.3c0,0-0.4,0.6-1.2,1.5c-0.8,1-1.9,2.4-3.2,4.1
		c-2.7,3.3-6.2,7.8-9.7,12.2c-3.6,4.4-7.2,8.8-9.9,12.1c-1.4,1.6-2.5,3-3.3,4c-0.8,1-1.3,1.5-1.3,1.5L290.4,163.2z"/>
</g>
<g id="XMLID_59_">
	<line id="XMLID_666_" class="st1" x1="319" y1="127.9" x2="333.9" y2="89.7"/>
	<path id="XMLID_665_" class="st1" d="M318.8,127.8c0,0,0-0.2,0-0.5c0-0.3,0-0.8,0-1.4c0-0.6,0.1-1.3,0.2-2.1
		c0.1-0.8,0.2-1.7,0.3-2.7c0.2-1,0.3-2,0.6-3.1c0.2-1.1,0.5-2.2,0.8-3.4c0.3-1.2,0.7-2.4,1.1-3.5c0.4-1.2,0.8-2.4,1.3-3.6
		c0.5-1.2,1-2.4,1.5-3.5c0.5-1.2,1.1-2.3,1.6-3.3c0.5-1.1,1.1-2.1,1.7-3.1c0.6-1,1.1-1.8,1.7-2.7c0.5-0.8,1.1-1.6,1.6-2.2
		c0.5-0.7,0.9-1.2,1.3-1.7c0.4-0.5,0.7-0.8,0.9-1c0.2-0.2,0.3-0.4,0.3-0.4l0.4,0.1c0,0-0.2,0.6-0.6,1.7c-0.4,1-0.9,2.6-1.6,4.3
		c-1.4,3.6-3.2,8.4-5,13.2c-1.9,4.8-3.8,9.5-5.2,13.1c-0.7,1.8-1.3,3.3-1.8,4.3c-0.4,1-0.7,1.6-0.7,1.6L318.8,127.8z"/>
</g>
<g id="XMLID_60_">
	<line id="XMLID_663_" class="st1" x1="333.9" y1="89.7" x2="326.5" y2="138"/>
	<path id="XMLID_662_" class="st1" d="M334.1,89.8c0,0,0,0.2,0.1,0.6c0.1,0.4,0.2,0.9,0.2,1.6c0.1,0.7,0.2,1.5,0.3,2.5
		c0.1,1,0.2,2,0.2,3.2c0,1.2,0.1,2.4,0,3.7c0,1.3,0,2.7-0.2,4.1c-0.1,1.4-0.2,2.9-0.4,4.4c-0.2,1.5-0.4,3-0.6,4.5
		c-0.3,1.5-0.5,3-0.8,4.5c-0.3,1.5-0.6,2.9-1,4.3c-0.3,1.4-0.7,2.7-1.1,4c-0.3,1.3-0.8,2.5-1.1,3.6c-0.4,1.1-0.8,2.1-1.1,3
		c-0.3,0.9-0.7,1.7-1,2.3c-0.3,0.6-0.5,1.1-0.7,1.5c-0.2,0.3-0.3,0.5-0.3,0.5l-0.4-0.1c0,0,0.4-3,1.1-7.6c0.7-4.5,1.6-10.6,2.5-16.6
		c1-6,1.9-12,2.6-16.6c0.8-4.5,1.3-7.5,1.3-7.5L334.1,89.8z"/>
</g>
<g id="XMLID_61_">
	<line id="XMLID_660_" class="st1" x1="326.5" y1="138" x2="306.6" y2="186.4"/>
	<path id="XMLID_659_" class="st1" d="M326.7,138.1c0,0,0,0.2,0,0.6c0,0.4-0.1,1-0.2,1.7c-0.1,0.7-0.2,1.6-0.4,2.6
		c-0.2,1-0.4,2.1-0.7,3.3c-0.3,1.2-0.6,2.5-1,3.9c-0.4,1.4-0.8,2.8-1.2,4.3c-0.5,1.5-1,3-1.5,4.5c-0.5,1.5-1.2,3-1.8,4.6
		c-0.6,1.5-1.3,3-1.9,4.5c-0.7,1.5-1.4,2.9-2.1,4.3c-0.7,1.4-1.4,2.7-2.1,3.9c-0.7,1.2-1.4,2.4-2,3.4c-0.6,1.1-1.3,2-1.9,2.9
		c-0.6,0.8-1.1,1.6-1.6,2.2c-0.4,0.6-0.8,1-1.1,1.4c-0.3,0.3-0.4,0.5-0.4,0.5l-0.4-0.2c0,0,1.2-3,3-7.6c1.8-4.5,4.3-10.6,6.7-16.7
		c2.5-6,5-12.1,6.9-16.6c1.9-4.5,3.2-7.5,3.2-7.5L326.7,138.1z"/>
</g>
<g id="XMLID_62_">
	<line id="XMLID_657_" class="st1" x1="306.6" y1="186.4" x2="316.6" y2="177.9"/>
	<path id="XMLID_656_" class="st1" d="M306.5,186.3c0,0,0-0.1,0-0.2c0-0.1,0-0.4,0-0.6c0-0.5,0.1-1.2,0.3-1.9
		c0.2-0.7,0.5-1.5,0.9-2.1c0.2-0.3,0.4-0.7,0.7-1c0.3-0.3,0.6-0.6,0.9-0.9c0.3-0.2,0.6-0.5,1-0.7c0.3-0.2,0.7-0.4,1.1-0.5
		c0.7-0.3,1.5-0.5,2.3-0.6c0.7-0.1,1.4,0,2,0c0.2,0,0.5,0.1,0.6,0.1c0.2,0,0.2,0.1,0.2,0.1l0.3,0.3c0,0-0.6,0.6-1.5,1.4
		c-0.9,0.8-2.1,1.9-3.3,3c-1.2,1-2.5,2.1-3.5,2.8c-1,0.8-1.6,1.2-1.6,1.2L306.5,186.3z"/>
</g>
<g id="XMLID_63_">
	<line id="XMLID_654_" class="st1" x1="316.6" y1="177.9" x2="314.5" y2="187.7"/>
	<path id="XMLID_653_" class="st1" d="M316.8,178c0,0,0.1,0.1,0.2,0.1c0.1,0.1,0.3,0.2,0.4,0.4c0.3,0.3,0.7,0.8,1,1.4
		c0.3,0.5,0.6,1.1,0.7,1.8c0.1,0.3,0.1,0.6,0.1,0.9c0,0.3,0,0.6-0.1,0.9c-0.1,0.3-0.2,0.6-0.3,0.9c-0.1,0.3-0.3,0.6-0.5,0.8
		c-0.4,0.5-0.8,1-1.3,1.3c-0.5,0.4-1.1,0.7-1.5,0.8c-0.2,0.1-0.4,0.2-0.5,0.2c-0.1,0-0.2,0.1-0.2,0.1l-0.4-0.1c0,0,0.1-0.6,0.2-1.5
		c0.1-0.9,0.4-2.1,0.6-3.4c0.3-1.2,0.5-2.4,0.8-3.3c0.2-0.9,0.4-1.5,0.4-1.5L316.8,178z"/>
</g>
<g id="XMLID_64_">
	<line id="XMLID_610_" class="st1" x1="314.5" y1="187.7" x2="321" y2="247.4"/>
	<path id="XMLID_609_" class="st1" d="M314.7,187.6c0,0,0.1,0.2,0.3,0.7c0.2,0.4,0.4,1,0.7,1.8c0.3,0.8,0.6,1.8,0.9,2.9
		c0.3,1.1,0.7,2.4,1.1,3.8c0.4,1.4,0.8,2.9,1.1,4.5c0.3,1.6,0.7,3.3,1,5c0.3,1.7,0.7,3.5,0.9,5.4c0.3,1.8,0.5,3.7,0.7,5.6
		c0.2,1.9,0.4,3.7,0.5,5.6c0.2,1.8,0.2,3.7,0.3,5.4c0.1,1.8,0.1,3.5,0.1,5.1c0,1.6,0,3.2-0.1,4.6c0,1.4-0.1,2.7-0.2,3.9
		c-0.1,1.2-0.2,2.2-0.3,3c-0.1,0.8-0.2,1.5-0.3,1.9c-0.1,0.5-0.1,0.7-0.1,0.7l-0.4,0c0,0-0.4-3.7-1.1-9.3
		c-0.6-5.6-1.5-13.1-2.3-20.5c-0.8-7.5-1.5-14.9-2.1-20.6c-0.5-5.6-0.9-9.3-0.9-9.3L314.7,187.6z"/>
</g>
<g id="XMLID_65_">
	<line id="XMLID_607_" class="st1" x1="321" y1="247.4" x2="330.2" y2="258.9"/>
	<path id="XMLID_606_" class="st1" d="M321.2,247.3c0,0,0.1,0,0.3,0c0.2,0,0.4,0,0.7,0.1c0.6,0.1,1.3,0.2,2.1,0.5
		c0.8,0.3,1.6,0.7,2.3,1.2c0.4,0.3,0.7,0.5,1.1,0.9c0.3,0.3,0.6,0.7,0.9,1c0.3,0.4,0.6,0.7,0.8,1.1c0.2,0.4,0.4,0.8,0.6,1.2
		c0.3,0.8,0.6,1.7,0.7,2.5c0.1,0.8,0.1,1.6,0,2.1c0,0.3-0.1,0.5-0.1,0.7c0,0.2,0,0.3,0,0.3l-0.3,0.2c0,0-0.6-0.7-1.5-1.7
		c-0.9-1-2.1-2.5-3.2-3.9c-1.1-1.4-2.3-2.9-3.1-4c-0.8-1.1-1.3-1.9-1.3-1.9L321.2,247.3z"/>
</g>
<g id="XMLID_66_">
	<line id="XMLID_604_" class="st1" x1="330.2" y1="258.9" x2="404" y2="284.1"/>
	<path id="XMLID_603_" class="st1" d="M330.3,258.8c0,0,0.3,0,0.9,0.1c0.6,0.1,1.4,0.2,2.5,0.3c1.1,0.2,2.4,0.4,3.8,0.7
		c1.5,0.3,3.1,0.6,4.9,1c1.8,0.4,3.7,0.8,5.8,1.4c2,0.5,4.2,1,6.4,1.7c2.2,0.7,4.5,1.2,6.8,2c2.3,0.7,4.6,1.5,6.9,2.2
		c2.3,0.8,4.6,1.7,6.8,2.5c2.3,0.8,4.4,1.7,6.6,2.6c2.1,0.8,4.2,1.7,6.1,2.6c1.9,0.8,3.7,1.7,5.4,2.5c1.7,0.8,3.2,1.5,4.5,2.2
		c1.3,0.7,2.5,1.3,3.4,1.8c1,0.5,1.7,1,2.2,1.3c0.5,0.3,0.8,0.5,0.8,0.5l-0.1,0.4c0,0-18.5-6.2-37-12.4
		c-18.4-6.4-36.9-12.8-36.9-12.8L330.3,258.8z"/>
</g>
<g id="XMLID_67_">
	<line id="XMLID_601_" class="st1" x1="404" y1="284.1" x2="372.6" y2="253.2"/>
	<path id="XMLID_600_" class="st1" d="M403.9,284.3c0,0-0.2-0.1-0.5-0.2c-0.3-0.1-0.8-0.3-1.3-0.6c-0.6-0.3-1.3-0.6-2-1.1
		c-0.8-0.4-1.6-0.9-2.5-1.5c-0.9-0.6-1.8-1.2-2.8-1.9c-1-0.7-2-1.5-3-2.3c-1-0.8-2-1.7-3-2.6c-1-0.9-2-1.9-3-2.8c-1-1-1.9-2-2.9-3
		c-0.9-1-1.8-2-2.6-3c-0.8-1-1.6-2-2.3-2.9c-0.7-1-1.4-1.9-1.9-2.8c-0.6-0.9-1.1-1.7-1.6-2.4c-0.5-0.7-0.8-1.4-1.1-2
		c-0.3-0.5-0.5-1-0.7-1.3c-0.1-0.3-0.2-0.5-0.2-0.5l0.3-0.3c0,0,0.5,0.5,1.4,1.3c0.9,0.8,2.1,2,3.6,3.5c3,2.9,6.9,6.7,10.9,10.6
		c3.9,3.9,7.8,7.8,10.7,10.7c1.5,1.5,2.7,2.7,3.5,3.6c0.8,0.9,1.3,1.4,1.3,1.4L403.9,284.3z"/>
</g>
<g id="XMLID_68_">
	<line id="XMLID_598_" class="st1" x1="372.6" y1="253.2" x2="374.1" y2="241.3"/>
	<path id="XMLID_597_" class="st1" d="M372.5,253.2c0,0-0.1-0.1-0.2-0.2c-0.1-0.1-0.3-0.3-0.4-0.4c-0.3-0.4-0.8-0.9-1.1-1.5
		c-0.4-0.6-0.6-1.3-0.8-2c-0.1-0.4-0.1-0.7-0.2-1.1c0-0.4,0-0.7,0-1.1c0.1-0.4,0.1-0.7,0.2-1.1c0.1-0.4,0.2-0.7,0.4-1
		c0.3-0.7,0.8-1.3,1.3-1.8c0.5-0.5,1-0.9,1.4-1.2c0.2-0.1,0.4-0.2,0.5-0.3c0.1-0.1,0.2-0.1,0.2-0.1l0.4,0c0,0,0,0.7-0.1,1.9
		c-0.1,1.1-0.2,2.6-0.4,4.1c-0.2,1.5-0.4,3-0.6,4.1c-0.2,1.1-0.3,1.8-0.3,1.8L372.5,253.2z"/>
</g>
<g id="XMLID_69_">
	<line id="XMLID_595_" class="st1" x1="374.1" y1="241.3" x2="378.2" y2="250.3"/>
	<path id="XMLID_594_" class="st1" d="M374.3,241.2c0,0,0.1,0,0.2,0c0.1,0,0.4,0,0.6,0.1c0.5,0.1,1.1,0.2,1.6,0.5
		c0.6,0.2,1.1,0.6,1.6,1c0.2,0.2,0.5,0.4,0.6,0.7c0.2,0.2,0.3,0.5,0.5,0.8c0.1,0.3,0.2,0.6,0.3,0.9c0.1,0.3,0.1,0.6,0.1,0.9
		c0,0.6-0.1,1.3-0.3,1.9c-0.2,0.6-0.5,1.1-0.7,1.6c-0.1,0.2-0.2,0.4-0.3,0.5c-0.1,0.1-0.1,0.2-0.1,0.2l-0.4,0.2c0,0-0.3-0.5-0.7-1.4
		c-0.4-0.8-1-1.9-1.5-3.1c-0.5-1.1-1-2.3-1.3-3.1c-0.3-0.9-0.5-1.5-0.5-1.5L374.3,241.2z"/>
</g>
<g id="XMLID_70_">
	<line id="XMLID_592_" class="st1" x1="378.2" y1="250.3" x2="410" y2="276.2"/>
	<path id="XMLID_591_" class="st1" d="M378.3,250.2c0,0,0.2,0,0.5,0.1c0.3,0.1,0.8,0.2,1.3,0.5c0.6,0.2,1.2,0.5,2,0.8
		c0.7,0.3,1.6,0.7,2.4,1.2c0.9,0.4,1.8,0.9,2.8,1.5c1,0.6,2,1.2,3,1.8c1,0.7,2,1.4,3,2.1c1,0.7,2,1.5,3,2.3c1,0.8,2,1.6,2.9,2.5
		c0.9,0.8,1.8,1.7,2.7,2.6c0.9,0.9,1.7,1.7,2.4,2.5c0.7,0.8,1.4,1.7,2,2.4c0.6,0.8,1.2,1.5,1.6,2.2c0.5,0.6,0.9,1.3,1.2,1.8
		c0.3,0.5,0.5,0.9,0.7,1.2c0.2,0.3,0.2,0.4,0.2,0.4l-0.3,0.3c0,0-0.5-0.4-1.4-1.1c-0.9-0.7-2.1-1.7-3.6-2.9c-3-2.4-7-5.6-11-8.8
		c-3.9-3.3-7.9-6.5-10.9-9c-1.5-1.2-2.7-2.3-3.5-3c-0.9-0.7-1.3-1.1-1.3-1.1L378.3,250.2z"/>
</g>
<g id="XMLID_72_">
	<line id="XMLID_589_" class="st1" x1="410" y1="276.2" x2="381.3" y2="234.1"/>
	<path id="XMLID_588_" class="st1" d="M409.8,276.3c0,0-0.2-0.1-0.5-0.4c-0.3-0.2-0.8-0.6-1.3-1.1c-0.5-0.5-1.2-1-1.9-1.7
		c-0.7-0.7-1.5-1.4-2.4-2.3c-0.9-0.9-1.8-1.8-2.7-2.9c-0.9-1-1.9-2.1-2.8-3.3c-0.9-1.2-1.9-2.4-2.8-3.6c-0.9-1.3-1.8-2.6-2.8-3.9
		c-0.9-1.3-1.8-2.6-2.6-4c-0.8-1.3-1.6-2.7-2.4-4c-0.8-1.3-1.4-2.6-2-3.8c-0.7-1.2-1.2-2.4-1.7-3.5c-0.5-1.1-0.9-2.1-1.3-3.1
		c-0.4-0.9-0.7-1.7-0.9-2.4c-0.2-0.7-0.4-1.2-0.5-1.6c-0.1-0.4-0.2-0.6-0.2-0.6l0.3-0.2c0,0,1.8,2.6,4.6,6.5
		c2.7,3.9,6.3,9.2,9.9,14.4c3.6,5.3,7.1,10.6,9.8,14.5c2.6,4,4.4,6.6,4.4,6.6L409.8,276.3z"/>
</g>
<g id="XMLID_73_">
	<line id="XMLID_586_" class="st1" x1="380" y1="235" x2="380" y2="190"/>
	<path id="XMLID_585_" class="st1" d="M380,235c0,0-0.1-0.1-0.2-0.4c-0.1-0.3-0.3-0.8-0.5-1.4c-0.2-0.6-0.4-1.3-0.6-2.2
		c-0.2-0.9-0.5-1.8-0.7-2.9c-0.2-1.1-0.4-2.2-0.6-3.4c-0.2-1.2-0.4-2.5-0.5-3.8c-0.1-1.3-0.2-2.7-0.3-4.1c-0.1-1.4-0.1-2.8-0.1-4.2
		c0-1.4,0-2.8,0.1-4.2c0.1-1.4,0.2-2.8,0.3-4.1c0.1-1.3,0.3-2.6,0.5-3.8c0.1-1.2,0.4-2.4,0.6-3.4c0.2-1.1,0.4-2,0.6-2.9
		c0.2-0.9,0.4-1.6,0.6-2.2c0.2-0.6,0.4-1,0.5-1.4c0.1-0.3,0.2-0.4,0.2-0.4h0.4c0,0,0,0.6,0,1.9c0,1.2,0,3,0.1,5.1
		c0,4.3,0.1,9.9,0.1,15.6c0,5.7-0.1,11.3-0.1,15.6c0,2.1-0.1,3.8-0.1,5c0,1.2,0,1.8,0,1.8H380z"/>
</g>
<g id="XMLID_74_">
	<line id="XMLID_583_" class="st1" x1="381.3" y1="189.8" x2="385.9" y2="207.8"/>
	<path id="XMLID_582_" class="st1" d="M381.5,189.8c0,0,0.1,0.1,0.2,0.2c0.1,0.1,0.4,0.2,0.6,0.5c0.5,0.4,1.1,1,1.8,1.7
		c0.6,0.7,1.2,1.6,1.8,2.6c0.3,0.5,0.5,1,0.7,1.6c0.2,0.5,0.4,1.1,0.5,1.7c0.1,0.6,0.3,1.1,0.3,1.7c0.1,0.6,0.1,1.1,0.1,1.7
		c0,1.1-0.1,2.2-0.3,3.1c-0.2,1-0.5,1.8-0.7,2.4c-0.1,0.3-0.2,0.5-0.3,0.7c-0.1,0.2-0.1,0.3-0.1,0.3l-0.4,0.1c0,0-0.1-0.3-0.2-0.8
		c-0.1-0.5-0.4-1.2-0.6-2c-0.5-1.7-1.1-3.9-1.7-6.2c-0.6-2.3-1.1-4.5-1.5-6.2c-0.2-0.8-0.3-1.6-0.5-2.1c-0.1-0.5-0.2-0.8-0.2-0.8
		L381.5,189.8z"/>
</g>
<g id="XMLID_75_">
	<line id="XMLID_580_" class="st1" x1="385.9" y1="207.8" x2="388.3" y2="231.4"/>
	<path id="XMLID_579_" class="st1" d="M386.1,207.8c0,0,0.1,0.1,0.2,0.2c0.1,0.2,0.3,0.4,0.6,0.7c0.5,0.6,1,1.5,1.6,2.5
		c0.5,1.1,1,2.3,1.4,3.7c0.2,0.7,0.4,1.4,0.5,2.1c0.2,0.7,0.2,1.5,0.3,2.2c0.1,0.7,0.1,1.5,0.1,2.2c0,0.7,0,1.5-0.1,2.2
		c-0.1,1.4-0.3,2.7-0.7,3.9c-0.3,1.1-0.7,2.1-1,2.8c-0.1,0.3-0.3,0.6-0.4,0.8c-0.1,0.2-0.2,0.3-0.2,0.3l-0.4,0c0,0,0-0.4-0.1-1
		c-0.1-0.6-0.2-1.6-0.3-2.7c-0.3-2.2-0.6-5.2-0.9-8.1c-0.3-3-0.5-5.9-0.7-8.1c-0.1-1.1-0.1-2-0.2-2.7c0-0.6-0.1-1-0.1-1L386.1,207.8
		z"/>
</g>
<g id="XMLID_118_">
	<path id="XMLID_576_" class="st3" d="M607.4,276.2"/>
</g>
<g id="XMLID_117_">
	<path id="XMLID_573_" class="st3" d="M607.4,276.2"/>
</g>
<g id="XMLID_113_">
	<path id="XMLID_566_" d="M607.2,310.8c0,0,0.1-0.2,0.3-0.5c0.2-0.3,0.5-0.7,0.9-1.2c0.4-0.5,0.9-1.2,1.5-1.8
		c0.6-0.7,1.3-1.5,2.1-2.2c0.8-0.8,1.6-1.7,2.6-2.5c0.9-0.9,1.9-1.8,3-2.7c1.1-0.9,2.2-1.8,3.3-2.7c1.1-0.9,2.3-1.7,3.5-2.6
		c1.2-0.8,2.4-1.7,3.6-2.4c1.2-0.8,2.4-1.5,3.6-2.2c1.2-0.7,2.4-1.3,3.5-1.9c1.1-0.6,2.2-1.1,3.2-1.6c1-0.5,2-0.9,2.8-1.2
		c0.8-0.4,1.6-0.6,2.2-0.8c0.6-0.2,1.1-0.4,1.5-0.5c0.4-0.1,0.5-0.1,0.5-0.1l0.2,0.3c0,0-0.6,0.4-1.6,1.2c-1,0.7-2.5,1.8-4.3,3.1
		c-3.6,2.5-8.4,5.9-13.1,9.3c-4.8,3.3-9.6,6.7-13.2,9.1c-1.8,1.2-3.3,2.3-4.4,3c-1.1,0.7-1.7,1.1-1.7,1.1L607.2,310.8z"/>
</g>
<g id="XMLID_109_">
	<path id="XMLID_560_" d="M645.7,283.9c0,0,0.2-0.1,0.5-0.2c0.3-0.1,0.7-0.4,1.3-0.6c0.6-0.2,1.2-0.5,2-0.8c0.8-0.3,1.7-0.6,2.6-0.9
		c1-0.3,2-0.6,3.1-0.9c1.1-0.3,2.3-0.6,3.5-0.8c1.2-0.2,2.5-0.5,3.8-0.6c1.3-0.2,2.6-0.3,3.9-0.5c1.3-0.1,2.6-0.2,3.9-0.3
		c1.3-0.1,2.6-0.1,3.8-0.1c1.2,0,2.5,0.1,3.6,0.1c1.1,0.1,2.2,0.2,3.2,0.3c1,0.1,1.9,0.3,2.8,0.4c0.8,0.1,1.5,0.3,2.1,0.4
		c0.6,0.1,1.1,0.3,1.4,0.4c0.3,0.1,0.5,0.1,0.5,0.1l0,0.4c0,0-0.7,0.1-1.8,0.2c-1.2,0.1-2.8,0.3-4.8,0.5c-3.9,0.4-9.2,0.9-14.5,1.5
		c-5.3,0.5-10.5,0.9-14.5,1.3c-2,0.2-3.6,0.3-4.8,0.4c-1.2,0.1-1.8,0.1-1.8,0.1L645.7,283.9z"/>
</g>
<g id="XMLID_108_">
	<path id="XMLID_554_" d="M687.7,280c0,0,0-0.1,0.1-0.3c0.1-0.2,0.2-0.5,0.4-0.9c0.3-0.7,0.9-1.7,1.6-2.7c0.7-1,1.6-2.1,2.7-3.2
		c0.5-0.5,1.1-1.1,1.7-1.6c0.6-0.5,1.2-1,1.9-1.5c0.7-0.4,1.3-0.9,2-1.3c0.7-0.4,1.3-0.8,2-1.1c1.3-0.7,2.7-1.2,3.9-1.5
		c1.2-0.3,2.3-0.5,3.1-0.6c0.4-0.1,0.7-0.1,0.9-0.1c0.2,0,0.3,0,0.3,0l0.2,0.3c0,0-0.3,0.2-0.9,0.7c-0.6,0.4-1.3,1-2.3,1.7
		c-1.9,1.4-4.5,3.3-7,5.1c-2.6,1.8-5.2,3.6-7.1,5c-1,0.7-1.8,1.2-2.4,1.6c-0.6,0.4-0.9,0.6-0.9,0.6L687.7,280z"/>
</g>
<g id="XMLID_107_">
	<path id="XMLID_532_" d="M708.1,265.4c0,0,0-0.1-0.1-0.2c-0.1-0.2-0.2-0.4-0.3-0.7c-0.3-0.6-0.5-1.4-0.8-2.3
		c-0.2-0.9-0.3-2-0.3-3.1c0-0.6,0-1.1,0.1-1.7c0.1-0.6,0.2-1.1,0.3-1.7c0.2-0.6,0.3-1.1,0.5-1.7c0.2-0.5,0.4-1.1,0.7-1.6
		c0.5-1,1.1-1.9,1.7-2.6c0.6-0.7,1.2-1.3,1.7-1.7c0.2-0.2,0.5-0.4,0.6-0.5c0.2-0.1,0.2-0.2,0.2-0.2l0.4,0.1c0,0-0.1,0.3-0.2,0.8
		c-0.1,0.5-0.2,1.2-0.4,2.1c-0.4,1.7-0.9,4-1.4,6.2c-0.6,2.2-1.1,4.5-1.6,6.2c-0.2,0.8-0.4,1.5-0.6,2c-0.1,0.5-0.2,0.8-0.2,0.8
		L708.1,265.4z"/>
</g>
<g id="XMLID_106_">
	<path id="XMLID_518_" d="M712.8,247.6c0,0,0,0.1,0,0.3c0,0.2,0,0.4,0,0.7c0,0.6-0.1,1.3-0.2,2.2c-0.2,0.8-0.5,1.7-0.9,2.5
		c-0.2,0.4-0.4,0.8-0.7,1.2c-0.3,0.4-0.6,0.8-0.9,1.1c-0.3,0.3-0.7,0.7-1.1,1c-0.4,0.3-0.8,0.6-1.2,0.8c-0.8,0.5-1.6,0.9-2.4,1.1
		c-0.8,0.2-1.6,0.4-2.1,0.4c-0.3,0-0.5,0-0.7,0c-0.2,0-0.3,0-0.3,0l-0.3-0.3c0,0,0.2-0.2,0.4-0.5c0.3-0.3,0.6-0.8,1.1-1.4
		c1-1.1,2.2-2.6,3.5-4c1.3-1.4,2.7-2.8,3.7-3.9c0.5-0.5,0.9-1,1.2-1.3c0.3-0.3,0.5-0.5,0.5-0.5L712.8,247.6z"/>
</g>
<g id="XMLID_105_">
	<path id="XMLID_487_" d="M702.3,259.1c0,0,0,0.1,0,0.2c0,0.1,0,0.4,0,0.6c0,0.5-0.1,1.1-0.3,1.8c-0.2,0.7-0.5,1.3-0.9,1.9
		c-0.2,0.3-0.4,0.6-0.7,0.8c-0.2,0.3-0.5,0.5-0.8,0.7c-0.3,0.2-0.6,0.4-0.9,0.5c-0.3,0.2-0.7,0.3-1,0.3c-0.7,0.2-1.4,0.2-2.1,0.2
		c-0.7-0.1-1.3-0.2-1.8-0.3c-0.2-0.1-0.4-0.1-0.6-0.2c-0.1-0.1-0.2-0.1-0.2-0.1l-0.2-0.3c0,0,0.6-0.5,1.4-1.1c0.8-0.7,2-1.5,3.2-2.3
		c1.2-0.8,2.4-1.6,3.3-2.2c0.9-0.6,1.5-0.9,1.5-0.9L702.3,259.1z"/>
</g>
<g id="XMLID_104_">
	<path id="XMLID_467_" d="M694,267.8c0,0-0.1,0.1-0.3,0.2c-0.1,0.1-0.3,0.3-0.6,0.5c-0.5,0.4-1.2,0.9-2,1.3c-0.8,0.4-1.8,0.8-2.8,1
		c-0.5,0.1-1,0.2-1.6,0.3c-0.5,0.1-1.1,0.1-1.6,0.1c-0.5,0-1.1,0-1.6-0.1c-0.5-0.1-1.1-0.2-1.6-0.3c-1-0.2-2-0.6-2.8-1
		c-0.8-0.4-1.5-0.9-2-1.3c-0.2-0.2-0.2-0.4-0.3-0.5c-0.1-0.1,0-0.2,0-0.2v-0.4c0,0,0.1,0,0.5,0c0.5,0,1-0.1,1.9-0.1
		c1.6,0,3.7-0.1,5.9-0.1c2.2,0,4.3,0.1,5.9,0.1c0.8,0,1.5,0.1,2,0.1c0.5,0,0.8,0,0.8,0V267.8z"/>
</g>
<g id="XMLID_103_">
	<path id="XMLID_459_" d="M676.5,266.4c0,0,0.2-0.3,0.5-0.9c0.3-0.6,0.8-1.5,1.4-2.5c0.6-1.1,1.4-2.4,2.3-3.9c0.9-1.5,2-3.1,3.2-4.9
		c1.2-1.8,2.5-3.7,3.9-5.7c1.4-2,2.9-4.1,4.5-6.2c1.6-2.1,3.2-4.4,4.9-6.5c1.7-2.2,3.5-4.4,5.2-6.6c1.8-2.2,3.6-4.3,5.4-6.5
		c1.8-2.2,3.7-4.2,5.4-6.2c1.7-2,3.5-3.9,5.2-5.6c1.6-1.8,3.3-3.4,4.8-4.9c1.5-1.5,2.9-2.9,4.2-4.1c1.2-1.2,2.4-2.2,3.3-3.1
		c0.9-0.9,1.7-1.5,2.2-1.9c0.5-0.4,0.8-0.7,0.8-0.7l0.3,0.3c0,0-14.2,17.6-28.5,35.2c-14.4,17.5-28.8,35-28.8,35L676.5,266.4z"/>
</g>
<g id="XMLID_102_">
	<path id="XMLID_452_" d="M733.7,196.3c0,0-0.1-0.1-0.1-0.3c-0.1-0.2-0.2-0.4-0.3-0.7c-0.3-0.6-0.6-1.5-0.8-2.5
		c-0.2-1-0.4-2.2-0.4-3.4c0-0.6,0-1.2,0.1-1.8c0-0.6,0.2-1.2,0.3-1.9c0.1-0.6,0.3-1.2,0.5-1.8c0.2-0.6,0.4-1.2,0.6-1.7
		c0.5-1.1,1.1-2.1,1.7-3c0.6-0.8,1.2-1.5,1.7-2c0.2-0.2,0.5-0.4,0.6-0.5c0.2-0.1,0.2-0.2,0.2-0.2l0.4,0.1c0,0,0,0.3-0.1,0.9
		c-0.1,0.5-0.2,1.3-0.4,2.3c-0.3,1.9-0.8,4.3-1.3,6.8c-0.5,2.5-1.1,4.9-1.5,6.8c-0.2,0.9-0.4,1.7-0.5,2.2c-0.1,0.5-0.2,0.8-0.2,0.8
		L733.7,196.3z"/>
</g>
<g id="XMLID_101_">
	<path id="XMLID_428_" d="M737.7,176.5c0,0-0.1-0.1-0.2-0.2c-0.1-0.1-0.3-0.3-0.5-0.5c-0.4-0.4-1-1-1.5-1.8c-0.5-0.7-1-1.6-1.4-2.6
		c-0.2-0.5-0.3-1-0.5-1.5c-0.1-0.5-0.2-1-0.3-1.6c0-0.5-0.1-1.1-0.1-1.6c0-0.5,0-1.1,0.1-1.6c0.1-1,0.4-2,0.7-2.8
		c0.3-0.8,0.7-1.6,1.1-2.1c0.1-0.3,0.3-0.5,0.4-0.6c0.1-0.1,0.2-0.2,0.2-0.2l0.4,0c0,0,0,0.3,0.1,0.7c0.1,0.5,0.2,1.1,0.3,1.9
		c0.2,1.6,0.5,3.7,0.8,5.8c0.2,2.1,0.4,4.2,0.6,5.8c0.1,0.8,0.1,1.5,0.2,1.9c0,0.5,0.1,0.7,0.1,0.7L737.7,176.5z"/>
</g>
<g id="XMLID_100_">
	<path id="XMLID_423_" d="M736.1,159.6c0,0,0.1,0.1,0.2,0.2c0.1,0.1,0.3,0.3,0.4,0.6c0.3,0.5,0.7,1.2,1.1,2.1
		c0.3,0.8,0.6,1.8,0.7,2.8c0.1,0.5,0.1,1,0.1,1.6c0,0.5,0,1.1-0.1,1.6c-0.1,0.5-0.2,1.1-0.3,1.6c-0.1,0.5-0.3,1-0.5,1.5
		c-0.4,1-0.8,1.8-1.4,2.6c-0.5,0.7-1.1,1.3-1.5,1.8c-0.2,0.2-0.4,0.4-0.5,0.5c-0.1,0.1-0.2,0.2-0.2,0.2l-0.4,0c0,0,0-0.3,0.1-0.7
		c0-0.5,0.1-1.1,0.2-1.9c0.2-1.6,0.4-3.7,0.6-5.8c0.3-2.1,0.6-4.2,0.8-5.8c0.1-0.8,0.2-1.4,0.3-1.9c0.1-0.5,0.1-0.7,0.1-0.7
		L736.1,159.6z"/>
</g>
<g id="XMLID_99_">
	<path id="XMLID_419_" d="M734.1,176.6c0,0,0,0.1,0,0.4c0,0.2-0.1,0.6-0.2,1c-0.2,0.9-0.5,2-1,3.3c-0.5,1.3-1.2,2.8-2.1,4.2
		c-0.4,0.7-0.9,1.5-1.4,2.2c-0.5,0.7-1.1,1.4-1.6,2.1c-0.6,0.7-1.1,1.4-1.8,2c-0.6,0.7-1.2,1.3-1.8,1.8c-1.2,1.2-2.5,2.1-3.7,2.9
		c-1.2,0.8-2.2,1.4-3,1.7c-0.4,0.2-0.7,0.3-0.9,0.4c-0.2,0.1-0.4,0.1-0.4,0.1l-0.3-0.3c0,0,0.3-0.4,0.7-1c0.5-0.6,1.1-1.5,2-2.6
		c1.7-2.1,3.9-4.9,6.1-7.7c2.3-2.8,4.6-5.5,6.3-7.6c0.8-1,1.6-1.9,2.1-2.5c0.5-0.6,0.8-0.9,0.8-0.9L734.1,176.6z"/>
</g>
<g id="XMLID_98_">
	<path id="XMLID_397_" d="M715.7,198.8c0,0-0.1-0.3-0.2-0.8c-0.1-0.5-0.3-1.3-0.4-2.3c-0.2-1-0.4-2.2-0.5-3.5
		c-0.2-1.4-0.4-2.9-0.5-4.6c-0.2-1.7-0.3-3.5-0.4-5.4c-0.1-1.9-0.3-3.9-0.3-6c0-2.1-0.2-4.2-0.1-6.4c0-2.2,0.1-4.4,0.1-6.6
		c0.1-2.2,0.2-4.4,0.3-6.6c0.1-2.2,0.3-4.3,0.5-6.4c0.1-2.1,0.4-4.1,0.6-6c0.2-1.9,0.5-3.7,0.7-5.3c0.2-1.7,0.5-3.2,0.8-4.5
		c0.2-1.3,0.5-2.5,0.7-3.5c0.2-1,0.4-1.7,0.5-2.2c0.1-0.5,0.2-0.8,0.2-0.8l0.4,0c0,0-0.1,4.4-0.2,11.1c-0.2,6.6-0.4,15.5-0.7,24.4
		c-0.3,8.9-0.6,17.7-0.8,24.4c-0.3,6.6-0.4,11.1-0.4,11.1L715.7,198.8z"/>
</g>
<g id="XMLID_97_">
	<path id="XMLID_388_" d="M717.9,128c0,0-0.2-0.2-0.5-0.4c-0.3-0.3-0.7-0.7-1.3-1.3c-0.5-0.6-1.2-1.2-1.9-2.1
		c-0.7-0.8-1.5-1.7-2.3-2.7c-0.8-1-1.7-2.1-2.5-3.3c-0.9-1.2-1.8-2.5-2.7-3.8c-0.9-1.3-1.8-2.7-2.7-4.2c-0.9-1.4-1.7-2.9-2.6-4.4
		c-0.8-1.5-1.6-3-2.4-4.5c-0.8-1.5-1.5-3-2.2-4.5c-0.7-1.5-1.3-2.9-1.8-4.3c-0.6-1.4-1.1-2.7-1.5-3.9c-0.5-1.2-0.8-2.4-1.1-3.4
		c-0.3-1-0.6-1.9-0.8-2.7c-0.2-0.7-0.3-1.3-0.4-1.8c-0.1-0.4-0.1-0.6-0.1-0.6l0.3-0.2c0,0,1.7,3,4.3,7.4c2.5,4.5,5.9,10.4,9.2,16.4
		c3.3,6,6.6,12,9.1,16.5c2.4,4.5,4.1,7.5,4.1,7.5L717.9,128z"/>
</g>
<g id="XMLID_96_">
	<path id="XMLID_385_" d="M691.4,80.2c0,0,0,0.1-0.1,0.2c-0.1,0.1-0.2,0.3-0.4,0.4c-0.3,0.3-0.7,0.8-1.2,1.1c-0.5,0.4-1,0.6-1.6,0.8
		c-0.3,0.1-0.6,0.1-0.9,0.1c-0.3,0-0.6,0-0.9,0c-0.3-0.1-0.6-0.1-0.8-0.2c-0.3-0.1-0.5-0.2-0.8-0.4c-0.5-0.3-0.9-0.8-1.3-1.3
		c-0.4-0.5-0.6-1-0.8-1.4c-0.1-0.2-0.2-0.4-0.2-0.5c0-0.1-0.1-0.2-0.1-0.2l0.1-0.4c0,0,0.6,0,1.4,0.1c0.9,0.1,2,0.2,3.1,0.4
		c1.1,0.2,2.2,0.4,3.1,0.6c0.8,0.2,1.4,0.3,1.4,0.3L691.4,80.2z"/>
</g>
<g id="XMLID_95_">
	<path id="XMLID_382_" d="M682.6,78.5c0,0,0.1,0.1,0.4,0.3c0.2,0.2,0.6,0.5,1.1,1c0.4,0.4,1,1,1.5,1.6c0.6,0.6,1.2,1.3,1.8,2.1
		c0.7,0.8,1.4,1.7,2,2.6c0.7,0.9,1.4,2,2.1,3c0.7,1.1,1.4,2.2,2,3.3c0.7,1.1,1.3,2.3,1.9,3.5c0.6,1.2,1.2,2.4,1.8,3.6
		c0.6,1.2,1.1,2.4,1.5,3.6c0.5,1.2,0.9,2.3,1.3,3.4c0.4,1.1,0.7,2.2,1,3.2c0.3,1,0.5,1.9,0.7,2.7c0.2,0.8,0.3,1.6,0.4,2.2
		c0.1,0.6,0.2,1.1,0.2,1.4c0,0.3,0,0.5,0,0.5l-0.4,0.2c0,0-0.3-0.6-0.9-1.6c-0.6-1-1.4-2.5-2.3-4.3c-1.9-3.6-4.4-8.3-6.9-13.1
		c-2.4-4.8-4.9-9.6-6.7-13.2c-0.9-1.8-1.6-3.3-2.2-4.4c-0.5-1.1-0.8-1.7-0.8-1.7L682.6,78.5z"/>
</g>
<g id="XMLID_94_">
	<path id="XMLID_380_" d="M702.4,116.8c0,0,0,0.2,0.1,0.6c0.1,0.4,0.2,0.9,0.3,1.5c0.1,0.7,0.2,1.5,0.3,2.4c0.1,0.9,0.2,2,0.2,3.1
		c0.1,1.1,0.1,2.3,0.1,3.6c0,1.3,0,2.6-0.1,4c-0.1,1.4-0.2,2.8-0.3,4.3c-0.1,1.4-0.3,2.9-0.5,4.4c-0.2,1.5-0.5,2.9-0.7,4.3
		c-0.3,1.4-0.6,2.8-0.9,4.2c-0.3,1.4-0.7,2.6-1.1,3.9c-0.3,1.2-0.7,2.4-1.1,3.4c-0.3,1.1-0.7,2-1.1,2.9c-0.3,0.9-0.7,1.6-1,2.2
		c-0.3,0.6-0.5,1.1-0.7,1.4c-0.2,0.3-0.3,0.5-0.3,0.5l-0.4-0.1c0,0,0.4-2.9,1-7.3c0.6-4.4,1.4-10.2,2.3-16c0.9-5.8,1.8-11.6,2.4-16
		c0.7-4.4,1.2-7.3,1.2-7.3L702.4,116.8z"/>
</g>
<g id="XMLID_93_">
	<path id="XMLID_378_" d="M695.2,163.5c0,0-0.2-0.1-0.5-0.3c-0.3-0.2-0.8-0.4-1.3-0.8c-0.5-0.4-1.2-0.8-1.9-1.4
		c-0.7-0.5-1.5-1.1-2.3-1.9c-0.8-0.7-1.7-1.5-2.6-2.3c-0.9-0.8-1.9-1.7-2.8-2.7c-0.9-1-1.9-2-2.8-3c-0.9-1-1.8-2.1-2.7-3.2
		c-0.9-1.1-1.8-2.2-2.6-3.4c-0.8-1.1-1.6-2.3-2.4-3.4c-0.8-1.1-1.4-2.2-2-3.3c-0.7-1-1.2-2.1-1.7-3.1c-0.5-0.9-0.9-1.9-1.3-2.7
		c-0.4-0.8-0.7-1.5-0.9-2.1c-0.3-0.6-0.4-1.1-0.5-1.4c-0.1-0.3-0.2-0.5-0.2-0.5l0.3-0.3c0,0,0.5,0.5,1.3,1.5c0.8,1,1.9,2.3,3.3,4
		c2.7,3.3,6.3,7.7,9.9,12.1c3.6,4.5,7.1,8.9,9.8,12.2c1.3,1.7,2.4,3.1,3.2,4.1c0.8,1,1.2,1.5,1.2,1.5L695.2,163.5z"/>
</g>
<g id="XMLID_92_">
	<path id="XMLID_376_" d="M666.6,128c0,0-0.1-0.1-0.3-0.4c-0.2-0.2-0.6-0.6-0.9-1c-0.4-0.5-0.9-1-1.3-1.7c-0.5-0.6-1-1.4-1.6-2.2
		c-0.5-0.8-1.1-1.7-1.7-2.7c-0.6-1-1.1-2-1.7-3.1c-0.6-1.1-1.1-2.2-1.6-3.3c-0.5-1.1-1-2.3-1.5-3.5c-0.4-1.2-0.9-2.4-1.3-3.6
		c-0.4-1.2-0.8-2.4-1.1-3.6c-0.3-1.2-0.6-2.3-0.8-3.4c-0.2-1.1-0.4-2.1-0.6-3.1c-0.2-1-0.3-1.9-0.4-2.7c-0.1-0.8-0.1-1.5-0.2-2.1
		c0-0.6,0-1.1,0-1.4c0-0.3,0-0.5,0-0.5l0.4-0.1c0,0,0.2,0.6,0.7,1.6c0.4,1,1.1,2.5,1.8,4.3c1.4,3.6,3.3,8.3,5.2,13.1
		c1.8,4.8,3.7,9.6,5.1,13.2c0.7,1.8,1.2,3.3,1.6,4.3c0.4,1.1,0.6,1.7,0.6,1.7L666.6,128z"/>
</g>
<g id="XMLID_91_">
	<path id="XMLID_374_" d="M652,89.7c0,0,0.1,0.2,0.3,0.5c0.2,0.3,0.4,0.8,0.7,1.5c0.3,0.6,0.6,1.4,1,2.3c0.4,0.9,0.8,1.9,1.1,3
		c0.4,1.1,0.8,2.3,1.1,3.6c0.4,1.3,0.8,2.6,1.1,4c0.3,1.4,0.7,2.8,1,4.3c0.3,1.5,0.5,3,0.8,4.5c0.2,1.5,0.4,3,0.6,4.5
		c0.2,1.5,0.3,3,0.4,4.4c0.1,1.4,0.1,2.8,0.2,4.1c0.1,1.3,0,2.6,0,3.7c0,1.2-0.1,2.2-0.2,3.2c-0.1,0.9-0.2,1.8-0.2,2.5
		c-0.1,0.7-0.2,1.2-0.2,1.6c-0.1,0.4-0.1,0.6-0.1,0.6l-0.4,0.1c0,0-0.5-3-1.3-7.5c-0.7-4.5-1.7-10.5-2.7-16.6
		c-0.9-6-1.8-12.1-2.5-16.6c-0.6-4.5-1.1-7.6-1.1-7.6L652,89.7z"/>
</g>
<g id="XMLID_90_">
	<path id="XMLID_372_" d="M659.5,137.9c0,0,0.1,0.2,0.4,0.5c0.2,0.3,0.6,0.8,1.1,1.4c0.4,0.6,1,1.3,1.6,2.2c0.6,0.8,1.2,1.8,1.9,2.8
		c0.7,1.1,1.4,2.2,2,3.4c0.7,1.2,1.4,2.5,2.1,3.9c0.7,1.4,1.4,2.8,2.1,4.3c0.7,1.5,1.3,3,1.9,4.5c0.6,1.5,1.2,3,1.8,4.6
		c0.6,1.5,1.1,3,1.5,4.5c0.5,1.5,0.9,2.9,1.2,4.3c0.4,1.4,0.7,2.7,1,3.9c0.3,1.2,0.5,2.3,0.7,3.3c0.2,1,0.3,1.9,0.4,2.6
		c0.1,0.7,0.1,1.3,0.2,1.7c0,0.4,0,0.6,0,0.6l-0.4,0.2c0,0-1.3-3-3.2-7.5c-1.9-4.5-4.4-10.6-6.9-16.6c-2.5-6.1-4.9-12.1-6.8-16.7
		c-1.8-4.6-3-7.6-3-7.6L659.5,137.9z"/>
</g>
<g id="XMLID_89_">
	<path id="XMLID_370_" d="M679,186.6c0,0-0.1,0-0.2,0.1c-0.1,0-0.4,0.1-0.6,0.1c-0.5,0.1-1.2,0.1-2,0c-0.7-0.1-1.5-0.3-2.3-0.6
		c-0.4-0.2-0.7-0.3-1.1-0.5c-0.4-0.2-0.7-0.5-1-0.7c-0.3-0.3-0.6-0.6-0.9-0.9c-0.3-0.3-0.5-0.6-0.7-1c-0.4-0.7-0.7-1.4-0.9-2.2
		c-0.2-0.7-0.3-1.4-0.3-1.9c0-0.2,0-0.5,0-0.6c0-0.2,0-0.2,0-0.2l0.3-0.3c0,0,0.7,0.5,1.6,1.2c1,0.8,2.2,1.8,3.5,2.8
		c1.2,1.1,2.5,2.1,3.4,3c0.9,0.8,1.5,1.4,1.5,1.4L679,186.6z"/>
</g>
<g id="XMLID_88_">
	<path id="XMLID_368_" d="M669.4,177.9c0,0,0.1,0,0.2,0.1c0.1,0,0.3,0.1,0.5,0.2c0.4,0.2,1,0.5,1.5,0.8c0.5,0.4,1,0.8,1.3,1.3
		c0.2,0.3,0.3,0.5,0.5,0.8c0.1,0.3,0.2,0.6,0.3,0.9c0,0.3,0.1,0.6,0.1,0.9c0,0.3,0,0.6-0.1,0.9c-0.1,0.6-0.4,1.2-0.7,1.8
		c-0.3,0.5-0.7,1-1,1.4c-0.1,0.2-0.3,0.3-0.4,0.4c-0.1,0.1-0.2,0.1-0.2,0.1l-0.4,0.1c0,0-0.2-0.6-0.4-1.5c-0.2-0.9-0.5-2.1-0.8-3.3
		c-0.2-1.2-0.5-2.4-0.6-3.4c-0.1-0.9-0.2-1.5-0.2-1.5L669.4,177.9z"/>
</g>
<g id="XMLID_87_">
	<path id="XMLID_366_" d="M671.5,187.7c0,0,0,0.2,0.1,0.7c0.1,0.4,0.2,1.1,0.3,1.9c0.1,0.8,0.2,1.9,0.3,3c0.1,1.2,0.2,2.5,0.2,3.9
		c0.1,1.4,0.1,3,0.1,4.6c0,1.6,0,3.3-0.1,5.1c-0.1,1.8-0.1,3.6-0.3,5.4c-0.1,1.8-0.3,3.7-0.5,5.6c-0.2,1.9-0.4,3.7-0.7,5.6
		c-0.2,1.8-0.6,3.6-0.9,5.4c-0.3,1.7-0.7,3.4-1,5c-0.3,1.6-0.7,3.1-1.1,4.5c-0.3,1.4-0.7,2.6-1.1,3.8c-0.3,1.1-0.7,2.1-0.9,2.9
		c-0.3,0.8-0.5,1.4-0.7,1.8c-0.2,0.4-0.3,0.7-0.3,0.7l-0.4,0c0,0,0.4-3.7,0.9-9.3c0.6-5.6,1.4-13.1,2.1-20.6
		c0.8-7.5,1.7-14.9,2.3-20.5c0.7-5.6,1.1-9.3,1.1-9.3L671.5,187.7z"/>
</g>
<g id="XMLID_86_">
	<path id="XMLID_359_" d="M664.9,247.6c0,0,0,0.1,0,0.3c0,0.2,0.1,0.4,0.1,0.7c0.1,0.6,0.1,1.3,0,2.1c-0.1,0.8-0.3,1.7-0.7,2.5
		c-0.2,0.4-0.4,0.8-0.6,1.2c-0.2,0.4-0.5,0.8-0.8,1.1c-0.3,0.3-0.6,0.7-0.9,1c-0.3,0.3-0.7,0.6-1.1,0.9c-0.7,0.5-1.5,0.9-2.3,1.2
		c-0.8,0.3-1.5,0.4-2.1,0.5c-0.3,0-0.5,0-0.7,0.1c-0.2,0-0.3,0-0.3,0l-0.3-0.3c0,0,0.5-0.8,1.4-1.9c0.8-1.1,2-2.6,3.1-4
		c1.2-1.4,2.3-2.9,3.2-3.9c0.9-1,1.5-1.7,1.5-1.7L664.9,247.6z"/>
</g>
<g id="XMLID_85_">
	<path id="XMLID_353_" d="M655.6,259.1c0,0-0.3,0.2-0.8,0.5c-0.5,0.3-1.2,0.8-2.2,1.3c-1,0.5-2.1,1.2-3.5,1.8
		c-1.3,0.7-2.9,1.5-4.5,2.2c-1.7,0.8-3.5,1.6-5.4,2.5c-1.9,0.8-4,1.7-6.1,2.6c-2.1,0.8-4.3,1.8-6.6,2.5c-2.3,0.8-4.6,1.6-6.9,2.5
		c-2.3,0.7-4.7,1.5-7,2.2c-2.3,0.8-4.6,1.3-6.8,2c-2.2,0.7-4.4,1.2-6.4,1.7c-2,0.5-4,1-5.8,1.4c-1.8,0.4-3.5,0.7-4.9,1
		c-1.5,0.3-2.8,0.5-3.9,0.7c-1.1,0.2-1.9,0.3-2.5,0.3c-0.6,0.1-0.9,0.1-0.9,0.1l-0.1-0.4c0,0,18.5-6.4,37-12.8
		c18.6-6.2,37.1-12.4,37.1-12.4L655.6,259.1z"/>
</g>
<g id="XMLID_84_">
	<path id="XMLID_347_" d="M581.3,284c0,0,0.1-0.2,0.2-0.5c0.2-0.3,0.4-0.8,0.7-1.3c0.3-0.6,0.7-1.2,1.1-2c0.4-0.7,1-1.6,1.6-2.4
		c0.6-0.9,1.2-1.8,2-2.8c0.7-1,1.5-1.9,2.3-2.9c0.8-1,1.7-2,2.6-3c0.9-1,1.9-2,2.9-3c1-1,2-1.9,3-2.8c1-0.9,2-1.8,3-2.6
		c1-0.8,2-1.6,3-2.3c1-0.7,1.9-1.3,2.8-1.9c0.9-0.6,1.7-1.1,2.5-1.5c0.7-0.4,1.4-0.8,2-1.1c0.6-0.3,1-0.5,1.3-0.6
		c0.3-0.1,0.5-0.2,0.5-0.2l0.3,0.3c0,0-0.5,0.5-1.3,1.4c-0.8,0.9-2.1,2.1-3.5,3.6c-2.9,2.9-6.8,6.8-10.8,10.7
		c-4,3.8-7.9,7.7-10.9,10.6c-1.5,1.4-2.7,2.6-3.6,3.5c-0.9,0.8-1.4,1.3-1.4,1.3L581.3,284z"/>
</g>
<g id="XMLID_83_">
	<path id="XMLID_341_" d="M612.7,253.2c0,0-0.1,0-0.2-0.1c-0.1-0.1-0.3-0.2-0.5-0.3c-0.4-0.3-0.9-0.7-1.4-1.2
		c-0.5-0.5-0.9-1.1-1.3-1.8c-0.2-0.3-0.3-0.7-0.4-1c-0.1-0.4-0.2-0.7-0.2-1.1c0-0.4-0.1-0.7,0-1.1c0-0.4,0.1-0.7,0.2-1.1
		c0.2-0.7,0.5-1.4,0.8-2c0.4-0.6,0.8-1.1,1.1-1.5c0.2-0.2,0.3-0.3,0.4-0.4c0.1-0.1,0.2-0.2,0.2-0.2l0.4,0c0,0,0.1,0.7,0.3,1.8
		c0.2,1.1,0.4,2.6,0.6,4.1c0.2,1.5,0.3,3,0.4,4.1c0.1,1.1,0.1,1.9,0.1,1.9L612.7,253.2z"/>
</g>
<g id="XMLID_82_">
	<path id="XMLID_335_" d="M611.7,241.4c0,0,0,0.1,0.1,0.2c0.1,0.1,0.2,0.3,0.3,0.5c0.2,0.4,0.5,1,0.7,1.6c0.2,0.6,0.3,1.2,0.3,1.9
		c0,0.3,0,0.6-0.1,0.9c-0.1,0.3-0.2,0.6-0.3,0.9c-0.1,0.3-0.3,0.6-0.5,0.8c-0.2,0.3-0.4,0.5-0.6,0.7c-0.5,0.4-1,0.8-1.6,1
		c-0.6,0.2-1.2,0.4-1.6,0.5c-0.2,0.1-0.4,0.1-0.6,0.1c-0.1,0-0.2,0-0.2,0l-0.4-0.2c0,0,0.2-0.6,0.5-1.5c0.3-0.9,0.8-2,1.3-3.1
		c0.5-1.1,1.1-2.2,1.5-3.1c0.4-0.8,0.7-1.4,0.7-1.4L611.7,241.4z"/>
</g>
<g id="XMLID_81_">
	<path id="XMLID_329_" d="M607.5,250.5c0,0-0.1,0.2-0.2,0.4c-0.2,0.3-0.4,0.7-0.7,1.2c-0.3,0.5-0.7,1.1-1.2,1.8
		c-0.5,0.7-1,1.4-1.6,2.2c-0.6,0.8-1.3,1.6-2,2.4c-0.7,0.8-1.5,1.7-2.4,2.5c-0.9,0.9-1.8,1.7-2.7,2.6c-0.9,0.9-1.9,1.7-2.9,2.5
		c-1,0.8-2,1.6-3,2.3c-1,0.8-2,1.5-3.1,2.1c-1,0.7-2,1.3-3,1.8c-1,0.6-1.9,1-2.8,1.5c-0.9,0.5-1.7,0.8-2.4,1.2
		c-0.7,0.3-1.4,0.6-2,0.8c-0.5,0.2-1,0.3-1.3,0.5c-0.3,0.1-0.5,0.1-0.5,0.1l-0.3-0.3c0,0,0.5-0.4,1.3-1.1c0.9-0.7,2.1-1.8,3.6-3
		c3-2.4,6.9-5.7,10.9-9c4-3.2,8-6.4,11-8.8c1.5-1.2,2.8-2.2,3.7-2.9c0.9-0.7,1.4-1.1,1.4-1.1L607.5,250.5z"/>
</g>
<g id="XMLID_80_">
	<path id="XMLID_323_" d="M575.3,276.1c0,0,0.1-0.2,0.2-0.6c0.1-0.4,0.3-0.9,0.5-1.6c0.2-0.7,0.5-1.5,0.9-2.4c0.4-0.9,0.8-2,1.3-3.1
		c0.5-1.1,1-2.3,1.7-3.5c0.6-1.2,1.3-2.5,2-3.8c0.7-1.3,1.5-2.6,2.4-4c0.8-1.3,1.7-2.7,2.6-4c0.9-1.3,1.8-2.6,2.8-3.9
		c0.9-1.3,1.9-2.5,2.8-3.6c0.9-1.2,1.9-2.3,2.8-3.3c0.9-1,1.8-2,2.7-2.9c0.8-0.9,1.7-1.6,2.4-2.3c0.7-0.7,1.4-1.3,1.9-1.7
		c0.5-0.5,1-0.8,1.3-1.1c0.3-0.2,0.5-0.4,0.5-0.4l0.3,0.2c0,0-1.8,2.7-4.4,6.6c-2.7,4-6.3,9.2-9.8,14.5c-3.6,5.2-7.3,10.5-10,14.4
		c-2.8,3.9-4.6,6.5-4.6,6.5L575.3,276.1z"/>
</g>
<g id="XMLID_79_">
	<path id="XMLID_317_" d="M602.9,235c0,0-0.1-0.1-0.2-0.4c-0.1-0.3-0.3-0.8-0.5-1.4c-0.2-0.6-0.4-1.3-0.6-2.2
		c-0.2-0.9-0.5-1.8-0.7-2.9c-0.2-1.1-0.4-2.2-0.6-3.4c-0.2-1.2-0.4-2.5-0.5-3.8c-0.1-1.3-0.2-2.7-0.3-4.1c-0.1-1.4-0.1-2.8-0.1-4.2
		c0-1.4,0-2.8,0.1-4.2c0.1-1.4,0.2-2.8,0.3-4.1c0.1-1.3,0.3-2.6,0.5-3.8c0.1-1.2,0.4-2.4,0.6-3.4c0.2-1.1,0.4-2,0.6-2.9
		c0.2-0.9,0.4-1.6,0.6-2.2c0.2-0.6,0.4-1,0.5-1.4c0.1-0.3,0.2-0.4,0.2-0.4h0.4c0,0,0,0.6,0,1.9c0,1.2,0,3,0.1,5.1
		c0,4.3,0.1,9.9,0.1,15.6c0,5.7-0.1,11.3-0.1,15.6c0,2.1-0.1,3.8-0.1,5c0,1.2,0,1.8,0,1.8H602.9z"/>
</g>
<g id="XMLID_78_">
	<path id="XMLID_311_" d="M604.5,189.9c0,0,0,0.1,0.1,0.3c0.1,0.2,0.2,0.4,0.3,0.7c0.2,0.6,0.5,1.4,0.7,2.4c0.2,1,0.3,2,0.3,3.1
		c0,0.6-0.1,1.1-0.1,1.7c-0.1,0.6-0.2,1.1-0.3,1.7c-0.2,0.6-0.3,1.1-0.5,1.7c-0.2,0.5-0.4,1.1-0.7,1.6c-0.5,1-1.1,1.9-1.8,2.6
		c-0.6,0.7-1.3,1.3-1.8,1.7c-0.2,0.2-0.5,0.3-0.6,0.5c-0.2,0.1-0.2,0.2-0.2,0.2l-0.4-0.1c0,0,0.1-0.3,0.2-0.8
		c0.1-0.5,0.2-1.2,0.5-2.1c0.4-1.7,1-4,1.5-6.2c0.6-2.2,1.2-4.5,1.7-6.2c0.2-0.8,0.5-1.5,0.6-2c0.1-0.5,0.2-0.8,0.2-0.8L604.5,189.9
		z"/>
</g>
<g id="XMLID_77_">
	<path id="XMLID_308_" d="M599.8,207.8c0,0,0.1,0.1,0.2,0.3c0.1,0.2,0.3,0.5,0.4,0.8c0.3,0.7,0.7,1.7,1,2.8c0.3,1.1,0.5,2.5,0.7,3.9
		c0,0.7,0.1,1.4,0.1,2.2c0,0.7-0.1,1.5-0.1,2.2c-0.1,0.7-0.2,1.5-0.3,2.2c-0.1,0.7-0.3,1.4-0.5,2.1c-0.4,1.4-0.9,2.6-1.4,3.7
		c-0.5,1.1-1.1,1.9-1.6,2.5c-0.2,0.3-0.4,0.5-0.6,0.7c-0.1,0.2-0.2,0.2-0.2,0.2l-0.4,0c0,0,0-0.4,0.1-1c0.1-0.6,0.1-1.6,0.2-2.7
		c0.2-2.2,0.5-5.2,0.7-8.1c0.3-2.9,0.7-5.9,0.9-8.1c0.1-1.1,0.3-2,0.3-2.7c0.1-0.6,0.1-1,0.1-1L599.8,207.8z"/>
</g>
<g id="XMLID_119_">
	<line id="XMLID_306_" class="st1" x1="493" y1="430.9" x2="479.7" y2="424.5"/>
	<path id="XMLID_305_" class="st1" d="M492.9,431.1c0,0-0.1,0-0.2,0.1c-0.1,0.1-0.4,0.2-0.6,0.2c-0.5,0.2-1.3,0.3-2.1,0.4
		c-0.8,0.1-1.7,0.1-2.6-0.1c-0.4-0.1-0.9-0.2-1.3-0.3c-0.4-0.1-0.9-0.3-1.3-0.5c-0.4-0.2-0.8-0.4-1.2-0.7c-0.4-0.3-0.7-0.5-1.1-0.8
		c-0.7-0.6-1.2-1.3-1.7-2c-0.4-0.7-0.7-1.4-0.9-1.9c-0.1-0.2-0.2-0.5-0.2-0.6c0-0.2-0.1-0.2-0.1-0.2l0.2-0.4c0,0,0.9,0.4,2.1,0.9
		c1.3,0.6,2.9,1.4,4.6,2.1c1.7,0.8,3.3,1.6,4.5,2.3c1.2,0.7,2,1.1,2,1.1L492.9,431.1z"/>
</g>
<g id="XMLID_120_">
	<line id="XMLID_303_" class="st1" x1="479.7" y1="424.5" x2="473.3" y2="416.1"/>
	<path id="XMLID_302_" class="st1" d="M479.6,424.6c0,0-0.1,0-0.2,0c-0.1,0-0.4,0-0.6,0c-0.5,0-1.1,0-1.8-0.2
		c-0.6-0.1-1.3-0.4-1.9-0.7c-0.3-0.2-0.6-0.4-0.8-0.6c-0.3-0.2-0.5-0.5-0.7-0.7c-0.2-0.3-0.4-0.5-0.5-0.8c-0.2-0.3-0.3-0.6-0.4-0.9
		c-0.2-0.6-0.2-1.3-0.2-2c0-0.7,0.2-1.3,0.3-1.7c0-0.2,0.1-0.4,0.2-0.6c0.1-0.1,0.1-0.2,0.1-0.2l0.3-0.2c0,0,0.4,0.5,1.1,1.2
		c0.6,0.8,1.5,1.8,2.3,2.8c0.8,1.1,1.6,2.1,2.2,2.9c0.6,0.8,0.9,1.4,0.9,1.4L479.6,424.6z"/>
</g>
<g id="XMLID_122_">
	<path id="XMLID_300_" d="M493.4,430.8c0,0,0-0.1,0.1-0.2c0-0.1,0.1-0.4,0.2-0.6c0.2-0.5,0.5-1.2,0.9-1.9c0.4-0.7,1-1.4,1.7-2
		c0.3-0.3,0.7-0.6,1.1-0.8c0.4-0.3,0.8-0.5,1.2-0.7c0.4-0.2,0.8-0.4,1.3-0.5c0.4-0.1,0.9-0.3,1.3-0.3c0.9-0.2,1.8-0.2,2.6-0.1
		c0.8,0.1,1.5,0.3,2.1,0.4c0.3,0.1,0.5,0.2,0.6,0.2c0.2,0.1,0.2,0.1,0.2,0.1l0.2,0.4c0,0-0.8,0.5-2,1.1c-1.2,0.7-2.9,1.5-4.5,2.3
		c-1.7,0.8-3.3,1.6-4.6,2.1c-1.3,0.6-2.1,0.9-2.1,0.9L493.4,430.8z"/>
</g>
<g id="XMLID_121_">
	<path id="XMLID_298_" d="M506.7,424.3c0,0,0-0.1-0.1-0.2c0-0.1-0.1-0.3-0.2-0.6c-0.1-0.5-0.2-1.1-0.3-1.7c0-0.7,0-1.3,0.2-2
		c0.1-0.3,0.2-0.6,0.4-0.9c0.1-0.3,0.3-0.6,0.5-0.8c0.2-0.2,0.4-0.5,0.7-0.7c0.2-0.2,0.5-0.4,0.8-0.6c0.6-0.3,1.2-0.6,1.9-0.7
		c0.6-0.1,1.3-0.2,1.8-0.2c0.2,0,0.5,0,0.6,0c0.1,0,0.2,0,0.2,0l0.3,0.2c0,0-0.4,0.6-0.9,1.4c-0.6,0.8-1.4,1.9-2.2,2.9
		c-0.8,1-1.6,2.1-2.3,2.8c-0.7,0.8-1.1,1.2-1.1,1.2L506.7,424.3z"/>
</g>
<g id="XMLID_123_">
	<line id="XMLID_296_" class="st1" x1="471.9" y1="416.1" x2="492.6" y2="411.8"/>
	<path id="XMLID_295_" class="st1" d="M471.9,415.9c0,0,0.1-0.1,0.2-0.2c0.1-0.1,0.3-0.4,0.6-0.6c0.5-0.5,1.2-1.1,2.1-1.8
		c0.9-0.6,1.9-1.2,3.1-1.7c0.6-0.2,1.2-0.5,1.8-0.7c0.6-0.2,1.3-0.3,1.9-0.5c0.7-0.1,1.3-0.2,2-0.3c0.6-0.1,1.3-0.1,1.9-0.1
		c1.3,0,2.5,0.1,3.5,0.3c1.1,0.2,2,0.5,2.6,0.8c0.3,0.1,0.6,0.3,0.8,0.3c0.2,0.1,0.3,0.1,0.3,0.1l0.1,0.4c0,0-0.3,0.1-0.9,0.2
		c-0.6,0.1-1.4,0.4-2.3,0.6c-1.9,0.4-4.5,1-7.1,1.6c-2.6,0.5-5.2,1-7.1,1.4c-1,0.2-1.8,0.3-2.4,0.4c-0.6,0.1-0.9,0.2-0.9,0.2
		L471.9,415.9z"/>
</g>
<g id="XMLID_124_">
	<line id="XMLID_293_" class="st1" x1="471.9" y1="416.1" x2="458.5" y2="388.3"/>
	<path id="XMLID_292_" class="st1" d="M471.8,416.2c0,0-0.1-0.1-0.3-0.2c-0.2-0.2-0.5-0.4-0.9-0.7c-0.7-0.6-1.7-1.5-2.7-2.6
		c-1-1.1-2.1-2.5-3.1-4c-0.5-0.8-1-1.6-1.5-2.4c-0.5-0.8-0.9-1.7-1.3-2.5c-0.4-0.9-0.8-1.8-1.2-2.6c-0.4-0.9-0.7-1.8-1-2.6
		c-0.6-1.7-1-3.4-1.2-4.9c-0.2-1.5-0.3-2.8-0.4-3.7c0-0.5,0-0.8,0-1.1c0-0.3,0-0.4,0-0.4l0.4-0.2c0,0,0.2,0.4,0.6,1.2
		c0.4,0.8,1,1.8,1.6,3.1c1.3,2.6,3,6.1,4.7,9.5c1.7,3.5,3.3,7,4.6,9.6c0.6,1.3,1.1,2.4,1.5,3.2c0.3,0.8,0.5,1.2,0.5,1.2L471.8,416.2
		z"/>
</g>
<g id="XMLID_125_">
	<line id="XMLID_290_" class="st1" x1="458.5" y1="388.3" x2="465.2" y2="367.2"/>
	<path id="XMLID_289_" class="st1" d="M458.3,388.2c0,0,0-0.1-0.1-0.3c-0.1-0.2-0.2-0.5-0.2-0.8c-0.2-0.7-0.4-1.7-0.5-2.8
		c-0.1-1.1-0.1-2.4,0.1-3.7c0.1-0.7,0.2-1.3,0.3-2c0.1-0.7,0.3-1.3,0.5-2c0.2-0.7,0.4-1.3,0.7-1.9c0.3-0.6,0.6-1.2,0.9-1.8
		c0.6-1.2,1.4-2.2,2.1-3.1c0.7-0.9,1.4-1.5,2-2c0.3-0.2,0.5-0.4,0.7-0.5c0.2-0.1,0.3-0.2,0.3-0.2l0.4,0.1c0,0-0.1,0.3-0.3,0.9
		c-0.2,0.6-0.4,1.4-0.7,2.4c-0.6,2-1.4,4.6-2.2,7.3c-0.9,2.6-1.7,5.2-2.4,7.2c-0.3,1-0.6,1.8-0.8,2.4c-0.2,0.6-0.3,0.9-0.3,0.9
		L458.3,388.2z"/>
</g>
<g id="XMLID_126_">
	<line id="XMLID_287_" class="st1" x1="464" y1="367" x2="464" y2="358"/>
	<path id="XMLID_286_" class="st1" d="M463.9,367c0,0-0.1-0.1-0.2-0.1c-0.1-0.1-0.3-0.2-0.5-0.3c-0.4-0.2-0.9-0.6-1.3-1
		c-0.4-0.4-0.8-0.9-1-1.4c-0.1-0.3-0.2-0.5-0.3-0.8c-0.1-0.3-0.1-0.5-0.1-0.8c0-0.3,0-0.5,0.1-0.8c0.1-0.3,0.2-0.5,0.3-0.8
		c0.2-0.5,0.6-1,1-1.4c0.4-0.4,0.9-0.7,1.3-1c0.2-0.1,0.4-0.4,0.5-0.4c0.1-0.1,0.2-0.3,0.2-0.3h0.4c0,0,0.1,0.7,0.1,1.5
		c0.1,0.8,0.1,2,0.1,3c0,1.1,0,2.2-0.1,3c-0.1,0.8-0.1,1.4-0.1,1.4H463.9z"/>
</g>
<g id="XMLID_127_">
	<line id="XMLID_284_" class="st1" x1="465.2" y1="358.3" x2="458.5" y2="352.9"/>
	<path id="XMLID_283_" class="st1" d="M465.1,358.5c0,0-0.1,0-0.2,0.1c-0.1,0-0.3,0.1-0.5,0.2c-0.4,0.2-1,0.3-1.6,0.4
		c-0.6,0.1-1.2,0.1-1.7,0c-0.3-0.1-0.5-0.1-0.8-0.3c-0.3-0.1-0.5-0.3-0.7-0.4c-0.2-0.2-0.4-0.4-0.6-0.6c-0.2-0.2-0.3-0.5-0.4-0.7
		c-0.2-0.5-0.4-1.1-0.4-1.7c0-0.6,0-1.2,0-1.6c0-0.2,0.1-0.4,0.1-0.5c0-0.1,0-0.2,0-0.2l0.3-0.3c0,0,0.5,0.3,1.1,0.8
		c0.7,0.5,1.5,1.1,2.4,1.8c0.8,0.7,1.7,1.4,2.3,1.9c0.6,0.5,1,0.9,1,0.9L465.1,358.5z"/>
</g>
<g id="XMLID_128_">
	<line id="XMLID_281_" class="st1" x1="458.5" y1="352.9" x2="452" y2="354.5"/>
	<path id="XMLID_280_" class="st1" d="M458.5,353.1c0,0,0,0.1,0,0.2c0,0.1,0,0.3-0.1,0.5c-0.1,0.4-0.2,0.9-0.4,1.4
		c-0.2,0.5-0.5,0.9-0.8,1.3c-0.2,0.2-0.3,0.3-0.5,0.4c-0.2,0.1-0.4,0.2-0.6,0.2c-0.2,0-0.4,0.1-0.6,0c-0.2,0-0.4-0.1-0.7-0.1
		c-0.4-0.1-0.9-0.4-1.3-0.8c-0.4-0.3-0.8-0.7-1-1.1c-0.1-0.1-0.2-0.3-0.3-0.4c-0.1-0.1-0.1-0.2-0.1-0.2l-0.1-0.4c0,0,0.4-0.2,1-0.4
		c0.6-0.2,1.4-0.4,2.2-0.6c0.8-0.2,1.6-0.4,2.2-0.5c0.6-0.1,1-0.1,1-0.1L458.5,353.1z"/>
</g>
<g id="XMLID_129_">
	<line id="XMLID_278_" class="st1" x1="452" y1="354.5" x2="449.6" y2="348.9"/>
	<path id="XMLID_277_" class="st1" d="M451.8,354.6c0,0-0.1,0-0.2,0c-0.1,0-0.3,0-0.5,0c-0.4,0-0.9,0-1.5-0.1
		c-0.5-0.1-1-0.3-1.3-0.5c-0.2-0.1-0.4-0.2-0.5-0.4c-0.1-0.1-0.2-0.3-0.3-0.5c-0.1-0.2-0.1-0.4-0.1-0.6c0-0.2,0-0.4,0-0.6
		c0.1-0.4,0.3-0.9,0.6-1.3c0.3-0.4,0.6-0.8,0.9-1.1c0.1-0.1,0.3-0.3,0.4-0.4c0.1-0.1,0.2-0.1,0.2-0.1l0.4-0.2c0,0,0.2,0.3,0.5,0.8
		c0.3,0.5,0.6,1.2,0.9,1.9c0.3,0.7,0.6,1.4,0.7,2c0.2,0.6,0.3,0.9,0.3,0.9L451.8,354.6z"/>
</g>
<g id="XMLID_130_">
	<line id="XMLID_275_" class="st1" x1="449.6" y1="348.9" x2="458.5" y2="332.4"/>
	<path id="XMLID_274_" class="st1" d="M449.4,348.8c0,0,0-0.1-0.1-0.3c0-0.2-0.1-0.4-0.1-0.8c-0.1-0.6-0.2-1.5-0.1-2.5
		c0-1,0.2-2.1,0.5-3.1c0.2-0.5,0.3-1.1,0.6-1.6c0.2-0.5,0.5-1.1,0.7-1.6c0.3-0.5,0.6-1,0.9-1.5c0.3-0.5,0.7-0.9,1.1-1.4
		c0.7-0.8,1.6-1.6,2.3-2.1c0.8-0.6,1.6-1,2.1-1.3c0.3-0.1,0.5-0.2,0.7-0.3c0.2-0.1,0.3-0.1,0.3-0.1l0.4,0.2c0,0-0.1,0.3-0.4,0.7
		c-0.2,0.5-0.5,1.1-0.9,1.9c-0.8,1.6-1.9,3.6-3,5.7c-1.1,2-2.3,4.1-3.1,5.6c-0.4,0.8-0.8,1.4-1.1,1.8c-0.3,0.4-0.4,0.7-0.4,0.7
		L449.4,348.8z"/>
</g>
<g id="XMLID_131_">
	<line id="XMLID_272_" class="st1" x1="458.5" y1="332.4" x2="453.1" y2="324.1"/>
	<path id="XMLID_271_" class="st1" d="M458.3,332.5c0,0-0.1,0-0.2,0c-0.1,0-0.4,0-0.6,0c-0.5,0-1.1-0.1-1.7-0.2
		c-0.6-0.2-1.2-0.4-1.7-0.8c-0.3-0.2-0.5-0.4-0.7-0.6c-0.2-0.2-0.4-0.5-0.6-0.7c-0.2-0.3-0.3-0.5-0.4-0.8c-0.1-0.3-0.2-0.6-0.2-0.9
		c-0.1-0.6-0.1-1.3,0-1.9c0.1-0.6,0.3-1.2,0.5-1.6c0.1-0.2,0.2-0.4,0.2-0.5c0.1-0.1,0.1-0.2,0.1-0.2l0.3-0.2c0,0,0.4,0.5,0.9,1.2
		c0.5,0.7,1.2,1.8,1.9,2.8c0.7,1,1.3,2.1,1.8,2.9c0.5,0.8,0.7,1.4,0.7,1.4L458.3,332.5z"/>
</g>
<g id="XMLID_132_">
	<line id="XMLID_269_" class="st1" x1="453.1" y1="324.1" x2="455.8" y2="314.8"/>
	<path id="XMLID_268_" class="st1" d="M452.9,324.1c0,0-0.1-0.1-0.2-0.2c-0.1-0.1-0.2-0.3-0.4-0.4c-0.3-0.4-0.6-0.9-0.9-1.4
		c-0.3-0.6-0.5-1.2-0.6-1.8c0-0.3-0.1-0.6,0-0.9c0-0.3,0.1-0.6,0.2-0.9c0.1-0.3,0.2-0.6,0.4-0.8c0.1-0.3,0.3-0.5,0.5-0.8
		c0.4-0.5,0.9-0.9,1.4-1.2c0.5-0.3,1.1-0.5,1.5-0.7c0.2-0.1,0.4-0.1,0.5-0.2c0.1,0,0.2-0.1,0.2-0.1l0.4,0.1c0,0-0.1,0.6-0.3,1.5
		c-0.2,0.9-0.5,2-0.8,3.2c-0.3,1.2-0.7,2.3-1,3.2c-0.3,0.9-0.5,1.4-0.5,1.4L452.9,324.1z"/>
</g>
<g id="XMLID_142_">
	<path id="XMLID_266_" d="M514.2,416.3c0,0-0.1,0.1-0.3,0.1c-0.2,0.1-0.4,0.2-0.8,0.3c-0.6,0.3-1.6,0.6-2.6,0.8
		c-1.1,0.2-2.3,0.3-3.5,0.3c-0.6,0-1.3,0-1.9-0.1c-0.7-0.1-1.3-0.2-2-0.3c-0.6-0.2-1.3-0.3-1.9-0.5c-0.6-0.2-1.2-0.4-1.8-0.7
		c-1.2-0.5-2.2-1.1-3.1-1.7c-0.9-0.6-1.6-1.3-2.1-1.8c-0.2-0.2-0.4-0.5-0.6-0.6c-0.1-0.2-0.2-0.2-0.2-0.2l0.1-0.4
		c0,0,0.3,0.1,0.9,0.2c0.6,0.1,1.4,0.2,2.4,0.4c2,0.4,4.6,0.9,7.2,1.4c2.6,0.6,5.2,1.1,7.1,1.6c1,0.2,1.8,0.4,2.3,0.6
		c0.6,0.1,0.9,0.2,0.9,0.2L514.2,416.3z"/>
</g>
<g id="XMLID_141_">
	<path id="XMLID_264_" d="M514.1,416c0,0,0-0.1,0-0.4c0-0.3,0-0.6,0-1.1c0-0.9,0.1-2.2,0.4-3.7c0.3-1.5,0.7-3.2,1.2-4.9
		c0.3-0.9,0.6-1.8,1-2.6c0.3-0.9,0.8-1.8,1.2-2.6c0.4-0.9,0.9-1.7,1.4-2.5c0.5-0.8,1-1.6,1.5-2.4c1-1.5,2.1-2.9,3.1-4
		c1-1.1,2-2,2.7-2.6c0.3-0.3,0.7-0.5,0.9-0.7c0.2-0.1,0.3-0.2,0.3-0.2l0.4,0.2c0,0-0.2,0.4-0.6,1.2c-0.4,0.8-0.8,1.9-1.5,3.2
		c-1.2,2.6-2.9,6.1-4.6,9.6c-1.7,3.5-3.4,6.9-4.7,9.5c-0.6,1.3-1.2,2.4-1.6,3.1c-0.4,0.8-0.6,1.2-0.6,1.2L514.1,416z"/>
</g>
<g id="XMLID_140_">
	<path id="XMLID_262_" d="M527.6,388.3c0,0-0.1-0.1-0.3-0.2c-0.2-0.1-0.4-0.3-0.7-0.5c-0.6-0.5-1.3-1.1-2-2
		c-0.7-0.9-1.4-1.9-2.1-3.1c-0.3-0.6-0.6-1.2-0.9-1.8c-0.3-0.6-0.5-1.3-0.7-1.9c-0.2-0.7-0.4-1.3-0.5-2c-0.2-0.7-0.3-1.3-0.3-2
		c-0.2-1.3-0.2-2.6-0.1-3.7c0.1-1.1,0.3-2.1,0.5-2.8c0.1-0.3,0.2-0.6,0.2-0.8c0.1-0.2,0.1-0.3,0.1-0.3l0.4-0.1c0,0,0.1,0.3,0.3,0.9
		c0.2,0.6,0.5,1.4,0.8,2.4c0.7,2,1.5,4.6,2.4,7.2c0.8,2.6,1.6,5.3,2.2,7.3c0.3,1,0.5,1.8,0.7,2.4c0.2,0.6,0.3,0.9,0.3,0.9
		L527.6,388.3z"/>
</g>
<g id="XMLID_138_">
	<path id="XMLID_260_" d="M520.9,358.2c0,0,0-0.1,0-0.2c0-0.1-0.1-0.3-0.1-0.5c-0.1-0.5-0.1-1,0-1.6c0.1-0.6,0.2-1.2,0.4-1.7
		c0.1-0.3,0.3-0.5,0.4-0.7c0.2-0.2,0.4-0.4,0.6-0.6c0.2-0.2,0.4-0.3,0.7-0.4c0.2-0.1,0.5-0.2,0.8-0.3c0.6-0.1,1.2-0.1,1.7,0
		c0.6,0.1,1.1,0.2,1.6,0.4c0.2,0.1,0.4,0.2,0.5,0.2c0.1,0.1,0.2,0.1,0.2,0.1l0.2,0.3c0,0-0.4,0.4-1,0.9c-0.6,0.5-1.4,1.2-2.3,1.9
		c-0.9,0.7-1.7,1.3-2.4,1.8c-0.7,0.5-1.1,0.8-1.1,0.8L520.9,358.2z"/>
</g>
<g id="XMLID_137_">
	<path id="XMLID_258_" d="M527.9,352.7c0,0,0-0.1,0.1-0.2c0.1-0.1,0.2-0.3,0.3-0.4c0.3-0.3,0.6-0.7,1-1.1c0.4-0.3,0.9-0.6,1.3-0.8
		c0.2-0.1,0.4-0.1,0.7-0.1c0.2,0,0.4,0,0.6,0.1c0.2,0.1,0.4,0.1,0.6,0.3c0.2,0.1,0.4,0.3,0.5,0.4c0.3,0.3,0.6,0.8,0.8,1.3
		c0.2,0.5,0.3,1,0.4,1.4c0,0.2,0.1,0.4,0.1,0.5c0,0.1,0,0.2,0,0.2l-0.1,0.4c0,0-0.4,0-1-0.1c-0.6-0.1-1.4-0.3-2.2-0.5
		c-0.8-0.2-1.6-0.4-2.2-0.6c-0.6-0.2-1-0.4-1-0.4L527.9,352.7z"/>
</g>
<g id="XMLID_136_">
	<path id="XMLID_256_" d="M534.1,354.5c0,0-0.1,0-0.2-0.1c-0.1-0.1-0.2-0.2-0.4-0.4c-0.3-0.3-0.6-0.7-0.9-1.1
		c-0.3-0.4-0.5-0.9-0.6-1.3c0-0.2-0.1-0.4,0-0.6c0-0.2,0.1-0.4,0.1-0.6c0.1-0.2,0.2-0.3,0.3-0.5c0.1-0.2,0.3-0.3,0.5-0.4
		c0.4-0.2,0.8-0.4,1.3-0.5c0.5-0.1,1-0.1,1.5-0.1c0.2,0,0.4,0,0.5,0c0.1,0,0.2,0,0.2,0l0.4,0.2c0,0-0.1,0.4-0.3,0.9
		c-0.2,0.6-0.5,1.3-0.7,2c-0.3,0.7-0.6,1.4-0.9,1.9c-0.3,0.5-0.5,0.8-0.5,0.8L534.1,354.5z"/>
</g>
<g id="XMLID_135_">
	<path id="XMLID_254_" d="M536.5,349c0,0-0.1,0-0.3-0.1c-0.2-0.1-0.4-0.2-0.7-0.3c-0.6-0.3-1.3-0.7-2.1-1.3
		c-0.8-0.6-1.6-1.3-2.3-2.1c-0.4-0.4-0.7-0.9-1.1-1.4c-0.3-0.5-0.6-1-0.9-1.5c-0.3-0.5-0.5-1-0.7-1.6c-0.2-0.5-0.4-1.1-0.6-1.6
		c-0.3-1.1-0.5-2.2-0.5-3.1c0-1,0-1.8,0.1-2.5c0-0.3,0.1-0.6,0.1-0.8c0-0.2,0.1-0.3,0.1-0.3l0.4-0.2c0,0,0.1,0.3,0.4,0.7
		c0.3,0.4,0.6,1.1,1.1,1.8c0.9,1.5,2,3.6,3.1,5.6c1.1,2.1,2.2,4.1,3,5.7c0.4,0.8,0.7,1.4,0.9,1.9c0.2,0.5,0.4,0.7,0.4,0.7L536.5,349
		z"/>
</g>
<g id="XMLID_134_">
	<path id="XMLID_252_" d="M527.7,332.3c0,0,0-0.1-0.1-0.2c-0.1-0.1-0.2-0.3-0.2-0.5c-0.2-0.4-0.4-1-0.5-1.6c-0.1-0.6-0.1-1.3,0-1.9
		c0.1-0.3,0.1-0.6,0.2-0.9c0.1-0.3,0.3-0.6,0.4-0.8c0.2-0.2,0.4-0.5,0.6-0.7c0.2-0.2,0.5-0.4,0.7-0.6c0.5-0.3,1.1-0.6,1.7-0.8
		c0.6-0.2,1.2-0.2,1.7-0.2c0.2,0,0.4,0,0.6,0c0.1,0,0.2,0,0.2,0l0.3,0.2c0,0-0.3,0.5-0.7,1.4c-0.5,0.8-1.1,1.9-1.8,2.9
		c-0.7,1-1.4,2.1-1.9,2.8c-0.5,0.7-0.9,1.2-0.9,1.2L527.7,332.3z"/>
</g>
<g id="XMLID_133_">
	<path id="XMLID_250_" d="M533,324.2c0,0-0.1,0-0.2,0c-0.1,0-0.3-0.1-0.5-0.2c-0.4-0.1-1-0.4-1.5-0.7c-0.5-0.3-1-0.7-1.4-1.2
		c-0.2-0.2-0.4-0.5-0.5-0.8c-0.2-0.3-0.2-0.6-0.3-0.8c-0.1-0.3-0.1-0.6-0.1-0.9c0-0.3,0-0.6,0-0.9c0.1-0.6,0.3-1.2,0.6-1.8
		c0.3-0.6,0.6-1,0.9-1.4c0.1-0.2,0.3-0.3,0.4-0.4c0.1-0.1,0.2-0.2,0.2-0.2l0.4-0.1c0,0,0.2,0.6,0.5,1.4c0.3,0.9,0.7,2,1,3.2
		c0.3,1.2,0.6,2.3,0.8,3.2c0.2,0.9,0.3,1.5,0.3,1.5L533,324.2z"/>
</g>
<g id="XMLID_139_">
	<path id="XMLID_248_" d="M518.7,367c0,0-0.1-0.1-0.2-0.1c-0.1-0.1-0.3-0.2-0.5-0.3c-0.4-0.2-0.9-0.6-1.3-1c-0.4-0.4-0.8-0.9-1-1.4
		c-0.1-0.3-0.2-0.5-0.3-0.8c-0.1-0.3-0.1-0.5-0.1-0.8c0-0.3,0-0.5,0.1-0.8c0.1-0.3,0.2-0.5,0.3-0.8c0.2-0.5,0.6-1,1-1.4
		c0.4-0.4,0.9-0.7,1.3-1c0.2-0.1,0.4-0.4,0.5-0.4c0.1-0.1,0.2-0.3,0.2-0.3h0.4c0,0,0.1,0.7,0.1,1.5c0.1,0.8,0.1,2,0.1,3
		c0,1.1,0,2.2-0.1,3c-0.1,0.8-0.1,1.4-0.1,1.4H518.7z"/>
</g>
<g id="XMLID_39_">
	<line id="XMLID_246_" class="st1" x1="388.3" y1="231.4" x2="473.3" y2="308.9"/>
	<path id="XMLID_245_" class="st1" d="M388.5,231.3c0,0,0.4,0.3,1.1,0.7c0.7,0.5,1.8,1.2,3,2.1c1.3,0.9,2.9,2,4.6,3.4
		c1.8,1.3,3.8,2.8,5.9,4.5c2.1,1.7,4.4,3.5,6.8,5.4c2.4,2,4.9,4,7.5,6.2c2.5,2.2,5.3,4.4,7.9,6.8c2.6,2.4,5.3,4.7,8,7.1
		c2.6,2.5,5.3,4.9,7.8,7.3c2.6,2.4,5,4.9,7.5,7.2c2.4,2.3,4.7,4.7,6.9,6.9c2.2,2.2,4.2,4.3,6,6.3c1.9,2,3.5,3.8,5,5.4
		c1.5,1.6,2.7,3.1,3.8,4.3c1,1.2,1.8,2.2,2.4,2.8c0.5,0.7,0.8,1,0.8,1l-0.3,0.3c0,0-21.3-19.3-42.6-38.6
		c-21.2-19.4-42.3-38.9-42.3-38.9L388.5,231.3z"/>
</g>
<g id="XMLID_76_">
	<line id="XMLID_243_" class="st1" x1="473" y1="311" x2="492" y2="311"/>
	<path id="XMLID_242_" class="st1" d="M473,310.6c0,0-0.1-0.1,0.1-0.2c0.1-0.1,0.3-0.3,0.5-0.5c0.5-0.4,1.3-0.9,2.2-1.3
		c0.9-0.4,2-0.8,3.1-1c0.6-0.1,1.1-0.2,1.7-0.3c0.6-0.1,1.2-0.1,1.8-0.1c0.6,0,1.2,0,1.8,0.1c0.6,0.1,1.2,0.2,1.7,0.3
		c1.1,0.2,2.2,0.6,3.1,1c0.9,0.4,1.7,0.9,2.2,1.3c0.3,0.2,0.4,0.4,0.6,0.5c0.1,0.1,0.2,0.2,0.2,0.2v0.4c0,0-0.3,0-0.8,0
		c-0.5,0-1.3,0.1-2.2,0.1c-1.8,0-4.2,0.1-6.6,0.1c-2.4,0-4.8-0.1-6.7-0.1c-0.9,0-1.5-0.1-2.1-0.1c-0.5,0-0.7,0-0.7,0V310.6z"/>
</g>
<g id="XMLID_144_">
	<path id="XMLID_240_" d="M596.8,231.6c0,0-0.3,0.4-0.8,1c-0.5,0.6-1.3,1.6-2.4,2.8c-1,1.2-2.3,2.7-3.8,4.3c-1.5,1.6-3.1,3.5-5,5.4
		c-1.9,2-3.9,4.1-6.1,6.3c-2.2,2.2-4.5,4.6-6.9,6.9c-2.4,2.3-4.9,4.8-7.5,7.2c-2.6,2.4-5.2,4.9-7.9,7.3c-2.7,2.4-5.4,4.8-8,7.1
		c-2.6,2.4-5.3,4.6-7.9,6.8c-2.6,2.2-5.1,4.2-7.5,6.2c-2.4,2-4.7,3.8-6.8,5.4c-2.1,1.7-4.1,3.2-5.9,4.5c-1.8,1.3-3.3,2.4-4.6,3.4
		c-1.3,0.9-2.3,1.6-3,2.1c-0.7,0.5-1.1,0.7-1.1,0.7l-0.3-0.3c0,0,21.2-19.4,42.5-38.9c21.4-19.3,42.7-38.6,42.7-38.6L596.8,231.6z"
		/>
</g>
<g id="XMLID_143_">
	<path id="XMLID_238_" d="M512,311c0,0,0.1,0.1,0,0.2c-0.1,0.1-0.2,0.3-0.5,0.5c-0.5,0.4-1.2,0.9-2.1,1.3c-0.9,0.4-1.9,0.8-3.1,1
		c-0.6,0.1-1.1,0.2-1.7,0.3c-0.6,0.1-1.2,0.1-1.8,0.1c-0.6,0-1.2,0-1.8-0.1c-0.6-0.1-1.2-0.2-1.8-0.3c-1.1-0.2-2.2-0.6-3.1-1
		c-0.9-0.4-1.7-0.9-2.2-1.3c-0.3-0.2-0.5-0.4-0.6-0.5c-0.1-0.1-0.2-0.2-0.2-0.2v-0.4c0,0,0.3,0,0.8,0c0.5,0,1.3-0.1,2.2-0.1
		c1.8,0,4.2-0.1,6.7-0.1c2.4,0,4.9,0.1,6.7,0.1c0.9,0,1.5,0.1,2,0.1c0.5,0,0.6,0,0.6,0V311z"/>
</g>
<g id="XMLID_145_">
	<line id="XMLID_236_" class="st1" x1="465.2" y1="363.7" x2="458.5" y2="360.7"/>
	<path id="XMLID_235_" class="st1" d="M465.1,363.9c0,0-0.1,0.1-0.2,0.1c-0.1,0.1-0.2,0.2-0.4,0.3c-0.3,0.3-0.8,0.6-1.3,0.8
		c-0.5,0.3-1,0.4-1.5,0.5c-0.2,0-0.5,0-0.7,0c-0.2,0-0.5-0.1-0.7-0.2c-0.2-0.1-0.4-0.2-0.6-0.4c-0.2-0.1-0.3-0.3-0.5-0.5
		c-0.3-0.4-0.5-0.9-0.7-1.4c-0.1-0.5-0.2-1.1-0.2-1.5c0-0.2,0-0.4,0-0.5c0-0.1,0-0.2,0-0.2l0.2-0.4c0,0,0.4,0.1,1.1,0.4
		c0.7,0.2,1.5,0.6,2.4,0.9c0.8,0.4,1.7,0.8,2.3,1.1c0.6,0.3,1,0.6,1,0.6L465.1,363.9z"/>
</g>
<g id="XMLID_146_">
	<line id="XMLID_233_" class="st1" x1="458.5" y1="360.7" x2="453.1" y2="354.5"/>
	<path id="XMLID_232_" class="st1" d="M458.3,360.9c0,0-0.1,0-0.2,0.1c-0.1,0-0.3,0.1-0.5,0.1c-0.4,0.1-1,0.1-1.6,0.1
		c-0.6,0-1.1-0.1-1.6-0.3c-0.2-0.1-0.5-0.2-0.7-0.4c-0.2-0.1-0.4-0.3-0.6-0.5c-0.2-0.2-0.3-0.4-0.4-0.6c-0.1-0.2-0.2-0.5-0.3-0.7
		c-0.1-0.5-0.1-1.1-0.1-1.7c0.1-0.6,0.2-1.1,0.4-1.5c0.1-0.2,0.1-0.4,0.2-0.5c0.1-0.1,0.1-0.2,0.1-0.2l0.3-0.3c0,0,0.4,0.4,0.9,0.9
		c0.5,0.5,1.2,1.3,1.9,2.1c0.7,0.8,1.3,1.6,1.8,2.2c0.5,0.6,0.8,1,0.8,1L458.3,360.9z"/>
</g>
<g id="XMLID_148_">
	<path id="XMLID_230_" d="M520.7,363.5c0,0,0-0.1,0-0.2c0-0.1,0-0.3,0-0.5c0-0.4,0.1-1,0.2-1.5c0.1-0.5,0.4-1,0.7-1.4
		c0.1-0.2,0.3-0.4,0.5-0.5c0.2-0.2,0.4-0.3,0.6-0.4c0.2-0.1,0.4-0.2,0.7-0.2c0.2,0,0.5,0,0.7,0c0.5,0.1,1,0.2,1.5,0.5
		c0.5,0.3,0.9,0.6,1.3,0.8c0.2,0.1,0.3,0.3,0.4,0.3c0.1,0.1,0.2,0.1,0.2,0.1l0.2,0.4c0,0-0.4,0.2-1,0.6c-0.6,0.3-1.5,0.7-2.3,1.1
		c-0.9,0.4-1.7,0.7-2.4,0.9c-0.7,0.2-1.1,0.4-1.1,0.4L520.7,363.5z"/>
</g>
<g id="XMLID_147_">
	<path id="XMLID_228_" d="M527.4,360.6c0,0,0-0.1-0.1-0.2c0-0.1-0.1-0.3-0.2-0.5c-0.1-0.4-0.3-1-0.4-1.6c-0.1-0.6-0.1-1.2,0.1-1.7
		c0.1-0.3,0.1-0.5,0.3-0.7c0.1-0.2,0.3-0.4,0.4-0.6c0.2-0.2,0.4-0.4,0.6-0.5c0.2-0.2,0.4-0.3,0.7-0.4c0.5-0.2,1.1-0.3,1.7-0.3
		c0.6,0,1.1,0.1,1.6,0.1c0.2,0,0.4,0.1,0.5,0.1c0.1,0,0.2,0.1,0.2,0.1l0.3,0.3c0,0-0.3,0.4-0.8,1c-0.5,0.6-1.1,1.4-1.8,2.2
		c-0.7,0.8-1.4,1.5-1.9,2.1c-0.5,0.5-0.9,0.9-0.9,0.9L527.4,360.6z"/>
</g>
<g id="XMLID_149_">
	<line id="XMLID_226_" class="st1" x1="492.6" y1="406.9" x2="484.3" y2="402.2"/>
	<path id="XMLID_225_" class="st1" d="M492.5,407.1c0,0-0.1,0-0.2,0.1c-0.1,0.1-0.3,0.2-0.5,0.3c-0.4,0.2-1,0.4-1.6,0.6
		c-0.6,0.1-1.2,0.2-1.9,0.2c-0.3,0-0.6-0.1-0.9-0.2c-0.3-0.1-0.6-0.2-0.8-0.4c-0.3-0.2-0.5-0.3-0.7-0.5c-0.2-0.2-0.4-0.4-0.6-0.7
		c-0.4-0.5-0.6-1.1-0.8-1.7c-0.2-0.6-0.3-1.2-0.3-1.7c0-0.2,0-0.4,0-0.6c0-0.1,0-0.2,0-0.2l0.2-0.3c0,0,0.5,0.2,1.4,0.6
		c0.8,0.4,1.9,1,2.9,1.5c1,0.6,2.1,1.2,2.8,1.7c0.8,0.5,1.2,0.8,1.2,0.8L492.5,407.1z"/>
</g>
<g id="XMLID_150_">
	<line id="XMLID_223_" class="st1" x1="484.3" y1="402.2" x2="486.4" y2="397.7"/>
	<path id="XMLID_222_" class="st1" d="M484.1,402.1c0,0-0.1,0-0.2-0.1c-0.1-0.1-0.2-0.2-0.4-0.3c-0.3-0.3-0.6-0.7-0.9-1
		c-0.3-0.4-0.5-0.8-0.6-1.2c-0.1-0.2-0.1-0.4-0.1-0.5c0-0.2,0.1-0.3,0.1-0.5c0.1-0.1,0.2-0.3,0.3-0.4c0.1-0.1,0.3-0.2,0.4-0.3
		c0.3-0.2,0.8-0.2,1.3-0.3c0.5,0,1,0,1.4,0c0.2,0,0.4,0,0.5,0.1c0.1,0,0.2,0,0.2,0l0.4,0.2c0,0-0.1,0.3-0.2,0.7
		c-0.1,0.4-0.4,1-0.6,1.6c-0.3,0.6-0.5,1.1-0.8,1.5c-0.2,0.4-0.4,0.6-0.4,0.6L484.1,402.1z"/>
</g>
<g id="XMLID_151_">
	<line id="XMLID_220_" class="st1" x1="486.4" y1="397.7" x2="492.6" y2="400"/>
	<path id="XMLID_219_" class="st1" d="M486.4,397.5c0,0,0-0.1,0.1-0.2c0.1-0.1,0.2-0.2,0.4-0.4c0.3-0.3,0.7-0.7,1.1-1
		c0.4-0.3,0.9-0.5,1.4-0.6c0.2,0,0.5-0.1,0.7-0.1c0.2,0,0.4,0.1,0.6,0.1c0.2,0.1,0.4,0.2,0.6,0.3c0.2,0.1,0.3,0.3,0.5,0.5
		c0.3,0.4,0.5,0.8,0.7,1.3c0.1,0.5,0.2,1,0.3,1.5c0,0.2,0,0.4,0,0.5c0,0.1,0,0.2,0,0.2l-0.1,0.4c0,0-0.4-0.1-1-0.2
		c-0.6-0.2-1.4-0.4-2.2-0.7c-0.8-0.3-1.6-0.6-2.1-0.8c-0.6-0.3-0.9-0.5-0.9-0.5L486.4,397.5z"/>
</g>
<g id="XMLID_154_">
	<path id="XMLID_217_" d="M493.7,406.7c0,0,0-0.1,0-0.2c0-0.1,0-0.4,0-0.6c0-0.5,0.1-1.1,0.3-1.7c0.2-0.6,0.5-1.2,0.8-1.7
		c0.2-0.2,0.4-0.5,0.6-0.7c0.2-0.2,0.5-0.4,0.7-0.5c0.3-0.1,0.5-0.3,0.8-0.3c0.3-0.1,0.6-0.1,0.9-0.2c0.6-0.1,1.3,0,1.9,0.2
		c0.6,0.2,1.2,0.4,1.6,0.6c0.2,0.1,0.4,0.2,0.5,0.3c0.1,0.1,0.2,0.1,0.2,0.1l0.2,0.3c0,0-0.5,0.3-1.3,0.8c-0.8,0.5-1.8,1.1-2.8,1.7
		c-1.1,0.6-2.1,1.2-2.9,1.5c-0.8,0.4-1.4,0.6-1.4,0.6L493.7,406.7z"/>
</g>
<g id="XMLID_153_">
	<path id="XMLID_215_" d="M502,402.3c0,0-0.1,0-0.2,0c-0.1,0-0.3,0-0.5,0.1c-0.4,0-0.9,0.1-1.4,0c-0.5,0-0.9-0.1-1.3-0.3
		c-0.2-0.1-0.3-0.2-0.4-0.3c-0.1-0.1-0.2-0.2-0.3-0.4c0-0.1-0.1-0.3-0.1-0.5c0-0.2,0-0.3,0.1-0.5c0.1-0.4,0.3-0.8,0.6-1.2
		c0.3-0.4,0.6-0.8,0.9-1c0.1-0.1,0.3-0.3,0.4-0.3c0.1-0.1,0.2-0.1,0.2-0.1l0.4-0.2c0,0,0.2,0.3,0.4,0.6c0.2,0.4,0.5,0.9,0.8,1.5
		c0.2,0.6,0.5,1.1,0.6,1.6c0.1,0.4,0.2,0.7,0.2,0.7L502,402.3z"/>
</g>
<g id="XMLID_152_">
	<path id="XMLID_213_" d="M500.2,397.9c0,0,0,0.1,0,0.2c0,0.1,0,0.3,0,0.5c0,0.4-0.1,1-0.3,1.5c-0.2,0.5-0.4,1-0.7,1.3
		c-0.1,0.2-0.3,0.4-0.5,0.5c-0.2,0.1-0.4,0.2-0.6,0.3c-0.2,0.1-0.4,0.1-0.6,0.1c-0.2,0-0.4,0-0.7-0.1c-0.5-0.1-0.9-0.3-1.4-0.6
		c-0.4-0.3-0.8-0.7-1.1-1c-0.1-0.1-0.3-0.3-0.4-0.4c-0.1-0.1-0.1-0.2-0.1-0.2l-0.1-0.4c0,0,0.4-0.2,0.9-0.5c0.6-0.3,1.4-0.6,2.1-0.8
		c0.8-0.3,1.6-0.5,2.2-0.7c0.6-0.2,1-0.2,1-0.2L500.2,397.9z"/>
</g>
<g id="XMLID_155_">
	<path id="XMLID_211_" d="M493.2,322c0,0,0.1,0,0.2,0.4c0.1,0.4,0.3,0.9,0.5,1.7c0.2,0.8,0.4,1.6,0.6,2.7c0.2,1.1,0.5,2.3,0.7,3.6
		c0.2,1.3,0.4,2.7,0.6,4.2c0.2,1.5,0.4,3.1,0.5,4.7c0.1,1.6,0.3,3.3,0.3,5.1c0.1,1.7,0.1,3.5,0.1,5.2c0,1.8,0,3.5-0.1,5.2
		c0,1.7-0.2,3.4-0.3,5.1c-0.1,1.6-0.3,3.2-0.5,4.7c-0.1,1.5-0.4,2.9-0.6,4.3c-0.2,1.3-0.4,2.5-0.6,3.6c-0.2,1.1-0.4,2-0.6,2.8
		c-0.2,0.8-0.4,1.5-0.5,1.9c-0.1,0.4-0.2,0.8-0.2,0.8h-0.4c0,0,0-3.6-0.1-8.9c0-5.3-0.1-12.3-0.1-19.4c0-7,0.1-13.9,0.1-19.1
		c0.1-5.3,0.1-8.6,0.1-8.6H493.2z"/>
</g>
</svg>
