<?xml version="1.0" encoding="utf-8"?>
<!-- Generator: Adobe Illustrator 19.0.0, SVG Export Plug-In . SVG Version: 6.00 Build 0)  -->
<svg version="1.1" id="Layer_1" xmlns="http://www.w3.org/2000/svg" xmlns:xlink="http://www.w3.org/1999/xlink" x="0px" y="0px"
	 viewBox="0 0 960 560" style="enable-background:new 0 0 960 560;" xml:space="preserve">
<style type="text/css">
	.st0{fill:none;stroke:#FFFFFF;stroke-width:2;stroke-miterlimit:10;}
	.st1{fill:#FFFFFF;}
	.st2{fill:none;stroke:#000000;stroke-width:2;stroke-miterlimit:10;}
	.st3{fill:none;}
	.st4{fill:none;stroke:#000000;stroke-miterlimit:10;}
</style>
<g id="XMLID_3_">
	<g id="XMLID_6_">
	</g>
	<g id="XMLID_7_">
		<line id="XMLID_156_" class="st0" x1="296.5" y1="219" x2="316" y2="226.3"/>
	</g>
</g>
<g id="XMLID_15_">
	<line id="XMLID_665_" class="st1" x1="296.5" y1="219" x2="297.5" y2="216.3"/>
	<path id="XMLID_664_" class="st1" d="M296.4,219c0,0-0.2-0.8-0.2-1.6c0-0.2-0.1-0.4,0-0.6c0.1-0.2,0.2-0.3,0.4-0.4
		c0.3-0.2,0.8-0.2,0.8-0.2l0.2,0.1c0,0,0.4,0.3,0.5,0.7c0.1,0.2,0.1,0.4,0.1,0.5c-0.1,0.2-0.3,0.3-0.4,0.4c-0.5,0.6-1.2,1.1-1.2,1.1
		L296.4,219z"/>
</g>
<g id="XMLID_17_">
	<line id="XMLID_662_" class="st1" x1="286.4" y1="186.3" x2="297.5" y2="216.3"/>
	<path id="XMLID_661_" class="st1" d="M286.5,186.2c0,0,0.8,1.8,2,4.6c1.2,2.8,2.7,6.5,4.2,10.2c0.8,1.9,1.6,3.7,2.3,5.4
		c0.6,1.8,1.2,3.4,1.5,4.9c0.8,2.9,1.1,4.9,1.1,4.9l-0.2,0.1c0,0-1.1-1.7-2.4-4.4c-0.6-1.4-1.3-3-2-4.7c-0.6-1.8-1.2-3.7-1.8-5.6
		c-1.2-3.8-2.5-7.6-3.4-10.5c-0.9-2.9-1.5-4.8-1.5-4.8L286.5,186.2z"/>
</g>
<g id="XMLID_19_">
	<line id="XMLID_659_" class="st1" x1="286.4" y1="186.3" x2="289.3" y2="178.8"/>
	<path id="XMLID_658_" class="st1" d="M286.4,186.2c0,0,0.3-2,0.8-4c0.1-0.5,0.1-1,0.3-1.5c0.2-0.4,0.4-0.8,0.7-1.1
		c0.5-0.6,1.1-0.9,1.1-0.9l0.2,0.1c0,0,0.2,0.6,0.2,1.4c0,0.4-0.1,0.8-0.2,1.3c-0.2,0.4-0.5,0.8-0.8,1.3c-0.9,1.8-2.1,3.5-2.1,3.5
		L286.4,186.2z"/>
</g>
<g id="XMLID_21_">
	<line id="XMLID_656_" class="st1" x1="289" y1="179" x2="289" y2="162"/>
	<path id="XMLID_655_" class="st1" d="M288.6,179c0,0-0.1-1.1-0.3-2.7c-0.2-1.6-0.3-3.7-0.4-5.8c-0.1-1.1-0.2-2.1-0.2-3.1
		c0-1,0.1-1.9,0.2-2.7c0.3-1.6,0.7-2.7,0.7-2.7h0.2c0,0,0.4,1.1,0.7,2.7c0.1,0.8,0.2,1.7,0.2,2.7c0,1-0.2,2.1-0.2,3.1
		c-0.2,2.1-0.3,4.3-0.4,5.8c-0.1,1.6-0.3,2.7-0.3,2.7H288.6z"/>
</g>
<g id="XMLID_12_">
	<g id="XMLID_18_">
	</g>
	<g id="XMLID_20_">
		<line id="XMLID_8_" class="st2" x1="336.3" y1="219" x2="316.8" y2="226.3"/>
	</g>
</g>
<g id="XMLID_11_">
	<path id="XMLID_583_" d="M336.2,219c0,0-0.7-0.5-1.2-1.1c-0.1-0.2-0.3-0.3-0.4-0.4c-0.1-0.2,0-0.3,0.1-0.5c0.1-0.3,0.5-0.7,0.5-0.7
		l0.2-0.1c0,0,0.5,0,0.8,0.2c0.2,0.1,0.3,0.2,0.4,0.4c0,0.2,0,0.4,0,0.6c0,0.8-0.1,1.6-0.1,1.6L336.2,219z"/>
</g>
<g id="XMLID_10_">
	<path id="XMLID_581_" d="M346.5,186.3c0,0-0.6,1.9-1.5,4.8c-0.9,2.9-2.2,6.7-3.4,10.5c-0.6,1.9-1.2,3.8-1.8,5.6
		c-0.7,1.8-1.4,3.4-2,4.7c-1.3,2.7-2.4,4.4-2.4,4.4l-0.2-0.1c0,0,0.3-2,1.1-4.9c0.4-1.5,0.9-3.1,1.6-4.9c0.7-1.8,1.5-3.6,2.3-5.4
		c1.5-3.7,3-7.4,4.2-10.2c1.2-2.8,2-4.6,2-4.6L346.5,186.3z"/>
</g>
<g id="XMLID_9_">
	<path id="XMLID_579_" d="M346.3,186.3c0,0-1.1-1.7-2.1-3.5c-0.2-0.4-0.6-0.9-0.8-1.3c-0.2-0.4-0.2-0.9-0.2-1.3
		c0-0.8,0.2-1.4,0.2-1.4l0.2-0.1c0,0,0.6,0.3,1.1,0.9c0.3,0.3,0.5,0.7,0.7,1.1c0.2,0.4,0.2,1,0.3,1.5c0.5,2,0.8,4,0.8,4L346.3,186.3
		z"/>
</g>
<g id="XMLID_2_">
	<path id="XMLID_577_" d="M342.9,179c0,0-0.1-1.1-0.3-2.7c-0.2-1.6-0.3-3.7-0.4-5.8c-0.1-1.1-0.2-2.1-0.2-3.1c0-1,0.1-1.9,0.2-2.7
		c0.3-1.6,0.7-2.7,0.7-2.7h0.2c0,0,0.4,1.1,0.7,2.7c0.1,0.8,0.2,1.7,0.2,2.7c0,1-0.2,2.1-0.2,3.1c-0.2,2.1-0.3,4.3-0.4,5.8
		c-0.1,1.6-0.3,2.7-0.3,2.7H342.9z"/>
</g>
<g id="XMLID_23_">
	<line id="XMLID_653_" class="st1" x1="289.2" y1="162.5" x2="285.7" y2="157.2"/>
	<path id="XMLID_652_" class="st1" d="M289.1,162.6c0,0-1.3-1.1-2.3-2.3c-0.3-0.3-0.6-0.5-0.8-0.8c-0.2-0.3-0.3-0.7-0.4-1
		c-0.1-0.6,0-1.2,0-1.2l0.2-0.1c0,0,0.6,0.1,1.1,0.5c0.3,0.2,0.6,0.4,0.8,0.7c0.2,0.3,0.3,0.7,0.4,1.1c0.7,1.5,1.2,3,1.2,3
		L289.1,162.6z"/>
</g>
<g id="XMLID_24_">
	<line id="XMLID_650_" class="st1" x1="285.7" y1="157.2" x2="272.3" y2="158.8"/>
	<path id="XMLID_649_" class="st1" d="M285.7,157.3c0,0-3.3,0.9-6.6,1.5c-0.8,0.2-1.6,0.4-2.4,0.5c-0.8,0.1-1.5,0.1-2.2,0
		c-1.3-0.1-2.2-0.4-2.2-0.4l0-0.2c0,0,0.8-0.5,2-1c0.6-0.2,1.3-0.4,2.1-0.5c0.8-0.1,1.6,0,2.5-0.1c3.4-0.2,6.8-0.1,6.8-0.1
		L285.7,157.3z"/>
</g>
<g id="XMLID_25_">
	<line id="XMLID_647_" class="st1" x1="272.3" y1="158.8" x2="259.9" y2="149.1"/>
	<path id="XMLID_646_" class="st1" d="M272.3,158.9c0,0-0.9-0.5-2.1-1.3c-1.3-0.8-2.9-1.9-4.6-3c-0.8-0.6-1.7-1-2.4-1.6
		c-0.7-0.6-1.3-1.2-1.8-1.8c-1-1.1-1.5-2.1-1.5-2.1l0.1-0.2c0,0,1.1,0.3,2.4,1c0.7,0.4,1.4,0.8,2.1,1.4c0.7,0.6,1.4,1.3,2.1,2
		c1.5,1.3,2.9,2.7,4,3.7c1.1,1,1.8,1.7,1.8,1.7L272.3,158.9z"/>
</g>
<g id="XMLID_26_">
	<line id="XMLID_644_" class="st1" x1="259.9" y1="148.7" x2="271.4" y2="139.6"/>
	<path id="XMLID_643_" class="st1" d="M259.8,148.6c0,0,2.6-2.6,5.3-5.1c0.7-0.6,1.3-1.3,2-1.9c0.7-0.5,1.4-0.9,2-1.3
		c1.2-0.7,2.2-0.9,2.2-0.9l0.1,0.2c0,0-0.4,0.9-1.4,2c-0.5,0.5-1,1.1-1.7,1.6c-0.7,0.5-1.5,1-2.3,1.5c-3,2.1-6.2,4-6.2,4
		L259.8,148.6z"/>
</g>
<g id="XMLID_27_">
	<line id="XMLID_641_" class="st1" x1="271.8" y1="139.6" x2="298.5" y2="148.7"/>
	<path id="XMLID_640_" class="st1" d="M271.9,139.5c0,0,1.7,0.5,4.3,1.2c2.6,0.7,5.9,1.7,9.3,2.7c1.7,0.5,3.4,0.9,5,1.4
		c1.6,0.5,3,1.1,4.2,1.7c2.4,1.1,3.9,2.1,3.9,2.1l-0.1,0.2c0,0-1.8-0.1-4.4-0.8c-1.3-0.3-2.8-0.7-4.4-1.2c-1.6-0.5-3.2-1.3-4.8-1.9
		c-3.3-1.3-6.6-2.5-9-3.5c-2.5-1-4.1-1.7-4.1-1.7L271.9,139.5z"/>
</g>
<g id="XMLID_32_">
	<path id="XMLID_565_" d="M343.4,162.4c0,0,0.5-1.6,1.2-3.1c0.2-0.4,0.2-0.8,0.4-1.1c0.2-0.3,0.5-0.5,0.8-0.7
		c0.5-0.4,1.1-0.4,1.1-0.4l0.2,0.1c0,0,0.2,0.6,0,1.2c0,0.3-0.2,0.7-0.4,1c-0.2,0.3-0.6,0.5-0.8,0.8c-1.1,1.2-2.3,2.3-2.3,2.3
		L343.4,162.4z"/>
</g>
<g id="XMLID_31_">
	<path id="XMLID_563_" d="M347,157.1c0,0,3.4,0,6.8,0.1c0.8,0,1.7,0,2.5,0.1c0.8,0.1,1.5,0.3,2.1,0.5c1.2,0.4,2,1,2,1l0,0.2
		c0,0-0.9,0.3-2.2,0.4c-0.6,0.1-1.4,0.1-2.2,0c-0.8-0.1-1.6-0.4-2.4-0.5c-3.3-0.7-6.6-1.5-6.6-1.5L347,157.1z"/>
</g>
<g id="XMLID_30_">
	<path id="XMLID_561_" d="M360.3,158.8c0,0,0.7-0.7,1.8-1.7c1.1-1,2.6-2.4,4-3.7c0.7-0.7,1.4-1.4,2.1-2c0.7-0.6,1.5-1,2.2-1.4
		c1.3-0.7,2.4-1,2.4-1l0.1,0.2c0,0-0.5,1-1.5,2.1c-0.5,0.6-1.1,1.2-1.9,1.8c-0.7,0.6-1.6,1-2.4,1.6c-1.7,1.1-3.3,2.2-4.6,3
		c-1.3,0.8-2.1,1.3-2.1,1.3L360.3,158.8z"/>
</g>
<g id="XMLID_29_">
	<path id="XMLID_559_" d="M372.8,148.7c0,0-3.2-1.9-6.2-4c-0.8-0.5-1.6-1-2.3-1.5c-0.7-0.5-1.2-1.1-1.7-1.6c-0.9-1-1.4-2-1.4-2
		l0.1-0.2c0,0,1,0.2,2.2,0.9c0.6,0.3,1.3,0.7,2,1.3c0.7,0.5,1.3,1.2,2,1.9c2.7,2.5,5.4,5.1,5.4,5.1L372.8,148.7z"/>
</g>
<g id="XMLID_28_">
	<path id="XMLID_557_" d="M360.9,139.7c0,0-1.7,0.7-4.2,1.7c-2.5,1-5.9,2.3-9.2,3.5c-1.7,0.6-3.3,1.3-4.9,1.9
		c-1.6,0.5-3.1,0.9-4.4,1.2c-2.6,0.6-4.5,0.8-4.5,0.8l-0.1-0.2c0,0,1.6-1,4-2.1c1.2-0.6,2.7-1.1,4.3-1.7c1.6-0.5,3.4-0.9,5.1-1.4
		c3.5-1,6.9-2,9.5-2.7c2.6-0.7,4.3-1.2,4.3-1.2L360.9,139.7z"/>
</g>
<g id="XMLID_41_">
	<path id="XMLID_637_" class="st1" d="M262.9,130"/>
</g>
<g id="XMLID_40_">
	<path id="XMLID_634_" class="st1" d="M270.1,139.6"/>
</g>
<g id="XMLID_116_">
	<path id="XMLID_630_" class="st1" d="M262.9,130"/>
</g>
<g id="XMLID_115_">
	<path id="XMLID_521_" class="st3" d="M244.6,5.7"/>
</g>
<path id="XMLID_35_" class="st4" d="M248.7,4.7"/>
<g id="XMLID_34_">
	<path id="XMLID_518_" class="st3" d="M244.6,5.7"/>
</g>
<path id="XMLID_114_" class="st4" d="M248.7,4.7"/>
<g id="XMLID_110_">
	<path id="XMLID_626_" class="st1" d="M307.5,139.6"/>
</g>
<g id="XMLID_38_">
	<path id="XMLID_540_" class="st3" d="M362,139.6"/>
</g>
<g id="XMLID_112_">
	<path id="XMLID_505_" class="st3" d="M387.7,5.7"/>
</g>
<path id="XMLID_37_" class="st4" d="M383.7,4.7"/>
<g id="XMLID_36_">
	<path id="XMLID_497_" class="st3" d="M387.7,5.7"/>
</g>
<path id="XMLID_71_" class="st4" d="M383.7,4.7"/>
<g id="XMLID_111_">
	<path id="XMLID_535_" class="st3" d="M324.5,139.6"/>
</g>
<g id="XMLID_33_">
	<line id="XMLID_623_" class="st1" x1="262.9" y1="146.1" x2="245.2" y2="133.7"/>
	<path id="XMLID_622_" class="st1" d="M262.8,146.2c0,0-1.2-0.7-2.9-1.7c-1.8-1-4-2.5-6.3-3.9c-1.1-0.7-2.3-1.4-3.4-2.1
		c-1-0.7-1.9-1.5-2.7-2.2c-1.5-1.4-2.4-2.5-2.4-2.5l0.1-0.2c0,0,1.4,0.4,3.2,1.4c0.9,0.5,1.9,1.1,3,1.8c1,0.7,2,1.6,3.1,2.5
		c2.1,1.7,4.3,3.3,5.8,4.6c1.6,1.3,2.6,2.1,2.6,2.1L262.8,146.2z"/>
</g>
<g id="XMLID_42_">
	<line id="XMLID_620_" class="st1" x1="245.2" y1="133.7" x2="225.7" y2="131.8"/>
	<path id="XMLID_619_" class="st1" d="M245.2,133.8c0,0-1.2,0-3.1,0c-1.8,0-4.3-0.1-6.7-0.2c-1.2,0-2.4,0-3.6-0.1
		c-1.1-0.1-2.2-0.3-3.1-0.5c-1.8-0.4-3-1-3-1l0-0.2c0,0,1.3-0.3,3.1-0.4c0.9,0,2-0.1,3.1,0.1c1.1,0.1,2.3,0.4,3.5,0.6
		c2.4,0.4,4.8,0.7,6.6,1.1c1.8,0.3,3,0.5,3,0.5L245.2,133.8z"/>
</g>
<g id="XMLID_43_">
	<line id="XMLID_617_" class="st1" x1="225.7" y1="131.8" x2="216.3" y2="125"/>
	<path id="XMLID_616_" class="st1" d="M225.7,131.9c0,0-2.6-1.3-5.1-2.8c-0.6-0.4-1.3-0.7-1.9-1.1c-0.6-0.4-1-0.9-1.4-1.3
		c-0.7-0.8-1.1-1.6-1.1-1.6l0.1-0.2c0,0,0.9,0.1,1.9,0.5c0.5,0.2,1.1,0.5,1.7,0.9c0.5,0.4,1,1,1.6,1.5c2.2,1.9,4.3,4,4.3,4
		L225.7,131.9z"/>
</g>
<g id="XMLID_44_">
	<line id="XMLID_614_" class="st1" x1="216.3" y1="125" x2="214.3" y2="116.7"/>
	<path id="XMLID_613_" class="st1" d="M216.2,125c0,0-0.9-2-1.7-4c-0.2-0.5-0.5-1-0.6-1.5c-0.1-0.5-0.1-1-0.1-1.4
		c0.1-0.8,0.4-1.5,0.4-1.5l0.2,0c0,0,0.6,0.4,1,1.1c0.2,0.4,0.4,0.8,0.6,1.3c0.1,0.5,0.1,1.1,0.1,1.6c0.3,2.1,0.3,4.3,0.3,4.3
		L216.2,125z"/>
</g>
<g id="XMLID_45_">
	<line id="XMLID_611_" class="st1" x1="214.3" y1="116.7" x2="219.1" y2="122"/>
	<path id="XMLID_610_" class="st1" d="M214.4,116.6c0,0,1.5,1,2.9,2.2c0.3,0.3,0.8,0.5,1.1,0.8c0.3,0.3,0.5,0.7,0.6,1
		c0.3,0.7,0.2,1.3,0.2,1.3l-0.1,0.1c0,0-0.6,0-1.3-0.4c-0.3-0.2-0.7-0.4-1-0.7c-0.3-0.3-0.4-0.8-0.7-1.1c-1-1.5-1.9-3.1-1.9-3.1
		L214.4,116.6z"/>
</g>
<g id="XMLID_46_">
	<line id="XMLID_608_" class="st1" x1="219.1" y1="122" x2="223.4" y2="125"/>
	<path id="XMLID_607_" class="st1" d="M219.2,121.9c0,0,1.3,0.4,2.6,0.9c0.3,0.1,0.7,0.2,0.9,0.4c0.3,0.2,0.4,0.4,0.6,0.7
		c0.3,0.5,0.3,1,0.3,1l-0.1,0.2c0,0-0.5,0.2-1.1,0.1c-0.3,0-0.6-0.1-0.8-0.3c-0.2-0.2-0.4-0.5-0.7-0.7c-0.9-1-1.8-2.1-1.8-2.1
		L219.2,121.9z"/>
</g>
<g id="XMLID_47_">
	<line id="XMLID_605_" class="st1" x1="223" y1="126" x2="231" y2="126"/>
	<path id="XMLID_604_" class="st1" d="M223,125.9c0,0,2-0.5,3.9-0.7c0.5-0.1,1-0.2,1.4-0.2c0.5,0,0.9,0.1,1.3,0.2
		c0.7,0.3,1.3,0.7,1.3,0.7v0.2c0,0-0.5,0.4-1.3,0.7c-0.4,0.1-0.8,0.2-1.3,0.2c-0.5,0-0.9-0.2-1.4-0.2c-2-0.2-4-0.7-4-0.7V125.9z"/>
</g>
<g id="XMLID_48_">
	<line id="XMLID_602_" class="st1" x1="230.9" y1="125.5" x2="204.5" y2="93"/>
	<path id="XMLID_601_" class="st1" d="M230.8,125.6c0,0-1.7-2-4.3-4.9c-2.6-2.9-6-6.9-9.4-10.9c-1.7-2-3.5-3.9-5-5.8
		c-1.5-1.9-2.9-3.7-4-5.4c-2.3-3.2-3.6-5.5-3.6-5.5l0.2-0.1c0,0,2,1.8,4.7,4.6c1.3,1.4,2.9,3.2,4.4,5.1c1.5,1.9,3.1,4,4.7,6.1
		c3.2,4.2,6.4,8.3,8.7,11.5c2.4,3.1,3.9,5.2,3.9,5.2L230.8,125.6z"/>
</g>
<g id="XMLID_49_">
	<line id="XMLID_599_" class="st1" x1="204.5" y1="93" x2="202.7" y2="83.8"/>
	<path id="XMLID_598_" class="st1" d="M204.4,93c0,0-0.9-2.2-1.6-4.4c-0.2-0.6-0.5-1.1-0.6-1.6c-0.1-0.5-0.1-1.1-0.1-1.5
		c0.1-0.9,0.4-1.6,0.4-1.6l0.2,0c0,0,0.6,0.5,1,1.3c0.2,0.4,0.4,0.9,0.5,1.4c0.1,0.5,0,1.1,0.1,1.7c0.2,2.3,0.2,4.7,0.2,4.7
		L204.4,93z"/>
</g>
<g id="XMLID_50_">
	<line id="XMLID_596_" class="st1" x1="202.7" y1="83.8" x2="203.6" y2="76"/>
	<path id="XMLID_595_" class="st1" d="M202.6,83.8c0,0-0.2-2-0.2-4c0-0.5-0.1-1-0.1-1.5c0.1-0.5,0.2-0.9,0.4-1.2
		c0.3-0.7,0.8-1.1,0.8-1.1l0.2,0c0,0,0.4,0.5,0.6,1.3c0.1,0.4,0.1,0.8,0.1,1.3c-0.1,0.5-0.3,0.9-0.4,1.4c-0.5,1.9-1.2,3.8-1.2,3.8
		L202.6,83.8z"/>
</g>
<g id="XMLID_51_">
	<line id="XMLID_593_" class="st1" x1="203.6" y1="76" x2="204.5" y2="83.8"/>
	<path id="XMLID_592_" class="st1" d="M203.7,76c0,0,0.7,1.9,1.2,3.8c0.1,0.5,0.3,1,0.4,1.4c0.1,0.5,0,0.9-0.1,1.3
		c-0.2,0.8-0.6,1.3-0.6,1.3l-0.2,0c0,0-0.5-0.4-0.8-1.1c-0.2-0.4-0.3-0.8-0.4-1.2c0-0.5,0.1-1,0.1-1.5c0-2,0.2-4,0.2-4L203.7,76z"/>
</g>
<g id="XMLID_52_">
	<line id="XMLID_590_" class="st1" x1="204.5" y1="83.8" x2="212.8" y2="94.2"/>
	<path id="XMLID_589_" class="st1" d="M204.6,83.8c0,0,2.4,2.3,4.7,4.7c0.6,0.6,1.2,1.1,1.7,1.7c0.5,0.6,0.9,1.2,1.1,1.8
		c0.6,1.1,0.8,2.1,0.8,2.1l-0.2,0.1c0,0-0.9-0.4-1.8-1.2c-0.5-0.4-1-0.9-1.5-1.5c-0.5-0.6-0.9-1.4-1.3-2c-1.9-2.7-3.6-5.6-3.6-5.6
		L204.6,83.8z"/>
</g>
<g id="XMLID_53_">
	<line id="XMLID_587_" class="st1" x1="212.8" y1="94.2" x2="211.8" y2="61.3"/>
	<path id="XMLID_586_" class="st1" d="M212.7,94.2c0,0-0.2-2-0.4-5.1c-0.3-3.1-0.5-7.2-0.8-11.3c-0.1-2.1-0.3-4.1-0.4-6
		c-0.1-1.9,0-3.7,0.1-5.3c0.2-3.1,0.5-5.2,0.5-5.2l0.2,0c0,0,0.5,2,0.9,5.1c0.2,1.5,0.3,3.3,0.4,5.3c0,1.9-0.1,4-0.1,6
		c0,4.1,0,8.2-0.1,11.3c-0.1,3.1-0.1,5.1-0.1,5.1L212.7,94.2z"/>
</g>
<g id="XMLID_54_">
	<line id="XMLID_584_" class="st1" x1="211.8" y1="61.3" x2="224.1" y2="39.2"/>
	<path id="XMLID_575_" class="st1" d="M211.7,61.3c0,0,0.7-1.4,1.7-3.6c1-2.2,2.4-5,3.8-7.8c0.7-1.4,1.3-2.9,2-4.2
		c0.7-1.3,1.5-2.5,2.2-3.4c1.4-2,2.5-3.1,2.5-3.1l0.2,0.1c0,0-0.4,1.6-1.3,3.8c-0.5,1.1-1,2.4-1.8,3.7c-0.7,1.3-1.6,2.6-2.5,4
		c-1.7,2.7-3.3,5.4-4.6,7.4c-1.3,2-2.1,3.3-2.1,3.3L211.7,61.3z"/>
</g>
<g id="XMLID_55_">
	<line id="XMLID_573_" class="st1" x1="224.1" y1="39.2" x2="228.2" y2="38.5"/>
	<path id="XMLID_572_" class="st1" d="M224.1,39.1c0,0,1-0.6,2-1c0.3-0.1,0.5-0.3,0.7-0.4c0.2,0,0.5,0,0.7,0.1
		c0.4,0.2,0.8,0.6,0.8,0.6l0,0.2c0,0-0.2,0.5-0.5,0.8c-0.2,0.2-0.4,0.3-0.6,0.3c-0.2,0-0.5-0.1-0.8-0.1c-1.1-0.1-2.2-0.4-2.2-0.4
		L224.1,39.1z"/>
</g>
<g id="XMLID_56_">
	<line id="XMLID_570_" class="st1" x1="228.2" y1="38.5" x2="219.1" y2="56.2"/>
	<path id="XMLID_569_" class="st1" d="M228.3,38.5c0,0-0.5,1.2-1.2,2.9c-0.7,1.7-1.7,4-2.7,6.3c-0.5,1.1-0.9,2.3-1.5,3.4
		c-0.5,1-1.1,2-1.7,2.7c-1.1,1.5-2,2.4-2,2.4l-0.2-0.1c0,0,0.2-1.3,0.8-3.1c0.3-0.9,0.7-1.9,1.2-2.9c0.6-1,1.3-2.1,1.9-3.1
		c1.3-2.1,2.5-4.3,3.5-5.9c1-1.6,1.7-2.6,1.7-2.6L228.3,38.5z"/>
</g>
<g id="XMLID_57_">
	<line id="XMLID_567_" class="st1" x1="219.1" y1="56.2" x2="222.3" y2="77.8"/>
	<path id="XMLID_566_" class="st1" d="M219.2,56.2c0,0,0.3,1.3,0.7,3.3c0.5,2,1,4.7,1.5,7.4c0.3,1.3,0.6,2.7,0.8,3.9
		c0.2,1.3,0.3,2.5,0.3,3.5c0,2.1-0.2,3.5-0.2,3.5l-0.2,0c0,0-0.6-1.3-1.2-3.3c-0.3-1-0.6-2.2-0.7-3.4c-0.2-1.3-0.2-2.6-0.3-4
		c-0.2-2.7-0.5-5.4-0.6-7.5c-0.1-2-0.2-3.4-0.2-3.4L219.2,56.2z"/>
</g>
<g id="XMLID_58_">
	<line id="XMLID_554_" class="st1" x1="222.3" y1="77.8" x2="235.5" y2="61.3"/>
	<path id="XMLID_551_" class="st1" d="M222.2,77.7c0,0,0.7-1.1,1.9-2.7c1.1-1.6,2.7-3.8,4.2-5.9c0.8-1.1,1.5-2.2,2.2-3.2
		c0.8-1,1.6-1.8,2.3-2.5c1.4-1.4,2.6-2.1,2.6-2.1l0.2,0.1c0,0-0.5,1.3-1.5,3c-0.5,0.9-1.2,1.8-1.9,2.8c-0.8,1-1.7,1.9-2.6,2.9
		c-1.8,2-3.5,3.9-4.9,5.4c-1.4,1.4-2.3,2.4-2.3,2.4L222.2,77.7z"/>
</g>
<g id="XMLID_59_">
	<line id="XMLID_545_" class="st1" x1="235.5" y1="61.3" x2="242.4" y2="43.7"/>
	<path id="XMLID_543_" class="st1" d="M235.4,61.3c0,0,0.3-1.1,0.8-2.9c0.5-1.7,1.2-4,2-6.2c0.4-1.1,0.7-2.3,1-3.3
		c0.4-1,0.9-2,1.3-2.7c0.9-1.6,1.7-2.5,1.7-2.5l0.2,0.1c0,0,0,1.3-0.4,3c-0.2,0.9-0.5,1.9-0.9,2.9c-0.4,1-1,2.1-1.5,3.2
		c-1,2.2-2,4.3-2.8,5.9c-0.8,1.6-1.3,2.7-1.3,2.7L235.4,61.3z"/>
</g>
<g id="XMLID_60_">
	<line id="XMLID_527_" class="st1" x1="242.4" y1="43.7" x2="238.9" y2="66"/>
	<path id="XMLID_524_" class="st1" d="M242.5,43.7c0,0-0.1,1.4-0.3,3.5c-0.2,2.1-0.5,4.9-0.7,7.7c-0.1,1.4-0.2,2.8-0.4,4.1
		c-0.2,1.3-0.5,2.5-0.8,3.5c-0.6,2.1-1.2,3.4-1.2,3.4l-0.2,0c0,0-0.2-1.5-0.2-3.6c0-1.1,0.1-2.3,0.3-3.6c0.2-1.3,0.6-2.7,0.9-4.1
		c0.6-2.8,1.1-5.5,1.6-7.6c0.5-2.1,0.8-3.5,0.8-3.5L242.5,43.7z"/>
</g>
<g id="XMLID_61_">
	<line id="XMLID_512_" class="st1" x1="238.9" y1="66" x2="229.7" y2="88.4"/>
	<path id="XMLID_509_" class="st1" d="M239,66c0,0-0.5,1.4-1.2,3.6c-0.7,2.2-1.7,5-2.7,7.9c-0.5,1.4-0.9,2.9-1.5,4.2
		c-0.5,1.3-1.1,2.5-1.7,3.5c-1.1,2-2.1,3.2-2.1,3.2l-0.2-0.1c0,0,0.2-1.6,0.8-3.8c0.3-1.1,0.7-2.4,1.2-3.7c0.6-1.3,1.3-2.6,1.9-4
		c1.3-2.7,2.6-5.5,3.6-7.5c1-2,1.7-3.4,1.7-3.4L239,66z"/>
</g>
<g id="XMLID_62_">
	<line id="XMLID_487_" class="st1" x1="229.7" y1="88.4" x2="234.3" y2="84.5"/>
	<path id="XMLID_483_" class="st1" d="M229.7,88.3c0,0,0.9-1.3,1.8-2.5c0.2-0.3,0.4-0.7,0.7-0.9c0.3-0.2,0.6-0.4,0.9-0.4
		c0.6-0.2,1.2-0.1,1.2-0.1l0.1,0.2c0,0,0,0.6-0.3,1.1c-0.1,0.3-0.3,0.6-0.6,0.8c-0.3,0.2-0.7,0.3-1,0.5c-1.3,0.8-2.7,1.4-2.7,1.4
		L229.7,88.3z"/>
</g>
<g id="XMLID_63_">
	<line id="XMLID_475_" class="st1" x1="234.3" y1="84.5" x2="233.4" y2="89"/>
	<path id="XMLID_471_" class="st1" d="M234.4,84.5c0,0,0.2,1.2,0.2,2.4c0,0.3,0.1,0.6,0.1,0.9c-0.1,0.3-0.2,0.5-0.4,0.7
		c-0.3,0.4-0.8,0.6-0.8,0.6l-0.2,0c0,0-0.4-0.4-0.5-0.8c-0.1-0.2-0.1-0.5-0.1-0.8c0.1-0.3,0.3-0.5,0.4-0.8c0.5-1.1,1.2-2.1,1.2-2.1
		L234.4,84.5z"/>
</g>
<g id="XMLID_64_">
	<line id="XMLID_467_" class="st1" x1="233.4" y1="89" x2="236.4" y2="116.7"/>
	<path id="XMLID_463_" class="st1" d="M233.5,89c0,0,0.3,1.7,0.7,4.3c0.4,2.6,0.9,6,1.5,9.5c0.3,1.7,0.6,3.4,0.8,5.1
		c0.2,1.6,0.2,3.1,0.2,4.5c0,2.6-0.2,4.4-0.2,4.4l-0.2,0c0,0-0.6-1.7-1.2-4.2c-0.3-1.3-0.5-2.8-0.7-4.4c-0.2-1.6-0.2-3.4-0.3-5.1
		c-0.2-3.5-0.5-6.9-0.6-9.6c-0.1-2.6-0.2-4.4-0.2-4.4L233.5,89z"/>
</g>
<g id="XMLID_65_">
	<line id="XMLID_459_" class="st1" x1="236.4" y1="116.7" x2="240.6" y2="122"/>
	<path id="XMLID_455_" class="st1" d="M236.5,116.6c0,0,1.4,1.1,2.7,2.2c0.3,0.3,0.7,0.5,1,0.8c0.2,0.3,0.4,0.7,0.5,1
		c0.2,0.7,0.1,1.3,0.1,1.3l-0.2,0.1c0,0-0.6-0.1-1.2-0.4c-0.3-0.2-0.6-0.4-0.9-0.7c-0.2-0.3-0.4-0.8-0.6-1.1
		c-0.9-1.5-1.6-3.1-1.6-3.1L236.5,116.6z"/>
</g>
<g id="XMLID_66_">
	<line id="XMLID_451_" class="st1" x1="240.6" y1="122" x2="274.8" y2="133.7"/>
	<path id="XMLID_447_" class="st1" d="M240.7,121.9c0,0,2.2,0.6,5.4,1.6c3.3,0.9,7.6,2.3,11.9,3.6c2.2,0.7,4.3,1.3,6.4,1.9
		c2,0.7,3.8,1.4,5.4,2.1c3.1,1.3,5.1,2.5,5.1,2.5l-0.1,0.2c0,0-2.3-0.3-5.6-1.2c-1.6-0.4-3.5-1-5.6-1.6c-2-0.7-4.1-1.6-6.2-2.4
		c-4.2-1.6-8.5-3.2-11.6-4.4c-3.2-1.2-5.3-2.1-5.3-2.1L240.7,121.9z"/>
</g>
<g id="XMLID_67_">
	<line id="XMLID_443_" class="st1" x1="274.8" y1="133.7" x2="260.3" y2="119.3"/>
	<path id="XMLID_439_" class="st1" d="M274.8,133.7c0,0-1-0.8-2.5-2.1c-1.5-1.2-3.4-2.9-5.3-4.6c-1-0.8-2-1.6-2.8-2.5
		c-0.8-0.8-1.6-1.7-2.2-2.5c-1.2-1.5-1.8-2.7-1.8-2.7l0.1-0.1c0,0,1.2,0.6,2.8,1.7c0.8,0.6,1.6,1.3,2.5,2.1c0.8,0.9,1.6,1.9,2.5,2.8
		c1.7,1.9,3.4,3.8,4.7,5.2c1.3,1.4,2.1,2.4,2.1,2.4L274.8,133.7z"/>
</g>
<g id="XMLID_68_">
	<line id="XMLID_435_" class="st1" x1="260.3" y1="119.3" x2="261" y2="113.8"/>
	<path id="XMLID_431_" class="st1" d="M260.2,119.3c0,0-0.3-1.4-0.4-2.8c0-0.4-0.1-0.7-0.1-1c0-0.3,0.2-0.6,0.3-0.9
		c0.3-0.5,0.8-0.8,0.8-0.8l0.2,0c0,0,0.4,0.4,0.6,0.9c0.1,0.3,0.2,0.6,0.1,0.9c-0.1,0.3-0.3,0.6-0.4,1c-0.4,1.3-1,2.7-1,2.7
		L260.2,119.3z"/>
</g>
<g id="XMLID_69_">
	<line id="XMLID_427_" class="st1" x1="261" y1="113.8" x2="262.9" y2="118"/>
	<path id="XMLID_423_" class="st1" d="M261,113.8c0,0,0.9,0.9,1.6,1.8c0.2,0.2,0.4,0.4,0.6,0.7c0.1,0.2,0.1,0.5,0.1,0.8
		c0,0.5-0.3,0.9-0.3,0.9l-0.2,0.1c0,0-0.5-0.1-0.9-0.4c-0.2-0.1-0.4-0.3-0.5-0.6c-0.1-0.2-0.1-0.6-0.1-0.9c-0.3-1.1-0.3-2.4-0.3-2.4
		L261,113.8z"/>
</g>
<g id="XMLID_70_">
	<line id="XMLID_419_" class="st1" x1="262.9" y1="118" x2="277.6" y2="130"/>
	<path id="XMLID_415_" class="st1" d="M262.9,117.9c0,0,1,0.7,2.5,1.7c1.5,1,3.4,2.4,5.3,3.8c1,0.7,2,1.3,2.9,2
		c0.9,0.7,1.6,1.4,2.2,2.1c1.2,1.3,1.9,2.4,1.9,2.4l-0.1,0.2c0,0-1.2-0.4-2.7-1.3c-0.8-0.5-1.6-1-2.5-1.7c-0.8-0.7-1.7-1.6-2.5-2.4
		c-1.7-1.6-3.5-3.2-4.8-4.5c-1.3-1.2-2.1-2.1-2.1-2.1L262.9,117.9z"/>
</g>
<g id="XMLID_72_">
	<line id="XMLID_411_" class="st1" x1="277.6" y1="130" x2="264.3" y2="110.5"/>
	<path id="XMLID_409_" class="st1" d="M277.5,130.1c0,0-0.9-1.2-2.3-2.9c-1.4-1.7-3.1-4.1-4.9-6.5c-0.9-1.2-1.8-2.3-2.6-3.4
		c-0.8-1.1-1.4-2.3-1.9-3.3c-1-2-1.5-3.4-1.5-3.4l0.2-0.1c0,0,1.2,1,2.7,2.7c0.7,0.8,1.5,1.8,2.3,3c0.8,1.2,1.5,2.5,2.2,3.7
		c1.5,2.5,3.1,5,4.2,7c1.1,1.9,1.9,3.2,1.9,3.2L277.5,130.1z"/>
</g>
<g id="XMLID_73_">
	<line id="XMLID_406_" class="st1" x1="264" y1="111" x2="264" y2="90"/>
	<path id="XMLID_405_" class="st1" d="M263.7,111c0,0-0.1-1.3-0.3-3.3c-0.2-2-0.3-4.6-0.4-7.2c-0.1-1.3-0.2-2.6-0.2-3.9
		c0-1.2,0.1-2.4,0.2-3.4c0.3-2,0.7-3.3,0.7-3.3h0.2c0,0,0.4,1.3,0.7,3.3c0.1,1,0.2,2.1,0.2,3.4c0,1.2-0.2,2.5-0.2,3.9
		c-0.2,2.6-0.3,5.3-0.4,7.2c-0.2,2-0.3,3.3-0.3,3.3H263.7z"/>
</g>
<g id="XMLID_74_">
	<line id="XMLID_400_" class="st1" x1="264.3" y1="90" x2="266.4" y2="98.3"/>
	<path id="XMLID_399_" class="st1" d="M264.4,90c0,0,1,2,1.8,4c0.2,0.5,0.5,1,0.6,1.5c0.1,0.5,0.1,1,0.1,1.4c0,0.8-0.3,1.5-0.3,1.5
		l-0.2,0.1c0,0-0.6-0.4-1-1.1c-0.2-0.4-0.5-0.8-0.6-1.3c-0.1-0.5-0.1-1.1-0.2-1.6c-0.3-2.1-0.4-4.3-0.4-4.3L264.4,90z"/>
</g>
<g id="XMLID_75_">
	<line id="XMLID_395_" class="st1" x1="266.4" y1="98.3" x2="267.6" y2="109.3"/>
	<path id="XMLID_392_" class="st1" d="M266.5,98.3c0,0,0.7,2.7,1.3,5.4c0.1,0.7,0.4,1.3,0.4,2c0.1,0.6,0,1.2-0.1,1.8
		c-0.1,1-0.5,1.8-0.5,1.8l-0.2,0c0,0-0.5-0.6-0.9-1.6c-0.2-0.5-0.4-1.1-0.4-1.7c-0.1-0.6,0-1.3,0-2c0-2.8,0.1-5.5,0.1-5.5
		L266.5,98.3z"/>
</g>
<g id="XMLID_118_">
	<path id="XMLID_363_" class="st3" d="M369,130"/>
</g>
<g id="XMLID_117_">
	<path id="XMLID_359_" class="st3" d="M369,130"/>
</g>
<g id="XMLID_113_">
	<path id="XMLID_353_" d="M368.9,146c0,0,1.1-0.9,2.6-2.1c1.6-1.3,3.7-3,5.8-4.6c1.1-0.8,2.1-1.7,3.1-2.5c1-0.7,2.1-1.3,3-1.8
		c1.8-1,3.2-1.4,3.2-1.4l0.1,0.2c0,0-0.9,1.1-2.4,2.5c-0.8,0.7-1.7,1.5-2.7,2.2c-1.1,0.7-2.2,1.4-3.4,2.1c-2.3,1.4-4.6,2.9-6.4,3.9
		c-1.8,1-2.9,1.7-2.9,1.7L368.9,146z"/>
</g>
<g id="XMLID_109_">
	<path id="XMLID_347_" d="M386.7,133.6c0,0,1.2-0.2,3-0.5c1.8-0.3,4.2-0.7,6.7-1.1c1.2-0.2,2.4-0.5,3.6-0.6c1.1-0.1,2.2-0.1,3.1-0.1
		c1.9,0.1,3.1,0.4,3.1,0.4l0,0.2c0,0-1.2,0.6-3,1c-0.9,0.2-2,0.4-3.1,0.5c-1.1,0.1-2.4,0-3.6,0.1c-2.5,0.1-4.9,0.2-6.7,0.2
		c-1.8,0-3.1,0-3.1,0L386.7,133.6z"/>
</g>
<g id="XMLID_108_">
	<path id="XMLID_341_" d="M406.1,131.8c0,0,2.1-2.1,4.3-4c0.6-0.5,1.1-1,1.6-1.5c0.6-0.4,1.1-0.7,1.7-0.9c1-0.4,1.9-0.5,1.9-0.5
		l0.1,0.2c0,0-0.3,0.8-1.1,1.6c-0.4,0.4-0.8,0.9-1.4,1.3c-0.6,0.4-1.3,0.7-1.9,1.1c-2.5,1.5-5.2,2.8-5.2,2.8L406.1,131.8z"/>
</g>
<g id="XMLID_107_">
	<path id="XMLID_335_" d="M415.6,125c0,0,0.1-2.2,0.3-4.3c0.1-0.5,0-1.1,0.1-1.6c0.1-0.5,0.3-0.9,0.6-1.3c0.4-0.7,1-1.1,1-1.1l0.2,0
		c0,0,0.3,0.6,0.4,1.5c0,0.4,0,0.9-0.1,1.4c-0.1,0.5-0.4,1-0.6,1.5c-0.7,2-1.7,4-1.7,4L415.6,125z"/>
</g>
<g id="XMLID_106_">
	<path id="XMLID_329_" d="M417.8,116.7c0,0-0.9,1.6-1.9,3.1c-0.3,0.4-0.4,0.8-0.7,1.1c-0.3,0.3-0.6,0.5-1,0.7
		c-0.6,0.3-1.3,0.4-1.3,0.4l-0.1-0.1c0,0,0-0.6,0.2-1.3c0.1-0.3,0.3-0.7,0.6-1c0.3-0.3,0.7-0.5,1.1-0.8c1.4-1.2,2.9-2.2,2.9-2.2
		L417.8,116.7z"/>
</g>
<g id="XMLID_105_">
	<path id="XMLID_323_" d="M412.9,122.1c0,0-0.8,1.1-1.8,2.1c-0.2,0.2-0.4,0.6-0.7,0.7c-0.3,0.2-0.6,0.3-0.8,0.3
		c-0.5,0.1-1.1-0.1-1.1-0.1l-0.1-0.2c0,0,0-0.6,0.3-1c0.1-0.3,0.3-0.5,0.6-0.7c0.3-0.2,0.6-0.2,0.9-0.4c1.2-0.5,2.6-0.9,2.6-0.9
		L412.9,122.1z"/>
</g>
<g id="XMLID_104_">
	<path id="XMLID_317_" d="M409,126.1c0,0-2,0.5-4,0.7c-0.5,0.1-1,0.2-1.5,0.2c-0.5,0-0.9-0.1-1.3-0.2c-0.8-0.3-1.3-0.7-1.3-0.7v-0.2
		c0,0,0.5-0.4,1.3-0.7c0.4-0.1,0.8-0.2,1.3-0.2c0.5,0,1,0.2,1.5,0.2c2,0.2,4,0.7,4,0.7V126.1z"/>
</g>
<g id="XMLID_103_">
	<path id="XMLID_311_" d="M401,125.4c0,0,1.6-2.1,3.9-5.2c2.4-3.2,5.6-7.3,8.8-11.5c1.6-2.1,3.1-4.2,4.7-6.1
		c1.6-1.9,3.1-3.6,4.4-5.1c2.7-2.9,4.7-4.6,4.7-4.6l0.2,0.1c0,0-1.3,2.3-3.6,5.5c-1.1,1.6-2.5,3.5-4.1,5.4c-1.6,1.9-3.3,3.8-5.1,5.8
		c-3.4,4-6.8,7.9-9.5,10.9c-2.6,3-4.3,4.9-4.3,4.9L401,125.4z"/>
</g>
<g id="XMLID_102_">
	<path id="XMLID_308_" d="M427.4,93c0,0,0-2.4,0.2-4.7c0.1-0.6,0-1.2,0.1-1.7c0.1-0.5,0.3-1,0.5-1.4c0.4-0.8,1-1.3,1-1.3l0.2,0
		c0,0,0.3,0.7,0.4,1.6c0,0.5,0,1-0.1,1.5c-0.1,0.5-0.4,1.1-0.6,1.6c-0.7,2.2-1.6,4.4-1.6,4.4L427.4,93z"/>
</g>
<g id="XMLID_101_">
	<path id="XMLID_306_" d="M429.3,83.8c0,0-0.7-1.9-1.2-3.8c-0.1-0.5-0.3-1-0.4-1.4c-0.1-0.5,0-0.9,0.1-1.3c0.2-0.8,0.6-1.3,0.6-1.3
		l0.2,0c0,0,0.5,0.4,0.8,1.1c0.2,0.4,0.3,0.8,0.4,1.2c0,0.5-0.1,1-0.1,1.5c0,2-0.2,4-0.2,4L429.3,83.8z"/>
</g>
<g id="XMLID_100_">
	<path id="XMLID_304_" d="M428.6,76c0,0,0.2,2,0.2,4c0,0.5,0.1,1,0.1,1.5c-0.1,0.5-0.2,0.9-0.4,1.2c-0.3,0.7-0.8,1.1-0.8,1.1l-0.2,0
		c0,0-0.4-0.5-0.6-1.3c-0.1-0.4-0.1-0.8-0.1-1.3c0.1-0.5,0.3-0.9,0.4-1.4c0.5-1.9,1.2-3.8,1.2-3.8L428.6,76z"/>
</g>
<g id="XMLID_99_">
	<path id="XMLID_302_" d="M427.6,83.9c0,0-1.7,2.9-3.6,5.6c-0.5,0.7-0.9,1.4-1.3,2c-0.5,0.6-1,1.1-1.5,1.5c-1,0.8-1.8,1.2-1.8,1.2
		l-0.2-0.1c0,0,0.2-0.9,0.8-2.1c0.3-0.6,0.7-1.2,1.1-1.8c0.5-0.6,1.2-1.1,1.7-1.7c2.3-2.4,4.7-4.7,4.7-4.7L427.6,83.9z"/>
</g>
<g id="XMLID_98_">
	<path id="XMLID_300_" d="M419.1,94.2c0,0,0-2.1-0.1-5.1c-0.1-3.1-0.1-7.2-0.1-11.3c0-2.1-0.1-4.1-0.1-6c0.1-1.9,0.2-3.7,0.4-5.3
		c0.3-3.1,0.9-5.1,0.9-5.1l0.2,0c0,0,0.4,2.1,0.5,5.2c0.1,1.5,0.1,3.3,0.1,5.3c-0.1,1.9-0.3,4-0.4,6c-0.3,4.1-0.5,8.2-0.8,11.3
		c-0.2,3.1-0.4,5.1-0.4,5.1L419.1,94.2z"/>
</g>
<g id="XMLID_97_">
	<path id="XMLID_298_" d="M420.1,61.4c0,0-0.9-1.3-2.2-3.3c-1.3-2-2.9-4.7-4.6-7.4c-0.8-1.4-1.7-2.7-2.5-4c-0.7-1.3-1.3-2.6-1.8-3.7
		c-0.9-2.2-1.3-3.8-1.3-3.8l0.2-0.1c0,0,1.2,1.2,2.5,3.1c0.7,1,1.5,2.1,2.2,3.4c0.7,1.3,1.3,2.8,2.1,4.2c1.4,2.8,2.8,5.7,3.9,7.8
		c1,2.2,1.7,3.6,1.7,3.6L420.1,61.4z"/>
</g>
<g id="XMLID_96_">
	<path id="XMLID_296_" d="M407.9,39.3c0,0-1.1,0.3-2.2,0.4c-0.3,0-0.6,0.1-0.8,0.1c-0.2,0-0.5-0.2-0.6-0.3c-0.4-0.3-0.5-0.8-0.5-0.8
		l0-0.2c0,0,0.3-0.4,0.8-0.6c0.2-0.1,0.5-0.2,0.7-0.1c0.2,0.1,0.5,0.3,0.7,0.4c1,0.4,2,1,2,1L407.9,39.3z"/>
</g>
<g id="XMLID_95_">
	<path id="XMLID_294_" d="M403.8,38.5c0,0,0.7,1,1.7,2.6c1,1.6,2.3,3.7,3.5,5.9c0.6,1.1,1.3,2.1,1.9,3.1c0.5,1,0.9,2.1,1.3,2.9
		c0.6,1.8,0.8,3.1,0.8,3.1l-0.2,0.1c0,0-1-0.9-2.1-2.4c-0.5-0.8-1.1-1.7-1.7-2.7c-0.5-1-1-2.2-1.5-3.4c-1-2.3-2-4.5-2.8-6.3
		c-0.7-1.7-1.2-2.9-1.2-2.9L403.8,38.5z"/>
</g>
<g id="XMLID_94_">
	<path id="XMLID_292_" d="M413,56.2c0,0-0.1,1.4-0.2,3.4c-0.1,2-0.4,4.8-0.6,7.5c-0.1,1.4-0.2,2.7-0.3,4c-0.2,1.3-0.5,2.4-0.7,3.4
		c-0.5,2-1.2,3.3-1.2,3.3l-0.2,0c0,0-0.2-1.4-0.2-3.5c0-1,0.1-2.2,0.3-3.5c0.2-1.3,0.6-2.6,0.8-3.9c0.6-2.7,1.1-5.4,1.5-7.4
		c0.4-2,0.7-3.3,0.7-3.3L413,56.2z"/>
</g>
<g id="XMLID_93_">
	<path id="XMLID_290_" d="M409.6,77.8c0,0-0.9-1-2.3-2.4c-1.4-1.4-3.1-3.4-4.9-5.4c-0.9-1-1.8-1.9-2.6-2.9c-0.8-1-1.4-1.9-1.9-2.8
		c-1-1.7-1.5-3-1.5-3l0.2-0.1c0,0,1.2,0.7,2.6,2.1c0.7,0.7,1.5,1.5,2.3,2.5c0.8,1,1.5,2.1,2.2,3.2c1.5,2.1,3.1,4.3,4.2,5.9
		c1.1,1.6,1.9,2.7,1.9,2.7L409.6,77.8z"/>
</g>
<g id="XMLID_92_">
	<path id="XMLID_288_" d="M396.4,61.4c0,0-0.5-1.1-1.3-2.7c-0.8-1.6-1.8-3.8-2.8-5.9c-0.5-1.1-1.1-2.1-1.5-3.2c-0.4-1-0.7-2-0.9-2.9
		c-0.4-1.7-0.4-3-0.4-3l0.2-0.1c0,0,0.9,0.9,1.7,2.5c0.5,0.8,0.9,1.7,1.3,2.7c0.4,1,0.7,2.2,1,3.3c0.7,2.3,1.5,4.5,2,6.2
		c0.5,1.7,0.8,2.9,0.8,2.9L396.4,61.4z"/>
</g>
<g id="XMLID_91_">
	<path id="XMLID_286_" d="M389.6,43.7c0,0,0.3,1.4,0.8,3.5c0.5,2.1,1,4.8,1.6,7.6c0.3,1.4,0.7,2.8,0.9,4.1c0.2,1.3,0.3,2.5,0.3,3.6
		c0.1,2.1-0.2,3.6-0.2,3.6l-0.2,0c0,0-0.7-1.3-1.2-3.4c-0.3-1-0.6-2.2-0.8-3.5c-0.2-1.3-0.2-2.7-0.4-4.1c-0.3-2.8-0.6-5.6-0.8-7.7
		c-0.2-2.1-0.3-3.5-0.3-3.5L389.6,43.7z"/>
</g>
<g id="XMLID_90_">
	<path id="XMLID_284_" d="M393.1,66c0,0,0.7,1.4,1.7,3.4c1,2,2.3,4.8,3.6,7.5c0.6,1.4,1.4,2.7,1.9,4c0.5,1.3,0.9,2.6,1.3,3.7
		c0.6,2.2,0.8,3.8,0.8,3.8l-0.2,0.1c0,0-1-1.2-2.1-3.2c-0.6-1-1.2-2.2-1.7-3.5c-0.5-1.3-1-2.8-1.5-4.2c-1-2.9-2-5.7-2.8-7.9
		c-0.7-2.2-1.2-3.6-1.2-3.6L393.1,66z"/>
</g>
<g id="XMLID_89_">
	<path id="XMLID_282_" d="M402.1,88.5c0,0-1.4-0.6-2.8-1.4c-0.3-0.2-0.7-0.3-1-0.5c-0.3-0.2-0.5-0.5-0.6-0.8
		c-0.3-0.6-0.3-1.1-0.3-1.1l0.1-0.2c0,0,0.6-0.1,1.2,0.1c0.3,0.1,0.6,0.2,0.9,0.4c0.3,0.2,0.4,0.6,0.7,0.9c1,1.2,1.8,2.5,1.8,2.5
		L402.1,88.5z"/>
</g>
<g id="XMLID_88_">
	<path id="XMLID_280_" d="M397.7,84.5c0,0,0.7,1,1.2,2.1c0.1,0.3,0.3,0.5,0.4,0.8c0.1,0.3,0,0.5-0.1,0.8c-0.2,0.5-0.5,0.8-0.5,0.8
		l-0.2,0c0,0-0.5-0.2-0.8-0.6c-0.2-0.2-0.3-0.4-0.4-0.7c0-0.3,0.1-0.6,0.1-0.9c0-1.2,0.2-2.4,0.2-2.4L397.7,84.5z"/>
</g>
<g id="XMLID_87_">
	<path id="XMLID_278_" d="M398.6,89c0,0-0.1,1.7-0.2,4.4c-0.1,2.6-0.4,6.1-0.6,9.6c-0.1,1.7-0.2,3.5-0.3,5.1
		c-0.2,1.6-0.4,3.1-0.7,4.4c-0.5,2.6-1.2,4.2-1.2,4.2l-0.2,0c0,0-0.3-1.8-0.2-4.4c0-1.3,0.1-2.8,0.2-4.5c0.2-1.6,0.5-3.3,0.8-5.1
		c0.5-3.4,1-6.9,1.5-9.5c0.4-2.6,0.7-4.3,0.7-4.3L398.6,89z"/>
</g>
<g id="XMLID_86_">
	<path id="XMLID_276_" d="M395.6,116.7c0,0-0.7,1.6-1.6,3.1c-0.2,0.4-0.4,0.8-0.6,1.1c-0.3,0.3-0.6,0.5-0.9,0.7
		c-0.6,0.3-1.2,0.4-1.2,0.4l-0.2-0.1c0,0-0.1-0.6,0.1-1.3c0.1-0.3,0.2-0.7,0.5-1c0.3-0.3,0.7-0.5,1-0.8c1.3-1.2,2.7-2.2,2.7-2.2
		L395.6,116.7z"/>
</g>
<g id="XMLID_85_">
	<path id="XMLID_274_" d="M391.3,122.1c0,0-2.1,0.8-5.3,2.1c-3.2,1.3-7.4,2.8-11.7,4.4c-2.1,0.8-4.2,1.7-6.2,2.4
		c-2,0.7-3.9,1.2-5.6,1.6c-3.3,0.9-5.6,1.2-5.6,1.2l-0.1-0.2c0,0,2-1.1,5.1-2.5c1.6-0.7,3.4-1.4,5.4-2.1c2-0.7,4.2-1.3,6.4-1.9
		c4.3-1.3,8.7-2.7,11.9-3.6c3.3-1,5.4-1.6,5.4-1.6L391.3,122.1z"/>
</g>
<g id="XMLID_84_">
	<path id="XMLID_272_" d="M356.9,133.6c0,0,0.8-1,2.1-2.4c1.3-1.5,3-3.3,4.7-5.2c0.9-0.9,1.7-2,2.5-2.8c0.9-0.8,1.7-1.5,2.5-2.1
		c1.5-1.2,2.8-1.7,2.8-1.7l0.1,0.1c0,0-0.6,1.2-1.8,2.7c-0.6,0.8-1.3,1.6-2.2,2.5c-0.9,0.8-1.9,1.6-2.8,2.5
		c-1.9,1.7-3.8,3.4-5.3,4.6c-1.5,1.2-2.5,2.1-2.5,2.1L356.9,133.6z"/>
</g>
<g id="XMLID_83_">
	<path id="XMLID_270_" d="M371.4,119.3c0,0-0.6-1.3-1-2.7c-0.1-0.3-0.3-0.7-0.4-1c0-0.3,0-0.6,0.1-0.9c0.2-0.5,0.6-0.9,0.6-0.9
		l0.2,0c0,0,0.5,0.3,0.8,0.8c0.2,0.2,0.3,0.5,0.3,0.9c0,0.3-0.1,0.7-0.1,1c-0.1,1.4-0.4,2.8-0.4,2.8L371.4,119.3z"/>
</g>
<g id="XMLID_82_">
	<path id="XMLID_268_" d="M371,113.9c0,0-0.1,1.2-0.3,2.4c-0.1,0.3,0,0.6-0.1,0.9c-0.1,0.2-0.3,0.4-0.5,0.6
		c-0.4,0.3-0.9,0.4-0.9,0.4l-0.2-0.1c0,0-0.3-0.4-0.3-0.9c0-0.3,0-0.5,0.1-0.8c0.1-0.2,0.4-0.4,0.6-0.7c0.7-0.9,1.6-1.8,1.6-1.8
		L371,113.9z"/>
</g>
<g id="XMLID_81_">
	<path id="XMLID_266_" d="M369,118.1c0,0-0.8,0.8-2.1,2.1c-1.3,1.3-3,2.8-4.8,4.5c-0.9,0.8-1.7,1.7-2.6,2.4
		c-0.9,0.7-1.7,1.3-2.5,1.7c-1.5,0.9-2.7,1.3-2.7,1.3l-0.1-0.2c0,0,0.6-1.1,1.9-2.4c0.6-0.7,1.3-1.4,2.2-2.1c0.9-0.7,1.9-1.3,2.9-2
		c1.9-1.4,3.9-2.8,5.4-3.8c1.5-1,2.5-1.7,2.5-1.7L369,118.1z"/>
</g>
<g id="XMLID_80_">
	<path id="XMLID_264_" d="M354.1,129.9c0,0,0.7-1.3,1.9-3.2c1.1-1.9,2.7-4.4,4.2-7c0.8-1.3,1.5-2.6,2.2-3.7c0.8-1.1,1.6-2.1,2.3-3
		c1.5-1.7,2.7-2.7,2.7-2.7l0.2,0.1c0,0-0.5,1.5-1.5,3.4c-0.5,1-1.2,2.1-1.9,3.3c-0.8,1.1-1.8,2.3-2.6,3.4c-1.8,2.3-3.6,4.7-4.9,6.5
		c-1.4,1.7-2.3,2.9-2.3,2.9L354.1,129.9z"/>
</g>
<g id="XMLID_79_">
	<path id="XMLID_262_" d="M366.9,111c0,0-0.1-1.3-0.3-3.3c-0.2-2-0.3-4.6-0.4-7.2c-0.1-1.3-0.2-2.6-0.2-3.9c0-1.2,0.1-2.4,0.2-3.4
		c0.3-2,0.7-3.3,0.7-3.3h0.2c0,0,0.4,1.3,0.7,3.3c0.1,1,0.2,2.1,0.2,3.4c0,1.2-0.2,2.5-0.2,3.9c-0.2,2.6-0.3,5.3-0.4,7.2
		c-0.2,2-0.3,3.3-0.3,3.3H366.9z"/>
</g>
<g id="XMLID_78_">
	<path id="XMLID_260_" d="M367.6,90c0,0-0.1,2.2-0.4,4.3c-0.1,0.5,0,1.1-0.2,1.6c-0.1,0.5-0.3,0.9-0.6,1.3c-0.4,0.7-1,1.1-1,1.1
		l-0.2-0.1c0,0-0.3-0.6-0.3-1.5c0-0.4,0-0.9,0.1-1.4c0.1-0.5,0.4-1,0.6-1.5c0.8-2,1.8-4,1.8-4L367.6,90z"/>
</g>
<g id="XMLID_77_">
	<path id="XMLID_258_" d="M365.5,98.3c0,0,0.2,2.8,0.1,5.5c0,0.7,0.1,1.4,0,2c-0.1,0.6-0.2,1.2-0.4,1.7c-0.4,1-0.9,1.6-0.9,1.6
		l-0.2,0c0,0-0.4-0.7-0.5-1.8c-0.1-0.5-0.1-1.1-0.1-1.8c0.1-0.6,0.3-1.3,0.4-2c0.5-2.7,1.3-5.4,1.3-5.4L365.5,98.3z"/>
</g>
<g id="XMLID_119_">
	<line id="XMLID_388_" class="st1" x1="316" y1="201.6" x2="309.9" y2="198.6"/>
	<path id="XMLID_386_" class="st1" d="M316,201.7c0,0-1.7-0.3-3.4-0.9c-0.4-0.1-0.9-0.2-1.2-0.3c-0.4-0.2-0.6-0.4-0.9-0.7
		c-0.5-0.5-0.7-1.1-0.7-1.1l0.1-0.2c0,0,0.6-0.2,1.3-0.2c0.3,0,0.7,0.1,1.1,0.3c0.4,0.2,0.7,0.5,1,0.8c1.4,1,2.8,2.1,2.8,2.1
		L316,201.7z"/>
</g>
<g id="XMLID_120_">
	<line id="XMLID_383_" class="st1" x1="309.9" y1="198.6" x2="306.9" y2="194.8"/>
	<path id="XMLID_382_" class="st1" d="M309.8,198.7c0,0-1.1-0.7-2-1.5c-0.2-0.2-0.6-0.3-0.7-0.6c-0.2-0.2-0.3-0.5-0.3-0.8
		c-0.1-0.5,0.1-1,0.1-1l0.2-0.1c0,0,0.5,0,1,0.2c0.2,0.1,0.5,0.2,0.7,0.5c0.2,0.2,0.2,0.6,0.4,0.9c0.6,1.1,0.9,2.4,0.9,2.4
		L309.8,198.7z"/>
</g>
<g id="XMLID_122_">
	<path id="XMLID_252_" d="M316.2,201.5c0,0,1.3-1.2,2.8-2.1c0.4-0.2,0.7-0.6,1-0.8c0.4-0.2,0.7-0.2,1.1-0.3c0.7-0.1,1.3,0.2,1.3,0.2
		l0.1,0.2c0,0-0.2,0.6-0.7,1.1c-0.2,0.3-0.5,0.5-0.9,0.7c-0.4,0.2-0.8,0.2-1.2,0.3c-1.6,0.5-3.4,0.9-3.4,0.9L316.2,201.5z"/>
</g>
<g id="XMLID_121_">
	<path id="XMLID_250_" d="M322.3,198.6c0,0,0.4-1.2,0.9-2.4c0.1-0.3,0.2-0.6,0.4-0.9c0.2-0.2,0.4-0.4,0.7-0.5c0.5-0.2,1-0.2,1-0.2
		l0.2,0.1c0,0,0.2,0.5,0.1,1c0,0.3-0.1,0.5-0.3,0.8c-0.2,0.2-0.5,0.4-0.7,0.6c-0.9,0.8-2.1,1.5-2.1,1.5L322.3,198.6z"/>
</g>
<g id="XMLID_123_">
	<line id="XMLID_380_" class="st1" x1="306.3" y1="194.8" x2="315.8" y2="192.8"/>
	<path id="XMLID_379_" class="st1" d="M306.2,194.7c0,0,2.3-0.9,4.6-1.7c0.6-0.2,1.2-0.5,1.7-0.6c0.6-0.1,1.1-0.1,1.6-0.1
		c0.9,0.1,1.6,0.4,1.6,0.4l0,0.2c0,0-0.5,0.6-1.4,1c-0.4,0.2-0.9,0.4-1.5,0.6c-0.6,0.1-1.2,0.1-1.8,0.1c-2.4,0.3-4.9,0.3-4.9,0.3
		L306.2,194.7z"/>
</g>
<g id="XMLID_124_">
	<line id="XMLID_377_" class="st1" x1="306.3" y1="194.8" x2="300" y2="181.9"/>
	<path id="XMLID_376_" class="st1" d="M306.2,194.8c0,0-2-3-3.8-6.1c-0.4-0.8-1-1.5-1.4-2.3c-0.4-0.8-0.6-1.5-0.8-2.2
		c-0.4-1.3-0.3-2.3-0.3-2.3l0.2-0.1c0,0,0.8,0.6,1.6,1.7c0.4,0.5,0.9,1.2,1.2,2c0.4,0.8,0.6,1.6,0.9,2.5c1.3,3.3,2.5,6.7,2.5,6.7
		L306.2,194.8z"/>
</g>
<g id="XMLID_125_">
	<line id="XMLID_374_" class="st1" x1="300" y1="181.9" x2="303.1" y2="172.1"/>
	<path id="XMLID_373_" class="st1" d="M299.9,181.8c0,0,0.4-2.6,0.9-5.1c0.1-0.6,0.2-1.3,0.3-1.9c0.2-0.6,0.5-1.1,0.7-1.5
		c0.5-0.8,1.2-1.3,1.2-1.3l0.2,0.1c0,0,0.2,0.7,0.2,1.7c0,0.5-0.1,1.1-0.3,1.6c-0.2,0.6-0.6,1.1-0.8,1.7c-1,2.4-2.2,4.7-2.2,4.7
		L299.9,181.8z"/>
</g>
<g id="XMLID_126_">
	<line id="XMLID_371_" class="st1" x1="303" y1="172" x2="303" y2="168"/>
	<path id="XMLID_370_" class="st1" d="M302.5,172c0,0-0.5-1-0.7-2c-0.1-0.3-0.2-0.5-0.2-0.7c0-0.2,0.1-0.5,0.2-0.6
		c0.3-0.4,0.7-0.6,0.7-0.6h0.2c0,0,0.4,0.3,0.7,0.6c0.1,0.2,0.2,0.4,0.2,0.6c0,0.2-0.2,0.5-0.2,0.7c-0.2,1-0.7,2-0.7,2H302.5z"/>
</g>
<g id="XMLID_127_">
	<line id="XMLID_368_" class="st1" x1="303.1" y1="168" x2="300" y2="165.5"/>
	<path id="XMLID_367_" class="st1" d="M303.1,168.1c0,0-1.1-0.3-2-0.7c-0.2-0.1-0.5-0.1-0.7-0.3c-0.2-0.1-0.3-0.4-0.3-0.6
		c-0.1-0.4,0-0.9,0-0.9l0.1-0.2c0,0,0.5-0.2,0.9-0.2c0.2,0,0.5,0.1,0.7,0.2c0.2,0.2,0.3,0.4,0.4,0.6c0.6,0.8,1.1,1.8,1.1,1.8
		L303.1,168.1z"/>
</g>
<g id="XMLID_128_">
	<line id="XMLID_365_" class="st1" x1="300" y1="165.5" x2="297" y2="166.3"/>
	<path id="XMLID_256_" class="st1" d="M300,165.6c0,0-0.6,0.6-1.3,1.1c-0.2,0.1-0.3,0.3-0.5,0.4c-0.2,0-0.4,0-0.5-0.1
		c-0.3-0.2-0.6-0.6-0.6-0.6l0-0.2c0,0,0.1-0.5,0.3-0.8c0.1-0.2,0.2-0.3,0.4-0.4c0.2,0,0.4,0.1,0.6,0.1c0.8,0.1,1.7,0.3,1.7,0.3
		L300,165.6z"/>
</g>
<g id="XMLID_129_">
	<line id="XMLID_254_" class="st1" x1="297" y1="166.3" x2="295.9" y2="163.6"/>
	<path id="XMLID_253_" class="st1" d="M296.9,166.3c0,0-0.7-0.5-1.2-1c-0.1-0.1-0.3-0.2-0.4-0.4c-0.1-0.2,0-0.3,0-0.5
		c0.1-0.3,0.5-0.7,0.5-0.7l0.2-0.1c0,0,0.5,0,0.8,0.1c0.2,0.1,0.3,0.2,0.4,0.3c0.1,0.2,0,0.4,0,0.6c0.1,0.8-0.1,1.6-0.1,1.6
		L296.9,166.3z"/>
</g>
<g id="XMLID_130_">
	<line id="XMLID_247_" class="st1" x1="295.9" y1="163.6" x2="300" y2="156"/>
	<path id="XMLID_246_" class="st1" d="M295.8,163.6c0,0,0.6-2.1,1.4-4.1c0.2-0.5,0.3-1.1,0.5-1.5c0.2-0.4,0.6-0.8,0.9-1.1
		c0.6-0.6,1.3-0.9,1.3-0.9l0.2,0.1c0,0,0.1,0.7,0,1.5c-0.1,0.4-0.2,0.9-0.4,1.3c-0.3,0.4-0.7,0.8-1,1.3c-1.2,1.8-2.7,3.5-2.7,3.5
		L295.8,163.6z"/>
</g>
<g id="XMLID_131_">
	<line id="XMLID_244_" class="st1" x1="300" y1="156" x2="297.5" y2="152.2"/>
	<path id="XMLID_243_" class="st1" d="M299.9,156.1c0,0-1-0.7-1.8-1.5c-0.2-0.2-0.5-0.4-0.7-0.6c-0.1-0.2-0.2-0.5-0.2-0.7
		c0-0.5,0.2-1,0.2-1l0.2-0.1c0,0,0.5,0,1,0.2c0.2,0.1,0.5,0.3,0.6,0.5c0.1,0.2,0.1,0.6,0.3,0.8c0.4,1.1,0.7,2.3,0.7,2.3L299.9,156.1
		z"/>
</g>
<g id="XMLID_132_">
	<line id="XMLID_241_" class="st1" x1="297.5" y1="152.2" x2="298.8" y2="147.9"/>
	<path id="XMLID_240_" class="st1" d="M297.4,152.1c0,0-0.1-1.2-0.1-2.3c0-0.3-0.1-0.6,0-0.9c0.1-0.3,0.2-0.5,0.4-0.6
		c0.4-0.3,0.9-0.5,0.9-0.5l0.2,0.1c0,0,0.4,0.4,0.5,0.9c0.1,0.2,0.1,0.5,0,0.8c-0.1,0.2-0.3,0.5-0.5,0.7c-0.5,1-1.3,2-1.3,2
		L297.4,152.1z"/>
</g>
<g id="XMLID_142_">
	<path id="XMLID_228_" d="M325.8,194.8c0,0-2.5-0.1-4.9-0.3c-0.6-0.1-1.2,0-1.8-0.1c-0.6-0.1-1.1-0.3-1.5-0.6c-0.9-0.4-1.4-1-1.4-1
		l0-0.2c0,0,0.7-0.3,1.6-0.4c0.5,0,1,0,1.6,0.1c0.6,0.1,1.1,0.4,1.7,0.6c2.4,0.7,4.7,1.7,4.7,1.7L325.8,194.8z"/>
</g>
<g id="XMLID_141_">
	<path id="XMLID_226_" d="M325.8,194.7c0,0,1.2-3.4,2.5-6.7c0.3-0.8,0.6-1.7,0.9-2.5c0.4-0.8,0.8-1.4,1.2-2c0.8-1.1,1.6-1.7,1.6-1.7
		l0.2,0.1c0,0,0,1-0.3,2.3c-0.2,0.7-0.4,1.4-0.8,2.2c-0.4,0.7-0.9,1.5-1.4,2.3c-1.8,3.1-3.8,6.1-3.8,6.1L325.8,194.7z"/>
</g>
<g id="XMLID_140_">
	<path id="XMLID_224_" d="M332,181.9c0,0-1.2-2.3-2.2-4.7c-0.3-0.6-0.6-1.1-0.8-1.7c-0.2-0.6-0.3-1.1-0.3-1.6
		c-0.1-1,0.2-1.7,0.2-1.7l0.2-0.1c0,0,0.6,0.5,1.2,1.3c0.3,0.4,0.5,0.9,0.7,1.5c0.2,0.6,0.2,1.2,0.3,1.9c0.5,2.5,0.9,5.1,0.9,5.1
		L332,181.9z"/>
</g>
<g id="XMLID_138_">
	<path id="XMLID_222_" d="M328.9,167.9c0,0,0.5-1,1.1-1.8c0.2-0.2,0.2-0.5,0.4-0.6c0.2-0.1,0.4-0.2,0.7-0.2c0.5,0,0.9,0.2,0.9,0.2
		l0.1,0.2c0,0,0.1,0.5-0.1,0.9c-0.1,0.2-0.2,0.4-0.4,0.6c-0.2,0.1-0.5,0.2-0.7,0.3c-0.9,0.4-2,0.7-2,0.7L328.9,167.9z"/>
</g>
<g id="XMLID_137_">
	<path id="XMLID_220_" d="M332.2,165.4c0,0,0.9-0.3,1.7-0.3c0.2,0,0.4-0.1,0.6-0.1c0.2,0,0.3,0.2,0.4,0.4c0.2,0.3,0.3,0.8,0.3,0.8
		l0,0.2c0,0-0.3,0.4-0.6,0.6c-0.2,0.1-0.4,0.2-0.5,0.1c-0.2-0.1-0.3-0.3-0.5-0.4c-0.7-0.4-1.3-1.1-1.3-1.1L332.2,165.4z"/>
</g>
<g id="XMLID_136_">
	<path id="XMLID_218_" d="M335,166.2c0,0-0.1-0.8-0.1-1.6c0-0.2-0.1-0.4,0-0.6c0.1-0.2,0.2-0.3,0.4-0.3c0.3-0.1,0.8-0.1,0.8-0.1
		l0.2,0.1c0,0,0.3,0.3,0.5,0.7c0.1,0.2,0.1,0.4,0,0.5c-0.1,0.1-0.3,0.2-0.4,0.4c-0.5,0.6-1.2,1-1.2,1L335,166.2z"/>
</g>
<g id="XMLID_135_">
	<path id="XMLID_216_" d="M336.2,163.7c0,0-1.4-1.7-2.7-3.5c-0.3-0.4-0.7-0.8-1-1.3c-0.2-0.4-0.4-0.9-0.4-1.3c-0.2-0.8,0-1.5,0-1.5
		l0.2-0.1c0,0,0.7,0.3,1.3,0.9c0.3,0.3,0.6,0.7,0.9,1.1c0.2,0.5,0.3,1,0.5,1.5c0.8,2,1.4,4.1,1.4,4.1L336.2,163.7z"/>
</g>
<g id="XMLID_134_">
	<path id="XMLID_214_" d="M332,155.9c0,0,0.2-1.2,0.7-2.3c0.1-0.3,0.1-0.6,0.3-0.8c0.1-0.2,0.4-0.4,0.6-0.5c0.4-0.2,1-0.2,1-0.2
		l0.2,0.1c0,0,0.2,0.5,0.2,1c0,0.3-0.1,0.5-0.2,0.7c-0.2,0.2-0.5,0.4-0.7,0.6c-0.8,0.8-1.8,1.5-1.8,1.5L332,155.9z"/>
</g>
<g id="XMLID_133_">
	<path id="XMLID_212_" d="M334.5,152.2c0,0-0.7-0.9-1.3-2c-0.1-0.3-0.4-0.5-0.5-0.7c-0.1-0.3,0-0.5,0-0.8c0.1-0.5,0.5-0.9,0.5-0.9
		l0.2-0.1c0,0,0.5,0.1,0.9,0.5c0.2,0.2,0.4,0.4,0.4,0.6c0.1,0.3,0,0.6,0,0.9c0.1,1.1,0,2.3,0,2.3L334.5,152.2z"/>
</g>
<g id="XMLID_139_">
	<path id="XMLID_210_" d="M327.9,172c0,0-0.5-1-0.7-2c-0.1-0.3-0.2-0.5-0.2-0.7c0-0.2,0.1-0.5,0.2-0.6c0.3-0.4,0.7-0.6,0.7-0.6h0.2
		c0,0,0.4,0.3,0.7,0.6c0.1,0.2,0.2,0.4,0.2,0.6c0,0.2-0.2,0.5-0.2,0.7c-0.2,1-0.7,2-0.7,2H327.9z"/>
</g>
<g id="XMLID_39_">
	<line id="XMLID_238_" class="st1" x1="267.6" y1="109.3" x2="306.9" y2="145.1"/>
	<path id="XMLID_237_" class="st1" d="M267.6,109.2c0,0,2.5,2.2,6.3,5.4c3.8,3.2,8.8,7.6,13.8,12c2.5,2.2,5.1,4.3,7.4,6.4
		c2.3,2.1,4.4,4.1,6.1,5.9c3.5,3.6,5.7,6.1,5.7,6.1l-0.1,0.1c0,0-2.8-1.9-6.6-5.1c-1.9-1.6-4.2-3.5-6.5-5.6
		c-2.3-2.1-4.6-4.5-7.1-6.8c-4.8-4.6-9.6-9.2-13.2-12.7c-3.6-3.5-6-5.8-6-5.8L267.6,109.2z"/>
</g>
<g id="XMLID_76_">
	<line id="XMLID_235_" class="st1" x1="307" y1="146" x2="316" y2="146"/>
	<path id="XMLID_234_" class="st1" d="M307,145.9c0,0,2.1-0.5,4.3-0.7c0.6-0.1,1-0.2,1.6-0.2c0.5,0,1.2,0.1,1.6,0.2
		c0.8,0.3,1.6,0.7,1.6,0.7v0.2c0,0-0.8,0.4-1.6,0.7c-0.4,0.1-1,0.2-1.5,0.2c-0.5,0-0.9-0.2-1.5-0.2c-2.2-0.2-4.3-0.7-4.3-0.7V145.9z
		"/>
</g>
<g id="XMLID_144_">
	<path id="XMLID_204_" d="M364.1,109.3c0,0-2.4,2.3-6,5.8c-3.6,3.5-8.4,8.1-13.3,12.7c-2.4,2.3-4.8,4.6-7.1,6.8
		c-2.3,2.1-4.5,4-6.5,5.6c-3.9,3.2-6.6,5.1-6.6,5.1l-0.1-0.1c0,0,2.2-2.6,5.7-6.1c1.8-1.8,3.8-3.8,6.2-5.9c2.3-2.1,4.9-4.2,7.4-6.4
		c5-4.4,10.1-8.8,13.9-12c3.8-3.3,6.3-5.4,6.3-5.4L364.1,109.3z"/>
</g>
<g id="XMLID_143_">
	<path id="XMLID_202_" d="M325,146.1c0,0-2.3,0.5-4.5,0.7c-0.6,0.1-1.1,0.2-1.7,0.2c-0.5,0-1-0.1-1.4-0.2c-0.8-0.3-1.4-0.7-1.4-0.7
		v-0.2c0,0,0.6-0.4,1.4-0.7c0.4-0.1,0.9-0.2,1.4-0.2c0.5,0,1.1,0.2,1.7,0.2c2.3,0.2,4.5,0.7,4.5,0.7V146.1z"/>
</g>
<g id="XMLID_145_">
	<line id="XMLID_232_" class="st1" x1="303.1" y1="170.5" x2="300" y2="169.1"/>
	<path id="XMLID_231_" class="st1" d="M303.1,170.6c0,0-1,0.1-1.8,0c-0.2,0-0.5,0-0.7,0c-0.2-0.1-0.3-0.3-0.4-0.4
		c-0.2-0.4-0.2-0.9-0.2-0.9l0.1-0.2c0,0,0.4-0.3,0.8-0.4c0.2-0.1,0.4-0.1,0.6,0c0.2,0.1,0.3,0.3,0.5,0.5c0.7,0.6,1.3,1.3,1.3,1.3
		L303.1,170.6z"/>
</g>
<g id="XMLID_146_">
	<line id="XMLID_229_" class="st1" x1="300" y1="169.1" x2="297.5" y2="166.3"/>
	<path id="XMLID_208_" class="st1" d="M299.9,169.2c0,0-1-0.4-1.8-1c-0.2-0.1-0.5-0.2-0.6-0.4c-0.1-0.2-0.2-0.4-0.2-0.6
		c0-0.4,0.1-0.9,0.1-0.9l0.2-0.1c0,0,0.5-0.1,0.9,0c0.2,0,0.4,0.1,0.6,0.3c0.1,0.2,0.2,0.5,0.3,0.7c0.4,0.9,0.7,1.9,0.7,1.9
		L299.9,169.2z"/>
</g>
<g id="XMLID_148_">
	<path id="XMLID_196_" d="M328.8,170.4c0,0,0.6-0.8,1.3-1.3c0.2-0.1,0.3-0.4,0.5-0.5c0.2-0.1,0.4-0.1,0.6,0c0.4,0.1,0.8,0.4,0.8,0.4
		l0.1,0.2c0,0,0,0.5-0.2,0.9c-0.1,0.2-0.2,0.4-0.4,0.4c-0.2,0.1-0.5,0-0.7,0c-0.9,0.1-1.8,0-1.8,0L328.8,170.4z"/>
</g>
<g id="XMLID_147_">
	<path id="XMLID_194_" d="M331.9,169.1c0,0,0.3-1,0.7-1.9c0.1-0.2,0.1-0.5,0.3-0.7c0.1-0.2,0.4-0.3,0.6-0.3c0.4-0.1,0.9,0,0.9,0
		l0.2,0.1c0,0,0.2,0.5,0.1,0.9c0,0.2-0.1,0.4-0.2,0.6c-0.2,0.2-0.4,0.2-0.6,0.4c-0.8,0.6-1.8,1-1.8,1L331.9,169.1z"/>
</g>
<g id="XMLID_149_">
	<line id="XMLID_206_" class="st1" x1="315.8" y1="190.5" x2="312" y2="188.3"/>
	<path id="XMLID_205_" class="st1" d="M315.8,190.6c0,0-1.2-0.2-2.3-0.5c-0.3-0.1-0.6-0.1-0.8-0.2c-0.2-0.1-0.4-0.3-0.5-0.6
		c-0.2-0.4-0.3-1-0.3-1l0.1-0.2c0,0,0.5-0.3,0.9-0.3c0.2,0,0.5,0,0.7,0.1c0.2,0.1,0.4,0.4,0.6,0.6c0.8,0.8,1.6,1.7,1.6,1.7
		L315.8,190.6z"/>
</g>
<g id="XMLID_150_">
	<line id="XMLID_199_" class="st1" x1="312" y1="188.3" x2="312.9" y2="186.3"/>
	<path id="XMLID_198_" class="st1" d="M311.9,188.3c0,0-0.2-0.7-0.2-1.3c0-0.2-0.1-0.4,0-0.5c0.1-0.1,0.2-0.2,0.4-0.2
		c0.3-0.1,0.8,0,0.8,0l0.2,0.1c0,0,0.3,0.3,0.5,0.6c0.1,0.2,0.1,0.3,0.1,0.4c-0.1,0.1-0.3,0.2-0.4,0.3c-0.5,0.4-1.1,0.7-1.1,0.7
		L311.9,188.3z"/>
</g>
<g id="XMLID_151_">
	<line id="XMLID_192_" class="st1" x1="312.9" y1="186.3" x2="315.8" y2="187.3"/>
	<path id="XMLID_191_" class="st1" d="M313,186.2c0,0,0.9-0.2,1.7-0.1c0.2,0,0.4-0.1,0.6,0c0.2,0.1,0.3,0.2,0.4,0.4
		c0.2,0.3,0.2,0.8,0.2,0.8l-0.1,0.2c0,0-0.3,0.4-0.7,0.5c-0.2,0.1-0.4,0.1-0.5,0.1c-0.2-0.1-0.3-0.3-0.5-0.4
		c-0.6-0.5-1.2-1.2-1.2-1.2L313,186.2z"/>
</g>
<g id="XMLID_154_">
	<path id="XMLID_186_" d="M316.3,190.4c0,0,0.7-0.9,1.6-1.7c0.2-0.2,0.4-0.5,0.6-0.6c0.2-0.1,0.5-0.2,0.7-0.1c0.5,0,0.9,0.3,0.9,0.3
		l0.1,0.2c0,0,0,0.5-0.3,1c-0.1,0.2-0.3,0.4-0.5,0.6c-0.2,0.1-0.6,0.1-0.8,0.2c-1.1,0.3-2.3,0.5-2.3,0.5L316.3,190.4z"/>
</g>
<g id="XMLID_153_">
	<path id="XMLID_184_" d="M320.2,188.4c0,0-0.6-0.3-1.1-0.7c-0.1-0.1-0.3-0.2-0.4-0.3c-0.1-0.1,0-0.3,0.1-0.4
		c0.1-0.3,0.5-0.6,0.5-0.6l0.2-0.1c0,0,0.5-0.1,0.8,0c0.2,0,0.3,0.1,0.4,0.2c0,0.1-0.1,0.3,0,0.5c0,0.6-0.2,1.3-0.2,1.3L320.2,188.4
		z"/>
</g>
<g id="XMLID_152_">
	<path id="XMLID_182_" d="M319.3,186.3c0,0-0.6,0.7-1.2,1.2c-0.2,0.1-0.3,0.3-0.5,0.4c-0.2,0.1-0.4,0-0.5-0.1
		c-0.4-0.1-0.7-0.5-0.7-0.5l-0.1-0.2c0,0,0-0.5,0.2-0.8c0.1-0.2,0.2-0.3,0.4-0.4c0.2,0,0.4,0,0.6,0c0.8,0,1.7,0.1,1.7,0.1
		L319.3,186.3z"/>
</g>
<g id="XMLID_155_">
	<path id="XMLID_180_" d="M316.1,151c0,0,0.1,1.6,0.3,4.1c0.2,2.4,0.3,5.7,0.4,8.9c0.1,1.6,0.2,3.3,0.2,4.8c0,1.5-0.1,2.9-0.2,4.2
		c-0.3,2.4-0.7,4.1-0.7,4.1h-0.2c0,0-0.4-1.6-0.7-4.1c-0.1-1.2-0.2-2.6-0.2-4.2c0-1.5,0.2-3.1,0.2-4.8c0.2-3.3,0.3-6.5,0.4-8.9
		c0.2-2.4,0.3-4.1,0.3-4.1H316.1z"/>
</g>
</svg>
