<?xml version="1.0" encoding="utf-8"?>
<!-- Generator: Adobe Illustrator 19.0.0, SVG Export Plug-In . SVG Version: 6.00 Build 0)  -->
<svg version="1.1" id="Layer_1" xmlns="http://www.w3.org/2000/svg" xmlns:xlink="http://www.w3.org/1999/xlink" x="0px" y="0px"
	 viewBox="0 0 800 600" style="enable-background:new 0 0 800 600;" xml:space="preserve">
<style type="text/css">
	.st0{fill:none;stroke:#FFFFFF;stroke-width:4;stroke-miterlimit:10;}
	.st1{fill:#FFFFFF;}
	.st2{fill:none;stroke:#000000;stroke-width:4;stroke-miterlimit:10;}
	.st3{fill:none;}
</style>
<g id="XMLID_3_">
	<g id="XMLID_18_">
	</g>
	<g id="XMLID_20_">
		<line id="XMLID_22_" class="st0" x1="358.9" y1="487.5" x2="401" y2="503.2"/>
	</g>
</g>
<g id="XMLID_15_">
	<line id="XMLID_521_" class="st1" x1="358.9" y1="487.5" x2="361.1" y2="481.5"/>
	<path id="XMLID_520_" class="st1" d="M358.7,487.4c0,0-0.1,0-0.2-0.1c-0.1-0.1-0.2-0.2-0.4-0.4c-0.3-0.3-0.7-0.7-1-1.1
		c-0.3-0.4-0.5-0.9-0.6-1.3c-0.1-0.2-0.1-0.4-0.1-0.6c0-0.2,0.1-0.4,0.1-0.6c0.1-0.2,0.2-0.4,0.3-0.5c0.1-0.2,0.3-0.3,0.5-0.4
		c0.4-0.3,0.8-0.5,1.3-0.6c0.5-0.1,1-0.4,1.5-0.5c0.2,0,0.4-0.3,0.5-0.3c0.1,0,0.2,0,0.2,0l0.4,0.4c0,0-0.1,0.5-0.2,1.1
		c-0.2,0.6-0.4,1.4-0.7,2.1c-0.3,0.7-0.6,1.5-0.8,2c-0.3,0.5-0.4,0.9-0.4,0.9L358.7,487.4z"/>
</g>
<g id="XMLID_17_">
	<line id="XMLID_518_" class="st1" x1="337.1" y1="416.7" x2="361.1" y2="481.5"/>
	<path id="XMLID_517_" class="st1" d="M337.3,416.7c0,0,0.2,0.2,0.5,0.7c0.3,0.4,0.7,1.1,1.2,1.9c0.5,0.8,1.1,1.8,1.8,3
		c0.7,1.2,1.4,2.5,2.1,3.9c0.8,1.4,1.6,3,2.4,4.7c0.8,1.7,1.7,3.4,2.5,5.3c0.8,1.9,1.7,3.8,2.4,5.8c0.8,2,1.6,4,2.3,6
		c0.7,2,1.4,4.1,2.1,6.1c0.7,2,1.3,4,1.9,6c0.6,1.9,1.1,3.8,1.6,5.6c0.5,1.8,0.9,3.5,1.3,5.1c0.4,1.6,0.7,3.1,0.9,4.4
		c0.3,1.3,0.4,2.5,0.6,3.4c0.2,0.9,0.2,1.7,0.3,2.2c0.1,0.5,0.1,0.8,0.1,0.8l-0.4,0.1c0,0-1.5-4-3.8-10.1
		c-2.3-6.1-5.3-14.2-8.3-22.2c-3-8.1-5.9-16.2-8.1-22.3c-2.2-6.1-3.6-10.2-3.6-10.2L337.3,416.7z"/>
</g>
<g id="XMLID_19_">
	<line id="XMLID_515_" class="st1" x1="337.1" y1="416.7" x2="343.3" y2="400.5"/>
	<path id="XMLID_514_" class="st1" d="M337,416.7c0,0,0-0.1-0.1-0.3c-0.1-0.2-0.2-0.4-0.3-0.7c-0.2-0.6-0.4-1.4-0.5-2.3
		c-0.1-0.9-0.1-1.9,0-3c0.1-0.5,0.2-1,0.3-1.6c0.1-0.5,0.3-1,0.5-1.5c0.2-0.5,0.4-1,0.7-1.5c0.2-0.5,0.5-0.9,0.8-1.4
		c0.6-0.9,1.3-1.6,2-2.2c0.7-0.6,1.4-1.1,1.9-1.4c0.2-0.2,0.5-0.3,0.6-0.3c0.2-0.1,0.3-0.1,0.3-0.1l0.4,0.1c0,0-0.1,0.3-0.2,0.7
		c-0.2,0.4-0.3,1.1-0.6,1.9c-0.6,1.5-1.3,3.6-2,5.6c-0.8,2-1.6,4-2.2,5.5c-0.3,0.8-0.6,1.4-0.8,1.8c-0.2,0.4-0.3,0.7-0.3,0.7
		L337,416.7z"/>
</g>
<g id="XMLID_21_">
	<line id="XMLID_512_" class="st1" x1="342" y1="401" x2="342" y2="364"/>
	<path id="XMLID_511_" class="st1" d="M341.8,401c0,0-0.1-0.1-0.2-0.4c-0.1-0.3-0.3-0.6-0.5-1.1c-0.2-0.5-0.4-1.1-0.6-1.8
		c-0.2-0.7-0.5-1.5-0.7-2.3c-0.2-0.9-0.4-1.8-0.6-2.8c-0.2-1-0.3-2-0.5-3.1c-0.1-1.1-0.2-2.2-0.3-3.3c-0.1-1.1-0.1-2.3-0.1-3.4
		c0-1.1,0-2.3,0.1-3.4c0.1-1.1,0.2-2.2,0.3-3.3c0.1-1.1,0.3-2.1,0.5-3.1c0.2-1,0.4-1.9,0.6-2.8c0.2-0.9,0.4-1.6,0.6-2.3
		c0.2-0.7,0.4-1.3,0.6-1.8c0.2-0.5,0.4-1.1,0.5-1.3c0.1-0.3,0.2-0.6,0.2-0.6h0.4c0,0,0,0.7,0,1.8c0,1,0.1,2.5,0.1,4.2
		c0,3.4,0.1,8.1,0.1,12.7c0,4.6-0.1,9.2-0.1,12.6c0,1.7-0.1,3.1-0.1,4.1c0,1,0,1.6,0,1.6H341.8z"/>
</g>
<g id="XMLID_12_">
	<g id="XMLID_6_">
	</g>
	<g id="XMLID_7_">
		<line id="XMLID_8_" class="st2" x1="444.8" y1="487.5" x2="402.6" y2="503.2"/>
	</g>
</g>
<g id="XMLID_11_">
	<path id="XMLID_509_" d="M444.6,488c0,0-0.1,0-0.2,0c-0.1,0-0.3-0.2-0.5-0.3c-0.4,0-1-0.2-1.5-0.3c-0.5-0.1-1-0.4-1.3-0.6
		c-0.2-0.1-0.3-0.3-0.5-0.5c-0.1-0.2-0.2-0.4-0.3-0.5c-0.1-0.2-0.1-0.4-0.1-0.6c0-0.2,0-0.4,0.1-0.6c0.1-0.4,0.3-0.9,0.6-1.3
		c0.3-0.4,0.7-0.8,1-1.1c0.1-0.1,0.3-0.3,0.4-0.4c0.1-0.1,0.2-0.1,0.2-0.1l0.4-0.1c0,0,0.2,0.4,0.4,0.9c0.3,0.5,0.5,1.3,0.8,2
		c0.3,0.7,0.5,1.5,0.7,2.1c0.2,0.6,0.2,1.2,0.2,1.2L444.6,488z"/>
</g>
<g id="XMLID_10_">
	<path id="XMLID_507_" d="M466.9,416.8c0,0,0,0.3-0.1,0.8c-0.1,0.5-0.1,1.3-0.3,2.2c-0.2,1-0.3,2.1-0.6,3.4
		c-0.3,1.3-0.5,2.8-0.9,4.4c-0.4,1.6-0.8,3.3-1.3,5.1c-0.5,1.8-1,3.7-1.6,5.6c-0.6,1.9-1.2,4-1.9,6c-0.7,2-1.4,4-2.1,6.1
		c-0.8,2-1.6,4-2.4,6c-0.8,2-1.7,3.9-2.4,5.8c-0.8,1.9-1.7,3.6-2.5,5.3c-0.8,1.7-1.6,3.3-2.4,4.7c-0.7,1.5-1.5,2.8-2.1,3.9
		c-0.6,1.2-1.3,2.2-1.8,3c-0.5,0.8-0.9,1.5-1.2,1.9c-0.3,0.4-0.5,0.7-0.5,0.7l-0.4-0.1c0,0,1.5-4.1,3.7-10.2
		c2.2-6.1,5.2-14.2,8.2-22.3c3-8.1,6.1-16.2,8.3-22.2c2.3-6.1,3.9-10.1,3.9-10.1L466.9,416.8z"/>
</g>
<g id="XMLID_9_">
	<path id="XMLID_505_" d="M466.5,416.8c0,0-0.1,0-0.3-0.1c-0.1-0.1-0.4-0.2-0.6-0.3c-0.5-0.3-1.2-0.8-1.9-1.4
		c-0.7-0.6-1.4-1.4-2-2.2c-0.3-0.4-0.6-0.9-0.8-1.4c-0.3-0.5-0.5-1-0.7-1.5c-0.2-0.5-0.4-1-0.5-1.5c-0.1-0.5-0.2-1-0.3-1.6
		c-0.1-1-0.1-2.1,0-3c0.1-0.9,0.3-1.7,0.5-2.3c0.1-0.3,0.2-0.5,0.2-0.7c0.1-0.2,0.1-0.3,0.1-0.3l0.4-0.1c0,0,0.1,0.2,0.3,0.7
		c0.2,0.4,0.5,1.1,0.8,1.8c0.6,1.5,1.4,3.5,2.2,5.5c0.7,2,1.5,4.1,2,5.6c0.3,0.8,0.5,1.4,0.6,1.9c0.1,0.5,0.2,0.7,0.2,0.7
		L466.5,416.8z"/>
</g>
<g id="XMLID_2_">
	<path id="XMLID_503_" d="M459.1,401c0,0-0.1-0.1-0.2-0.4c-0.1-0.3-0.3-0.6-0.5-1.1c-0.2-0.5-0.4-1.1-0.6-1.8
		c-0.2-0.7-0.5-1.5-0.7-2.3c-0.2-0.9-0.4-1.8-0.6-2.8c-0.2-1-0.3-2-0.5-3.1c-0.1-1.1-0.2-2.2-0.3-3.3c-0.1-1.1-0.1-2.3-0.1-3.4
		c0-1.1,0-2.3,0.1-3.4c0.1-1.1,0.2-2.2,0.3-3.3c0.1-1.1,0.3-2.1,0.5-3.1c0.2-1,0.4-1.9,0.6-2.8c0.2-0.9,0.4-1.6,0.6-2.3
		c0.2-0.7,0.4-1.3,0.6-1.8c0.2-0.5,0.4-1.1,0.5-1.3c0.1-0.3,0.2-0.6,0.2-0.6h0.4c0,0,0,0.7,0,1.8c0,1,0.1,2.5,0.1,4.2
		c0,3.4,0.1,8.1,0.1,12.7c0,4.6-0.1,9.2-0.1,12.6c0,1.7-0.1,3.1-0.1,4.1c0,1,0,1.6,0,1.6H459.1z"/>
</g>
<g id="XMLID_23_">
	<line id="XMLID_501_" class="st1" x1="343.1" y1="365.4" x2="335.5" y2="353.9"/>
	<path id="XMLID_500_" class="st1" d="M342.9,365.5c0,0-0.1,0-0.2,0c-0.1,0-0.4,0-0.6-0.1c-0.5-0.1-1.2-0.3-1.9-0.6
		c-0.7-0.3-1.4-0.7-2.1-1.3c-0.3-0.3-0.6-0.6-0.9-0.9c-0.3-0.3-0.5-0.7-0.8-1c-0.2-0.4-0.4-0.7-0.6-1.1c-0.2-0.4-0.3-0.8-0.4-1.2
		c-0.2-0.8-0.3-1.6-0.3-2.4c0-0.8,0.1-1.5,0.2-2c0-0.3,0.1-0.5,0.2-0.6c0.1-0.2,0.1-0.2,0.1-0.2l0.3-0.2c0,0,0.5,0.7,1.3,1.7
		c0.8,1.1,1.7,2.5,2.7,3.9c0.9,1.4,1.9,2.9,2.5,4c0.7,1.1,1.1,1.9,1.1,1.9L342.9,365.5z"/>
</g>
<g id="XMLID_24_">
	<line id="XMLID_498_" class="st1" x1="335.5" y1="353.9" x2="306.7" y2="357.5"/>
	<path id="XMLID_497_" class="st1" d="M335.6,354.1c0,0-0.1,0.1-0.3,0.2c-0.2,0.1-0.5,0.4-0.9,0.6c-0.7,0.5-1.8,1.1-3.1,1.7
		c-1.3,0.6-2.8,1.2-4.5,1.6c-0.8,0.2-1.7,0.4-2.6,0.6c-0.9,0.2-1.8,0.3-2.7,0.4c-0.9,0.1-1.8,0.2-2.7,0.2c-0.9,0.1-1.8,0.1-2.6,0
		c-1.7,0-3.3-0.2-4.8-0.5c-1.4-0.3-2.6-0.6-3.4-0.9c-0.4-0.1-0.8-0.3-1-0.4c-0.2-0.1-0.3-0.2-0.3-0.2l0-0.4c0,0,0.4-0.1,1.2-0.2
		c0.8-0.1,1.9-0.3,3.3-0.5c2.7-0.4,6.3-0.8,9.9-1.3c3.6-0.4,7.2-0.8,9.9-1.1c1.4-0.2,2.5-0.3,3.3-0.3c0.8-0.1,1.2-0.1,1.2-0.1
		L335.6,354.1z"/>
</g>
<g id="XMLID_25_">
	<line id="XMLID_495_" class="st1" x1="306.7" y1="357.5" x2="279.8" y2="336.4"/>
	<path id="XMLID_494_" class="st1" d="M306.5,357.7c0,0-0.1,0-0.4-0.1c-0.3-0.1-0.7-0.1-1.2-0.3c-1-0.3-2.3-0.7-3.8-1.4
		c-1.5-0.7-3.2-1.5-5-2.6c-0.9-0.5-1.7-1.1-2.6-1.7c-0.9-0.6-1.7-1.2-2.6-1.9c-0.8-0.7-1.7-1.3-2.4-2c-0.8-0.7-1.5-1.4-2.3-2.1
		c-1.4-1.4-2.7-2.9-3.7-4.2c-1-1.3-1.8-2.5-2.3-3.4c-0.3-0.4-0.4-0.8-0.6-1c-0.1-0.3-0.2-0.4-0.2-0.4l0.2-0.3c0,0,0.4,0.3,1.2,0.9
		c0.7,0.6,1.8,1.3,3.1,2.3c2.5,2,5.9,4.6,9.3,7.2c3.3,2.7,6.7,5.3,9.2,7.3c1.3,1,2.3,1.9,3,2.4c0.7,0.6,1.1,0.9,1.1,0.9L306.5,357.7
		z"/>
</g>
<g id="XMLID_26_">
	<line id="XMLID_492_" class="st1" x1="279.8" y1="335.5" x2="304.7" y2="315.9"/>
	<path id="XMLID_491_" class="st1" d="M279.6,335.4c0,0,0.1-0.1,0.2-0.4c0.1-0.2,0.3-0.6,0.5-1c0.4-0.8,1.1-2,2-3.2
		c0.9-1.3,2-2.6,3.3-4c0.7-0.7,1.3-1.4,2.1-2c0.7-0.7,1.5-1.3,2.3-1.9c0.8-0.6,1.6-1.2,2.4-1.7c0.8-0.6,1.6-1.1,2.4-1.5
		c1.6-1,3.2-1.7,4.6-2.3c1.4-0.6,2.7-1,3.6-1.2c0.4-0.1,0.8-0.2,1.1-0.2c0.3,0,0.4-0.1,0.4-0.1l0.2,0.3c0,0-0.4,0.3-1.1,0.9
		c-0.7,0.5-1.6,1.4-2.8,2.3c-2.3,1.9-5.4,4.3-8.5,6.8c-3.1,2.4-6.3,4.9-8.6,6.7c-1.2,0.9-2.2,1.6-2.9,2.2c-0.7,0.5-1.1,0.8-1.1,0.8
		L279.6,335.4z"/>
</g>
<g id="XMLID_27_">
	<line id="XMLID_489_" class="st1" x1="305.6" y1="315.9" x2="363.2" y2="335.5"/>
	<path id="XMLID_488_" class="st1" d="M305.6,315.7c0,0,0.2,0,0.7,0c0.5,0,1.1,0.1,2,0.2c0.8,0.1,1.9,0.2,3,0.4
		c1.2,0.2,2.5,0.4,3.9,0.6c1.4,0.3,3,0.5,4.6,0.9c1.6,0.4,3.3,0.7,5,1.2c1.7,0.5,3.5,0.9,5.3,1.5c1.8,0.5,3.6,1.1,5.4,1.7
		c1.8,0.6,3.6,1.3,5.3,1.9c1.8,0.6,3.5,1.4,5.1,2.1c1.7,0.7,3.2,1.4,4.7,2.1c1.5,0.7,2.9,1.4,4.2,2c1.3,0.6,2.5,1.3,3.5,1.9
		c1,0.6,1.9,1.1,2.6,1.6c0.7,0.4,1.3,0.8,1.7,1.1c0.4,0.3,0.6,0.4,0.6,0.4l-0.1,0.4c0,0-3.6-1.2-9-3c-5.4-1.8-12.6-4.2-19.8-6.7
		c-7.2-2.5-14.4-5-19.8-6.8c-5.4-1.9-9-3.2-9-3.2L305.6,315.7z"/>
</g>
<g id="XMLID_32_">
	<path id="XMLID_486_" d="M460.1,365.3c0,0,0-0.1-0.1-0.2c0-0.1-0.1-0.4-0.2-0.6c-0.1-0.5-0.2-1.2-0.2-2c0-0.8,0.1-1.6,0.3-2.4
		c0.1-0.4,0.3-0.8,0.4-1.2c0.2-0.4,0.4-0.8,0.6-1.1c0.3-0.3,0.5-0.7,0.8-1c0.3-0.3,0.6-0.6,0.9-0.9c0.7-0.5,1.4-1,2.1-1.3
		c0.7-0.3,1.4-0.5,1.9-0.6c0.2-0.1,0.5-0.1,0.6-0.1c0.2,0,0.2,0,0.2,0l0.3,0.2c0,0-0.4,0.8-1.1,1.9c-0.7,1.1-1.6,2.6-2.5,4
		c-1,1.4-1.9,2.9-2.7,3.9c-0.8,1.1-1.3,1.7-1.3,1.7L460.1,365.3z"/>
</g>
<g id="XMLID_31_">
	<path id="XMLID_484_" d="M467.9,353.7c0,0,0.1-0.1,0.3-0.2c0.2-0.1,0.6-0.2,1-0.4c0.8-0.3,2-0.6,3.4-0.9c1.4-0.3,3-0.4,4.8-0.5
		c0.9,0,1.8,0,2.7,0c0.9,0,1.8,0.1,2.7,0.2c0.9,0.1,1.8,0.3,2.7,0.4c0.9,0.2,1.7,0.4,2.6,0.6c1.7,0.5,3.2,1,4.5,1.6
		c1.3,0.6,2.4,1.2,3.1,1.7c0.4,0.2,0.7,0.5,0.9,0.6c0.2,0.2,0.3,0.2,0.3,0.2l0,0.4c0,0-0.5,0-1.2-0.1c-0.8-0.1-1.9-0.2-3.3-0.3
		c-2.7-0.3-6.3-0.7-10-1.1c-3.6-0.5-7.2-1-10-1.3c-1.4-0.2-2.5-0.4-3.3-0.5c-0.8-0.1-1.2-0.2-1.2-0.2L467.9,353.7z"/>
</g>
<g id="XMLID_30_">
	<path id="XMLID_482_" d="M496.7,357.4c0,0,0.1-0.1,0.2-0.4c0.1-0.2,0.3-0.6,0.6-1c0.5-0.9,1.3-2.1,2.3-3.4c1-1.3,2.3-2.8,3.7-4.2
		c0.7-0.7,1.5-1.4,2.3-2.1c0.8-0.7,1.6-1.4,2.5-2c0.9-0.6,1.7-1.3,2.6-1.9c0.9-0.6,1.7-1.2,2.6-1.7c1.7-1,3.4-1.9,5-2.5
		c1.5-0.6,2.9-1.1,3.9-1.4c0.5-0.2,0.9-0.2,1.2-0.3c0.3-0.1,0.4-0.1,0.4-0.1l0.2,0.3c0,0-0.4,0.3-1.1,0.9c-0.7,0.6-1.8,1.5-3,2.4
		c-2.5,2-5.9,4.7-9.2,7.3c-3.4,2.6-6.8,5.2-9.3,7.2c-1.3,1-2.4,1.8-3.1,2.3c-0.8,0.6-1.2,0.9-1.2,0.9L496.7,357.4z"/>
</g>
<g id="XMLID_29_">
	<path id="XMLID_480_" d="M523.7,335.7c0,0-0.1,0-0.4-0.1c-0.3-0.1-0.6-0.1-1.1-0.2c-0.9-0.2-2.2-0.6-3.6-1.2
		c-1.4-0.6-3-1.4-4.7-2.3c-0.8-0.5-1.6-1-2.4-1.5c-0.8-0.5-1.6-1.2-2.4-1.8c-0.8-0.6-1.5-1.2-2.3-1.9c-0.7-0.6-1.4-1.3-2.1-2
		c-1.3-1.3-2.5-2.7-3.4-4c-0.9-1.3-1.6-2.4-2-3.2c-0.2-0.4-0.4-0.8-0.5-1c-0.1-0.2-0.2-0.4-0.2-0.4l0.2-0.3c0,0,0.4,0.3,1.1,0.8
		c0.7,0.5,1.7,1.3,2.9,2.2c2.4,1.8,5.5,4.2,8.7,6.7c3.1,2.5,6.2,5,8.5,6.8c1.2,0.9,2.1,1.7,2.8,2.3c0.7,0.6,1.1,0.9,1.1,0.9
		L523.7,335.7z"/>
</g>
<g id="XMLID_28_">
	<path id="XMLID_478_" d="M498,316.1c0,0-0.2,0.1-0.6,0.4c-0.4,0.2-1,0.6-1.7,1.1c-0.7,0.4-1.6,1-2.7,1.6c-1.1,0.6-2.2,1.2-3.6,1.9
		c-1.3,0.7-2.7,1.4-4.3,2c-1.5,0.7-3.1,1.4-4.8,2.1c-1.7,0.7-3.4,1.4-5.2,2.1c-1.8,0.7-3.6,1.3-5.5,1.9c-1.8,0.6-3.7,1.2-5.5,1.7
		c-1.8,0.6-3.7,1-5.4,1.5c-1.7,0.5-3.5,0.9-5.1,1.2c-1.6,0.4-3.2,0.7-4.6,0.9c-1.4,0.3-2.8,0.5-4,0.6c-1.2,0.2-2.2,0.3-3.1,0.4
		c-0.9,0.1-1.6,0.1-2,0.2c-0.5,0-0.7,0-0.7,0l-0.1-0.4c0,0,3.7-1.3,9.2-3.2c5.5-1.9,12.9-4.3,20.2-6.8c7.4-2.4,14.7-4.8,20.3-6.7
		c5.5-1.8,9.2-3,9.2-3L498,316.1z"/>
</g>
<g id="XMLID_41_">
	<path id="XMLID_475_" class="st1" d="M286.2,295.2"/>
</g>
<g id="XMLID_40_">
	<path id="XMLID_472_" class="st1" d="M301.9,315.9"/>
</g>
<g id="XMLID_116_">
	<path id="XMLID_469_" class="st1" d="M286.2,295.2"/>
</g>
<g id="XMLID_115_">
	<path id="XMLID_466_" class="st3" d="M323.9,163.5"/>
</g>
<g id="XMLID_35_">
	<path id="XMLID_463_" class="st3" d="M328.3,162.4"/>
</g>
<g id="XMLID_34_">
	<path id="XMLID_460_" class="st3" d="M323.9,163.5"/>
</g>
<g id="XMLID_114_">
	<path id="XMLID_457_" class="st3" d="M328.3,162.4"/>
</g>
<g id="XMLID_110_">
	<path id="XMLID_454_" class="st1" d="M382.5,315.9"/>
</g>
<g id="XMLID_38_">
	<path id="XMLID_451_" class="st3" d="M500.2,315.9"/>
</g>
<g id="XMLID_112_">
	<path id="XMLID_448_" class="st3" d="M478.4,163.5"/>
</g>
<g id="XMLID_37_">
	<path id="XMLID_445_" class="st3" d="M474.1,162.4"/>
</g>
<g id="XMLID_36_">
	<path id="XMLID_442_" class="st3" d="M478.4,163.5"/>
</g>
<g id="XMLID_71_">
	<path id="XMLID_439_" class="st3" d="M474.1,162.4"/>
</g>
<g id="XMLID_111_">
	<path id="XMLID_436_" class="st3" d="M419.3,315.9"/>
</g>
<g id="XMLID_33_">
	<line id="XMLID_434_" class="st1" x1="286.2" y1="330" x2="248" y2="303.1"/>
	<path id="XMLID_433_" class="st1" d="M286.1,330.1c0,0-0.2,0-0.5-0.1c-0.3-0.1-0.9-0.2-1.5-0.5c-0.6-0.2-1.4-0.5-2.2-0.8
		c-0.9-0.3-1.8-0.7-2.8-1.2c-1-0.5-2.1-1-3.2-1.6c-1.1-0.6-2.3-1.2-3.5-1.9c-1.2-0.7-2.4-1.4-3.6-2.2c-1.2-0.8-2.4-1.6-3.6-2.4
		c-1.2-0.9-2.4-1.7-3.5-2.6c-1.1-0.9-2.2-1.8-3.3-2.7c-1.1-0.9-2-1.8-3-2.7c-0.9-0.8-1.8-1.7-2.6-2.5c-0.8-0.8-1.5-1.6-2.1-2.2
		c-0.6-0.7-1.1-1.3-1.5-1.8c-0.4-0.5-0.7-1-0.9-1.2c-0.2-0.3-0.3-0.5-0.3-0.5l0.2-0.3c0,0,0.6,0.4,1.7,1.1c1.1,0.7,2.6,1.7,4.4,3
		c3.6,2.5,8.4,5.8,13.2,9.1c4.8,3.4,9.5,6.8,13.1,9.3c1.8,1.3,3.3,2.4,4.3,3.1c1,0.8,1.6,1.2,1.6,1.2L286.1,330.1z"/>
</g>
<g id="XMLID_42_">
	<line id="XMLID_431_" class="st1" x1="248" y1="303.1" x2="206" y2="299.2"/>
	<path id="XMLID_430_" class="st1" d="M248,303.3c0,0-0.2,0.1-0.5,0.2c-0.3,0.1-0.8,0.2-1.4,0.4c-0.6,0.1-1.3,0.3-2.1,0.4
		c-0.8,0.1-1.7,0.3-2.7,0.4c-1,0.1-2.1,0.2-3.2,0.3c-1.1,0.1-2.3,0.1-3.6,0.1c-1.2,0-2.5,0-3.8-0.1c-1.3,0-2.6-0.2-3.9-0.3
		c-1.3-0.1-2.6-0.3-3.9-0.5c-1.3-0.2-2.5-0.4-3.8-0.6c-1.2-0.2-2.4-0.5-3.5-0.8c-1.1-0.3-2.2-0.6-3.1-0.9c-1-0.3-1.8-0.6-2.6-0.9
		c-0.8-0.3-1.5-0.6-2-0.8c-0.6-0.2-1-0.5-1.3-0.6c-0.3-0.2-0.5-0.2-0.5-0.2l0-0.4c0,0,0.7,0,1.8,0.1c1.1,0.1,2.8,0.2,4.8,0.4
		c3.9,0.3,9.2,0.8,14.4,1.3c5.2,0.5,10.5,1.1,14.4,1.5c2,0.2,3.6,0.4,4.7,0.5c1.1,0.1,1.8,0.2,1.8,0.2L248,303.3z"/>
</g>
<g id="XMLID_43_">
	<line id="XMLID_428_" class="st1" x1="206" y1="299.2" x2="185.6" y2="284.4"/>
	<path id="XMLID_427_" class="st1" d="M205.9,299.4c0,0-0.1,0-0.3,0c-0.2,0-0.5,0-0.9-0.1c-0.8-0.1-1.9-0.3-3.1-0.6
		c-1.2-0.3-2.5-0.9-3.9-1.5c-0.7-0.3-1.4-0.7-2-1.1c-0.7-0.4-1.3-0.8-2-1.3c-0.6-0.5-1.3-0.9-1.8-1.5c-0.6-0.5-1.2-1-1.7-1.6
		c-1.1-1.1-2-2.2-2.7-3.2c-0.7-1-1.2-2-1.6-2.7c-0.2-0.3-0.3-0.7-0.4-0.9c-0.1-0.2-0.1-0.3-0.1-0.3l0.2-0.3c0,0,0.3,0.2,0.9,0.6
		c0.6,0.4,1.4,0.9,2.4,1.6c1.9,1.4,4.5,3.2,7.1,5c2.5,1.9,5.1,3.7,7,5.1c1,0.7,1.7,1.3,2.3,1.7c0.5,0.4,0.9,0.7,0.9,0.7L205.9,299.4
		z"/>
</g>
<g id="XMLID_44_">
	<line id="XMLID_425_" class="st1" x1="185.6" y1="284.4" x2="181.3" y2="266.4"/>
	<path id="XMLID_424_" class="st1" d="M185.4,284.5c0,0-0.1-0.1-0.2-0.2c-0.1-0.1-0.4-0.3-0.6-0.5c-0.5-0.4-1.1-1-1.7-1.7
		c-0.6-0.7-1.2-1.6-1.7-2.6c-0.2-0.5-0.5-1-0.7-1.6c-0.2-0.5-0.3-1.1-0.5-1.7c-0.1-0.6-0.2-1.1-0.3-1.7c-0.1-0.6-0.1-1.1-0.1-1.7
		c0-1.1,0.1-2.2,0.3-3.1c0.2-0.9,0.5-1.8,0.8-2.3c0.1-0.3,0.3-0.5,0.3-0.7c0.1-0.2,0.1-0.2,0.1-0.2l0.4-0.1c0,0,0.1,0.3,0.2,0.8
		c0.1,0.5,0.3,1.2,0.6,2c0.4,1.7,1,3.9,1.6,6.2c0.5,2.3,1,4.5,1.4,6.2c0.2,0.8,0.3,1.6,0.4,2.1c0.1,0.5,0.2,0.8,0.2,0.8L185.4,284.5
		z"/>
</g>
<g id="XMLID_45_">
	<line id="XMLID_422_" class="st1" x1="181.3" y1="266.4" x2="191.7" y2="277.9"/>
	<path id="XMLID_421_" class="st1" d="M181.4,266.3c0,0,0.1,0,0.3,0c0.2,0,0.4,0,0.7,0c0.6,0.1,1.3,0.2,2.1,0.4
		c0.8,0.3,1.6,0.6,2.4,1.1c0.4,0.3,0.8,0.5,1.1,0.9c0.4,0.3,0.7,0.7,1,1c0.3,0.4,0.6,0.7,0.9,1.1c0.3,0.4,0.5,0.8,0.7,1.2
		c0.4,0.8,0.7,1.7,0.9,2.5c0.2,0.8,0.2,1.6,0.2,2.2c0,0.3,0,0.5,0,0.7c0,0.2,0,0.3,0,0.3l-0.3,0.3c0,0-0.2-0.2-0.5-0.5
		c-0.3-0.3-0.7-0.7-1.2-1.3c-1-1.1-2.3-2.5-3.6-3.9c-1.3-1.5-2.6-2.9-3.5-4c-0.5-0.5-0.9-1-1.1-1.4c-0.3-0.3-0.4-0.5-0.4-0.5
		L181.4,266.3z"/>
</g>
<g id="XMLID_46_">
	<line id="XMLID_419_" class="st1" x1="191.7" y1="277.9" x2="201" y2="284.4"/>
	<path id="XMLID_418_" class="st1" d="M191.8,277.8c0,0,0.1,0,0.2-0.1c0.1,0,0.3-0.1,0.6-0.2c0.5-0.1,1.1-0.3,1.8-0.3
		c0.7,0,1.4,0,2.1,0.2c0.3,0.1,0.7,0.2,1,0.4c0.3,0.1,0.6,0.3,0.9,0.5c0.3,0.2,0.6,0.4,0.8,0.7c0.3,0.2,0.5,0.5,0.7,0.8
		c0.4,0.6,0.7,1.2,0.9,1.9c0.2,0.7,0.3,1.3,0.3,1.8c0,0.2,0,0.5,0,0.6c0,0.2,0,0.2,0,0.2l-0.2,0.3c0,0-0.6-0.4-1.5-0.9
		c-0.9-0.6-2.1-1.4-3.3-2.2c-1.2-0.8-2.3-1.6-3.2-2.3c-0.8-0.7-1.4-1.1-1.4-1.1L191.8,277.8z"/>
</g>
<g id="XMLID_47_">
	<line id="XMLID_416_" class="st1" x1="200" y1="287" x2="217" y2="287"/>
	<path id="XMLID_415_" class="st1" d="M200,286.4c0,0,0-0.1,0.2-0.2c0.1-0.1,0.3-0.3,0.5-0.5c0.5-0.4,1.1-0.9,1.9-1.3
		c0.8-0.4,1.7-0.8,2.8-1c0.5-0.1,1-0.2,1.6-0.3c0.5-0.1,1.1-0.1,1.6-0.1c0.5,0,1.1,0,1.6,0.1c0.5,0.1,1.1,0.2,1.6,0.3
		c1,0.2,2,0.6,2.8,1c0.8,0.4,1.5,0.9,2,1.3c0.2,0.2,0.3,0.4,0.5,0.5c0.1,0.1,0.1,0.2,0.1,0.2v0.4c0,0-0.2,0-0.7,0
		c-0.5,0-1.1,0.1-1.9,0.1c-1.6,0-3.7,0.1-5.9,0.1c-2.2,0-4.3-0.1-5.9-0.1c-0.8,0-1.4-0.1-1.9-0.1c-0.5,0-0.7,0-0.7,0V286.4z"/>
</g>
<g id="XMLID_48_">
	<line id="XMLID_413_" class="st1" x1="217.2" y1="285.5" x2="160.1" y2="215.3"/>
	<path id="XMLID_412_" class="st1" d="M217,285.6c0,0-0.3-0.2-0.8-0.7c-0.5-0.4-1.3-1.1-2.2-1.9c-0.9-0.8-2.1-1.9-3.3-3.1
		c-1.3-1.2-2.7-2.6-4.2-4.1c-1.5-1.5-3.1-3.2-4.8-4.9c-1.7-1.8-3.4-3.6-5.2-5.6c-1.7-2-3.6-4-5.4-6.2c-1.8-2.1-3.6-4.3-5.4-6.5
		c-1.8-2.2-3.5-4.4-5.2-6.6c-1.7-2.2-3.3-4.4-4.9-6.5c-1.6-2.1-3.1-4.2-4.5-6.2c-1.4-2-2.7-3.9-3.9-5.7c-1.2-1.8-2.2-3.4-3.1-4.9
		c-0.9-1.5-1.7-2.8-2.3-3.9c-0.6-1.1-1.1-2-1.4-2.5c-0.3-0.6-0.5-0.9-0.5-0.9l0.3-0.3c0,0,14.3,17.5,28.7,35
		c14.2,17.6,28.4,35.2,28.4,35.2L217,285.6z"/>
</g>
<g id="XMLID_49_">
	<line id="XMLID_410_" class="st1" x1="160.1" y1="215.3" x2="156.2" y2="195.5"/>
	<path id="XMLID_409_" class="st1" d="M159.9,215.3c0,0-0.1-0.1-0.2-0.2c-0.1-0.1-0.4-0.3-0.6-0.5c-0.5-0.5-1.1-1.1-1.7-2
		c-0.6-0.8-1.2-1.9-1.7-3c-0.2-0.6-0.5-1.1-0.6-1.7c-0.2-0.6-0.3-1.2-0.5-1.8c-0.1-0.6-0.2-1.2-0.3-1.9c-0.1-0.6-0.1-1.2-0.1-1.8
		c0-1.2,0.2-2.4,0.4-3.4c0.2-1,0.5-1.9,0.8-2.5c0.1-0.3,0.3-0.6,0.3-0.7c0.1-0.2,0.1-0.3,0.1-0.3l0.4-0.1c0,0,0.1,0.3,0.2,0.8
		c0.1,0.5,0.3,1.3,0.5,2.2c0.4,1.9,0.9,4.3,1.4,6.8c0.5,2.5,0.9,5,1.3,6.8c0.2,0.9,0.3,1.7,0.4,2.3c0.1,0.5,0.1,0.9,0.1,0.9
		L159.9,215.3z"/>
</g>
<g id="XMLID_50_">
	<line id="XMLID_407_" class="st1" x1="156.2" y1="195.5" x2="158.2" y2="178.6"/>
	<path id="XMLID_406_" class="st1" d="M156,195.5c0,0-0.1-0.1-0.2-0.2c-0.1-0.1-0.3-0.3-0.4-0.6c-0.3-0.5-0.7-1.2-1.1-2.1
		c-0.3-0.8-0.6-1.8-0.7-2.8c-0.1-0.5-0.1-1-0.1-1.6c0-0.5,0-1.1,0.1-1.6c0.1-0.5,0.2-1.1,0.3-1.6c0.1-0.5,0.3-1,0.5-1.5
		c0.4-1,0.8-1.8,1.4-2.6c0.5-0.7,1.1-1.3,1.5-1.8c0.2-0.2,0.4-0.4,0.5-0.5c0.1-0.1,0.2-0.2,0.2-0.2l0.4,0c0,0,0,0.3-0.1,0.7
		c0,0.5-0.1,1.1-0.1,1.9c-0.2,1.6-0.4,3.7-0.6,5.8c-0.3,2.1-0.6,4.2-0.8,5.8c-0.1,0.8-0.2,1.4-0.3,1.9c-0.1,0.5-0.1,0.7-0.1,0.7
		L156,195.5z"/>
</g>
<g id="XMLID_51_">
	<line id="XMLID_404_" class="st1" x1="158.2" y1="178.6" x2="160.1" y2="195.5"/>
	<path id="XMLID_403_" class="st1" d="M158.4,178.6c0,0,0.1,0.1,0.2,0.2c0.1,0.1,0.3,0.3,0.5,0.5c0.4,0.4,1,1,1.5,1.8
		c0.5,0.7,1,1.6,1.4,2.6c0.2,0.5,0.3,1,0.5,1.5c0.1,0.5,0.2,1,0.3,1.6c0,0.5,0.1,1.1,0.1,1.6c0,0.5,0,1.1-0.1,1.6
		c-0.1,1-0.4,2-0.7,2.8c-0.3,0.8-0.7,1.6-1.1,2.1c-0.1,0.3-0.3,0.5-0.4,0.6c-0.1,0.1-0.2,0.2-0.2,0.2l-0.4,0c0,0,0-0.3-0.1-0.7
		c-0.1-0.5-0.2-1.1-0.3-1.9c-0.2-1.6-0.5-3.7-0.8-5.8c-0.2-2.1-0.4-4.2-0.6-5.8c-0.1-0.8-0.1-1.5-0.1-1.9c0-0.5-0.1-0.7-0.1-0.7
		L158.4,178.6z"/>
</g>
<g id="XMLID_52_">
	<line id="XMLID_401_" class="st1" x1="160.1" y1="195.5" x2="178.1" y2="217.8"/>
	<path id="XMLID_400_" class="st1" d="M160.3,195.4c0,0,0.1,0,0.4,0.1c0.2,0.1,0.6,0.2,0.9,0.4c0.8,0.4,1.9,0.9,3,1.7
		c1.2,0.8,2.4,1.8,3.7,2.9c0.6,0.6,1.2,1.2,1.8,1.8c0.6,0.6,1.2,1.3,1.8,2c0.5,0.7,1.1,1.4,1.6,2.1c0.5,0.7,1,1.5,1.4,2.2
		c0.9,1.5,1.5,2.9,2.1,4.2c0.5,1.3,0.8,2.5,1,3.3c0.1,0.4,0.1,0.8,0.2,1c0,0.2,0,0.4,0,0.4l-0.3,0.3c0,0-0.3-0.3-0.8-0.9
		c-0.5-0.6-1.2-1.4-2.1-2.5c-1.7-2.1-4-4.8-6.2-7.6c-2.2-2.8-4.4-5.6-6.1-7.7c-0.8-1.1-1.5-2-2-2.6c-0.5-0.6-0.7-1-0.7-1
		L160.3,195.4z"/>
</g>
<g id="XMLID_53_">
	<line id="XMLID_398_" class="st1" x1="178.1" y1="217.8" x2="175.9" y2="146.9"/>
	<path id="XMLID_397_" class="st1" d="M177.9,217.8c0,0-0.1-0.3-0.2-0.8c-0.1-0.5-0.3-1.3-0.5-2.2c-0.2-1-0.5-2.1-0.7-3.5
		c-0.3-1.3-0.6-2.9-0.8-4.5c-0.3-1.7-0.5-3.4-0.7-5.3c-0.2-1.9-0.5-3.9-0.6-6c-0.1-2.1-0.4-4.2-0.5-6.4c-0.1-2.2-0.2-4.4-0.3-6.6
		c0-2.2-0.1-4.4-0.1-6.6c-0.1-2.2,0.1-4.3,0.1-6.4c0-2.1,0.2-4.1,0.3-6c0.1-1.9,0.3-3.7,0.4-5.4c0.1-1.7,0.3-3.2,0.5-4.6
		c0.2-1.4,0.4-2.5,0.5-3.5c0.1-1,0.3-1.7,0.4-2.3c0.1-0.5,0.2-0.8,0.2-0.8l0.4,0c0,0,0.2,4.4,0.4,11.1c0.2,6.6,0.5,15.5,0.8,24.4
		c0.2,8.9,0.5,17.7,0.6,24.4c0.1,6.7,0.2,11.1,0.2,11.1L177.9,217.8z"/>
</g>
<g id="XMLID_54_">
	<line id="XMLID_395_" class="st1" x1="175.9" y1="146.9" x2="202.5" y2="99"/>
	<path id="XMLID_394_" class="st1" d="M175.7,146.8c0,0,0-0.2,0.1-0.6c0.1-0.4,0.2-1,0.4-1.8c0.2-0.7,0.4-1.7,0.8-2.7
		c0.3-1,0.7-2.2,1.1-3.4c0.4-1.2,0.9-2.6,1.5-3.9c0.6-1.4,1.1-2.8,1.8-4.3c0.7-1.5,1.4-3,2.2-4.5c0.7-1.5,1.6-3,2.4-4.5
		c0.8-1.5,1.7-3,2.6-4.4c0.9-1.4,1.8-2.8,2.6-4.2c0.9-1.4,1.8-2.6,2.7-3.8c0.8-1.2,1.7-2.3,2.5-3.3c0.8-1,1.6-1.9,2.3-2.7
		c0.7-0.8,1.3-1.5,1.9-2.1c0.5-0.6,1-1,1.3-1.3c0.3-0.3,0.5-0.4,0.5-0.4l0.3,0.2c0,0-1.6,3-4.1,7.5c-2.5,4.5-5.8,10.5-9,16.5
		c-3.3,6-6.7,11.9-9.2,16.4c-2.5,4.5-4.2,7.4-4.2,7.4L175.7,146.8z"/>
</g>
<g id="XMLID_55_">
	<line id="XMLID_392_" class="st1" x1="202.5" y1="99" x2="211.4" y2="97.6"/>
	<path id="XMLID_391_" class="st1" d="M202.4,98.8c0,0,0-0.1,0.1-0.2c0-0.1,0.1-0.3,0.2-0.5c0.2-0.4,0.5-0.9,0.8-1.4
		c0.4-0.5,0.8-0.9,1.3-1.3c0.2-0.2,0.5-0.3,0.8-0.4c0.3-0.1,0.5-0.2,0.8-0.2c0.3,0,0.6-0.1,0.9,0c0.3,0,0.6,0.1,0.9,0.2
		c0.6,0.2,1.1,0.4,1.6,0.8c0.5,0.4,0.9,0.8,1.2,1.1c0.1,0.2,0.3,0.3,0.4,0.4c0.1,0.1,0.1,0.2,0.1,0.2l0.1,0.4c0,0-0.6,0.1-1.4,0.3
		c-0.8,0.2-1.9,0.4-3.1,0.6c-1.1,0.2-2.2,0.3-3.1,0.4c-0.8,0.1-1.4,0.1-1.4,0.1L202.4,98.8z"/>
</g>
<g id="XMLID_56_">
	<line id="XMLID_389_" class="st1" x1="211.4" y1="97.6" x2="191.7" y2="135.7"/>
	<path id="XMLID_388_" class="st1" d="M211.6,97.7c0,0,0,0.2,0,0.5c0,0.3-0.1,0.8-0.2,1.4c-0.1,0.6-0.2,1.4-0.4,2.2
		c-0.2,0.8-0.4,1.8-0.7,2.7c-0.3,1-0.6,2.1-1,3.2c-0.4,1.1-0.8,2.3-1.3,3.4c-0.5,1.2-1,2.4-1.5,3.6c-0.5,1.2-1.2,2.4-1.8,3.6
		c-0.6,1.2-1.3,2.4-1.9,3.5c-0.7,1.1-1.3,2.3-2,3.3c-0.7,1.1-1.4,2.1-2.1,3c-0.7,0.9-1.4,1.8-2,2.6c-0.6,0.8-1.3,1.5-1.8,2.1
		c-0.5,0.6-1.1,1.2-1.5,1.6c-0.4,0.4-0.8,0.8-1.1,1c-0.3,0.2-0.4,0.3-0.4,0.3l-0.4-0.2c0,0,0.3-0.6,0.8-1.7c0.5-1.1,1.3-2.6,2.2-4.4
		c1.8-3.6,4.3-8.4,6.7-13.2c2.5-4.8,5-9.5,6.9-13.1c0.9-1.8,1.7-3.3,2.3-4.3c0.6-1,0.9-1.6,0.9-1.6L211.6,97.7z"/>
</g>
<g id="XMLID_57_">
	<line id="XMLID_386_" class="st1" x1="191.7" y1="135.7" x2="198.5" y2="182.4"/>
	<path id="XMLID_385_" class="st1" d="M191.9,135.7c0,0,0.1,0.2,0.3,0.5c0.2,0.3,0.4,0.8,0.7,1.4c0.3,0.6,0.6,1.3,1,2.2
		c0.3,0.9,0.7,1.8,1.1,2.9c0.4,1.1,0.8,2.2,1.1,3.4c0.4,1.2,0.7,2.5,1,3.9c0.3,1.3,0.6,2.7,0.9,4.2c0.3,1.4,0.5,2.9,0.7,4.3
		c0.2,1.5,0.4,2.9,0.5,4.4c0.2,1.4,0.3,2.9,0.3,4.3c0.1,1.4,0.1,2.7,0.1,4c0,1.3,0,2.5-0.1,3.6c0,1.1-0.1,2.2-0.2,3.1
		c-0.1,0.9-0.2,1.7-0.3,2.4c-0.1,0.7-0.2,1.2-0.3,1.5c-0.1,0.4-0.1,0.6-0.1,0.6l-0.4,0.1c0,0-0.5-2.9-1.2-7.3
		c-0.7-4.4-1.5-10.2-2.4-16c-0.8-5.8-1.6-11.7-2.3-16c-0.6-4.4-1-7.3-1-7.3L191.9,135.7z"/>
</g>
<g id="XMLID_58_">
	<line id="XMLID_383_" class="st1" x1="198.5" y1="182.4" x2="227" y2="146.9"/>
	<path id="XMLID_382_" class="st1" d="M198.4,182.2c0,0,0.1-0.2,0.2-0.5c0.1-0.3,0.3-0.8,0.5-1.4c0.2-0.6,0.5-1.3,0.9-2.1
		c0.4-0.8,0.8-1.7,1.3-2.7c0.5-1,1.1-2,1.7-3.1c0.6-1.1,1.3-2.2,2-3.3c0.7-1.1,1.5-2.3,2.4-3.4c0.8-1.1,1.7-2.3,2.6-3.4
		c0.9-1.1,1.8-2.2,2.7-3.2c0.9-1.1,1.9-2.1,2.8-3c0.9-1,1.9-1.8,2.8-2.7c0.9-0.9,1.8-1.6,2.6-2.3c0.8-0.7,1.6-1.3,2.3-1.9
		c0.7-0.6,1.4-1,1.9-1.4c0.5-0.4,1-0.6,1.3-0.8c0.3-0.2,0.5-0.3,0.5-0.3l0.3,0.3c0,0-0.4,0.6-1.2,1.5c-0.8,1-1.9,2.4-3.2,4.1
		c-2.7,3.3-6.2,7.8-9.7,12.2c-3.6,4.4-7.2,8.8-9.9,12.1c-1.4,1.6-2.5,3-3.3,4c-0.8,1-1.3,1.5-1.3,1.5L198.4,182.2z"/>
</g>
<g id="XMLID_59_">
	<line id="XMLID_380_" class="st1" x1="227" y1="146.9" x2="241.9" y2="108.7"/>
	<path id="XMLID_379_" class="st1" d="M226.8,146.8c0,0,0-0.2,0-0.5c0-0.3,0-0.8,0-1.4c0-0.6,0.1-1.3,0.2-2.1
		c0.1-0.8,0.2-1.7,0.3-2.7c0.2-1,0.3-2,0.6-3.1c0.2-1.1,0.5-2.2,0.8-3.4c0.3-1.2,0.7-2.4,1.1-3.5c0.4-1.2,0.8-2.4,1.3-3.6
		c0.5-1.2,1-2.4,1.5-3.5c0.5-1.2,1.1-2.3,1.6-3.3c0.5-1.1,1.1-2.1,1.7-3.1c0.6-1,1.1-1.8,1.7-2.7c0.5-0.8,1.1-1.6,1.6-2.2
		c0.5-0.7,0.9-1.2,1.3-1.7c0.4-0.5,0.7-0.8,0.9-1c0.2-0.2,0.3-0.4,0.3-0.4l0.4,0.1c0,0-0.2,0.6-0.6,1.7c-0.4,1-0.9,2.6-1.6,4.3
		c-1.4,3.6-3.2,8.4-5,13.2c-1.9,4.8-3.8,9.5-5.2,13.1c-0.7,1.8-1.3,3.3-1.8,4.3c-0.4,1-0.7,1.6-0.7,1.6L226.8,146.8z"/>
</g>
<g id="XMLID_60_">
	<line id="XMLID_377_" class="st1" x1="241.9" y1="108.7" x2="234.5" y2="157"/>
	<path id="XMLID_376_" class="st1" d="M242.1,108.8c0,0,0,0.2,0.1,0.6c0.1,0.4,0.2,0.9,0.2,1.6c0.1,0.7,0.2,1.5,0.3,2.5
		c0.1,1,0.2,2,0.2,3.2c0,1.2,0.1,2.4,0,3.7c0,1.3,0,2.7-0.2,4.1c-0.1,1.4-0.2,2.9-0.4,4.4c-0.2,1.5-0.4,3-0.6,4.5
		c-0.3,1.5-0.5,3-0.8,4.5c-0.3,1.5-0.6,2.9-1,4.3c-0.3,1.4-0.7,2.7-1.1,4c-0.3,1.3-0.8,2.5-1.1,3.6c-0.4,1.1-0.8,2.1-1.1,3
		c-0.3,0.9-0.7,1.7-1,2.3c-0.3,0.6-0.5,1.1-0.7,1.5c-0.2,0.3-0.3,0.5-0.3,0.5l-0.4-0.1c0,0,0.4-3,1.1-7.6c0.7-4.5,1.6-10.6,2.5-16.6
		c1-6,1.9-12,2.6-16.6c0.8-4.5,1.3-7.5,1.3-7.5L242.1,108.8z"/>
</g>
<g id="XMLID_61_">
	<line id="XMLID_374_" class="st1" x1="234.5" y1="157" x2="214.6" y2="205.4"/>
	<path id="XMLID_373_" class="st1" d="M234.7,157.1c0,0,0,0.2,0,0.6c0,0.4-0.1,1-0.2,1.7c-0.1,0.7-0.2,1.6-0.4,2.6
		c-0.2,1-0.4,2.1-0.7,3.3c-0.3,1.2-0.6,2.5-1,3.9c-0.4,1.4-0.8,2.8-1.2,4.3c-0.5,1.5-1,3-1.5,4.5c-0.5,1.5-1.2,3-1.8,4.6
		c-0.6,1.5-1.3,3-1.9,4.5c-0.7,1.5-1.4,2.9-2.1,4.3c-0.7,1.4-1.4,2.7-2.1,3.9c-0.7,1.2-1.4,2.4-2,3.4c-0.6,1.1-1.3,2-1.9,2.9
		c-0.6,0.8-1.1,1.6-1.6,2.2c-0.4,0.6-0.8,1-1.1,1.4c-0.3,0.3-0.4,0.5-0.4,0.5l-0.4-0.2c0,0,1.2-3,3-7.6c1.8-4.5,4.3-10.6,6.7-16.7
		c2.5-6,5-12.1,6.9-16.6c1.9-4.5,3.2-7.5,3.2-7.5L234.7,157.1z"/>
</g>
<g id="XMLID_62_">
	<line id="XMLID_371_" class="st1" x1="214.6" y1="205.4" x2="224.6" y2="196.9"/>
	<path id="XMLID_370_" class="st1" d="M214.5,205.3c0,0,0-0.1,0-0.2c0-0.1,0-0.4,0-0.6c0-0.5,0.1-1.2,0.3-1.9
		c0.2-0.7,0.5-1.5,0.9-2.1c0.2-0.3,0.4-0.7,0.7-1c0.3-0.3,0.6-0.6,0.9-0.9c0.3-0.2,0.6-0.5,1-0.7c0.3-0.2,0.7-0.4,1.1-0.5
		c0.7-0.3,1.5-0.5,2.3-0.6c0.7-0.1,1.4,0,2,0c0.2,0,0.5,0.1,0.6,0.1c0.2,0,0.2,0.1,0.2,0.1l0.3,0.3c0,0-0.6,0.6-1.5,1.4
		c-0.9,0.8-2.1,1.9-3.3,3c-1.2,1-2.5,2.1-3.5,2.8c-1,0.8-1.6,1.2-1.6,1.2L214.5,205.3z"/>
</g>
<g id="XMLID_63_">
	<line id="XMLID_368_" class="st1" x1="224.6" y1="196.9" x2="222.5" y2="206.7"/>
	<path id="XMLID_367_" class="st1" d="M224.8,197c0,0,0.1,0.1,0.2,0.1c0.1,0.1,0.3,0.2,0.4,0.4c0.3,0.3,0.7,0.8,1,1.4
		c0.3,0.5,0.6,1.1,0.7,1.8c0.1,0.3,0.1,0.6,0.1,0.9c0,0.3,0,0.6-0.1,0.9c-0.1,0.3-0.2,0.6-0.3,0.9c-0.1,0.3-0.3,0.6-0.5,0.8
		c-0.4,0.5-0.8,1-1.3,1.3c-0.5,0.4-1.1,0.7-1.5,0.8c-0.2,0.1-0.4,0.2-0.5,0.2c-0.1,0-0.2,0.1-0.2,0.1l-0.4-0.1c0,0,0.1-0.6,0.2-1.5
		c0.1-0.9,0.4-2.1,0.6-3.4c0.3-1.2,0.5-2.4,0.8-3.3c0.2-0.9,0.4-1.5,0.4-1.5L224.8,197z"/>
</g>
<g id="XMLID_64_">
	<line id="XMLID_365_" class="st1" x1="222.5" y1="206.7" x2="229" y2="266.4"/>
	<path id="XMLID_364_" class="st1" d="M222.7,206.6c0,0,0.1,0.2,0.3,0.7c0.2,0.4,0.4,1,0.7,1.8c0.3,0.8,0.6,1.8,0.9,2.9
		c0.3,1.1,0.7,2.4,1.1,3.8c0.4,1.4,0.8,2.9,1.1,4.5c0.3,1.6,0.7,3.3,1,5c0.3,1.7,0.7,3.5,0.9,5.4c0.3,1.8,0.5,3.7,0.7,5.6
		c0.2,1.9,0.4,3.7,0.5,5.6c0.2,1.8,0.2,3.7,0.3,5.4c0.1,1.8,0.1,3.5,0.1,5.1c0,1.6,0,3.2-0.1,4.6c0,1.4-0.1,2.7-0.2,3.9
		c-0.1,1.2-0.2,2.2-0.3,3c-0.1,0.8-0.2,1.5-0.3,1.9c-0.1,0.5-0.1,0.7-0.1,0.7l-0.4,0c0,0-0.4-3.7-1.1-9.3
		c-0.6-5.6-1.5-13.1-2.3-20.5c-0.8-7.5-1.5-14.9-2.1-20.6c-0.5-5.6-0.9-9.3-0.9-9.3L222.7,206.6z"/>
</g>
<g id="XMLID_65_">
	<line id="XMLID_362_" class="st1" x1="229" y1="266.4" x2="238.2" y2="277.9"/>
	<path id="XMLID_361_" class="st1" d="M229.2,266.3c0,0,0.1,0,0.3,0c0.2,0,0.4,0,0.7,0.1c0.6,0.1,1.3,0.2,2.1,0.5
		c0.8,0.3,1.6,0.7,2.3,1.2c0.4,0.3,0.7,0.5,1.1,0.9c0.3,0.3,0.6,0.7,0.9,1c0.3,0.4,0.6,0.7,0.8,1.1c0.2,0.4,0.4,0.8,0.6,1.2
		c0.3,0.8,0.6,1.7,0.7,2.5c0.1,0.8,0.1,1.6,0,2.1c0,0.3-0.1,0.5-0.1,0.7c0,0.2,0,0.3,0,0.3l-0.3,0.2c0,0-0.6-0.7-1.5-1.7
		c-0.9-1-2.1-2.5-3.2-3.9c-1.1-1.4-2.3-2.9-3.1-4c-0.8-1.1-1.3-1.9-1.3-1.9L229.2,266.3z"/>
</g>
<g id="XMLID_66_">
	<line id="XMLID_359_" class="st1" x1="238.2" y1="277.9" x2="312" y2="303.1"/>
	<path id="XMLID_358_" class="st1" d="M238.3,277.8c0,0,0.3,0,0.9,0.1c0.6,0.1,1.4,0.2,2.5,0.3c1.1,0.2,2.4,0.4,3.8,0.7
		c1.5,0.3,3.1,0.6,4.9,1c1.8,0.4,3.7,0.8,5.8,1.4c2,0.5,4.2,1,6.4,1.7c2.2,0.7,4.5,1.2,6.8,2c2.3,0.7,4.6,1.5,6.9,2.2
		c2.3,0.8,4.6,1.7,6.8,2.5c2.3,0.8,4.4,1.7,6.6,2.6c2.1,0.8,4.2,1.7,6.1,2.6c1.9,0.8,3.7,1.7,5.4,2.5c1.7,0.8,3.2,1.5,4.5,2.2
		c1.3,0.7,2.5,1.3,3.4,1.8c1,0.5,1.7,1,2.2,1.3c0.5,0.3,0.8,0.5,0.8,0.5l-0.1,0.4c0,0-18.5-6.2-37-12.4
		c-18.4-6.4-36.9-12.8-36.9-12.8L238.3,277.8z"/>
</g>
<g id="XMLID_67_">
	<line id="XMLID_356_" class="st1" x1="312" y1="303.1" x2="280.6" y2="272.2"/>
	<path id="XMLID_355_" class="st1" d="M311.9,303.3c0,0-0.2-0.1-0.5-0.2c-0.3-0.1-0.8-0.3-1.3-0.6c-0.6-0.3-1.3-0.6-2-1.1
		c-0.8-0.4-1.6-0.9-2.5-1.5c-0.9-0.6-1.8-1.2-2.8-1.9c-1-0.7-2-1.5-3-2.3c-1-0.8-2-1.7-3-2.6c-1-0.9-2-1.9-3-2.8c-1-1-1.9-2-2.9-3
		c-0.9-1-1.8-2-2.6-3c-0.8-1-1.6-2-2.3-2.9c-0.7-1-1.4-1.9-1.9-2.8c-0.6-0.9-1.1-1.7-1.6-2.4c-0.5-0.7-0.8-1.4-1.1-2
		c-0.3-0.5-0.5-1-0.7-1.3c-0.1-0.3-0.2-0.5-0.2-0.5l0.3-0.3c0,0,0.5,0.5,1.4,1.3c0.9,0.8,2.1,2,3.6,3.5c3,2.9,6.9,6.7,10.9,10.6
		c3.9,3.9,7.8,7.8,10.7,10.7c1.5,1.5,2.7,2.7,3.5,3.6c0.8,0.9,1.3,1.4,1.3,1.4L311.9,303.3z"/>
</g>
<g id="XMLID_68_">
	<line id="XMLID_353_" class="st1" x1="280.6" y1="272.2" x2="282.1" y2="260.3"/>
	<path id="XMLID_352_" class="st1" d="M280.5,272.2c0,0-0.1-0.1-0.2-0.2c-0.1-0.1-0.3-0.3-0.4-0.4c-0.3-0.4-0.8-0.9-1.1-1.5
		c-0.4-0.6-0.6-1.3-0.8-2c-0.1-0.4-0.1-0.7-0.2-1.1c0-0.4,0-0.7,0-1.1c0.1-0.4,0.1-0.7,0.2-1.1c0.1-0.4,0.2-0.7,0.4-1
		c0.3-0.7,0.8-1.3,1.3-1.8c0.5-0.5,1-0.9,1.4-1.2c0.2-0.1,0.4-0.2,0.5-0.3c0.1-0.1,0.2-0.1,0.2-0.1l0.4,0c0,0,0,0.7-0.1,1.9
		c-0.1,1.1-0.2,2.6-0.4,4.1c-0.2,1.5-0.4,3-0.6,4.1c-0.2,1.1-0.3,1.8-0.3,1.8L280.5,272.2z"/>
</g>
<g id="XMLID_69_">
	<line id="XMLID_350_" class="st1" x1="282.1" y1="260.3" x2="286.2" y2="269.3"/>
	<path id="XMLID_349_" class="st1" d="M282.3,260.2c0,0,0.1,0,0.2,0c0.1,0,0.4,0,0.6,0.1c0.5,0.1,1.1,0.2,1.6,0.5
		c0.6,0.2,1.1,0.6,1.6,1c0.2,0.2,0.5,0.4,0.6,0.7c0.2,0.2,0.3,0.5,0.5,0.8c0.1,0.3,0.2,0.6,0.3,0.9c0.1,0.3,0.1,0.6,0.1,0.9
		c0,0.6-0.1,1.3-0.3,1.9c-0.2,0.6-0.5,1.1-0.7,1.6c-0.1,0.2-0.2,0.4-0.3,0.5c-0.1,0.1-0.1,0.2-0.1,0.2l-0.4,0.2c0,0-0.3-0.5-0.7-1.4
		c-0.4-0.8-1-1.9-1.5-3.1c-0.5-1.1-1-2.3-1.3-3.1c-0.3-0.9-0.5-1.5-0.5-1.5L282.3,260.2z"/>
</g>
<g id="XMLID_70_">
	<line id="XMLID_347_" class="st1" x1="286.2" y1="269.3" x2="318" y2="295.2"/>
	<path id="XMLID_346_" class="st1" d="M286.3,269.2c0,0,0.2,0,0.5,0.1c0.3,0.1,0.8,0.2,1.3,0.5c0.6,0.2,1.2,0.5,2,0.8
		c0.7,0.3,1.6,0.7,2.4,1.2c0.9,0.4,1.8,0.9,2.8,1.5c1,0.6,2,1.2,3,1.8c1,0.7,2,1.4,3,2.1c1,0.7,2,1.5,3,2.3c1,0.8,2,1.6,2.9,2.5
		c0.9,0.8,1.8,1.7,2.7,2.6c0.9,0.9,1.7,1.7,2.4,2.5c0.7,0.8,1.4,1.7,2,2.4c0.6,0.8,1.2,1.5,1.6,2.2c0.5,0.6,0.9,1.3,1.2,1.8
		c0.3,0.5,0.5,0.9,0.7,1.2c0.2,0.3,0.2,0.4,0.2,0.4l-0.3,0.3c0,0-0.5-0.4-1.4-1.1c-0.9-0.7-2.1-1.7-3.6-2.9c-3-2.4-7-5.6-11-8.8
		c-3.9-3.3-7.9-6.5-10.9-9c-1.5-1.2-2.7-2.3-3.5-3c-0.9-0.7-1.3-1.1-1.3-1.1L286.3,269.2z"/>
</g>
<g id="XMLID_72_">
	<line id="XMLID_344_" class="st1" x1="318" y1="295.2" x2="289.3" y2="253.1"/>
	<path id="XMLID_343_" class="st1" d="M317.8,295.3c0,0-0.2-0.1-0.5-0.4c-0.3-0.2-0.8-0.6-1.3-1.1c-0.5-0.5-1.2-1-1.9-1.7
		c-0.7-0.7-1.5-1.4-2.4-2.3c-0.9-0.9-1.8-1.8-2.7-2.9c-0.9-1-1.9-2.1-2.8-3.3c-0.9-1.2-1.9-2.4-2.8-3.6c-0.9-1.3-1.8-2.6-2.8-3.9
		c-0.9-1.3-1.8-2.6-2.6-4c-0.8-1.3-1.6-2.7-2.4-4c-0.8-1.3-1.4-2.6-2-3.8c-0.7-1.2-1.2-2.4-1.7-3.5c-0.5-1.1-0.9-2.1-1.3-3.1
		c-0.4-0.9-0.7-1.7-0.9-2.4c-0.2-0.7-0.4-1.2-0.5-1.6c-0.1-0.4-0.2-0.6-0.2-0.6l0.3-0.2c0,0,1.8,2.6,4.6,6.5
		c2.7,3.9,6.3,9.2,9.9,14.4c3.6,5.3,7.1,10.6,9.8,14.5c2.6,4,4.4,6.6,4.4,6.6L317.8,295.3z"/>
</g>
<g id="XMLID_73_">
	<line id="XMLID_341_" class="st1" x1="288" y1="254" x2="288" y2="209"/>
	<path id="XMLID_340_" class="st1" d="M288,254c0,0-0.1-0.1-0.2-0.4c-0.1-0.3-0.3-0.8-0.5-1.4c-0.2-0.6-0.4-1.3-0.6-2.2
		c-0.2-0.9-0.5-1.8-0.7-2.9c-0.2-1.1-0.4-2.2-0.6-3.4c-0.2-1.2-0.4-2.5-0.5-3.8c-0.1-1.3-0.2-2.7-0.3-4.1c-0.1-1.4-0.1-2.8-0.1-4.2
		c0-1.4,0-2.8,0.1-4.2c0.1-1.4,0.2-2.8,0.3-4.1c0.1-1.3,0.3-2.6,0.5-3.8c0.1-1.2,0.4-2.4,0.6-3.4c0.2-1.1,0.4-2,0.6-2.9
		c0.2-0.9,0.4-1.6,0.6-2.2c0.2-0.6,0.4-1,0.5-1.4c0.1-0.3,0.2-0.4,0.2-0.4h0.4c0,0,0,0.6,0,1.9c0,1.2,0,3,0.1,5.1
		c0,4.3,0.1,9.9,0.1,15.6c0,5.7-0.1,11.3-0.1,15.6c0,2.1-0.1,3.8-0.1,5c0,1.2,0,1.8,0,1.8H288z"/>
</g>
<g id="XMLID_74_">
	<line id="XMLID_338_" class="st1" x1="289.3" y1="208.8" x2="293.9" y2="226.8"/>
	<path id="XMLID_337_" class="st1" d="M289.5,208.8c0,0,0.1,0.1,0.2,0.2c0.1,0.1,0.4,0.2,0.6,0.5c0.5,0.4,1.1,1,1.8,1.7
		c0.6,0.7,1.2,1.6,1.8,2.6c0.3,0.5,0.5,1,0.7,1.6c0.2,0.5,0.4,1.1,0.5,1.7c0.1,0.6,0.3,1.1,0.3,1.7c0.1,0.6,0.1,1.1,0.1,1.7
		c0,1.1-0.1,2.2-0.3,3.1c-0.2,1-0.5,1.8-0.7,2.4c-0.1,0.3-0.2,0.5-0.3,0.7c-0.1,0.2-0.1,0.3-0.1,0.3l-0.4,0.1c0,0-0.1-0.3-0.2-0.8
		c-0.1-0.5-0.4-1.2-0.6-2c-0.5-1.7-1.1-3.9-1.7-6.2c-0.6-2.3-1.1-4.5-1.5-6.2c-0.2-0.8-0.3-1.6-0.5-2.1c-0.1-0.5-0.2-0.8-0.2-0.8
		L289.5,208.8z"/>
</g>
<g id="XMLID_75_">
	<line id="XMLID_335_" class="st1" x1="293.9" y1="226.8" x2="296.3" y2="250.4"/>
	<path id="XMLID_334_" class="st1" d="M294.1,226.8c0,0,0.1,0.1,0.2,0.2c0.1,0.2,0.3,0.4,0.6,0.7c0.5,0.6,1,1.5,1.6,2.5
		c0.5,1.1,1,2.3,1.4,3.7c0.2,0.7,0.4,1.4,0.5,2.1c0.2,0.7,0.2,1.5,0.3,2.2c0.1,0.7,0.1,1.5,0.1,2.2c0,0.7,0,1.5-0.1,2.2
		c-0.1,1.4-0.3,2.7-0.7,3.9c-0.3,1.1-0.7,2.1-1,2.8c-0.1,0.3-0.3,0.6-0.4,0.8c-0.1,0.2-0.2,0.3-0.2,0.3l-0.4,0c0,0,0-0.4-0.1-1
		c-0.1-0.6-0.2-1.6-0.3-2.7c-0.3-2.2-0.6-5.2-0.9-8.1c-0.3-3-0.5-5.9-0.7-8.1c-0.1-1.1-0.1-2-0.2-2.7c0-0.6-0.1-1-0.1-1L294.1,226.8
		z"/>
</g>
<g id="XMLID_118_">
	<path id="XMLID_331_" class="st3" d="M515.4,295.2"/>
</g>
<g id="XMLID_117_">
	<path id="XMLID_328_" class="st3" d="M515.4,295.2"/>
</g>
<g id="XMLID_113_">
	<path id="XMLID_326_" d="M515.2,329.8c0,0,0.1-0.2,0.3-0.5c0.2-0.3,0.5-0.7,0.9-1.2c0.4-0.5,0.9-1.2,1.5-1.8
		c0.6-0.7,1.3-1.5,2.1-2.2c0.8-0.8,1.6-1.7,2.6-2.5c0.9-0.9,1.9-1.8,3-2.7c1.1-0.9,2.2-1.8,3.3-2.7c1.1-0.9,2.3-1.7,3.5-2.6
		c1.2-0.8,2.4-1.7,3.6-2.4c1.2-0.8,2.4-1.5,3.6-2.2c1.2-0.7,2.4-1.3,3.5-1.9c1.1-0.6,2.2-1.1,3.2-1.6c1-0.5,2-0.9,2.8-1.2
		c0.8-0.4,1.6-0.6,2.2-0.8c0.6-0.2,1.1-0.4,1.5-0.5c0.4-0.1,0.5-0.1,0.5-0.1l0.2,0.3c0,0-0.6,0.4-1.6,1.2c-1,0.7-2.5,1.8-4.3,3.1
		c-3.6,2.5-8.4,5.9-13.1,9.3c-4.8,3.3-9.6,6.7-13.2,9.1c-1.8,1.2-3.3,2.3-4.4,3c-1.1,0.7-1.7,1.1-1.7,1.1L515.2,329.8z"/>
</g>
<g id="XMLID_109_">
	<path id="XMLID_324_" d="M553.7,302.9c0,0,0.2-0.1,0.5-0.2c0.3-0.1,0.7-0.4,1.3-0.6c0.6-0.2,1.2-0.5,2-0.8c0.8-0.3,1.7-0.6,2.6-0.9
		c1-0.3,2-0.6,3.1-0.9c1.1-0.3,2.3-0.6,3.5-0.8c1.2-0.2,2.5-0.5,3.8-0.6c1.3-0.2,2.6-0.3,3.9-0.5c1.3-0.1,2.6-0.2,3.9-0.3
		c1.3-0.1,2.6-0.1,3.8-0.1c1.2,0,2.5,0.1,3.6,0.1c1.1,0.1,2.2,0.2,3.2,0.3c1,0.1,1.9,0.3,2.8,0.4c0.8,0.1,1.5,0.3,2.1,0.4
		c0.6,0.1,1.1,0.3,1.4,0.4c0.3,0.1,0.5,0.1,0.5,0.1l0,0.4c0,0-0.7,0.1-1.8,0.2c-1.2,0.1-2.8,0.3-4.8,0.5c-3.9,0.4-9.2,0.9-14.5,1.5
		c-5.3,0.5-10.5,0.9-14.5,1.3c-2,0.2-3.6,0.3-4.8,0.4c-1.2,0.1-1.8,0.1-1.8,0.1L553.7,302.9z"/>
</g>
<g id="XMLID_108_">
	<path id="XMLID_322_" d="M595.7,299c0,0,0-0.1,0.1-0.3c0.1-0.2,0.2-0.5,0.4-0.9c0.3-0.7,0.9-1.7,1.6-2.7c0.7-1,1.6-2.1,2.7-3.2
		c0.5-0.5,1.1-1.1,1.7-1.6c0.6-0.5,1.2-1,1.9-1.5c0.7-0.4,1.3-0.9,2-1.3c0.7-0.4,1.3-0.8,2-1.1c1.3-0.7,2.7-1.2,3.9-1.5
		c1.2-0.3,2.3-0.5,3.1-0.6c0.4-0.1,0.7-0.1,0.9-0.1c0.2,0,0.3,0,0.3,0l0.2,0.3c0,0-0.3,0.2-0.9,0.7c-0.6,0.4-1.3,1-2.3,1.7
		c-1.9,1.4-4.5,3.3-7,5.1c-2.6,1.8-5.2,3.6-7.1,5c-1,0.7-1.8,1.2-2.4,1.6c-0.6,0.4-0.9,0.6-0.9,0.6L595.7,299z"/>
</g>
<g id="XMLID_107_">
	<path id="XMLID_320_" d="M616.1,284.4c0,0,0-0.1-0.1-0.2c-0.1-0.2-0.2-0.4-0.3-0.7c-0.3-0.6-0.5-1.4-0.8-2.3
		c-0.2-0.9-0.3-2-0.3-3.1c0-0.6,0-1.1,0.1-1.7c0.1-0.6,0.2-1.1,0.3-1.7c0.2-0.6,0.3-1.1,0.5-1.7c0.2-0.5,0.4-1.1,0.7-1.6
		c0.5-1,1.1-1.9,1.7-2.6c0.6-0.7,1.2-1.3,1.7-1.7c0.2-0.2,0.5-0.4,0.6-0.5c0.2-0.1,0.2-0.2,0.2-0.2l0.4,0.1c0,0-0.1,0.3-0.2,0.8
		c-0.1,0.5-0.2,1.2-0.4,2.1c-0.4,1.7-0.9,4-1.4,6.2c-0.6,2.2-1.1,4.5-1.6,6.2c-0.2,0.8-0.4,1.5-0.6,2c-0.1,0.5-0.2,0.8-0.2,0.8
		L616.1,284.4z"/>
</g>
<g id="XMLID_106_">
	<path id="XMLID_318_" d="M620.8,266.6c0,0,0,0.1,0,0.3c0,0.2,0,0.4,0,0.7c0,0.6-0.1,1.3-0.2,2.2c-0.2,0.8-0.5,1.7-0.9,2.5
		c-0.2,0.4-0.4,0.8-0.7,1.2c-0.3,0.4-0.6,0.8-0.9,1.1c-0.3,0.3-0.7,0.7-1.1,1c-0.4,0.3-0.8,0.6-1.2,0.8c-0.8,0.5-1.6,0.9-2.4,1.1
		c-0.8,0.2-1.6,0.4-2.1,0.4c-0.3,0-0.5,0-0.7,0c-0.2,0-0.3,0-0.3,0l-0.3-0.3c0,0,0.2-0.2,0.4-0.5c0.3-0.3,0.6-0.8,1.1-1.4
		c1-1.1,2.2-2.6,3.5-4c1.3-1.4,2.7-2.8,3.7-3.9c0.5-0.5,0.9-1,1.2-1.3c0.3-0.3,0.5-0.5,0.5-0.5L620.8,266.6z"/>
</g>
<g id="XMLID_105_">
	<path id="XMLID_316_" d="M610.3,278.1c0,0,0,0.1,0,0.2c0,0.1,0,0.4,0,0.6c0,0.5-0.1,1.1-0.3,1.8c-0.2,0.7-0.5,1.3-0.9,1.9
		c-0.2,0.3-0.4,0.6-0.7,0.8c-0.2,0.3-0.5,0.5-0.8,0.7c-0.3,0.2-0.6,0.4-0.9,0.5c-0.3,0.2-0.7,0.3-1,0.3c-0.7,0.2-1.4,0.2-2.1,0.2
		c-0.7-0.1-1.3-0.2-1.8-0.3c-0.2-0.1-0.4-0.1-0.6-0.2c-0.1-0.1-0.2-0.1-0.2-0.1l-0.2-0.3c0,0,0.6-0.5,1.4-1.1c0.8-0.7,2-1.5,3.2-2.3
		c1.2-0.8,2.4-1.6,3.3-2.2c0.9-0.6,1.5-0.9,1.5-0.9L610.3,278.1z"/>
</g>
<g id="XMLID_104_">
	<path id="XMLID_314_" d="M602,286.8c0,0-0.1,0.1-0.3,0.2c-0.1,0.1-0.3,0.3-0.6,0.5c-0.5,0.4-1.2,0.9-2,1.3c-0.8,0.4-1.8,0.8-2.8,1
		c-0.5,0.1-1,0.2-1.6,0.3c-0.5,0.1-1.1,0.1-1.6,0.1c-0.5,0-1.1,0-1.6-0.1c-0.5-0.1-1.1-0.2-1.6-0.3c-1-0.2-2-0.6-2.8-1
		c-0.8-0.4-1.5-0.9-2-1.3c-0.2-0.2-0.2-0.4-0.3-0.5c-0.1-0.1,0-0.2,0-0.2v-0.4c0,0,0.1,0,0.5,0c0.5,0,1-0.1,1.9-0.1
		c1.6,0,3.7-0.1,5.9-0.1c2.2,0,4.3,0.1,5.9,0.1c0.8,0,1.5,0.1,2,0.1c0.5,0,0.8,0,0.8,0V286.8z"/>
</g>
<g id="XMLID_103_">
	<path id="XMLID_312_" d="M584.5,285.4c0,0,0.2-0.3,0.5-0.9c0.3-0.6,0.8-1.5,1.4-2.5c0.6-1.1,1.4-2.4,2.3-3.9c0.9-1.5,2-3.1,3.2-4.9
		c1.2-1.8,2.5-3.7,3.9-5.7c1.4-2,2.9-4.1,4.5-6.2c1.6-2.1,3.2-4.4,4.9-6.5c1.7-2.2,3.5-4.4,5.2-6.6c1.8-2.2,3.6-4.3,5.4-6.5
		c1.8-2.2,3.7-4.2,5.4-6.2c1.7-2,3.5-3.9,5.2-5.6c1.6-1.8,3.3-3.4,4.8-4.9c1.5-1.5,2.9-2.9,4.2-4.1c1.2-1.2,2.4-2.2,3.3-3.1
		c0.9-0.9,1.7-1.5,2.2-1.9c0.5-0.4,0.8-0.7,0.8-0.7l0.3,0.3c0,0-14.2,17.6-28.5,35.2c-14.4,17.5-28.8,35-28.8,35L584.5,285.4z"/>
</g>
<g id="XMLID_102_">
	<path id="XMLID_310_" d="M641.7,215.3c0,0-0.1-0.1-0.1-0.3c-0.1-0.2-0.2-0.4-0.3-0.7c-0.3-0.6-0.6-1.5-0.8-2.5
		c-0.2-1-0.4-2.2-0.4-3.4c0-0.6,0-1.2,0.1-1.8c0-0.6,0.2-1.2,0.3-1.9c0.1-0.6,0.3-1.2,0.5-1.8c0.2-0.6,0.4-1.2,0.6-1.7
		c0.5-1.1,1.1-2.1,1.7-3c0.6-0.8,1.2-1.5,1.7-2c0.2-0.2,0.5-0.4,0.6-0.5c0.2-0.1,0.2-0.2,0.2-0.2l0.4,0.1c0,0,0,0.3-0.1,0.9
		c-0.1,0.5-0.2,1.3-0.4,2.3c-0.3,1.9-0.8,4.3-1.3,6.8c-0.5,2.5-1.1,4.9-1.5,6.8c-0.2,0.9-0.4,1.7-0.5,2.2c-0.1,0.5-0.2,0.8-0.2,0.8
		L641.7,215.3z"/>
</g>
<g id="XMLID_101_">
	<path id="XMLID_308_" d="M645.7,195.5c0,0-0.1-0.1-0.2-0.2c-0.1-0.1-0.3-0.3-0.5-0.5c-0.4-0.4-1-1-1.5-1.8c-0.5-0.7-1-1.6-1.4-2.6
		c-0.2-0.5-0.3-1-0.5-1.5c-0.1-0.5-0.2-1-0.3-1.6c0-0.5-0.1-1.1-0.1-1.6c0-0.5,0-1.1,0.1-1.6c0.1-1,0.4-2,0.7-2.8
		c0.3-0.8,0.7-1.6,1.1-2.1c0.1-0.3,0.3-0.5,0.4-0.6c0.1-0.1,0.2-0.2,0.2-0.2l0.4,0c0,0,0,0.3,0.1,0.7c0.1,0.5,0.2,1.1,0.3,1.9
		c0.2,1.6,0.5,3.7,0.8,5.8c0.2,2.1,0.4,4.2,0.6,5.8c0.1,0.8,0.1,1.5,0.2,1.9c0,0.5,0.1,0.7,0.1,0.7L645.7,195.5z"/>
</g>
<g id="XMLID_100_">
	<path id="XMLID_306_" d="M644.1,178.6c0,0,0.1,0.1,0.2,0.2c0.1,0.1,0.3,0.3,0.4,0.6c0.3,0.5,0.7,1.2,1.1,2.1
		c0.3,0.8,0.6,1.8,0.7,2.8c0.1,0.5,0.1,1,0.1,1.6c0,0.5,0,1.1-0.1,1.6c-0.1,0.5-0.2,1.1-0.3,1.6c-0.1,0.5-0.3,1-0.5,1.5
		c-0.4,1-0.8,1.8-1.4,2.6c-0.5,0.7-1.1,1.3-1.5,1.8c-0.2,0.2-0.4,0.4-0.5,0.5c-0.1,0.1-0.2,0.2-0.2,0.2l-0.4,0c0,0,0-0.3,0.1-0.7
		c0-0.5,0.1-1.1,0.2-1.9c0.2-1.6,0.4-3.7,0.6-5.8c0.3-2.1,0.6-4.2,0.8-5.8c0.1-0.8,0.2-1.4,0.3-1.9c0.1-0.5,0.1-0.7,0.1-0.7
		L644.1,178.6z"/>
</g>
<g id="XMLID_99_">
	<path id="XMLID_304_" d="M642.1,195.6c0,0,0,0.1,0,0.4c0,0.2-0.1,0.6-0.2,1c-0.2,0.9-0.5,2-1,3.3c-0.5,1.3-1.2,2.8-2.1,4.2
		c-0.4,0.7-0.9,1.5-1.4,2.2c-0.5,0.7-1.1,1.4-1.6,2.1c-0.6,0.7-1.1,1.4-1.8,2c-0.6,0.7-1.2,1.3-1.8,1.8c-1.2,1.2-2.5,2.1-3.7,2.9
		c-1.2,0.8-2.2,1.4-3,1.7c-0.4,0.2-0.7,0.3-0.9,0.4c-0.2,0.1-0.4,0.1-0.4,0.1l-0.3-0.3c0,0,0.3-0.4,0.7-1c0.5-0.6,1.1-1.5,2-2.6
		c1.7-2.1,3.9-4.9,6.1-7.7c2.3-2.8,4.6-5.5,6.3-7.6c0.8-1,1.6-1.9,2.1-2.5c0.5-0.6,0.8-0.9,0.8-0.9L642.1,195.6z"/>
</g>
<g id="XMLID_98_">
	<path id="XMLID_302_" d="M623.7,217.8c0,0-0.1-0.3-0.2-0.8c-0.1-0.5-0.3-1.3-0.4-2.3c-0.2-1-0.4-2.2-0.5-3.5
		c-0.2-1.4-0.4-2.9-0.5-4.6c-0.2-1.7-0.3-3.5-0.4-5.4c-0.1-1.9-0.3-3.9-0.3-6c0-2.1-0.2-4.2-0.1-6.4c0-2.2,0.1-4.4,0.1-6.6
		c0.1-2.2,0.2-4.4,0.3-6.6c0.1-2.2,0.3-4.3,0.5-6.4c0.1-2.1,0.4-4.1,0.6-6c0.2-1.9,0.5-3.7,0.7-5.3c0.2-1.7,0.5-3.2,0.8-4.5
		c0.2-1.3,0.5-2.5,0.7-3.5c0.2-1,0.4-1.7,0.5-2.2c0.1-0.5,0.2-0.8,0.2-0.8l0.4,0c0,0-0.1,4.4-0.2,11.1c-0.2,6.6-0.4,15.5-0.7,24.4
		c-0.3,8.9-0.6,17.7-0.8,24.4c-0.3,6.6-0.4,11.1-0.4,11.1L623.7,217.8z"/>
</g>
<g id="XMLID_97_">
	<path id="XMLID_300_" d="M625.9,147c0,0-0.2-0.2-0.5-0.4c-0.3-0.3-0.7-0.7-1.3-1.3c-0.5-0.6-1.2-1.2-1.9-2.1
		c-0.7-0.8-1.5-1.7-2.3-2.7c-0.8-1-1.7-2.1-2.5-3.3c-0.9-1.2-1.8-2.5-2.7-3.8c-0.9-1.3-1.8-2.7-2.7-4.2c-0.9-1.4-1.7-2.9-2.6-4.4
		c-0.8-1.5-1.6-3-2.4-4.5c-0.8-1.5-1.5-3-2.2-4.5c-0.7-1.5-1.3-2.9-1.8-4.3c-0.6-1.4-1.1-2.7-1.5-3.9c-0.5-1.2-0.8-2.4-1.1-3.4
		c-0.3-1-0.6-1.9-0.8-2.7c-0.2-0.7-0.3-1.3-0.4-1.8c-0.1-0.4-0.1-0.6-0.1-0.6l0.3-0.2c0,0,1.7,3,4.3,7.4c2.5,4.5,5.9,10.4,9.2,16.4
		c3.3,6,6.6,12,9.1,16.5c2.4,4.5,4.1,7.5,4.1,7.5L625.9,147z"/>
</g>
<g id="XMLID_96_">
	<path id="XMLID_298_" d="M599.4,99.2c0,0,0,0.1-0.1,0.2c-0.1,0.1-0.2,0.3-0.4,0.4c-0.3,0.3-0.7,0.8-1.2,1.1c-0.5,0.4-1,0.6-1.6,0.8
		c-0.3,0.1-0.6,0.1-0.9,0.1c-0.3,0-0.6,0-0.9,0c-0.3-0.1-0.6-0.1-0.8-0.2c-0.3-0.1-0.5-0.2-0.8-0.4c-0.5-0.3-0.9-0.8-1.3-1.3
		c-0.4-0.5-0.6-1-0.8-1.4c-0.1-0.2-0.2-0.4-0.2-0.5c0-0.1-0.1-0.2-0.1-0.2l0.1-0.4c0,0,0.6,0,1.4,0.1c0.9,0.1,2,0.2,3.1,0.4
		c1.1,0.2,2.2,0.4,3.1,0.6c0.8,0.2,1.4,0.3,1.4,0.3L599.4,99.2z"/>
</g>
<g id="XMLID_95_">
	<path id="XMLID_296_" d="M590.6,97.5c0,0,0.1,0.1,0.4,0.3c0.2,0.2,0.6,0.5,1.1,1c0.4,0.4,1,1,1.5,1.6c0.6,0.6,1.2,1.3,1.8,2.1
		c0.7,0.8,1.4,1.7,2,2.6c0.7,0.9,1.4,2,2.1,3c0.7,1.1,1.4,2.2,2,3.3c0.7,1.1,1.3,2.3,1.9,3.5c0.6,1.2,1.2,2.4,1.8,3.6
		c0.6,1.2,1.1,2.4,1.5,3.6c0.5,1.2,0.9,2.3,1.3,3.4c0.4,1.1,0.7,2.2,1,3.2c0.3,1,0.5,1.9,0.7,2.7c0.2,0.8,0.3,1.6,0.4,2.2
		c0.1,0.6,0.2,1.1,0.2,1.4c0,0.3,0,0.5,0,0.5l-0.4,0.2c0,0-0.3-0.6-0.9-1.6c-0.6-1-1.4-2.5-2.3-4.3c-1.9-3.6-4.4-8.3-6.9-13.1
		c-2.4-4.8-4.9-9.6-6.7-13.2c-0.9-1.8-1.6-3.3-2.2-4.4c-0.5-1.1-0.8-1.7-0.8-1.7L590.6,97.5z"/>
</g>
<g id="XMLID_94_">
	<path id="XMLID_294_" d="M610.4,135.8c0,0,0,0.2,0.1,0.6c0.1,0.4,0.2,0.9,0.3,1.5c0.1,0.7,0.2,1.5,0.3,2.4c0.1,0.9,0.2,2,0.2,3.1
		c0.1,1.1,0.1,2.3,0.1,3.6c0,1.3,0,2.6-0.1,4c-0.1,1.4-0.2,2.8-0.3,4.3c-0.1,1.4-0.3,2.9-0.5,4.4c-0.2,1.5-0.5,2.9-0.7,4.3
		c-0.3,1.4-0.6,2.8-0.9,4.2c-0.3,1.4-0.7,2.6-1.1,3.9c-0.3,1.2-0.7,2.4-1.1,3.4c-0.3,1.1-0.7,2-1.1,2.9c-0.3,0.9-0.7,1.6-1,2.2
		c-0.3,0.6-0.5,1.1-0.7,1.4c-0.2,0.3-0.3,0.5-0.3,0.5l-0.4-0.1c0,0,0.4-2.9,1-7.3c0.6-4.4,1.4-10.2,2.3-16c0.9-5.8,1.8-11.6,2.4-16
		c0.7-4.4,1.2-7.3,1.2-7.3L610.4,135.8z"/>
</g>
<g id="XMLID_93_">
	<path id="XMLID_292_" d="M603.2,182.5c0,0-0.2-0.1-0.5-0.3c-0.3-0.2-0.8-0.4-1.3-0.8c-0.5-0.4-1.2-0.8-1.9-1.4
		c-0.7-0.5-1.5-1.1-2.3-1.9c-0.8-0.7-1.7-1.5-2.6-2.3c-0.9-0.8-1.9-1.7-2.8-2.7c-0.9-1-1.9-2-2.8-3c-0.9-1-1.8-2.1-2.7-3.2
		c-0.9-1.1-1.8-2.2-2.6-3.4c-0.8-1.1-1.6-2.3-2.4-3.4c-0.8-1.1-1.4-2.2-2-3.3c-0.7-1-1.2-2.1-1.7-3.1c-0.5-0.9-0.9-1.9-1.3-2.7
		c-0.4-0.8-0.7-1.5-0.9-2.1c-0.3-0.6-0.4-1.1-0.5-1.4c-0.1-0.3-0.2-0.5-0.2-0.5l0.3-0.3c0,0,0.5,0.5,1.3,1.5c0.8,1,1.9,2.3,3.3,4
		c2.7,3.3,6.3,7.7,9.9,12.1c3.6,4.5,7.1,8.9,9.8,12.2c1.3,1.7,2.4,3.1,3.2,4.1c0.8,1,1.2,1.5,1.2,1.5L603.2,182.5z"/>
</g>
<g id="XMLID_92_">
	<path id="XMLID_290_" d="M574.6,147c0,0-0.1-0.1-0.3-0.4c-0.2-0.2-0.6-0.6-0.9-1c-0.4-0.5-0.9-1-1.3-1.7c-0.5-0.6-1-1.4-1.6-2.2
		c-0.5-0.8-1.1-1.7-1.7-2.7c-0.6-1-1.1-2-1.7-3.1c-0.6-1.1-1.1-2.2-1.6-3.3c-0.5-1.1-1-2.3-1.5-3.5c-0.4-1.2-0.9-2.4-1.3-3.6
		c-0.4-1.2-0.8-2.4-1.1-3.6c-0.3-1.2-0.6-2.3-0.8-3.4c-0.2-1.1-0.4-2.1-0.6-3.1c-0.2-1-0.3-1.9-0.4-2.7c-0.1-0.8-0.1-1.5-0.2-2.1
		c0-0.6,0-1.1,0-1.4c0-0.3,0-0.5,0-0.5l0.4-0.1c0,0,0.2,0.6,0.7,1.6c0.4,1,1.1,2.5,1.8,4.3c1.4,3.6,3.3,8.3,5.2,13.1
		c1.8,4.8,3.7,9.6,5.1,13.2c0.7,1.8,1.2,3.3,1.6,4.3c0.4,1.1,0.6,1.7,0.6,1.7L574.6,147z"/>
</g>
<g id="XMLID_91_">
	<path id="XMLID_288_" d="M560,108.7c0,0,0.1,0.2,0.3,0.5c0.2,0.3,0.4,0.8,0.7,1.5c0.3,0.6,0.6,1.4,1,2.3c0.4,0.9,0.8,1.9,1.1,3
		c0.4,1.1,0.8,2.3,1.1,3.6c0.4,1.3,0.8,2.6,1.1,4c0.3,1.4,0.7,2.8,1,4.3c0.3,1.5,0.5,3,0.8,4.5c0.2,1.5,0.4,3,0.6,4.5
		c0.2,1.5,0.3,3,0.4,4.4c0.1,1.4,0.1,2.8,0.2,4.1c0.1,1.3,0,2.6,0,3.7c0,1.2-0.1,2.2-0.2,3.2c-0.1,0.9-0.2,1.8-0.2,2.5
		c-0.1,0.7-0.2,1.2-0.2,1.6c-0.1,0.4-0.1,0.6-0.1,0.6l-0.4,0.1c0,0-0.5-3-1.3-7.5c-0.7-4.5-1.7-10.5-2.7-16.6
		c-0.9-6-1.8-12.1-2.5-16.6c-0.6-4.5-1.1-7.6-1.1-7.6L560,108.7z"/>
</g>
<g id="XMLID_90_">
	<path id="XMLID_286_" d="M567.5,156.9c0,0,0.1,0.2,0.4,0.5c0.2,0.3,0.6,0.8,1.1,1.4c0.4,0.6,1,1.3,1.6,2.2c0.6,0.8,1.2,1.8,1.9,2.8
		c0.7,1.1,1.4,2.2,2,3.4c0.7,1.2,1.4,2.5,2.1,3.9c0.7,1.4,1.4,2.8,2.1,4.3c0.7,1.5,1.3,3,1.9,4.5c0.6,1.5,1.2,3,1.8,4.6
		c0.6,1.5,1.1,3,1.5,4.5c0.5,1.5,0.9,2.9,1.2,4.3c0.4,1.4,0.7,2.7,1,3.9c0.3,1.2,0.5,2.3,0.7,3.3c0.2,1,0.3,1.9,0.4,2.6
		c0.1,0.7,0.1,1.3,0.2,1.7c0,0.4,0,0.6,0,0.6l-0.4,0.2c0,0-1.3-3-3.2-7.5c-1.9-4.5-4.4-10.6-6.9-16.6c-2.5-6.1-4.9-12.1-6.8-16.7
		c-1.8-4.6-3-7.6-3-7.6L567.5,156.9z"/>
</g>
<g id="XMLID_89_">
	<path id="XMLID_284_" d="M587,205.6c0,0-0.1,0-0.2,0.1c-0.1,0-0.4,0.1-0.6,0.1c-0.5,0.1-1.2,0.1-2,0c-0.7-0.1-1.5-0.3-2.3-0.6
		c-0.4-0.2-0.7-0.3-1.1-0.5c-0.4-0.2-0.7-0.5-1-0.7c-0.3-0.3-0.6-0.6-0.9-0.9c-0.3-0.3-0.5-0.6-0.7-1c-0.4-0.7-0.7-1.4-0.9-2.2
		c-0.2-0.7-0.3-1.4-0.3-1.9c0-0.2,0-0.5,0-0.6c0-0.2,0-0.2,0-0.2l0.3-0.3c0,0,0.7,0.5,1.6,1.2c1,0.8,2.2,1.8,3.5,2.8
		c1.2,1.1,2.5,2.1,3.4,3c0.9,0.8,1.5,1.4,1.5,1.4L587,205.6z"/>
</g>
<g id="XMLID_88_">
	<path id="XMLID_282_" d="M577.4,196.9c0,0,0.1,0,0.2,0.1c0.1,0,0.3,0.1,0.5,0.2c0.4,0.2,1,0.5,1.5,0.8c0.5,0.4,1,0.8,1.3,1.3
		c0.2,0.3,0.3,0.5,0.5,0.8c0.1,0.3,0.2,0.6,0.3,0.9c0,0.3,0.1,0.6,0.1,0.9c0,0.3,0,0.6-0.1,0.9c-0.1,0.6-0.4,1.2-0.7,1.8
		c-0.3,0.5-0.7,1-1,1.4c-0.1,0.2-0.3,0.3-0.4,0.4c-0.1,0.1-0.2,0.1-0.2,0.1l-0.4,0.1c0,0-0.2-0.6-0.4-1.5c-0.2-0.9-0.5-2.1-0.8-3.3
		c-0.2-1.2-0.5-2.4-0.6-3.4c-0.1-0.9-0.2-1.5-0.2-1.5L577.4,196.9z"/>
</g>
<g id="XMLID_87_">
	<path id="XMLID_280_" d="M579.5,206.7c0,0,0,0.2,0.1,0.7c0.1,0.4,0.2,1.1,0.3,1.9c0.1,0.8,0.2,1.9,0.3,3c0.1,1.2,0.2,2.5,0.2,3.9
		c0.1,1.4,0.1,3,0.1,4.6c0,1.6,0,3.3-0.1,5.1c-0.1,1.8-0.1,3.6-0.3,5.4c-0.1,1.8-0.3,3.7-0.5,5.6c-0.2,1.9-0.4,3.7-0.7,5.6
		c-0.2,1.8-0.6,3.6-0.9,5.4c-0.3,1.7-0.7,3.4-1,5c-0.3,1.6-0.7,3.1-1.1,4.5c-0.3,1.4-0.7,2.6-1.1,3.8c-0.3,1.1-0.7,2.1-0.9,2.9
		c-0.3,0.8-0.5,1.4-0.7,1.8c-0.2,0.4-0.3,0.7-0.3,0.7l-0.4,0c0,0,0.4-3.7,0.9-9.3c0.6-5.6,1.4-13.1,2.1-20.6
		c0.8-7.5,1.7-14.9,2.3-20.5c0.7-5.6,1.1-9.3,1.1-9.3L579.5,206.7z"/>
</g>
<g id="XMLID_86_">
	<path id="XMLID_278_" d="M572.9,266.6c0,0,0,0.1,0,0.3c0,0.2,0.1,0.4,0.1,0.7c0.1,0.6,0.1,1.3,0,2.1c-0.1,0.8-0.3,1.7-0.7,2.5
		c-0.2,0.4-0.4,0.8-0.6,1.2c-0.2,0.4-0.5,0.8-0.8,1.1c-0.3,0.3-0.6,0.7-0.9,1c-0.3,0.3-0.7,0.6-1.1,0.9c-0.7,0.5-1.5,0.9-2.3,1.2
		c-0.8,0.3-1.5,0.4-2.1,0.5c-0.3,0-0.5,0-0.7,0.1c-0.2,0-0.3,0-0.3,0l-0.3-0.3c0,0,0.5-0.8,1.4-1.9c0.8-1.1,2-2.6,3.1-4
		c1.2-1.4,2.3-2.9,3.2-3.9c0.9-1,1.5-1.7,1.5-1.7L572.9,266.6z"/>
</g>
<g id="XMLID_85_">
	<path id="XMLID_276_" d="M563.6,278.1c0,0-0.3,0.2-0.8,0.5c-0.5,0.3-1.2,0.8-2.2,1.3c-1,0.5-2.1,1.2-3.5,1.8
		c-1.3,0.7-2.9,1.5-4.5,2.2c-1.7,0.8-3.5,1.6-5.4,2.5c-1.9,0.8-4,1.7-6.1,2.6c-2.1,0.8-4.3,1.8-6.6,2.5c-2.3,0.8-4.6,1.6-6.9,2.5
		c-2.3,0.7-4.7,1.5-7,2.2c-2.3,0.8-4.6,1.3-6.8,2c-2.2,0.7-4.4,1.2-6.4,1.7c-2,0.5-4,1-5.8,1.4c-1.8,0.4-3.5,0.7-4.9,1
		c-1.5,0.3-2.8,0.5-3.9,0.7c-1.1,0.2-1.9,0.3-2.5,0.3c-0.6,0.1-0.9,0.1-0.9,0.1l-0.1-0.4c0,0,18.5-6.4,37-12.8
		c18.6-6.2,37.1-12.4,37.1-12.4L563.6,278.1z"/>
</g>
<g id="XMLID_84_">
	<path id="XMLID_274_" d="M489.3,303c0,0,0.1-0.2,0.2-0.5c0.2-0.3,0.4-0.8,0.7-1.3c0.3-0.6,0.7-1.2,1.1-2c0.4-0.7,1-1.6,1.6-2.4
		c0.6-0.9,1.2-1.8,2-2.8c0.7-1,1.5-1.9,2.3-2.9c0.8-1,1.7-2,2.6-3c0.9-1,1.9-2,2.9-3c1-1,2-1.9,3-2.8c1-0.9,2-1.8,3-2.6
		c1-0.8,2-1.6,3-2.3c1-0.7,1.9-1.3,2.8-1.9c0.9-0.6,1.7-1.1,2.5-1.5c0.7-0.4,1.4-0.8,2-1.1c0.6-0.3,1-0.5,1.3-0.6
		c0.3-0.1,0.5-0.2,0.5-0.2l0.3,0.3c0,0-0.5,0.5-1.3,1.4c-0.8,0.9-2.1,2.1-3.5,3.6c-2.9,2.9-6.8,6.8-10.8,10.7
		c-4,3.8-7.9,7.7-10.9,10.6c-1.5,1.4-2.7,2.6-3.6,3.5c-0.9,0.8-1.4,1.3-1.4,1.3L489.3,303z"/>
</g>
<g id="XMLID_83_">
	<path id="XMLID_272_" d="M520.7,272.2c0,0-0.1,0-0.2-0.1c-0.1-0.1-0.3-0.2-0.5-0.3c-0.4-0.3-0.9-0.7-1.4-1.2
		c-0.5-0.5-0.9-1.1-1.3-1.8c-0.2-0.3-0.3-0.7-0.4-1c-0.1-0.4-0.2-0.7-0.2-1.1c0-0.4-0.1-0.7,0-1.1c0-0.4,0.1-0.7,0.2-1.1
		c0.2-0.7,0.5-1.4,0.8-2c0.4-0.6,0.8-1.1,1.1-1.5c0.2-0.2,0.3-0.3,0.4-0.4c0.1-0.1,0.2-0.2,0.2-0.2l0.4,0c0,0,0.1,0.7,0.3,1.8
		c0.2,1.1,0.4,2.6,0.6,4.1c0.2,1.5,0.3,3,0.4,4.1c0.1,1.1,0.1,1.9,0.1,1.9L520.7,272.2z"/>
</g>
<g id="XMLID_82_">
	<path id="XMLID_270_" d="M519.7,260.4c0,0,0,0.1,0.1,0.2c0.1,0.1,0.2,0.3,0.3,0.5c0.2,0.4,0.5,1,0.7,1.6c0.2,0.6,0.3,1.2,0.3,1.9
		c0,0.3,0,0.6-0.1,0.9c-0.1,0.3-0.2,0.6-0.3,0.9c-0.1,0.3-0.3,0.6-0.5,0.8c-0.2,0.3-0.4,0.5-0.6,0.7c-0.5,0.4-1,0.8-1.6,1
		c-0.6,0.2-1.2,0.4-1.6,0.5c-0.2,0.1-0.4,0.1-0.6,0.1c-0.1,0-0.2,0-0.2,0l-0.4-0.2c0,0,0.2-0.6,0.5-1.5c0.3-0.9,0.8-2,1.3-3.1
		c0.5-1.1,1.1-2.2,1.5-3.1c0.4-0.8,0.7-1.4,0.7-1.4L519.7,260.4z"/>
</g>
<g id="XMLID_81_">
	<path id="XMLID_268_" d="M515.5,269.5c0,0-0.1,0.2-0.2,0.4c-0.2,0.3-0.4,0.7-0.7,1.2c-0.3,0.5-0.7,1.1-1.2,1.8
		c-0.5,0.7-1,1.4-1.6,2.2c-0.6,0.8-1.3,1.6-2,2.4c-0.7,0.8-1.5,1.7-2.4,2.5c-0.9,0.9-1.8,1.7-2.7,2.6c-0.9,0.9-1.9,1.7-2.9,2.5
		c-1,0.8-2,1.6-3,2.3c-1,0.8-2,1.5-3.1,2.1c-1,0.7-2,1.3-3,1.8c-1,0.6-1.9,1-2.8,1.5c-0.9,0.5-1.7,0.8-2.4,1.2
		c-0.7,0.3-1.4,0.6-2,0.8c-0.5,0.2-1,0.3-1.3,0.5c-0.3,0.1-0.5,0.1-0.5,0.1l-0.3-0.3c0,0,0.5-0.4,1.3-1.1c0.9-0.7,2.1-1.8,3.6-3
		c3-2.4,6.9-5.7,10.9-9c4-3.2,8-6.4,11-8.8c1.5-1.2,2.8-2.2,3.7-2.9c0.9-0.7,1.4-1.1,1.4-1.1L515.5,269.5z"/>
</g>
<g id="XMLID_80_">
	<path id="XMLID_266_" d="M483.3,295.1c0,0,0.1-0.2,0.2-0.6c0.1-0.4,0.3-0.9,0.5-1.6c0.2-0.7,0.5-1.5,0.9-2.4c0.4-0.9,0.8-2,1.3-3.1
		c0.5-1.1,1-2.3,1.7-3.5c0.6-1.2,1.3-2.5,2-3.8c0.7-1.3,1.5-2.6,2.4-4c0.8-1.3,1.7-2.7,2.6-4c0.9-1.3,1.8-2.6,2.8-3.9
		c0.9-1.3,1.9-2.5,2.8-3.6c0.9-1.2,1.9-2.3,2.8-3.3c0.9-1,1.8-2,2.7-2.9c0.8-0.9,1.7-1.6,2.4-2.3c0.7-0.7,1.4-1.3,1.9-1.7
		c0.5-0.5,1-0.8,1.3-1.1c0.3-0.2,0.5-0.4,0.5-0.4l0.3,0.2c0,0-1.8,2.7-4.4,6.6c-2.7,4-6.3,9.2-9.8,14.5c-3.6,5.2-7.3,10.5-10,14.4
		c-2.8,3.9-4.6,6.5-4.6,6.5L483.3,295.1z"/>
</g>
<g id="XMLID_79_">
	<path id="XMLID_264_" d="M510.9,254c0,0-0.1-0.1-0.2-0.4c-0.1-0.3-0.3-0.8-0.5-1.4c-0.2-0.6-0.4-1.3-0.6-2.2
		c-0.2-0.9-0.5-1.8-0.7-2.9c-0.2-1.1-0.4-2.2-0.6-3.4c-0.2-1.2-0.4-2.5-0.5-3.8c-0.1-1.3-0.2-2.7-0.3-4.1c-0.1-1.4-0.1-2.8-0.1-4.2
		c0-1.4,0-2.8,0.1-4.2c0.1-1.4,0.2-2.8,0.3-4.1c0.1-1.3,0.3-2.6,0.5-3.8c0.1-1.2,0.4-2.4,0.6-3.4c0.2-1.1,0.4-2,0.6-2.9
		c0.2-0.9,0.4-1.6,0.6-2.2c0.2-0.6,0.4-1,0.5-1.4c0.1-0.3,0.2-0.4,0.2-0.4h0.4c0,0,0,0.6,0,1.9c0,1.2,0,3,0.1,5.1
		c0,4.3,0.1,9.9,0.1,15.6c0,5.7-0.1,11.3-0.1,15.6c0,2.1-0.1,3.8-0.1,5c0,1.2,0,1.8,0,1.8H510.9z"/>
</g>
<g id="XMLID_78_">
	<path id="XMLID_262_" d="M512.5,208.9c0,0,0,0.1,0.1,0.3c0.1,0.2,0.2,0.4,0.3,0.7c0.2,0.6,0.5,1.4,0.7,2.4c0.2,1,0.3,2,0.3,3.1
		c0,0.6-0.1,1.1-0.1,1.7c-0.1,0.6-0.2,1.1-0.3,1.7c-0.2,0.6-0.3,1.1-0.5,1.7c-0.2,0.5-0.4,1.1-0.7,1.6c-0.5,1-1.1,1.9-1.8,2.6
		c-0.6,0.7-1.3,1.3-1.8,1.7c-0.2,0.2-0.5,0.3-0.6,0.5c-0.2,0.1-0.2,0.2-0.2,0.2l-0.4-0.1c0,0,0.1-0.3,0.2-0.8
		c0.1-0.5,0.2-1.2,0.5-2.1c0.4-1.7,1-4,1.5-6.2c0.6-2.2,1.2-4.5,1.7-6.2c0.2-0.8,0.5-1.5,0.6-2c0.1-0.5,0.2-0.8,0.2-0.8L512.5,208.9
		z"/>
</g>
<g id="XMLID_77_">
	<path id="XMLID_260_" d="M507.8,226.8c0,0,0.1,0.1,0.2,0.3c0.1,0.2,0.3,0.5,0.4,0.8c0.3,0.7,0.7,1.7,1,2.8c0.3,1.1,0.5,2.5,0.7,3.9
		c0,0.7,0.1,1.4,0.1,2.2c0,0.7-0.1,1.5-0.1,2.2c-0.1,0.7-0.2,1.5-0.3,2.2c-0.1,0.7-0.3,1.4-0.5,2.1c-0.4,1.4-0.9,2.6-1.4,3.7
		c-0.5,1.1-1.1,1.9-1.6,2.5c-0.2,0.3-0.4,0.5-0.6,0.7c-0.1,0.2-0.2,0.2-0.2,0.2l-0.4,0c0,0,0-0.4,0.1-1c0.1-0.6,0.1-1.6,0.2-2.7
		c0.2-2.2,0.5-5.2,0.7-8.1c0.3-2.9,0.7-5.9,0.9-8.1c0.1-1.1,0.3-2,0.3-2.7c0.1-0.6,0.1-1,0.1-1L507.8,226.8z"/>
</g>
<g id="XMLID_119_">
	<line id="XMLID_258_" class="st1" x1="401" y1="449.9" x2="387.7" y2="443.5"/>
	<path id="XMLID_257_" class="st1" d="M400.9,450.1c0,0-0.1,0-0.2,0.1c-0.1,0.1-0.4,0.2-0.6,0.2c-0.5,0.2-1.3,0.3-2.1,0.4
		c-0.8,0.1-1.7,0.1-2.6-0.1c-0.4-0.1-0.9-0.2-1.3-0.3c-0.4-0.1-0.9-0.3-1.3-0.5c-0.4-0.2-0.8-0.4-1.2-0.7c-0.4-0.3-0.7-0.5-1.1-0.8
		c-0.7-0.6-1.2-1.3-1.7-2c-0.4-0.7-0.7-1.4-0.9-1.9c-0.1-0.2-0.2-0.5-0.2-0.6c0-0.2-0.1-0.2-0.1-0.2l0.2-0.4c0,0,0.9,0.4,2.1,0.9
		c1.3,0.6,2.9,1.4,4.6,2.1c1.7,0.8,3.3,1.6,4.5,2.3c1.2,0.7,2,1.1,2,1.1L400.9,450.1z"/>
</g>
<g id="XMLID_120_">
	<line id="XMLID_255_" class="st1" x1="387.7" y1="443.5" x2="381.3" y2="435.1"/>
	<path id="XMLID_254_" class="st1" d="M387.6,443.6c0,0-0.1,0-0.2,0c-0.1,0-0.4,0-0.6,0c-0.5,0-1.1,0-1.8-0.2
		c-0.6-0.1-1.3-0.4-1.9-0.7c-0.3-0.2-0.6-0.4-0.8-0.6c-0.3-0.2-0.5-0.5-0.7-0.7c-0.2-0.3-0.4-0.5-0.5-0.8c-0.2-0.3-0.3-0.6-0.4-0.9
		c-0.2-0.6-0.2-1.3-0.2-2c0-0.7,0.2-1.3,0.3-1.7c0-0.2,0.1-0.4,0.2-0.6c0.1-0.1,0.1-0.2,0.1-0.2l0.3-0.2c0,0,0.4,0.5,1.1,1.2
		c0.6,0.8,1.5,1.8,2.3,2.8c0.8,1.1,1.6,2.1,2.2,2.9c0.6,0.8,0.9,1.4,0.9,1.4L387.6,443.6z"/>
</g>
<g id="XMLID_122_">
	<path id="XMLID_252_" d="M401.4,449.8c0,0,0-0.1,0.1-0.2c0-0.1,0.1-0.4,0.2-0.6c0.2-0.5,0.5-1.2,0.9-1.9c0.4-0.7,1-1.4,1.7-2
		c0.3-0.3,0.7-0.6,1.1-0.8c0.4-0.3,0.8-0.5,1.2-0.7c0.4-0.2,0.8-0.4,1.3-0.5c0.4-0.1,0.9-0.3,1.3-0.3c0.9-0.2,1.8-0.2,2.6-0.1
		c0.8,0.1,1.5,0.3,2.1,0.4c0.3,0.1,0.5,0.2,0.6,0.2c0.2,0.1,0.2,0.1,0.2,0.1l0.2,0.4c0,0-0.8,0.5-2,1.1c-1.2,0.7-2.9,1.5-4.5,2.3
		c-1.7,0.8-3.3,1.6-4.6,2.1c-1.3,0.6-2.1,0.9-2.1,0.9L401.4,449.8z"/>
</g>
<g id="XMLID_121_">
	<path id="XMLID_250_" d="M414.7,443.3c0,0,0-0.1-0.1-0.2c0-0.1-0.1-0.3-0.2-0.6c-0.1-0.5-0.2-1.1-0.3-1.7c0-0.7,0-1.3,0.2-2
		c0.1-0.3,0.2-0.6,0.4-0.9c0.1-0.3,0.3-0.6,0.5-0.8c0.2-0.2,0.4-0.5,0.7-0.7c0.2-0.2,0.5-0.4,0.8-0.6c0.6-0.3,1.2-0.6,1.9-0.7
		c0.6-0.1,1.3-0.2,1.8-0.2c0.2,0,0.5,0,0.6,0c0.1,0,0.2,0,0.2,0l0.3,0.2c0,0-0.4,0.6-0.9,1.4c-0.6,0.8-1.4,1.9-2.2,2.9
		c-0.8,1-1.6,2.1-2.3,2.8c-0.7,0.8-1.1,1.2-1.1,1.2L414.7,443.3z"/>
</g>
<g id="XMLID_123_">
	<line id="XMLID_248_" class="st1" x1="379.9" y1="435.1" x2="400.6" y2="430.8"/>
	<path id="XMLID_247_" class="st1" d="M379.9,434.9c0,0,0.1-0.1,0.2-0.2c0.1-0.1,0.3-0.4,0.6-0.6c0.5-0.5,1.2-1.1,2.1-1.8
		c0.9-0.6,1.9-1.2,3.1-1.7c0.6-0.2,1.2-0.5,1.8-0.7c0.6-0.2,1.3-0.3,1.9-0.5c0.7-0.1,1.3-0.2,2-0.3c0.6-0.1,1.3-0.1,1.9-0.1
		c1.3,0,2.5,0.1,3.5,0.3c1.1,0.2,2,0.5,2.6,0.8c0.3,0.1,0.6,0.3,0.8,0.3c0.2,0.1,0.3,0.1,0.3,0.1l0.1,0.4c0,0-0.3,0.1-0.9,0.2
		c-0.6,0.1-1.4,0.4-2.3,0.6c-1.9,0.4-4.5,1-7.1,1.6c-2.6,0.5-5.2,1-7.1,1.4c-1,0.2-1.8,0.3-2.4,0.4c-0.6,0.1-0.9,0.2-0.9,0.2
		L379.9,434.9z"/>
</g>
<g id="XMLID_124_">
	<line id="XMLID_245_" class="st1" x1="379.9" y1="435.1" x2="366.5" y2="407.3"/>
	<path id="XMLID_244_" class="st1" d="M379.8,435.2c0,0-0.1-0.1-0.3-0.2c-0.2-0.2-0.5-0.4-0.9-0.7c-0.7-0.6-1.7-1.5-2.7-2.6
		c-1-1.1-2.1-2.5-3.1-4c-0.5-0.8-1-1.6-1.5-2.4c-0.5-0.8-0.9-1.7-1.3-2.5c-0.4-0.9-0.8-1.8-1.2-2.6c-0.4-0.9-0.7-1.8-1-2.6
		c-0.6-1.7-1-3.4-1.2-4.9c-0.2-1.5-0.3-2.8-0.4-3.7c0-0.5,0-0.8,0-1.1c0-0.3,0-0.4,0-0.4l0.4-0.2c0,0,0.2,0.4,0.6,1.2
		c0.4,0.8,1,1.8,1.6,3.1c1.3,2.6,3,6.1,4.7,9.5c1.7,3.5,3.3,7,4.6,9.6c0.6,1.3,1.1,2.4,1.5,3.2c0.3,0.8,0.5,1.2,0.5,1.2L379.8,435.2
		z"/>
</g>
<g id="XMLID_125_">
	<line id="XMLID_242_" class="st1" x1="366.5" y1="407.3" x2="373.2" y2="386.2"/>
	<path id="XMLID_241_" class="st1" d="M366.3,407.2c0,0,0-0.1-0.1-0.3c-0.1-0.2-0.2-0.5-0.2-0.8c-0.2-0.7-0.4-1.7-0.5-2.8
		c-0.1-1.1-0.1-2.4,0.1-3.7c0.1-0.7,0.2-1.3,0.3-2c0.1-0.7,0.3-1.3,0.5-2c0.2-0.7,0.4-1.3,0.7-1.9c0.3-0.6,0.6-1.2,0.9-1.8
		c0.6-1.2,1.4-2.2,2.1-3.1c0.7-0.9,1.4-1.5,2-2c0.3-0.2,0.5-0.4,0.7-0.5c0.2-0.1,0.3-0.2,0.3-0.2l0.4,0.1c0,0-0.1,0.3-0.3,0.9
		c-0.2,0.6-0.4,1.4-0.7,2.4c-0.6,2-1.4,4.6-2.2,7.3c-0.9,2.6-1.7,5.2-2.4,7.2c-0.3,1-0.6,1.8-0.8,2.4c-0.2,0.6-0.3,0.9-0.3,0.9
		L366.3,407.2z"/>
</g>
<g id="XMLID_126_">
	<line id="XMLID_239_" class="st1" x1="372" y1="386" x2="372" y2="377"/>
	<path id="XMLID_238_" class="st1" d="M371.9,386c0,0-0.1-0.1-0.2-0.1c-0.1-0.1-0.3-0.2-0.5-0.3c-0.4-0.2-0.9-0.6-1.3-1
		c-0.4-0.4-0.8-0.9-1-1.4c-0.1-0.3-0.2-0.5-0.3-0.8c-0.1-0.3-0.1-0.5-0.1-0.8c0-0.3,0-0.5,0.1-0.8c0.1-0.3,0.2-0.5,0.3-0.8
		c0.2-0.5,0.6-1,1-1.4c0.4-0.4,0.9-0.7,1.3-1c0.2-0.1,0.4-0.4,0.5-0.4c0.1-0.1,0.2-0.3,0.2-0.3h0.4c0,0,0.1,0.7,0.1,1.5
		c0.1,0.8,0.1,2,0.1,3c0,1.1,0,2.2-0.1,3c-0.1,0.8-0.1,1.4-0.1,1.4H371.9z"/>
</g>
<g id="XMLID_127_">
	<line id="XMLID_236_" class="st1" x1="373.2" y1="377.3" x2="366.5" y2="371.9"/>
	<path id="XMLID_235_" class="st1" d="M373.1,377.5c0,0-0.1,0-0.2,0.1c-0.1,0-0.3,0.1-0.5,0.2c-0.4,0.2-1,0.3-1.6,0.4
		c-0.6,0.1-1.2,0.1-1.7,0c-0.3-0.1-0.5-0.1-0.8-0.3c-0.3-0.1-0.5-0.3-0.7-0.4c-0.2-0.2-0.4-0.4-0.6-0.6c-0.2-0.2-0.3-0.5-0.4-0.7
		c-0.2-0.5-0.4-1.1-0.4-1.7c0-0.6,0-1.2,0-1.6c0-0.2,0.1-0.4,0.1-0.5c0-0.1,0-0.2,0-0.2l0.3-0.3c0,0,0.5,0.3,1.1,0.8
		c0.7,0.5,1.5,1.1,2.4,1.8c0.8,0.7,1.7,1.4,2.3,1.9c0.6,0.5,1,0.9,1,0.9L373.1,377.5z"/>
</g>
<g id="XMLID_128_">
	<line id="XMLID_233_" class="st1" x1="366.5" y1="371.9" x2="360" y2="373.5"/>
	<path id="XMLID_232_" class="st1" d="M366.5,372.1c0,0,0,0.1,0,0.2c0,0.1,0,0.3-0.1,0.5c-0.1,0.4-0.2,0.9-0.4,1.4
		c-0.2,0.5-0.5,0.9-0.8,1.3c-0.2,0.2-0.3,0.3-0.5,0.4c-0.2,0.1-0.4,0.2-0.6,0.2c-0.2,0-0.4,0.1-0.6,0c-0.2,0-0.4-0.1-0.7-0.1
		c-0.4-0.1-0.9-0.4-1.3-0.8c-0.4-0.3-0.8-0.7-1-1.1c-0.1-0.1-0.2-0.3-0.3-0.4c-0.1-0.1-0.1-0.2-0.1-0.2l-0.1-0.4c0,0,0.4-0.2,1-0.4
		c0.6-0.2,1.4-0.4,2.2-0.6c0.8-0.2,1.6-0.4,2.2-0.5c0.6-0.1,1-0.1,1-0.1L366.5,372.1z"/>
</g>
<g id="XMLID_129_">
	<line id="XMLID_230_" class="st1" x1="360" y1="373.5" x2="357.6" y2="367.9"/>
	<path id="XMLID_229_" class="st1" d="M359.8,373.6c0,0-0.1,0-0.2,0c-0.1,0-0.3,0-0.5,0c-0.4,0-0.9,0-1.5-0.1
		c-0.5-0.1-1-0.3-1.3-0.5c-0.2-0.1-0.4-0.2-0.5-0.4c-0.1-0.1-0.2-0.3-0.3-0.5c-0.1-0.2-0.1-0.4-0.1-0.6c0-0.2,0-0.4,0-0.6
		c0.1-0.4,0.3-0.9,0.6-1.3c0.3-0.4,0.6-0.8,0.9-1.1c0.1-0.1,0.3-0.3,0.4-0.4c0.1-0.1,0.2-0.1,0.2-0.1l0.4-0.2c0,0,0.2,0.3,0.5,0.8
		c0.3,0.5,0.6,1.2,0.9,1.9c0.3,0.7,0.6,1.4,0.7,2c0.2,0.6,0.3,0.9,0.3,0.9L359.8,373.6z"/>
</g>
<g id="XMLID_130_">
	<line id="XMLID_227_" class="st1" x1="357.6" y1="367.9" x2="366.5" y2="351.4"/>
	<path id="XMLID_226_" class="st1" d="M357.4,367.8c0,0,0-0.1-0.1-0.3c0-0.2-0.1-0.4-0.1-0.8c-0.1-0.6-0.2-1.5-0.1-2.5
		c0-1,0.2-2.1,0.5-3.1c0.2-0.5,0.3-1.1,0.6-1.6c0.2-0.5,0.5-1.1,0.7-1.6c0.3-0.5,0.6-1,0.9-1.5c0.3-0.5,0.7-0.9,1.1-1.4
		c0.7-0.8,1.6-1.6,2.3-2.1c0.8-0.6,1.6-1,2.1-1.3c0.3-0.1,0.5-0.2,0.7-0.3c0.2-0.1,0.3-0.1,0.3-0.1l0.4,0.2c0,0-0.1,0.3-0.4,0.7
		c-0.2,0.5-0.5,1.1-0.9,1.9c-0.8,1.6-1.9,3.6-3,5.7c-1.1,2-2.3,4.1-3.1,5.6c-0.4,0.8-0.8,1.4-1.1,1.8c-0.3,0.4-0.4,0.7-0.4,0.7
		L357.4,367.8z"/>
</g>
<g id="XMLID_131_">
	<line id="XMLID_224_" class="st1" x1="366.5" y1="351.4" x2="361.1" y2="343.1"/>
	<path id="XMLID_223_" class="st1" d="M366.3,351.5c0,0-0.1,0-0.2,0c-0.1,0-0.4,0-0.6,0c-0.5,0-1.1-0.1-1.7-0.2
		c-0.6-0.2-1.2-0.4-1.7-0.8c-0.3-0.2-0.5-0.4-0.7-0.6c-0.2-0.2-0.4-0.5-0.6-0.7c-0.2-0.3-0.3-0.5-0.4-0.8c-0.1-0.3-0.2-0.6-0.2-0.9
		c-0.1-0.6-0.1-1.3,0-1.9c0.1-0.6,0.3-1.2,0.5-1.6c0.1-0.2,0.2-0.4,0.2-0.5c0.1-0.1,0.1-0.2,0.1-0.2l0.3-0.2c0,0,0.4,0.5,0.9,1.2
		c0.5,0.7,1.2,1.8,1.9,2.8c0.7,1,1.3,2.1,1.8,2.9c0.5,0.8,0.7,1.4,0.7,1.4L366.3,351.5z"/>
</g>
<g id="XMLID_132_">
	<line id="XMLID_221_" class="st1" x1="361.1" y1="343.1" x2="363.8" y2="333.8"/>
	<path id="XMLID_220_" class="st1" d="M360.9,343.1c0,0-0.1-0.1-0.2-0.2c-0.1-0.1-0.2-0.3-0.4-0.4c-0.3-0.4-0.6-0.9-0.9-1.4
		c-0.3-0.6-0.5-1.2-0.6-1.8c0-0.3-0.1-0.6,0-0.9c0-0.3,0.1-0.6,0.2-0.9c0.1-0.3,0.2-0.6,0.4-0.8c0.1-0.3,0.3-0.5,0.5-0.8
		c0.4-0.5,0.9-0.9,1.4-1.2c0.5-0.3,1.1-0.5,1.5-0.7c0.2-0.1,0.4-0.1,0.5-0.2c0.1,0,0.2-0.1,0.2-0.1l0.4,0.1c0,0-0.1,0.6-0.3,1.5
		c-0.2,0.9-0.5,2-0.8,3.2c-0.3,1.2-0.7,2.3-1,3.2c-0.3,0.9-0.5,1.4-0.5,1.4L360.9,343.1z"/>
</g>
<g id="XMLID_142_">
	<path id="XMLID_218_" d="M422.2,435.3c0,0-0.1,0.1-0.3,0.1c-0.2,0.1-0.4,0.2-0.8,0.3c-0.6,0.3-1.6,0.6-2.6,0.8
		c-1.1,0.2-2.3,0.3-3.5,0.3c-0.6,0-1.3,0-1.9-0.1c-0.7-0.1-1.3-0.2-2-0.3c-0.6-0.2-1.3-0.3-1.9-0.5c-0.6-0.2-1.2-0.4-1.8-0.7
		c-1.2-0.5-2.2-1.1-3.1-1.7c-0.9-0.6-1.6-1.3-2.1-1.8c-0.2-0.2-0.4-0.5-0.6-0.6c-0.1-0.2-0.2-0.2-0.2-0.2l0.1-0.4
		c0,0,0.3,0.1,0.9,0.2c0.6,0.1,1.4,0.2,2.4,0.4c2,0.4,4.6,0.9,7.2,1.4c2.6,0.6,5.2,1.1,7.1,1.6c1,0.2,1.8,0.4,2.3,0.6
		c0.6,0.1,0.9,0.2,0.9,0.2L422.2,435.3z"/>
</g>
<g id="XMLID_141_">
	<path id="XMLID_216_" d="M422.1,435c0,0,0-0.1,0-0.4c0-0.3,0-0.6,0-1.1c0-0.9,0.1-2.2,0.4-3.7c0.3-1.5,0.7-3.2,1.2-4.9
		c0.3-0.9,0.6-1.8,1-2.6c0.3-0.9,0.8-1.8,1.2-2.6c0.4-0.9,0.9-1.7,1.4-2.5c0.5-0.8,1-1.6,1.5-2.4c1-1.5,2.1-2.9,3.1-4
		c1-1.1,2-2,2.7-2.6c0.3-0.3,0.7-0.5,0.9-0.7c0.2-0.1,0.3-0.2,0.3-0.2l0.4,0.2c0,0-0.2,0.4-0.6,1.2c-0.4,0.8-0.8,1.9-1.5,3.2
		c-1.2,2.6-2.9,6.1-4.6,9.6c-1.7,3.5-3.4,6.9-4.7,9.5c-0.6,1.3-1.2,2.4-1.6,3.1c-0.4,0.8-0.6,1.2-0.6,1.2L422.1,435z"/>
</g>
<g id="XMLID_140_">
	<path id="XMLID_214_" d="M435.6,407.3c0,0-0.1-0.1-0.3-0.2c-0.2-0.1-0.4-0.3-0.7-0.5c-0.6-0.5-1.3-1.1-2-2
		c-0.7-0.9-1.4-1.9-2.1-3.1c-0.3-0.6-0.6-1.2-0.9-1.8c-0.3-0.6-0.5-1.3-0.7-1.9c-0.2-0.7-0.4-1.3-0.5-2c-0.2-0.7-0.3-1.3-0.3-2
		c-0.2-1.3-0.2-2.6-0.1-3.7c0.1-1.1,0.3-2.1,0.5-2.8c0.1-0.3,0.2-0.6,0.2-0.8c0.1-0.2,0.1-0.3,0.1-0.3l0.4-0.1c0,0,0.1,0.3,0.3,0.9
		c0.2,0.6,0.5,1.4,0.8,2.4c0.7,2,1.5,4.6,2.4,7.2c0.8,2.6,1.6,5.3,2.2,7.3c0.3,1,0.5,1.8,0.7,2.4c0.2,0.6,0.3,0.9,0.3,0.9
		L435.6,407.3z"/>
</g>
<g id="XMLID_138_">
	<path id="XMLID_212_" d="M428.9,377.2c0,0,0-0.1,0-0.2c0-0.1-0.1-0.3-0.1-0.5c-0.1-0.5-0.1-1,0-1.6c0.1-0.6,0.2-1.2,0.4-1.7
		c0.1-0.3,0.3-0.5,0.4-0.7c0.2-0.2,0.4-0.4,0.6-0.6c0.2-0.2,0.4-0.3,0.7-0.4c0.2-0.1,0.5-0.2,0.8-0.3c0.6-0.1,1.2-0.1,1.7,0
		c0.6,0.1,1.1,0.2,1.6,0.4c0.2,0.1,0.4,0.2,0.5,0.2c0.1,0.1,0.2,0.1,0.2,0.1l0.2,0.3c0,0-0.4,0.4-1,0.9c-0.6,0.5-1.4,1.2-2.3,1.9
		c-0.9,0.7-1.7,1.3-2.4,1.8c-0.7,0.5-1.1,0.8-1.1,0.8L428.9,377.2z"/>
</g>
<g id="XMLID_137_">
	<path id="XMLID_210_" d="M435.9,371.7c0,0,0-0.1,0.1-0.2c0.1-0.1,0.2-0.3,0.3-0.4c0.3-0.3,0.6-0.7,1-1.1c0.4-0.3,0.9-0.6,1.3-0.8
		c0.2-0.1,0.4-0.1,0.7-0.1c0.2,0,0.4,0,0.6,0.1c0.2,0.1,0.4,0.1,0.6,0.3c0.2,0.1,0.4,0.3,0.5,0.4c0.3,0.3,0.6,0.8,0.8,1.3
		c0.2,0.5,0.3,1,0.4,1.4c0,0.2,0.1,0.4,0.1,0.5c0,0.1,0,0.2,0,0.2l-0.1,0.4c0,0-0.4,0-1-0.1c-0.6-0.1-1.4-0.3-2.2-0.5
		c-0.8-0.2-1.6-0.4-2.2-0.6c-0.6-0.2-1-0.4-1-0.4L435.9,371.7z"/>
</g>
<g id="XMLID_136_">
	<path id="XMLID_208_" d="M442.1,373.5c0,0-0.1,0-0.2-0.1c-0.1-0.1-0.2-0.2-0.4-0.4c-0.3-0.3-0.6-0.7-0.9-1.1
		c-0.3-0.4-0.5-0.9-0.6-1.3c0-0.2-0.1-0.4,0-0.6c0-0.2,0.1-0.4,0.1-0.6c0.1-0.2,0.2-0.3,0.3-0.5c0.1-0.2,0.3-0.3,0.5-0.4
		c0.4-0.2,0.8-0.4,1.3-0.5c0.5-0.1,1-0.1,1.5-0.1c0.2,0,0.4,0,0.5,0c0.1,0,0.2,0,0.2,0l0.4,0.2c0,0-0.1,0.4-0.3,0.9
		c-0.2,0.6-0.5,1.3-0.7,2c-0.3,0.7-0.6,1.4-0.9,1.9c-0.3,0.5-0.5,0.8-0.5,0.8L442.1,373.5z"/>
</g>
<g id="XMLID_135_">
	<path id="XMLID_206_" d="M444.5,368c0,0-0.1,0-0.3-0.1c-0.2-0.1-0.4-0.2-0.7-0.3c-0.6-0.3-1.3-0.7-2.1-1.3
		c-0.8-0.6-1.6-1.3-2.3-2.1c-0.4-0.4-0.7-0.9-1.1-1.4c-0.3-0.5-0.6-1-0.9-1.5c-0.3-0.5-0.5-1-0.7-1.6c-0.2-0.5-0.4-1.1-0.6-1.6
		c-0.3-1.1-0.5-2.2-0.5-3.1c0-1,0-1.8,0.1-2.5c0-0.3,0.1-0.6,0.1-0.8c0-0.2,0.1-0.3,0.1-0.3l0.4-0.2c0,0,0.1,0.3,0.4,0.7
		c0.3,0.4,0.6,1.1,1.1,1.8c0.9,1.5,2,3.6,3.1,5.6c1.1,2.1,2.2,4.1,3,5.7c0.4,0.8,0.7,1.4,0.9,1.9c0.2,0.5,0.4,0.7,0.4,0.7L444.5,368
		z"/>
</g>
<g id="XMLID_134_">
	<path id="XMLID_204_" d="M435.7,351.3c0,0,0-0.1-0.1-0.2c-0.1-0.1-0.2-0.3-0.2-0.5c-0.2-0.4-0.4-1-0.5-1.6c-0.1-0.6-0.1-1.3,0-1.9
		c0.1-0.3,0.1-0.6,0.2-0.9c0.1-0.3,0.3-0.6,0.4-0.8c0.2-0.2,0.4-0.5,0.6-0.7c0.2-0.2,0.5-0.4,0.7-0.6c0.5-0.3,1.1-0.6,1.7-0.8
		c0.6-0.2,1.2-0.2,1.7-0.2c0.2,0,0.4,0,0.6,0c0.1,0,0.2,0,0.2,0l0.3,0.2c0,0-0.3,0.5-0.7,1.4c-0.5,0.8-1.1,1.9-1.8,2.9
		c-0.7,1-1.4,2.1-1.9,2.8c-0.5,0.7-0.9,1.2-0.9,1.2L435.7,351.3z"/>
</g>
<g id="XMLID_133_">
	<path id="XMLID_202_" d="M441,343.2c0,0-0.1,0-0.2,0c-0.1,0-0.3-0.1-0.5-0.2c-0.4-0.1-1-0.4-1.5-0.7c-0.5-0.3-1-0.7-1.4-1.2
		c-0.2-0.2-0.4-0.5-0.5-0.8c-0.2-0.3-0.2-0.6-0.3-0.8c-0.1-0.3-0.1-0.6-0.1-0.9c0-0.3,0-0.6,0-0.9c0.1-0.6,0.3-1.2,0.6-1.8
		c0.3-0.6,0.6-1,0.9-1.4c0.1-0.2,0.3-0.3,0.4-0.4c0.1-0.1,0.2-0.2,0.2-0.2l0.4-0.1c0,0,0.2,0.6,0.5,1.4c0.3,0.9,0.7,2,1,3.2
		c0.3,1.2,0.6,2.3,0.8,3.2c0.2,0.9,0.3,1.5,0.3,1.5L441,343.2z"/>
</g>
<g id="XMLID_139_">
	<path id="XMLID_200_" d="M426.7,386c0,0-0.1-0.1-0.2-0.1c-0.1-0.1-0.3-0.2-0.5-0.3c-0.4-0.2-0.9-0.6-1.3-1c-0.4-0.4-0.8-0.9-1-1.4
		c-0.1-0.3-0.2-0.5-0.3-0.8c-0.1-0.3-0.1-0.5-0.1-0.8c0-0.3,0-0.5,0.1-0.8c0.1-0.3,0.2-0.5,0.3-0.8c0.2-0.5,0.6-1,1-1.4
		c0.4-0.4,0.9-0.7,1.3-1c0.2-0.1,0.4-0.4,0.5-0.4c0.1-0.1,0.2-0.3,0.2-0.3h0.4c0,0,0.1,0.7,0.1,1.5c0.1,0.8,0.1,2,0.1,3
		c0,1.1,0,2.2-0.1,3c-0.1,0.8-0.1,1.4-0.1,1.4H426.7z"/>
</g>
<g id="XMLID_39_">
	<line id="XMLID_198_" class="st1" x1="296.3" y1="250.4" x2="381.3" y2="327.9"/>
	<path id="XMLID_197_" class="st1" d="M296.5,250.3c0,0,0.4,0.3,1.1,0.7c0.7,0.5,1.8,1.2,3,2.1c1.3,0.9,2.9,2,4.6,3.4
		c1.8,1.3,3.8,2.8,5.9,4.5c2.1,1.7,4.4,3.5,6.8,5.4c2.4,2,4.9,4,7.5,6.2c2.5,2.2,5.3,4.4,7.9,6.8c2.6,2.4,5.3,4.7,8,7.1
		c2.6,2.5,5.3,4.9,7.8,7.3c2.6,2.4,5,4.9,7.5,7.2c2.4,2.3,4.7,4.7,6.9,6.9c2.2,2.2,4.2,4.3,6,6.3c1.9,2,3.5,3.8,5,5.4
		c1.5,1.6,2.7,3.1,3.8,4.3c1,1.2,1.8,2.2,2.4,2.8c0.5,0.7,0.8,1,0.8,1l-0.3,0.3c0,0-21.3-19.3-42.6-38.6
		c-21.2-19.4-42.3-38.9-42.3-38.9L296.5,250.3z"/>
</g>
<g id="XMLID_76_">
	<line id="XMLID_195_" class="st1" x1="381" y1="330" x2="400" y2="330"/>
	<path id="XMLID_194_" class="st1" d="M381,329.6c0,0-0.1-0.1,0.1-0.2c0.1-0.1,0.3-0.3,0.5-0.5c0.5-0.4,1.3-0.9,2.2-1.3
		c0.9-0.4,2-0.8,3.1-1c0.6-0.1,1.1-0.2,1.7-0.3c0.6-0.1,1.2-0.1,1.8-0.1c0.6,0,1.2,0,1.8,0.1c0.6,0.1,1.2,0.2,1.7,0.3
		c1.1,0.2,2.2,0.6,3.1,1c0.9,0.4,1.7,0.9,2.2,1.3c0.3,0.2,0.4,0.4,0.6,0.5c0.1,0.1,0.2,0.2,0.2,0.2v0.4c0,0-0.3,0-0.8,0
		c-0.5,0-1.3,0.1-2.2,0.1c-1.8,0-4.2,0.1-6.6,0.1c-2.4,0-4.8-0.1-6.7-0.1c-0.9,0-1.5-0.1-2.1-0.1c-0.5,0-0.7,0-0.7,0V329.6z"/>
</g>
<g id="XMLID_144_">
	<path id="XMLID_192_" d="M504.8,250.6c0,0-0.3,0.4-0.8,1c-0.5,0.6-1.3,1.6-2.4,2.8c-1,1.2-2.3,2.7-3.8,4.3c-1.5,1.6-3.1,3.5-5,5.4
		c-1.9,2-3.9,4.1-6.1,6.3c-2.2,2.2-4.5,4.6-6.9,6.9c-2.4,2.3-4.9,4.8-7.5,7.2c-2.6,2.4-5.2,4.9-7.9,7.3c-2.7,2.4-5.4,4.8-8,7.1
		c-2.6,2.4-5.3,4.6-7.9,6.8c-2.6,2.2-5.1,4.2-7.5,6.2c-2.4,2-4.7,3.8-6.8,5.4c-2.1,1.7-4.1,3.2-5.9,4.5c-1.8,1.3-3.3,2.4-4.6,3.4
		c-1.3,0.9-2.3,1.6-3,2.1c-0.7,0.5-1.1,0.7-1.1,0.7l-0.3-0.3c0,0,21.2-19.4,42.5-38.9c21.4-19.3,42.7-38.6,42.7-38.6L504.8,250.6z"
		/>
</g>
<g id="XMLID_143_">
	<path id="XMLID_190_" d="M420,330c0,0,0.1,0.1,0,0.2c-0.1,0.1-0.2,0.3-0.5,0.5c-0.5,0.4-1.2,0.9-2.1,1.3c-0.9,0.4-1.9,0.8-3.1,1
		c-0.6,0.1-1.1,0.2-1.7,0.3c-0.6,0.1-1.2,0.1-1.8,0.1c-0.6,0-1.2,0-1.8-0.1c-0.6-0.1-1.2-0.2-1.8-0.3c-1.1-0.2-2.2-0.6-3.1-1
		c-0.9-0.4-1.7-0.9-2.2-1.3c-0.3-0.2-0.5-0.4-0.6-0.5c-0.1-0.1-0.2-0.2-0.2-0.2v-0.4c0,0,0.3,0,0.8,0c0.5,0,1.3-0.1,2.2-0.1
		c1.8,0,4.2-0.1,6.7-0.1c2.4,0,4.9,0.1,6.7,0.1c0.9,0,1.5,0.1,2,0.1c0.5,0,0.6,0,0.6,0V330z"/>
</g>
<g id="XMLID_145_">
	<line id="XMLID_188_" class="st1" x1="373.2" y1="382.7" x2="366.5" y2="379.7"/>
	<path id="XMLID_187_" class="st1" d="M373.1,382.9c0,0-0.1,0.1-0.2,0.1c-0.1,0.1-0.2,0.2-0.4,0.3c-0.3,0.3-0.8,0.6-1.3,0.8
		c-0.5,0.3-1,0.4-1.5,0.5c-0.2,0-0.5,0-0.7,0c-0.2,0-0.5-0.1-0.7-0.2c-0.2-0.1-0.4-0.2-0.6-0.4c-0.2-0.1-0.3-0.3-0.5-0.5
		c-0.3-0.4-0.5-0.9-0.7-1.4c-0.1-0.5-0.2-1.1-0.2-1.5c0-0.2,0-0.4,0-0.5c0-0.1,0-0.2,0-0.2l0.2-0.4c0,0,0.4,0.1,1.1,0.4
		c0.7,0.2,1.5,0.6,2.4,0.9c0.8,0.4,1.7,0.8,2.3,1.1c0.6,0.3,1,0.6,1,0.6L373.1,382.9z"/>
</g>
<g id="XMLID_146_">
	<line id="XMLID_185_" class="st1" x1="366.5" y1="379.7" x2="361.1" y2="373.5"/>
	<path id="XMLID_184_" class="st1" d="M366.3,379.9c0,0-0.1,0-0.2,0.1c-0.1,0-0.3,0.1-0.5,0.1c-0.4,0.1-1,0.1-1.6,0.1
		c-0.6,0-1.1-0.1-1.6-0.3c-0.2-0.1-0.5-0.2-0.7-0.4c-0.2-0.1-0.4-0.3-0.6-0.5c-0.2-0.2-0.3-0.4-0.4-0.6c-0.1-0.2-0.2-0.5-0.3-0.7
		c-0.1-0.5-0.1-1.1-0.1-1.7c0.1-0.6,0.2-1.1,0.4-1.5c0.1-0.2,0.1-0.4,0.2-0.5c0.1-0.1,0.1-0.2,0.1-0.2l0.3-0.3c0,0,0.4,0.4,0.9,0.9
		c0.5,0.5,1.2,1.3,1.9,2.1c0.7,0.8,1.3,1.6,1.8,2.2c0.5,0.6,0.8,1,0.8,1L366.3,379.9z"/>
</g>
<g id="XMLID_148_">
	<path id="XMLID_182_" d="M428.7,382.5c0,0,0-0.1,0-0.2c0-0.1,0-0.3,0-0.5c0-0.4,0.1-1,0.2-1.5c0.1-0.5,0.4-1,0.7-1.4
		c0.1-0.2,0.3-0.4,0.5-0.5c0.2-0.2,0.4-0.3,0.6-0.4c0.2-0.1,0.4-0.2,0.7-0.2c0.2,0,0.5,0,0.7,0c0.5,0.1,1,0.2,1.5,0.5
		c0.5,0.3,0.9,0.6,1.3,0.8c0.2,0.1,0.3,0.3,0.4,0.3c0.1,0.1,0.2,0.1,0.2,0.1l0.2,0.4c0,0-0.4,0.2-1,0.6c-0.6,0.3-1.5,0.7-2.3,1.1
		c-0.9,0.4-1.7,0.7-2.4,0.9c-0.7,0.2-1.1,0.4-1.1,0.4L428.7,382.5z"/>
</g>
<g id="XMLID_147_">
	<path id="XMLID_180_" d="M435.4,379.6c0,0,0-0.1-0.1-0.2c0-0.1-0.1-0.3-0.2-0.5c-0.1-0.4-0.3-1-0.4-1.6c-0.1-0.6-0.1-1.2,0.1-1.7
		c0.1-0.3,0.1-0.5,0.3-0.7c0.1-0.2,0.3-0.4,0.4-0.6c0.2-0.2,0.4-0.4,0.6-0.5c0.2-0.2,0.4-0.3,0.7-0.4c0.5-0.2,1.1-0.3,1.7-0.3
		c0.6,0,1.1,0.1,1.6,0.1c0.2,0,0.4,0.1,0.5,0.1c0.1,0,0.2,0.1,0.2,0.1l0.3,0.3c0,0-0.3,0.4-0.8,1c-0.5,0.6-1.1,1.4-1.8,2.2
		c-0.7,0.8-1.4,1.5-1.9,2.1c-0.5,0.5-0.9,0.9-0.9,0.9L435.4,379.6z"/>
</g>
<g id="XMLID_149_">
	<line id="XMLID_178_" class="st1" x1="400.6" y1="425.9" x2="392.3" y2="421.2"/>
	<path id="XMLID_177_" class="st1" d="M400.5,426.1c0,0-0.1,0-0.2,0.1c-0.1,0.1-0.3,0.2-0.5,0.3c-0.4,0.2-1,0.4-1.6,0.6
		c-0.6,0.1-1.2,0.2-1.9,0.2c-0.3,0-0.6-0.1-0.9-0.2c-0.3-0.1-0.6-0.2-0.8-0.4c-0.3-0.2-0.5-0.3-0.7-0.5c-0.2-0.2-0.4-0.4-0.6-0.7
		c-0.4-0.5-0.6-1.1-0.8-1.7c-0.2-0.6-0.3-1.2-0.3-1.7c0-0.2,0-0.4,0-0.6c0-0.1,0-0.2,0-0.2l0.2-0.3c0,0,0.5,0.2,1.4,0.6
		c0.8,0.4,1.9,1,2.9,1.5c1,0.6,2.1,1.2,2.8,1.7c0.8,0.5,1.2,0.8,1.2,0.8L400.5,426.1z"/>
</g>
<g id="XMLID_150_">
	<line id="XMLID_175_" class="st1" x1="392.3" y1="421.2" x2="394.4" y2="416.7"/>
	<path id="XMLID_174_" class="st1" d="M392.1,421.1c0,0-0.1,0-0.2-0.1c-0.1-0.1-0.2-0.2-0.4-0.3c-0.3-0.3-0.6-0.7-0.9-1
		c-0.3-0.4-0.5-0.8-0.6-1.2c-0.1-0.2-0.1-0.4-0.1-0.5c0-0.2,0.1-0.3,0.1-0.5c0.1-0.1,0.2-0.3,0.3-0.4c0.1-0.1,0.3-0.2,0.4-0.3
		c0.3-0.2,0.8-0.2,1.3-0.3c0.5,0,1,0,1.4,0c0.2,0,0.4,0,0.5,0.1c0.1,0,0.2,0,0.2,0l0.4,0.2c0,0-0.1,0.3-0.2,0.7
		c-0.1,0.4-0.4,1-0.6,1.6c-0.3,0.6-0.5,1.1-0.8,1.5c-0.2,0.4-0.4,0.6-0.4,0.6L392.1,421.1z"/>
</g>
<g id="XMLID_151_">
	<line id="XMLID_172_" class="st1" x1="394.4" y1="416.7" x2="400.6" y2="419"/>
	<path id="XMLID_171_" class="st1" d="M394.4,416.5c0,0,0-0.1,0.1-0.2c0.1-0.1,0.2-0.2,0.4-0.4c0.3-0.3,0.7-0.7,1.1-1
		c0.4-0.3,0.9-0.5,1.4-0.6c0.2,0,0.5-0.1,0.7-0.1c0.2,0,0.4,0.1,0.6,0.1c0.2,0.1,0.4,0.2,0.6,0.3c0.2,0.1,0.3,0.3,0.5,0.5
		c0.3,0.4,0.5,0.8,0.7,1.3c0.1,0.5,0.2,1,0.3,1.5c0,0.2,0,0.4,0,0.5c0,0.1,0,0.2,0,0.2l-0.1,0.4c0,0-0.4-0.1-1-0.2
		c-0.6-0.2-1.4-0.4-2.2-0.7c-0.8-0.3-1.6-0.6-2.1-0.8c-0.6-0.3-0.9-0.5-0.9-0.5L394.4,416.5z"/>
</g>
<g id="XMLID_154_">
	<path id="XMLID_169_" d="M401.7,425.7c0,0,0-0.1,0-0.2c0-0.1,0-0.4,0-0.6c0-0.5,0.1-1.1,0.3-1.7c0.2-0.6,0.5-1.2,0.8-1.7
		c0.2-0.2,0.4-0.5,0.6-0.7c0.2-0.2,0.5-0.4,0.7-0.5c0.3-0.1,0.5-0.3,0.8-0.3c0.3-0.1,0.6-0.1,0.9-0.2c0.6-0.1,1.3,0,1.9,0.2
		c0.6,0.2,1.2,0.4,1.6,0.6c0.2,0.1,0.4,0.2,0.5,0.3c0.1,0.1,0.2,0.1,0.2,0.1l0.2,0.3c0,0-0.5,0.3-1.3,0.8c-0.8,0.5-1.8,1.1-2.8,1.7
		c-1.1,0.6-2.1,1.2-2.9,1.5c-0.8,0.4-1.4,0.6-1.4,0.6L401.7,425.7z"/>
</g>
<g id="XMLID_153_">
	<path id="XMLID_167_" d="M410,421.3c0,0-0.1,0-0.2,0c-0.1,0-0.3,0-0.5,0.1c-0.4,0-0.9,0.1-1.4,0c-0.5,0-0.9-0.1-1.3-0.3
		c-0.2-0.1-0.3-0.2-0.4-0.3c-0.1-0.1-0.2-0.2-0.3-0.4c0-0.1-0.1-0.3-0.1-0.5c0-0.2,0-0.3,0.1-0.5c0.1-0.4,0.3-0.8,0.6-1.2
		c0.3-0.4,0.6-0.8,0.9-1c0.1-0.1,0.3-0.3,0.4-0.3c0.1-0.1,0.2-0.1,0.2-0.1l0.4-0.2c0,0,0.2,0.3,0.4,0.6c0.2,0.4,0.5,0.9,0.8,1.5
		c0.2,0.6,0.5,1.1,0.6,1.6c0.1,0.4,0.2,0.7,0.2,0.7L410,421.3z"/>
</g>
<g id="XMLID_152_">
	<path id="XMLID_165_" d="M408.2,416.9c0,0,0,0.1,0,0.2c0,0.1,0,0.3,0,0.5c0,0.4-0.1,1-0.3,1.5c-0.2,0.5-0.4,1-0.7,1.3
		c-0.1,0.2-0.3,0.4-0.5,0.5c-0.2,0.1-0.4,0.2-0.6,0.3c-0.2,0.1-0.4,0.1-0.6,0.1c-0.2,0-0.4,0-0.7-0.1c-0.5-0.1-0.9-0.3-1.4-0.6
		c-0.4-0.3-0.8-0.7-1.1-1c-0.1-0.1-0.3-0.3-0.4-0.4c-0.1-0.1-0.1-0.2-0.1-0.2l-0.1-0.4c0,0,0.4-0.2,0.9-0.5c0.6-0.3,1.4-0.6,2.1-0.8
		c0.8-0.3,1.6-0.5,2.2-0.7c0.6-0.2,1-0.2,1-0.2L408.2,416.9z"/>
</g>
<g id="XMLID_155_">
	<path id="XMLID_163_" d="M401.2,341c0,0,0.1,0,0.2,0.4c0.1,0.4,0.3,0.9,0.5,1.7c0.2,0.8,0.4,1.6,0.6,2.7c0.2,1.1,0.5,2.3,0.7,3.6
		c0.2,1.3,0.4,2.7,0.6,4.2c0.2,1.5,0.4,3.1,0.5,4.7c0.1,1.6,0.3,3.3,0.3,5.1c0.1,1.7,0.1,3.5,0.1,5.2c0,1.8,0,3.5-0.1,5.2
		c0,1.7-0.2,3.4-0.3,5.1c-0.1,1.6-0.3,3.2-0.5,4.7c-0.1,1.5-0.4,2.9-0.6,4.3c-0.2,1.3-0.4,2.5-0.6,3.6c-0.2,1.1-0.4,2-0.6,2.8
		c-0.2,0.8-0.4,1.5-0.5,1.9c-0.1,0.4-0.2,0.8-0.2,0.8h-0.4c0,0,0-3.6-0.1-8.9c0-5.3-0.1-12.3-0.1-19.4c0-7,0.1-13.9,0.1-19.1
		c0.1-5.3,0.1-8.6,0.1-8.6H401.2z"/>
</g>
</svg>
