<?xml version="1.0" encoding="utf-8"?>
<!-- Generator: Adobe Illustrator 19.0.0, SVG Export Plug-In . SVG Version: 6.00 Build 0)  -->
<svg version="1.1" id="Layer_1" xmlns="http://www.w3.org/2000/svg" xmlns:xlink="http://www.w3.org/1999/xlink" x="0px" y="0px"
	 viewBox="220 -40 640 480" style="enable-background:new 220 -40 640 480;" xml:space="preserve">
<style type="text/css">
	.st0{fill:#FFFFFF;stroke:#FFFFFF;stroke-width:3;stroke-miterlimit:10;}
	.st1{fill:#FFFFFF;}
	.st2{fill:#2B3638;stroke:#2B3638;stroke-width:3;stroke-miterlimit:10;}
	.st3{fill:#2B3638;}
	.st4{fill:none;stroke:#2B3638;stroke-width:3;stroke-miterlimit:10;}
	.st5{fill:none;}
	.st6{fill:#2B3638;stroke:#2B3638;stroke-miterlimit:10;}
	.st7{fill:#FFFFFF;stroke:#FFFFFF;stroke-miterlimit:10;}
</style>
<g id="XMLID_3_">
	<g>
		<g id="XMLID_629_">
			<path id="XMLID_630_" class="st0" d="M510.6,331.8c9.8,3,19.6,6.6,29.4,11"/>
		</g>
	</g>
</g>
<g id="XMLID_15_">
	<g>
		<path id="XMLID_628_" class="st1" d="M510.4,331.1c0,0-0.1-0.3-0.1-0.7c0-0.2-0.1-0.5-0.1-0.7c0-0.3,0-0.5,0-0.8s-0.1-0.5-0.1-0.8
			c0.1-0.2,0.3-0.4,0.6-0.5c0.3-0.1,0.5-0.3,0.8-0.3c0.2,0,0.4-0.1,0.4-0.1c0.1,0,0.2,0,0.3,0.1c0,0,0.1,0.1,0.3,0.3
			c0.2,0.2,0.3,0.4,0.5,0.7c0.1,0.3,0.2,0.5,0.1,0.9c-0.1,0.2-0.4,0.4-0.6,0.6s-0.4,0.5-0.6,0.7c-0.2,0.2-0.4,0.4-0.6,0.4
			c-0.3,0.3-0.6,0.4-0.6,0.4C510.6,331.2,510.5,331.2,510.4,331.1z"/>
	</g>
</g>
<g id="XMLID_17_">
	<g>
		<path id="XMLID_621_" class="st1" d="M495.4,284c0,0,1.2,2.2,3,5.8c1.8,3.6,4.1,8.7,6.4,14.4c0.6,1.4,1.2,2.9,1.8,4.3
			c0.6,1.5,1.2,2.9,1.7,4.3s0.9,2.8,1.3,4.3c0.4,1.3,0.7,2.7,1,3.9c1.2,5,1.6,8.5,1.6,8.5c-0.1,0-0.2,0-0.3,0c0,0-1.7-3.3-3.6-8
			c-0.5-1.1-1-2.4-1.5-3.7c-0.5-1.3-1-2.7-1.5-4.1s-0.9-2.8-1.4-4.4c-0.5-1.4-0.9-2.9-1.4-4.3c-1.9-5.7-3.8-10.9-5.1-14.7
			c-1.4-3.7-2.3-6.1-2.3-6.1C495.2,284.2,495.3,284.1,495.4,284z"/>
	</g>
</g>
<g id="XMLID_19_">
	<g>
		<path id="XMLID_599_" class="st1" d="M495.2,281.2c0,0,0.1-0.7,0.3-1.7c0.1-0.5,0.2-1.1,0.4-1.7c0.1-0.6,0.3-1.3,0.5-2.1
			c0.2-0.7,0.2-1.4,0.5-2.1c0.2-0.7,0.6-1.2,1-1.8c0.4-0.6,0.8-1,1.1-1.3c0.3-0.3,0.5-0.4,0.5-0.4c0.1,0,0.2,0,0.3,0
			c0,0,0.1,0.2,0.2,0.6s0.1,1,0.1,1.6c0,0.7-0.1,1.4-0.4,2.1c-0.3,0.8-0.8,1.4-1.1,2.1c-0.4,0.7-0.7,1.3-1.1,2
			c-0.4,0.6-0.7,1.1-1,1.5c-0.6,0.8-1,1.3-1,1.3C495.4,281.4,495.3,281.3,495.2,281.2z"/>
	</g>
</g>
<g id="XMLID_21_">
	<g>
		<path id="XMLID_595_" class="st1" d="M498.5,270.8c0,0-0.2-1.8-0.4-4.3c-0.1-1.2-0.2-2.6-0.3-4.1c-0.1-1.4-0.2-3-0.3-4.4
			c-0.1-0.7-0.1-1.5-0.2-2.2s-0.1-1.4-0.2-2c0-0.7,0-1.3,0.1-2s0.1-1.3,0.3-2c0.4-2.4,1.1-4.6,1.1-4.7c0.1-0.1,0.2-0.2,0.3-0.2
			c0,0,0.7,1.2,1.1,3.5c0.1,0.6,0.2,1.3,0.3,2c0.1,0.7,0.1,1.5,0.1,2.4s-0.1,1.7-0.2,2.6s-0.1,1.7-0.2,2.6c-0.1,1.7-0.2,3.4-0.3,5
			c-0.1,1.6-0.2,3.1-0.3,4.3c-0.2,2.4-0.4,3.9-0.4,3.9C498.8,271.1,498.7,270.9,498.5,270.8z"/>
	</g>
</g>
<g id="XMLID_12_">
	<g>
		<g id="XMLID_590_">
			<path id="XMLID_594_" class="st2" d="M570.7,330.8c-9.9,4.4-19.7,8-29.6,11"/>
		</g>
	</g>
</g>
<g id="XMLID_11_">
	<g>
		<path id="XMLID_554_" class="st3" d="M570.5,331.5c0,0-0.3-0.3-0.6-0.6c-0.2-0.2-0.4-0.3-0.6-0.6c-0.2-0.2-0.4-0.4-0.6-0.7
			c-0.2-0.2-0.5-0.4-0.6-0.6s0-0.4,0.1-0.7c0.1-0.3,0.3-0.5,0.5-0.7c0.2-0.2,0.3-0.3,0.3-0.3c0.1,0,0.2-0.1,0.3-0.1
			c0,0,0.2,0,0.4-0.1c0.3,0,0.5,0,0.8,0.1s0.5,0.3,0.6,0.5c0.1,0.3-0.1,0.7-0.1,1s0,0.7,0,1s-0.1,0.6-0.1,0.9c0,0.5-0.1,0.9-0.1,0.9
			C570.7,331.5,570.6,331.5,570.5,331.5z"/>
	</g>
</g>
<g id="XMLID_10_">
	<g>
		<path id="XMLID_549_" class="st3" d="M586.1,279.6c0,0-0.9,3.5-2.3,8.3c-1.3,4.9-3.3,11.2-5.2,16.9c-0.5,1.4-0.9,2.9-1.4,4.3
			c-0.4,1.4-0.9,2.7-1.4,4c-0.5,1.2-1,2.4-1.5,3.5s-1,2-1.5,2.9c-1.9,3.5-3.6,5.4-3.6,5.4c-0.1-0.1-0.2-0.1-0.3-0.2
			c0,0,0.4-2.6,1.6-6.5c0.3-1,0.6-2,1-3.1c0.4-1.1,0.8-2.2,1.3-3.5c0.5-1.2,1.1-2.5,1.7-3.7c0.6-1.3,1.2-2.7,1.8-4.1
			c2.3-5.5,4.6-11.6,6.4-16.4s3-8.2,3-8.2C585.8,279.5,586,279.6,586.1,279.6z"/>
	</g>
</g>
<g id="XMLID_9_">
	<g>
		<path id="XMLID_545_" class="st3" d="M585.8,282.4c0,0-0.4-0.8-1-1.9c-0.3-0.6-0.7-1.2-1-1.9c-0.4-0.6-0.7-1.3-1.1-2
			c-0.4-0.7-0.9-1.2-1.1-1.9c-0.3-0.6-0.3-1.2-0.4-1.7c0-0.5,0-1,0.1-1.4s0.2-0.6,0.2-0.6c0.1-0.1,0.2-0.1,0.3-0.2
			c0,0,0.2,0,0.5,0.2c0.3,0.1,0.7,0.4,1.1,0.7c0.4,0.4,0.8,0.9,1,1.6c0.2,0.7,0.3,1.5,0.5,2.3c0.2,0.7,0.4,1.6,0.5,2.3
			c0.2,0.8,0.3,1.5,0.4,2.1c0.2,1.2,0.3,2.1,0.3,2.1C586,282.3,585.9,282.4,585.8,282.4z"/>
	</g>
</g>
<g id="XMLID_2_">
	<g>
		<path id="XMLID_542_" class="st3" d="M580.7,270.8c0,0-0.2-1.8-0.4-4.3c-0.1-1.2-0.2-2.6-0.3-4.1c-0.1-1.4-0.2-3-0.3-4.4
			c-0.1-0.7-0.1-1.5-0.2-2.2c-0.1-0.7-0.1-1.4-0.2-2c0-0.7,0-1.3,0.1-2s0.1-1.3,0.3-2c0.4-2.4,1.1-4.6,1.1-4.7
			c0.1-0.1,0.2-0.2,0.3-0.2c0,0,0.7,1.2,1.1,3.5c0.1,0.6,0.2,1.3,0.3,2s0.1,1.5,0.1,2.4s-0.1,1.7-0.2,2.6c-0.1,0.9-0.1,1.7-0.2,2.6
			c-0.1,1.7-0.2,3.4-0.3,5c-0.1,1.6-0.2,3.1-0.3,4.3c-0.2,2.4-0.4,3.9-0.4,3.9C581,271.1,580.9,270.9,580.7,270.8z"/>
	</g>
</g>
<g id="XMLID_23_">
	<g>
		<path id="XMLID_583_" class="st1" d="M499.3,246.3c0,0-0.5-0.5-1.1-1.2c-0.3-0.3-0.7-0.8-1.1-1.2c-0.4-0.4-0.8-0.9-1.2-1.3
			c-0.4-0.5-0.9-0.8-1.3-1.2c-0.3-0.5-0.5-0.9-0.5-1.3c-0.1-0.4-0.1-0.8,0-1.2c0-0.3,0.1-0.6,0.1-0.6c0.1-0.1,0.2-0.1,0.3-0.2
			c0,0,0.2,0,0.6,0c0.3,0.1,0.7,0.2,1.2,0.3c0.4,0.2,0.8,0.5,1.1,1c0.3,0.5,0.4,1.1,0.7,1.7c0.2,0.6,0.5,1.1,0.7,1.8
			c0.2,0.5,0.4,1.1,0.6,1.6c0.3,1,0.5,1.7,0.5,1.7C499.7,246.2,499.5,246.3,499.3,246.3z"/>
	</g>
</g>
<g id="XMLID_24_">
	<g>
		<path id="XMLID_580_" class="st1" d="M494.2,237.9c0,0-1.2,0.4-3.1,0.9c-0.9,0.2-2,0.5-3.2,0.7c-1.2,0.3-2.4,0.5-3.7,0.8
			c-1.3,0.2-2.5,0.7-3.7,0.7c-1.2,0.1-2.3,0.1-3.3-0.1c-1-0.1-1.8-0.2-2.4-0.4c-0.6-0.1-0.9-0.3-0.9-0.3c0-0.1,0-0.2,0-0.3
			c0,0,0.3-0.2,0.8-0.4s1.3-0.5,2.2-0.8s2-0.6,3.2-0.8c1.2-0.1,2.5,0,3.8-0.2c1.3-0.1,2.6-0.1,3.8-0.2c1.2,0,2.3,0,3.3-0.2
			c1.9,0,3.2-0.1,3.2-0.1C494.2,237.6,494.2,237.7,494.2,237.9z"/>
	</g>
</g>
<g id="XMLID_25_">
	<g>
		<path id="XMLID_566_" class="st1" d="M473.9,241.2c0,0-1.3-1-3.2-2.4c-0.9-0.7-2.1-1.5-3.2-2.3c-1.2-0.9-2.4-1.7-3.7-2.6
			c-1.2-0.9-2.6-1.6-3.7-2.3c-1.1-0.8-2-1.7-2.8-2.4c-0.8-0.8-1.3-1.4-1.7-1.9s-0.6-0.8-0.6-0.8c0.1-0.1,0.1-0.1,0.2-0.2
			c0,0,0.4,0.1,1,0.2c0.7,0.1,1.5,0.4,2.5,0.8s2.1,1,3.2,1.8s2.1,1.9,3.2,2.9c1.1,1,2.2,2,3.3,3.1c1,1,2,2.1,2.8,2.8
			c1.6,1.7,2.7,3,2.7,3C473.9,241.1,473.9,241.2,473.9,241.2z"/>
	</g>
</g>
<g id="XMLID_26_">
	<g>
		<path id="XMLID_560_" class="st1" d="M455,224.2c0,0,1-0.8,2.5-2c0.8-0.6,1.6-1.4,2.6-2.3c0.9-0.8,2-1.7,3-2.7c1-0.9,2-2,3-2.9
			s2.1-1.6,3-2.1c0.9-0.6,1.8-1,2.4-1.2c0.6-0.3,1-0.4,1-0.4c0.1,0.1,0.1,0.1,0.2,0.2c0,0-0.2,0.5-0.5,1c-0.3,0.7-0.9,1.5-1.6,2.4
			c-0.7,0.9-1.6,1.9-2.6,2.7c-1,0.9-2.3,1.5-3.4,2.3c-1.2,0.8-2.3,1.6-3.4,2.2c-1.1,0.6-2.1,1.3-3,1.7c-1.8,0.9-3,1.4-3,1.4
			C455.1,224.4,455.1,224.3,455,224.2z"/>
	</g>
</g>
<g id="XMLID_27_">
	<g>
		<path id="XMLID_557_" class="st1" d="M473.3,211.8c0,0,2.6,0.5,6.4,1.5c3.9,0.9,9,2.3,14.1,3.7c1.3,0.4,2.6,0.7,3.8,1.1
			c1.3,0.3,2.5,0.7,3.7,1.1s2.3,0.8,3.4,1.4c1.1,0.4,2.1,1,3,1.4c3.7,1.8,6,3.5,6,3.5c0,0.1-0.1,0.2-0.1,0.3c0,0-2.7-0.3-6.6-1.5
			c-1-0.2-2-0.6-3.1-0.9s-2.3-0.8-3.4-1.2c-1.2-0.4-2.4-1-3.6-1.5s-2.5-1-3.7-1.5c-5-1.9-10-3.7-13.7-5.1c-3.7-1.3-6.2-2.1-6.2-2.1
			C473.3,211.9,473.3,211.9,473.3,211.8z"/>
	</g>
</g>
<g id="XMLID_32_">
	<g>
		<path id="XMLID_537_" class="st3" d="M581.4,245.4c0,0,0.2-0.5,0.5-1.3c0.2-0.4,0.3-0.8,0.6-1.4c0.2-0.5,0.5-1,0.7-1.6
			c0.3-0.6,0.4-1.2,0.7-1.7c0.3-0.5,0.7-0.9,1.1-1.2c0.4-0.4,0.8-0.6,1.2-0.7c0.3-0.1,0.6-0.2,0.6-0.2c0.1,0.1,0.2,0.1,0.3,0.2
			c0,0,0.1,0.2,0.1,0.6c0,0.3,0,0.9,0,1.4c-0.1,0.6-0.2,1.1-0.5,1.7c-0.3,0.5-0.9,0.9-1.3,1.4c-0.4,0.4-0.8,0.9-1.2,1.3
			s-0.8,0.7-1.1,1c-0.7,0.5-1.1,0.8-1.1,0.8C581.8,245.6,581.6,245.5,581.4,245.4z"/>
	</g>
</g>
<g id="XMLID_31_">
	<g>
		<path id="XMLID_533_" class="st3" d="M586.8,237.9c0,0,1.3,0,3.2-0.1c1,0,2.1,0,3.3,0s2.5,0.1,3.8,0c1.3,0.1,2.6,0,3.8,0
			c1.2,0.1,2.3,0.4,3.2,0.8c0.9,0.3,1.7,0.7,2.2,1s0.8,0.6,0.8,0.6c0,0.1,0,0.2,0,0.3c0,0-0.3,0.1-0.9,0.3c-0.6,0.2-1.4,0.3-2.4,0.4
			s-2.1,0.1-3.3-0.1c-1.2-0.2-2.4-0.7-3.7-0.9c-1.3-0.3-2.5-0.5-3.7-0.8s-2.3-0.5-3.2-0.7C588,238.3,586.8,238,586.8,237.9
			C586.8,238.1,586.8,238,586.8,237.9z"/>
	</g>
</g>
<g id="XMLID_30_">
	<g>
		<path id="XMLID_529_" class="st3" d="M607,239.6c0,0,1.1-0.9,2.7-2.2c0.8-0.7,1.8-1.5,2.8-2.4s2.2-1.9,3.3-2.9
			c1.1-1,2.2-2.1,3.2-3.1c1.1-1,2.2-1.7,3.2-2.4c1-0.6,1.9-1.1,2.6-1.4c0.6-0.3,1.1-0.4,1.1-0.4c0.1,0.1,0.1,0.1,0.2,0.2
			c0,0-0.2,0.5-0.6,1c-0.4,0.7-1,1.5-1.7,2.5c-0.8,0.9-1.7,2-2.8,2.8c-1.1,0.9-2.5,1.7-3.7,2.5c-1.2,0.8-2.5,1.7-3.7,2.4
			c-1.2,0.7-2.3,1.3-3.2,1.9c-1.9,1-3.2,1.6-3.2,1.6C607.1,239.7,607.1,239.6,607,239.6z"/>
	</g>
</g>
<g id="XMLID_29_">
	<g>
		<path id="XMLID_525_" class="st3" d="M625.9,225.8c0,0-1.2-0.9-3-2.2c-0.9-0.7-1.9-1.4-3-2.1c-1.1-0.8-2.3-1.6-3.4-2.4
			s-2.4-1.4-3.4-2.1s-1.9-1.6-2.6-2.3s-1.2-1.3-1.6-1.8c-0.3-0.4-0.5-0.8-0.5-0.8c0.1-0.1,0.1-0.1,0.2-0.2c0,0,0.4,0.1,1,0.2
			c0.6,0.1,1.4,0.4,2.4,0.8c0.9,0.4,2,0.9,3,1.7c1,0.7,2,1.8,3,2.7s2.1,1.9,3,2.9c1,1,1.8,1.8,2.6,2.7c1.5,1.6,2.5,2.8,2.5,2.8
			C626,225.6,626,225.7,625.9,225.8z"/>
	</g>
</g>
<g id="XMLID_28_">
	<g>
		<path id="XMLID_468_" class="st3" d="M607.9,210.7c0,0-2.5,1.2-6.3,2.9c-3.8,1.7-8.9,3.7-13.9,5.7c-1.3,0.5-2.5,1-3.8,1.5
			c-1.2,0.5-2.5,0.9-3.7,1.3s-2.4,0.7-3.5,1s-2.2,0.5-3.2,0.7c-4,0.7-6.8,0.8-6.8,0.8c0-0.1-0.1-0.2-0.1-0.3c0,0,2.4-1.3,6.1-2.7
			c0.9-0.4,2-0.7,3-1.2c1.1-0.4,2.2-0.8,3.4-1.2c1.2-0.4,2.5-0.7,3.8-1.1c1.3-0.4,2.6-0.7,3.9-1.1c5.2-1.5,10.4-3.2,14.4-4.5
			c3.9-1.3,6.6-2.1,6.6-2.1C607.8,210.5,607.9,210.6,607.9,210.7z"/>
	</g>
</g>
<g id="XMLID_41_">
	<g>
		<path id="XMLID_461_" class="st1" d="M459.7,196.8"/>
	</g>
</g>
<g id="XMLID_40_">
	<g>
		<path id="XMLID_450_" class="st1" d="M470.6,211.3"/>
	</g>
</g>
<g id="XMLID_116_">
	<g>
		<path id="XMLID_437_" class="st1" d="M459.7,196.8"/>
	</g>
</g>
<g id="XMLID_115_">
</g>
<g id="XMLID_35_">
</g>
<g id="XMLID_34_">
</g>
<g id="XMLID_114_">
</g>
<g id="XMLID_110_">
	<g>
		<path id="XMLID_432_" class="st1" d="M527.1,211.3"/>
	</g>
</g>
<g id="XMLID_38_">
</g>
<g id="XMLID_112_">
</g>
<g id="XMLID_37_">
</g>
<g id="XMLID_36_">
</g>
<g id="XMLID_71_">
</g>
<g id="XMLID_111_">
</g>
<g id="XMLID_33_">
	<g>
		<path id="XMLID_521_" class="st1" d="M459.6,222.1c0,0-1.8-1.2-4.4-3.1c-1.3-0.9-2.9-1.9-4.5-3s-3.4-2.2-5.1-3.3
			c-0.9-0.5-1.8-1.1-2.6-1.6c-0.9-0.5-1.7-1-2.5-1.5c-0.8-0.6-1.5-1-2.2-1.6c-0.7-0.5-1.3-1-1.9-1.4c-2.3-1.9-3.6-3.3-3.6-3.3
			c0.1-0.1,0.1-0.1,0.2-0.2c0,0,2.1,0.4,4.8,1.6c0.7,0.3,1.4,0.7,2.2,1s1.5,0.8,2.3,1.3c0.8,0.6,1.6,1.1,2.3,1.7
			c0.8,0.6,1.6,1.3,2.4,1.9c1.6,1.3,3.2,2.5,4.7,3.8s2.9,2.5,4.1,3.6c2.4,2.1,4,3.7,4,3.7C459.7,221.9,459.7,222,459.6,222.1z"/>
	</g>
</g>
<g id="XMLID_42_">
	<g>
		<path id="XMLID_519_" class="st1" d="M432.9,202.7c0,0-1.9,0-4.6-0.2c-1.4,0-3,0-4.7-0.2c-1.7,0-3.6-0.1-5.4-0.3
			c-0.9,0-1.8-0.1-2.8-0.1c-0.9,0-1.8,0-2.7-0.1c-0.9-0.1-1.7-0.2-2.5-0.3c-0.8-0.1-1.5-0.3-2.2-0.5c-2.7-0.6-4.5-1.4-4.5-1.4
			c0-0.1,0-0.2,0-0.3c0,0,1.9-0.5,4.7-0.6c0.7,0,1.5-0.1,2.2,0c0.8,0,1.6,0,2.5,0.1s1.7,0.2,2.6,0.4c0.9,0.2,1.8,0.3,2.7,0.5
			c1.8,0.3,3.7,0.5,5.4,0.8c1.7,0.3,3.3,0.6,4.7,0.9c2.7,0.5,4.6,0.9,4.6,0.9C432.9,202.4,432.9,202.5,432.9,202.7z"/>
	</g>
</g>
<g id="XMLID_43_">
	<g>
		<path id="XMLID_517_" class="st1" d="M403.4,200.2c0,0-1-0.6-2.5-1.6c-0.7-0.5-1.6-1-2.5-1.6c-0.9-0.5-1.9-1.2-2.8-1.7
			c-0.9-0.6-2-1-2.8-1.6s-1.5-1.2-2.1-1.7c-0.5-0.6-1-1.1-1.2-1.5c-0.3-0.4-0.4-0.7-0.4-0.7c0.1-0.1,0.1-0.1,0.2-0.2
			c0,0,0.3,0,0.8,0c0.5,0.1,1.2,0.2,2,0.4c0.8,0.2,1.7,0.7,2.5,1.2c0.8,0.5,1.6,1.4,2.4,2.1c0.8,0.7,1.7,1.4,2.4,2.3
			c0.8,0.7,1.5,1.5,2.1,2.1c1.2,1.2,2,2.2,2,2.2C403.5,200.1,403.4,200.1,403.4,200.2z"/>
	</g>
</g>
<g id="XMLID_44_">
	<g>
		<path id="XMLID_515_" class="st1" d="M389.1,189.8c0,0-0.4-0.9-0.8-2.3c-0.2-0.7-0.5-1.4-0.8-2.1c-0.3-0.7-0.6-1.5-0.9-2.2
			c-0.3-0.8-0.7-1.4-0.9-2s-0.2-1.3-0.1-1.9c0.1-0.6,0.2-1.1,0.3-1.5c0.1-0.4,0.2-0.6,0.2-0.6c0.1-0.1,0.2-0.1,0.3-0.2
			c0,0,0.2,0.1,0.5,0.3c0.3,0.2,0.6,0.5,1,1c0.3,0.4,0.7,1.1,0.8,1.8c0.2,0.7,0.1,1.7,0.2,2.6c0.1,0.9,0.2,1.7,0.2,2.6
			c0.1,0.9,0.1,1.7,0.1,2.3c0.1,1.3,0.1,2.3,0.1,2.3C389.2,189.9,389.2,189.8,389.1,189.8z"/>
	</g>
</g>
<g id="XMLID_45_">
	<g>
		<path id="XMLID_513_" class="st1" d="M386.3,176.9c0,0,0.6,0.3,1.4,0.8c0.4,0.2,0.9,0.6,1.4,1s1,0.7,1.6,1.2
			c0.5,0.4,1.2,0.8,1.6,1.2c0.4,0.5,0.7,1.1,0.9,1.6c0.2,0.6,0.3,1.1,0.3,1.6c0,0.4,0,0.7,0,0.7c-0.1,0.1-0.1,0.1-0.2,0.2
			c0,0-0.2,0-0.6-0.2c-0.4-0.2-0.8-0.3-1.3-0.7c-0.5-0.3-1-0.7-1.4-1.2s-0.7-1.2-1.1-1.7c-0.4-0.6-0.8-1.1-1.1-1.6s-0.6-1-0.9-1.4
			c-0.5-0.8-0.9-1.3-0.9-1.3C386.1,177,386.2,177,386.3,176.9z"/>
	</g>
</g>
<g id="XMLID_46_">
	<g>
		<path id="XMLID_511_" class="st1" d="M393.6,184.8c0,0,0.5,0.1,1.2,0.3c0.4,0.1,0.8,0.2,1.2,0.3c0.5,0.2,0.9,0.4,1.4,0.5
			c0.5,0.2,1,0.3,1.4,0.5c0.4,0.3,0.6,0.6,0.8,1.1c0.2,0.4,0.3,0.9,0.4,1.2c0.1,0.3,0.1,0.6,0.1,0.6c-0.1,0.1-0.1,0.1-0.2,0.2
			c0,0-0.2,0.1-0.5,0.1c-0.3,0.1-0.7,0.1-1.1-0.1c-0.4-0.1-0.9-0.3-1.3-0.5c-0.4-0.3-0.6-0.8-1-1.1c-0.3-0.4-0.7-0.7-1-1.1
			c-0.3-0.4-0.6-0.6-0.8-0.9c-0.5-0.5-0.8-0.9-0.8-0.9C393.5,185,393.5,184.9,393.6,184.8z"/>
	</g>
</g>
<g id="XMLID_47_">
	<g>
		<path id="XMLID_509_" class="st1" d="M399,190.6c0,0,0.9-0.2,2-0.4c0.6-0.1,1.3-0.2,2-0.3s1.5-0.2,2.2-0.3
			c0.8-0.1,1.5-0.3,2.2-0.5c0.7,0,1.4,0.2,1.9,0.4c0.6,0.2,0.9,0.4,1.2,0.7c0.3,0.2,0.4,0.4,0.4,0.4c0,0.1,0,0.2,0,0.3
			c0,0,0,0.2-0.4,0.4c-0.3,0.2-0.7,0.5-1.3,0.7s-1.2,0.4-1.9,0.4s-1.4-0.3-2.2-0.5c-0.8-0.1-1.5-0.2-2.2-0.3s-1.5-0.2-2.1-0.3
			c-1.1-0.2-2-0.4-2-0.4c0-0.1,0-0.3,0-0.4C398.9,190.6,398.9,190.6,399,190.6z"/>
	</g>
</g>
<g id="XMLID_48_">
	<g>
		<path id="XMLID_507_" class="st1" d="M411.2,192.5c0,0-2.6-3.7-6.5-8.7c-3.9-5.1-9.1-11.7-14.2-17.6c-1.3-1.5-2.6-3-3.9-4.4
			c-1.3-1.4-2.5-2.8-3.7-4c-1.2-1.3-2.3-2.6-3.3-3.8c-1-1.3-2-2.4-2.8-3.4c-3.5-4.2-5.4-7-5.4-7c0.1-0.1,0.1-0.1,0.2-0.2
			c0,0,3,1.9,7.1,5.7c1,0.9,2.1,2,3.2,3.1c1.1,1.2,2.3,2.3,3.5,3.7c1.2,1.3,2.3,2.8,3.5,4.3c1.2,1.5,2.4,3,3.6,4.6
			c4.8,6.3,9.7,13.1,13.2,18.5c3.6,5.4,5.9,9.2,5.9,9.2C411.5,192.4,411.3,192.5,411.2,192.5z"/>
	</g>
</g>
<g id="XMLID_49_">
	<g>
		<path id="XMLID_505_" class="st1" d="M371.2,141.5c0,0-0.3-1-0.8-2.5c-0.2-0.7-0.5-1.6-0.8-2.4c-0.3-0.8-0.5-1.6-0.8-2.5
			c-0.3-0.8-0.7-1.6-0.9-2.3s-0.2-1.4-0.1-2.1c0.1-0.7,0.2-1.2,0.3-1.6c0.1-0.4,0.3-0.8,0.3-0.8c0.1-0.1,0.2-0.1,0.3-0.2
			c0,0,0.2,0.1,0.5,0.3c0.3,0.2,0.6,0.6,1,1.1c0.3,0.5,0.6,1.2,0.8,2c0.1,0.8,0.1,1.8,0.2,2.8c0.1,1,0.2,2,0.2,2.8
			c0.1,0.9,0.1,1.8,0.1,2.5c0.1,1.4,0.1,2.4,0.1,2.4C371.5,141.3,371.3,141.4,371.2,141.5z"/>
	</g>
</g>
<g id="XMLID_50_">
	<g>
		<path id="XMLID_503_" class="st1" d="M368.5,126.6c0,0-0.1-0.8-0.2-1.8c0-0.6-0.1-1.1-0.1-1.8c0-0.6,0-1.4-0.1-2
			c0-0.7-0.2-1.3-0.1-2c0.1-0.6,0.3-1.2,0.6-1.9c0.3-0.6,0.6-1.1,0.8-1.5s0.4-0.7,0.4-0.7c0.1,0,0.2-0.1,0.3-0.1
			c0,0,0.2,0.1,0.3,0.5c0.2,0.2,0.4,0.7,0.5,1.4c0.1,0.6,0.2,1.3,0.1,2.1c-0.1,0.8-0.4,1.6-0.6,2.3c-0.2,0.7-0.4,1.6-0.6,2.1
			c-0.2,0.7-0.4,1.2-0.6,1.8C368.9,126,368.6,126.6,368.5,126.6C368.6,126.6,368.5,126.6,368.5,126.6z"/>
	</g>
</g>
<g id="XMLID_51_">
	<g>
		<path id="XMLID_501_" class="st1" d="M370.2,115.4c0,0,0.3,0.5,0.6,1.5c0.2,0.4,0.4,1.1,0.6,1.8c0.2,0.7,0.4,1.4,0.6,2.1
			c0.2,0.7,0.5,1.5,0.6,2.3c0.1,0.8,0,1.5-0.1,2.1c-0.1,0.6-0.3,1.1-0.5,1.4c-0.2,0.2-0.3,0.5-0.3,0.5c-0.1,0-0.2-0.1-0.3-0.1
			c0,0-0.2-0.3-0.4-0.7c-0.3-0.4-0.5-0.9-0.8-1.5s-0.5-1.2-0.6-1.9c-0.1-0.6,0.1-1.3,0.1-2s0-1.4,0.1-2c0-0.6,0.1-1.3,0.1-1.8
			C370,116.2,370.1,115.4,370.2,115.4C370.1,115.4,370.2,115.4,370.2,115.4z"/>
	</g>
</g>
<g id="XMLID_52_">
	<g>
		<path id="XMLID_499_" class="st1" d="M371.5,127.7c0,0,0.9,0.7,2.3,1.8c0.7,0.6,1.5,1.2,2.3,2c0.8,0.7,1.7,1.7,2.6,2.6
			c0.9,0.9,1.8,1.7,2.6,2.7c0.7,1,1.3,2.1,1.7,3c0.4,1,0.7,1.8,0.9,2.5c0.2,0.7,0.2,1,0.2,1c-0.1,0.1-0.1,0.1-0.2,0.2
			c0,0-0.3-0.1-0.8-0.5s-1.2-1-1.9-1.7s-1.6-1.6-2.3-2.6c-0.7-1-1.3-2.2-2-3.2c-0.7-1-1.4-2.1-2.1-3c-0.7-0.9-1.2-1.7-1.7-2.4
			c-1-1.4-1.7-2.3-1.7-2.3C371.4,127.7,371.5,127.7,371.5,127.7z"/>
	</g>
</g>
<g id="XMLID_53_">
	<g>
		<path id="XMLID_497_" class="st1" d="M383.8,144c0,0-0.2-3.7-0.6-8.8c-0.4-5.1-0.8-11.5-1.2-17.3c-0.1-1.4-0.2-2.9-0.3-4.2
			c-0.1-1.4-0.2-2.7-0.3-4c0-1.4-0.1-2.5,0-3.8c0-1.2,0.1-2.4,0.1-3.5c0.2-4.4,0.8-8.3,0.8-8.4c0.1-0.2,0.2-0.3,0.3-0.5
			c0,0,0.8,1.7,1.3,6.1c0.1,1.2,0.3,2.3,0.4,3.6c0.1,1.3,0.2,2.8,0.2,4.4c0,1.6,0,3.3,0,5c0,1.6,0,3.4-0.1,5.1
			c0,6.8,0,13.6-0.1,18.6s-0.1,8.3-0.1,8.3C384.1,144.4,383.9,144.2,383.8,144z"/>
	</g>
</g>
<g id="XMLID_54_">
	<g>
		<path id="XMLID_495_" class="st1" d="M382.3,91.2c0,0,1-1.8,2.6-4.6c1.5-2.9,3.7-6.7,5.8-11c0.5-1.1,1-2.2,1.6-3.2
			c0.5-1.1,1-2.2,1.5-3.2c0.5-1.1,1.1-2,1.7-3c0.6-1,1.1-1.9,1.6-2.7c2.1-3.4,3.8-5.6,3.8-5.6c0.1,0,0.2,0,0.3,0.1
			c0,0-0.6,2.8-2,6.5c-0.3,0.9-0.7,1.9-1.2,3c-0.4,1-0.9,2.1-1.5,3.2s-1.2,2.2-1.8,3.2c-0.6,1-1.3,2.1-1.9,3.1
			c-2.5,4.1-5,7.9-7,10.5c-1.9,2.6-3.2,4.2-3.2,4.2C382.5,91.5,382.4,91.3,382.3,91.2z"/>
	</g>
</g>
<g id="XMLID_55_">
	<g>
		<path id="XMLID_493_" class="st1" d="M401,59.2c0,0,0.4-0.2,0.9-0.4c0.3-0.2,0.6-0.3,1-0.5c0.3-0.2,0.7-0.3,1.1-0.5
			c0.4-0.1,0.7-0.5,1.1-0.5c0.4-0.1,0.7,0,1.1,0.2c0.3,0.2,0.6,0.3,0.8,0.5c0.2,0.2,0.3,0.3,0.3,0.3c0,0.1,0,0.2,0,0.3
			c0,0-0.1,0.2-0.2,0.4c-0.1,0.2-0.3,0.5-0.6,0.9c-0.3,0.2-0.6,0.5-0.9,0.5c-0.4,0-0.8-0.1-1.2-0.3c-0.4,0-0.8-0.1-1.2-0.1
			c-0.4,0-0.7-0.1-1.1-0.2c-0.6-0.1-1-0.2-1-0.2C401.1,59.4,401,59.3,401,59.2z"/>
	</g>
</g>
<g id="XMLID_56_">
	<g>
		<path id="XMLID_491_" class="st1" d="M407.4,57.2c0,0-0.7,2.1-1.8,5.1c-0.6,1.5-1.2,3.1-1.9,4.9c-0.7,1.7-1.5,3.5-2.3,5.3
			c-0.4,0.9-0.7,1.7-1.1,2.6c-0.4,0.9-0.7,1.7-1.1,2.4c-0.4,0.8-0.8,1.4-1.3,2c-0.4,0.6-0.9,1.1-1.3,1.7c-1.6,2-3.1,2.9-3.1,2.9
			c-0.1,0-0.2-0.1-0.3-0.1c0,0,0.3-1.7,1.2-4.1c0.2-0.6,0.5-1.2,0.8-1.9c0.3-0.7,0.7-1.3,1.1-2.1c0.4-0.7,0.9-1.5,1.4-2.1
			c0.5-0.8,1-1.5,1.5-2.3c1-1.6,1.9-3.3,2.8-4.9s1.8-3.2,2.5-4.5c1.5-2.7,2.5-4.7,2.5-4.7C407.1,57.2,407.3,57.2,407.4,57.2z"/>
	</g>
</g>
<g id="XMLID_57_">
	<g>
		<path id="XMLID_489_" class="st1" d="M393.6,86.5c0,0,0.5,1.5,1.1,4.1c0.3,1.3,0.7,2.9,1.1,4.7s0.8,3.8,1.2,5.9
			c0.2,1,0.4,2.1,0.6,3.2c0.2,1.1,0.4,2.2,0.6,3.2c0.1,1.1,0.2,2.1,0.3,3.1s0.1,1.9,0.1,2.8c0.1,3.5-0.3,5.7-0.3,5.6
			c-0.1-0.1-0.2-0.1-0.3-0.2c0,0-1-2.7-1.8-6c-0.2-0.8-0.4-1.8-0.6-2.6c-0.2-1-0.4-1.9-0.5-2.8c-0.1-1-0.2-2-0.3-2.9
			c-0.1-1-0.2-1.9-0.2-3c-0.2-2-0.4-3.9-0.6-5.6c-0.2-1.7-0.3-3.3-0.4-4.8c-0.2-2.8-0.4-4.5-0.4-4.5
			C393.3,86.7,393.5,86.6,393.6,86.5z"/>
	</g>
</g>
<g id="XMLID_58_">
	<g>
		<path id="XMLID_487_" class="st1" d="M398.1,116.5c0,0,1.1-1.4,2.8-3.5c0.9-1,1.8-2.4,2.9-3.8c1.1-1.4,2.3-2.9,3.4-4.6
			c0.6-0.8,1.1-1.6,1.7-2.4c0.5-0.8,1.1-1.7,1.7-2.4c0.6-0.8,1.2-1.5,1.8-2.2s1.2-1.4,1.7-1.9c2.2-2.4,3.9-3.9,3.9-3.9
			c0.1,0.1,0.1,0.1,0.2,0.2c0,0-0.7,2.3-2.3,5.1c-0.4,0.7-0.8,1.5-1.3,2.2c-0.5,0.8-1,1.5-1.6,2.4c-0.6,0.8-1.2,1.5-1.9,2.2
			s-1.3,1.5-2,2.3c-1.3,1.5-2.6,3-3.9,4.2c-1.3,1.3-2.4,2.4-3.5,3.4c-2,1.9-3.4,2.9-3.4,2.9C398.2,116.7,398.2,116.6,398.1,116.5z"
			/>
	</g>
</g>
<g id="XMLID_59_">
	<g>
		<path id="XMLID_485_" class="st1" d="M418.1,91.6c0,0,0.5-1.4,1.3-3.7c0.4-1.1,0.8-2.5,1.3-4s1.1-3.1,1.6-4.8
			c0.3-0.9,0.5-1.7,0.8-2.6c0.2-0.9,0.5-1.7,0.8-2.6c0.3-0.8,0.6-1.6,1-2.4c0.3-0.8,0.7-1.4,1-2.1c1.3-2.7,2.6-4.6,2.6-4.6
			c0.1,0,0.2,0,0.3,0c0,0,0,2.1-0.6,5.2c-0.1,0.8-0.3,1.6-0.6,2.4c-0.2,0.8-0.5,1.7-0.8,2.5c-0.3,0.9-0.7,1.7-1.1,2.6
			c-0.4,0.8-0.8,1.7-1.2,2.5c-0.7,1.6-1.5,3.3-2.2,4.7c-0.7,1.4-1.4,2.6-2,3.8c-1.2,2-2,3.3-2,3.3C418.2,91.7,418.2,91.7,418.1,91.6
			z"/>
	</g>
</g>
<g id="XMLID_60_">
	<g>
		<path id="XMLID_483_" class="st1" d="M428.8,64.6c0,0-0.1,2.4-0.4,6c-0.1,1.8-0.3,3.9-0.5,6.1c-0.2,2.2-0.4,4.4-0.6,6.6
			c-0.1,1.2-0.2,2.2-0.3,3.3c-0.1,1.1-0.2,2.1-0.3,3.1c-0.2,1-0.3,1.9-0.6,2.7c-0.2,0.8-0.4,1.6-0.6,2.3c-0.9,2.7-1.9,3.9-1.9,3.9
			c-0.1-0.1-0.2-0.1-0.3-0.2c0,0-0.3-2.2-0.2-5c0-0.7,0.1-1.5,0.1-2.3c0.1-0.8,0.2-1.7,0.3-2.6c0.2-0.9,0.4-1.8,0.6-2.7
			c0.2-0.9,0.5-1.9,0.7-2.9c0.4-2,0.8-4.1,1.3-6.2c0.4-2.1,0.8-4.1,1.2-5.9c0.7-3.5,1.2-6.2,1.2-6.2
			C428.6,64.7,428.7,64.6,428.8,64.6z"/>
	</g>
</g>
<g id="XMLID_61_">
	<g>
		<path id="XMLID_481_" class="st1" d="M423.6,98.4c0,0-0.7,2.6-1.8,6.2c-1.1,3.7-2.6,8.4-4.2,12.8c-0.4,1.1-0.7,2.2-1.1,3.2
			c-0.3,1.1-0.7,2-1.1,3c-0.4,0.9-0.8,1.8-1.3,2.6c-0.4,0.8-0.9,1.5-1.3,2.2c-1.6,2.6-3.1,3.9-3.1,3.9c-0.1-0.1-0.2-0.1-0.3-0.2
			c0,0,0.2-2.1,1.2-4.9c0.2-0.7,0.5-1.5,0.8-2.4c0.3-0.8,0.7-1.7,1.1-2.6c0.4-0.9,0.9-1.8,1.4-2.8c0.5-0.9,1-2,1.5-3
			c2-4,3.9-8.6,5.4-12.1s2.5-6.1,2.5-6.1C423.4,98.3,423.5,98.3,423.6,98.4z"/>
	</g>
</g>
<g id="XMLID_62_">
	<g>
		<path id="XMLID_479_" class="st1" d="M409.5,133.5c0,0,0.3-0.4,0.8-1c0.3-0.4,0.5-0.7,0.9-1.1c0.3-0.4,0.7-0.9,1.1-1.3
			c0.4-0.4,0.6-1,1-1.4c0.4-0.4,0.9-0.6,1.3-0.8c0.5-0.1,0.9-0.3,1.2-0.3c0.3,0,0.5,0,0.5,0c0.1,0.1,0.1,0.1,0.2,0.2
			c0,0,0,0.2,0,0.6c0,0.3-0.2,0.8-0.4,1.3c-0.2,0.4-0.5,1-0.9,1.3s-1,0.5-1.5,0.8s-1,0.6-1.5,0.7c-0.5,0.3-0.9,0.4-1.3,0.6
			c-0.8,0.3-1.3,0.5-1.3,0.5C409.6,133.5,409.5,133.5,409.5,133.5z"/>
	</g>
</g>
<g id="XMLID_63_">
	<g>
		<path id="XMLID_477_" class="st1" d="M416.6,127.8c0,0,0.1,0.5,0.2,1.1c0,0.3,0.1,0.7,0.1,1.3c0,0.4,0,1,0.1,1.4
			c0,0.4,0.2,1,0.1,1.4c-0.1,0.4-0.3,0.7-0.6,1c-0.3,0.3-0.6,0.4-0.8,0.5s-0.4,0.1-0.4,0.1c-0.1-0.1-0.2-0.1-0.3-0.2
			c0,0-0.1-0.1-0.3-0.4c-0.2-0.2-0.4-0.5-0.5-0.9s-0.2-0.7-0.1-1.1c0.1-0.4,0.4-0.7,0.6-1.1c0.2-0.4,0.4-0.8,0.6-1.2
			c0.2-0.4,0.4-0.7,0.6-1.1c0.3-0.7,0.6-1.2,0.6-1.2C416.5,127.6,416.6,127.7,416.6,127.8z"/>
	</g>
</g>
<g id="XMLID_64_">
	<g>
		<path id="XMLID_474_" class="st1" d="M415.2,136.6c0,0,0.5,1.9,1.1,5.3c0.7,3.3,1.4,8.2,2.2,13.6c0.2,1.3,0.4,2.7,0.6,4.1
			c0.2,1.4,0.4,2.7,0.6,4.2c0.1,1.3,0.2,2.7,0.3,3.9c0.1,1.2,0.1,2.5,0.1,3.6c0,4.4-0.3,7-0.3,7c-0.1-0.1-0.2-0.2-0.3-0.2
			c0,0-1-3.5-1.8-7.9c-0.2-1.1-0.4-2.2-0.6-3.4c-0.2-1.2-0.4-2.4-0.5-3.6c-0.1-1.2-0.2-2.5-0.3-3.7c-0.1-1.3-0.1-2.5-0.2-3.7
			c-0.3-5-0.7-9.7-0.9-13.2c-0.2-3.4-0.3-5.8-0.3-5.8C415,136.8,415.1,136.7,415.2,136.6z"/>
	</g>
</g>
<g id="XMLID_65_">
	<g>
		<path id="XMLID_472_" class="st1" d="M419.7,176.9c0,0,0.5,0.3,1.3,0.8c0.4,0.2,0.8,0.6,1.3,1s0.9,0.7,1.4,1.2
			c0.5,0.4,1.1,0.8,1.5,1.4c0.4,0.5,0.6,1.1,0.8,1.7c0.1,0.6,0.2,1.1,0.2,1.4c0,0.4,0,0.7,0,0.7c-0.1,0.1-0.1,0.1-0.2,0.2
			c0,0-0.2,0-0.6-0.2s-0.8-0.4-1.2-0.7c-0.5-0.4-0.9-0.7-1.3-1.2s-0.6-1.1-0.9-1.7c-0.3-0.6-0.7-1.1-0.9-1.6c-0.3-0.5-0.5-1-0.8-1.4
			c-0.4-0.8-0.7-1.3-0.7-1.3C419.6,177,419.7,177,419.7,176.9z"/>
	</g>
</g>
<g id="XMLID_66_">
	<g>
		<path id="XMLID_471_" class="st1" d="M426.1,185.4c0,0,3.3,0.8,8.2,2c4.9,1.2,11.4,3,18,5c1.6,0.5,3.3,1,4.9,1.5
			c1.6,0.5,3.2,0.9,4.7,1.5c1.5,0.5,3,1.1,4.3,1.7c1.4,0.5,2.7,1.2,3.8,1.8c4.7,2.2,7.7,4.3,7.7,4.3c0,0.1-0.1,0.2-0.1,0.3
			c0,0-3.4-0.7-8.4-2.2c-1.2-0.4-2.6-0.8-4-1.3s-2.9-1-4.4-1.6c-1.5-0.5-3.1-1.2-4.6-1.8c-1.6-0.6-3.2-1.2-4.8-1.9
			c-6.4-2.4-12.8-4.7-17.6-6.3c-4.8-1.7-8-2.6-8-2.6C425.9,185.6,426,185.5,426.1,185.4z"/>
	</g>
</g>
<g id="XMLID_67_">
	<g>
		<path id="XMLID_470_" class="st1" d="M477.6,203.5c0,0-1.5-1.5-3.7-3.7c-1.1-1-2.4-2.3-3.8-3.6s-2.8-2.6-4.3-4
			c-0.7-0.6-1.5-1.3-2.2-1.9c-0.7-0.6-1.4-1.1-2.1-1.7c-0.6-0.6-1.2-1.2-1.8-1.7c-0.5-0.5-1-1.1-1.5-1.6c-1.8-2-2.7-3.5-2.7-3.5
			c0.1-0.1,0.1-0.1,0.2-0.2c0,0,1.8,0.6,4.2,2c0.6,0.3,1.2,0.8,1.8,1.3c0.6,0.4,1.3,1,1.9,1.6c0.6,0.6,1.3,1.2,1.9,2
			c0.6,0.7,1.3,1.4,1.9,2.2c1.3,1.4,2.6,2.9,3.8,4.4c1.2,1.4,2.3,2.8,3.3,4.1C476.4,201.7,477.7,203.5,477.6,203.5
			C477.7,203.5,477.6,203.5,477.6,203.5z"/>
	</g>
</g>
<g id="XMLID_68_">
	<g>
		<path id="XMLID_469_" class="st1" d="M455.6,180.4c0,0-0.1-0.5-0.2-1.3c-0.1-0.4-0.1-0.9-0.2-1.3c-0.1-0.5-0.1-0.9-0.1-1.5
			c0-0.5-0.2-1-0.2-1.4c0.1-0.5,0.3-0.9,0.5-1.3c0.3-0.4,0.5-0.8,0.8-1c0.2-0.2,0.4-0.4,0.4-0.4c0.1,0,0.2-0.1,0.3-0.1
			c0,0,0.2,0.2,0.3,0.3c0.2,0.3,0.4,0.5,0.5,1c0.1,0.4,0.3,0.9,0.2,1.5c-0.1,0.6-0.4,1.1-0.5,1.6c-0.2,0.5-0.3,1-0.5,1.5
			c-0.2,0.5-0.4,0.9-0.5,1.2c-0.3,0.7-0.5,1.2-0.5,1.2C455.8,180.4,455.7,180.4,455.6,180.4z"/>
	</g>
</g>
<g id="XMLID_69_">
	<g>
		<path id="XMLID_463_" class="st1" d="M456.9,172.6c0,0,0.3,0.2,0.8,0.6c0.2,0.3,0.5,0.4,0.8,0.8c0.3,0.3,0.5,0.7,0.8,1
			c0.3,0.4,0.7,0.6,0.9,1.1c0.2,0.4,0.2,0.9,0.1,1.3c-0.1,0.4-0.2,0.7-0.3,1.1c-0.1,0.3-0.2,0.4-0.2,0.4c-0.1,0-0.2,0-0.3,0.1
			c0,0-0.2,0-0.5-0.2s-0.6-0.3-0.9-0.5c-0.3-0.2-0.6-0.6-0.8-1c-0.2-0.4-0.1-0.8-0.2-1.2s-0.2-0.8-0.2-1.2c-0.1-0.4-0.1-0.7-0.1-1.1
			c-0.1-0.6-0.1-1-0.1-1C456.8,172.7,456.8,172.6,456.9,172.6z"/>
	</g>
</g>
<g id="XMLID_70_">
	<g>
		<path id="XMLID_462_" class="st1" d="M459.7,179.4c0,0,1.5,0.8,3.7,2c1.1,0.7,2.4,1.5,3.8,2.3c1.4,0.9,2.8,1.9,4.3,3
			c0.7,0.5,1.5,1,2.2,1.5c0.7,0.5,1.4,1,2.1,1.6c0.6,0.5,1.3,1.2,1.8,1.7c0.6,0.6,1.1,1.2,1.5,1.8c1.8,2.2,2.8,4.1,2.8,4.1
			c-0.1,0.1-0.1,0.1-0.2,0.2c0,0-1.8-0.8-4.1-2.5c-0.6-0.4-1.2-0.8-1.8-1.4c-0.6-0.5-1.3-1-1.9-1.5c-0.6-0.5-1.3-1.2-1.9-1.9
			c-0.6-0.6-1.3-1.2-1.9-1.9c-1.3-1.2-2.7-2.4-3.9-3.5c-1.2-1-2.4-2-3.3-2.9C460.9,180.4,459.7,179.4,459.7,179.4L459.7,179.4z"/>
	</g>
</g>
<g id="XMLID_72_">
	<g>
		<path id="XMLID_460_" class="st1" d="M481.7,198.4c0,0-1.4-2.1-3.5-5.2c-2.1-3-4.8-6.9-7.5-10.5c-0.7-0.9-1.4-1.8-2-2.5
			c-0.7-0.9-1.3-1.6-1.9-2.4c-0.6-0.8-1.1-1.6-1.6-2.4c-0.5-0.7-0.9-1.4-1.3-2.1c-1.6-2.6-2.3-4.5-2.3-4.5c0.1-0.1,0.1-0.1,0.2-0.2
			c0,0,1.8,1.1,4,3.2c0.6,0.5,1.1,1.1,1.7,1.8c0.6,0.6,1.2,1.4,1.8,2.2c0.6,0.8,1.1,1.7,1.7,2.7c0.6,0.9,1.1,1.9,1.7,2.9
			c2.3,3.8,4.7,7.9,6.4,11.2s2.8,5.6,2.8,5.6C481.8,198.2,481.8,198.3,481.7,198.4z"/>
	</g>
</g>
<g id="XMLID_73_">
	<g>
		<path id="XMLID_452_" class="st1" d="M460.9,167.8c0,0-0.2-2.2-0.4-5.1c-0.1-1.5-0.2-3.2-0.3-5c-0.1-1.8-0.2-3.6-0.3-5.5
			c-0.1-0.9-0.1-1.8-0.2-2.7c-0.1-0.9-0.1-1.7-0.2-2.6c0-0.8,0-1.6,0.1-2.5s0.1-1.7,0.3-2.6c0.4-3,1.1-5.8,1.1-5.8
			c0.1-0.1,0.2-0.2,0.3-0.3c0,0,0.7,1.4,1.1,4.4c0.1,0.7,0.2,1.6,0.3,2.5c0.1,0.9,0.1,1.9,0.1,2.9s-0.1,2.1-0.2,3.2
			c-0.1,1.1-0.1,2.2-0.2,3.3c-0.1,2.2-0.2,4.3-0.3,6.1c-0.1,2-0.2,3.7-0.3,5.2c-0.2,3-0.4,4.7-0.4,4.7
			C461.2,168,461.1,167.8,460.9,167.8C460.9,167.7,460.9,167.7,460.9,167.8z"/>
	</g>
</g>
<g id="XMLID_74_">
	<g>
		<path id="XMLID_451_" class="st1" d="M461.9,136.9c0,0,0.4,0.5,0.9,1.5c0.3,0.5,0.6,1,0.9,1.7c0.3,0.7,0.6,1.5,0.9,2.2
			c0.3,0.8,0.7,1.6,1,2.4c0.2,0.8,0.2,1.7,0.2,2.3c-0.1,0.6-0.1,1.3-0.3,1.7c-0.1,0.4-0.2,0.6-0.2,0.6c-0.1,0-0.2,0-0.3,0
			c0,0-0.2-0.3-0.5-0.6c-0.3-0.4-0.7-0.9-1-1.6c-0.3-0.6-0.7-1.3-0.9-2s-0.1-1.5-0.2-2.3c-0.1-0.7-0.2-1.5-0.3-2.2s-0.1-1.4-0.2-1.9
			c-0.1-1.1-0.1-1.9-0.1-1.9C461.8,136.9,461.9,136.9,461.9,136.9z"/>
	</g>
</g>
<g id="XMLID_75_">
	<g>
		<path id="XMLID_449_" class="st1" d="M465.2,149.4c0,0,0.3,0.8,0.6,2.2c0.2,0.7,0.4,1.6,0.6,2.4c0.2,1,0.4,2,0.6,3.1
			c0.2,1,0.6,2.2,0.7,3.3c0.1,1.1,0,2.1-0.1,2.9c-0.1,0.8-0.3,1.5-0.5,1.8c-0.2,0.4-0.3,0.6-0.3,0.6c-0.1-0.1-0.2-0.1-0.3-0.2
			c0,0-0.2-0.3-0.5-0.9c-0.3-0.5-0.6-1.2-0.9-2.1c-0.3-0.9-0.5-1.6-0.6-2.6c-0.1-0.9,0.1-1.8,0-2.8c0-0.9,0-1.9,0-2.8
			c0-0.9,0-1.7,0.1-2.5c0-1.4,0.1-2.4,0.1-2.4C464.9,149.4,465,149.4,465.2,149.4z"/>
	</g>
</g>
<g id="XMLID_118_">
</g>
<g id="XMLID_117_">
</g>
<g id="XMLID_113_">
	<g>
		<path id="XMLID_426_" class="st3" d="M620,220.1c0,0,1.6-1,4-2.7c1.2-0.9,2.6-1.9,4.1-3s3.1-2.3,4.7-3.6c0.8-0.6,1.6-1.3,2.4-1.9
			c0.8-0.6,1.6-1.4,2.3-1.9c0.8-0.5,1.6-1.2,2.3-1.7c0.8-0.6,1.5-1,2.2-1.4c2.7-1.7,4.8-2.6,4.8-2.6c0.1,0.1,0.1,0.1,0.2,0.2
			c0,0-1.3,2-3.6,4.3c-0.6,0.6-1.2,1.2-1.9,1.8c-0.7,0.7-1.4,1.2-2.2,1.8c-0.8,0.5-1.6,1.2-2.5,1.7s-1.7,1.1-2.6,1.6
			c-1.7,1.1-3.5,2.1-5.1,3.1c-1.6,0.9-3.2,1.7-4.5,2.4c-2.6,1.4-4.4,2.1-4.4,2.1C620.1,220.3,620.1,220.2,620,220.1z"/>
	</g>
</g>
<g id="XMLID_109_">
	<g>
		<path id="XMLID_420_" class="st3" d="M646.9,202.1c0,0,1.8-0.3,4.6-0.7c1.4-0.2,3-0.5,4.7-0.7c1.7-0.3,3.6-0.5,5.4-0.8
			c0.9-0.2,1.8-0.3,2.7-0.5c0.9-0.2,1.8-0.3,2.6-0.4c0.9-0.1,1.7-0.1,2.5-0.1s1.6,0,2.3,0c2.8,0.1,4.7,0.6,4.7,0.6
			c0,0.1,0,0.2,0,0.3c0,0-1.8,0.9-4.5,1.6c-0.7,0.2-1.4,0.3-2.2,0.5s-1.6,0.3-2.5,0.3c-0.9,0.1-1.8,0.1-2.7,0.1s-1.8,0-2.8,0.1
			c-1.9,0.1-3.7,0.2-5.4,0.1c-1.7,0.1-3.4,0.1-4.8,0c-2.8,0.1-4.6,0-4.6,0C646.9,202.3,646.9,202.2,646.9,202.1z"/>
	</g>
</g>
<g id="XMLID_108_">
	<g>
		<path id="XMLID_414_" class="st3" d="M676.3,198.9c0,0,0.8-0.7,2-1.6c0.6-0.5,1.3-1.1,2.1-1.7c0.8-0.7,1.6-1.3,2.5-2.1
			c0.8-0.7,1.6-1.6,2.4-2.3c0.8-0.6,1.7-1.1,2.5-1.6c0.8-0.4,1.5-0.6,2-0.8c0.5-0.1,0.8-0.2,0.8-0.2c0.1,0.1,0.1,0.1,0.2,0.2
			c0,0-0.1,0.3-0.4,0.9c-0.3,0.6-0.7,1.2-1.2,1.9c-0.6,0.7-1.2,1.4-2.1,2.1c-0.9,0.6-1.9,1-2.8,1.6c-1,0.6-1.9,1.1-2.8,1.5
			c-0.9,0.5-1.8,0.9-2.5,1.2c-1.5,0.7-2.5,1-2.5,1C676.4,199,676.4,199,676.3,198.9z"/>
	</g>
</g>
<g id="XMLID_107_">
	<g>
		<path id="XMLID_408_" class="st3" d="M690.6,188.6c0,0,0-0.7,0.1-1.9c0-0.5,0.1-1.2,0.1-1.9c0.1-0.7,0.2-1.5,0.2-2.2
			c0.1-0.7,0-1.6,0.2-2.2c0.2-0.7,0.5-1.4,0.8-2c0.3-0.6,0.7-1.2,1-1.6c0.3-0.4,0.5-0.7,0.5-0.7c0.1,0,0.2,0,0.3,0
			c0,0,0.1,0.2,0.2,0.6c0.1,0.4,0.2,0.9,0.3,1.7c0,0.7,0,1.5-0.1,2.3c-0.2,0.8-0.6,1.7-0.9,2.4c-0.3,0.8-0.6,1.5-0.9,2.2
			s-0.6,1.3-0.8,1.7c-0.5,0.9-0.8,1.5-0.8,1.5C690.7,188.6,690.7,188.6,690.6,188.6z"/>
	</g>
</g>
<g id="XMLID_106_">
	<g>
		<path id="XMLID_402_" class="st3" d="M693.9,176.3c0,0-0.3,0.7-0.9,1.7c-0.3,0.6-0.6,1.1-0.9,1.6c-0.3,0.6-0.7,1.2-1.1,1.8
			s-0.7,1.2-1.1,1.7c-0.4,0.5-1,0.7-1.4,1c-0.5,0.1-1,0.3-1.3,0.3c-0.4,0-0.6,0-0.6,0c-0.1-0.1-0.1-0.1-0.2-0.2c0,0,0-0.2,0-0.5
			c0-0.4,0.1-0.7,0.3-1.2c0.2-0.4,0.5-1,0.9-1.4c0.4-0.5,1.1-0.8,1.6-1.2s1.1-0.9,1.6-1.4c0.5-0.4,1-0.9,1.4-1.2
			c0.8-0.7,1.4-1.2,1.4-1.2C693.7,176.2,693.8,176.2,693.9,176.3z"/>
	</g>
</g>
<g id="XMLID_105_">
	<g>
		<path id="XMLID_396_" class="st3" d="M686.5,184.6c0,0-0.3,0.5-0.8,1.1c-0.2,0.3-0.5,0.8-0.9,1.1c-0.3,0.4-0.7,0.7-1,1.1
			c-0.4,0.4-0.6,0.8-1,1.1c-0.4,0.3-0.8,0.3-1.3,0.3c-0.4,0-0.8-0.1-1.1-0.1c-0.3-0.1-0.5-0.1-0.5-0.1c-0.1-0.1-0.1-0.1-0.2-0.2
			c0,0,0-0.2,0.1-0.4c0.1-0.3,0.2-0.6,0.4-1s0.5-0.7,0.8-0.9c0.4-0.2,1-0.3,1.4-0.5c0.5-0.2,0.9-0.4,1.4-0.7
			c0.4-0.2,0.9-0.4,1.2-0.5c0.7-0.4,1.2-0.5,1.2-0.5C686.3,184.4,686.4,184.5,686.5,184.6z"/>
	</g>
</g>
<g id="XMLID_104_">
	<g>
		<path id="XMLID_390_" class="st3" d="M681,190.9c0,0-1,0.2-2.1,0.4c-0.6,0.1-1.3,0.2-2,0.3c-0.7,0.1-1.5,0.2-2.3,0.3
			c-0.8,0.1-1.5,0.3-2.2,0.3c-0.7,0-1.4-0.2-1.9-0.4c-0.6-0.2-0.8-0.4-1.1-0.7c-0.3-0.2-0.3-0.4-0.3-0.4c0-0.1,0-0.2,0-0.3
			c0,0-0.1-0.2,0.3-0.4c0.3-0.2,0.7-0.5,1.2-0.7c0.6-0.2,1.2-0.4,1.9-0.4c0.7,0,1.4,0.3,2.2,0.3c0.8,0.1,1.5,0.2,2.2,0.3
			s1.6,0.2,2.1,0.3c1.1,0.2,2.1,0.4,2.1,0.4c0,0.2,0,0.4,0,0.5C681.1,190.9,681,190.9,681,190.9z"/>
	</g>
</g>
<g id="XMLID_103_">
	<g>
		<path id="XMLID_384_" class="st3" d="M668.4,187.5c0,0,2.4-2.5,6-6.6c3.6-4.2,8.4-9.8,13.3-16.1c1.2-1.6,2.4-3.2,3.6-4.8
			c1.2-1.7,2.3-3.2,3.5-4.7s2.3-3,3.5-4.5c1.1-1.4,2.2-2.8,3.2-4.1c4-5,7.1-8.3,7.1-8.3c0.1,0.1,0.1,0.1,0.2,0.2c0,0-2,4.1-5.4,9.6
			c-0.9,1.4-1.8,2.8-2.8,4.4c-1,1.5-2.1,3.1-3.3,4.6c-1.2,1.5-2.4,3.1-3.7,4.6c-1.3,1.6-2.6,3.1-3.9,4.6c-5.2,6-10.3,11.5-14.3,15.4
			c-3.9,3.9-6.6,6.1-6.6,6.1C668.7,187.6,668.5,187.5,668.4,187.5z"/>
	</g>
</g>
<g id="XMLID_102_">
	<g>
		<path id="XMLID_378_" class="st3" d="M708.5,140.1c0,0,0-0.8,0.1-2c0-0.6,0-1.4,0.1-2.1c0-0.7,0.1-1.5,0.2-2.4
			c0.1-0.8,0-1.7,0.2-2.4c0.2-0.8,0.5-1.5,0.8-2.2s0.7-1.3,1-1.7s0.5-0.7,0.5-0.7c0.1,0,0.2,0,0.3,0c0,0,0.1,0.3,0.3,0.6
			c0.1,0.4,0.3,1,0.3,1.8c0.1,0.7,0.1,1.6-0.1,2.5c-0.2,0.9-0.6,1.8-0.9,2.7c-0.3,0.8-0.5,1.7-0.8,2.5s-0.5,1.4-0.8,2
			c-0.5,1.1-0.8,1.7-0.8,1.7C708.8,140.5,708.6,140.3,708.5,140.1z"/>
	</g>
</g>
<g id="XMLID_101_">
	<g>
		<path id="XMLID_372_" class="st3" d="M711.3,127.3c0,0-0.3-0.9-0.6-2.1c-0.2-0.6-0.4-1.3-0.6-2s-0.4-1.4-0.6-2.1
			c-0.2-0.7-0.5-1.3-0.6-1.9c-0.1-0.6,0-1.3,0.1-1.7c0.1-0.6,0.3-1.1,0.5-1.4c0.2-0.4,0.3-0.7,0.3-0.7c0.1,0,0.2-0.1,0.3-0.1
			c0,0,0.2,0.1,0.4,0.3c0.3,0.2,0.5,0.5,0.8,1.1c0.3,0.4,0.5,1.2,0.6,1.9c0.1,0.8-0.1,1.7-0.1,2.4c0,0.9,0,1.6-0.1,2.4
			c0,0.8-0.1,1.5-0.1,2C711.5,126.6,711.4,127.4,711.3,127.3C711.4,127.4,711.3,127.4,711.3,127.3z"/>
	</g>
</g>
<g id="XMLID_100_">
	<g>
		<path id="XMLID_366_" class="st3" d="M710.2,114.7c0,0,0.1,0.8,0.2,2c0,0.6,0.1,1.3,0.1,2c0,0.8,0,1.6,0.1,2.4
			c0,0.9,0.2,1.7,0.1,2.4c-0.1,0.8-0.3,1.4-0.6,1.9c-0.3,0.4-0.6,0.9-0.8,1.1c-0.2,0.2-0.4,0.3-0.4,0.3c-0.1,0-0.2-0.1-0.3-0.1
			c0,0-0.2-0.3-0.3-0.7c-0.2-0.4-0.4-0.9-0.5-1.4c-0.1-0.6-0.2-1.1-0.1-1.7c0.1-0.6,0.4-1.2,0.6-1.9c0.2-0.7,0.4-1.4,0.6-2.1
			c0.2-0.7,0.4-1.4,0.6-2C709.8,115.7,710.1,114.8,710.2,114.7C710.1,114.8,710.2,114.8,710.2,114.7z"/>
	</g>
</g>
<g id="XMLID_99_">
	<g>
		<path id="XMLID_360_" class="st3" d="M708.7,126.3c0,0-0.6,1.3-1.7,3.1c-0.5,0.9-1.1,1.9-1.7,3s-1.4,2.1-2.1,3.2
			c-0.7,1-1.3,2.2-2,3c-0.7,0.8-1.6,1.5-2.3,2c-0.8,0.5-1.4,0.9-1.9,1.1c-0.5,0.2-0.8,0.3-0.8,0.3c-0.1-0.1-0.1-0.1-0.2-0.2
			c0,0,0.1-0.3,0.2-0.8c0.2-0.5,0.5-1.1,0.9-1.9c0.4-0.8,1-1.6,1.7-2.4c0.8-0.8,1.7-1.6,2.6-2.5s1.7-1.8,2.6-2.8
			c0.8-0.9,1.6-1.8,2.3-2.6C707.6,127.3,708.6,126.2,708.7,126.3C708.6,126.3,708.7,126.3,708.7,126.3z"/>
	</g>
</g>
<g id="XMLID_98_">
	<g>
		<path id="XMLID_354_" class="st3" d="M695.9,140.7c0,0-0.1-3-0.1-7.3c-0.1-4.4-0.1-10-0.1-15.7c0-1.5,0-2.8-0.1-4.2
			c0-1.4-0.1-2.7,0-4.1c0-1.4,0.1-2.7,0.2-4s0.2-2.6,0.4-3.8c0.5-4.8,1.3-9.3,1.3-9.3c0.1-0.2,0.2-0.3,0.3-0.5c0,0,0.6,2.3,0.8,7.3
			c0.1,1.2,0.1,2.5,0.1,4.1c0,1.4,0,3,0,4.6c-0.1,1.7-0.2,3.4-0.3,5c-0.1,1.7-0.2,3.4-0.3,5c-0.4,6.6-0.8,12.7-1.2,16.7
			c-0.4,4.1-0.6,6.6-0.6,6.6C696.2,141.1,696,140.9,695.9,140.7z"/>
	</g>
</g>
<g id="XMLID_97_">
	<g>
		<path id="XMLID_348_" class="st3" d="M697.4,94.6c0,0-1.3-2.5-3.2-6c-2-3.4-4.5-7.9-7-11.9c-0.6-1-1.3-2-1.9-2.9
			c-0.6-1-1.3-1.9-1.8-2.8s-1-1.7-1.5-2.6c-0.4-0.8-0.8-1.6-1.2-2.4c-1.4-2.9-2-4.9-2-4.9c0.1,0,0.2-0.1,0.3-0.1
			c0,0,1.8,1.3,3.8,3.8c0.5,0.6,1.1,1.3,1.6,2.1c0.6,0.8,1.1,1.6,1.7,2.6c0.5,0.9,1,1.9,1.5,3s1,2.1,1.6,3.2c2.1,4.3,4.3,9,5.8,12.6
			c1.6,3.6,2.6,6.3,2.6,6.2C697.6,94.4,697.5,94.5,697.4,94.6z"/>
	</g>
</g>
<g id="XMLID_96_">
	<g>
		<path id="XMLID_346_" class="st3" d="M678.9,59.7c0,0-0.4,0.1-1,0.2c-0.3,0.1-0.7,0.1-1.1,0.2s-0.8,0.1-1.2,0.1s-0.8,0.2-1.2,0.1
			c-0.4-0.1-0.7-0.3-1-0.5c-0.3-0.3-0.5-0.5-0.6-0.7c-0.1-0.2-0.2-0.4-0.2-0.4c0-0.1,0-0.2,0-0.3c0,0,0.1-0.2,0.3-0.3
			c0.2-0.2,0.5-0.4,0.8-0.5c0.3-0.1,0.7-0.3,1.1-0.2c0.4,0.1,0.7,0.4,1.1,0.5c0.4,0.2,0.8,0.3,1.1,0.5c0.4,0.2,0.7,0.4,1,0.5
			c0.6,0.3,0.9,0.6,0.9,0.6C678.9,59.5,678.9,59.6,678.9,59.7z"/>
	</g>
</g>
<g id="XMLID_95_">
	<g>
		<path id="XMLID_344_" class="st3" d="M672.7,59.7c0,0,1,1.2,2.5,3.3c0.7,1,1.6,2.3,2.5,3.7c0.9,1.4,1.9,2.9,2.8,4.7
			c0.5,0.8,1,1.6,1.5,2.5c0.5,0.8,1,1.7,1.4,2.5c0.4,0.9,0.8,1.8,1.1,2.5c0.3,0.8,0.6,1.7,0.8,2.3c1,3.1,1.2,5.3,1.2,5.3
			c-0.1,0-0.2,0-0.3,0.1c0,0-1.5-1.8-3.1-4.5c-0.4-0.7-0.8-1.4-1.3-2.1c-0.4-0.8-0.9-1.5-1.3-2.4c-0.4-0.8-0.8-1.7-1.1-2.6
			c-0.4-0.9-0.7-1.7-1.1-2.6c-0.8-1.7-1.6-3.3-2.3-4.9c-0.7-1.5-1.4-2.8-1.9-3.9c-1.1-2.3-1.8-3.7-1.8-3.7
			C672.4,59.7,672.6,59.7,672.7,59.7z"/>
	</g>
</g>
<g id="XMLID_94_">
	<g>
		<path id="XMLID_342_" class="st3" d="M686.6,83.6c0,0-0.1,2.4-0.4,5.9c-0.1,1.7-0.3,3.7-0.4,5.8c-0.2,2.1-0.4,4.3-0.6,6.4
			c-0.1,1-0.2,2.2-0.2,3.2c-0.1,1-0.1,2.1-0.3,3.1c-0.1,1-0.3,1.9-0.5,2.6c-0.2,0.8-0.4,1.6-0.6,2.2c-0.8,2.6-1.8,3.8-1.8,3.8
			c-0.1-0.1-0.2-0.1-0.3-0.2c0,0-0.4-2.1-0.3-5c0-0.7,0-1.4,0.1-2.2c0-0.8,0.2-1.6,0.3-2.5c0.2-0.9,0.4-1.7,0.6-2.6
			c0.2-0.9,0.4-1.9,0.6-2.8c0.4-1.9,0.8-4,1.2-5.9c0.4-2,0.8-4,1.1-5.7c0.7-3.4,1.1-5.9,1.1-5.9C686.3,83.7,686.5,83.7,686.6,83.6z"
			/>
	</g>
</g>
<g id="XMLID_93_">
	<g>
		<path id="XMLID_340_" class="st3" d="M681.6,119.1c0,0-1.4-1.7-3.4-4.3c-1-1.3-2.2-2.7-3.5-4.2s-2.6-3.1-3.9-4.6
			c-0.7-0.7-1.4-1.5-2-2.1c-0.7-0.7-1.3-1.3-1.9-2c-0.6-0.6-1.1-1.3-1.6-2c-0.5-0.6-0.9-1.2-1.3-1.8c-1.6-2.3-2.3-3.9-2.3-3.9
			c0.1-0.1,0.1-0.1,0.2-0.2c0,0,1.8,0.7,3.9,2.5c0.5,0.4,1.1,0.9,1.7,1.5c0.6,0.5,1.2,1.2,1.8,1.8s1.1,1.4,1.7,2.2s1.1,1.6,1.7,2.4
			c1.2,1.6,2.4,3.3,3.4,5c1.1,1.6,2.1,3.3,2.9,4.6c1.7,2.8,2.8,4.7,2.8,4.7C681.7,118.9,681.7,119,681.6,119.1z"/>
	</g>
</g>
<g id="XMLID_92_">
	<g>
		<path id="XMLID_337_" class="st3" d="M661.5,94.3c0,0-0.8-2-2-4.7c-0.6-1.4-1.3-2.9-2-4.6c-0.7-1.6-1.5-3.4-2.2-4.9
			c-0.4-0.8-0.8-1.6-1.2-2.3c-0.4-0.8-0.8-1.5-1.1-2.2c-0.3-0.7-0.6-1.3-0.8-2.1c-0.2-0.6-0.4-1.2-0.6-1.8c-0.6-2.3-0.7-4-0.7-4
			c0.1-0.1,0.2-0.1,0.3-0.2c0,0,1.3,0.9,2.6,3c0.3,0.5,0.7,1,1,1.7c0.4,0.6,0.7,1.3,1,2c0.3,0.8,0.6,1.5,0.8,2.4
			c0.2,0.9,0.5,1.7,0.8,2.6c0.6,1.7,1.1,3.5,1.6,5.2s1,3.4,1.4,4.9c0.8,2.9,1.3,5,1.3,4.9C661.6,94.2,661.6,94.2,661.5,94.3z"/>
	</g>
</g>
<g id="XMLID_91_">
	<g>
		<path id="XMLID_335_" class="st3" d="M651.3,67.7c0,0,0.5,1.6,1.2,4.2c0.4,1.4,0.8,3,1.2,4.9c0.4,1.9,0.8,4,1.3,6.2
			c0.2,1,0.5,2.2,0.7,3.3c0.2,1.1,0.5,2.2,0.6,3.3c0.1,1.1,0.3,2.3,0.3,3.2c0.1,1,0.1,2,0.1,2.9c0.1,3.6-0.2,5.8-0.2,5.8
			c-0.1-0.1-0.2-0.1-0.3-0.2c0,0-1-2.8-1.9-6.3c-0.2-0.9-0.4-1.8-0.6-2.7c-0.2-1-0.4-1.9-0.6-2.9c-0.1-1-0.2-2-0.3-3.1
			c-0.1-1-0.2-2-0.3-3.1c-0.2-2-0.5-4-0.6-5.8c-0.2-1.8-0.4-3.5-0.5-4.9c-0.3-2.8-0.4-4.6-0.4-4.6C651.1,67.9,651.2,67.8,651.3,67.7
			z"/>
	</g>
</g>
<g id="XMLID_90_">
	<g>
		<path id="XMLID_330_" class="st3" d="M656.5,101.5c0,0,1,1.6,2.5,4.2c1.5,2.7,3.4,6.5,5.4,10.7c0.5,1,1,2.1,1.5,3.2
			c0.5,1.1,1,2.1,1.4,3.2c0.4,1.1,0.8,2.2,1.1,3.2c0.3,1,0.6,2,0.8,3c1,3.7,1.2,6.5,1.2,6.5c-0.1,0-0.2,0-0.3,0c0,0-1.5-2.5-3.1-5.9
			c-0.4-0.9-0.9-1.8-1.3-2.8c-0.5-1-0.9-2-1.3-3c-0.4-1.1-0.8-2.1-1.1-3.2c-0.4-1.1-0.7-2.2-1.1-3.2c-1.5-4.3-3.1-8.2-4.2-11
			c-1.1-2.9-1.8-4.6-1.8-4.6C656.3,101.7,656.4,101.6,656.5,101.5z"/>
	</g>
</g>
<g id="XMLID_89_">
	<g>
		<path id="XMLID_327_" class="st3" d="M670.2,134.3c0,0-0.6-0.3-1.3-0.7c-0.4-0.2-0.9-0.5-1.3-0.8c-0.5-0.3-1-0.6-1.5-0.9
			c-0.5-0.3-1.1-0.5-1.5-0.8s-0.7-0.7-0.9-1.1c-0.2-0.4-0.3-0.7-0.4-1.1c-0.1-0.3,0-0.5,0-0.5c0.1-0.1,0.1-0.1,0.2-0.2
			c0,0,0.2,0,0.6-0.1c0.3,0,0.8-0.1,1.2,0.1c0.5,0.1,0.9,0.2,1.3,0.6c0.4,0.4,0.7,0.9,1,1.4c0.4,0.4,0.7,0.9,1.1,1.3
			c0.3,0.4,0.6,1,0.9,1.3c0.5,0.8,0.8,1.4,0.8,1.4C670.3,134.3,670.3,134.3,670.2,134.3z"/>
	</g>
</g>
<g id="XMLID_88_">
	<g>
		<path id="XMLID_323_" class="st3" d="M663.5,128.1c0,0,0.3,0.3,0.6,0.8c0.2,0.3,0.4,0.5,0.6,0.9s0.4,0.8,0.6,1.2
			c0.2,0.4,0.5,0.9,0.6,1.3c0.1,0.4,0,0.9-0.1,1.3c-0.1,0.4-0.3,0.7-0.5,0.9c-0.2,0.2-0.3,0.4-0.3,0.4c-0.1,0-0.2,0-0.3,0
			c0,0-0.2-0.1-0.4-0.3c-0.3-0.2-0.5-0.5-0.8-0.7c-0.3-0.3-0.5-0.6-0.6-1c-0.1-0.4,0.1-0.8,0.1-1.2s0-0.8,0.1-1.2
			c0-0.4,0.1-0.7,0.1-1.1c0.1-0.7,0.2-1.1,0.2-1.1C663.4,128.3,663.5,128.2,663.5,128.1z"/>
	</g>
</g>
<g id="XMLID_87_">
	<g>
		<path id="XMLID_315_" class="st3" d="M664.9,132.7c0,0-0.1,3-0.3,7.4c-0.2,4.4-0.6,10.2-0.9,15.8c-0.1,1.4-0.1,2.7-0.2,4.1
			c-0.1,1.3-0.1,2.7-0.3,3.9c-0.1,1.2-0.3,2.4-0.5,3.4s-0.4,2-0.6,2.8c-0.8,3.4-1.8,4.9-1.8,4.9c-0.1-0.1-0.2-0.2-0.3-0.2
			c0,0-0.4-2.8-0.3-6.2c0-0.9,0-1.9,0.1-2.8c0-1,0.1-2,0.3-3.1c0.1-1.1,0.3-2.2,0.6-3.4c0.2-1.2,0.4-2.4,0.6-3.7
			c0.8-5,1.6-10.5,2.2-15c0.6-4.4,1.1-7.7,1.1-7.7C664.7,132.9,664.8,132.8,664.9,132.7z"/>
	</g>
</g>
<g id="XMLID_86_">
	<g>
		<path id="XMLID_307_" class="st3" d="M660.4,176.3c0,0-0.3,0.7-0.7,1.7c-0.2,0.4-0.5,1.1-0.8,1.6c-0.3,0.6-0.6,1.2-0.9,1.8
			s-0.5,1.2-0.9,1.7c-0.4,0.5-0.9,0.7-1.3,1c-0.5,0.1-0.9,0.3-1.3,0.3c-0.3,0.1-0.6,0-0.6,0c-0.1-0.1-0.1-0.1-0.2-0.2
			c0,0,0-0.2,0-0.5c0-0.4,0.1-0.7,0.2-1.2c0.2-0.4,0.4-0.9,0.8-1.3c0.4-0.5,1-0.7,1.5-1.2c0.5-0.4,1-0.9,1.4-1.4
			c0.5-0.4,0.9-0.9,1.3-1.2c0.8-0.7,1.3-1.2,1.3-1.2C660.3,176.2,660.3,176.2,660.4,176.3z"/>
	</g>
</g>
<g id="XMLID_85_">
	<g>
		<path id="XMLID_299_" class="st3" d="M653.8,183.9c0,0-3.2,1.4-8,3.6c-4.8,2.1-11.2,4.7-17.6,7.1c-1.6,0.6-3.2,1.2-4.8,1.7
			c-1.6,0.6-3.1,1.1-4.6,1.6s-3,0.9-4.4,1.2c-1.4,0.3-2.8,0.7-4,0.9c-5,1.1-8.4,1.4-8.4,1.4c0-0.1-0.1-0.2-0.1-0.3
			c0,0,3-1.4,7.8-3.3c1.2-0.4,2.5-0.9,3.8-1.4c1.4-0.5,2.8-1,4.3-1.5s3.1-1,4.7-1.3c1.6-0.5,3.3-1,4.9-1.5c6.6-2,13.1-4.2,18-5.8
			s8.2-2.8,8.2-2.8C653.7,183.7,653.7,183.8,653.8,183.9z"/>
	</g>
</g>
<g id="XMLID_84_">
	<g>
		<path id="XMLID_275_" class="st3" d="M601.8,201.1c0,0,1.3-1.2,3.2-3.1c1-1,2.1-2.1,3.3-3.3c1.2-1.3,2.5-2.7,3.8-4
			c0.6-0.7,1.3-1.5,1.9-2.2c0.6-0.7,1.2-1.5,1.9-2.2c0.6-0.6,1.3-1.3,1.9-2c0.6-0.6,1.3-1.1,1.8-1.7c2.3-2.1,4.2-3.2,4.2-3.2
			c0.1,0.1,0.1,0.1,0.2,0.2c0,0-0.9,2.1-2.7,4.7c-0.4,0.7-0.9,1.3-1.5,2c-0.5,0.7-1.1,1.4-1.8,2.1c-0.7,0.6-1.4,1.3-2.1,1.9
			c-0.7,0.6-1.5,1.2-2.2,1.9c-1.5,1.3-2.9,2.5-4.3,3.6s-2.7,2.1-3.8,2.8C603.4,200.2,601.9,201.1,601.8,201.1
			C601.9,201.1,601.8,201.1,601.8,201.1z"/>
	</g>
</g>
<g id="XMLID_83_">
	<g>
		<path id="XMLID_271_" class="st3" d="M623.8,180.8c0,0-0.2-0.6-0.5-1.4c-0.2-0.4-0.3-0.8-0.5-1.4c-0.2-0.5-0.3-1-0.5-1.5
			c-0.1-0.5-0.5-0.9-0.5-1.4c-0.1-0.4,0.1-0.9,0.2-1.3c0.2-0.4,0.4-0.8,0.5-1c0.2-0.3,0.3-0.5,0.3-0.5c0.1,0,0.2-0.1,0.3-0.1
			c0,0,0.2,0,0.4,0.2c0.3,0.1,0.5,0.4,0.8,0.8c0.2,0.4,0.5,0.8,0.5,1.3c0,0.6-0.2,1.1-0.2,1.8c0,0.5-0.1,1.2-0.1,1.7
			s-0.1,1.1-0.2,1.5c-0.1,0.8-0.2,1.3-0.2,1.3C624,180.9,623.9,180.9,623.8,180.8z"/>
	</g>
</g>
<g id="XMLID_82_">
	<g>
		<path id="XMLID_267_" class="st3" d="M623.1,172.1c0,0,0,0.6-0.1,1.2c0,0.3-0.1,0.8-0.1,1.3c-0.1,0.4-0.2,1-0.2,1.4
			c-0.1,0.4-0.1,1-0.2,1.4c-0.2,0.4-0.5,0.6-0.8,0.8c-0.3,0.2-0.7,0.3-0.9,0.3c-0.3,0-0.5,0-0.5,0c-0.1,0-0.2-0.1-0.3-0.1
			c0,0-0.1-0.2-0.2-0.4c-0.1-0.3-0.2-0.6-0.3-0.9c0-0.4,0-0.7,0.1-1.1c0.2-0.4,0.6-0.5,0.9-0.9s0.5-0.7,0.8-1s0.5-0.7,0.8-1
			c0.5-0.6,0.8-1,0.8-1C623,172,623,172.1,623.1,172.1z"/>
	</g>
</g>
<g id="XMLID_81_">
	<g>
		<path id="XMLID_255_" class="st3" d="M620.1,177.8c0,0-1.3,1.5-3.2,3.6c-1,1-2.1,2.2-3.4,3.5c-1.2,1.3-2.6,2.5-3.9,3.7
			c-0.7,0.6-1.3,1.2-2,1.9c-0.6,0.6-1.3,1.1-1.9,1.7c-0.7,0.5-1.3,0.9-2,1.3c-0.6,0.4-1.3,0.7-1.8,1c-2.3,1.2-4.1,1.5-4.1,1.5
			c-0.1-0.1-0.1-0.1-0.2-0.2c0,0,1-1.4,2.8-3.1c0.5-0.4,1-0.9,1.5-1.4s1.2-1,1.8-1.5c0.7-0.5,1.4-0.9,2.1-1.4s1.5-1,2.2-1.5
			c1.5-1.1,2.9-2.1,4.3-3.2c1.4-1.1,2.7-2.1,3.8-2.9c2.2-1.7,3.7-3,3.7-3C619.9,177.8,620,177.8,620.1,177.8z"/>
	</g>
</g>
<g id="XMLID_80_">
	<g>
		<path id="XMLID_250_" class="st3" d="M597.6,195.2c0,0,1.1-1.5,2.8-4c1.7-2.5,4.1-6,6.4-9.8c0.6-1,1.1-1.9,1.7-2.9s1.1-2,1.7-2.9
			c0.6-1,1.2-1.8,1.8-2.6c0.6-0.9,1.2-1.7,1.7-2.4c2.2-3,4-4.8,4-4.8c0.1,0.1,0.1,0.1,0.2,0.2c0,0-0.7,2.5-2.3,5.9
			c-0.4,0.8-0.8,1.7-1.3,2.7c-0.5,0.9-1,1.9-1.6,2.8c-0.6,1-1.3,1.8-2,2.8c-0.7,0.9-1.4,1.9-2,2.7c-2.7,3.6-5.4,6.8-7.5,9.1
			c-2.1,2.2-3.5,3.6-3.5,3.6C597.7,195.4,597.6,195.3,597.6,195.2z"/>
	</g>
</g>
<g id="XMLID_79_">
	<g>
		<path id="XMLID_244_" class="st3" d="M617,167.8c0,0-0.2-2.2-0.4-5.1c-0.1-1.5-0.2-3.2-0.3-5c-0.1-1.8-0.2-3.6-0.3-5.5
			c-0.1-0.9-0.1-1.8-0.2-2.7c-0.1-0.9-0.1-1.7-0.2-2.6c0-0.8,0-1.6,0.1-2.5s0.1-1.7,0.3-2.6c0.4-3,1.1-5.8,1.1-5.8
			c0.1-0.1,0.2-0.2,0.3-0.3c0,0,0.7,1.4,1.1,4.4c0.1,0.7,0.2,1.6,0.3,2.5c0.1,0.9,0.1,1.9,0.1,2.9s-0.1,2.1-0.2,3.2
			c-0.1,1.1-0.1,2.2-0.2,3.3c-0.1,2.2-0.2,4.3-0.3,6.1c-0.1,2-0.2,3.7-0.3,5.2c-0.2,3-0.4,4.7-0.4,4.7
			C617.3,168,617.2,167.8,617,167.8C617,167.7,617,167.7,617,167.8z"/>
	</g>
</g>
<g id="XMLID_78_">
	<g>
		<path id="XMLID_238_" class="st3" d="M618.1,135.7c0,0,0,0.9-0.1,2.3c0,0.7-0.1,1.4-0.2,2.3c-0.1,0.9-0.2,1.7-0.3,2.6
			c-0.1,0.9-0.1,1.8-0.3,2.5s-0.5,1.4-0.9,1.8c-0.4,0.4-0.7,0.8-1,1c-0.3,0.2-0.5,0.2-0.5,0.2c-0.1-0.1-0.2-0.1-0.3-0.2
			c0,0-0.1-0.2-0.2-0.6c-0.1-0.4-0.2-1-0.3-1.5c0-0.5,0-1.3,0.2-1.9c0.2-0.6,0.7-1.3,1-2c0.3-0.8,0.6-1.5,0.9-2.2s0.6-1.5,0.9-2.1
			c0.5-1.3,0.9-2.3,0.9-2.3C618,135.7,618,135.7,618.1,135.7z"/>
	</g>
</g>
<g id="XMLID_77_">
	<g>
		<path id="XMLID_229_" class="st3" d="M614.8,148.2c0,0,0.1,1,0.1,2.8c0,0.9,0.1,1.8,0.1,2.9c0,1.1,0,2.2,0,3.4
			c0,1.1,0.1,2.3,0,3.4c-0.1,1.1-0.4,2-0.6,2.6c-0.3,0.7-0.6,1.2-0.9,1.5s-0.5,0.5-0.5,0.5c-0.1-0.1-0.2-0.1-0.3-0.2
			c0,0-0.1-0.3-0.3-0.8c-0.2-0.6-0.3-1.2-0.5-2c-0.1-0.8-0.2-1.6-0.1-2.5c0.1-0.9,0.5-1.8,0.7-2.7c0.2-0.9,0.4-1.9,0.6-2.9
			s0.4-1.9,0.6-2.8c0.4-1.7,0.6-2.8,0.6-2.8C614.5,148.5,614.6,148.4,614.8,148.2z"/>
	</g>
</g>
<g id="XMLID_119_">
	<g>
		<path id="XMLID_293_" class="st1" d="M539.9,305.4c0,0-0.7-0.2-1.6-0.5c-0.5-0.1-1-0.3-1.6-0.5c-0.6-0.2-1.2-0.4-1.8-0.6
			c-0.6-0.2-1.3-0.3-1.9-0.5c-0.5-0.3-1-0.7-1.3-0.9c-0.3-0.4-0.6-0.7-0.8-1c-0.2-0.3-0.2-0.4-0.2-0.4c0-0.1,0.1-0.2,0.1-0.3
			c0,0,0.2-0.1,0.6-0.2s0.8-0.1,1.3-0.2c0.5,0,1.1,0,1.6,0.3s1,0.7,1.5,1.1s1.1,0.7,1.6,1.1s0.9,0.7,1.3,1.1
			c0.8,0.7,1.3,1.2,1.3,1.2C540,305.3,539.9,305.4,539.9,305.4z"/>
	</g>
</g>
<g id="XMLID_120_">
	<g>
		<path id="XMLID_291_" class="st1" d="M530.6,300.9c0,0-0.4-0.4-1-0.9c-0.3-0.2-0.6-0.5-1-0.8c-0.4-0.3-0.7-0.6-1.1-0.9
			s-0.8-0.5-1.1-0.9c-0.3-0.3-0.4-0.7-0.4-1.1s0-0.7,0-1s0.1-0.5,0.1-0.5c0.1-0.1,0.1-0.1,0.2-0.2c0,0,0.2,0,0.5-0.1
			c0.3,0,0.7,0,1,0.2c0.4,0.1,0.7,0.3,1,0.6c0.2,0.4,0.3,0.9,0.5,1.3c0.2,0.4,0.4,0.9,0.6,1.4c0.2,0.4,0.3,0.9,0.4,1.3
			c0.3,0.8,0.4,1.4,0.4,1.3C530.7,300.8,530.6,300.8,530.6,300.9z"/>
	</g>
</g>
<g id="XMLID_122_">
	<g>
		<path id="XMLID_223_" class="st3" d="M540.3,304.7c0,0,0.5-0.3,1.3-1c0.4-0.3,0.8-0.6,1.3-0.9c0.5-0.4,1-0.7,1.6-1.1
			c0.5-0.4,1-0.9,1.6-1.3c0.5-0.3,1.1-0.5,1.6-0.5s1-0.1,1.3,0c0.3,0.1,0.6,0.2,0.6,0.2c0,0.1,0.1,0.2,0.1,0.3c0,0-0.1,0.2-0.2,0.6
			c-0.2,0.3-0.4,0.8-0.8,1.2c-0.4,0.4-0.8,0.9-1.3,1.1c-0.6,0.2-1.2,0.3-1.9,0.5c-0.6,0.2-1.2,0.4-1.8,0.4c-0.6,0.2-1.2,0.2-1.6,0.3
			c-1,0.1-1.6,0.3-1.6,0.3C540.4,304.8,540.4,304.7,540.3,304.7z"/>
	</g>
</g>
<g id="XMLID_121_">
	<g>
		<path id="XMLID_219_" class="st3" d="M549.6,300.1c0,0,0.1-0.4,0.4-1.1c0.1-0.3,0.3-0.6,0.5-1.1c0.2-0.4,0.4-0.8,0.6-1.2
			c0.2-0.4,0.3-0.9,0.5-1.3c0.3-0.3,0.6-0.7,1-0.8c0.4-0.1,0.7-0.3,1-0.4c0.3,0,0.5-0.1,0.5-0.1c0.1,0.1,0.1,0.1,0.2,0.2
			c0,0,0.1,0.2,0.1,0.5c0.1,0.3,0.1,0.8,0,1.2c-0.1,0.4-0.2,0.9-0.4,1.3c-0.3,0.3-0.8,0.5-1.1,0.9c-0.4,0.3-0.7,0.6-1.1,0.9
			c-0.4,0.3-0.7,0.4-1,0.6c-0.6,0.3-1,0.5-1,0.5C549.7,300.2,549.7,300.2,549.6,300.1z"/>
	</g>
</g>
<g id="XMLID_123_">
	<g>
		<path id="XMLID_289_" class="st1" d="M525.2,294.3c0,0,0.9-0.3,2.2-0.7c0.7-0.2,1.4-0.5,2.2-0.7c0.8-0.3,1.7-0.6,2.6-0.9
			c0.9-0.3,1.7-0.7,2.6-1c0.8-0.2,1.7-0.3,2.4-0.2c0.7,0.1,1.3,0.2,1.8,0.3c0.4,0.1,0.7,0.2,0.7,0.2c0,0.1,0.1,0.2,0.1,0.3
			c0,0-0.2,0.2-0.5,0.6c-0.4,0.3-0.9,0.7-1.5,1.1c-0.6,0.3-1.4,0.7-2.2,0.8c-0.9,0.2-1.8,0.1-2.7,0.2s-1.8,0.2-2.7,0.1
			c-0.9,0.1-1.7,0.1-2.4,0c-1.4,0.1-2.3,0-2.3,0C525.4,294.5,525.3,294.4,525.2,294.3z"/>
	</g>
</g>
<g id="XMLID_124_">
	<g>
		<path id="XMLID_287_" class="st1" d="M525.1,295.6c0,0-0.8-1.4-1.8-3.4c-0.5-1-1.2-2.2-1.8-3.3c-0.7-1.2-1.3-2.4-2-3.5
			c-0.7-1.2-1.5-2.2-2.1-3.2s-0.9-2.1-1.2-2.9c-0.3-0.9-0.4-1.7-0.5-2.2s-0.1-0.9-0.1-0.9c0.1,0,0.2-0.1,0.3-0.2
			c0,0,0.3,0.1,0.8,0.5c0.5,0.3,1,0.8,1.7,1.5c0.6,0.7,1.3,1.6,1.8,2.7s0.9,2.4,1.4,3.7c0.5,1.3,1,2.6,1.4,3.9
			c0.5,1.3,0.9,2.5,1.2,3.6c0.7,2.1,1.1,3.7,1.1,3.7C525.2,295.6,525.2,295.6,525.1,295.6z"/>
	</g>
</g>
<g id="XMLID_125_">
	<g>
		<path id="XMLID_285_" class="st1" d="M515.7,274.5c0,0,0.1-0.9,0.4-2.1c0.1-0.6,0.3-1.4,0.4-2.3c0.2-0.8,0.4-1.8,0.6-2.6
			c0.2-0.9,0.3-1.8,0.5-2.7c0.3-0.9,0.7-1.7,1.1-2.5c0.4-0.7,0.8-1.3,1.2-1.8c0.3-0.4,0.6-0.7,0.6-0.7c0.1,0,0.2,0,0.3,0
			c0,0,0.1,0.3,0.2,0.8c0.1,0.5,0.1,1.2,0.1,2.1s-0.1,1.8-0.4,2.8c-0.3,1-0.8,1.9-1.2,2.8c-0.4,0.9-0.8,1.8-1.2,2.6
			c-0.4,0.8-0.8,1.5-1.1,2.1c-0.6,1.1-1.1,1.8-1.1,1.8C516,274.7,515.8,274.6,515.7,274.5z"/>
	</g>
</g>
<g id="XMLID_126_">
	<g>
		<path id="XMLID_283_" class="st1" d="M519.6,260c0,0-0.2-0.2-0.4-0.8c-0.1-0.3-0.2-0.5-0.3-0.9s-0.2-0.7-0.3-1
			c-0.1-0.4-0.3-0.6-0.4-1c0-0.4,0.2-0.6,0.4-0.9s0.4-0.6,0.7-0.9c0.2-0.2,0.4-0.5,0.4-0.5c0.1,0,0.2,0,0.3-0.1c0,0,0.2,0.2,0.4,0.3
			c0.2,0.2,0.5,0.4,0.7,0.6c0.2,0.3,0.4,0.6,0.4,1.1c0,0.4-0.3,0.8-0.4,1.2c-0.1,0.4-0.2,0.9-0.3,1.2c-0.1,0.4-0.2,0.5-0.3,0.8
			c-0.2,0.6-0.4,0.8-0.4,0.8c-0.2,0-0.3-0.1-0.5-0.1C519.6,259.8,519.6,259.9,519.6,260z"/>
	</g>
</g>
<g id="XMLID_127_">
	<g>
		<path id="XMLID_281_" class="st1" d="M520.4,254.5c0,0-0.4-0.1-1-0.4c-0.3-0.1-0.6-0.3-1-0.4c-0.4-0.1-0.7-0.3-1.1-0.5
			c-0.3-0.2-0.8-0.2-1.1-0.4c-0.3-0.2-0.4-0.6-0.5-0.8c-0.1-0.3-0.1-0.6-0.1-0.8c0-0.3,0-0.5,0-0.5c0.1-0.1,0.1-0.1,0.2-0.2
			c0,0,0.2-0.1,0.4-0.1c0.3-0.1,0.6-0.1,1-0.2c0.3,0,0.7,0,1,0.2c0.3,0.2,0.4,0.7,0.6,1s0.5,0.6,0.7,0.9s0.4,0.6,0.5,1
			c0.3,0.6,0.5,1,0.5,1C520.5,254.4,520.4,254.5,520.4,254.5z"/>
	</g>
</g>
<g id="XMLID_128_">
	<g>
		<path id="XMLID_279_" class="st1" d="M515.9,250.5c0,0-0.2,0.2-0.6,0.6c-0.2,0.2-0.4,0.3-0.6,0.5c-0.2,0.2-0.5,0.3-0.8,0.5
			c-0.3,0.2-0.5,0.5-0.7,0.6c-0.3,0.1-0.6,0-0.8-0.2c-0.3-0.2-0.5-0.3-0.7-0.5s-0.3-0.3-0.3-0.3c0-0.1-0.1-0.2-0.1-0.3
			c0,0,0-0.2,0.1-0.4c0.1-0.2,0.2-0.5,0.3-0.7c0.2-0.2,0.4-0.5,0.6-0.5c0.3,0,0.6,0.1,0.9,0c0.3,0,0.6,0,0.9,0s0.6,0.1,0.8,0.2
			c0.5,0.1,0.8,0.2,0.8,0.2C515.8,250.3,515.8,250.4,515.9,250.5z"/>
	</g>
</g>
<g id="XMLID_129_">
	<g>
		<path id="XMLID_277_" class="st1" d="M511.2,251.7c0,0-0.3-0.3-0.6-0.6c-0.2-0.1-0.4-0.3-0.6-0.6c-0.2-0.2-0.4-0.4-0.6-0.6
			s-0.5-0.4-0.6-0.6s0-0.4,0.1-0.7c0.1-0.3,0.3-0.5,0.4-0.7s0.3-0.3,0.3-0.3c0.1,0,0.2-0.1,0.3-0.1c0,0,0.2,0,0.4-0.1
			c0.3,0,0.5,0,0.8,0.1s0.5,0.3,0.6,0.5s0,0.7,0,1s0,0.7,0,1s0,0.5,0,0.9c0,0.5-0.1,0.9-0.1,0.9
			C511.5,251.8,511.3,251.7,511.2,251.7z"/>
	</g>
</g>
<g id="XMLID_130_">
	<g>
		<path id="XMLID_265_" class="st1" d="M509.5,246.9c0,0,0.2-0.7,0.6-1.7c0.2-0.5,0.4-1.2,0.7-1.8c0.3-0.6,0.6-1.4,0.9-2.2
			c0.3-0.8,0.5-1.6,0.8-2.3c0.4-0.7,0.8-1.3,1.3-1.9c0.5-0.5,0.9-1,1.3-1.2c0.4-0.3,0.6-0.4,0.6-0.4c0.1,0,0.2,0,0.3,0.1
			c0,0,0.1,0.3,0.1,0.8c0,0.4,0,1.1-0.1,1.8c-0.1,0.7-0.3,1.5-0.7,2.2c-0.4,0.8-1,1.4-1.5,2c-0.5,0.7-0.9,1.3-1.4,2
			c-0.5,0.6-0.9,1.1-1.3,1.5c-0.8,0.8-1.3,1.3-1.3,1.3C509.7,247,509.6,246.9,509.5,246.9z"/>
	</g>
</g>
<g id="XMLID_131_">
	<g>
		<path id="XMLID_260_" class="st1" d="M515.7,236.5c0,0-0.4-0.4-0.9-0.9c-0.3-0.2-0.6-0.6-0.9-0.8c-0.3-0.3-0.6-0.6-1-0.9
			c-0.3-0.3-0.8-0.5-1-0.9c-0.2-0.3-0.3-0.6-0.3-1s0-0.6,0.1-0.9s0.2-0.5,0.2-0.5c0.1-0.1,0.2-0.1,0.3-0.2c0,0,0.2,0,0.5-0.1
			c0.3,0,0.6,0,1,0.2c0.3,0.2,0.7,0.3,0.9,0.6c0.2,0.4,0.2,0.9,0.4,1.3c0.1,0.4,0.3,0.8,0.4,1.3c0.1,0.4,0.2,0.9,0.3,1.2
			c0.2,0.8,0.3,1.2,0.3,1.2C515.9,236.3,515.8,236.4,515.7,236.5z"/>
	</g>
</g>
<g id="XMLID_132_">
	<g>
		<path id="XMLID_257_" class="st1" d="M511.9,229.9c0,0-0.1-0.5-0.1-1c0-0.3,0-0.6,0-1s0-0.7,0-1.2c0-0.4-0.1-0.8,0-1.2
			c0.1-0.4,0.4-0.7,0.6-0.9c0.3-0.2,0.6-0.5,0.9-0.6c0.3-0.2,0.5-0.3,0.5-0.3c0.1,0,0.2,0,0.3,0c0,0,0.1,0.2,0.3,0.4
			c0.2,0.2,0.3,0.6,0.4,0.9c0.1,0.4,0.2,0.9,0,1.2c-0.1,0.4-0.5,0.8-0.7,1.2c-0.2,0.4-0.4,0.8-0.7,1.1c-0.2,0.3-0.4,0.7-0.6,0.8
			c-0.4,0.5-0.7,0.7-0.7,0.7C512,230,512,230,511.9,229.9z"/>
	</g>
</g>
<g id="XMLID_142_">
	<g>
		<path id="XMLID_215_" class="st3" d="M554.9,295c0,0-0.9,0-2.3-0.2c-0.7,0-1.5-0.1-2.4-0.2s-1.8-0.2-2.7-0.3
			c-0.9-0.1-1.9,0-2.7-0.2c-0.9-0.2-1.6-0.5-2.3-0.8c-0.6-0.3-1.2-0.6-1.5-0.9c-0.4-0.3-0.5-0.4-0.5-0.4c0-0.1,0.1-0.2,0.1-0.3
			c0,0,0.3-0.1,0.7-0.2c0.4-0.1,1.1-0.2,1.8-0.3c0.7,0,1.6-0.1,2.4,0c0.8,0.2,1.7,0.5,2.6,0.8c0.9,0.3,1.8,0.6,2.6,0.9
			s1.6,0.6,2.3,0.9c1.3,0.6,2.2,0.9,2.2,0.9C555.1,294.8,555,294.9,554.9,295z"/>
	</g>
</g>
<g id="XMLID_141_">
	<g>
		<path id="XMLID_211_" class="st3" d="M554.8,293.6c0,0,0.4-1.1,1.1-2.7c0.3-0.9,0.7-1.9,1.2-3c0.4-1.1,1-2.3,1.5-3.5
			c0.5-1.3,0.9-2.6,1.4-3.7c0.6-1.2,1.2-2.3,1.8-3.3c0.6-0.9,1.2-1.8,1.7-2.3s0.8-0.9,0.8-0.9c0.1,0,0.2,0,0.3,0c0,0,0,0.4-0.1,1.1
			c-0.1,0.7-0.2,1.7-0.5,2.8c-0.3,1.1-0.6,2.3-1.2,3.7c-0.6,1.2-1.4,2.4-2.1,3.6s-1.4,2.3-2,3.3c-0.7,1-1.3,1.9-1.8,2.7
			c-1.1,1.4-1.8,2.4-1.8,2.4C555,293.7,554.9,293.7,554.8,293.6z"/>
	</g>
</g>
<g id="XMLID_140_">
	<g>
		<path id="XMLID_207_" class="st3" d="M564.2,275.9c0,0-0.5-1.1-1.1-2.6c-0.3-0.8-0.7-1.6-1.1-2.5c-0.4-0.8-0.8-1.8-1.2-2.6
			c-0.4-0.9-0.9-1.6-1.2-2.4c-0.3-0.8-0.4-1.5-0.4-2.2s0-1.3,0.1-1.7c0.1-0.5,0.2-0.8,0.2-0.8c0.1-0.1,0.2-0.1,0.3-0.2
			c0,0,0.2,0.1,0.6,0.3c0.3,0.2,0.7,0.6,1.2,1.2c0.4,0.5,0.8,1.3,1.1,2.1c0.3,0.9,0.3,1.9,0.5,2.9s0.4,2,0.6,3
			c0.2,1,0.3,1.9,0.4,2.7c0.2,1.6,0.4,2.7,0.4,2.7C564.5,275.9,564.3,275.9,564.2,275.9z"/>
	</g>
</g>
<g id="XMLID_138_">
	<g>
		<path id="XMLID_203_" class="st3" d="M561,254.3c0,0,0.2-0.3,0.5-0.8c0.2-0.3,0.3-0.5,0.5-0.8s0.4-0.6,0.7-0.9
			c0.2-0.3,0.4-0.7,0.6-1c0.3-0.2,0.6-0.3,1-0.4c0.4,0,0.7-0.1,1,0s0.4,0.1,0.4,0.1c0.1,0.1,0.1,0.1,0.2,0.2c0,0,0,0.2,0,0.5
			s0,0.7-0.1,1c-0.1,0.3-0.3,0.8-0.5,1c-0.3,0.2-0.7,0.2-1.1,0.4c-0.4,0.2-0.7,0.3-1.1,0.3c-0.3,0.1-0.7,0.2-1,0.2
			C561.5,254.3,561.1,254.4,561,254.3C561.1,254.4,561,254.3,561,254.3z"/>
	</g>
</g>
<g id="XMLID_137_">
	<g>
		<path id="XMLID_197_" class="st3" d="M564.4,250.4c0,0,0.3-0.1,0.8-0.2c0.2-0.1,0.5-0.1,0.8-0.2c0.3-0.1,0.6-0.1,0.9-0.2
			c0.3,0,0.6-0.2,0.9-0.2c0.3,0.1,0.5,0.3,0.6,0.5c0.2,0.3,0.3,0.5,0.4,0.9c0.1,0.2,0.1,0.4,0.1,0.4c0,0.1-0.1,0.2-0.1,0.3
			c0,0-0.1,0.2-0.3,0.3c-0.2,0.2-0.4,0.4-0.7,0.5c-0.3,0.1-0.5,0.2-0.8,0.2c-0.3-0.1-0.5-0.4-0.7-0.6c-0.3-0.2-0.5-0.3-0.8-0.5
			c-0.2-0.2-0.5-0.4-0.6-0.5c-0.4-0.3-0.6-0.4-0.6-0.4C564.3,250.6,564.4,250.5,564.4,250.4z"/>
	</g>
</g>
<g id="XMLID_136_">
	<g>
		<path id="XMLID_190_" class="st3" d="M568.8,251.3c0,0-0.1-0.3-0.1-0.7c0-0.2,0-0.5,0-0.7c0-0.3,0-0.5,0-0.8s-0.1-0.5,0-0.8
			c0.1-0.2,0.3-0.4,0.6-0.5s0.6-0.3,0.8-0.3c0.2,0,0.4-0.1,0.4-0.1c0.1,0,0.2,0,0.3,0.1c0,0,0.1,0.1,0.3,0.3
			c0.2,0.2,0.3,0.4,0.4,0.7c0.1,0.3,0.2,0.5,0.1,0.9c-0.1,0.2-0.5,0.4-0.6,0.6c-0.2,0.2-0.4,0.4-0.6,0.6c-0.2,0.2-0.4,0.4-0.6,0.4
			c-0.3,0.3-0.6,0.4-0.6,0.4C569.1,251.4,568.9,251.3,568.8,251.3z"/>
	</g>
</g>
<g id="XMLID_135_">
	<g>
		<path id="XMLID_185_" class="st3" d="M570.5,248.2c0,0-0.5-0.8-1.3-1.9c-0.4-0.6-0.8-1.2-1.3-1.9c-0.5-0.6-0.9-1.4-1.4-2
			c-0.5-0.7-1.1-1.2-1.5-1.8c-0.4-0.6-0.6-1.2-0.7-1.8c-0.1-0.5-0.1-1.1-0.1-1.4c0-0.4,0.1-0.6,0.1-0.6c0.1,0,0.2-0.1,0.3-0.1
			c0,0,0.3,0,0.6,0.2c0.4,0.1,0.8,0.3,1.3,0.8c0.5,0.3,1,0.9,1.3,1.5c0.3,0.7,0.5,1.5,0.8,2.3s0.6,1.6,0.9,2.4
			c0.3,0.8,0.5,1.5,0.7,2.2c0.4,1.3,0.6,2.3,0.6,2.3C570.7,248.3,570.6,248.2,570.5,248.2z"/>
	</g>
</g>
<g id="XMLID_134_">
	<g>
		<path id="XMLID_180_" class="st3" d="M564.3,235.7c0,0,0.1-0.4,0.3-1c0.1-0.3,0.2-0.6,0.3-1c0.1-0.4,0.3-0.7,0.4-1.1
			c0.2-0.4,0.2-0.9,0.4-1.3c0.2-0.3,0.6-0.6,0.9-0.8c0.4-0.3,0.7-0.4,1-0.4c0.3,0,0.5-0.1,0.5-0.1c0.1,0.1,0.2,0.1,0.3,0.2
			c0,0,0.1,0.2,0.2,0.5c0.1,0.3,0.1,0.6,0.1,1.1c0,0.4-0.1,0.9-0.3,1.2c-0.2,0.3-0.7,0.6-1,0.9s-0.6,0.6-1,0.9
			c-0.3,0.3-0.6,0.4-0.9,0.6c-0.5,0.3-0.9,0.5-0.9,0.5C564.5,235.9,564.4,235.8,564.3,235.7z"/>
	</g>
</g>
<g id="XMLID_133_">
	<g>
		<path id="XMLID_172_" class="st3" d="M568,230.6c0,0-0.3-0.5-0.7-1.1c-0.2-0.3-0.4-0.7-0.6-1c-0.2-0.3-0.4-0.7-0.7-1.1
			c-0.2-0.4-0.6-0.7-0.7-1c-0.1-0.4-0.1-0.7,0-1c0.1-0.4,0.3-0.7,0.4-0.9c0.2-0.2,0.3-0.4,0.3-0.4c0.1-0.1,0.2-0.1,0.3-0.2
			c0,0,0.2,0.1,0.5,0.1s0.6,0.2,0.9,0.4c0.3,0.3,0.5,0.6,0.6,0.9c0.1,0.4,0,1,0,1.4s0.1,1,0,1.4c0,0.4,0,0.9,0,1.2
			c0,0.8-0.1,1.2-0.1,1.2C568.1,230.5,568.1,230.5,568,230.6z"/>
	</g>
</g>
<g id="XMLID_139_">
	<g>
		<path id="XMLID_169_" class="st3" d="M558,260c0,0-0.2-0.2-0.4-0.8c-0.1-0.3-0.2-0.5-0.3-0.9c-0.1-0.4-0.2-0.7-0.3-1
			c-0.1-0.4-0.3-0.6-0.4-1c0-0.4,0.2-0.6,0.4-0.9c0.2-0.3,0.4-0.6,0.7-0.9c0.2-0.2,0.4-0.5,0.4-0.5c0.1,0,0.2,0,0.3-0.1
			c0,0,0.2,0.2,0.4,0.3c0.2,0.2,0.5,0.4,0.7,0.6c0.2,0.3,0.4,0.6,0.4,1.1c0,0.4-0.3,0.8-0.4,1.2c-0.1,0.4-0.2,0.9-0.3,1.2
			c-0.1,0.4-0.2,0.5-0.3,0.8c-0.2,0.6-0.4,0.8-0.4,0.8c-0.2,0-0.3-0.1-0.5-0.1C558,259.8,558,259.9,558,260z"/>
	</g>
</g>
<g id="XMLID_39_">
	<g>
		<path id="XMLID_232_" class="st1" d="M466.8,168c0,0,3.8,2.6,9.5,6.8c5.7,4.2,13.3,10.2,20.9,16.9c1.9,1.6,3.8,3.3,5.7,5
			c1.9,1.7,3.7,3.4,5.5,5.1c1.7,1.7,3.4,3.4,4.9,5.1c1.6,1.7,3,3.2,4.3,4.8c5.3,6.1,8.6,10.8,8.6,10.7c-0.1,0.1-0.1,0.1-0.2,0.2
			c0,0-4.2-3.6-10-9.1c-1.5-1.4-3-2.8-4.7-4.4c-1.7-1.6-3.4-3.2-5.1-4.9s-3.5-3.5-5.3-5.3s-3.6-3.6-5.4-5.3
			c-7.3-7-14.6-13.3-20-17.8c-5.4-4.6-9-7.4-9-7.4C466.6,168.3,466.7,168.1,466.8,168z"/>
	</g>
</g>
<g id="XMLID_76_">
	<g>
		<path id="XMLID_593_" class="st1" d="M526,220.8c0,0,0.8-0.2,2-0.4c0.6-0.1,1.3-0.2,2.1-0.3c0.8-0.1,1.6-0.2,2.5-0.3
			c0.8-0.1,1.7-0.3,2.5-0.5c0.8,0,1.5,0.2,2.2,0.4c0.6,0.2,1,0.4,1.3,0.7c0.4,0.2,0.4,0.4,0.4,0.4c0,0.1,0,0.2,0,0.3
			c0,0,0,0.2-0.4,0.4c-0.4,0.2-0.8,0.5-1.4,0.7s-1.3,0.4-2.1,0.4c-0.8,0-1.6-0.3-2.5-0.5c-0.8-0.1-1.7-0.2-2.5-0.3
			c-0.8-0.1-1.4-0.2-2.1-0.3c-1.3-0.2-2-0.4-2-0.4C526,221.1,526,221,526,220.8z"/>
	</g>
</g>
<g id="XMLID_144_">
	<g>
		<path id="XMLID_166_" class="st3" d="M612.7,162.8c0,0-3.6,4.2-9.1,10.2c-5.4,6-12.8,13.5-20.1,20.4c-1.8,1.7-3.6,3.5-5.4,5.1
			c-1.8,1.6-3.6,3.2-5.3,4.7c-1.8,1.5-3.5,2.8-5.1,4.1c-1.6,1.2-3.2,2.4-4.7,3.4c-5.8,4.1-10,6.3-10,6.3c-0.1-0.1-0.1-0.1-0.2-0.2
			c0,0,3.3-3.2,8.6-7.9c1.3-1.1,2.8-2.5,4.3-3.8s3.2-2.8,5-4.3c1.8-1.5,3.6-3,5.5-4.5c1.9-1.5,3.8-3.2,5.7-4.8
			c7.6-6.6,15.2-13.8,21-19.5c5.7-5.6,9.6-9.6,9.6-9.6C612.6,162.5,612.6,162.7,612.7,162.8z"/>
	</g>
</g>
<g id="XMLID_143_">
	<g>
		<path id="XMLID_164_" class="st3" d="M554,221.1c0,0-1.1,0.2-2.3,0.4c-0.6,0.1-1.5,0.2-2.3,0.3c-0.8,0.1-1.7,0.2-2.5,0.3
			c-0.9,0.1-1.7,0.3-2.5,0.3s-1.6-0.2-2.2-0.4c-0.6-0.2-1.2-0.4-1.5-0.7c-0.4-0.2-0.6-0.4-0.6-0.4c0-0.1,0-0.2,0-0.3
			c0,0,0.2-0.2,0.6-0.4c0.4-0.2,0.9-0.5,1.5-0.7s1.4-0.4,2.2-0.4c0.8,0,1.6,0.3,2.5,0.3c0.9,0.1,1.7,0.2,2.5,0.3
			c0.8,0.1,1.7,0.2,2.4,0.3c1.3,0.2,2.3,0.4,2.3,0.4C554.1,220.8,554.1,220.9,554,221.1C554.1,221.1,554,221.1,554,221.1z"/>
	</g>
</g>
<g id="XMLID_145_">
	<g>
		<path id="XMLID_596_" class="st1" d="M520.5,258.2c0,0-0.4,0-0.9-0.1c-0.3,0-0.6,0-0.9-0.1c-0.3,0-0.7-0.1-1-0.2
			c-0.3,0-0.7,0.1-1-0.1c-0.3-0.1-0.5-0.4-0.6-0.7c-0.1-0.3-0.2-0.5-0.3-0.7c0-0.3,0-0.4,0-0.4c0-0.1,0.1-0.2,0.1-0.3
			c0,0,0.1-0.1,0.4-0.3c0.2-0.1,0.5-0.3,0.8-0.4c0.3-0.1,0.6-0.1,0.9-0.1c0.3,0.1,0.5,0.5,0.7,0.7c0.3,0.2,0.5,0.4,0.7,0.7
			c0.2,0.2,0.4,0.5,0.6,0.8c0.4,0.4,0.6,0.8,0.6,0.8C520.6,258.1,520.5,258.2,520.5,258.2z"/>
	</g>
</g>
<g id="XMLID_146_">
	<g>
		<path id="XMLID_597_" class="st1" d="M515.7,256.2c0,0-0.4-0.3-0.9-0.5c-0.3-0.1-0.6-0.4-0.9-0.6s-0.6-0.4-0.9-0.6
			c-0.3-0.2-0.7-0.3-1-0.6c-0.2-0.2-0.3-0.5-0.3-0.8s0-0.6,0.1-0.8c0.1-0.3,0.1-0.4,0.1-0.4c0.1-0.1,0.1-0.1,0.2-0.2
			c0,0,0.2,0,0.5-0.1c0.3,0,0.6-0.1,0.9,0s0.7,0.1,0.9,0.4c0.2,0.3,0.2,0.7,0.4,1c0.2,0.3,0.3,0.7,0.4,1.1c0.1,0.3,0.2,0.6,0.3,1
			c0.2,0.6,0.3,1,0.3,1C515.8,256.1,515.7,256.1,515.7,256.2z"/>
	</g>
</g>
<g id="XMLID_148_">
	<g>
		<path id="XMLID_162_" class="st3" d="M559.7,256c0,0,0.2-0.3,0.6-0.6c0.2-0.2,0.4-0.4,0.6-0.6c0.2-0.2,0.5-0.4,0.7-0.7
			c0.3-0.2,0.5-0.6,0.7-0.7c0.3-0.1,0.6-0.1,0.9-0.1c0.3,0.1,0.6,0.2,0.8,0.4c0.2,0.1,0.4,0.3,0.4,0.3c0,0.1,0.1,0.2,0.1,0.3
			c0,0,0,0.2,0,0.4c0,0.3-0.1,0.7-0.3,0.9c-0.1,0.3-0.3,0.5-0.6,0.7c-0.3,0.1-0.7,0-1-0.1c-0.3,0-0.7,0.1-1,0c-0.3,0-0.6,0-0.9-0.1
			c-0.5,0-0.9-0.1-0.9-0.1C559.8,256.1,559.7,256,559.7,256z"/>
	</g>
</g>
<g id="XMLID_147_">
	<g>
		<path id="XMLID_161_" class="st3" d="M562.8,255.7c0,0,0.1-0.3,0.3-0.8c0.1-0.3,0.2-0.5,0.3-0.8c0.1-0.3,0.3-0.7,0.5-0.9
			c0.2-0.3,0.2-0.8,0.4-1c0.2-0.3,0.6-0.4,0.9-0.6c0.3-0.1,0.7-0.2,0.9-0.2c0.3,0,0.5,0.1,0.5,0.1c0.1,0.1,0.1,0.1,0.2,0.2
			c0,0,0.1,0.2,0.1,0.4c0.1,0.3,0.1,0.7,0.1,1s-0.1,0.8-0.3,1c-0.2,0.2-0.7,0.3-1,0.6c-0.3,0.2-0.6,0.4-0.9,0.6s-0.6,0.3-0.9,0.4
			c-0.5,0.2-0.9,0.3-0.9,0.3C562.9,255.8,562.9,255.8,562.8,255.7z"/>
	</g>
</g>
<g id="XMLID_149_">
	<g>
		<path id="XMLID_619_" class="st1" d="M539.7,288.6c0,0-0.5-0.1-1.1-0.3c-0.3-0.1-0.7-0.1-1.1-0.3c-0.4-0.1-0.8-0.2-1.2-0.4
			c-0.4-0.1-0.9-0.1-1.3-0.3c-0.3-0.2-0.6-0.5-0.8-0.8s-0.3-0.6-0.3-0.9c-0.1-0.3-0.1-0.4-0.1-0.4c0-0.1,0.1-0.2,0.1-0.3
			c0,0,0.2-0.1,0.4-0.2c0.3-0.1,0.6-0.2,1-0.3c0.4,0,0.8-0.1,1.1,0.1c0.3,0.2,0.6,0.6,0.9,0.9c0.3,0.3,0.6,0.6,0.9,0.9
			s0.5,0.6,0.8,0.9c0.4,0.5,0.7,1,0.7,1C539.7,288.4,539.7,288.5,539.7,288.6z"/>
	</g>
</g>
<g id="XMLID_150_">
	<g>
		<path id="XMLID_624_" class="st1" d="M533.8,284.8c0,0-0.1-0.3-0.1-0.6c0-0.2-0.1-0.4-0.1-0.6s0-0.5,0-0.6c0-0.2-0.1-0.4-0.1-0.6
			c0.1-0.2,0.3-0.3,0.6-0.3c0.3-0.1,0.5-0.1,0.8-0.2c0.2,0,0.4,0,0.4,0c0.1,0,0.2,0,0.3,0.1c0,0,0.1,0.1,0.3,0.3
			c0.2,0.2,0.3,0.4,0.4,0.6s0.2,0.5,0.1,0.7c-0.1,0.2-0.4,0.3-0.6,0.4c-0.2,0.2-0.4,0.3-0.6,0.4c-0.2,0.1-0.4,0.3-0.5,0.4
			c-0.3,0.2-0.6,0.2-0.6,0.2C534,284.9,533.9,284.8,533.8,284.8z"/>
	</g>
</g>
<g id="XMLID_151_">
	<g>
		<path id="XMLID_626_" class="st1" d="M535.4,281.8c0,0,0.3-0.1,0.8-0.1c0.2,0,0.5-0.1,0.8-0.1c0.3,0,0.6,0,0.9-0.1
			c0.3,0,0.7-0.1,0.9-0.2c0.3,0.1,0.4,0.3,0.6,0.6c0.1,0.3,0.2,0.6,0.3,0.9c0,0.2,0.1,0.4,0.1,0.4c0,0.1-0.1,0.2-0.1,0.3
			c0,0-0.1,0.1-0.3,0.3c-0.2,0.2-0.4,0.3-0.7,0.5c-0.3,0.1-0.6,0.2-0.8,0.1c-0.3-0.1-0.4-0.4-0.7-0.6c-0.2-0.2-0.5-0.4-0.7-0.6
			s-0.4-0.4-0.6-0.6c-0.3-0.3-0.6-0.5-0.6-0.5C535.3,282,535.4,281.9,535.4,281.8z"/>
	</g>
</g>
<g id="XMLID_154_">
	<g>
		<path id="XMLID_160_" class="st3" d="M540.5,287.9c0,0,0.3-0.3,0.7-0.8c0.2-0.2,0.5-0.5,0.8-0.7c0.3-0.3,0.6-0.6,0.9-0.9
			c0.3-0.3,0.6-0.7,0.9-0.9c0.3-0.2,0.7-0.3,1.1-0.3c0.4,0,0.7,0.1,1,0.1c0.3,0.1,0.4,0.2,0.4,0.2c0,0.1,0.1,0.2,0.1,0.3
			c0,0,0,0.2-0.1,0.6c0,0.3-0.2,0.7-0.3,1.1c-0.2,0.3-0.4,0.8-0.8,0.8c-0.4,0.2-0.8,0.2-1.3,0.3c-0.4,0.1-0.8,0.2-1.2,0.2
			c-0.4,0.1-0.8,0.1-1.1,0.1c-0.7,0.1-1.1,0.1-1.1,0.1C540.5,288.1,540.5,288,540.5,287.9z"/>
	</g>
</g>
<g id="XMLID_153_">
	<g>
		<path id="XMLID_159_" class="st3" d="M546.3,285.1c0,0-0.3-0.1-0.6-0.4c-0.2-0.1-0.4-0.2-0.5-0.4c-0.2-0.1-0.4-0.3-0.6-0.4
			c-0.2-0.2-0.5-0.2-0.6-0.4c-0.1-0.2,0-0.4,0.1-0.6s0.3-0.5,0.4-0.6c0.2-0.2,0.3-0.3,0.3-0.3c0.1,0,0.2-0.1,0.3-0.1
			c0,0,0.2,0,0.4,0s0.5-0.1,0.8,0c0.2,0.1,0.5,0.2,0.6,0.3c0.1,0.2-0.1,0.6-0.1,0.8c0,0.2,0,0.5,0,0.8c0,0.2-0.1,0.5-0.1,0.6
			c-0.1,0.4-0.1,0.6-0.1,0.6C546.5,285,546.4,285,546.3,285.1z"/>
	</g>
</g>
<g id="XMLID_152_">
	<g>
		<path id="XMLID_158_" class="st3" d="M545,281.9c0,0-0.2,0.3-0.6,0.7c-0.2,0.2-0.4,0.4-0.6,0.6s-0.5,0.4-0.7,0.6s-0.4,0.5-0.7,0.6
			s-0.6,0-0.8-0.1c-0.3-0.1-0.5-0.3-0.7-0.5s-0.3-0.3-0.3-0.3c0-0.1-0.1-0.2-0.1-0.3c0,0,0-0.2,0.1-0.4c0-0.3,0.1-0.5,0.3-0.7
			c0.1-0.3,0.3-0.5,0.6-0.6c0.3-0.1,0.6,0.1,0.9,0c0.3,0,0.6,0,0.9-0.1c0.3,0,0.6,0,0.8,0.1c0.5,0,0.8,0.1,0.8,0.1
			C544.9,281.7,545,281.8,545,281.9z"/>
	</g>
</g>
<g id="XMLID_155_">
	<g>
		<path id="XMLID_157_" d="M540.1,228.8c0,0,0.2,2,0.4,5.6c0.2,3.7,0.4,8.6,0.7,13.8c0.1,1.3,0.1,2.6,0.2,3.9s0.1,2.6,0.2,3.9
			c0,1.3,0,2.5-0.1,3.6c-0.1,1.1-0.1,2.2-0.3,3c-0.4,3.7-1.1,5.4-1.1,5.4c-0.1-0.1-0.2-0.2-0.3-0.4c0,0-0.7-3.3-1.1-7
			c-0.1-0.9-0.2-2-0.3-3c-0.1-1.1-0.1-2-0.1-3c0-1.1,0.1-2.1,0.2-3.2s0.1-2.2,0.2-3.4c0.2-4.5,0.4-9,0.7-12.9
			c0.2-3.7,0.4-6.2,0.4-6.2c0.1-0.1,0.2-0.2,0.3-0.4C540.1,228.8,540.1,228.8,540.1,228.8z"/>
	</g>
</g>
<line class="st4" x1="558.3" y1="256.6" x2="565.5" y2="251.6"/>
<line class="st5" x1="562.8" y1="257.7" x2="568.8" y2="251.7"/>
<line class="st5" x1="564.6" y1="253.9" x2="570.6" y2="247.9"/>
<line class="st6" x1="557.8" y1="259.5" x2="569.6" y2="250.4"/>
<g id="XMLID_16_">
	<g>
		<path id="XMLID_18_" class="st1" d="M519.1,253.9c-0.1,0.1-0.5,0-1.1-0.2c-0.3,0-0.7-0.1-1-0.2c-0.4,0-0.7-0.1-1.1-0.3
			c-0.4-0.2-0.8-0.2-1.1-0.4c-0.2-0.2-0.4-0.7-0.5-1c-0.1-0.3-0.1-0.7-0.1-1s0-0.5,0-0.5c0.1-0.1,0.1-0.1,0.2-0.2c0,0,0.1,0,0.4-0.1
			s0.6,0,1,0c0.4,0.1,0.7,0.2,1,0.4c0.2,0.3,0.4,0.7,0.6,1c0.3,0.3,0.5,0.6,0.7,0.9s0.3,0.5,0.5,0.8
			C518.9,253.6,519.1,253.9,519.1,253.9S519,254,519.1,253.9z"/>
	</g>
</g>
<g id="XMLID_13_">
	<g>
		<path id="XMLID_14_" class="st1" d="M515.8,250.3c0,0-0.2,0.1-0.6,0.4c-0.1,0.1-0.4,0.3-0.6,0.5c-0.3,0.2-0.5,0.3-0.8,0.5
			c-0.2,0.2-0.4,0.5-0.7,0.6c-0.3,0-0.5-0.1-0.8-0.2s-0.5-0.3-0.7-0.5c-0.2-0.1-0.3-0.3-0.3-0.3c0-0.1-0.1-0.2-0.1-0.3
			c0,0,0-0.2,0.1-0.4c0.1-0.4,0.2-0.6,0.4-0.9c0.1-0.2,0.3-0.4,0.6-0.5c0.3,0,0.6,0.2,0.9,0.2c0.3,0.1,0.6,0.1,0.9,0.2
			s0.6,0.1,0.8,0.2c0.5,0.1,0.8,0.2,0.8,0.2C515.7,250.1,515.8,250.2,515.8,250.3z"/>
	</g>
</g>
<g id="XMLID_7_">
	<g>
		<path id="XMLID_8_" class="st1" d="M510.9,251c0,0-0.3-0.1-0.6-0.4c-0.2,0-0.4-0.2-0.6-0.4s-0.4-0.4-0.6-0.6
			c-0.1-0.2-0.5-0.4-0.6-0.6c-0.1-0.4,0-0.6,0.1-0.9c0.1-0.3,0.2-0.5,0.4-0.7c0.2-0.2,0.3-0.3,0.3-0.3c0.1-0.1,0.2-0.1,0.3-0.1
			c0,0,0.2,0.1,0.4,0.1c0.2,0,0.5,0.2,0.8,0.3c0.3,0.1,0.5,0.3,0.6,0.5c0.1,0.3,0,0.5,0,0.8s0,0.5,0,0.8c0,0.2,0,0.5,0,0.7
			c0,0.4-0.1,0.7-0.1,0.7C511.2,250.9,511,251,510.9,251z"/>
	</g>
</g>
<g id="XMLID_5_">
	<g>
		<path id="XMLID_6_" class="st1" d="M520.3,255.6c0,0-0.4,0.1-0.9,0.1c-0.3,0.1-0.6,0.1-0.9,0.1c-0.3,0.1-0.7,0-1,0
			c-0.3,0.1-0.7,0.2-1,0.1c-0.3-0.2-0.5-0.4-0.6-0.7c-0.2-0.2-0.3-0.6-0.3-0.9c0-0.2,0-0.4,0-0.4c0-0.1,0.1-0.2,0.1-0.3
			c0,0,0.2-0.2,0.4-0.3c0.2-0.2,0.5-0.3,0.8-0.4c0.3,0,0.6,0,0.9,0.1c0.2,0.1,0.4,0.5,0.7,0.7c0.2,0.3,0.5,0.5,0.7,0.7
			s0.4,0.4,0.6,0.6c0.4,0.3,0.6,0.6,0.6,0.6S520.3,255.7,520.3,255.6z"/>
	</g>
</g>
<g id="XMLID_1_">
	<g>
		<path id="XMLID_4_" class="st1" d="M517.1,255.6c0,0-0.4-0.1-0.9-0.3c-0.3-0.1-0.6-0.2-0.9-0.4s-0.6-0.4-0.9-0.6
			c-0.3-0.3-0.8-0.4-1-0.6s-0.3-0.7-0.3-1s0-0.7,0.1-1c0-0.2,0.1-0.4,0.1-0.4c0.1-0.1,0.1-0.1,0.2-0.2c0,0,0.2-0.1,0.5-0.1
			c0.2,0,0.6,0.1,0.9,0.2c0.3,0.2,0.7,0.3,0.9,0.6c0.2,0.2,0.2,0.7,0.4,1c0.2,0.2,0.4,0.6,0.5,0.9s0.2,0.5,0.3,0.8
			c0.2,0.5,0.3,0.8,0.3,0.8C517.2,255.4,517.2,255.4,517.1,255.6z"/>
	</g>
</g>
<line class="st0" x1="521.9" y1="256.2" x2="514.6" y2="251.2"/>
<line class="st1" x1="517.3" y1="257.3" x2="511.3" y2="251.3"/>
<line class="st1" x1="515.5" y1="253.5" x2="509.6" y2="247.5"/>
<line class="st7" x1="516.5" y1="255.9" x2="515.2" y2="255.2"/>
<line class="st7" x1="518.8" y1="254.8" x2="518.9" y2="255"/>
</svg>
