<?xml version="1.0" encoding="utf-8"?>
<!-- Generator: Adobe Illustrator 19.0.0, SVG Export Plug-In . SVG Version: 6.00 Build 0)  -->
<svg version="1.1" id="Layer_1" xmlns="http://www.w3.org/2000/svg" xmlns:xlink="http://www.w3.org/1999/xlink" x="0px" y="0px"
	 viewBox="0 0 960 560" style="enable-background:new 0 0 960 560;" xml:space="preserve">
<style type="text/css">
	.st0{fill:none;stroke:#FFFFFF;stroke-width:2;stroke-miterlimit:10;}
	.st1{fill:#FFFFFF;}
	.st2{fill:none;stroke:#000000;stroke-width:2;stroke-miterlimit:10;}
	.st3{fill:none;}
	.st4{fill:none;stroke:#000000;stroke-miterlimit:10;}
</style>
<g id="XMLID_3_">
	<g id="XMLID_18_">
	</g>
	<g id="XMLID_20_">
		<line id="XMLID_22_" class="st0" x1="440.4" y1="515.2" x2="493" y2="534.9"/>
	</g>
</g>
<g id="XMLID_15_">
	<line id="XMLID_769_" class="st1" x1="440.4" y1="515.2" x2="443.1" y2="507.8"/>
	<path id="XMLID_768_" class="st1" d="M440.3,515.2c0,0,0.3-2,0.7-4c0.1-0.5,0.1-1,0.3-1.4c0.2-0.4,0.4-0.8,0.7-1.1
		c0.5-0.6,1.1-0.9,1.1-0.9l0.2,0.1c0,0,0.3,0.6,0.2,1.4c0,0.4-0.1,0.8-0.2,1.3c-0.2,0.4-0.5,0.8-0.7,1.3c-0.9,1.8-2,3.5-2,3.5
		L440.3,515.2z"/>
</g>
<g id="XMLID_17_">
	<line id="XMLID_766_" class="st1" x1="413.2" y1="426.8" x2="443.1" y2="507.8"/>
	<path id="XMLID_765_" class="st1" d="M413.3,426.8c0,0,2,5,4.9,12.6c3,7.5,6.8,17.6,10.7,27.7c2,5,3.9,10.1,5.7,14.8
		c0.9,2.4,1.7,4.7,2.5,6.9c0.8,2.2,1.5,4.3,2.1,6.2c0.6,1.9,1.2,3.7,1.7,5.3c0.5,1.6,0.9,2.9,1.3,4.1c0.7,2.3,1,3.6,1,3.6l-0.2,0.1
		c0,0-0.6-1.2-1.5-3.4c-0.5-1.1-1.1-2.4-1.7-3.9c-0.6-1.5-1.4-3.2-2.1-5.1c-0.8-1.9-1.6-3.9-2.4-6.1c-0.9-2.2-1.7-4.5-2.6-6.8
		c-1.7-4.8-3.5-9.9-5.3-15c-3.6-10.2-7.2-20.3-9.9-28c-2.7-7.6-4.4-12.7-4.4-12.7L413.3,426.8z"/>
</g>
<g id="XMLID_19_">
	<line id="XMLID_763_" class="st1" x1="413.2" y1="426.8" x2="420.9" y2="406.6"/>
	<path id="XMLID_762_" class="st1" d="M413.1,426.8c0,0,0.4-1.3,1-3.3c0.6-2,1.4-4.5,2.2-7.1c0.4-1.3,0.8-2.6,1.2-3.8
		c0.5-1.2,1-2.3,1.5-3.2c1-1.8,1.9-2.9,1.9-2.9l0.2,0.1c0,0-0.1,1.4-0.6,3.4c-0.2,1-0.6,2.1-1,3.3c-0.5,1.2-1.1,2.4-1.6,3.6
		c-1.1,2.5-2.2,5-3.1,6.8c-0.9,1.8-1.4,3.1-1.4,3.1L413.1,426.8z"/>
</g>
<g id="XMLID_21_">
	<line id="XMLID_760_" class="st1" x1="419" y1="407" x2="419" y2="361"/>
	<path id="XMLID_759_" class="st1" d="M419.1,407c0,0-0.1-2.7-0.3-7.1c-0.2-4.3-0.3-10-0.5-15.7c-0.1-2.9-0.2-5.7-0.2-8.4
		c0-2.7,0.1-5.4,0.2-7.5c0.3-4.3,0.7-7.3,0.7-7.3h0.2c0,0,0.4,3,0.7,7.3c0.1,2.2,0.2,4.7,0.2,7.4c0,2.7-0.2,5.6-0.2,8.5
		c-0.2,5.7-0.3,11.4-0.5,15.7c-0.1,4.3-0.3,7.1-0.3,7.1H419.1z"/>
</g>
<g id="XMLID_12_">
	<g id="XMLID_6_">
	</g>
	<g id="XMLID_7_">
		<line id="XMLID_8_" class="st2" x1="547.8" y1="515.2" x2="495" y2="534.9"/>
	</g>
</g>
<g id="XMLID_11_">
	<path id="XMLID_757_" d="M547.7,515.3c0,0-1.1-1.7-2-3.5c-0.2-0.4-0.6-0.8-0.7-1.3c-0.2-0.4-0.2-0.9-0.2-1.3c0-0.8,0.2-1.4,0.2-1.4
		l0.2-0.1c0,0,0.6,0.3,1.1,0.9c0.3,0.3,0.5,0.7,0.7,1.1c0.1,0.4,0.2,1,0.3,1.4c0.5,1.9,0.7,4,0.7,4L547.7,515.3z"/>
</g>
<g id="XMLID_10_">
	<path id="XMLID_755_" d="M575.2,426.9c0,0-1.8,5.1-4.5,12.7c-2.7,7.7-6.3,17.8-9.9,28c-1.8,5.1-3.6,10.2-5.3,15
		c-0.9,2.4-1.7,4.7-2.6,6.8c-0.8,2.2-1.7,4.2-2.4,6.1c-0.8,1.9-1.5,3.6-2.1,5.1c-0.6,1.5-1.2,2.8-1.7,3.9c-0.9,2.2-1.5,3.4-1.5,3.4
		l-0.2-0.1c0,0,0.4-1.3,1.1-3.6c0.3-1.1,0.8-2.5,1.3-4.1c0.5-1.6,1.1-3.3,1.7-5.3c0.6-1.9,1.3-4,2.1-6.2c0.8-2.2,1.6-4.5,2.5-6.9
		c1.8-4.7,3.8-9.8,5.7-14.8c3.9-10.1,7.8-20.2,10.7-27.7c3-7.5,4.9-12.6,4.9-12.6L575.2,426.9z"/>
</g>
<g id="XMLID_9_">
	<path id="XMLID_753_" d="M575,426.9c0,0-0.6-1.2-1.5-3.1c-0.9-1.8-2-4.3-3.1-6.8c-0.5-1.2-1.2-2.5-1.7-3.6c-0.5-1.2-0.8-2.3-1-3.3
		c-0.5-2-0.6-3.4-0.6-3.4l0.2-0.1c0,0,0.9,1.1,1.9,2.9c0.5,0.9,1,2,1.5,3.2c0.4,1.2,0.8,2.5,1.2,3.8c0.8,2.6,1.7,5.2,2.3,7.1
		c0.6,2,1,3.3,1,3.3L575,426.9z"/>
</g>
<g id="XMLID_2_">
	<path id="XMLID_751_" d="M565.8,407c0,0-0.1-2.7-0.3-7.1c-0.2-4.3-0.3-10-0.5-15.7c-0.1-2.9-0.2-5.7-0.2-8.4c0-2.7,0.1-5.4,0.2-7.5
		c0.3-4.3,0.7-7.3,0.7-7.3h0.2c0,0,0.4,3,0.7,7.3c0.1,2.2,0.2,4.7,0.2,7.4c0,2.7-0.2,5.6-0.2,8.5c-0.2,5.7-0.3,11.4-0.5,15.7
		c-0.2,4.3-0.3,7.1-0.3,7.1H565.8z"/>
</g>
<g id="XMLID_23_">
	<line id="XMLID_749_" class="st1" x1="420.6" y1="362.7" x2="411.2" y2="348.3"/>
	<path id="XMLID_748_" class="st1" d="M420.5,362.7c0,0-0.7-0.8-1.7-2.1c-1-1.3-2.3-3-3.6-4.7c-0.6-0.9-1.4-1.7-1.9-2.5
		c-0.5-0.8-1-1.7-1.3-2.4c-0.7-1.5-0.9-2.6-0.9-2.6l0.2-0.1c0,0,1,0.7,2.1,1.9c0.6,0.6,1.2,1.3,1.7,2.2c0.5,0.9,1,1.8,1.5,2.8
		c1,1.9,2.1,3.8,2.9,5.2c0.8,1.4,1.3,2.4,1.3,2.4L420.5,362.7z"/>
</g>
<g id="XMLID_24_">
	<line id="XMLID_746_" class="st1" x1="411.2" y1="348.3" x2="375.1" y2="352.8"/>
	<path id="XMLID_745_" class="st1" d="M411.2,348.4c0,0-2.2,0.4-5.6,1c-3.4,0.6-7.9,1.3-12.4,2c-2.2,0.4-4.5,0.8-6.6,1.1
		c-2.1,0.3-4.1,0.4-5.8,0.5c-3.4,0.2-5.7,0-5.7,0l0-0.2c0,0,2.2-0.7,5.6-1.4c1.7-0.3,3.6-0.7,5.8-1c2.1-0.2,4.4-0.4,6.7-0.6
		c4.5-0.4,9.1-0.8,12.5-1.1c3.4-0.3,5.7-0.5,5.7-0.5L411.2,348.4z"/>
</g>
<g id="XMLID_25_">
	<line id="XMLID_743_" class="st1" x1="375.1" y1="352.8" x2="341.4" y2="326.5"/>
	<path id="XMLID_742_" class="st1" d="M375,352.9c0,0-2.2-1.6-5.4-3.9c-3.3-2.3-7.5-5.5-11.8-8.7c-2.1-1.6-4.3-3.1-6.3-4.6
		c-2-1.5-3.7-3.1-5.2-4.4c-3-2.7-4.8-4.7-4.8-4.7l0.1-0.2c0,0,2.4,1.3,5.7,3.6c1.7,1.1,3.6,2.5,5.5,4c2,1.6,4,3.3,6,5
		c4.1,3.4,8.2,6.8,11.3,9.4c3.1,2.6,5.1,4.3,5.1,4.3L375,352.9z"/>
</g>
<g id="XMLID_26_">
	<line id="XMLID_740_" class="st1" x1="341.4" y1="325.3" x2="372.6" y2="300.8"/>
	<path id="XMLID_739_" class="st1" d="M341.4,325.3c0,0,1.9-1.6,4.7-4c2.8-2.4,6.6-5.6,10.4-8.8c1.9-1.6,3.8-3.2,5.6-4.7
		c1.8-1.4,3.6-2.7,5.1-3.7c3.1-2.1,5.3-3.3,5.3-3.3l0.1,0.2c0,0-1.7,1.9-4.4,4.4c-1.4,1.3-3,2.7-4.8,4.1c-1.8,1.4-3.9,2.8-5.9,4.3
		c-4,2.9-8,5.9-11,8.1c-3,2.2-5,3.6-5,3.6L341.4,325.3z"/>
</g>
<g id="XMLID_27_">
	<line id="XMLID_737_" class="st1" x1="373.7" y1="300.8" x2="445.8" y2="325.3"/>
	<path id="XMLID_736_" class="st1" d="M373.8,300.7c0,0,4.5,1.4,11.3,3.6c6.8,2.1,15.9,5.1,24.9,8c4.5,1.4,9.1,2.9,13.3,4.3
		c2.1,0.7,4.1,1.4,6.1,2.1c1.9,0.7,3.7,1.4,5.4,2c1.7,0.6,3.2,1.3,4.5,1.8c1.4,0.5,2.5,1,3.5,1.4c1.9,0.8,3,1.3,3,1.3l-0.1,0.2
		c0,0-1.2-0.3-3.2-0.8c-1-0.3-2.2-0.6-3.6-1c-1.4-0.4-3-0.8-4.7-1.4c-1.7-0.5-3.6-1.1-5.5-1.7c-2-0.6-4-1.3-6.1-2
		c-4.2-1.5-8.7-3.1-13.2-4.7c-9-3.2-17.9-6.4-24.6-8.9c-6.7-2.4-11.2-4.1-11.2-4.1L373.8,300.7z"/>
</g>
<g id="XMLID_32_">
	<path id="XMLID_734_" d="M567,362.6c0,0,0.5-1,1.3-2.4c0.8-1.4,1.8-3.3,2.9-5.2c0.5-0.9,1-1.9,1.5-2.8c0.6-0.8,1.2-1.6,1.7-2.2
		c1.1-1.2,2.1-1.9,2.1-1.9l0.2,0.1c0,0-0.2,1.1-0.9,2.6c-0.3,0.7-0.8,1.6-1.3,2.4c-0.6,0.8-1.3,1.6-1.9,2.5
		c-1.3,1.7-2.6,3.4-3.6,4.7c-1,1.3-1.7,2.1-1.7,2.1L567,362.6z"/>
</g>
<g id="XMLID_31_">
	<path id="XMLID_723_" d="M576.6,348.2c0,0,2.3,0.2,5.7,0.5c3.4,0.3,8,0.7,12.5,1.1c2.3,0.2,4.6,0.4,6.7,0.6c2.1,0.3,4.1,0.6,5.8,1
		c3.4,0.7,5.6,1.4,5.6,1.4l0,0.2c0,0-2.3,0.2-5.7,0c-1.7-0.1-3.7-0.2-5.8-0.5c-2.1-0.3-4.4-0.7-6.6-1.1c-4.5-0.7-9-1.4-12.4-2
		c-3.4-0.6-5.6-1-5.6-1L576.6,348.2z"/>
</g>
<g id="XMLID_30_">
	<path id="XMLID_711_" d="M612.7,352.7c0,0,2-1.7,5.1-4.3c3.1-2.6,7.2-6,11.3-9.4c2.1-1.7,4.1-3.5,6-5c2-1.5,3.9-2.9,5.6-4
		c3.3-2.3,5.7-3.6,5.7-3.6l0.1,0.2c0,0-1.8,2-4.8,4.7c-1.5,1.3-3.3,2.9-5.3,4.4c-2,1.5-4.2,3.1-6.3,4.6c-4.3,3.2-8.6,6.4-11.9,8.7
		c-3.3,2.3-5.4,3.9-5.4,3.9L612.7,352.7z"/>
</g>
<g id="XMLID_29_">
	<path id="XMLID_781_" d="M646.5,325.4c0,0-2-1.5-5-3.6c-3-2.2-7-5.1-11-8.1c-2-1.5-4-2.9-5.9-4.3c-1.8-1.4-3.5-2.9-4.9-4.1
		c-2.8-2.5-4.5-4.4-4.5-4.4l0.1-0.2c0,0,2.2,1.2,5.3,3.3c1.5,1,3.3,2.3,5.2,3.7c1.8,1.5,3.7,3.1,5.6,4.7c3.8,3.2,7.6,6.4,10.5,8.8
		c2.8,2.4,4.7,4,4.7,4L646.5,325.4z"/>
</g>
<g id="XMLID_28_">
	<path id="XMLID_805_" d="M614.2,300.9c0,0-4.6,1.6-11.4,4.1c-6.8,2.5-16,5.6-25.1,8.9c-4.6,1.6-9.1,3.3-13.4,4.7
		c-2.2,0.7-4.2,1.4-6.2,2c-2,0.6-3.9,1.2-5.6,1.7c-1.7,0.5-3.4,0.9-4.8,1.4c-1.4,0.4-2.7,0.7-3.7,1c-2.1,0.5-3.2,0.8-3.2,0.8
		l-0.1-0.2c0,0,1.1-0.5,3.1-1.3c1-0.4,2.2-0.9,3.6-1.4c1.4-0.5,2.9-1.2,4.6-1.8c1.7-0.6,3.6-1.3,5.5-2c2-0.7,4-1.4,6.2-2.1
		c4.3-1.4,9-2.8,13.6-4.3c9.2-2.9,18.5-5.9,25.4-8c6.9-2.2,11.6-3.6,11.6-3.6L614.2,300.9z"/>
</g>
<g id="XMLID_41_">
	<path id="XMLID_804_" class="st1" d="M349.5,274.9"/>
</g>
<g id="XMLID_40_">
	<path id="XMLID_803_" class="st1" d="M369.1,300.8"/>
</g>
<g id="XMLID_116_">
	<path id="XMLID_802_" class="st1" d="M349.5,274.9"/>
</g>
<g id="XMLID_115_">
	<path id="XMLID_801_" class="st3" d="M396.6,110.3"/>
</g>
<path id="XMLID_35_" class="st4" d="M402.1,109"/>
<g id="XMLID_34_">
	<path id="XMLID_800_" class="st3" d="M396.6,110.3"/>
</g>
<path id="XMLID_114_" class="st4" d="M402.1,109"/>
<g id="XMLID_110_">
	<path id="XMLID_799_" class="st1" d="M469.9,300.8"/>
</g>
<g id="XMLID_38_">
	<path id="XMLID_798_" class="st3" d="M617.1,300.8"/>
</g>
<g id="XMLID_112_">
	<path id="XMLID_797_" class="st3" d="M589.8,110.3"/>
</g>
<path id="XMLID_37_" class="st4" d="M584.3,109"/>
<g id="XMLID_36_">
	<path id="XMLID_796_" class="st3" d="M589.8,110.3"/>
</g>
<path id="XMLID_71_" class="st4" d="M584.3,109"/>
<g id="XMLID_111_">
	<path id="XMLID_666_" class="st3" d="M515.9,300.8"/>
</g>
<g id="XMLID_33_">
	<line id="XMLID_664_" class="st1" x1="349.5" y1="318.4" x2="301.8" y2="284.8"/>
	<path id="XMLID_663_" class="st1" d="M349.4,318.4c0,0-3-2-7.6-5c-4.6-3-10.6-7.1-16.7-11.2c-3-2-6.1-4-8.9-6c-1.4-1-2.7-1.9-4-2.9
		c-1.3-0.9-2.4-1.8-3.5-2.7c-4.3-3.4-7.1-5.8-7.1-5.8l0.1-0.2c0,0,3.2,1.7,7.9,4.7c1.2,0.7,2.4,1.5,3.7,2.4c1.3,0.9,2.7,1.8,4.1,2.8
		c2.8,2,5.7,4.2,8.6,6.4c5.9,4.3,11.8,8.6,16.2,11.9c4.4,3.3,7.3,5.4,7.3,5.4L349.4,318.4z"/>
</g>
<g id="XMLID_42_">
	<line id="XMLID_661_" class="st1" x1="301.8" y1="284.8" x2="249.3" y2="279.9"/>
	<path id="XMLID_660_" class="st1" d="M301.7,284.9c0,0-3.3-0.2-8.2-0.5c-4.9-0.3-11.5-0.8-18.1-1.3c-3.3-0.2-6.6-0.4-9.7-0.7
		c-3.1-0.3-5.9-0.7-8.4-1c-4.9-0.7-8.1-1.5-8.1-1.5l0-0.2c0,0,3.3-0.1,8.3,0.1c2.5,0.1,5.4,0.3,8.4,0.6c3.1,0.3,6.3,0.8,9.6,1.1
		c6.5,0.8,13.1,1.5,18,2.1c4.9,0.6,8.2,1,8.2,1L301.7,284.9z"/>
</g>
<g id="XMLID_43_">
	<line id="XMLID_658_" class="st1" x1="249.3" y1="279.9" x2="223.7" y2="261.4"/>
	<path id="XMLID_657_" class="st1" d="M249.2,280c0,0-1.7-1.1-4.1-2.7c-2.5-1.6-5.8-3.8-9-6c-1.6-1.1-3.3-2.1-4.8-3.2
		c-1.5-1.1-2.8-2.2-4-3.2c-2.2-1.9-3.6-3.5-3.6-3.5l0.1-0.2c0,0,1.9,0.8,4.4,2.3c1.3,0.8,2.7,1.7,4.2,2.8c1.5,1.1,3,2.4,4.6,3.6
		c3.1,2.4,6.2,4.8,8.5,6.7c2.3,1.9,3.8,3.1,3.8,3.1L249.2,280z"/>
</g>
<g id="XMLID_44_">
	<line id="XMLID_655_" class="st1" x1="223.7" y1="261.4" x2="218.4" y2="238.9"/>
	<path id="XMLID_654_" class="st1" d="M223.6,261.5c0,0-0.4-1.4-1.1-3.5c-0.7-2.1-1.5-4.9-2.3-7.6c-0.4-1.4-0.9-2.8-1.2-4.1
		c-0.3-1.3-0.5-2.6-0.6-3.7c-0.3-2.2-0.2-3.7-0.2-3.7l0.2,0c0,0,0.8,1.3,1.5,3.4c0.4,1,0.8,2.2,1.1,3.5c0.3,1.3,0.5,2.8,0.8,4.2
		c0.5,2.8,1.1,5.7,1.4,7.8c0.4,2.1,0.6,3.6,0.6,3.6L223.6,261.5z"/>
</g>
<g id="XMLID_45_">
	<line id="XMLID_652_" class="st1" x1="218.4" y1="238.9" x2="231.4" y2="253.3"/>
	<path id="XMLID_610_" class="st1" d="M218.4,238.9c0,0,0.9,0.8,2.2,2.1c1.3,1.2,3.1,3,4.8,4.7c0.9,0.9,1.8,1.7,2.6,2.5
		c0.8,0.8,1.4,1.7,1.9,2.5c1,1.5,1.5,2.7,1.5,2.7l-0.1,0.1c0,0-1.1-0.6-2.6-1.8c-0.7-0.6-1.5-1.3-2.3-2.1c-0.7-0.9-1.4-1.9-2.2-2.8
		c-1.5-1.9-3-3.8-4.1-5.2c-1.1-1.4-1.8-2.4-1.8-2.4L218.4,238.9z"/>
</g>
<g id="XMLID_46_">
	<line id="XMLID_608_" class="st1" x1="231.4" y1="253.3" x2="243" y2="261.4"/>
	<path id="XMLID_607_" class="st1" d="M231.4,253.3c0,0,3.2,1.7,6.2,3.5c0.8,0.5,1.6,0.8,2.3,1.3c0.7,0.5,1.3,1,1.7,1.5
		c0.9,1,1.4,1.8,1.4,1.8l-0.1,0.2c0,0-1-0.1-2.2-0.7c-0.6-0.3-1.3-0.6-2-1.1c-0.7-0.5-1.3-1.1-2-1.7c-2.8-2.2-5.4-4.6-5.4-4.6
		L231.4,253.3z"/>
</g>
<g id="XMLID_47_">
	<line id="XMLID_605_" class="st1" x1="242" y1="264" x2="263" y2="264"/>
	<path id="XMLID_604_" class="st1" d="M242,264c0,0,1.2-0.1,3.2-0.3c2-0.2,4.6-0.3,7.3-0.4c1.3-0.1,2.6-0.2,3.9-0.2
		c1.3,0,2.3,0.1,3.3,0.2c2,0.3,3.2,0.7,3.2,0.7v0.2c0,0-1.2,0.4-3.3,0.7c-1,0.1-2.1,0.2-3.4,0.2c-1.3,0-2.6-0.2-3.9-0.2
		c-2.7-0.2-5.2-0.3-7.2-0.4c-2-0.2-3.2-0.3-3.2-0.3V264z"/>
</g>
<g id="XMLID_48_">
	<line id="XMLID_602_" class="st1" x1="263.2" y1="262.8" x2="191.9" y2="175"/>
	<path id="XMLID_601_" class="st1" d="M263.1,262.9c0,0-4.5-5.4-11.3-13.6c-6.8-8.1-15.8-19-24.9-29.9c-4.5-5.4-9.1-10.8-13.3-16
		c-2.1-2.6-4.1-5.1-6-7.5c-1.9-2.4-3.6-4.7-5.3-6.7c-1.6-2.1-3.1-4-4.4-5.8c-1.3-1.7-2.4-3.2-3.3-4.5c-1.8-2.5-2.9-3.9-2.9-3.9
		l0.2-0.1c0,0,1.2,1.3,3.3,3.6c1,1.1,2.3,2.6,3.7,4.2c1.4,1.6,3,3.4,4.7,5.5c1.7,2,3.6,4.2,5.5,6.5c2,2.3,4,4.8,6.1,7.4
		c4.2,5.2,8.5,10.7,12.9,16.3c8.8,11.1,17.6,22.1,24.2,30.4c6.6,8.3,10.9,13.9,10.9,13.9L263.1,262.9z"/>
</g>
<g id="XMLID_49_">
	<line id="XMLID_599_" class="st1" x1="191.9" y1="175" x2="187" y2="150.3"/>
	<path id="XMLID_598_" class="st1" d="M191.8,175.1c0,0-0.4-1.5-1-3.8c-0.6-2.3-1.4-5.4-2.1-8.4c-0.4-1.5-0.8-3.1-1.1-4.5
		c-0.3-1.5-0.5-2.8-0.6-4c-0.2-2.4-0.1-4-0.1-4l0.2,0c0,0,0.7,1.5,1.5,3.7c0.4,1.1,0.7,2.5,1,3.9c0.3,1.5,0.4,3,0.7,4.6
		c0.5,3.1,1,6.2,1.3,8.6c0.3,2.4,0.5,3.9,0.5,3.9L191.8,175.1z"/>
</g>
<g id="XMLID_50_">
	<line id="XMLID_596_" class="st1" x1="187" y1="150.3" x2="189.4" y2="129.1"/>
	<path id="XMLID_595_" class="st1" d="M186.9,150.3c0,0,0.1-1.3,0.1-3.3c0.1-2,0.3-4.7,0.4-7.3c0.1-1.3,0.1-2.7,0.2-3.9
		c0.1-1.2,0.4-2.4,0.6-3.4c0.5-2,1.1-3.2,1.1-3.2l0.2,0c0,0,0.3,1.4,0.3,3.4c0,1,0,2.2-0.2,3.4c-0.2,1.2-0.5,2.5-0.7,3.9
		c-0.5,2.6-0.9,5.3-1.3,7.2c-0.4,2-0.6,3.3-0.6,3.3L186.9,150.3z"/>
</g>
<g id="XMLID_51_">
	<line id="XMLID_593_" class="st1" x1="189.4" y1="129.1" x2="191.9" y2="150.3"/>
	<path id="XMLID_592_" class="st1" d="M189.5,129.1c0,0,0.3,1.3,0.6,3.3c0.4,2,0.8,4.6,1.3,7.2c0.2,1.3,0.5,2.6,0.7,3.9
		c0.1,1.2,0.2,2.4,0.2,3.4c0,2-0.3,3.4-0.3,3.4l-0.2,0c0,0-0.6-1.3-1.1-3.2c-0.2-1-0.5-2.1-0.6-3.4c-0.1-1.2-0.1-2.6-0.2-3.9
		c-0.2-2.7-0.3-5.3-0.4-7.3c-0.1-2-0.1-3.3-0.1-3.3L189.5,129.1z"/>
</g>
<g id="XMLID_52_">
	<line id="XMLID_590_" class="st1" x1="191.9" y1="150.3" x2="214.3" y2="178.2"/>
	<path id="XMLID_589_" class="st1" d="M192,150.2c0,0,1.5,1.7,3.7,4.2c2.2,2.5,5.1,5.9,8.1,9.3c1.5,1.7,3,3.4,4.3,5
		c1.3,1.6,2.5,3.2,3.4,4.6c1.9,2.8,3,4.8,3,4.8l-0.2,0.1c0,0-1.7-1.5-4-3.9c-1.2-1.2-2.5-2.7-3.8-4.3c-1.3-1.7-2.6-3.5-3.9-5.3
		c-2.7-3.6-5.4-7.1-7.4-9.9c-2-2.7-3.3-4.5-3.3-4.5L192,150.2z"/>
</g>
<g id="XMLID_53_">
	<line id="XMLID_587_" class="st1" x1="214.3" y1="178.2" x2="211.6" y2="89.5"/>
	<path id="XMLID_586_" class="st1" d="M214.2,178.2c0,0-0.3-5.5-0.7-13.8c-0.4-8.3-0.9-19.4-1.4-30.5c-0.3-5.5-0.5-11.1-0.7-16.3
		c-0.1-2.6-0.1-5.1-0.2-7.5c0-2.4,0-4.6,0-6.7c0-2.1,0-4,0.1-5.7c0-1.7,0-3.2,0.1-4.4c0.1-2.4,0.1-3.8,0.1-3.8l0.2,0
		c0,0,0.2,1.4,0.4,3.8c0.1,1.2,0.2,2.7,0.4,4.4c0.1,1.7,0.3,3.6,0.4,5.7c0.1,2.1,0.3,4.3,0.4,6.7c0.1,2.4,0.2,4.9,0.3,7.5
		c0.1,5.2,0.2,10.7,0.3,16.3c0.2,11.1,0.4,22.2,0.5,30.5c0.1,8.3,0.2,13.9,0.2,13.9L214.2,178.2z"/>
</g>
<g id="XMLID_54_">
	<line id="XMLID_584_" class="st1" x1="211.6" y1="89.5" x2="244.8" y2="29.7"/>
	<path id="XMLID_583_" class="st1" d="M211.5,89.5c0,0,2-3.8,5-9.5c3-5.7,7-13.2,11-20.8c2-3.8,4-7.6,5.9-11.1c1-1.7,1.9-3.4,2.9-5
		c0.9-1.6,1.8-3.1,2.7-4.4c0.8-1.4,1.6-2.6,2.3-3.7c0.7-1.1,1.3-2.1,1.8-2.8c1-1.6,1.6-2.4,1.6-2.4l0.2,0.1c0,0-0.4,1-1.2,2.7
		c-0.4,0.9-0.9,1.9-1.4,3.1c-0.6,1.2-1.2,2.5-1.9,3.9c-0.7,1.4-1.5,3-2.4,4.6c-0.8,1.6-1.8,3.3-2.7,5.1c-2,3.5-4.2,7.2-6.3,10.9
		c-4.3,7.4-8.5,14.8-11.8,20.4c-3.2,5.5-5.4,9.2-5.4,9.2L211.5,89.5z"/>
</g>
<g id="XMLID_55_">
	<line id="XMLID_581_" class="st1" x1="244.8" y1="29.7" x2="256" y2="27.9"/>
	<path id="XMLID_580_" class="st1" d="M244.8,29.6c0,0,2.7-0.9,5.5-1.6c0.7-0.2,1.4-0.5,2-0.6c0.7-0.1,1.3-0.1,1.8,0
		c1.1,0.1,1.9,0.4,1.9,0.4l0,0.2c0,0-0.6,0.6-1.6,1c-0.5,0.2-1.1,0.4-1.8,0.5c-0.7,0.1-1.4,0-2.1,0.1c-2.8,0.2-5.7,0.2-5.7,0.2
		L244.8,29.6z"/>
</g>
<g id="XMLID_56_">
	<line id="XMLID_578_" class="st1" x1="256" y1="27.9" x2="231.4" y2="75.6"/>
	<path id="XMLID_577_" class="st1" d="M256.1,27.9c0,0-1.5,3-3.6,7.6c-2.2,4.6-5.1,10.6-8.1,16.6c-1.5,3-2.9,6.1-4.3,8.9
		c-1.4,2.8-2.9,5.4-4.2,7.5c-2.5,4.4-4.5,7.1-4.5,7.1l-0.2-0.1c0,0,1.1-3.2,3.2-7.8c1-2.3,2.3-5,3.7-7.8c1.5-2.8,3.1-5.7,4.7-8.6
		c3.2-5.9,6.4-11.8,8.9-16.2c2.4-4.4,4.1-7.3,4.1-7.3L256.1,27.9z"/>
</g>
<g id="XMLID_57_">
	<line id="XMLID_575_" class="st1" x1="231.4" y1="75.6" x2="239.9" y2="133.9"/>
	<path id="XMLID_574_" class="st1" d="M231.5,75.6c0,0,0.6,3.6,1.6,9.1c1,5.4,2.2,12.7,3.4,20c0.6,3.6,1.3,7.3,1.8,10.7
		c0.2,1.7,0.5,3.4,0.6,4.9c0.2,1.6,0.3,3.1,0.5,4.4c0.5,5.5,0.6,9.2,0.6,9.2l-0.2,0c0,0-1-3.6-2-9c-0.3-1.4-0.5-2.8-0.8-4.4
		c-0.3-1.6-0.5-3.2-0.8-4.9c-0.5-3.4-0.9-7.1-1.3-10.7c-0.9-7.3-1.9-14.6-2.5-20.1c-0.7-5.5-1.1-9.1-1.1-9.1L231.5,75.6z"/>
</g>
<g id="XMLID_58_">
	<line id="XMLID_572_" class="st1" x1="239.9" y1="133.9" x2="275.5" y2="89.5"/>
	<path id="XMLID_571_" class="st1" d="M239.8,133.8c0,0,2.1-2.8,5.4-7.1c3.2-4.3,7.6-9.9,11.9-15.5c2.2-2.8,4.3-5.7,6.4-8.3
		c1.1-1.3,2.1-2.5,3.1-3.7c1-1.2,1.9-2.3,2.8-3.2c3.5-4,6.1-6.5,6.1-6.5l0.2,0.1c0,0-1.9,3-5,7.4c-0.8,1.1-1.6,2.2-2.6,3.5
		c-0.9,1.2-1.9,2.5-3,3.8c-2.1,2.6-4.4,5.3-6.7,8c-4.6,5.4-9.1,10.9-12.6,15c-3.5,4.1-5.8,6.8-5.8,6.8L239.8,133.8z"/>
</g>
<g id="XMLID_59_">
	<line id="XMLID_569_" class="st1" x1="275.5" y1="89.5" x2="294.1" y2="41.8"/>
	<path id="XMLID_568_" class="st1" d="M275.4,89.5c0,0,1.1-3,2.7-7.5c1.6-4.5,3.8-10.5,6-16.6c1.1-3,2.1-6,3.2-8.8
		c1.1-2.8,2.2-5.4,3.2-7.6c2-4.4,3.6-7.2,3.6-7.2l0.2,0.1c0,0-0.7,3.1-2.3,7.7c-0.7,2.3-1.7,4.9-2.8,7.7c-1.1,2.8-2.4,5.7-3.6,8.7
		c-2.5,5.9-4.9,11.8-6.8,16.2c-1.9,4.4-3.1,7.4-3.1,7.4L275.4,89.5z"/>
</g>
<g id="XMLID_60_">
	<line id="XMLID_566_" class="st1" x1="294.1" y1="41.8" x2="284.8" y2="102.1"/>
	<path id="XMLID_565_" class="st1" d="M294.2,41.9c0,0-0.5,3.8-1.2,9.5c-0.7,5.7-1.7,13.2-2.8,20.8c-0.5,3.8-1,7.6-1.5,11.1
		c-0.3,1.8-0.6,3.5-0.9,5.1c-0.3,1.6-0.6,3.1-0.9,4.5c-1.1,5.6-2.1,9.3-2.1,9.3l-0.2,0c0,0,0.1-3.8,0.8-9.5c0.1-1.4,0.3-3,0.5-4.6
		c0.2-1.6,0.5-3.3,0.7-5.1c0.6-3.5,1.3-7.3,1.9-11c1.3-7.5,2.6-15,3.6-20.7c1-5.6,1.7-9.4,1.7-9.4L294.2,41.9z"/>
</g>
<g id="XMLID_61_">
	<line id="XMLID_563_" class="st1" x1="284.8" y1="102.1" x2="260.1" y2="162.7"/>
	<path id="XMLID_562_" class="st1" d="M284.9,102.2c0,0-1.5,3.8-3.6,9.6c-2.2,5.7-5.1,13.4-8.1,21c-1.5,3.8-2.9,7.6-4.3,11.2
		c-0.8,1.8-1.4,3.5-2.2,5.1c-0.7,1.6-1.4,3.1-2,4.5c-0.6,1.4-1.3,2.7-1.8,3.8c-0.5,1.1-1,2.1-1.4,2.9c-0.8,1.6-1.3,2.5-1.3,2.5
		l-0.2-0.1c0,0,0.3-1,0.8-2.7c0.3-0.9,0.6-1.9,1-3.1c0.4-1.2,0.8-2.5,1.4-4c0.5-1.4,1.1-3,1.7-4.6c0.6-1.6,1.3-3.4,2-5.1
		c1.5-3.5,3.1-7.3,4.8-11c3.2-7.5,6.5-15,8.9-20.6c2.5-5.6,4.1-9.4,4.1-9.4L284.9,102.2z"/>
</g>
<g id="XMLID_62_">
	<line id="XMLID_560_" class="st1" x1="260.1" y1="162.7" x2="272.4" y2="152.1"/>
	<path id="XMLID_559_" class="st1" d="M260,162.6c0,0,0.7-0.8,1.8-1.8c1.1-1.1,2.5-2.5,4-4c0.7-0.7,1.4-1.5,2.1-2.1
		c0.7-0.6,1.5-1.1,2.1-1.5c1.3-0.8,2.4-1.1,2.4-1.1l0.1,0.2c0,0-0.5,1-1.5,2.2c-0.5,0.6-1.1,1.3-1.8,1.9c-0.7,0.6-1.6,1.1-2.4,1.8
		c-1.6,1.2-3.3,2.4-4.5,3.3c-1.3,0.9-2.1,1.5-2.1,1.5L260,162.6z"/>
</g>
<g id="XMLID_63_">
	<line id="XMLID_557_" class="st1" x1="272.4" y1="152.1" x2="269.9" y2="164.2"/>
	<path id="XMLID_556_" class="st1" d="M272.5,152.1c0,0-0.2,3.1-0.6,6.2c-0.1,0.8-0.1,1.6-0.2,2.3c-0.1,0.7-0.4,1.4-0.6,1.9
		c-0.5,1.1-1.1,1.8-1.1,1.8l-0.2,0c0,0-0.3-0.9-0.3-2c0-0.6,0-1.3,0.2-2c0.2-0.7,0.5-1.4,0.7-2.2c0.9-3,1.9-5.9,1.9-5.9L272.5,152.1
		z"/>
</g>
<g id="XMLID_64_">
	<line id="XMLID_554_" class="st1" x1="269.9" y1="164.2" x2="278" y2="238.9"/>
	<path id="XMLID_551_" class="st1" d="M270,164.2c0,0,0.6,4.7,1.5,11.6c0.9,7,2.1,16.3,3.2,25.6c0.6,4.7,1.2,9.3,1.7,13.7
		c0.2,2.2,0.5,4.3,0.6,6.3c0.2,2,0.3,3.9,0.4,5.7c0.1,1.8,0.2,3.4,0.3,4.8c0.1,1.4,0.1,2.7,0.2,3.7c0.1,2.1,0.1,3.2,0.1,3.2l-0.2,0
		c0,0-0.2-1.2-0.6-3.2c-0.2-1-0.4-2.2-0.6-3.7c-0.2-1.4-0.5-3-0.7-4.8c-0.3-1.7-0.5-3.6-0.8-5.6c-0.3-2-0.5-4.1-0.8-6.3
		c-0.4-4.4-0.8-9.1-1.2-13.7c-0.9-9.4-1.7-18.7-2.3-25.7c-0.6-7-1-11.7-1-11.7L270,164.2z"/>
</g>
<g id="XMLID_65_">
	<line id="XMLID_545_" class="st1" x1="278" y1="238.9" x2="289.5" y2="253.3"/>
	<path id="XMLID_543_" class="st1" d="M278.1,238.9c0,0,0.8,0.8,2,2.1c1.2,1.2,2.7,3,4.3,4.7c0.8,0.9,1.6,1.7,2.3,2.5
		c0.7,0.8,1.2,1.7,1.7,2.5c0.9,1.5,1.2,2.7,1.2,2.7l-0.2,0.1c0,0-1.1-0.6-2.3-1.8c-0.6-0.6-1.4-1.3-2-2.2c-0.7-0.9-1.3-1.9-1.9-2.8
		c-1.3-1.9-2.7-3.8-3.6-5.2c-1-1.4-1.6-2.4-1.6-2.4L278.1,238.9z"/>
</g>
<g id="XMLID_66_">
	<line id="XMLID_532_" class="st1" x1="289.5" y1="253.3" x2="381.8" y2="284.8"/>
	<path id="XMLID_531_" class="st1" d="M289.5,253.2c0,0,5.8,1.9,14.5,4.7c8.7,2.8,20.3,6.6,31.9,10.4c5.8,1.9,11.6,3.7,17,5.6
		c2.7,1,5.3,1.8,7.8,2.7c2.5,0.9,4.8,1.8,6.9,2.5c2.1,0.8,4.1,1.6,5.8,2.2c1.7,0.7,3.2,1.3,4.5,1.8c2.5,1,3.9,1.6,3.9,1.6l-0.1,0.2
		c0,0-1.5-0.4-4-1.1c-1.3-0.4-2.8-0.8-4.6-1.3c-1.8-0.5-3.8-1.1-6-1.8c-2.2-0.7-4.5-1.4-7-2.2c-2.5-0.8-5.1-1.7-7.8-2.6
		c-5.4-1.9-11.1-4-16.9-6c-11.5-4.1-23-8.2-31.6-11.3c-8.6-3.1-14.3-5.2-14.3-5.2L289.5,253.2z"/>
</g>
<g id="XMLID_67_">
	<line id="XMLID_524_" class="st1" x1="381.8" y1="284.8" x2="342.6" y2="246.1"/>
	<path id="XMLID_523_" class="st1" d="M381.7,284.9c0,0-2.5-2.3-6.3-5.9c-3.8-3.5-8.8-8.3-13.8-13c-2.5-2.4-5.1-4.7-7.4-6.9
		c-1.1-1.2-2.3-2.2-3.3-3.3c-1-1.1-2-2.1-2.9-3c-3.5-3.8-5.6-6.5-5.6-6.5l0.1-0.1c0,0,2.8,2.1,6.6,5.5c1,0.9,2,1.8,3.1,2.8
		c1.1,1,2.2,2.1,3.4,3.2c2.3,2.3,4.6,4.8,7,7.3c4.8,4.9,9.6,9.9,13.2,13.6c3.6,3.7,6,6.2,6,6.2L381.7,284.9z"/>
</g>
<g id="XMLID_68_">
	<line id="XMLID_518_" class="st1" x1="342.6" y1="246.1" x2="344.4" y2="231.3"/>
	<path id="XMLID_512_" class="st1" d="M342.5,246.1c0,0,0-3.8,0.2-7.5c0.1-0.9,0-1.9,0.1-2.8c0.1-0.9,0.3-1.7,0.5-2.3
		c0.4-1.4,1-2.2,1-2.2l0.2,0c0,0,0.3,1,0.4,2.4c0.1,0.7,0.1,1.5,0,2.4c-0.1,0.9-0.4,1.8-0.6,2.7c-0.7,3.7-1.6,7.3-1.6,7.3
		L342.5,246.1z"/>
</g>
<g id="XMLID_69_">
	<line id="XMLID_508_" class="st1" x1="344.4" y1="231.3" x2="349.5" y2="242.5"/>
	<path id="XMLID_505_" class="st1" d="M344.4,231.2c0,0,1.7,2.6,3.2,5.3c0.4,0.7,0.9,1.3,1.2,2c0.3,0.7,0.5,1.3,0.6,1.9
		c0.3,1.2,0.2,2,0.2,2l-0.2,0.1c0,0-0.7-0.5-1.4-1.5c-0.4-0.5-0.7-1-1-1.7c-0.3-0.7-0.5-1.4-0.7-2.2c-1.1-2.9-1.9-5.9-1.9-5.9
		L344.4,231.2z"/>
</g>
<g id="XMLID_70_">
	<line id="XMLID_487_" class="st1" x1="349.5" y1="242.5" x2="389.2" y2="274.9"/>
	<path id="XMLID_483_" class="st1" d="M349.6,242.5c0,0,2.5,1.9,6.4,4.9c3.8,2.9,8.9,6.9,13.9,10.8c2.5,2,5.1,3.9,7.4,5.8
		c2.3,1.9,4.4,3.8,6.2,5.4c3.6,3.2,5.8,5.6,5.8,5.6l-0.1,0.2c0,0-2.8-1.7-6.6-4.5c-1.9-1.4-4.2-3.1-6.5-5c-2.3-1.9-4.7-4.1-7.1-6.1
		c-4.9-4.2-9.7-8.3-13.4-11.5c-3.6-3.2-6-5.3-6-5.3L349.6,242.5z"/>
</g>
<g id="XMLID_72_">
	<line id="XMLID_475_" class="st1" x1="389.2" y1="274.9" x2="353.3" y2="222.3"/>
	<path id="XMLID_471_" class="st1" d="M389.1,275c0,0-2.3-3.2-5.8-8.1c-3.5-4.8-8.1-11.4-12.7-17.8c-2.3-3.2-4.7-6.5-6.8-9.5
		c-1-1.6-2.1-3-3-4.5c-0.9-1.4-1.8-2.8-2.6-4.1c-3.2-5.1-5-8.6-5-8.6l0.2-0.1c0,0,2.6,3,6.2,7.8c0.9,1.2,1.9,2.5,2.9,3.9
		c1,1.4,2,2.9,3.1,4.4c2.1,3.1,4.2,6.5,6.4,9.8c4.4,6.7,8.7,13.3,12,18.4c3.2,5,5.4,8.4,5.4,8.4L389.1,275z"/>
</g>
<g id="XMLID_73_">
	<line id="XMLID_467_" class="st1" x1="352" y1="224" x2="352" y2="167"/>
	<path id="XMLID_463_" class="st1" d="M351.9,224c0,0-0.1-3.7-0.3-9c-0.2-5.3-0.3-12.5-0.5-19.6c-0.1-3.5-0.2-7.1-0.2-10.5
		c0-1.7,0-3.3,0.1-4.8c0-1.5,0.1-2.9,0.2-4.3c0.3-5.3,0.7-8.8,0.7-8.8h0.2c0,0,0.4,3.5,0.7,8.8c0.1,1.3,0.1,2.8,0.2,4.3
		c0.1,1.5,0,3.1,0.1,4.8c0,3.3-0.2,6.9-0.2,10.4c-0.2,7.1-0.3,14.4-0.5,19.7c-0.1,5.3-0.3,9-0.3,9H351.9z"/>
</g>
<g id="XMLID_74_">
	<line id="XMLID_459_" class="st1" x1="353.3" y1="166.9" x2="359.1" y2="189.4"/>
	<path id="XMLID_455_" class="st1" d="M353.4,166.9c0,0,0.5,1.4,1.2,3.5c0.7,2.1,1.6,4.8,2.4,7.6c0.4,1.4,0.9,2.8,1.3,4.1
		c0.3,1.3,0.6,2.6,0.7,3.7c0.3,2.2,0.2,3.7,0.2,3.7l-0.2,0.1c0,0-0.8-1.3-1.6-3.3c-0.4-1-0.8-2.2-1.2-3.5c-0.3-1.3-0.5-2.8-0.8-4.2
		c-0.6-2.9-1.2-5.7-1.6-7.8c-0.4-2.1-0.7-3.6-0.7-3.6L353.4,166.9z"/>
</g>
<g id="XMLID_75_">
	<line id="XMLID_795_" class="st1" x1="359.1" y1="189.4" x2="362.2" y2="218.9"/>
	<path id="XMLID_783_" class="st1" d="M359.2,189.4c0,0,0.3,1.8,0.7,4.6c0.4,2.7,0.9,6.4,1.5,10.1c0.3,1.8,0.6,3.7,0.8,5.4
		c0.2,1.7,0.2,3.3,0.2,4.7c0,2.8-0.2,4.7-0.2,4.7l-0.2,0c0,0-0.6-1.8-1.2-4.5c-0.3-1.4-0.5-3-0.7-4.7c-0.2-1.7-0.2-3.6-0.3-5.4
		c-0.2-3.7-0.5-7.4-0.6-10.2c-0.1-2.8-0.2-4.6-0.2-4.6L359.2,189.4z"/>
</g>
<g id="XMLID_118_">
	<path id="XMLID_794_" class="st3" d="M635.9,274.9"/>
</g>
<g id="XMLID_117_">
	<path id="XMLID_431_" class="st3" d="M635.9,274.9"/>
</g>
<g id="XMLID_113_">
	<path id="XMLID_427_" d="M635.9,318.3c0,0,2.9-2.2,7.3-5.4c4.4-3.3,10.3-7.6,16.2-11.9c3-2.2,5.9-4.4,8.7-6.4
		c1.4-1,2.8-1.9,4.1-2.8c1.3-0.9,2.6-1.7,3.7-2.4c4.6-2.9,7.9-4.7,7.9-4.7l0.1,0.2c0,0-2.7,2.5-7.1,5.8c-1.1,0.8-2.3,1.7-3.5,2.7
		c-1.3,0.9-2.6,1.9-4,2.9c-2.8,1.9-5.9,3.9-8.9,6c-6.1,4.1-12.1,8.2-16.7,11.2c-4.6,3-7.6,5-7.6,5L635.9,318.3z"/>
</g>
<g id="XMLID_109_">
	<path id="XMLID_420_" d="M683.9,284.7c0,0,3.3-0.4,8.2-1c4.9-0.6,11.5-1.4,18.1-2.1c3.3-0.4,6.6-0.8,9.6-1.1c3.1-0.3,6-0.5,8.5-0.6
		c5-0.2,8.3-0.1,8.3-0.1l0,0.2c0,0-3.2,0.8-8.2,1.5c-2.5,0.4-5.3,0.7-8.4,1c-3.1,0.3-6.4,0.4-9.7,0.7c-6.6,0.5-13.2,1-18.1,1.3
		c-4.9,0.3-8.2,0.5-8.2,0.5L683.9,284.7z"/>
</g>
<g id="XMLID_108_">
	<path id="XMLID_399_" d="M736.5,279.8c0,0,1.5-1.2,3.9-3.1c2.3-1.9,5.4-4.3,8.6-6.7c1.6-1.2,3.1-2.5,4.6-3.6c1.5-1.1,3-2,4.2-2.8
		c2.6-1.5,4.4-2.3,4.4-2.3l0.1,0.2c0,0-1.3,1.5-3.6,3.5c-1.1,1-2.5,2.1-4,3.2c-1.5,1.1-3.2,2.1-4.9,3.2c-3.3,2.2-6.6,4.4-9.1,6
		c-2.5,1.6-4.2,2.7-4.2,2.7L736.5,279.8z"/>
</g>
<g id="XMLID_107_">
	<path id="XMLID_395_" d="M762.1,261.4c0,0,0.2-1.4,0.6-3.6c0.3-2.1,0.9-5,1.4-7.8c0.3-1.4,0.5-2.9,0.8-4.2c0.3-1.3,0.7-2.5,1.1-3.5
		c0.8-2.1,1.5-3.4,1.5-3.4l0.2,0c0,0,0.1,1.5-0.2,3.7c-0.1,1.1-0.3,2.3-0.6,3.7c-0.3,1.3-0.8,2.7-1.2,4.1c-0.8,2.8-1.6,5.6-2.3,7.6
		c-0.7,2.1-1.1,3.5-1.1,3.5L762.1,261.4z"/>
</g>
<g id="XMLID_106_">
	<path id="XMLID_386_" d="M767.6,239c0,0-0.7,1-1.8,2.4c-1.1,1.5-2.6,3.3-4.2,5.2c-0.8,0.9-1.5,1.9-2.2,2.8
		c-0.8,0.8-1.6,1.6-2.3,2.1c-1.4,1.2-2.6,1.8-2.6,1.8l-0.1-0.1c0,0,0.5-1.2,1.5-2.7c0.5-0.8,1.1-1.6,1.9-2.5
		c0.8-0.8,1.7-1.6,2.6-2.5c1.7-1.7,3.5-3.4,4.8-4.7c1.3-1.3,2.2-2.1,2.2-2.1L767.6,239z"/>
</g>
<g id="XMLID_105_">
	<path id="XMLID_383_" d="M754.6,253.4c0,0-2.7,2.4-5.5,4.6c-0.7,0.6-1.3,1.2-2,1.7c-0.7,0.5-1.4,0.8-2,1.1
		c-1.2,0.6-2.2,0.7-2.2,0.7l-0.1-0.2c0,0,0.5-0.9,1.4-1.8c0.5-0.5,1.1-1,1.7-1.5c0.7-0.5,1.5-0.8,2.3-1.3c3.1-1.8,6.2-3.5,6.2-3.5
		L754.6,253.4z"/>
</g>
<g id="XMLID_104_">
	<path id="XMLID_381_" d="M744,264.2c0,0-1.3,0.1-3.3,0.3c-2,0.2-4.7,0.3-7.4,0.4c-1.3,0.1-2.7,0.2-4,0.2c-1.3,0-2.7-0.1-3.7-0.2
		c-2-0.3-3.6-0.7-3.6-0.7V264c0,0,1.6-0.4,3.6-0.7c1-0.1,2.3-0.2,3.6-0.2c1.3,0,2.7,0.2,4,0.2c2.7,0.2,5.4,0.3,7.4,0.4
		c2,0.2,3.4,0.3,3.4,0.3V264.2z"/>
</g>
<g id="XMLID_103_">
	<path id="XMLID_379_" d="M722.5,262.7c0,0,4.4-5.5,11-13.9c6.6-8.3,15.4-19.4,24.2-30.4c4.4-5.5,8.8-11.1,12.9-16.3
		c2.1-2.6,4.1-5.1,6.1-7.4c2-2.3,3.8-4.5,5.5-6.5c1.7-2,3.3-3.8,4.7-5.5c1.4-1.6,2.7-3,3.7-4.2c2.1-2.3,3.3-3.6,3.3-3.6l0.2,0.1
		c0,0-1,1.4-2.9,3.9c-0.9,1.3-2,2.8-3.4,4.5c-1.3,1.7-2.8,3.7-4.4,5.8c-1.6,2.1-3.4,4.4-5.3,6.7c-1.9,2.4-3.9,4.9-6,7.5
		c-4.2,5.1-8.8,10.5-13.3,16c-9.1,10.9-18.1,21.7-24.9,29.9c-6.8,8.1-11.4,13.6-11.4,13.6L722.5,262.7z"/>
</g>
<g id="XMLID_102_">
	<path id="XMLID_377_" d="M794,175c0,0,0.2-1.6,0.5-3.9c0.3-2.4,0.8-5.5,1.3-8.6c0.2-1.6,0.4-3.1,0.7-4.6c0.3-1.4,0.7-2.8,1-3.9
		c0.7-2.3,1.5-3.7,1.5-3.7l0.2,0c0,0,0.1,1.6-0.1,4c-0.1,1.2-0.3,2.6-0.6,4c-0.3,1.4-0.8,3-1.1,4.5c-0.8,3.1-1.5,6.1-2.1,8.4
		c-0.6,2.3-1,3.8-1,3.8L794,175z"/>
</g>
<g id="XMLID_101_">
	<path id="XMLID_375_" d="M799,150.3c0,0-0.3-1.3-0.6-3.3c-0.4-2-0.8-4.6-1.3-7.2c-0.2-1.3-0.5-2.6-0.7-3.9
		c-0.1-1.2-0.2-2.4-0.2-3.4c0-2,0.3-3.4,0.3-3.4l0.2,0c0,0,0.6,1.3,1.1,3.2c0.3,1,0.5,2.1,0.6,3.4c0.1,1.2,0.1,2.6,0.2,3.9
		c0.2,2.7,0.3,5.3,0.4,7.3c0.1,2,0.1,3.3,0.1,3.3L799,150.3z"/>
</g>
<g id="XMLID_100_">
	<path id="XMLID_373_" d="M796.7,129.2c0,0-0.1,1.3-0.1,3.3c-0.1,2-0.3,4.7-0.4,7.3c-0.1,1.3-0.1,2.7-0.2,3.9
		c-0.1,1.2-0.4,2.4-0.6,3.4c-0.5,2-1.1,3.2-1.1,3.2l-0.2,0c0,0-0.3-1.4-0.3-3.4c0-1,0-2.2,0.2-3.4c0.2-1.2,0.5-2.5,0.7-3.9
		c0.5-2.6,0.9-5.3,1.3-7.2c0.4-2,0.6-3.3,0.6-3.3L796.7,129.2z"/>
</g>
<g id="XMLID_99_">
	<path id="XMLID_371_" d="M794.2,150.4c0,0-1.3,1.8-3.3,4.5c-2,2.7-4.7,6.3-7.4,9.9c-1.3,1.8-2.6,3.6-3.9,5.3
		c-1.3,1.6-2.6,3.1-3.8,4.3c-2.3,2.5-4.1,3.9-4.1,3.9l-0.2-0.1c0,0,1.1-2,3-4.8c0.9-1.4,2.1-3,3.4-4.6c1.3-1.6,2.9-3.3,4.3-5
		c2.9-3.4,5.8-6.8,8.1-9.3c2.2-2.5,3.7-4.2,3.7-4.2L794.2,150.4z"/>
</g>
<g id="XMLID_98_">
	<path id="XMLID_369_" d="M771.5,178.2c0,0,0.1-5.5,0.2-13.9c0.1-8.3,0.3-19.4,0.5-30.5c0.1-5.5,0.1-11.1,0.3-16.3
		c0.1-2.6,0.2-5.1,0.3-7.5c0.1-2.4,0.2-4.6,0.4-6.7c0.1-2.1,0.3-4,0.4-5.7c0.1-1.7,0.2-3.2,0.4-4.4c0.2-2.4,0.4-3.8,0.4-3.8l0.2,0
		c0,0,0.1,1.4,0.1,3.8c0,1.2,0.1,2.7,0.1,4.4c0,1.7,0.1,3.6,0.1,5.7c0,2.1,0,4.3,0,6.7c0,2.4-0.1,4.9-0.2,7.5
		c-0.2,5.2-0.5,10.7-0.7,16.3c-0.5,11.1-1,22.2-1.4,30.5c-0.4,8.3-0.7,13.8-0.7,13.8L771.5,178.2z"/>
</g>
<g id="XMLID_97_">
	<path id="XMLID_367_" d="M774.2,89.6c0,0-2.2-3.7-5.4-9.2c-3.3-5.5-7.5-12.9-11.8-20.4c-2.2-3.7-4.3-7.4-6.3-10.9
		c-1-1.8-1.9-3.5-2.7-5.1c-0.9-1.6-1.7-3.2-2.4-4.6c-0.7-1.4-1.4-2.8-1.9-3.9c-0.6-1.2-1.1-2.2-1.4-3.1c-0.8-1.7-1.2-2.7-1.2-2.7
		l0.2-0.1c0,0,0.6,0.9,1.7,2.4c0.5,0.8,1.1,1.7,1.8,2.8c0.7,1.1,1.5,2.3,2.3,3.7c0.8,1.4,1.7,2.9,2.7,4.4c0.9,1.6,1.9,3.3,2.9,5
		c1.9,3.5,3.9,7.3,5.9,11.1c4,7.6,8.1,15.1,11.1,20.8c3,5.7,5,9.5,5,9.5L774.2,89.6z"/>
</g>
<g id="XMLID_96_">
	<path id="XMLID_365_" d="M741,29.8c0,0-2.9,0-5.7-0.2c-0.7-0.1-1.4,0-2.1-0.1c-0.7-0.1-1.3-0.3-1.8-0.5c-1-0.4-1.6-1-1.6-1l0-0.2
		c0,0,0.8-0.3,1.9-0.4c0.5-0.1,1.2-0.1,1.8,0c0.7,0.1,1.3,0.4,2,0.6c2.8,0.7,5.5,1.6,5.5,1.6L741,29.8z"/>
</g>
<g id="XMLID_95_">
	<path id="XMLID_356_" d="M729.9,27.8c0,0,1.6,2.9,4.1,7.3c2.5,4.4,5.7,10.3,8.9,16.2c1.6,2.9,3.3,5.9,4.8,8.6
		c1.4,2.8,2.7,5.5,3.7,7.8c2.1,4.6,3.2,7.8,3.2,7.8l-0.2,0.1c0,0-1.9-2.8-4.5-7.1c-1.3-2.2-2.7-4.7-4.2-7.5
		c-1.4-2.8-2.8-5.9-4.3-8.9c-3-6-5.9-12.1-8.1-16.6c-2.2-4.5-3.6-7.6-3.6-7.6L729.9,27.8z"/>
</g>
<g id="XMLID_94_">
	<path id="XMLID_350_" d="M754.6,75.6c0,0-0.4,3.7-1.1,9.1c-0.6,5.5-1.6,12.8-2.5,20.1c-0.5,3.7-0.9,7.3-1.3,10.7
		c-0.3,1.7-0.5,3.4-0.8,4.9c-0.3,1.6-0.5,3-0.8,4.4c-1.1,5.4-2,9-2,9l-0.2,0c0,0,0.1-3.7,0.6-9.2c0.1-1.4,0.3-2.9,0.5-4.4
		c0.2-1.6,0.4-3.2,0.6-4.9c0.5-3.4,1.2-7,1.8-10.7c1.2-7.3,2.4-14.5,3.4-20c1-5.4,1.6-9.1,1.6-9.1L754.6,75.6z"/>
</g>
<g id="XMLID_93_">
	<path id="XMLID_344_" d="M745.9,133.9c0,0-2.3-2.7-5.8-6.8c-3.5-4-8.1-9.5-12.6-15c-2.3-2.7-4.6-5.4-6.8-8c-1-1.3-2.1-2.6-3-3.8
		c-0.9-1.2-1.8-2.4-2.6-3.5c-3.2-4.3-5-7.4-5-7.4l0.2-0.1c0,0,2.6,2.5,6.1,6.5c0.9,1,1.8,2.1,2.8,3.2c1,1.2,2,2.4,3.1,3.7
		c2.1,2.6,4.2,5.5,6.4,8.3c4.3,5.6,8.7,11.3,11.9,15.5c3.2,4.2,5.4,7.1,5.4,7.1L745.9,133.9z"/>
</g>
<g id="XMLID_92_">
	<path id="XMLID_338_" d="M710.1,89.6c0,0-1.3-2.9-3.2-7.4c-1.9-4.4-4.4-10.3-6.8-16.2c-1.2-3-2.5-5.9-3.7-8.7
		c-1.1-2.8-2-5.4-2.8-7.7c-1.5-4.6-2.3-7.7-2.3-7.7l0.2-0.1c0,0,1.6,2.8,3.6,7.2c1,2.2,2.1,4.8,3.2,7.6c1.1,2.8,2.1,5.8,3.2,8.8
		c2.2,6,4.4,12,6,16.6c1.6,4.5,2.7,7.5,2.7,7.5L710.1,89.6z"/>
</g>
<g id="XMLID_91_">
	<path id="XMLID_332_" d="M691.6,41.8c0,0,0.7,3.8,1.7,9.4c1,5.6,2.3,13.1,3.7,20.7c0.7,3.8,1.4,7.5,2,11c0.2,1.8,0.5,3.5,0.7,5.1
		c0.2,1.6,0.4,3.2,0.5,4.6c0.6,5.7,0.8,9.5,0.8,9.5l-0.2,0c0,0-1-3.7-2.2-9.3c-0.3-1.4-0.6-2.9-0.9-4.5c-0.3-1.6-0.6-3.3-0.9-5.1
		c-0.5-3.5-1-7.3-1.5-11.1c-1-7.6-2.1-15.1-2.8-20.8c-0.7-5.7-1.2-9.5-1.2-9.5L691.6,41.8z"/>
</g>
<g id="XMLID_90_">
	<path id="XMLID_326_" d="M700.9,102.1c0,0,1.6,3.7,4.1,9.4c2.5,5.6,5.7,13.1,9,20.6c1.6,3.7,3.3,7.5,4.8,11c0.7,1.8,1.4,3.5,2,5.1
		c0.6,1.6,1.2,3.2,1.7,4.6c0.5,1.4,1,2.8,1.4,4c0.4,1.2,0.8,2.2,1,3.1c0.6,1.7,0.8,2.7,0.8,2.7l-0.2,0.1c0,0-0.5-0.9-1.3-2.5
		c-0.4-0.8-0.9-1.8-1.4-2.9c-0.5-1.1-1.2-2.4-1.8-3.8c-0.6-1.4-1.3-2.9-2-4.5c-0.7-1.6-1.4-3.3-2.2-5.1c-1.4-3.6-2.9-7.4-4.3-11.2
		c-3-7.6-6-15.2-8.1-21c-2.2-5.7-3.7-9.6-3.7-9.6L700.9,102.1z"/>
</g>
<g id="XMLID_89_">
	<path id="XMLID_320_" d="M725.6,162.7c0,0-0.9-0.6-2.1-1.5c-1.3-0.9-2.9-2.1-4.6-3.3c-0.8-0.6-1.7-1.2-2.4-1.8
		c-0.7-0.6-1.3-1.3-1.8-1.9c-1-1.2-1.5-2.2-1.5-2.2l0.1-0.2c0,0,1.1,0.3,2.4,1.1c0.7,0.4,1.4,0.9,2.1,1.5c0.7,0.6,1.4,1.4,2.1,2.1
		c1.5,1.4,2.9,2.9,4,4c1.1,1.1,1.8,1.8,1.8,1.8L725.6,162.7z"/>
</g>
<g id="XMLID_88_">
	<path id="XMLID_314_" d="M713.4,152.1c0,0,1.1,2.9,2,5.9c0.2,0.7,0.5,1.5,0.7,2.2c0.1,0.7,0.2,1.4,0.2,2c0,1.2-0.3,2-0.3,2l-0.2,0
		c0,0-0.6-0.7-1.1-1.8c-0.3-0.5-0.5-1.2-0.6-1.9c-0.1-0.7-0.1-1.5-0.2-2.3c-0.4-3.1-0.6-6.2-0.6-6.2L713.4,152.1z"/>
</g>
<g id="XMLID_87_">
	<path id="XMLID_309_" d="M715.9,164.3c0,0-0.4,4.7-1,11.7c-0.6,7-1.5,16.4-2.3,25.7c-0.4,4.7-0.8,9.4-1.2,13.7
		c-0.3,2.2-0.5,4.3-0.8,6.3c-0.3,2-0.5,3.9-0.8,5.6c-0.2,1.7-0.5,3.3-0.7,4.8c-0.2,1.4-0.4,2.6-0.6,3.7c-0.4,2-0.6,3.2-0.6,3.2
		l-0.2,0c0,0,0-1.2,0.1-3.2c0-1,0.1-2.3,0.2-3.7c0.1-1.4,0.2-3,0.3-4.8c0.1-1.8,0.3-3.7,0.4-5.7c0.2-2,0.4-4.1,0.6-6.3
		c0.5-4.4,1.1-9,1.7-13.7c1.2-9.3,2.3-18.6,3.2-25.6c0.9-7,1.5-11.6,1.5-11.6L715.9,164.3z"/>
</g>
<g id="XMLID_86_">
	<path id="XMLID_307_" d="M707.8,239c0,0-0.6,1-1.6,2.4c-1,1.5-2.3,3.3-3.6,5.2c-0.7,0.9-1.3,1.9-1.9,2.8c-0.7,0.8-1.4,1.6-2,2.2
		c-1.3,1.2-2.3,1.8-2.3,1.8l-0.2-0.1c0,0,0.4-1.2,1.3-2.7c0.4-0.8,1-1.6,1.7-2.5c0.7-0.8,1.5-1.6,2.3-2.5c1.6-1.7,3.1-3.4,4.3-4.7
		c1.2-1.3,2-2.1,2-2.1L707.8,239z"/>
</g>
<g id="XMLID_85_">
	<path id="XMLID_305_" d="M696.2,253.4c0,0-5.8,2.1-14.4,5.2c-8.6,3.1-20.2,7.2-31.7,11.3c-5.8,2.1-11.5,4.1-16.9,6
		c-2.7,0.9-5.3,1.8-7.9,2.6c-2.5,0.8-4.9,1.5-7.1,2.2c-2.2,0.7-4.2,1.3-6,1.8c-1.8,0.5-3.3,1-4.6,1.3c-2.6,0.7-4.1,1.1-4.1,1.1
		l-0.1-0.2c0,0,1.4-0.6,3.9-1.6c1.2-0.5,2.8-1.1,4.5-1.8c1.7-0.7,3.7-1.4,5.9-2.2c2.2-0.8,4.5-1.6,7-2.5c2.5-0.9,5.1-1.8,7.8-2.7
		c5.4-1.8,11.3-3.7,17.1-5.6c11.6-3.8,23.3-7.6,32-10.4c8.7-2.8,14.6-4.7,14.6-4.7L696.2,253.4z"/>
</g>
<g id="XMLID_84_">
	<path id="XMLID_303_" d="M603.5,284.8c0,0,2.4-2.5,6-6.2c3.6-3.8,8.4-8.7,13.2-13.6c2.4-2.5,4.8-5,7.1-7.3c1.2-1.1,2.3-2.2,3.4-3.2
		c1.1-1,2.1-2,3.1-2.8c3.9-3.4,6.6-5.5,6.6-5.5l0.1,0.1c0,0-2.1,2.7-5.7,6.5c-0.9,1-1.8,2-2.9,3c-1,1.1-2.1,2.2-3.3,3.3
		c-2.3,2.2-4.9,4.6-7.4,6.9c-5,4.7-10,9.5-13.9,13c-3.8,3.5-6.3,5.9-6.3,5.9L603.5,284.8z"/>
</g>
<g id="XMLID_83_">
	<path id="XMLID_301_" d="M642.8,246.2c0,0-0.9-3.7-1.6-7.3c-0.2-0.9-0.5-1.8-0.6-2.7c-0.1-0.9-0.1-1.7,0-2.4
		c0.1-1.4,0.4-2.4,0.4-2.4l0.2,0c0,0,0.6,0.9,1,2.2c0.2,0.7,0.4,1.5,0.5,2.3c0.1,0.9,0,1.8,0.1,2.8c0.2,3.7,0.2,7.5,0.2,7.5
		L642.8,246.2z"/>
</g>
<g id="XMLID_82_">
	<path id="XMLID_299_" d="M641.2,231.3c0,0-0.9,3-2,5.9c-0.3,0.7-0.4,1.5-0.7,2.2c-0.3,0.7-0.7,1.2-1,1.7c-0.7,0.9-1.4,1.5-1.4,1.5
		l-0.2-0.1c0,0-0.1-0.9,0.2-2.1c0.1-0.6,0.3-1.2,0.6-1.9c0.3-0.7,0.8-1.3,1.2-2c1.5-2.7,3.2-5.3,3.2-5.3L641.2,231.3z"/>
</g>
<g id="XMLID_81_">
	<path id="XMLID_297_" d="M636,242.6c0,0-2.4,2.1-6.1,5.3c-3.6,3.2-8.5,7.3-13.4,11.5c-2.4,2.1-4.8,4.2-7.2,6.1
		c-2.3,1.9-4.6,3.6-6.5,5c-3.9,2.8-6.7,4.5-6.7,4.5l-0.1-0.2c0,0,2.2-2.4,5.8-5.6c1.8-1.6,3.9-3.5,6.2-5.4c2.4-1.9,4.9-3.8,7.5-5.8
		c5.1-3.9,10.1-7.9,14-10.8c3.8-2.9,6.4-4.9,6.4-4.9L636,242.6z"/>
</g>
<g id="XMLID_80_">
	<path id="XMLID_295_" d="M596,274.9c0,0,2.2-3.3,5.4-8.4c3.2-5,7.6-11.7,12-18.4c2.2-3.3,4.3-6.7,6.4-9.8c1.1-1.5,2.1-3,3.1-4.4
		c1-1.4,2-2.7,2.9-3.9c3.6-4.8,6.2-7.8,6.2-7.8l0.2,0.1c0,0-1.9,3.5-5,8.6c-0.8,1.3-1.7,2.6-2.6,4.1c-0.9,1.4-1.9,2.9-3,4.5
		c-2.1,3.1-4.5,6.3-6.8,9.5c-4.6,6.5-9.2,13-12.7,17.8c-3.5,4.9-5.8,8.1-5.8,8.1L596,274.9z"/>
</g>
<g id="XMLID_79_">
	<path id="XMLID_293_" d="M630.6,224c0,0-0.1-3.7-0.3-9c-0.2-5.3-0.3-12.5-0.4-19.6c-0.1-3.5-0.2-7.1-0.2-10.5c0-1.7,0-3.3,0.1-4.8
		c0-1.5,0.1-2.9,0.2-4.3c0.3-5.3,0.7-8.8,0.7-8.8h0.2c0,0,0.4,3.5,0.7,8.8c0.1,1.3,0.1,2.8,0.2,4.3c0.1,1.5,0,3.1,0.1,4.8
		c0,3.3-0.2,6.9-0.2,10.4c-0.2,7.1-0.3,14.4-0.5,19.7c-0.1,5.3-0.3,9-0.3,9H630.6z"/>
</g>
<g id="XMLID_78_">
	<path id="XMLID_291_" d="M632.2,167c0,0-0.3,1.4-0.7,3.6c-0.4,2.2-1,5-1.6,7.8c-0.3,1.4-0.5,2.9-0.8,4.2c-0.3,1.3-0.8,2.5-1.2,3.5
		c-0.8,2-1.6,3.3-1.6,3.3l-0.2-0.1c0,0-0.1-1.5,0.2-3.7c0.1-1.1,0.4-2.3,0.7-3.7c0.4-1.3,0.9-2.7,1.3-4.1c0.9-2.8,1.7-5.6,2.4-7.6
		c0.7-2.1,1.2-3.5,1.2-3.5L632.2,167z"/>
</g>
<g id="XMLID_77_">
	<path id="XMLID_289_" d="M626.4,189.5c0,0-0.1,1.9-0.2,4.6c-0.1,2.8-0.4,6.5-0.6,10.2c-0.1,1.8-0.2,3.7-0.3,5.4
		c-0.2,1.7-0.5,3.3-0.7,4.7c-0.5,2.7-1.2,4.5-1.2,4.5l-0.2,0c0,0-0.3-1.9-0.2-4.7c0-1.4,0.1-3,0.2-4.7c0.2-1.7,0.5-3.6,0.8-5.4
		c0.5-3.7,1-7.3,1.5-10.1c0.4-2.7,0.7-4.6,0.7-4.6L626.4,189.5z"/>
</g>
<g id="XMLID_119_">
	<line id="XMLID_287_" class="st1" x1="493" y1="468.3" x2="476.4" y2="460.2"/>
	<path id="XMLID_286_" class="st1" d="M492.9,468.4c0,0-1.1-0.4-2.7-1c-1.6-0.6-3.8-1.5-5.9-2.4c-1.1-0.4-2.2-0.8-3.1-1.3
		c-1-0.5-1.8-1-2.5-1.5c-1.4-1-2.3-1.9-2.3-1.9l0.1-0.2c0,0,1.2,0.1,2.9,0.6c0.8,0.3,1.8,0.6,2.8,1.1c1,0.5,1.9,1.1,2.9,1.7
		c2,1.2,4,2.3,5.5,3.2c1.5,0.9,2.5,1.5,2.5,1.5L492.9,468.4z"/>
</g>
<g id="XMLID_120_">
	<line id="XMLID_284_" class="st1" x1="476.4" y1="460.2" x2="468.3" y2="449.8"/>
	<path id="XMLID_283_" class="st1" d="M476.3,460.3c0,0-2.4-2.3-4.6-4.8c-0.6-0.6-1.2-1.2-1.7-1.8c-0.5-0.6-0.8-1.2-1.1-1.8
		c-0.6-1.1-0.7-2.1-0.7-2.1l0.2-0.1c0,0,0.9,0.4,1.8,1.2c0.5,0.4,1,0.9,1.5,1.5c0.5,0.6,0.8,1.4,1.3,2.1c1.8,2.8,3.5,5.7,3.5,5.7
		L476.3,460.3z"/>
</g>
<g id="XMLID_122_">
	<path id="XMLID_281_" d="M493.6,468.2c0,0,1-0.6,2.5-1.5c1.5-0.9,3.5-2,5.5-3.2c1-0.6,2-1.2,2.9-1.7c1-0.5,1.9-0.8,2.8-1.1
		c1.7-0.5,2.9-0.6,2.9-0.6l0.1,0.2c0,0-0.8,0.9-2.3,1.9c-0.7,0.5-1.6,1-2.6,1.5c-1,0.5-2.1,0.8-3.2,1.3c-2.1,0.9-4.3,1.8-5.9,2.4
		c-1.6,0.6-2.7,1-2.7,1L493.6,468.2z"/>
</g>
<g id="XMLID_121_">
	<path id="XMLID_279_" d="M510.2,460.2c0,0,1.7-2.9,3.5-5.7c0.5-0.7,0.8-1.4,1.3-2.1c0.5-0.6,1-1.1,1.5-1.5c1-0.8,1.8-1.2,1.8-1.2
		l0.2,0.1c0,0-0.2,0.9-0.7,2.1c-0.3,0.6-0.6,1.2-1.1,1.8c-0.5,0.6-1.1,1.2-1.7,1.8c-2.2,2.5-4.6,4.8-4.6,4.8L510.2,460.2z"/>
</g>
<g id="XMLID_123_">
	<line id="XMLID_277_" class="st1" x1="466.7" y1="449.8" x2="492.5" y2="444.4"/>
	<path id="XMLID_276_" class="st1" d="M466.7,449.7c0,0,1.6-0.4,4-1.1c2.4-0.7,5.6-1.5,8.8-2.3c1.6-0.4,3.2-0.9,4.7-1.2
		c1.5-0.3,3-0.5,4.2-0.6c2.5-0.3,4.2-0.2,4.2-0.2l0,0.2c0,0-1.5,0.8-3.9,1.5c-1.2,0.4-2.6,0.8-4.1,1.1c-1.5,0.3-3.2,0.5-4.8,0.8
		c-3.3,0.5-6.5,1.1-9,1.4c-2.5,0.4-4.1,0.6-4.1,0.6L466.7,449.7z"/>
</g>
<g id="XMLID_124_">
	<line id="XMLID_274_" class="st1" x1="466.7" y1="449.8" x2="449.8" y2="415"/>
	<path id="XMLID_273_" class="st1" d="M466.6,449.8c0,0-1.1-2.1-2.9-5.3c-1.7-3.2-4-7.5-6.2-11.8c-1.1-2.1-2.3-4.3-3.3-6.3
		c-1-2-1.8-4-2.5-5.7c-1.4-3.4-2-5.7-2-5.7l0.2-0.1c0,0,1.5,2,3.3,5.1c0.9,1.6,1.9,3.4,2.9,5.5c1,2,1.9,4.3,2.9,6.5
		c2,4.4,4,8.8,5.4,12.1c1.4,3.3,2.4,5.5,2.4,5.5L466.6,449.8z"/>
</g>
<g id="XMLID_125_">
	<line id="XMLID_271_" class="st1" x1="449.8" y1="415" x2="458.2" y2="388.7"/>
	<path id="XMLID_270_" class="st1" d="M449.7,415c0,0,0.4-1.7,1.1-4.2c0.6-2.5,1.6-5.8,2.5-9.2c0.5-1.7,0.8-3.4,1.3-4.9
		c0.5-1.5,1.1-2.9,1.6-4.1c1-2.4,2-3.9,2-3.9l0.2,0.1c0,0-0.1,1.8-0.7,4.3c-0.3,1.3-0.6,2.7-1.1,4.3c-0.5,1.5-1.2,3.1-1.8,4.8
		c-1.2,3.2-2.4,6.5-3.3,8.9c-0.9,2.4-1.6,4-1.6,4L449.7,415z"/>
</g>
<g id="XMLID_126_">
	<line id="XMLID_268_" class="st1" x1="457" y1="388" x2="457" y2="378"/>
	<path id="XMLID_267_" class="st1" d="M456.8,388c0,0-0.5-2.5-0.7-5.2c-0.1-0.7-0.2-1.3-0.2-1.9c0-0.6,0.1-1,0.2-1.5
		c0.3-1,0.7-1.4,0.7-1.4h0.2c0,0,0.4,0.4,0.7,1.5c0.1,0.5,0.2,1,0.2,1.6c0,0.6-0.2,1.1-0.2,1.8c-0.2,2.7-0.7,5.2-0.7,5.2H456.8z"/>
</g>
<g id="XMLID_127_">
	<line id="XMLID_265_" class="st1" x1="458.2" y1="377.5" x2="449.8" y2="370.8"/>
	<path id="XMLID_264_" class="st1" d="M458.2,377.6c0,0-2.4-1.3-4.7-2.8c-0.6-0.4-1.2-0.7-1.7-1.1c-0.5-0.4-0.9-0.8-1.2-1.3
		c-0.6-0.8-0.9-1.6-0.9-1.6l0.1-0.2c0,0,0.8,0.1,1.8,0.5c0.5,0.2,1,0.5,1.5,0.9c0.5,0.4,0.9,1,1.4,1.4c2,1.9,3.8,3.9,3.8,3.9
		L458.2,377.6z"/>
</g>
<g id="XMLID_128_">
	<line id="XMLID_262_" class="st1" x1="449.8" y1="370.8" x2="441.7" y2="372.8"/>
	<path id="XMLID_261_" class="st1" d="M449.8,370.9c0,0-1.9,0.9-3.9,1.7c-0.5,0.2-1,0.5-1.4,0.6c-0.5,0.1-0.9,0.1-1.4,0.1
		c-0.8-0.1-1.4-0.4-1.4-0.4l0-0.2c0,0,0.4-0.6,1.1-1c0.3-0.2,0.8-0.4,1.2-0.6c0.5-0.1,1-0.1,1.5-0.1c2.1-0.3,4.2-0.3,4.2-0.3
		L449.8,370.9z"/>
</g>
<g id="XMLID_129_">
	<line id="XMLID_259_" class="st1" x1="441.7" y1="372.8" x2="438.7" y2="365.7"/>
	<path id="XMLID_258_" class="st1" d="M441.6,372.9c0,0-1.2-1.6-2.1-3.3c-0.2-0.4-0.6-0.8-0.8-1.2c-0.2-0.4-0.2-0.8-0.3-1.2
		c-0.1-0.8,0.2-1.4,0.2-1.4l0.2-0.1c0,0,0.6,0.3,1.1,0.8c0.3,0.3,0.5,0.6,0.7,1c0.2,0.4,0.2,0.9,0.3,1.4c0.5,1.9,0.9,3.8,0.9,3.8
		L441.6,372.9z"/>
</g>
<g id="XMLID_130_">
	<line id="XMLID_256_" class="st1" x1="438.7" y1="365.7" x2="449.8" y2="345.1"/>
	<path id="XMLID_255_" class="st1" d="M438.6,365.7c0,0,0.6-1.3,1.5-3.3c0.9-2,2.2-4.6,3.4-7.3c0.6-1.3,1.2-2.7,1.8-3.9
		c0.7-1.2,1.3-2.3,2-3.2c1.3-1.8,2.3-2.9,2.3-2.9l0.2,0.1c0,0-0.3,1.5-1.1,3.5c-0.4,1-0.9,2.2-1.6,3.4c-0.7,1.2-1.5,2.4-2.2,3.7
		c-1.5,2.5-3,5-4.2,6.9c-1.2,1.9-2,3.1-2,3.1L438.6,365.7z"/>
</g>
<g id="XMLID_131_">
	<line id="XMLID_253_" class="st1" x1="449.8" y1="345.1" x2="443.1" y2="334.8"/>
	<path id="XMLID_252_" class="st1" d="M449.7,345.2c0,0-2.1-2.3-3.9-4.8c-0.5-0.6-1-1.2-1.4-1.8c-0.4-0.6-0.7-1.2-0.9-1.8
		c-0.4-1.1-0.5-2-0.5-2l0.2-0.1c0,0,0.8,0.4,1.6,1.2c0.4,0.4,0.9,0.9,1.3,1.5c0.4,0.6,0.7,1.4,1,2c1.5,2.7,2.8,5.6,2.8,5.6
		L449.7,345.2z"/>
</g>
<g id="XMLID_132_">
	<line id="XMLID_250_" class="st1" x1="443.1" y1="334.8" x2="446.5" y2="323.2"/>
	<path id="XMLID_249_" class="st1" d="M443,334.8c0,0,0.4-3,1-6c0.2-0.7,0.2-1.5,0.4-2.2c0.2-0.7,0.5-1.3,0.8-1.8
		c0.6-1,1.2-1.6,1.2-1.6l0.2,0.1c0,0,0.2,0.8,0.1,2c0,0.6-0.1,1.2-0.3,1.9c-0.2,0.7-0.6,1.4-0.8,2.1c-1.1,2.8-2.3,5.6-2.3,5.6
		L443,334.8z"/>
</g>
<g id="XMLID_142_">
	<path id="XMLID_247_" d="M519.6,449.9c0,0-1.6-0.2-4.1-0.6c-2.5-0.3-5.7-0.9-9-1.4c-1.6-0.3-3.3-0.5-4.8-0.8
		c-1.5-0.3-2.9-0.7-4.1-1.1c-2.4-0.8-3.9-1.5-3.9-1.5l0-0.2c0,0,1.7-0.1,4.2,0.2c1.2,0.1,2.7,0.3,4.2,0.6c1.5,0.3,3.1,0.8,4.7,1.2
		c3.2,0.8,6.4,1.6,8.8,2.3c2.4,0.7,4,1.1,4,1.1L519.6,449.9z"/>
</g>
<g id="XMLID_141_">
	<path id="XMLID_245_" d="M519.5,449.7c0,0,1-2.2,2.4-5.5c1.4-3.3,3.4-7.7,5.4-12.1c1-2.2,1.9-4.4,2.9-6.5c1-2,2-3.9,2.9-5.5
		c1.8-3.1,3.3-5.1,3.3-5.1l0.2,0.1c0,0-0.7,2.4-2,5.7c-0.7,1.7-1.5,3.6-2.5,5.7c-1,2-2.2,4.1-3.3,6.3c-2.3,4.3-4.5,8.6-6.2,11.8
		c-1.7,3.2-2.9,5.3-2.9,5.3L519.5,449.7z"/>
</g>
<g id="XMLID_140_">
	<path id="XMLID_243_" d="M536.4,415c0,0-0.6-1.6-1.6-4c-0.9-2.4-2.1-5.7-3.3-8.9c-0.6-1.6-1.3-3.2-1.8-4.8c-0.5-1.5-0.9-3-1.1-4.3
		c-0.6-2.5-0.7-4.3-0.7-4.3l0.2-0.1c0,0,1,1.5,2,3.9c0.5,1.2,1.1,2.6,1.6,4.1c0.5,1.5,0.9,3.2,1.3,4.9c0.9,3.3,1.8,6.7,2.5,9.2
		c0.6,2.5,1.1,4.2,1.1,4.2L536.4,415z"/>
</g>
<g id="XMLID_138_">
	<path id="XMLID_241_" d="M528,377.5c0,0,1.8-2,3.8-3.9c0.5-0.5,0.9-1,1.4-1.4c0.5-0.4,1-0.7,1.5-0.9c0.9-0.4,1.8-0.5,1.8-0.5
		l0.1,0.2c0,0-0.2,0.8-0.9,1.6c-0.3,0.4-0.7,0.9-1.2,1.3c-0.5,0.4-1.1,0.7-1.7,1.1c-2.3,1.5-4.7,2.8-4.7,2.8L528,377.5z"/>
</g>
<g id="XMLID_137_">
	<path id="XMLID_239_" d="M536.6,370.7c0,0,2.1,0.1,4.2,0.3c0.5,0.1,1.1,0,1.5,0.1c0.5,0.1,0.9,0.3,1.2,0.6c0.7,0.4,1.1,1,1.1,1
		l0,0.2c0,0-0.6,0.3-1.4,0.4c-0.4,0-0.9,0-1.4-0.1c-0.5-0.1-0.9-0.4-1.4-0.6c-2-0.7-3.9-1.7-3.9-1.7L536.6,370.7z"/>
</g>
<g id="XMLID_136_">
	<path id="XMLID_237_" d="M544.5,372.8c0,0,0.3-1.9,0.9-3.8c0.1-0.5,0.2-1,0.3-1.4c0.2-0.4,0.4-0.8,0.7-1c0.5-0.6,1.1-0.8,1.1-0.8
		l0.2,0.1c0,0,0.2,0.6,0.2,1.4c0,0.4-0.1,0.8-0.3,1.2c-0.2,0.4-0.5,0.8-0.8,1.2c-1,1.7-2.2,3.3-2.2,3.3L544.5,372.8z"/>
</g>
<g id="XMLID_135_">
	<path id="XMLID_235_" d="M547.6,365.8c0,0-0.8-1.2-2-3.1c-1.2-1.9-2.7-4.4-4.2-6.9c-0.8-1.3-1.6-2.5-2.3-3.7
		c-0.6-1.2-1.2-2.4-1.6-3.4c-0.8-2-1.1-3.5-1.1-3.5l0.2-0.1c0,0,1.1,1.1,2.4,2.9c0.6,0.9,1.3,2,2,3.2c0.6,1.2,1.2,2.6,1.8,3.9
		c1.3,2.6,2.5,5.3,3.4,7.3c0.9,2,1.5,3.3,1.5,3.3L547.6,365.8z"/>
</g>
<g id="XMLID_134_">
	<path id="XMLID_233_" d="M536.4,345.1c0,0,1.3-2.8,2.8-5.6c0.4-0.7,0.7-1.4,1-2c0.4-0.6,0.8-1.1,1.3-1.5c0.8-0.8,1.6-1.2,1.6-1.2
		l0.2,0.1c0,0,0,0.9-0.5,2c-0.2,0.6-0.5,1.2-0.9,1.8c-0.4,0.6-1,1.2-1.4,1.8c-1.9,2.5-4,4.8-4,4.8L536.4,345.1z"/>
</g>
<g id="XMLID_133_">
	<path id="XMLID_231_" d="M543.2,334.8c0,0-1.3-2.8-2.4-5.6c-0.3-0.7-0.6-1.4-0.8-2.1c-0.2-0.7-0.3-1.3-0.3-1.9
		c-0.1-1.2,0.1-2,0.1-2l0.2-0.1c0,0,0.6,0.6,1.2,1.6c0.3,0.5,0.6,1.1,0.8,1.8c0.2,0.7,0.2,1.5,0.4,2.2c0.6,3,1,6,1,6L543.2,334.8z"
		/>
</g>
<g id="XMLID_139_">
	<path id="XMLID_229_" d="M525.3,388c0,0-0.5-2.5-0.7-5.2c-0.1-0.7-0.2-1.3-0.2-1.9c0-0.6,0.1-1,0.2-1.5c0.3-1,0.7-1.4,0.7-1.4h0.2
		c0,0,0.4,0.4,0.7,1.5c0.1,0.5,0.2,1,0.2,1.6c0,0.6-0.2,1.1-0.2,1.8c-0.2,2.7-0.7,5.2-0.7,5.2H525.3z"/>
</g>
<g id="XMLID_39_">
	<line id="XMLID_227_" class="st1" x1="362.2" y1="218.9" x2="468.3" y2="315.8"/>
	<path id="XMLID_226_" class="st1" d="M362.2,218.8c0,0,6.7,6,16.8,15c10,9,23.4,21,36.8,33c6.7,6,13.4,12,19.7,17.6
		c3.1,2.9,6.1,5.6,8.9,8.2c2.8,2.6,5.5,5.1,7.9,7.5c2.5,2.3,4.7,4.5,6.6,6.4c2,1.9,3.7,3.6,5.1,4.9c2.8,2.7,4.4,4.3,4.4,4.3
		l-0.1,0.1c0,0-1.7-1.4-4.7-4c-1.5-1.3-3.3-2.8-5.4-4.6c-2.1-1.8-4.4-3.8-6.9-6c-2.5-2.2-5.3-4.7-8.1-7.2c-2.9-2.5-5.9-5.3-9-8.1
		c-6.2-5.7-12.7-11.8-19.3-18c-13.2-12.2-26.3-24.5-36.2-33.6c-9.9-9.2-16.4-15.3-16.4-15.3L362.2,218.8z"/>
</g>
<g id="XMLID_76_">
	<line id="XMLID_224_" class="st1" x1="468" y1="318" x2="492" y2="318"/>
	<path id="XMLID_223_" class="st1" d="M468,318c0,0,1.3-0.1,3.6-0.3c2.3-0.2,5.2-0.3,8.2-0.4c1.5-0.1,3-0.2,4.4-0.2
		c1.4,0,2.8,0.1,3.9,0.2c2.3,0.3,3.8,0.7,3.8,0.7v0.2c0,0-1.6,0.4-3.9,0.7c-1.1,0.1-2.5,0.2-3.9,0.2c-1.4,0-2.9-0.2-4.5-0.2
		c-3-0.2-5.9-0.3-8.2-0.4c-2.3-0.2-3.6-0.3-3.6-0.3V318z"/>
</g>
<g id="XMLID_144_">
	<path id="XMLID_221_" d="M622.6,219c0,0-6.6,6.1-16.5,15.3c-9.9,9.2-23.1,21.4-36.3,33.6c-6.6,6.1-13.2,12.2-19.4,18
		c-3.1,2.8-6.1,5.6-9.1,8.1c-2.9,2.6-5.6,5-8.2,7.2c-2.5,2.2-4.9,4.2-7,6c-2.1,1.8-3.9,3.4-5.4,4.6c-3,2.5-4.7,4-4.7,4l-0.1-0.1
		c0,0,1.6-1.6,4.4-4.3c1.4-1.4,3.1-3,5.1-4.9c2-1.9,4.2-4.1,6.7-6.4c2.5-2.3,5.1-4.8,8-7.5c2.8-2.7,5.8-5.4,8.9-8.2
		c6.3-5.6,13-11.6,19.7-17.6c13.4-12,26.9-24,36.9-33c10.1-9,16.8-14.9,16.8-14.9L622.6,219z"/>
</g>
<g id="XMLID_143_">
	<path id="XMLID_219_" d="M517,318.2c0,0-1.4,0.1-3.7,0.3c-2.3,0.2-5.2,0.3-8.3,0.4c-1.5,0.1-3,0.2-4.4,0.2c-1.4,0-2.7-0.1-3.9-0.2
		c-2.3-0.3-3.8-0.7-3.8-0.7V318c0,0,1.5-0.4,3.8-0.7c1.1-0.1,2.5-0.2,3.9-0.2c1.4,0,2.9,0.2,4.5,0.2c3,0.2,5.9,0.3,8.2,0.4
		c2.3,0.2,3.7,0.3,3.7,0.3V318.2z"/>
</g>
<g id="XMLID_145_">
	<line id="XMLID_217_" class="st1" x1="458.2" y1="384.3" x2="449.8" y2="380.6"/>
	<path id="XMLID_216_" class="st1" d="M458.2,384.4c0,0-2.3-0.5-4.5-1.2c-0.6-0.2-1.1-0.3-1.6-0.5c-0.5-0.2-0.9-0.5-1.3-0.8
		c-0.7-0.6-1-1.2-1-1.2l0.1-0.2c0,0,0.7-0.2,1.6-0.1c0.5,0,1,0.2,1.4,0.4c0.5,0.2,0.9,0.6,1.4,0.9c2,1.2,3.9,2.5,3.9,2.5
		L458.2,384.4z"/>
</g>
<g id="XMLID_146_">
	<line id="XMLID_214_" class="st1" x1="449.8" y1="380.6" x2="443.1" y2="372.8"/>
	<path id="XMLID_213_" class="st1" d="M449.7,380.6c0,0-2-1.6-3.9-3.4c-0.5-0.4-1-0.8-1.4-1.3c-0.4-0.5-0.7-0.9-0.9-1.4
		c-0.4-0.9-0.5-1.7-0.5-1.7l0.2-0.1c0,0,0.8,0.2,1.6,0.8c0.4,0.3,0.9,0.6,1.3,1.1c0.4,0.5,0.7,1.1,1,1.6c1.5,2.1,2.8,4.3,2.8,4.3
		L449.7,380.6z"/>
</g>
<g id="XMLID_148_">
	<path id="XMLID_211_" d="M527.7,384.2c0,0,1.9-1.3,3.9-2.5c0.5-0.3,1-0.7,1.5-0.9c0.5-0.2,1-0.3,1.5-0.4c0.9-0.1,1.6,0.1,1.6,0.1
		l0.1,0.2c0,0-0.3,0.6-1,1.2c-0.3,0.3-0.8,0.6-1.3,0.8c-0.5,0.2-1.1,0.3-1.6,0.5c-2.2,0.7-4.5,1.2-4.5,1.2L527.7,384.2z"/>
</g>
<g id="XMLID_147_">
	<path id="XMLID_209_" d="M536.1,380.5c0,0,1.3-2.2,2.8-4.3c0.4-0.5,0.7-1.1,1.1-1.6c0.4-0.5,0.8-0.8,1.3-1.1
		c0.8-0.6,1.6-0.8,1.6-0.8l0.2,0.1c0,0-0.1,0.8-0.5,1.7c-0.2,0.5-0.5,0.9-0.9,1.4c-0.4,0.4-1,0.8-1.4,1.3c-1.9,1.8-3.9,3.4-3.9,3.4
		L536.1,380.5z"/>
</g>
<g id="XMLID_149_">
	<line id="XMLID_207_" class="st1" x1="492.5" y1="438.3" x2="482.1" y2="432.4"/>
	<path id="XMLID_206_" class="st1" d="M492.5,438.4c0,0-2.8-1.1-5.6-2.3c-0.7-0.3-1.4-0.5-2-0.9c-0.6-0.3-1.1-0.8-1.6-1.2
		c-0.9-0.8-1.3-1.5-1.3-1.5l0.1-0.2c0,0,0.9,0,2,0.3c0.6,0.2,1.2,0.4,1.8,0.7c0.6,0.4,1.2,0.9,1.8,1.3c2.5,1.7,4.9,3.6,4.9,3.6
		L492.5,438.4z"/>
</g>
<g id="XMLID_150_">
	<line id="XMLID_204_" class="st1" x1="482.1" y1="432.4" x2="484.7" y2="426.8"/>
	<path id="XMLID_203_" class="st1" d="M482,432.3c0,0,0.2-1.6,0.6-3.1c0.1-0.4,0.1-0.8,0.3-1.1c0.2-0.3,0.4-0.6,0.6-0.8
		c0.5-0.4,1-0.6,1-0.6l0.2,0.1c0,0,0.2,0.5,0.2,1.2c0,0.3,0,0.7-0.2,1c-0.2,0.3-0.5,0.6-0.7,0.9c-0.9,1.3-1.9,2.5-1.9,2.5L482,432.3
		z"/>
</g>
<g id="XMLID_151_">
	<line id="XMLID_201_" class="st1" x1="484.7" y1="426.8" x2="492.5" y2="429.6"/>
	<path id="XMLID_200_" class="st1" d="M484.7,426.7c0,0,2.1,0.3,4.2,0.7c0.5,0.1,1.1,0.1,1.5,0.3c0.5,0.2,0.9,0.4,1.2,0.7
		c0.7,0.5,1,1.1,1,1.1l-0.1,0.2c0,0-0.6,0.2-1.5,0.2c-0.4,0-0.9-0.1-1.3-0.2c-0.5-0.2-0.9-0.5-1.4-0.7c-1.9-0.9-3.7-2.1-3.7-2.1
		L484.7,426.7z"/>
</g>
<g id="XMLID_154_">
	<path id="XMLID_198_" d="M493.9,438.2c0,0,2.4-1.9,4.9-3.6c0.6-0.4,1.2-0.9,1.8-1.3c0.6-0.3,1.2-0.6,1.8-0.7c1.1-0.3,2-0.3,2-0.3
		l0.1,0.2c0,0-0.4,0.8-1.3,1.5c-0.4,0.4-0.9,0.8-1.6,1.2c-0.6,0.3-1.4,0.6-2,0.9c-2.7,1.3-5.6,2.3-5.6,2.3L493.9,438.2z"/>
</g>
<g id="XMLID_153_">
	<path id="XMLID_196_" d="M504.4,432.4c0,0-1.1-1.2-1.9-2.5c-0.2-0.3-0.5-0.6-0.7-0.9c-0.1-0.3-0.2-0.7-0.2-1c0-0.6,0.2-1.2,0.2-1.2
		l0.2-0.1c0,0,0.6,0.2,1,0.6c0.2,0.2,0.5,0.5,0.6,0.8c0.1,0.3,0.1,0.8,0.3,1.1c0.4,1.5,0.7,3.1,0.7,3.1L504.4,432.4z"/>
</g>
<g id="XMLID_152_">
	<path id="XMLID_694_" d="M501.9,426.9c0,0-1.8,1.1-3.7,2.1c-0.5,0.2-0.9,0.6-1.4,0.7c-0.5,0.2-0.9,0.2-1.3,0.2
		c-0.8,0-1.5-0.2-1.5-0.2l-0.1-0.2c0,0,0.3-0.6,1-1.1c0.3-0.3,0.7-0.5,1.2-0.7c0.5-0.2,1-0.2,1.5-0.3c2.1-0.5,4.2-0.7,4.2-0.7
		L501.9,426.9z"/>
</g>
<g id="XMLID_155_">
	<path id="XMLID_696_" d="M493.1,332c0,0,0.1,4.2,0.3,10.8c0.2,6.6,0.3,15.3,0.4,24c0.1,4.4,0.2,8.7,0.2,12.8c0,2.1,0,4-0.1,5.9
		c0,1.9-0.1,3.7-0.2,5.3c-0.1,1.6-0.2,3.1-0.2,4.5c-0.1,1.3-0.1,2.6-0.2,3.5c-0.1,1.9-0.3,3.1-0.3,3.1h-0.2c0,0-0.1-1.2-0.3-3.1
		c-0.1-1-0.2-2.2-0.2-3.5c-0.1-1.3-0.2-2.9-0.2-4.5c-0.1-1.6-0.1-3.4-0.2-5.3c-0.1-1.9,0-3.9-0.1-5.9c0-4.1,0.2-8.5,0.2-12.9
		c0.2-8.8,0.3-17.4,0.4-24c0.1-6.6,0.3-10.8,0.3-10.8H493.1z"/>
</g>
</svg>
