<?xml version="1.0" encoding="utf-8"?>
<!-- Generator: Adobe Illustrator 19.0.0, SVG Export Plug-In . SVG Version: 6.00 Build 0)  -->
<svg version="1.1" id="Layer_1" xmlns="http://www.w3.org/2000/svg" xmlns:xlink="http://www.w3.org/1999/xlink" x="0px" y="0px"
	 viewBox="0 0 960 560" style="enable-background:new 0 0 960 560;" xml:space="preserve">
<style type="text/css">
	.st0{fill:none;stroke:#FFFFFF;stroke-width:6;stroke-miterlimit:10;}
	.st1{fill:#FFFFFF;}
	.st2{fill:none;stroke:#000000;stroke-width:6;stroke-miterlimit:10;}
	.st3{fill:none;}
</style>
<g id="XMLID_3_">
	<g id="XMLID_18_">
	</g>
	<g id="XMLID_20_">
		<line id="XMLID_22_" class="st0" x1="440.4" y1="515.2" x2="493" y2="534.9"/>
	</g>
</g>
<g id="XMLID_15_">
	<line id="XMLID_981_" class="st1" x1="440.4" y1="515.2" x2="443.1" y2="507.8"/>
	<path id="XMLID_980_" class="st1" d="M440.1,515.1c0,0-0.1-0.1-0.2-0.2c-0.1-0.1-0.4-0.3-0.6-0.5c-0.2-0.2-0.5-0.4-0.7-0.7
		c-0.3-0.3-0.5-0.5-0.8-0.8c-0.5-0.6-0.8-1.2-1-1.7c-0.2-0.6-0.2-1.1,0-1.6c0.2-0.5,0.5-0.9,1.1-1.2c0.5-0.3,1.2-0.5,1.9-0.6
		c0.4-0.1,0.8-0.1,1.1-0.1c0.3,0,0.7,0,1,0c0.3,0,0.6,0,0.8,0c0.2,0,0.3,0,0.3,0l0.6,0.2c0,0,0,0.1-0.1,0.3
		c-0.1,0.2-0.1,0.5-0.2,0.9c-0.1,0.4-0.2,0.8-0.4,1.2c-0.1,0.4-0.3,0.9-0.5,1.4c-0.2,0.5-0.4,0.9-0.5,1.3c-0.2,0.4-0.4,0.8-0.5,1.2
		c-0.2,0.3-0.3,0.6-0.4,0.8c-0.1,0.2-0.2,0.3-0.2,0.3L440.1,515.1z"/>
</g>
<g id="XMLID_17_">
	<line id="XMLID_978_" class="st1" x1="413.2" y1="426.8" x2="443.1" y2="507.8"/>
	<path id="XMLID_977_" class="st1" d="M413.5,426.7c0,0,0.2,0.3,0.6,0.8c0.4,0.5,1,1.3,1.6,2.3c0.7,1,1.5,2.2,2.4,3.7
		c0.4,0.7,0.9,1.5,1.4,2.3c0.5,0.8,0.9,1.7,1.4,2.6c1,1.8,2.1,3.7,3.1,5.8c1,2.1,2.1,4.3,3.2,6.6c0.5,1.1,1,2.3,1.6,3.5
		c0.5,1.2,1,2.4,1.5,3.6c1,2.5,2,5,2.9,7.5c0.9,2.5,1.8,5.1,2.6,7.6c0.4,1.3,0.8,2.5,1.2,3.8c0.4,1.2,0.8,2.5,1.1,3.7
		c0.7,2.4,1.3,4.8,1.9,7.1c0.6,2.3,1,4.4,1.4,6.4c0.4,2,0.7,3.9,1,5.5c0.3,1.6,0.4,3.1,0.6,4.3c0.2,1.2,0.2,2.2,0.3,2.8
		c0.1,0.7,0.1,1,0.1,1l-0.6,0.2c0,0-0.5-1.3-1.3-3.5c-0.8-2.2-2.1-5.3-3.5-9.1c-2.8-7.6-6.6-17.7-10.4-27.8
		c-3.7-10.1-7.4-20.3-10.2-27.9c-1.4-3.8-2.5-7-3.3-9.2c-0.8-2.2-1.2-3.5-1.2-3.5L413.5,426.7z"/>
</g>
<g id="XMLID_19_">
	<line id="XMLID_975_" class="st1" x1="413.2" y1="426.8" x2="420.9" y2="406.6"/>
	<path id="XMLID_974_" class="st1" d="M412.9,426.7c0,0-0.1-0.1-0.2-0.3c-0.1-0.2-0.3-0.5-0.4-0.9c-0.2-0.4-0.4-0.8-0.5-1.3
		c-0.2-0.5-0.3-1.1-0.4-1.6c-0.2-1.2-0.3-2.5-0.2-3.8c0-0.3,0.1-0.7,0.1-1c0-0.3,0.1-0.7,0.2-1c0.1-0.7,0.4-1.3,0.6-1.9
		c0.3-0.6,0.5-1.2,0.9-1.8c0.2-0.3,0.3-0.6,0.5-0.9c0.2-0.3,0.4-0.6,0.6-0.8c0.8-1.1,1.7-2,2.7-2.7c0.5-0.4,1-0.7,1.4-0.9
		c0.4-0.3,0.9-0.5,1.3-0.7c0.3-0.2,0.7-0.3,0.9-0.4c0.2-0.1,0.4-0.1,0.4-0.1l0.6,0.2c0,0-0.1,0.3-0.3,0.9c-0.2,0.6-0.4,1.4-0.8,2.3
		c-0.3,1-0.7,2.1-1.2,3.3c-0.4,1.2-0.9,2.5-1.4,3.7c-0.5,1.3-1,2.5-1.5,3.7c-0.5,1.2-0.9,2.3-1.3,3.2c-0.4,0.9-0.8,1.7-1,2.3
		c-0.2,0.5-0.4,0.9-0.4,0.9L412.9,426.7z"/>
</g>
<g id="XMLID_21_">
	<line id="XMLID_972_" class="st1" x1="419" y1="407" x2="419" y2="361"/>
	<path id="XMLID_971_" class="st1" d="M418.9,407c0,0-0.1-0.1-0.3-0.4c-0.2-0.3-0.5-0.8-0.7-1.4c-0.3-0.6-0.6-1.4-1-2.2
		c-0.3-0.9-0.7-1.8-1-2.9c-0.6-2.2-1.2-4.7-1.6-7.3c-0.1-0.7-0.2-1.4-0.2-2c-0.1-0.7-0.1-1.4-0.2-2.1c-0.1-1.4-0.1-2.8-0.2-4.3
		c0-1.4,0-2.9,0.2-4.3c0-0.7,0.1-1.4,0.2-2.1c0.1-0.7,0.1-1.4,0.2-2c0.4-2.7,0.9-5.2,1.6-7.4c0.3-1.1,0.7-2.1,1-2.9
		c0.3-0.9,0.7-1.6,1-2.3c0.3-0.6,0.6-1.3,0.7-1.6c0.2-0.3,0.3-0.7,0.3-0.7h0.6c0,0,0,0.9,0.1,2.1c0,1.3,0.1,3.1,0.1,5.3
		c0,4.3,0.1,10.1,0.1,15.8c-0.1,5.7-0.1,11.5-0.1,15.8c0,2.2-0.1,3.8-0.1,5.1c0,1.3-0.1,1.9-0.1,1.9H418.9z"/>
</g>
<g id="XMLID_12_">
	<g id="XMLID_6_">
	</g>
	<g id="XMLID_7_">
		<line id="XMLID_8_" class="st2" x1="547.8" y1="515.2" x2="495" y2="534.9"/>
	</g>
</g>
<g id="XMLID_11_">
	<path id="XMLID_969_" d="M547.5,515.3c0,0-0.1,0-0.3,0c-0.2,0-0.5,0-0.8,0c-0.3,0-0.7,0-1,0c-0.4,0-0.8-0.1-1.1-0.1
		c-0.7-0.1-1.4-0.3-1.9-0.6c-0.5-0.3-0.9-0.7-1-1.2c-0.2-0.5-0.2-1,0.1-1.6c0.2-0.6,0.6-1.2,1-1.7c0.2-0.3,0.5-0.6,0.8-0.8
		c0.2-0.2,0.5-0.5,0.7-0.7c0.2-0.2,0.5-0.4,0.6-0.5c0.1-0.1,0.2-0.2,0.2-0.2l0.6-0.2c0,0,0.1,0.1,0.2,0.3c0.1,0.2,0.3,0.5,0.4,0.8
		c0.2,0.3,0.4,0.7,0.5,1.2c0.2,0.4,0.4,0.9,0.5,1.3c0.2,0.5,0.3,0.9,0.5,1.4c0.2,0.4,0.2,0.9,0.4,1.2c0.1,0.4,0.1,0.7,0.2,0.9
		c0,0.2,0.1,0.3,0.1,0.3L547.5,515.3z"/>
</g>
<g id="XMLID_10_">
	<path id="XMLID_967_" d="M575.4,426.9c0,0,0,0.4-0.1,1c-0.1,0.6-0.1,1.6-0.3,2.8c-0.2,1.2-0.3,2.7-0.6,4.3
		c-0.1,0.8-0.3,1.7-0.4,2.6c-0.2,0.9-0.4,1.9-0.6,2.9c-0.4,2-0.9,4.2-1.4,6.4c-0.6,2.3-1.2,4.6-1.9,7.1c-0.3,1.2-0.7,2.5-1.1,3.7
		c-0.4,1.2-0.8,2.5-1.2,3.8c-0.8,2.5-1.7,5.1-2.7,7.6c-1,2.5-1.9,5-3,7.5c-0.5,1.2-1,2.4-1.5,3.6c-0.5,1.2-1,2.4-1.6,3.5
		c-1,2.3-2.1,4.5-3.2,6.6c-1,2.1-2.1,4-3.1,5.8c-1,1.8-2,3.4-2.8,4.8c-0.8,1.4-1.7,2.7-2.4,3.7c-0.7,1-1.3,1.8-1.6,2.3
		c-0.4,0.5-0.6,0.8-0.6,0.8l-0.6-0.2c0,0,0.5-1.3,1.2-3.5c0.8-2.2,1.9-5.4,3.3-9.2c2.8-7.6,6.5-17.7,10.2-27.9
		c3.8-10.1,7.6-20.2,10.5-27.8c1.4-3.8,2.7-6.9,3.5-9.1c0.9-2.2,1.3-3.5,1.3-3.5L575.4,426.9z"/>
</g>
<g id="XMLID_9_">
	<path id="XMLID_965_" d="M574.8,426.9c0,0-0.1,0-0.4-0.1c-0.2-0.1-0.6-0.2-0.9-0.4c-0.4-0.2-0.8-0.4-1.3-0.7
		c-0.5-0.3-0.9-0.6-1.4-0.9c-1-0.7-1.9-1.6-2.7-2.7c-0.2-0.3-0.4-0.5-0.6-0.8c-0.2-0.3-0.4-0.6-0.5-0.9c-0.3-0.6-0.6-1.2-0.9-1.8
		c-0.2-0.6-0.4-1.3-0.6-1.9c-0.1-0.3-0.1-0.7-0.2-1c-0.1-0.3-0.1-0.7-0.1-1c-0.1-1.3,0-2.6,0.2-3.8c0.1-0.6,0.3-1.1,0.4-1.6
		c0.2-0.5,0.4-1,0.5-1.3c0.1-0.4,0.3-0.7,0.4-0.9c0.1-0.2,0.2-0.3,0.2-0.3l0.6-0.2c0,0,0.1,0.3,0.4,0.9c0.2,0.5,0.6,1.3,1,2.3
		c0.4,0.9,0.9,2,1.3,3.2c0.5,1.2,1,2.4,1.5,3.7c0.5,1.3,0.9,2.5,1.4,3.7c0.4,1.2,0.8,2.3,1.2,3.3c0.3,1,0.6,1.8,0.8,2.3
		c0.2,0.6,0.3,0.9,0.3,0.9L574.8,426.9z"/>
</g>
<g id="XMLID_2_">
	<path id="XMLID_963_" d="M565.6,407c0,0-0.1-0.1-0.3-0.4c-0.2-0.3-0.5-0.8-0.7-1.4c-0.3-0.6-0.6-1.4-1-2.2c-0.3-0.9-0.7-1.8-1-2.9
		c-0.6-2.2-1.2-4.7-1.6-7.3c-0.1-0.7-0.2-1.4-0.2-2c-0.1-0.7-0.1-1.4-0.2-2.1c-0.1-1.4-0.1-2.8-0.2-4.3c0-1.4,0-2.9,0.2-4.3
		c0-0.7,0.1-1.4,0.2-2.1c0.1-0.7,0.1-1.4,0.2-2c0.4-2.7,0.9-5.2,1.6-7.4c0.3-1.1,0.7-2.1,1-2.9c0.3-0.9,0.7-1.6,1-2.3
		c0.3-0.6,0.6-1.3,0.7-1.6c0.2-0.3,0.3-0.7,0.3-0.7h0.6c0,0,0,0.9,0.1,2.1c0,1.3,0.1,3.1,0.1,5.3c0,4.3,0.1,10.1,0.1,15.8
		c-0.1,5.7-0.1,11.5-0.1,15.8c0,2.2-0.1,3.8-0.1,5.1c0,1.3-0.1,1.9-0.1,1.9H565.6z"/>
</g>
<g id="XMLID_23_">
	<line id="XMLID_961_" class="st1" x1="420.6" y1="362.7" x2="411.2" y2="348.3"/>
	<path id="XMLID_960_" class="st1" d="M420.3,362.9c0,0-0.1,0-0.4,0c-0.2,0-0.6,0-0.9-0.1c-0.4,0-0.8-0.1-1.3-0.2
		c-0.5-0.1-0.9-0.2-1.4-0.4c-1-0.3-2-0.8-2.8-1.4c-0.2-0.2-0.4-0.3-0.6-0.5c-0.2-0.2-0.4-0.4-0.6-0.6c-0.4-0.4-0.7-0.8-1-1.3
		c-0.3-0.5-0.6-0.9-0.7-1.4c-0.1-0.2-0.2-0.5-0.3-0.8c-0.1-0.3-0.2-0.5-0.2-0.8c-0.2-1-0.3-2.1-0.2-3.2c0-0.5,0.1-1,0.2-1.5
		c0.1-0.4,0.2-0.9,0.3-1.2c0.1-0.3,0.2-0.7,0.3-0.8c0.1-0.2,0.1-0.3,0.1-0.3l0.5-0.3c0,0,0.2,0.2,0.4,0.6c0.3,0.4,0.7,0.9,1.2,1.6
		c0.5,0.7,1,1.4,1.6,2.3c0.6,0.8,1.2,1.7,1.8,2.6c0.6,0.9,1.2,1.8,1.7,2.7c0.5,0.8,1,1.7,1.4,2.4c0.4,0.7,0.7,1.3,1,1.7
		c0.2,0.4,0.4,0.6,0.4,0.6L420.3,362.9z"/>
</g>
<g id="XMLID_24_">
	<line id="XMLID_958_" class="st1" x1="411.2" y1="348.3" x2="375.1" y2="352.8"/>
	<path id="XMLID_957_" class="st1" d="M411.2,348.6c0,0-0.1,0.1-0.4,0.3c-0.2,0.2-0.6,0.5-1.1,0.9c-0.5,0.3-1,0.8-1.7,1.2
		c-0.6,0.4-1.4,0.8-2.2,1.3c-1.6,0.8-3.5,1.6-5.6,2.3c-0.5,0.2-1,0.3-1.6,0.4c-0.5,0.1-1.1,0.3-1.6,0.4c-1.1,0.3-2.2,0.4-3.3,0.6
		c-1.1,0.1-2.3,0.2-3.4,0.3c-0.6,0-1.1,0-1.7,0c-0.6,0-1.1,0-1.6,0c-2.2-0.1-4.2-0.4-6-0.8c-0.9-0.2-1.7-0.4-2.4-0.7
		c-0.7-0.2-1.4-0.5-1.9-0.7c-0.5-0.2-1-0.4-1.2-0.6c-0.3-0.1-0.4-0.2-0.4-0.2l-0.1-0.6c0,0,0.6-0.1,1.5-0.2c1-0.1,2.4-0.4,4.1-0.6
		c3.4-0.5,7.9-1.1,12.4-1.7c4.5-0.5,9-1,12.4-1.4c1.7-0.2,3.1-0.3,4.1-0.4c1-0.1,1.6-0.1,1.6-0.1L411.2,348.6z"/>
</g>
<g id="XMLID_25_">
	<line id="XMLID_955_" class="st1" x1="375.1" y1="352.8" x2="341.4" y2="326.5"/>
	<path id="XMLID_954_" class="st1" d="M374.9,353c0,0-0.2,0-0.6-0.1c-0.3-0.1-0.9-0.1-1.5-0.3c-0.6-0.1-1.4-0.3-2.2-0.5
		c-0.8-0.2-1.8-0.5-2.8-0.9c-2-0.7-4.2-1.7-6.4-3c-0.6-0.3-1.1-0.6-1.7-1c-0.6-0.3-1.1-0.7-1.6-1.1c-1.1-0.7-2.2-1.5-3.2-2.3
		c-1-0.8-2.1-1.7-3-2.6c-0.5-0.4-1-0.9-1.4-1.3c-0.5-0.5-0.9-0.9-1.3-1.4c-1.7-1.8-3.2-3.7-4.4-5.5c-0.6-0.9-1.1-1.7-1.5-2.5
		c-0.4-0.8-0.8-1.5-1.1-2c-0.3-0.6-0.5-1.1-0.6-1.4c-0.1-0.3-0.2-0.5-0.2-0.5l0.4-0.5c0,0,0.5,0.4,1.5,1.1c0.9,0.7,2.3,1.7,3.9,2.9
		c3.2,2.4,7.4,5.7,11.6,8.9c4.2,3.3,8.3,6.7,11.5,9.2c1.6,1.2,2.8,2.3,3.7,3.1c0.9,0.7,1.4,1.2,1.4,1.2L374.9,353z"/>
</g>
<g id="XMLID_26_">
	<line id="XMLID_952_" class="st1" x1="341.4" y1="325.3" x2="372.6" y2="300.8"/>
	<path id="XMLID_951_" class="st1" d="M341.3,325.1c0,0,0.1-0.2,0.2-0.5c0.1-0.3,0.3-0.8,0.5-1.3c0.3-0.6,0.6-1.2,0.9-2
		c0.4-0.7,0.9-1.5,1.4-2.3c1.1-1.7,2.4-3.4,4-5.2c0.4-0.4,0.8-0.9,1.2-1.3c0.4-0.4,0.9-0.9,1.3-1.3c0.9-0.8,1.9-1.6,2.8-2.4
		c1-0.7,2-1.5,3-2.2c0.5-0.4,1-0.7,1.5-1c0.5-0.3,1-0.6,1.5-0.9c2.1-1.1,4.1-2,6-2.7c0.9-0.3,1.8-0.6,2.6-0.8
		c0.8-0.2,1.5-0.3,2.1-0.5c0.6-0.1,1.1-0.2,1.4-0.2c0.3,0,0.5,0,0.5,0l0.4,0.5c0,0-0.5,0.4-1.3,1.1c-0.8,0.7-2,1.7-3.5,2.9
		c-2.9,2.3-6.8,5.4-10.6,8.5c-3.9,3-7.9,6.1-10.8,8.3c-1.5,1.1-2.7,2-3.6,2.7c-0.9,0.6-1.4,1-1.4,1L341.3,325.1z"/>
</g>
<g id="XMLID_27_">
	<line id="XMLID_949_" class="st1" x1="373.7" y1="300.8" x2="445.8" y2="325.3"/>
	<path id="XMLID_948_" class="st1" d="M373.8,300.5c0,0,0.3,0,0.9,0c0.6,0,1.5,0,2.5,0.1c1.1,0.1,2.4,0.1,3.9,0.3
		c0.7,0.1,1.5,0.2,2.4,0.3c0.8,0.1,1.7,0.3,2.6,0.4c1.8,0.3,3.7,0.6,5.7,1c2,0.4,4.1,0.9,6.3,1.4c1.1,0.3,2.2,0.6,3.3,0.9
		c1.1,0.3,2.2,0.6,3.4,1c2.3,0.6,4.5,1.4,6.8,2.1c2.2,0.8,4.5,1.6,6.7,2.4c1.1,0.4,2.2,0.8,3.2,1.3c1.1,0.4,2.1,0.9,3.1,1.3
		c2.1,0.9,4,1.8,5.9,2.7c1.9,0.9,3.6,1.8,5.2,2.7c1.6,0.8,3,1.7,4.3,2.5c1.3,0.7,2.4,1.5,3.3,2.1c0.9,0.6,1.6,1.1,2.1,1.5
		c0.5,0.3,0.7,0.6,0.7,0.6l-0.2,0.6c0,0-1.1-0.4-3.1-1c-2-0.6-4.8-1.5-8.2-2.7c-6.8-2.3-15.8-5.3-24.8-8.3c-9-3.1-18-6.2-24.7-8.6
		c-3.4-1.2-6.2-2.2-8.1-2.9c-2-0.7-3.1-1.1-3.1-1.1L373.8,300.5z"/>
</g>
<g id="XMLID_32_">
	<path id="XMLID_946_" d="M566.9,362.5c0,0-0.1-0.1-0.1-0.3c-0.1-0.2-0.2-0.5-0.3-0.9c-0.1-0.3-0.2-0.8-0.3-1.2
		c-0.1-0.5-0.2-0.9-0.2-1.5c-0.1-1,0-2.1,0.2-3.2c0-0.3,0.1-0.5,0.2-0.8c0.1-0.3,0.2-0.5,0.3-0.8c0.2-0.5,0.5-1,0.8-1.4
		c0.3-0.4,0.6-0.9,1-1.3c0.2-0.2,0.4-0.4,0.6-0.6c0.2-0.2,0.4-0.4,0.6-0.5c0.9-0.6,1.8-1.1,2.8-1.4c0.5-0.2,1-0.3,1.4-0.4
		c0.4-0.1,0.9-0.1,1.3-0.2c0.3-0.1,0.7,0,0.9-0.1c0.2,0,0.3,0,0.3,0l0.5,0.3c0,0-0.1,0.2-0.4,0.6c-0.2,0.4-0.6,1-1,1.7
		c-0.4,0.7-0.9,1.5-1.4,2.4c-0.5,0.9-1.1,1.8-1.7,2.7c-0.6,0.9-1.2,1.8-1.8,2.6c-0.6,0.8-1.1,1.6-1.6,2.3c-0.5,0.7-0.9,1.2-1.2,1.6
		c-0.3,0.4-0.4,0.6-0.4,0.6L566.9,362.5z"/>
</g>
<g id="XMLID_31_">
	<path id="XMLID_944_" d="M576.6,348c0,0,0.2-0.1,0.4-0.2c0.3-0.1,0.7-0.4,1.2-0.6c0.5-0.2,1.2-0.5,1.9-0.7c0.7-0.2,1.5-0.5,2.4-0.7
		c1.8-0.4,3.8-0.7,6-0.8c0.5,0,1.1,0,1.6,0c0.6,0,1.1,0,1.7,0c1.1,0,2.3,0.2,3.4,0.3c1.1,0.2,2.3,0.3,3.4,0.6
		c0.6,0.1,1.1,0.2,1.6,0.4c0.5,0.1,1.1,0.3,1.6,0.4c2.1,0.6,4,1.4,5.6,2.3c0.8,0.4,1.5,0.8,2.2,1.3c0.7,0.4,1.2,0.8,1.7,1.2
		c0.5,0.3,0.8,0.7,1.1,0.9c0.2,0.2,0.4,0.3,0.4,0.3l-0.1,0.6c0,0-0.6-0.1-1.6-0.1c-1-0.1-2.4-0.2-4.1-0.4c-3.4-0.4-7.9-0.9-12.5-1.4
		c-4.5-0.6-9-1.2-12.4-1.7c-1.7-0.2-3.1-0.5-4.1-0.6c-1-0.2-1.6-0.2-1.6-0.2L576.6,348z"/>
</g>
<g id="XMLID_30_">
	<path id="XMLID_942_" d="M612.6,352.6c0,0,0.1-0.2,0.2-0.5c0.1-0.3,0.3-0.8,0.6-1.4c0.3-0.6,0.6-1.3,1.1-2.1c0.4-0.8,1-1.6,1.6-2.5
		c1.2-1.7,2.7-3.6,4.4-5.5c0.4-0.5,0.9-0.9,1.4-1.4c0.5-0.5,0.9-0.9,1.4-1.3c1-0.9,2-1.7,3.1-2.6c1.1-0.8,2.1-1.6,3.2-2.3
		c0.5-0.4,1.1-0.7,1.7-1.1c0.6-0.3,1.1-0.7,1.7-1c2.2-1.2,4.4-2.2,6.4-3c1-0.4,1.9-0.7,2.8-0.9c0.8-0.2,1.6-0.4,2.2-0.5
		c0.6-0.2,1.2-0.2,1.5-0.3c0.4-0.1,0.6-0.1,0.6-0.1l0.4,0.5c0,0-0.5,0.4-1.4,1.2c-0.9,0.7-2.2,1.8-3.8,3.1
		c-3.1,2.5-7.3,5.8-11.5,9.2c-4.2,3.3-8.5,6.5-11.7,8.9c-1.6,1.2-3,2.2-3.9,2.9c-0.9,0.7-1.5,1.1-1.5,1.1L612.6,352.6z"/>
</g>
<g id="XMLID_29_">
	<path id="XMLID_940_" d="M646.3,325.6c0,0-0.2,0-0.5,0c-0.3-0.1-0.8-0.1-1.4-0.2c-0.6-0.1-1.3-0.2-2.1-0.5
		c-0.8-0.2-1.7-0.5-2.6-0.8c-1.9-0.6-3.9-1.5-6-2.7c-0.5-0.3-1-0.6-1.5-0.9c-0.5-0.3-1-0.6-1.5-1c-1-0.7-2-1.4-3-2.2
		c-1-0.8-1.9-1.6-2.8-2.4c-0.5-0.4-0.9-0.8-1.3-1.3c-0.4-0.4-0.9-0.8-1.2-1.3c-1.6-1.7-3-3.5-4-5.2c-0.5-0.8-1-1.6-1.4-2.3
		c-0.4-0.7-0.7-1.4-1-2c-0.3-0.5-0.4-1-0.5-1.3c-0.1-0.3-0.2-0.5-0.2-0.5l0.4-0.5c0,0,0.5,0.4,1.4,1c0.9,0.7,2.1,1.6,3.6,2.7
		c3,2.3,6.9,5.3,10.8,8.3c3.9,3.1,7.8,6.2,10.7,8.5c1.5,1.2,2.6,2.2,3.5,2.9c0.8,0.7,1.3,1.1,1.3,1.1L646.3,325.6z"/>
</g>
<g id="XMLID_28_">
	<path id="XMLID_938_" d="M614.2,301.1c0,0-0.3,0.2-0.7,0.6c-0.5,0.3-1.2,0.9-2.1,1.5c-0.9,0.6-2,1.4-3.3,2.1
		c-0.6,0.4-1.3,0.8-2.1,1.2c-0.7,0.4-1.5,0.8-2.3,1.3c-1.6,0.9-3.4,1.8-5.3,2.7c-1.9,0.9-3.9,1.8-6,2.7c-1,0.5-2.1,0.9-3.2,1.3
		c-1.1,0.4-2.2,0.9-3.3,1.3c-2.2,0.9-4.5,1.6-6.8,2.4c-2.3,0.7-4.6,1.5-6.9,2.1c-1.1,0.3-2.3,0.7-3.4,0.9c-1.1,0.3-2.2,0.6-3.4,0.9
		c-2.2,0.5-4.4,1-6.4,1.4c-2.1,0.4-4,0.7-5.9,1c-1.8,0.3-3.5,0.5-5,0.6c-1.5,0.2-2.8,0.2-3.9,0.3c-1.1,0.1-2,0.1-2.6,0.1
		c-0.6,0-0.9,0-0.9,0l-0.2-0.6c0,0,1.1-0.4,3.1-1.1c2-0.7,4.9-1.7,8.3-2.9c6.9-2.3,16.1-5.4,25.2-8.6c9.2-3,18.4-6,25.3-8.3
		c3.5-1.1,6.3-2,8.4-2.7c2-0.6,3.2-1,3.2-1L614.2,301.1z"/>
</g>
<g id="XMLID_41_">
	<path id="XMLID_935_" class="st1" d="M349.5,274.9"/>
</g>
<g id="XMLID_40_">
	<path id="XMLID_932_" class="st1" d="M369.1,300.8"/>
</g>
<g id="XMLID_116_">
	<path id="XMLID_929_" class="st1" d="M349.5,274.9"/>
</g>
<g id="XMLID_115_">
	<path id="XMLID_926_" class="st3" d="M396.6,110.3"/>
</g>
<g id="XMLID_35_">
	<path id="XMLID_923_" class="st3" d="M402.1,109"/>
</g>
<g id="XMLID_34_">
	<path id="XMLID_920_" class="st3" d="M396.6,110.3"/>
</g>
<g id="XMLID_114_">
	<path id="XMLID_916_" class="st3" d="M402.1,109"/>
</g>
<g id="XMLID_110_">
	<path id="XMLID_912_" class="st1" d="M469.9,300.8"/>
</g>
<g id="XMLID_38_">
	<path id="XMLID_907_" class="st3" d="M617.1,300.8"/>
</g>
<g id="XMLID_112_">
	<path id="XMLID_903_" class="st3" d="M589.8,110.3"/>
</g>
<g id="XMLID_37_">
	<path id="XMLID_896_" class="st3" d="M584.3,109"/>
</g>
<g id="XMLID_36_">
	<path id="XMLID_890_" class="st3" d="M589.8,110.3"/>
</g>
<g id="XMLID_71_">
	<path id="XMLID_880_" class="st3" d="M584.3,109"/>
</g>
<g id="XMLID_111_">
	<path id="XMLID_871_" class="st3" d="M515.9,300.8"/>
</g>
<g id="XMLID_33_">
	<line id="XMLID_862_" class="st1" x1="349.5" y1="318.4" x2="301.8" y2="284.8"/>
	<path id="XMLID_855_" class="st1" d="M349.3,318.6c0,0-0.3,0-0.7-0.1c-0.4-0.1-1.1-0.2-1.9-0.5c-0.8-0.2-1.8-0.5-2.9-0.9
		c-1.1-0.4-2.3-0.8-3.6-1.3c-2.6-1-5.5-2.4-8.5-4.1c-0.8-0.4-1.5-0.8-2.3-1.3c-0.8-0.4-1.5-0.9-2.3-1.4c-1.5-0.9-3-2-4.5-3
		c-1.5-1.1-3-2.1-4.4-3.3c-0.7-0.5-1.4-1.1-2.1-1.7c-0.7-0.6-1.4-1.1-2-1.7c-2.6-2.3-4.9-4.6-6.7-6.7c-0.9-1-1.8-2.1-2.5-3
		c-0.7-0.9-1.3-1.7-1.8-2.4c-0.5-0.7-0.8-1.3-1.1-1.7c-0.2-0.4-0.4-0.6-0.4-0.6l0.3-0.5c0,0,0.8,0.5,2.1,1.4
		c1.3,0.9,3.2,2.1,5.5,3.7c4.5,3.1,10.5,7.3,16.5,11.4c5.9,4.2,11.9,8.5,16.3,11.6c2.2,1.6,4.1,3,5.3,3.9c1.3,0.9,2,1.5,2,1.5
		L349.3,318.6z"/>
</g>
<g id="XMLID_42_">
	<line id="XMLID_846_" class="st1" x1="301.8" y1="284.8" x2="249.3" y2="279.9"/>
	<path id="XMLID_839_" class="st1" d="M301.7,285.1c0,0-0.2,0.1-0.6,0.2c-0.4,0.1-1,0.4-1.7,0.6c-0.7,0.2-1.6,0.5-2.7,0.7
		c-1,0.2-2.2,0.5-3.4,0.7c-2.5,0.4-5.4,0.7-8.5,0.8c-0.8,0-1.6,0-2.4,0c-0.8,0-1.6,0-2.4,0c-1.6,0-3.3-0.2-4.9-0.3
		c-1.6-0.2-3.3-0.4-4.9-0.6c-0.8-0.1-1.6-0.3-2.4-0.4c-0.8-0.1-1.6-0.3-2.3-0.5c-3-0.7-5.9-1.5-8.3-2.4c-1.2-0.4-2.3-0.9-3.3-1.3
		c-1-0.4-1.8-0.8-2.5-1.2c-0.7-0.3-1.2-0.7-1.6-0.9c-0.4-0.2-0.6-0.3-0.6-0.3l0.1-0.6c0,0,0.8,0.1,2.3,0.2c1.4,0.1,3.5,0.2,6,0.5
		c4.9,0.4,11.5,1,18,1.6c6.6,0.7,13.1,1.3,18,1.8c2.5,0.2,4.5,0.5,5.9,0.7c1.4,0.2,2.2,0.3,2.2,0.3L301.7,285.1z"/>
</g>
<g id="XMLID_43_">
	<line id="XMLID_833_" class="st1" x1="249.3" y1="279.9" x2="223.7" y2="261.4"/>
	<path id="XMLID_827_" class="st1" d="M249.1,280.1c0,0-0.2,0-0.5,0c-0.3,0-0.7,0-1.2,0c-0.5,0-1.1,0-1.8-0.1
		c-0.7-0.1-1.4-0.2-2.2-0.4c-1.6-0.3-3.3-0.9-5-1.7c-0.4-0.2-0.9-0.4-1.3-0.6c-0.4-0.2-0.9-0.4-1.3-0.7c-0.9-0.5-1.7-1-2.5-1.6
		c-0.8-0.6-1.6-1.2-2.3-1.8c-0.4-0.3-0.7-0.6-1.1-1c-0.3-0.3-0.7-0.7-1-1c-1.3-1.4-2.4-2.8-3.2-4.2c-0.4-0.7-0.8-1.4-1.1-2
		c-0.3-0.6-0.5-1.2-0.7-1.7c-0.2-0.5-0.3-0.9-0.4-1.2c-0.1-0.3-0.1-0.4-0.1-0.4l0.4-0.5c0,0,0.4,0.3,1.1,0.8c0.7,0.5,1.8,1.1,3,2
		c2.4,1.7,5.6,4,8.9,6.2c3.2,2.3,6.3,4.7,8.7,6.5c1.2,0.9,2.1,1.7,2.8,2.2c0.7,0.5,1.1,0.8,1.1,0.8L249.1,280.1z"/>
</g>
<g id="XMLID_44_">
	<line id="XMLID_821_" class="st1" x1="223.7" y1="261.4" x2="218.4" y2="238.9"/>
	<path id="XMLID_815_" class="st1" d="M223.4,261.5c0,0-0.1-0.1-0.3-0.2c-0.2-0.1-0.5-0.3-0.9-0.5c-0.3-0.2-0.8-0.5-1.2-0.9
		c-0.4-0.4-0.9-0.8-1.3-1.2c-0.9-0.9-1.7-2-2.4-3.2c-0.2-0.3-0.3-0.6-0.5-0.9c-0.2-0.3-0.3-0.6-0.4-1c-0.3-0.7-0.5-1.4-0.6-2.1
		c-0.1-0.7-0.3-1.4-0.3-2.1c-0.1-0.4-0.1-0.7-0.1-1.1c0-0.4,0-0.7,0-1.1c0-1.4,0.3-2.8,0.7-4c0.2-0.6,0.4-1.2,0.6-1.7
		c0.2-0.5,0.5-1,0.7-1.3c0.2-0.4,0.4-0.7,0.5-0.9c0.1-0.2,0.2-0.3,0.2-0.3l0.6-0.1c0,0,0.1,0.3,0.3,1c0.2,0.6,0.4,1.5,0.7,2.5
		c0.3,1,0.6,2.3,1,3.6c0.3,1.3,0.7,2.7,1,4.1c0.3,1.4,0.6,2.8,0.9,4.1c0.3,1.3,0.5,2.6,0.8,3.6c0.2,1.1,0.4,2,0.5,2.6
		c0.1,0.6,0.2,1,0.2,1L223.4,261.5z"/>
</g>
<g id="XMLID_45_">
	<line id="XMLID_809_" class="st1" x1="218.4" y1="238.9" x2="231.4" y2="253.3"/>
	<path id="XMLID_803_" class="st1" d="M218.6,238.7c0,0,0.1,0,0.4,0c0.2,0,0.6,0,0.9,0c0.4,0,0.9,0,1.4,0.1c0.5,0.1,1,0.1,1.6,0.3
		c1.1,0.2,2.2,0.7,3.2,1.3c0.3,0.1,0.5,0.3,0.8,0.5c0.3,0.2,0.5,0.3,0.7,0.5c0.5,0.4,0.9,0.8,1.3,1.2c0.4,0.5,0.8,0.9,1.1,1.4
		c0.2,0.2,0.3,0.5,0.5,0.8c0.1,0.3,0.3,0.5,0.4,0.8c0.5,1.1,0.8,2.3,0.9,3.4c0.1,0.6,0.1,1.1,0.1,1.6c0,0.5,0,1-0.1,1.3
		c0,0.4-0.1,0.7-0.1,0.9c0,0.2-0.1,0.4-0.1,0.4l-0.4,0.4c0,0-0.2-0.2-0.6-0.6c-0.4-0.4-0.9-0.9-1.6-1.6c-0.6-0.7-1.4-1.4-2.2-2.2
		c-0.8-0.8-1.6-1.7-2.4-2.6c-0.8-0.9-1.6-1.8-2.4-2.7c-0.8-0.9-1.4-1.7-2-2.4c-0.6-0.7-1-1.3-1.4-1.7c-0.3-0.4-0.5-0.7-0.5-0.7
		L218.6,238.7z"/>
</g>
<g id="XMLID_46_">
	<line id="XMLID_797_" class="st1" x1="231.4" y1="253.3" x2="243" y2="261.4"/>
	<path id="XMLID_791_" class="st1" d="M231.5,253.1c0,0,0.1,0,0.3-0.1c0.2-0.1,0.5-0.2,0.8-0.3c0.3-0.1,0.7-0.3,1.1-0.4
		c0.4-0.1,0.9-0.2,1.3-0.3c0.9-0.1,1.9-0.2,2.8,0c0.9,0.1,1.7,0.5,2.5,1c0.7,0.5,1.4,1.2,1.8,2c0.5,0.8,0.8,1.7,1,2.6
		c0.1,0.4,0.1,0.9,0.2,1.3c0.1,0.4,0,0.8,0,1.2c0,0.3,0,0.7,0,0.9c0,0.2,0,0.3,0,0.3l-0.3,0.5c0,0-0.2-0.1-0.5-0.3
		c-0.3-0.2-0.8-0.5-1.4-0.8c-0.6-0.4-1.2-0.8-1.9-1.2c-0.7-0.5-1.4-1-2.2-1.5c-0.7-0.5-1.4-1-2.1-1.5c-0.7-0.5-1.3-1-1.8-1.4
		c-0.5-0.4-0.9-0.8-1.3-1c-0.3-0.2-0.5-0.4-0.5-0.4L231.5,253.1z"/>
</g>
<g id="XMLID_47_">
	<line id="XMLID_785_" class="st1" x1="242" y1="264" x2="263" y2="264"/>
	<path id="XMLID_769_" class="st1" d="M242,263.8c0,0-0.1-0.1,0.1-0.3c0.2-0.2,0.3-0.5,0.6-0.7c0.3-0.3,0.6-0.6,1-1
		c0.4-0.3,0.9-0.7,1.4-1c1-0.6,2.2-1.2,3.4-1.6c0.3-0.1,0.6-0.2,1-0.2c0.3-0.1,0.7-0.1,1-0.2c0.7-0.1,1.3-0.1,2-0.2
		c0.7,0,1.3,0,2,0.2c0.3,0,0.7,0.1,1,0.2c0.3,0.1,0.6,0.1,1,0.2c1.3,0.4,2.4,0.9,3.4,1.6c0.5,0.3,1,0.7,1.4,1c0.4,0.3,0.8,0.7,1.1,1
		c0.3,0.3,0.4,0.6,0.6,0.7c0.2,0.2,0.1,0.3,0.1,0.3v0.6c0,0-0.2,0-0.8,0.1c-0.6,0-1.4,0.1-2.4,0.1c-1,0-2.2,0.1-3.4,0.1
		c-1.3,0-2.6,0-3.9,0c-1.3,0-2.7,0-3.9,0c-1.3,0-2.4-0.1-3.4-0.1c-1,0-1.7-0.1-2.3-0.1c-0.6,0-0.8-0.1-0.8-0.1V263.8z"/>
</g>
<g id="XMLID_48_">
	<line id="XMLID_763_" class="st1" x1="263.2" y1="262.8" x2="191.9" y2="175"/>
	<path id="XMLID_757_" class="st1" d="M263,263c0,0-0.4-0.3-1-0.8c-0.6-0.5-1.6-1.3-2.8-2.3c-1.2-1-2.7-2.3-4.2-3.7
		c-0.8-0.7-1.7-1.5-2.6-2.3c-0.9-0.8-1.8-1.7-2.8-2.7c-1-0.9-2-1.9-3-2.9c-1-1-2-2.1-3.1-3.2c-2.1-2.2-4.4-4.5-6.6-7
		c-1.1-1.2-2.2-2.5-3.4-3.8c-1.1-1.3-2.3-2.6-3.4-3.9c-2.3-2.6-4.5-5.4-6.8-8.1c-2.2-2.8-4.4-5.5-6.5-8.3c-1.1-1.4-2.1-2.8-3.1-4.1
		c-1-1.4-2-2.7-3-4.1c-2-2.7-3.7-5.3-5.5-7.9c-0.8-1.3-1.7-2.5-2.5-3.7c-0.8-1.2-1.5-2.4-2.2-3.5c-1.5-2.2-2.7-4.4-3.8-6.2
		c-1.1-1.9-2-3.5-2.8-4.9c-0.8-1.4-1.3-2.5-1.7-3.2c-0.4-0.8-0.6-1.2-0.6-1.2l0.5-0.4c0,0,4.5,5.4,11.3,13.6
		c6.7,8.2,15.7,19.1,24.6,30.1c8.9,11,17.7,22,24.4,30.3c6.6,8.3,11,13.8,11,13.8L263,263z"/>
</g>
<g id="XMLID_49_">
	<line id="XMLID_751_" class="st1" x1="191.9" y1="175" x2="187" y2="150.3"/>
	<path id="XMLID_746_" class="st1" d="M191.6,175.1c0,0-0.1-0.1-0.3-0.2c-0.2-0.1-0.5-0.4-0.9-0.6c-0.3-0.3-0.8-0.6-1.2-1
		c-0.4-0.4-0.8-0.9-1.3-1.4c-0.9-1-1.7-2.3-2.3-3.7c-0.2-0.3-0.3-0.7-0.5-1.1c-0.2-0.4-0.3-0.7-0.4-1.1c-0.3-0.7-0.4-1.5-0.6-2.3
		c-0.1-0.8-0.3-1.6-0.3-2.3c0-0.4,0-0.8,0-1.2c0-0.4,0-0.8,0-1.2c0.1-1.5,0.4-3,0.7-4.3c0.2-0.6,0.4-1.2,0.6-1.8
		c0.2-0.5,0.5-1,0.7-1.4c0.2-0.4,0.4-0.7,0.5-0.9c0.1-0.2,0.2-0.3,0.2-0.3l0.6-0.1c0,0,0.1,0.4,0.3,1.1c0.2,0.7,0.4,1.6,0.7,2.8
		c0.5,2.3,1.2,5.4,1.8,8.5c0.6,3.1,1.1,6.2,1.6,8.5c0.2,1.2,0.3,2.1,0.4,2.8c0.1,0.7,0.2,1.1,0.2,1.1L191.6,175.1z"/>
</g>
<g id="XMLID_50_">
	<line id="XMLID_742_" class="st1" x1="187" y1="150.3" x2="189.4" y2="129.1"/>
	<path id="XMLID_739_" class="st1" d="M186.7,150.3c0,0-0.1-0.1-0.3-0.3c-0.1-0.2-0.4-0.4-0.6-0.8c-0.2-0.3-0.6-0.7-0.8-1.2
		c-0.3-0.4-0.6-0.9-0.8-1.5c-0.5-1.1-0.9-2.3-1.2-3.6c-0.1-0.3-0.1-0.6-0.1-1c0-0.3-0.1-0.7-0.1-1c0-0.7,0-1.3,0.1-2
		c0.1-0.7,0.2-1.3,0.4-2c0.1-0.3,0.2-0.6,0.3-0.9c0.1-0.3,0.2-0.6,0.4-0.9c0.5-1.2,1.2-2.3,2-3.2c0.4-0.5,0.8-0.9,1.1-1.2
		c0.4-0.4,0.8-0.7,1.1-0.9c0.3-0.3,0.6-0.5,0.8-0.6c0.2-0.1,0.3-0.2,0.3-0.2l0.6,0.1c0,0,0,0.3-0.1,0.9c0,0.6-0.1,1.4-0.2,2.4
		c-0.1,1-0.2,2.2-0.3,3.4c-0.1,1.2-0.3,2.6-0.4,3.9c-0.2,1.3-0.3,2.6-0.5,3.9c-0.2,1.2-0.3,2.4-0.5,3.4c-0.1,1-0.3,1.8-0.4,2.4
		c-0.1,0.6-0.2,0.9-0.2,0.9L186.7,150.3z"/>
</g>
<g id="XMLID_51_">
	<line id="XMLID_736_" class="st1" x1="189.4" y1="129.1" x2="191.9" y2="150.3"/>
	<path id="XMLID_734_" class="st1" d="M189.7,129.1c0,0,0.1,0.1,0.3,0.2c0.2,0.1,0.5,0.3,0.8,0.6c0.3,0.3,0.7,0.6,1.1,0.9
		c0.4,0.4,0.8,0.8,1.1,1.2c0.7,0.9,1.4,2,2,3.2c0.1,0.3,0.2,0.6,0.4,0.9c0.1,0.3,0.2,0.6,0.3,0.9c0.2,0.6,0.3,1.3,0.4,2
		c0,0.7,0.1,1.3,0.1,2c0,0.3,0,0.7-0.1,1c0,0.3-0.1,0.6-0.1,1c-0.2,1.3-0.6,2.5-1.2,3.6c-0.3,0.5-0.5,1-0.8,1.5
		c-0.3,0.4-0.6,0.8-0.8,1.2c-0.2,0.3-0.5,0.6-0.6,0.8c-0.2,0.2-0.3,0.3-0.3,0.3l-0.6,0.1c0,0-0.1-0.3-0.2-0.9
		c-0.1-0.6-0.3-1.4-0.4-2.4c-0.1-1-0.3-2.1-0.5-3.4c-0.2-1.2-0.3-2.6-0.5-3.9c-0.1-1.3-0.3-2.6-0.4-3.9c-0.1-1.2-0.2-2.4-0.3-3.4
		c-0.1-1-0.1-1.8-0.2-2.4c0-0.6-0.1-0.9-0.1-0.9L189.7,129.1z"/>
</g>
<g id="XMLID_52_">
	<line id="XMLID_723_" class="st1" x1="191.9" y1="150.3" x2="214.3" y2="178.2"/>
	<path id="XMLID_721_" class="st1" d="M192.1,150.1c0,0,0.2,0,0.5,0.1c0.3,0.1,0.8,0.2,1.3,0.4c0.5,0.2,1.2,0.4,1.9,0.8
		c0.7,0.3,1.4,0.7,2.2,1.2c1.5,0.9,3.2,2.1,4.8,3.5c0.4,0.3,0.8,0.7,1.2,1.1c0.4,0.4,0.8,0.8,1.2,1.2c0.8,0.8,1.5,1.7,2.2,2.5
		c0.7,0.9,1.4,1.8,2,2.7c0.3,0.5,0.6,0.9,0.9,1.4c0.3,0.5,0.6,0.9,0.8,1.4c1,1.9,1.8,3.7,2.4,5.5c0.3,0.9,0.5,1.7,0.7,2.4
		c0.2,0.7,0.3,1.4,0.4,2c0.1,0.5,0.1,1,0.2,1.3c0,0.3,0,0.5,0,0.5l-0.5,0.4c0,0-0.4-0.4-1-1.2c-0.6-0.7-1.6-1.8-2.6-3.1
		c-2.1-2.6-5-6-7.8-9.5c-2.8-3.5-5.5-7-7.6-9.7c-1-1.3-1.9-2.5-2.5-3.2c-0.6-0.8-0.9-1.2-0.9-1.2L192.1,150.1z"/>
</g>
<g id="XMLID_53_">
	<line id="XMLID_709_" class="st1" x1="214.3" y1="178.2" x2="211.6" y2="89.5"/>
	<path id="XMLID_699_" class="st1" d="M214,178.2c0,0-0.1-0.3-0.3-1c-0.2-0.6-0.5-1.6-0.8-2.8c-0.3-1.2-0.7-2.7-1.1-4.3
		c-0.2-0.8-0.4-1.7-0.6-2.7c-0.2-0.9-0.4-1.9-0.6-3c-0.4-2.1-0.8-4.3-1.1-6.7c-0.3-2.4-0.6-4.9-0.9-7.5c-0.2-1.3-0.3-2.6-0.4-3.9
		c-0.1-1.3-0.2-2.7-0.3-4c-0.2-2.7-0.3-5.5-0.4-8.3c-0.1-2.8-0.1-5.5-0.1-8.3c0-1.4,0-2.7,0.1-4.1c0-1.3,0.1-2.7,0.1-4
		c0.1-2.6,0.3-5.1,0.5-7.5c0.2-2.4,0.5-4.6,0.7-6.7c0.2-2.1,0.5-4,0.8-5.7c0.2-1.7,0.6-3.2,0.8-4.4c0.2-1.2,0.5-2.2,0.6-2.8
		c0.2-0.7,0.3-1,0.3-1l0.6,0c0,0,0.1,1.4,0.2,3.8c0.1,2.4,0.3,5.9,0.4,10c0.3,8.3,0.7,19.4,1.1,30.5c0.3,11.1,0.6,22.2,0.8,30.5
		c0.1,4.2,0.1,7.6,0.2,10c0,2.4,0.1,3.8,0.1,3.8L214,178.2z"/>
</g>
<g id="XMLID_54_">
	<line id="XMLID_696_" class="st1" x1="211.6" y1="89.5" x2="244.8" y2="29.7"/>
	<path id="XMLID_695_" class="st1" d="M211.4,89.4c0,0,0-0.3,0.1-0.8c0.1-0.5,0.2-1.3,0.4-2.2c0.2-1,0.4-2.1,0.8-3.4
		c0.3-1.3,0.7-2.8,1.2-4.3c1-3.1,2.3-6.7,3.9-10.3c0.4-0.9,0.8-1.9,1.3-2.8c0.4-0.9,0.9-1.9,1.4-2.8c0.9-1.9,1.9-3.8,3-5.7
		c1.1-1.9,2.1-3.7,3.2-5.5c0.5-0.9,1.1-1.8,1.7-2.6c0.6-0.9,1.1-1.7,1.7-2.5c2.3-3.3,4.6-6.3,6.7-8.8c1-1.3,2.1-2.4,3-3.3
		c0.9-1,1.8-1.8,2.5-2.5c0.7-0.7,1.3-1.2,1.7-1.6c0.4-0.4,0.6-0.5,0.6-0.5l0.5,0.3c0,0-0.5,0.9-1.4,2.6c-0.9,1.6-2.1,4-3.7,6.8
		c-3.1,5.6-7.2,13.1-11.3,20.6c-4.2,7.5-8.4,14.9-11.5,20.5c-1.6,2.8-2.9,5.1-3.9,6.7c-0.9,1.6-1.5,2.5-1.5,2.5L211.4,89.4z"/>
</g>
<g id="XMLID_55_">
	<line id="XMLID_666_" class="st1" x1="244.8" y1="29.7" x2="256" y2="27.9"/>
	<path id="XMLID_665_" class="st1" d="M244.8,29.4c0,0,0-0.1,0.1-0.3c0.1-0.2,0.1-0.5,0.2-0.8c0.1-0.3,0.2-0.7,0.4-1
		c0.2-0.4,0.3-0.8,0.6-1.1c0.4-0.7,0.9-1.4,1.5-1.8c0.6-0.5,1.3-0.8,2-0.9c0.7-0.1,1.4,0,2.2,0.3c0.7,0.3,1.4,0.7,2,1.3
		c0.3,0.3,0.6,0.6,0.9,0.9c0.3,0.3,0.5,0.6,0.7,0.8c0.2,0.2,0.4,0.5,0.5,0.7c0.1,0.2,0.2,0.3,0.2,0.3l0.1,0.6c0,0-0.2,0-0.5,0.1
		c-0.3,0.1-0.7,0.2-1.3,0.3c-0.5,0.1-1.1,0.3-1.8,0.4c-0.7,0.1-1.4,0.2-2.1,0.4c-0.7,0.1-1.4,0.2-2.1,0.3c-0.7,0.1-1.3,0.1-1.8,0.2
		c-0.5,0.1-1,0.1-1.3,0.1c-0.3,0-0.5,0-0.5,0L244.8,29.4z"/>
</g>
<g id="XMLID_56_">
	<line id="XMLID_663_" class="st1" x1="256" y1="27.9" x2="231.4" y2="75.6"/>
	<path id="XMLID_662_" class="st1" d="M256.3,28c0,0,0,0.2,0,0.7c0,0.4,0,1.1-0.1,1.8c-0.1,0.8-0.2,1.7-0.4,2.8
		c-0.2,1.1-0.4,2.2-0.7,3.5c-0.6,2.5-1.4,5.4-2.6,8.4c-0.3,0.7-0.6,1.5-0.9,2.2c-0.3,0.8-0.6,1.5-1,2.3c-0.7,1.5-1.4,3-2.2,4.5
		c-0.8,1.5-1.6,3-2.4,4.4c-0.4,0.7-0.8,1.4-1.3,2.1c-0.4,0.7-0.9,1.4-1.3,2c-1.8,2.6-3.6,5-5.3,6.9c-0.9,1-1.7,1.8-2.4,2.6
		c-0.8,0.8-1.5,1.4-2.1,1.9c-0.6,0.5-1.1,0.9-1.4,1.2c-0.3,0.3-0.5,0.4-0.5,0.4l-0.5-0.3c0,0,0.4-0.8,1-2.1c0.7-1.3,1.5-3.2,2.7-5.5
		c2.3-4.5,5.3-10.5,8.4-16.5c3.1-5.9,6.3-11.9,8.6-16.3c1.2-2.2,2.2-4.1,2.9-5.4c0.7-1.3,1.1-2,1.1-2L256.3,28z"/>
</g>
<g id="XMLID_57_">
	<line id="XMLID_660_" class="st1" x1="231.4" y1="75.6" x2="239.9" y2="133.9"/>
	<path id="XMLID_659_" class="st1" d="M231.7,75.5c0,0,0.1,0.2,0.4,0.6c0.2,0.4,0.6,1,1,1.7c0.4,0.8,0.9,1.7,1.3,2.7
		c0.5,1.1,1,2.3,1.5,3.6c1,2.6,2,5.7,2.9,9.1c0.2,0.8,0.4,1.7,0.6,2.6c0.2,0.9,0.4,1.7,0.6,2.6c0.4,1.8,0.7,3.6,0.9,5.4
		c0.2,1.8,0.5,3.6,0.6,5.5c0.1,0.9,0.2,1.8,0.2,2.7c0.1,0.9,0.1,1.8,0.1,2.6c0.1,3.5,0,6.7-0.2,9.6c-0.1,1.4-0.3,2.7-0.4,3.9
		c-0.1,1.2-0.3,2.2-0.5,3c-0.1,0.8-0.3,1.5-0.4,2c-0.1,0.5-0.2,0.7-0.2,0.7l-0.6,0.1c0,0-0.2-0.9-0.4-2.5c-0.3-1.6-0.7-3.9-1.1-6.6
		c-0.8-5.5-2-12.7-3.1-20c-1-7.3-2-14.6-2.8-20.1c-0.4-2.7-0.6-5-0.9-6.6c-0.2-1.6-0.3-2.5-0.3-2.5L231.7,75.5z"/>
</g>
<g id="XMLID_58_">
	<line id="XMLID_657_" class="st1" x1="239.9" y1="133.9" x2="275.5" y2="89.5"/>
	<path id="XMLID_656_" class="st1" d="M239.6,133.7c0,0,0-0.2,0.2-0.7c0.1-0.4,0.3-1.1,0.6-1.9c0.3-0.8,0.6-1.7,1-2.8
		c0.4-1,0.9-2.2,1.5-3.5c1.2-2.5,2.7-5.3,4.5-8.1c0.4-0.7,0.9-1.4,1.4-2.1c0.5-0.7,1-1.4,1.5-2.1c1-1.4,2.1-2.8,3.2-4.2
		c1.1-1.4,2.3-2.7,3.4-4c0.6-0.7,1.2-1.3,1.8-1.9c0.6-0.6,1.2-1.2,1.8-1.8c2.4-2.4,4.8-4.4,6.9-6.1c1.1-0.8,2.1-1.6,3.1-2.2
		c0.9-0.7,1.8-1.2,2.5-1.6c0.7-0.4,1.3-0.7,1.7-1c0.4-0.2,0.6-0.3,0.6-0.3l0.5,0.4c0,0-0.5,0.7-1.5,1.9c-1,1.2-2.3,3-4,5.1
		c-3.3,4.2-7.7,9.8-12.1,15.3c-4.5,5.5-9,11-12.4,15.2c-1.7,2.1-3.1,3.8-4.1,5c-1,1.2-1.6,1.9-1.6,1.9L239.6,133.7z"/>
</g>
<g id="XMLID_59_">
	<line id="XMLID_654_" class="st1" x1="275.5" y1="89.5" x2="294.1" y2="41.8"/>
	<path id="XMLID_653_" class="st1" d="M275.2,89.4c0,0,0-0.2-0.1-0.6c0-0.4-0.1-1-0.1-1.8c0-0.8,0-1.7,0-2.7c0-1,0.1-2.2,0.3-3.4
		c0.3-2.5,0.8-5.3,1.5-8.2c0.2-0.7,0.4-1.5,0.6-2.2c0.2-0.7,0.4-1.5,0.7-2.2c0.5-1.5,1-3,1.6-4.5c0.6-1.5,1.2-3,1.9-4.4
		c0.3-0.7,0.7-1.4,1-2.1c0.3-0.7,0.7-1.4,1.1-2c1.4-2.7,3-5.1,4.4-7.1c0.7-1,1.4-1.9,2.1-2.7c0.7-0.8,1.3-1.5,1.8-2
		c0.5-0.6,1-1,1.3-1.3c0.3-0.3,0.5-0.4,0.5-0.4l0.6,0.2c0,0-0.3,0.8-0.8,2.1c-0.5,1.3-1.1,3.2-2,5.4c-1.7,4.5-4,10.5-6.3,16.4
		c-2.4,5.9-4.7,11.9-6.5,16.3c-0.9,2.2-1.7,4.1-2.2,5.4c-0.5,1.3-0.8,2-0.8,2L275.2,89.4z"/>
</g>
<g id="XMLID_60_">
	<line id="XMLID_610_" class="st1" x1="294.1" y1="41.8" x2="284.8" y2="102.1"/>
	<path id="XMLID_609_" class="st1" d="M294.4,41.9c0,0,0.1,0.3,0.2,0.7c0.1,0.5,0.3,1.2,0.4,2c0.1,0.9,0.4,1.9,0.5,3.1
		c0.1,1.2,0.3,2.5,0.4,4c0.2,2.9,0.2,6.3,0.1,9.9c0,0.9-0.1,1.8-0.2,2.7c-0.1,0.9-0.1,1.9-0.2,2.8c-0.2,1.9-0.5,3.8-0.7,5.6
		c-0.3,1.9-0.6,3.8-1,5.6c-0.2,0.9-0.4,1.8-0.6,2.7c-0.2,0.9-0.4,1.8-0.7,2.7c-0.9,3.5-2,6.7-3,9.4c-0.5,1.4-1.1,2.6-1.6,3.7
		c-0.5,1.1-1,2-1.4,2.8c-0.4,0.8-0.8,1.4-1,1.8c-0.2,0.4-0.4,0.6-0.4,0.6l-0.6-0.1c0,0,0.1-0.9,0.4-2.6c0.2-1.7,0.5-4,0.9-6.8
		c0.8-5.7,1.9-13.2,3.1-20.7c1.2-7.5,2.4-15.1,3.3-20.7c0.4-2.8,0.9-5.2,1.2-6.8c0.3-1.6,0.4-2.6,0.4-2.6L294.4,41.9z"/>
</g>
<g id="XMLID_61_">
	<line id="XMLID_607_" class="st1" x1="284.8" y1="102.1" x2="260.1" y2="162.7"/>
	<path id="XMLID_606_" class="st1" d="M285.1,102.3c0,0,0,0.3,0,0.8c0,0.5,0,1.3-0.1,2.2c-0.1,0.9-0.2,2.1-0.4,3.3
		c-0.2,1.3-0.4,2.7-0.7,4.3c-0.6,3.1-1.4,6.6-2.5,10.3c-0.3,0.9-0.6,1.9-0.9,2.8c-0.3,0.9-0.6,1.9-1,2.8c-0.7,1.9-1.4,3.8-2.2,5.7
		c-0.8,1.9-1.6,3.8-2.5,5.6c-0.4,0.9-0.9,1.8-1.3,2.7c-0.4,0.9-0.9,1.8-1.3,2.6c-1.8,3.4-3.7,6.5-5.4,9.1c-0.9,1.3-1.7,2.5-2.5,3.5
		c-0.7,1-1.5,1.9-2.1,2.6c-0.6,0.7-1.1,1.3-1.5,1.6c-0.3,0.4-0.5,0.6-0.5,0.6l-0.6-0.2c0,0,0.4-1,1-2.6c0.7-1.7,1.6-4.1,2.7-6.9
		c2.3-5.7,5.3-13.3,8.4-20.9c3.1-7.5,6.3-15.1,8.6-20.8c1.2-2.8,2.2-5.2,2.9-6.8c0.7-1.6,1.1-2.6,1.1-2.6L285.1,102.3z"/>
</g>
<g id="XMLID_62_">
	<line id="XMLID_604_" class="st1" x1="260.1" y1="162.7" x2="272.4" y2="152.1"/>
	<path id="XMLID_603_" class="st1" d="M259.9,162.4c0,0,0-0.1-0.1-0.3c0-0.2-0.1-0.5-0.1-0.9c0-0.4,0-0.8,0-1.2
		c0-0.5,0.1-0.9,0.2-1.4c0.2-1,0.5-2,1-2.9c0.1-0.2,0.3-0.4,0.4-0.7c0.1-0.2,0.3-0.4,0.5-0.6c0.3-0.4,0.7-0.7,1.1-1.1
		c0.4-0.3,0.8-0.6,1.3-0.9c0.2-0.1,0.4-0.2,0.7-0.3c0.2-0.1,0.5-0.2,0.7-0.3c1-0.3,2-0.5,3-0.5c0.5,0,1,0,1.4,0.1
		c0.4,0,0.9,0.1,1.2,0.2c0.3,0.1,0.7,0.2,0.9,0.2c0.2,0.1,0.3,0.1,0.3,0.1l0.4,0.5c0,0-0.2,0.2-0.5,0.5c-0.3,0.3-0.8,0.8-1.3,1.3
		c-0.6,0.5-1.2,1.1-1.9,1.8c-0.7,0.6-1.5,1.3-2.2,2c-0.8,0.7-1.6,1.3-2.3,1.9c-0.7,0.6-1.4,1.1-2,1.6c-0.6,0.5-1.1,0.8-1.5,1.1
		c-0.4,0.3-0.6,0.4-0.6,0.4L259.9,162.4z"/>
</g>
<g id="XMLID_63_">
	<line id="XMLID_601_" class="st1" x1="272.4" y1="152.1" x2="269.9" y2="164.2"/>
	<path id="XMLID_600_" class="st1" d="M272.7,152.2c0,0,0.1,0.1,0.2,0.2c0.1,0.1,0.4,0.3,0.6,0.5c0.2,0.2,0.6,0.5,0.8,0.8
		c0.3,0.3,0.6,0.6,0.8,1c0.5,0.7,0.9,1.5,1.1,2.3c0.2,0.8,0.3,1.6,0.1,2.3c-0.2,0.8-0.5,1.5-1,2.1c-0.5,0.6-1.2,1.2-1.9,1.6
		c-0.4,0.2-0.8,0.4-1.1,0.6c-0.3,0.2-0.7,0.3-1,0.4c-0.3,0.1-0.6,0.2-0.8,0.2c-0.2,0.1-0.3,0.1-0.3,0.1l-0.6-0.1c0,0,0-0.2,0.1-0.5
		c0-0.3,0.1-0.8,0.2-1.4c0.1-0.6,0.2-1.3,0.3-2c0.1-0.7,0.3-1.5,0.4-2.2c0.2-0.8,0.3-1.5,0.5-2.2c0.2-0.7,0.4-1.4,0.5-1.9
		c0.1-0.6,0.3-1,0.4-1.4c0.1-0.3,0.2-0.5,0.2-0.5L272.7,152.2z"/>
</g>
<g id="XMLID_64_">
	<line id="XMLID_598_" class="st1" x1="269.9" y1="164.2" x2="278" y2="238.9"/>
	<path id="XMLID_597_" class="st1" d="M270.2,164.2c0,0,0.1,0.3,0.4,0.8c0.2,0.5,0.6,1.3,1,2.3c0.4,1,0.9,2.2,1.3,3.6
		c0.2,0.7,0.5,1.4,0.8,2.2c0.3,0.8,0.5,1.6,0.7,2.5c0.5,1.7,1,3.6,1.5,5.6c0.5,2,0.9,4.1,1.4,6.2c0.2,1.1,0.4,2.2,0.6,3.3
		c0.2,1.1,0.4,2.3,0.5,3.4c0.4,2.3,0.6,4.6,0.9,7c0.2,2.3,0.5,4.7,0.6,7c0.1,1.2,0.1,2.3,0.2,3.4c0.1,1.1,0.1,2.3,0.1,3.4
		c0.1,2.2,0,4.3,0,6.4c0,2-0.2,4-0.3,5.8c-0.1,1.8-0.3,3.4-0.5,4.9c-0.1,1.5-0.4,2.7-0.5,3.8c-0.1,1-0.4,1.9-0.5,2.4
		c-0.1,0.6-0.2,0.9-0.2,0.9l-0.6,0.1c0,0-0.1-1.2-0.4-3.2c-0.2-2-0.6-4.9-1-8.5c-0.8-7-1.9-16.3-2.9-25.7c-1-9.3-1.9-18.7-2.6-25.7
		c-0.4-3.5-0.6-6.4-0.8-8.5c-0.2-2-0.3-3.2-0.3-3.2L270.2,164.2z"/>
</g>
<g id="XMLID_65_">
	<line id="XMLID_595_" class="st1" x1="278" y1="238.9" x2="289.5" y2="253.3"/>
	<path id="XMLID_594_" class="st1" d="M278.2,238.8c0,0,0.1,0,0.4,0c0.2,0,0.6,0,0.9,0c0.4,0,0.8,0,1.3,0.1c0.5,0.1,1,0.2,1.5,0.3
		c1,0.3,2.1,0.7,3.1,1.3c0.3,0.1,0.5,0.3,0.7,0.5c0.2,0.2,0.5,0.3,0.7,0.5c0.4,0.4,0.8,0.8,1.2,1.2c0.3,0.5,0.7,0.9,0.9,1.4
		c0.2,0.2,0.3,0.5,0.4,0.8c0.1,0.3,0.2,0.5,0.3,0.8c0.4,1.1,0.6,2.2,0.6,3.3c0,0.5,0,1.1,0,1.5c0,0.5-0.1,0.9-0.2,1.3
		c0,0.4-0.2,0.7-0.2,0.9c-0.1,0.2-0.1,0.3-0.1,0.3l-0.5,0.4c0,0-0.2-0.2-0.5-0.6c-0.3-0.4-0.8-0.9-1.4-1.6c-0.6-0.7-1.2-1.4-1.9-2.2
		c-0.7-0.8-1.4-1.7-2.1-2.6c-0.7-0.9-1.4-1.8-2.1-2.7c-0.7-0.8-1.2-1.7-1.8-2.4c-0.5-0.7-0.9-1.3-1.2-1.7c-0.3-0.4-0.5-0.7-0.5-0.7
		L278.2,238.8z"/>
</g>
<g id="XMLID_66_">
	<line id="XMLID_592_" class="st1" x1="289.5" y1="253.3" x2="381.8" y2="284.8"/>
	<path id="XMLID_591_" class="st1" d="M289.6,253.1c0,0,0.4,0,1.1,0.1c0.7,0.1,1.8,0.1,3.2,0.3c1.4,0.2,3,0.3,4.9,0.7
		c0.9,0.1,1.9,0.3,3,0.5c1,0.2,2.1,0.4,3.3,0.6c1.1,0.2,2.3,0.5,3.5,0.7c1.2,0.2,2.5,0.6,3.7,0.9c2.6,0.6,5.3,1.2,8,2
		c1.4,0.4,2.8,0.8,4.2,1.2c1.4,0.4,2.8,0.8,4.3,1.3c2.9,0.9,5.8,1.8,8.7,2.8c2.9,1,5.8,2,8.6,3.1c1.4,0.5,2.8,1.1,4.2,1.6
		c1.4,0.5,2.7,1.1,4,1.6c2.7,1.1,5.2,2.3,7.6,3.3c1.2,0.6,2.4,1,3.5,1.6c1.1,0.6,2.2,1.1,3.2,1.6c2.1,1,3.9,2,5.6,2.9
		c1.7,0.9,3.1,1.7,4.3,2.4c1.2,0.7,2.1,1.3,2.7,1.7c0.6,0.4,0.9,0.6,0.9,0.6l-0.2,0.6c0,0-1.4-0.5-4-1.3c-2.5-0.8-6.2-2-10.5-3.5
		c-8.7-2.9-20.2-6.8-31.8-10.7c-11.5-4-23-8-31.7-11c-4.3-1.5-7.9-2.8-10.4-3.7c-2.5-0.9-4-1.4-4-1.4L289.6,253.1z"/>
</g>
<g id="XMLID_67_">
	<line id="XMLID_589_" class="st1" x1="381.8" y1="284.8" x2="342.6" y2="246.1"/>
	<path id="XMLID_588_" class="st1" d="M381.6,285.1c0,0-0.2-0.1-0.6-0.2c-0.4-0.2-1-0.4-1.8-0.7c-0.7-0.3-1.6-0.7-2.6-1.2
		c-1-0.5-2.1-1.1-3.2-1.8c-2.3-1.4-4.8-3.1-7.4-5.1c-0.7-0.5-1.3-1-1.9-1.6c-0.6-0.5-1.3-1.1-1.9-1.6c-1.3-1.1-2.5-2.3-3.8-3.5
		c-1.2-1.2-2.4-2.5-3.5-3.7c-0.6-0.6-1.1-1.3-1.7-1.9c-0.5-0.6-1.1-1.3-1.6-1.9c-2-2.5-3.8-5-5.2-7.3c-0.7-1.1-1.3-2.2-1.8-3.2
		c-0.5-0.9-0.9-1.8-1.3-2.6c-0.4-0.7-0.6-1.3-0.7-1.7c-0.2-0.4-0.2-0.6-0.2-0.6l0.4-0.4c0,0,0.6,0.6,1.7,1.6c1.1,1,2.7,2.5,4.5,4.3
		c3.7,3.6,8.6,8.4,13.6,13.2c4.9,4.9,9.7,9.7,13.4,13.4c1.8,1.8,3.3,3.4,4.4,4.5c1.1,1.1,1.7,1.7,1.7,1.7L381.6,285.1z"/>
</g>
<g id="XMLID_68_">
	<line id="XMLID_586_" class="st1" x1="342.6" y1="246.1" x2="344.4" y2="231.3"/>
	<path id="XMLID_585_" class="st1" d="M342.3,246.1c0,0-0.1-0.1-0.3-0.2c-0.2-0.1-0.4-0.3-0.7-0.6c-0.3-0.2-0.6-0.5-0.8-0.8
		c-0.3-0.3-0.6-0.7-0.9-1.1c-0.5-0.8-1-1.7-1.3-2.6c-0.3-0.9-0.3-1.9-0.2-2.8c0.1-0.9,0.4-1.8,0.9-2.7c0.5-0.8,1.1-1.6,1.8-2.2
		c0.3-0.3,0.8-0.6,1.1-0.8c0.3-0.2,0.7-0.5,1-0.6c0.3-0.2,0.6-0.3,0.8-0.4c0.2-0.1,0.3-0.1,0.3-0.1l0.6,0.1c0,0,0,0.2,0,0.6
		c0,0.4,0,1-0.1,1.7c-0.1,0.7-0.1,1.5-0.2,2.4c-0.1,0.9-0.2,1.8-0.3,2.7c-0.1,0.9-0.3,1.9-0.4,2.7c-0.1,0.9-0.3,1.7-0.4,2.4
		c-0.1,0.7-0.2,1.3-0.3,1.7c-0.1,0.4-0.1,0.6-0.1,0.6L342.3,246.1z"/>
</g>
<g id="XMLID_69_">
	<line id="XMLID_583_" class="st1" x1="344.4" y1="231.3" x2="349.5" y2="242.5"/>
	<path id="XMLID_582_" class="st1" d="M344.6,231.2c0,0,0.1,0,0.3,0c0.2,0,0.5,0,0.8,0c0.3,0,0.7,0.1,1.1,0.2
		c0.4,0.1,0.8,0.2,1.2,0.3c0.8,0.3,1.6,0.6,2.3,1.1c0.7,0.5,1.1,1.1,1.5,1.8c0.3,0.7,0.5,1.5,0.4,2.3c0,0.8-0.3,1.7-0.6,2.5
		c-0.2,0.4-0.4,0.8-0.6,1.1c-0.2,0.3-0.4,0.7-0.6,0.9c-0.2,0.3-0.4,0.5-0.5,0.7c-0.1,0.2-0.2,0.2-0.2,0.2l-0.5,0.3
		c0,0-0.1-0.2-0.3-0.5c-0.2-0.3-0.4-0.7-0.7-1.2c-0.3-0.5-0.6-1.1-0.9-1.8c-0.3-0.7-0.6-1.4-1-2c-0.3-0.7-0.6-1.4-0.9-2.1
		c-0.3-0.7-0.5-1.3-0.7-1.8c-0.2-0.5-0.4-1-0.5-1.3c-0.1-0.3-0.2-0.5-0.2-0.5L344.6,231.2z"/>
</g>
<g id="XMLID_70_">
	<line id="XMLID_580_" class="st1" x1="349.5" y1="242.5" x2="389.2" y2="274.9"/>
	<path id="XMLID_579_" class="st1" d="M349.7,242.3c0,0,0.2,0,0.6,0.1c0.4,0.1,1,0.2,1.7,0.5c0.7,0.2,1.6,0.5,2.6,0.9
		c1,0.4,2,0.8,3.2,1.3c2.3,1,4.8,2.4,7.3,4c0.7,0.4,1.3,0.8,1.9,1.3c0.7,0.4,1.3,0.9,1.9,1.3c1.3,0.9,2.5,1.9,3.8,2.9
		c1.2,1,2.5,2.1,3.6,3.1c0.6,0.5,1.2,1.1,1.7,1.6c0.6,0.5,1.1,1.1,1.6,1.6c2.1,2.2,3.9,4.4,5.4,6.4c0.7,1,1.4,2,1.9,2.8
		c0.6,0.9,1,1.7,1.4,2.3c0.4,0.6,0.6,1.2,0.8,1.6c0.2,0.4,0.3,0.6,0.3,0.6l-0.4,0.5c0,0-0.6-0.5-1.7-1.4c-1.1-0.9-2.7-2.1-4.6-3.6
		c-3.7-3-8.7-7-13.7-11c-4.9-4.1-9.9-8.2-13.6-11.2c-1.9-1.5-3.4-2.9-4.4-3.8c-1.1-0.9-1.7-1.4-1.7-1.4L349.7,242.3z"/>
</g>
<g id="XMLID_72_">
	<line id="XMLID_577_" class="st1" x1="389.2" y1="274.9" x2="353.3" y2="222.3"/>
	<path id="XMLID_576_" class="st1" d="M388.9,275.1c0,0-0.2-0.1-0.6-0.4c-0.4-0.3-1-0.7-1.7-1.3c-0.7-0.6-1.6-1.2-2.5-2.1
		c-1-0.8-2-1.7-3.1-2.8c-2.2-2.1-4.6-4.7-7-7.5c-0.6-0.7-1.2-1.5-1.8-2.2c-0.6-0.7-1.2-1.5-1.8-2.3c-1.2-1.6-2.3-3.2-3.5-4.8
		c-1.1-1.7-2.2-3.3-3.2-5c-0.5-0.8-1-1.7-1.5-2.5c-0.5-0.8-1-1.7-1.4-2.5c-1.8-3.3-3.3-6.5-4.4-9.3c-0.6-1.4-1.1-2.7-1.5-3.9
		c-0.4-1.2-0.7-2.2-1-3.1c-0.3-0.9-0.4-1.6-0.5-2.1c-0.1-0.5-0.2-0.8-0.2-0.8l0.5-0.3c0,0,0.6,0.8,1.6,2.2c1,1.4,2.5,3.4,4.2,5.9
		c3.4,4.9,7.9,11.5,12.4,18c4.4,6.6,8.9,13.2,12.2,18.2c1.7,2.5,3,4.6,4,6c1,1.5,1.5,2.3,1.5,2.3L388.9,275.1z"/>
</g>
<g id="XMLID_73_">
	<line id="XMLID_574_" class="st1" x1="352" y1="224" x2="352" y2="167"/>
	<path id="XMLID_573_" class="st1" d="M351.7,224c0,0-0.1-0.4-0.3-0.8c-0.2-0.4-0.5-1.1-0.7-1.9c-0.3-0.8-0.6-1.8-0.9-2.8
		c-0.3-1.1-0.7-2.3-1-3.6c-0.6-2.7-1.2-5.8-1.6-9.1c-0.1-0.8-0.2-1.7-0.2-2.5c-0.1-0.9-0.1-1.7-0.2-2.6c-0.1-1.7-0.1-3.5-0.2-5.3
		c0-1.8,0-3.5,0.2-5.3c0-0.9,0.1-1.7,0.2-2.6c0.1-0.9,0.1-1.7,0.2-2.5c0.4-3.3,0.9-6.4,1.6-9.1c0.3-1.3,0.7-2.5,1-3.6
		c0.3-1.1,0.7-2,0.9-2.8c0.3-0.8,0.6-1.4,0.7-1.8c0.2-0.4,0.3-0.6,0.3-0.6h0.6c0,0,0,0.9,0.1,2.4c0,1.6,0.1,3.8,0.1,6.4
		c0,5.3,0.1,12.4,0.1,19.5c-0.1,7.1-0.1,14.2-0.1,19.5c0,2.7-0.1,5.1-0.1,6.6c0,1.6-0.1,2.6-0.1,2.6H351.7z"/>
</g>
<g id="XMLID_74_">
	<line id="XMLID_571_" class="st1" x1="353.3" y1="166.9" x2="359.1" y2="189.4"/>
	<path id="XMLID_570_" class="st1" d="M353.6,166.9c0,0,0.1,0.1,0.3,0.2c0.2,0.1,0.6,0.3,0.9,0.5c0.3,0.2,0.8,0.5,1.2,0.9
		c0.4,0.3,0.9,0.7,1.3,1.2c0.9,0.9,1.7,2,2.5,3.2c0.2,0.3,0.3,0.6,0.5,0.9c0.2,0.3,0.3,0.6,0.4,1c0.3,0.7,0.5,1.4,0.7,2.1
		c0.2,0.7,0.3,1.4,0.4,2.1c0.1,0.4,0.1,0.7,0.1,1.1c0,0.4,0,0.7,0,1.1c0,1.4-0.2,2.8-0.6,4c-0.2,0.6-0.4,1.2-0.6,1.7
		c-0.2,0.5-0.4,1-0.6,1.3c-0.2,0.4-0.4,0.7-0.5,0.9c-0.1,0.2-0.2,0.3-0.2,0.3l-0.6,0.2c0,0-0.1-0.3-0.3-1c-0.2-0.6-0.5-1.5-0.8-2.5
		c-0.3-1-0.7-2.3-1-3.6c-0.4-1.3-0.7-2.7-1.1-4.1c-0.4-1.4-0.7-2.8-1-4.1c-0.3-1.3-0.6-2.6-0.8-3.6c-0.2-1.1-0.4-2-0.5-2.6
		c-0.1-0.6-0.2-1-0.2-1L353.6,166.9z"/>
</g>
<g id="XMLID_75_">
	<line id="XMLID_568_" class="st1" x1="359.1" y1="189.4" x2="362.2" y2="218.9"/>
	<path id="XMLID_567_" class="st1" d="M359.4,189.4c0,0,0.1,0.1,0.3,0.3c0.2,0.2,0.5,0.5,0.8,0.9c0.3,0.4,0.7,0.8,1.1,1.4
		c0.4,0.5,0.8,1.1,1.2,1.8c0.8,1.3,1.5,2.9,2,4.6c0.2,0.4,0.3,0.9,0.4,1.3c0.1,0.4,0.2,0.9,0.3,1.3c0.2,0.9,0.3,1.8,0.4,2.7
		c0.1,0.9,0.1,1.8,0.1,2.8c0,0.5,0,0.9,0,1.4c0,0.5,0,0.9-0.1,1.3c-0.2,1.8-0.6,3.4-1.1,4.9c-0.2,0.7-0.5,1.4-0.8,2
		c-0.3,0.6-0.6,1.1-0.8,1.6c-0.2,0.4-0.5,0.8-0.6,1c-0.2,0.2-0.3,0.4-0.3,0.4l-0.6,0.1c0,0-0.1-0.5-0.2-1.3
		c-0.1-0.8-0.3-1.9-0.5-3.3c-0.3-2.8-0.7-6.4-1.2-10.1c-0.3-3.7-0.7-7.4-0.9-10.1c-0.1-1.4-0.2-2.5-0.2-3.4
		c-0.1-0.8-0.1-1.3-0.1-1.3L359.4,189.4z"/>
</g>
<g id="XMLID_118_">
	<path id="XMLID_564_" class="st3" d="M635.9,274.9"/>
</g>
<g id="XMLID_117_">
	<path id="XMLID_560_" class="st3" d="M635.9,274.9"/>
</g>
<g id="XMLID_113_">
	<path id="XMLID_554_" d="M635.8,318.1c0,0,0.1-0.2,0.4-0.6c0.3-0.4,0.6-1,1.1-1.7c0.5-0.7,1.1-1.5,1.8-2.4c0.7-0.9,1.5-1.9,2.5-3
		c1.9-2.1,4.2-4.4,6.8-6.7c0.6-0.6,1.3-1.1,2-1.7c0.7-0.6,1.4-1.1,2.1-1.7c1.4-1.1,2.9-2.2,4.4-3.3c1.5-1,3-2.1,4.6-3
		c0.8-0.5,1.5-0.9,2.3-1.4c0.8-0.4,1.5-0.9,2.3-1.3c3-1.7,6-3,8.6-4.1c1.3-0.5,2.5-1,3.6-1.3c1.1-0.4,2.1-0.7,2.9-0.9
		c0.8-0.2,1.5-0.4,1.9-0.5c0.5-0.1,0.7-0.1,0.7-0.1l0.3,0.5c0,0-0.7,0.5-2,1.5c-1.3,0.9-3.1,2.3-5.4,3.9
		c-4.5,3.2-10.4,7.4-16.4,11.6c-6,4.1-12,8.3-16.6,11.4c-2.3,1.6-4.2,2.8-5.5,3.7c-1.3,0.9-2.1,1.4-2.1,1.4L635.8,318.1z"/>
</g>
<g id="XMLID_109_">
	<path id="XMLID_532_" d="M683.8,284.5c0,0,0.2-0.1,0.6-0.3c0.4-0.2,0.9-0.5,1.6-0.9c0.7-0.3,1.5-0.8,2.5-1.2c1-0.4,2.1-0.9,3.3-1.3
		c2.4-0.9,5.2-1.7,8.3-2.4c0.8-0.2,1.5-0.3,2.3-0.5c0.8-0.2,1.6-0.3,2.4-0.4c1.6-0.3,3.3-0.4,4.9-0.6c1.6-0.1,3.3-0.3,4.9-0.3
		c0.8,0,1.6,0,2.4,0c0.8,0,1.6,0,2.4,0c3.1,0.1,6.1,0.4,8.6,0.8c1.3,0.2,2.4,0.4,3.5,0.7c1,0.2,1.9,0.5,2.7,0.7
		c0.7,0.2,1.3,0.4,1.7,0.6c0.4,0.1,0.6,0.2,0.6,0.2l0.1,0.6c0,0-0.8,0.1-2.3,0.3c-1.4,0.2-3.5,0.4-6,0.7c-4.9,0.5-11.5,1.2-18.1,1.8
		c-6.6,0.6-13.2,1.1-18.1,1.6c-2.5,0.2-4.5,0.3-6,0.5c-1.4,0.1-2.3,0.2-2.3,0.2L683.8,284.5z"/>
</g>
<g id="XMLID_108_">
	<path id="XMLID_518_" d="M736.3,279.6c0,0,0-0.2,0.1-0.4c0.1-0.3,0.2-0.7,0.4-1.2c0.2-0.5,0.4-1.1,0.7-1.7c0.3-0.6,0.7-1.3,1.1-2
		c0.8-1.4,1.9-2.8,3.2-4.2c0.3-0.4,0.7-0.7,1-1c0.3-0.3,0.7-0.7,1.1-1c0.7-0.7,1.5-1.2,2.3-1.8c0.8-0.6,1.6-1.1,2.5-1.6
		c0.4-0.3,0.8-0.5,1.3-0.7c0.4-0.2,0.8-0.4,1.3-0.6c1.7-0.8,3.4-1.3,5-1.7c0.8-0.2,1.5-0.3,2.2-0.4c0.7-0.1,1.3-0.1,1.8-0.1
		c0.5,0,1,0,1.2,0c0.3,0,0.5,0,0.5,0l0.4,0.5c0,0-0.4,0.3-1.1,0.8c-0.7,0.5-1.6,1.3-2.8,2.2c-2.4,1.8-5.6,4.1-8.7,6.5
		c-3.2,2.3-6.5,4.5-8.9,6.2c-1.2,0.9-2.3,1.5-3,2c-0.7,0.5-1.1,0.8-1.1,0.8L736.3,279.6z"/>
</g>
<g id="XMLID_107_">
	<path id="XMLID_487_" d="M761.9,261.4c0,0-0.1-0.1-0.2-0.3c-0.1-0.2-0.4-0.5-0.5-0.9c-0.2-0.4-0.5-0.8-0.7-1.3
		c-0.2-0.5-0.4-1.1-0.6-1.7c-0.4-1.2-0.6-2.6-0.7-4c0-0.4,0-0.7,0-1.1c0-0.4,0-0.7,0.1-1.1c0.1-0.7,0.2-1.4,0.4-2.1
		c0.2-0.7,0.4-1.4,0.7-2.1c0.1-0.3,0.3-0.7,0.4-1c0.1-0.3,0.3-0.6,0.5-0.9c0.7-1.2,1.5-2.3,2.4-3.2c0.4-0.5,0.9-0.9,1.3-1.2
		c0.4-0.4,0.9-0.6,1.2-0.9c0.3-0.2,0.7-0.4,0.9-0.5c0.2-0.1,0.3-0.2,0.3-0.2l0.6,0.1c0,0-0.1,0.4-0.2,1c-0.1,0.6-0.3,1.5-0.5,2.6
		c-0.2,1.1-0.5,2.3-0.8,3.6c-0.3,1.3-0.6,2.7-1,4.1c-0.4,1.4-0.7,2.8-1,4.1c-0.3,1.3-0.7,2.5-1,3.6c-0.3,1-0.6,1.9-0.7,2.5
		c-0.2,0.6-0.3,1-0.3,1L761.9,261.4z"/>
</g>
<g id="XMLID_106_">
	<path id="XMLID_467_" d="M767.8,239.1c0,0,0,0.1,0.1,0.4c0,0.2,0.1,0.6,0.1,0.9c0,0.4,0.1,0.9,0.1,1.4c0,0.5,0,1-0.1,1.6
		c-0.1,1.1-0.4,2.3-0.9,3.4c-0.1,0.3-0.3,0.5-0.4,0.8c-0.1,0.3-0.3,0.5-0.5,0.8c-0.3,0.5-0.7,1-1.1,1.4c-0.4,0.4-0.8,0.9-1.3,1.2
		c-0.2,0.2-0.5,0.4-0.7,0.5c-0.2,0.2-0.5,0.3-0.8,0.5c-1,0.6-2.2,1-3.3,1.3c-0.5,0.1-1.1,0.2-1.6,0.3c-0.5,0.1-1,0.1-1.3,0.1
		c-0.4,0-0.7,0-0.9,0c-0.2,0-0.4,0-0.4,0l-0.4-0.4c0,0,0.2-0.2,0.5-0.7c0.3-0.4,0.8-1,1.4-1.7c0.6-0.7,1.3-1.5,2-2.4
		c0.8-0.9,1.6-1.8,2.4-2.7c0.8-0.9,1.7-1.8,2.4-2.6c0.8-0.8,1.5-1.6,2.2-2.2c0.6-0.7,1.2-1.2,1.6-1.6c0.4-0.4,0.6-0.6,0.6-0.6
		L767.8,239.1z"/>
</g>
<g id="XMLID_105_">
	<path id="XMLID_459_" d="M754.7,253.6c0,0,0,0.1,0,0.3c0,0.2,0.1,0.5,0,0.9c0,0.3,0,0.8,0,1.2c0,0.4-0.1,0.9-0.2,1.3
		c-0.2,0.9-0.5,1.8-1,2.6c-0.5,0.8-1.1,1.5-1.8,2c-0.7,0.5-1.6,0.9-2.5,1c-0.9,0.2-1.9,0.2-2.8,0c-0.4-0.1-0.9-0.2-1.3-0.3
		c-0.4-0.1-0.8-0.3-1.1-0.4c-0.3-0.1-0.6-0.3-0.8-0.3c-0.2-0.1-0.3-0.1-0.3-0.1l-0.3-0.5c0,0,0.2-0.1,0.5-0.4c0.3-0.2,0.7-0.6,1.3-1
		c0.5-0.4,1.1-0.9,1.8-1.4c0.7-0.5,1.4-1,2.1-1.5c0.7-0.5,1.5-1,2.2-1.5c0.7-0.5,1.4-0.9,1.9-1.2c0.6-0.4,1.1-0.6,1.4-0.8
		c0.3-0.2,0.5-0.3,0.5-0.3L754.7,253.6z"/>
</g>
<g id="XMLID_104_">
	<path id="XMLID_452_" d="M744,264.4c0,0,0,0.1-0.2,0.3c-0.2,0.2-0.4,0.5-0.7,0.7c-0.3,0.3-0.6,0.6-1.1,1c-0.4,0.3-0.9,0.7-1.4,1
		c-1,0.6-2.2,1.2-3.5,1.6c-0.3,0.1-0.6,0.2-1,0.2c-0.3,0.1-0.7,0.1-1,0.2c-0.7,0.1-1.3,0.1-2,0.2c-0.7,0-1.3,0-2-0.2
		c-0.3,0-0.7-0.1-1-0.2c-0.3-0.1-0.6-0.1-1-0.2c-1.3-0.4-2.4-0.9-3.5-1.6c-0.5-0.3-1-0.7-1.4-1c-0.4-0.3-0.8-0.7-1.1-1
		c-0.3-0.3-0.8-0.6-0.9-0.7c-0.2-0.2-0.5-0.3-0.5-0.3v-0.6c0,0,0.6,0,1.2-0.1c0.6,0,1.6-0.1,2.6-0.1c1,0,2.3-0.1,3.5-0.1
		c1.3,0,2.6,0,4,0c1.4,0,2.7,0,4,0c1.3,0,2.5,0.1,3.5,0.1c1,0,1.8,0.1,2.4,0.1c0.6,0,0.9,0.1,0.9,0.1V264.4z"/>
</g>
<g id="XMLID_103_">
	<path id="XMLID_428_" d="M722.3,262.6c0,0,0.2-0.4,0.6-1.2c0.4-0.7,0.9-1.9,1.7-3.2c0.8-1.4,1.7-3.1,2.8-4.9c0.6-0.9,1.1-1.9,1.8-3
		c0.6-1.1,1.3-2.1,2-3.2c0.7-1.1,1.5-2.3,2.2-3.5c0.8-1.2,1.6-2.4,2.5-3.7c1.7-2.5,3.5-5.2,5.5-7.9c1-1.4,2-2.7,3-4.1
		c1-1.4,2.1-2.8,3.1-4.1c2.1-2.8,4.3-5.5,6.6-8.3c2.3-2.7,4.5-5.5,6.8-8.1c1.1-1.3,2.3-2.6,3.4-3.9c1.1-1.3,2.3-2.5,3.4-3.8
		c2.2-2.5,4.5-4.8,6.6-7c1.1-1.1,2.1-2.2,3.1-3.2c1-1,2-2,3-2.9c1.9-1.9,3.7-3.5,5.3-5c1.6-1.5,3.1-2.7,4.3-3.7
		c1.2-1,2.2-1.8,2.8-2.3c0.7-0.5,1-0.8,1-0.8l0.5,0.4c0,0-4.4,5.5-11.1,13.8c-6.7,8.3-15.6,19.3-24.5,30.3
		c-9,10.9-18,21.9-24.7,30.1c-6.8,8.2-11.3,13.6-11.3,13.6L722.3,262.6z"/>
</g>
<g id="XMLID_102_">
	<path id="XMLID_423_" d="M793.8,175c0,0-0.1-0.1-0.2-0.3c-0.1-0.2-0.4-0.5-0.6-0.9c-0.2-0.4-0.5-0.9-0.7-1.4
		c-0.2-0.5-0.4-1.1-0.6-1.8c-0.4-1.3-0.7-2.7-0.7-4.3c0-0.4,0-0.8,0-1.2c0-0.4,0-0.8,0.1-1.2c0-0.8,0.2-1.6,0.3-2.3
		c0.2-0.8,0.4-1.5,0.6-2.3c0.1-0.4,0.3-0.7,0.4-1.1c0.1-0.4,0.3-0.7,0.5-1.1c0.7-1.4,1.5-2.6,2.3-3.7c0.4-0.5,0.9-1,1.3-1.4
		c0.4-0.4,0.8-0.7,1.2-1c0.3-0.3,0.7-0.5,0.9-0.6c0.2-0.1,0.3-0.2,0.3-0.2l0.6,0.1c0,0-0.1,0.4-0.2,1.1c-0.1,0.7-0.2,1.7-0.5,2.8
		c-0.4,2.3-1,5.4-1.6,8.5c-0.7,3.1-1.3,6.2-1.8,8.5c-0.2,1.2-0.5,2.1-0.7,2.8c-0.2,0.7-0.3,1.1-0.3,1.1L793.8,175z"/>
</g>
<g id="XMLID_101_">
	<path id="XMLID_419_" d="M798.8,150.3c0,0-0.1-0.1-0.3-0.2c-0.2-0.1-0.5-0.3-0.8-0.6c-0.3-0.3-0.7-0.6-1.1-0.9
		c-0.4-0.4-0.8-0.8-1.1-1.2c-0.8-0.9-1.4-2-2-3.2c-0.1-0.3-0.2-0.6-0.4-0.9c-0.1-0.3-0.2-0.6-0.3-0.9c-0.2-0.6-0.3-1.3-0.4-2
		c0-0.7-0.1-1.3-0.1-2c0-0.3,0-0.7,0.1-1c0-0.3,0.1-0.7,0.1-1c0.2-1.3,0.6-2.5,1.2-3.6c0.3-0.5,0.5-1,0.8-1.5
		c0.3-0.4,0.6-0.8,0.8-1.2c0.2-0.3,0.5-0.6,0.6-0.8c0.2-0.2,0.3-0.3,0.3-0.3l0.6-0.1c0,0,0.1,0.3,0.2,0.9c0.1,0.6,0.3,1.4,0.4,2.4
		c0.1,1,0.3,2.1,0.5,3.4c0.2,1.2,0.3,2.6,0.5,3.9c0.1,1.3,0.3,2.6,0.4,3.9c0.1,1.2,0.2,2.4,0.3,3.4c0.1,1,0.1,1.8,0.2,2.4
		c0,0.6,0.1,0.9,0.1,0.9L798.8,150.3z"/>
</g>
<g id="XMLID_100_">
	<path id="XMLID_397_" d="M796.9,129.2c0,0,0.1,0.1,0.3,0.3c0.1,0.2,0.4,0.4,0.6,0.8c0.2,0.3,0.6,0.7,0.8,1.2
		c0.3,0.4,0.6,0.9,0.8,1.5c0.5,1.1,0.9,2.3,1.2,3.6c0.1,0.3,0.1,0.6,0.1,1c0,0.3,0.1,0.7,0.1,1c0,0.7,0,1.3-0.1,2
		c-0.1,0.7-0.2,1.3-0.4,2c-0.1,0.3-0.2,0.6-0.3,0.9c-0.1,0.3-0.2,0.6-0.4,0.9c-0.5,1.2-1.2,2.3-2,3.2c-0.4,0.5-0.8,0.9-1.1,1.2
		c-0.4,0.4-0.8,0.7-1.1,0.9c-0.3,0.3-0.6,0.5-0.8,0.6c-0.2,0.1-0.3,0.2-0.3,0.2l-0.6-0.1c0,0,0-0.3,0.1-0.9c0-0.6,0.1-1.4,0.2-2.4
		c0.1-1,0.2-2.2,0.3-3.4c0.1-1.2,0.3-2.6,0.4-3.9c0.2-1.3,0.3-2.6,0.5-3.9c0.2-1.2,0.3-2.4,0.5-3.4c0.1-1,0.3-1.8,0.4-2.4
		c0.1-0.6,0.2-0.9,0.2-0.9L796.9,129.2z"/>
</g>
<g id="XMLID_99_">
	<path id="XMLID_388_" d="M794.3,150.5c0,0,0,0.2,0,0.5c0,0.3,0,0.8-0.2,1.3c-0.1,0.6-0.2,1.2-0.4,2c-0.2,0.7-0.4,1.5-0.7,2.4
		c-0.6,1.7-1.4,3.6-2.4,5.5c-0.2,0.5-0.5,0.9-0.8,1.4c-0.3,0.5-0.6,0.9-0.9,1.4c-0.6,0.9-1.3,1.8-2,2.7c-0.7,0.9-1.4,1.7-2.2,2.5
		c-0.4,0.4-0.8,0.8-1.2,1.2c-0.4,0.4-0.8,0.7-1.2,1.1c-1.6,1.4-3.3,2.6-4.8,3.5c-0.8,0.5-1.5,0.8-2.2,1.2c-0.7,0.3-1.3,0.6-1.9,0.8
		c-0.5,0.2-1,0.3-1.3,0.4c-0.3,0.1-0.5,0.1-0.5,0.1l-0.5-0.4c0,0,0.3-0.4,0.9-1.2c0.6-0.8,1.4-1.9,2.5-3.2c2.1-2.6,4.9-6.2,7.6-9.7
		c2.9-3.5,5.7-6.9,7.8-9.5c1.1-1.3,2-2.3,2.6-3.1c0.6-0.7,1-1.2,1-1.2L794.3,150.5z"/>
</g>
<g id="XMLID_98_">
	<path id="XMLID_385_" d="M771.3,178.2c0,0-0.1-0.3-0.3-1c-0.1-0.7-0.4-1.6-0.6-2.8c-0.2-1.2-0.6-2.7-0.8-4.4
		c-0.1-0.8-0.3-1.8-0.4-2.7c-0.1-1-0.2-2-0.4-3c-0.3-2.1-0.5-4.3-0.7-6.7c-0.2-2.4-0.4-4.9-0.5-7.5c-0.1-1.3-0.1-2.6-0.1-4
		c0-1.3-0.1-2.7-0.1-4.1c0-2.7,0-5.5,0.1-8.3c0.1-2.8,0.2-5.5,0.4-8.3c0.1-1.4,0.2-2.7,0.3-4c0.1-1.3,0.2-2.7,0.4-3.9
		c0.3-2.6,0.6-5.1,0.9-7.5c0.3-2.4,0.7-4.6,1.1-6.7c0.3-2.1,0.8-4,1.1-5.6c0.3-1.7,0.8-3.1,1.1-4.3c0.3-1.2,0.6-2.1,0.8-2.8
		c0.2-0.6,0.3-1,0.3-1l0.6,0c0,0,0,1.4-0.1,3.8c-0.1,2.4-0.1,5.9-0.2,10c-0.2,8.3-0.5,19.4-0.8,30.5c-0.4,11.1-0.8,22.2-1.1,30.5
		c-0.1,4.2-0.3,7.6-0.4,10c-0.1,2.4-0.2,3.8-0.2,3.8L771.3,178.2z"/>
</g>
<g id="XMLID_97_">
	<path id="XMLID_382_" d="M774.1,89.7c0,0-0.2-0.2-0.6-0.5c-0.4-0.4-1-0.9-1.7-1.5c-0.7-0.7-1.6-1.5-2.5-2.5c-0.9-1-2-2.1-3-3.3
		c-2.1-2.5-4.4-5.5-6.7-8.8c-0.6-0.8-1.1-1.7-1.7-2.6c-0.6-0.9-1.1-1.7-1.7-2.6c-1.1-1.8-2.2-3.7-3.2-5.5c-1-1.9-2-3.8-3-5.7
		c-0.5-0.9-0.9-1.9-1.4-2.8c-0.4-0.9-0.9-1.9-1.3-2.8c-1.6-3.7-3-7.2-4-10.3c-0.5-1.6-0.9-3-1.3-4.3c-0.4-1.3-0.6-2.5-0.8-3.4
		c-0.2-0.9-0.3-1.7-0.4-2.2c-0.1-0.5-0.1-0.8-0.1-0.8l0.5-0.3c0,0,0.5,0.9,1.5,2.5c0.9,1.6,2.3,3.9,3.9,6.7
		c3.2,5.6,7.4,13,11.6,20.5c4.1,7.5,8.2,15,11.3,20.6c1.6,2.8,2.8,5.2,3.7,6.8c0.9,1.7,1.4,2.6,1.4,2.6L774.1,89.7z"/>
</g>
<g id="XMLID_96_">
	<path id="XMLID_380_" d="M741,30c0,0-0.1,0.1-0.2,0.3c-0.1,0.2-0.3,0.4-0.5,0.7c-0.2,0.2-0.4,0.6-0.7,0.8c-0.3,0.3-0.6,0.6-0.9,0.9
		c-0.6,0.5-1.3,1-2,1.3c-0.7,0.3-1.5,0.3-2.2,0.2c-0.7-0.1-1.4-0.4-2-0.9c-0.6-0.5-1.1-1.1-1.6-1.8c-0.2-0.3-0.4-0.7-0.6-1.1
		c-0.2-0.3-0.3-0.7-0.4-1c-0.1-0.3-0.2-0.6-0.2-0.8c-0.1-0.2-0.1-0.3-0.1-0.3l0.1-0.6c0,0,0.2,0,0.5,0c0.3,0,0.8,0,1.3,0.1
		c0.5,0.1,1.2,0.1,1.8,0.2c0.7,0.1,1.4,0.2,2.1,0.3c0.7,0.1,1.4,0.3,2.1,0.4c0.7,0.1,1.3,0.3,1.8,0.4c0.5,0.1,1,0.2,1.3,0.3
		c0.3,0.1,0.5,0.1,0.5,0.1L741,30z"/>
</g>
<g id="XMLID_95_">
	<path id="XMLID_378_" d="M730,27.8c0,0,0.2,0.1,0.5,0.4c0.3,0.3,0.9,0.6,1.4,1.2c0.6,0.5,1.3,1.2,2.1,1.9c0.8,0.8,1.6,1.6,2.5,2.6
		c1.7,1.9,3.6,4.3,5.4,6.9c0.5,0.6,0.9,1.3,1.3,2c0.4,0.7,0.9,1.4,1.3,2.1c0.9,1.4,1.6,2.9,2.4,4.4c0.7,1.5,1.5,3,2.2,4.5
		c0.4,0.7,0.7,1.5,1,2.3c0.3,0.8,0.6,1.5,0.9,2.2c1.1,3,2,5.8,2.6,8.4c0.3,1.3,0.5,2.4,0.7,3.5c0.2,1.1,0.3,2,0.4,2.8
		c0.1,0.8,0.1,1.4,0.1,1.8c0,0.4,0,0.7,0,0.7l-0.5,0.3c0,0-0.4-0.7-1.1-2c-0.7-1.3-1.7-3.1-2.9-5.4c-2.4-4.5-5.5-10.4-8.6-16.3
		c-3-6-6.1-12-8.4-16.5c-1.2-2.2-2-4.1-2.7-5.5c-0.6-1.3-1-2.1-1-2.1L730,27.8z"/>
</g>
<g id="XMLID_94_">
	<path id="XMLID_376_" d="M754.8,75.6c0,0,0.1,0.2,0.2,0.7c0.1,0.5,0.3,1.1,0.4,2c0.2,0.8,0.4,1.9,0.5,3c0.2,1.2,0.3,2.5,0.4,3.9
		c0.2,2.8,0.3,6.1,0.2,9.6c0,0.9-0.1,1.7-0.1,2.6c0,0.9-0.1,1.8-0.2,2.7c-0.1,1.8-0.4,3.6-0.6,5.5c-0.3,1.8-0.6,3.6-1,5.4
		c-0.2,0.9-0.4,1.8-0.6,2.6c-0.2,0.9-0.4,1.7-0.6,2.6c-0.9,3.4-1.9,6.5-2.9,9.1c-0.5,1.3-1.1,2.5-1.5,3.6c-0.5,1.1-1,2-1.3,2.7
		c-0.4,0.8-0.8,1.3-1,1.7c-0.2,0.4-0.4,0.6-0.4,0.6l-0.6-0.1c0,0,0.1-0.9,0.3-2.5c0.2-1.6,0.5-3.9,0.9-6.6
		c0.8-5.5,1.8-12.8,2.8-20.1c1.1-7.3,2.2-14.6,3.1-20c0.4-2.7,0.8-5,1.1-6.6c0.3-1.6,0.4-2.5,0.4-2.5L754.8,75.6z"/>
</g>
<g id="XMLID_93_">
	<path id="XMLID_374_" d="M745.7,134.1c0,0-0.2-0.1-0.6-0.3c-0.4-0.2-1-0.5-1.7-1c-0.7-0.4-1.6-0.9-2.5-1.6c-0.9-0.6-2-1.4-3.1-2.2
		c-2.2-1.7-4.6-3.8-6.9-6.1c-0.6-0.6-1.2-1.2-1.8-1.8c-0.6-0.6-1.2-1.3-1.8-1.9c-1.2-1.3-2.3-2.7-3.5-4c-1.1-1.4-2.2-2.8-3.2-4.2
		c-0.5-0.7-1-1.4-1.5-2.1c-0.5-0.7-1-1.4-1.4-2.1c-1.8-2.8-3.3-5.6-4.5-8.1c-0.6-1.2-1.1-2.4-1.5-3.5c-0.5-1-0.8-2-1-2.8
		c-0.3-0.8-0.4-1.4-0.6-1.9c-0.1-0.4-0.2-0.7-0.2-0.7l0.5-0.4c0,0,0.6,0.7,1.6,1.9c1,1.2,2.5,2.9,4.1,5c3.4,4.1,7.9,9.6,12.4,15.1
		c4.4,5.6,8.9,11.1,12.2,15.3c1.7,2.1,3,3.9,4,5.1c1,1.2,1.5,1.9,1.5,1.9L745.7,134.1z"/>
</g>
<g id="XMLID_92_">
	<path id="XMLID_372_" d="M709.9,89.7c0,0-0.2-0.1-0.5-0.4c-0.3-0.3-0.8-0.7-1.3-1.3c-0.5-0.6-1.2-1.2-1.8-2
		c-0.7-0.8-1.4-1.7-2.1-2.7c-1.5-2-3-4.4-4.5-7.1c-0.4-0.7-0.7-1.3-1.1-2c-0.4-0.7-0.7-1.4-1-2.1c-0.7-1.4-1.3-2.9-1.9-4.4
		c-0.6-1.5-1.1-3-1.6-4.5c-0.3-0.7-0.5-1.5-0.7-2.2c-0.2-0.7-0.4-1.5-0.6-2.2c-0.7-2.9-1.2-5.7-1.5-8.2c-0.1-1.2-0.2-2.4-0.3-3.4
		c-0.1-1,0-1.9,0-2.7c0-0.7,0.1-1.4,0.1-1.8c0-0.4,0.1-0.6,0.1-0.6l0.6-0.2c0,0,0.3,0.7,0.8,2c0.5,1.3,1.3,3.1,2.2,5.4
		c1.8,4.5,4.2,10.4,6.5,16.3c2.3,6,4.6,12,6.3,16.4c0.9,2.2,1.5,4.1,2,5.4c0.5,1.3,0.8,2.1,0.8,2.1L709.9,89.7z"/>
</g>
<g id="XMLID_91_">
	<path id="XMLID_370_" d="M691.8,41.8c0,0,0.1,0.2,0.4,0.6c0.2,0.4,0.6,1,1,1.8c0.4,0.8,0.9,1.7,1.4,2.8c0.5,1.1,1.1,2.3,1.6,3.7
		c1.1,2.7,2.1,5.9,3,9.4c0.2,0.9,0.4,1.8,0.7,2.7c0.2,0.9,0.4,1.8,0.6,2.7c0.4,1.8,0.7,3.7,1,5.6c0.3,1.9,0.5,3.8,0.7,5.6
		c0.1,0.9,0.2,1.9,0.2,2.8c0.1,0.9,0.1,1.8,0.2,2.7c0.2,3.6,0.1,7-0.1,9.9c-0.1,1.5-0.2,2.8-0.4,4c-0.1,1.2-0.3,2.3-0.5,3.1
		c-0.1,0.9-0.3,1.6-0.4,2c-0.1,0.5-0.2,0.7-0.2,0.7l-0.6,0.1c0,0-0.2-0.9-0.5-2.6c-0.3-1.6-0.7-4-1.2-6.8
		c-0.9-5.6-2.1-13.2-3.3-20.7c-1.1-7.5-2.2-15.1-3.1-20.7c-0.4-2.8-0.7-5.2-0.9-6.8c-0.2-1.7-0.4-2.6-0.4-2.6L691.8,41.8z"/>
</g>
<g id="XMLID_90_">
	<path id="XMLID_368_" d="M701.1,102c0,0,0.2,0.2,0.6,0.6c0.3,0.4,0.9,0.9,1.5,1.6c0.6,0.7,1.3,1.6,2.1,2.6c0.8,1,1.6,2.2,2.5,3.5
		c1.8,2.6,3.6,5.7,5.4,9.1c0.5,0.8,0.9,1.7,1.3,2.6c0.5,0.9,0.9,1.8,1.3,2.7c0.9,1.8,1.7,3.7,2.5,5.6c0.8,1.9,1.5,3.8,2.2,5.7
		c0.4,0.9,0.7,1.9,1,2.8c0.3,0.9,0.6,1.9,0.9,2.8c1.1,3.7,2,7.2,2.5,10.3c0.3,1.5,0.5,3,0.7,4.3c0.2,1.3,0.3,2.4,0.4,3.3
		c0.1,0.9,0.1,1.7,0.1,2.2c0,0.5,0,0.8,0,0.8l-0.6,0.2c0,0-0.4-0.9-1.1-2.6c-0.7-1.6-1.7-4-2.9-6.8c-2.4-5.7-5.5-13.2-8.7-20.8
		c-3.1-7.6-6.1-15.2-8.4-20.9c-1.2-2.8-2.1-5.2-2.7-6.9c-0.7-1.7-1-2.6-1-2.6L701.1,102z"/>
</g>
<g id="XMLID_89_">
	<path id="XMLID_366_" d="M725.5,162.9c0,0-0.1,0-0.3,0.1c-0.2,0-0.5,0.2-0.9,0.2c-0.4,0.1-0.8,0.2-1.2,0.2
		c-0.5,0.1-0.9,0.1-1.4,0.1c-1,0-2-0.2-3-0.5c-0.3-0.1-0.5-0.2-0.7-0.3c-0.2-0.1-0.5-0.2-0.7-0.3c-0.5-0.2-0.9-0.6-1.3-0.9
		c-0.4-0.4-0.7-0.7-1.1-1.1c-0.2-0.2-0.3-0.4-0.5-0.6c-0.1-0.2-0.3-0.4-0.4-0.7c-0.5-0.9-0.8-1.9-1-2.9c-0.1-0.5-0.1-1-0.2-1.4
		c0-0.4,0-0.9,0-1.2c0-0.3,0.1-0.7,0.1-0.9c0-0.2,0-0.3,0-0.3l0.4-0.5c0,0,0.2,0.2,0.6,0.4c0.4,0.3,0.9,0.6,1.5,1.1
		c0.6,0.5,1.3,1,2.1,1.6c0.7,0.6,1.5,1.3,2.3,1.9c0.8,0.7,1.5,1.3,2.3,2c0.7,0.6,1.4,1.2,1.9,1.8c0.6,0.5,1,1,1.3,1.3
		c0.3,0.3,0.5,0.5,0.5,0.5L725.5,162.9z"/>
</g>
<g id="XMLID_88_">
	<path id="XMLID_359_" d="M713.6,152c0,0,0.1,0,0.3,0.1c0.2,0.1,0.5,0.1,0.8,0.2c0.3,0.1,0.7,0.2,1,0.4c0.4,0.2,0.8,0.4,1.1,0.6
		c0.7,0.4,1.4,1,1.9,1.6c0.5,0.6,0.9,1.4,1,2.1c0.1,0.8,0.1,1.6-0.1,2.4c-0.2,0.8-0.6,1.6-1.1,2.3c-0.2,0.3-0.5,0.7-0.8,1
		c-0.2,0.3-0.6,0.6-0.8,0.8c-0.2,0.2-0.5,0.4-0.6,0.5c-0.2,0.1-0.2,0.2-0.2,0.2l-0.6,0.1c0,0-0.1-0.2-0.2-0.5
		c-0.1-0.3-0.3-0.8-0.4-1.4c-0.1-0.6-0.3-1.2-0.5-1.9c-0.2-0.7-0.3-1.5-0.5-2.2c-0.1-0.8-0.3-1.5-0.4-2.2c-0.1-0.7-0.2-1.4-0.3-2
		c-0.1-0.6-0.1-1.1-0.2-1.4c0-0.3-0.1-0.5-0.1-0.5L713.6,152z"/>
</g>
<g id="XMLID_87_">
	<path id="XMLID_353_" d="M716.1,164.3c0,0,0.1,0.3,0.2,0.9c0.1,0.6,0.3,1.4,0.5,2.4c0.2,1.1,0.4,2.3,0.5,3.8
		c0.1,0.7,0.2,1.5,0.3,2.3c0.1,0.8,0.1,1.7,0.2,2.6c0.1,1.8,0.3,3.7,0.3,5.8c0,2,0.1,4.2,0,6.4c0,1.1-0.1,2.2-0.1,3.4
		c0,1.1-0.1,2.3-0.2,3.4c-0.1,2.3-0.4,4.6-0.6,7c-0.3,2.3-0.6,4.7-0.9,6.9c-0.2,1.1-0.4,2.3-0.6,3.4c-0.2,1.1-0.4,2.2-0.6,3.3
		c-0.4,2.2-0.9,4.3-1.4,6.2c-0.5,2-1,3.8-1.5,5.6c-0.5,1.7-1,3.3-1.5,4.7c-0.4,1.4-0.9,2.6-1.3,3.6c-0.4,1-0.8,1.8-1,2.3
		c-0.2,0.5-0.4,0.8-0.4,0.8l-0.6-0.1c0,0,0.1-1.2,0.3-3.2c0.2-2,0.4-5,0.8-8.5c0.7-7,1.7-16.4,2.6-25.7c1.1-9.3,2.1-18.7,2.9-25.7
		c0.4-3.5,0.8-6.4,1-8.5c0.3-2,0.4-3.2,0.4-3.2L716.1,164.3z"/>
</g>
<g id="XMLID_86_">
	<path id="XMLID_347_" d="M707.9,239.1c0,0,0,0.1,0.1,0.3c0,0.2,0.2,0.5,0.2,0.9c0.1,0.4,0.1,0.8,0.2,1.3c0,0.5,0,1,0,1.5
		c0,1.1-0.2,2.2-0.6,3.3c-0.1,0.3-0.2,0.5-0.3,0.8c-0.1,0.3-0.2,0.5-0.4,0.8c-0.3,0.5-0.6,1-1,1.4c-0.4,0.4-0.8,0.9-1.2,1.2
		c-0.2,0.2-0.4,0.4-0.7,0.5c-0.2,0.2-0.5,0.3-0.7,0.5c-1,0.6-2,1-3.1,1.3c-0.5,0.1-1,0.2-1.5,0.3c-0.5,0.1-0.9,0.1-1.3,0.1
		c-0.4,0-0.7,0-0.9,0c-0.2,0-0.4,0-0.4,0l-0.5-0.4c0,0,0.2-0.2,0.5-0.7c0.3-0.4,0.7-1,1.2-1.7c0.5-0.7,1.1-1.5,1.8-2.4
		c0.7-0.9,1.4-1.8,2.1-2.7c0.7-0.9,1.5-1.8,2.1-2.6c0.7-0.8,1.4-1.6,1.9-2.2c0.6-0.7,1.1-1.2,1.4-1.6c0.3-0.4,0.5-0.6,0.5-0.6
		L707.9,239.1z"/>
</g>
<g id="XMLID_85_">
	<path id="XMLID_341_" d="M696.3,253.6c0,0-0.3,0.2-0.9,0.6c-0.6,0.4-1.5,1-2.7,1.7c-1.2,0.7-2.6,1.6-4.3,2.4
		c-0.8,0.5-1.7,0.9-2.6,1.4c-0.9,0.5-1.9,1-3,1.5c-1,0.5-2.1,1.1-3.2,1.6c-1.1,0.6-2.3,1.1-3.5,1.6c-2.4,1.1-4.9,2.3-7.6,3.3
		c-1.3,0.6-2.7,1.1-4.1,1.6c-1.4,0.6-2.8,1.1-4.2,1.6c-2.8,1.1-5.7,2.1-8.6,3.1c-2.9,1-5.8,1.9-8.7,2.8c-1.4,0.5-2.9,0.9-4.3,1.3
		c-1.4,0.4-2.8,0.8-4.2,1.2c-2.8,0.8-5.5,1.4-8.1,2c-1.3,0.3-2.5,0.6-3.8,0.9c-1.2,0.2-2.4,0.5-3.5,0.7c-2.3,0.5-4.4,0.8-6.2,1.1
		c-1.9,0.3-3.5,0.5-4.9,0.7c-1.3,0.2-2.4,0.2-3.2,0.3c-0.7,0.1-1.1,0.1-1.1,0.1l-0.2-0.6c0,0,1.4-0.5,4-1.4
		c2.5-0.9,6.1-2.2,10.5-3.7c8.7-3,20.2-7,31.8-11c11.6-3.9,23.2-7.8,31.9-10.7c4.3-1.5,8-2.6,10.5-3.5c2.5-0.8,4-1.3,4-1.3
		L696.3,253.6z"/>
</g>
<g id="XMLID_84_">
	<path id="XMLID_335_" d="M603.3,284.6c0,0,0.1-0.2,0.2-0.6c0.2-0.4,0.4-1,0.7-1.7c0.3-0.7,0.7-1.6,1.3-2.6c0.5-1,1.1-2.1,1.8-3.2
		c1.4-2.3,3.2-4.8,5.2-7.3c0.5-0.6,1-1.3,1.6-1.9c0.5-0.6,1.1-1.3,1.7-1.9c1.1-1.3,2.4-2.5,3.6-3.7c1.3-1.2,2.5-2.4,3.8-3.5
		c0.6-0.6,1.3-1.1,1.9-1.6c0.6-0.5,1.3-1.1,1.9-1.5c2.6-2,5.1-3.7,7.4-5.1c1.1-0.7,2.2-1.3,3.2-1.8c1-0.5,1.9-0.9,2.6-1.2
		c0.7-0.3,1.4-0.5,1.8-0.7c0.4-0.2,0.6-0.2,0.6-0.2l0.4,0.4c0,0-0.6,0.6-1.7,1.7c-1.1,1.1-2.5,2.6-4.4,4.5
		c-3.7,3.7-8.6,8.5-13.4,13.4c-5,4.8-9.9,9.6-13.6,13.2c-1.9,1.8-3.4,3.3-4.5,4.3c-1.1,1-1.7,1.6-1.7,1.6L603.3,284.6z"/>
</g>
<g id="XMLID_83_">
	<path id="XMLID_329_" d="M642.6,246.2c0,0-0.1,0-0.3-0.1c-0.2-0.1-0.5-0.2-0.8-0.4c-0.3-0.2-0.7-0.4-1-0.6
		c-0.4-0.2-0.8-0.5-1.1-0.8c-0.7-0.6-1.4-1.4-1.8-2.2c-0.5-0.8-0.8-1.7-0.9-2.7c-0.1-0.9,0-1.9,0.3-2.8c0.3-0.9,0.7-1.8,1.3-2.6
		c0.3-0.4,0.6-0.7,0.9-1.1c0.3-0.3,0.6-0.6,0.8-0.8c0.2-0.2,0.5-0.4,0.7-0.6c0.2-0.1,0.3-0.2,0.3-0.2l0.6-0.1c0,0,0,0.2,0.1,0.6
		c0.1,0.4,0.2,1,0.3,1.7c0.1,0.7,0.3,1.5,0.4,2.4c0.1,0.9,0.2,1.8,0.4,2.7c0.1,0.9,0.2,1.9,0.3,2.7c0.1,0.9,0.1,1.7,0.2,2.4
		c0.1,0.7,0.1,1.3,0.1,1.7c0,0.4,0,0.6,0,0.6L642.6,246.2z"/>
</g>
<g id="XMLID_82_">
	<path id="XMLID_323_" d="M641.4,231.4c0,0,0.1,0.1,0.2,0.2c0.1,0.2,0.3,0.4,0.5,0.7c0.2,0.3,0.4,0.6,0.6,0.9
		c0.2,0.4,0.4,0.7,0.6,1.1c0.3,0.8,0.6,1.6,0.6,2.5c0.1,0.8-0.1,1.6-0.4,2.3c-0.3,0.7-0.8,1.3-1.5,1.8c-0.6,0.5-1.4,0.9-2.3,1.1
		c-0.4,0.1-0.8,0.2-1.2,0.3c-0.4,0.1-0.8,0.1-1.1,0.2c-0.3,0-0.6,0-0.8,0.1c-0.2,0-0.3,0-0.3,0l-0.5-0.3c0,0,0.1-0.2,0.2-0.5
		c0.1-0.3,0.3-0.8,0.5-1.3c0.2-0.5,0.5-1.2,0.7-1.8c0.3-0.7,0.6-1.4,0.9-2.1c0.3-0.7,0.7-1.4,1-2c0.3-0.7,0.6-1.2,0.9-1.8
		c0.3-0.5,0.5-0.9,0.7-1.2c0.2-0.3,0.3-0.5,0.3-0.5L641.4,231.4z"/>
</g>
<g id="XMLID_81_">
	<path id="XMLID_317_" d="M636.1,242.8c0,0-0.1,0.2-0.3,0.6c-0.2,0.4-0.4,0.9-0.8,1.6c-0.4,0.7-0.8,1.5-1.4,2.3
		c-0.5,0.9-1.2,1.8-1.9,2.8c-1.5,2-3.3,4.2-5.4,6.4c-0.5,0.6-1.1,1.1-1.6,1.6c-0.5,0.6-1.1,1.1-1.7,1.6c-1.2,1.1-2.4,2.1-3.6,3.1
		c-1.3,1-2.5,2-3.8,2.9c-0.6,0.5-1.3,0.9-1.9,1.3c-0.6,0.4-1.3,0.9-1.9,1.3c-2.6,1.6-5.1,2.9-7.4,4c-1.1,0.5-2.2,1-3.2,1.3
		c-1,0.4-1.8,0.6-2.6,0.9c-0.7,0.2-1.3,0.4-1.7,0.5c-0.4,0.1-0.6,0.1-0.6,0.1l-0.4-0.5c0,0,0.6-0.5,1.7-1.4c1.1-0.9,2.6-2.2,4.4-3.8
		c3.7-3.1,8.7-7.2,13.6-11.2c5-4,10-8,13.8-11c1.9-1.5,3.5-2.7,4.6-3.6c1.1-0.9,1.7-1.4,1.7-1.4L636.1,242.8z"/>
</g>
<g id="XMLID_80_">
	<path id="XMLID_311_" d="M595.9,274.8c0,0,0-0.3,0.2-0.8c0.1-0.5,0.3-1.2,0.5-2.1c0.3-0.9,0.6-2,1-3.1c0.4-1.2,0.9-2.5,1.5-3.9
		c1.2-2.8,2.7-6,4.5-9.3c0.4-0.8,0.9-1.7,1.4-2.5c0.5-0.8,1-1.7,1.5-2.5c1-1.7,2.1-3.3,3.2-5c1.1-1.6,2.3-3.3,3.5-4.8
		c0.6-0.8,1.2-1.6,1.8-2.3c0.6-0.8,1.2-1.5,1.8-2.2c2.4-2.9,4.8-5.4,7.1-7.5c1.1-1.1,2.2-2,3.1-2.8c0.9-0.8,1.8-1.5,2.5-2.1
		c0.7-0.6,1.3-1,1.7-1.3c0.4-0.3,0.6-0.4,0.6-0.4l0.5,0.3c0,0-0.5,0.8-1.5,2.3c-1,1.5-2.3,3.6-4,6c-3.3,5-7.8,11.6-12.3,18.2
		c-4.5,6.6-9.1,13.1-12.5,18c-1.7,2.5-3.2,4.5-4.2,5.9c-1,1.4-1.6,2.2-1.6,2.2L595.9,274.8z"/>
</g>
<g id="XMLID_79_">
	<path id="XMLID_308_" d="M630.4,224c0,0-0.1-0.4-0.3-0.8c-0.2-0.4-0.5-1.1-0.7-1.9c-0.3-0.8-0.6-1.8-0.9-2.8
		c-0.3-1.1-0.7-2.3-1-3.6c-0.6-2.7-1.2-5.8-1.6-9.1c-0.1-0.8-0.2-1.7-0.2-2.5c-0.1-0.9-0.1-1.7-0.2-2.6c-0.1-1.7-0.1-3.5-0.2-5.3
		c0-1.8,0-3.5,0.2-5.3c0-0.9,0.1-1.7,0.2-2.6c0.1-0.9,0.1-1.7,0.2-2.5c0.4-3.3,0.9-6.4,1.6-9.1c0.3-1.3,0.7-2.5,1-3.6
		c0.3-1.1,0.7-2,0.9-2.8c0.3-0.8,0.6-1.4,0.7-1.8c0.2-0.4,0.3-0.6,0.3-0.6h0.6c0,0,0,0.9,0.1,2.4c0,1.6,0.1,3.8,0.1,6.4
		c0,5.3,0.1,12.4,0.1,19.5c-0.1,7.1-0.1,14.2-0.1,19.5c0,2.7-0.1,5.1-0.1,6.6c0,1.6-0.1,2.6-0.1,2.6H630.4z"/>
</g>
<g id="XMLID_78_">
	<path id="XMLID_306_" d="M632.4,167c0,0,0.1,0.1,0.2,0.3c0.1,0.2,0.3,0.5,0.5,0.9c0.2,0.4,0.4,0.8,0.6,1.4c0.2,0.5,0.4,1.1,0.6,1.7
		c0.3,1.2,0.6,2.6,0.6,4c0,0.4,0,0.7,0,1.1c0,0.4,0,0.7-0.1,1.1c-0.1,0.7-0.2,1.4-0.4,2.1c-0.2,0.7-0.4,1.4-0.7,2.1
		c-0.1,0.3-0.3,0.7-0.4,1c-0.2,0.3-0.3,0.6-0.5,0.9c-0.7,1.2-1.6,2.3-2.5,3.2c-0.4,0.4-0.9,0.8-1.3,1.2c-0.4,0.3-0.9,0.6-1.2,0.9
		c-0.3,0.2-0.7,0.4-0.9,0.5c-0.2,0.1-0.3,0.2-0.3,0.2l-0.6-0.2c0,0,0.1-0.4,0.2-1c0.1-0.6,0.3-1.5,0.5-2.6c0.3-1.1,0.5-2.3,0.8-3.6
		c0.3-1.3,0.7-2.7,1-4.1c0.4-1.4,0.8-2.8,1.1-4.1c0.4-1.3,0.7-2.5,1-3.6c0.3-1,0.6-1.9,0.8-2.5c0.2-0.6,0.3-1,0.3-1L632.4,167z"/>
</g>
<g id="XMLID_77_">
	<path id="XMLID_304_" d="M626.6,189.5c0,0,0.1,0.1,0.3,0.4c0.1,0.2,0.4,0.6,0.6,1c0.2,0.4,0.5,1,0.8,1.6c0.3,0.6,0.5,1.3,0.8,2
		c0.5,1.4,0.9,3.1,1.1,4.9c0.1,0.4,0.1,0.9,0.1,1.3c0,0.5,0,0.9,0,1.4c0,0.9-0.1,1.8-0.1,2.8c-0.1,0.9-0.2,1.8-0.4,2.7
		c-0.1,0.4-0.2,0.9-0.3,1.3c-0.1,0.4-0.2,0.9-0.4,1.3c-0.5,1.7-1.3,3.2-2,4.6c-0.4,0.7-0.8,1.3-1.2,1.8c-0.4,0.5-0.8,1-1.1,1.4
		c-0.3,0.4-0.6,0.7-0.8,0.9c-0.2,0.2-0.3,0.3-0.3,0.3l-0.6-0.1c0,0,0-0.5,0.1-1.3c0.1-0.8,0.1-2,0.2-3.4c0.2-2.8,0.6-6.5,0.9-10.1
		c0.4-3.7,0.9-7.4,1.2-10.1c0.2-1.4,0.3-2.5,0.5-3.3c0.1-0.8,0.2-1.3,0.2-1.3L626.6,189.5z"/>
</g>
<g id="XMLID_119_">
	<line id="XMLID_302_" class="st1" x1="493" y1="468.3" x2="476.4" y2="460.2"/>
	<path id="XMLID_301_" class="st1" d="M492.8,468.6c0,0-0.1,0.1-0.3,0.2c-0.2,0.1-0.5,0.3-0.8,0.4c-0.3,0.1-0.8,0.3-1.2,0.5
		c-0.5,0.1-1,0.3-1.5,0.4c-1.1,0.2-2.2,0.3-3.3,0.1c-0.3,0-0.6-0.1-0.8-0.1c-0.3,0-0.6-0.1-0.8-0.2c-0.6-0.1-1.1-0.4-1.6-0.6
		c-0.5-0.3-1-0.5-1.5-0.9c-0.2-0.2-0.5-0.3-0.7-0.5c-0.2-0.2-0.4-0.4-0.6-0.6c-0.8-0.8-1.5-1.8-2-2.7c-0.2-0.5-0.5-0.9-0.6-1.4
		c-0.2-0.4-0.3-0.9-0.4-1.3c-0.1-0.3-0.2-0.7-0.2-0.9c0-0.2-0.1-0.4-0.1-0.4l0.3-0.5c0,0,0.3,0.1,0.7,0.3c0.5,0.2,1.1,0.5,1.9,0.8
		c0.8,0.4,1.7,0.8,2.7,1.2c1,0.5,2,1,3.1,1.5c1,0.5,2.1,1,3,1.5c1,0.5,1.8,1,2.6,1.4c0.8,0.4,1.4,0.8,1.8,1c0.4,0.3,0.7,0.4,0.7,0.4
		L492.8,468.6z"/>
</g>
<g id="XMLID_120_">
	<line id="XMLID_299_" class="st1" x1="476.4" y1="460.2" x2="468.3" y2="449.8"/>
	<path id="XMLID_298_" class="st1" d="M476.2,460.4c0,0-0.1,0-0.3,0.1c-0.2,0-0.5,0.1-0.8,0.1c-0.3,0-0.8,0.1-1.1,0.1
		c-0.4,0-0.9,0-1.3-0.1c-0.9-0.1-1.8-0.3-2.5-0.7c-0.8-0.4-1.4-0.9-1.9-1.6c-0.5-0.7-0.9-1.4-1-2.3c-0.2-0.8-0.2-1.8-0.1-2.6
		c0.1-0.4,0.2-0.9,0.3-1.3c0.1-0.4,0.2-0.8,0.3-1.1c0.1-0.3,0.3-0.6,0.3-0.8c0.1-0.2,0.1-0.3,0.1-0.3l0.5-0.4c0,0,0.1,0.2,0.4,0.4
		c0.2,0.3,0.6,0.6,1,1.1c0.4,0.5,0.9,1,1.4,1.6c0.5,0.6,1,1.3,1.5,1.9c0.5,0.7,1,1.3,1.5,1.9c0.5,0.6,0.9,1.2,1.2,1.7
		c0.4,0.5,0.6,1,0.8,1.3c0.2,0.3,0.3,0.5,0.3,0.5L476.2,460.4z"/>
</g>
<g id="XMLID_122_">
	<path id="XMLID_296_" d="M493.5,468.1c0,0,0-0.1,0.1-0.4c0.1-0.2,0.1-0.6,0.2-0.9c0.1-0.4,0.2-0.8,0.4-1.3c0.2-0.5,0.4-0.9,0.6-1.4
		c0.5-1,1.2-1.9,2-2.7c0.2-0.2,0.4-0.4,0.6-0.6c0.2-0.2,0.4-0.4,0.7-0.5c0.5-0.4,1-0.6,1.5-0.9c0.5-0.2,1.1-0.5,1.6-0.6
		c0.3-0.1,0.6-0.2,0.8-0.2c0.3-0.1,0.6-0.1,0.9-0.1c1.1-0.1,2.3-0.1,3.4,0.1c0.5,0.1,1,0.2,1.5,0.4c0.5,0.1,0.9,0.3,1.2,0.5
		c0.3,0.1,0.6,0.3,0.8,0.4c0.2,0.1,0.3,0.2,0.3,0.2l0.3,0.5c0,0-0.3,0.1-0.7,0.4c-0.4,0.2-1.1,0.6-1.8,1c-0.8,0.4-1.7,0.9-2.6,1.4
		c-1,0.5-2,1-3,1.5c-1,0.5-2.1,1-3.1,1.5c-1,0.5-1.9,0.9-2.7,1.2c-0.8,0.4-1.5,0.6-1.9,0.8c-0.5,0.2-0.7,0.3-0.7,0.3L493.5,468.1z"
		/>
</g>
<g id="XMLID_121_">
	<path id="XMLID_294_" d="M510,460c0,0,0-0.1-0.1-0.3c-0.1-0.2-0.2-0.5-0.3-0.8c-0.1-0.3-0.3-0.7-0.3-1.1c-0.1-0.4-0.2-0.8-0.3-1.3
		c-0.1-0.9-0.1-1.8,0.1-2.6c0.2-0.9,0.5-1.6,1-2.3c0.5-0.6,1.2-1.2,2-1.6c0.8-0.4,1.7-0.6,2.5-0.7c0.4-0.1,0.9-0.1,1.3-0.1
		c0.4,0,0.8,0,1.1,0.1c0.3,0,0.6,0.1,0.8,0.1c0.2,0,0.3,0.1,0.3,0.1l0.5,0.4c0,0-0.1,0.2-0.3,0.5c-0.2,0.3-0.5,0.8-0.8,1.3
		c-0.4,0.5-0.8,1.1-1.2,1.7c-0.5,0.6-1,1.3-1.5,1.9c-0.5,0.6-1,1.3-1.5,1.9c-0.5,0.6-1,1.1-1.4,1.6c-0.4,0.5-0.8,0.8-1,1.1
		c-0.2,0.3-0.4,0.4-0.4,0.4L510,460z"/>
</g>
<g id="XMLID_123_">
	<line id="XMLID_292_" class="st1" x1="466.7" y1="449.8" x2="492.5" y2="444.4"/>
	<path id="XMLID_291_" class="st1" d="M466.6,449.5c0,0,0.1-0.1,0.2-0.3c0.2-0.2,0.4-0.5,0.7-0.9c0.3-0.3,0.7-0.8,1.1-1.2
		c0.4-0.4,0.9-0.9,1.5-1.3c1.1-0.9,2.4-1.7,3.8-2.4c0.4-0.2,0.7-0.3,1.1-0.5c0.4-0.2,0.8-0.3,1.1-0.4c0.8-0.3,1.6-0.5,2.4-0.7
		c0.8-0.1,1.6-0.3,2.4-0.3c0.4-0.1,0.8-0.1,1.2-0.1c0.4,0,0.8,0,1.2,0c1.6,0,3.1,0.3,4.5,0.7c0.7,0.2,1.3,0.4,1.9,0.6
		c0.6,0.2,1.1,0.5,1.5,0.7c0.4,0.2,0.7,0.4,1,0.5c0.2,0.1,0.4,0.2,0.4,0.2l0.1,0.6c0,0-0.4,0.1-1.1,0.3c-0.7,0.2-1.7,0.5-2.9,0.7
		c-2.4,0.5-5.6,1.3-8.9,2c-3.2,0.6-6.5,1.3-8.9,1.7c-1.2,0.2-2.2,0.4-3,0.5c-0.7,0.1-1.1,0.2-1.1,0.2L466.6,449.5z"/>
</g>
<g id="XMLID_124_">
	<line id="XMLID_289_" class="st1" x1="466.7" y1="449.8" x2="449.8" y2="415"/>
	<path id="XMLID_288_" class="st1" d="M466.4,449.9c0,0-0.2-0.1-0.5-0.3c-0.3-0.2-0.7-0.4-1.2-0.8c-0.5-0.4-1.1-0.8-1.7-1.3
		c-0.6-0.5-1.3-1.1-2-1.8c-1.4-1.4-2.8-3-4.1-4.9c-0.3-0.5-0.7-1-1-1.4c-0.3-0.5-0.6-1-0.9-1.5c-0.6-1-1.2-2.1-1.7-3.2
		c-0.5-1.1-1-2.2-1.4-3.3c-0.2-0.5-0.4-1.1-0.6-1.7c-0.2-0.6-0.4-1.1-0.5-1.7c-0.7-2.2-1.1-4.3-1.3-6.3c-0.1-1-0.2-1.8-0.2-2.7
		c0-0.8,0-1.5,0-2.1c0-0.6,0.1-1.1,0.1-1.4c0-0.3,0.1-0.5,0.1-0.5l0.5-0.3c0,0,0.3,0.5,0.8,1.5c0.5,0.9,1.2,2.3,2,3.9
		c1.6,3.2,3.8,7.6,5.9,11.9c2.1,4.4,4.1,8.7,5.7,12c0.8,1.6,1.4,3,1.8,4c0.4,1,0.7,1.5,0.7,1.5L466.4,449.9z"/>
</g>
<g id="XMLID_125_">
	<line id="XMLID_286_" class="st1" x1="449.8" y1="415" x2="458.2" y2="388.7"/>
	<path id="XMLID_285_" class="st1" d="M449.5,414.9c0,0-0.1-0.1-0.2-0.4c-0.1-0.2-0.3-0.6-0.4-1.1c-0.1-0.4-0.3-1-0.5-1.6
		c-0.2-0.6-0.3-1.3-0.4-2c-0.2-1.4-0.3-3-0.1-4.7c0-0.4,0.1-0.8,0.1-1.2c0-0.4,0.1-0.8,0.2-1.3c0.2-0.8,0.4-1.7,0.6-2.5
		c0.3-0.8,0.6-1.6,0.9-2.4c0.2-0.4,0.4-0.8,0.6-1.1c0.2-0.4,0.4-0.7,0.6-1.1c0.8-1.4,1.8-2.7,2.8-3.7c0.5-0.5,1-1,1.5-1.4
		c0.5-0.4,0.9-0.7,1.3-1c0.4-0.3,0.7-0.5,1-0.6c0.2-0.1,0.4-0.2,0.4-0.2l0.6,0.2c0,0-0.1,0.4-0.3,1.1c-0.2,0.7-0.5,1.8-0.8,3
		c-0.8,2.5-1.8,5.8-2.8,9.1c-1.1,3.3-2.2,6.6-3,9c-0.4,1.2-0.8,2.2-1.1,2.9c-0.3,0.7-0.4,1.1-0.4,1.1L449.5,414.9z"/>
</g>
<g id="XMLID_126_">
	<line id="XMLID_283_" class="st1" x1="457" y1="388" x2="457" y2="378"/>
	<path id="XMLID_282_" class="st1" d="M456.6,388c0,0-0.1,0.1-0.3,0c-0.2-0.1-0.5-0.1-0.7-0.3c-0.3-0.1-0.6-0.3-0.9-0.5
		c-0.3-0.2-0.7-0.4-1-0.7c-0.6-0.5-1.2-1.1-1.6-1.7c-0.4-0.6-0.6-1.3-0.6-2c0-0.7,0.2-1.3,0.6-2c0.4-0.6,0.9-1.2,1.6-1.7
		c0.3-0.3,0.7-0.5,1-0.7c0.3-0.2,0.7-0.4,0.9-0.5c0.3-0.1,0.6,0,0.7-0.1c0.2-0.1,0.3,0.1,0.3,0.1h0.6c0,0,0-0.1,0.1,0.2
		c0,0.3,0.1,0.6,0.1,1.1c0,0.5,0.1,1,0.1,1.7c0,0.6,0,1.3,0,2c0,0.7,0,1.3,0,2c0,0.6-0.1,1.2-0.1,1.7c0,0.5-0.1,0.8-0.1,1
		c0,0.3-0.1,0.3-0.1,0.3H456.6z"/>
</g>
<g id="XMLID_127_">
	<line id="XMLID_280_" class="st1" x1="458.2" y1="377.5" x2="449.8" y2="370.8"/>
	<path id="XMLID_279_" class="st1" d="M458,377.8c0,0-0.1,0-0.3,0.1c-0.2,0.1-0.5,0.3-0.7,0.4c-0.3,0.1-0.7,0.3-1,0.4
		c-0.4,0.1-0.8,0.3-1.2,0.4c-0.8,0.2-1.6,0.2-2.3,0.1c-0.7-0.1-1.4-0.4-1.9-0.8c-0.5-0.4-0.9-1-1.2-1.7c-0.3-0.7-0.4-1.5-0.4-2.3
		c0-0.4,0-0.8,0.1-1.2c0-0.4,0.1-0.8,0.2-1.1c0-0.3,0.2-0.6,0.2-0.8c0.1-0.2,0.1-0.3,0.1-0.3l0.4-0.5c0,0,0.1,0.1,0.4,0.3
		c0.2,0.2,0.6,0.4,1,0.7c0.4,0.3,0.9,0.6,1.4,1c0.5,0.4,1,0.8,1.6,1.2c0.5,0.4,1,0.9,1.5,1.3c0.5,0.4,0.9,0.8,1.3,1.2
		c0.4,0.3,0.7,0.7,0.9,0.9c0.2,0.2,0.3,0.3,0.3,0.3L458,377.8z"/>
</g>
<g id="XMLID_128_">
	<line id="XMLID_277_" class="st1" x1="449.8" y1="370.8" x2="441.7" y2="372.8"/>
	<path id="XMLID_276_" class="st1" d="M449.9,371.1c0,0,0,0.1,0,0.3c0,0.2,0,0.5-0.1,0.8c0,0.3-0.1,0.7-0.2,1
		c-0.1,0.4-0.2,0.8-0.3,1.1c-0.2,0.7-0.5,1.4-0.9,1.8c-0.4,0.5-0.8,0.8-1.3,0.9c-0.5,0.1-1.1,0.1-1.6-0.2c-0.6-0.2-1.1-0.7-1.7-1.2
		c-0.3-0.3-0.5-0.6-0.8-0.8c-0.2-0.2-0.4-0.6-0.6-0.8c-0.2-0.2-0.3-0.5-0.4-0.6c-0.1-0.2-0.2-0.2-0.2-0.2l-0.1-0.6
		c0,0,0.1,0,0.3-0.1c0.2-0.1,0.5-0.2,0.9-0.3c0.4-0.1,0.8-0.3,1.3-0.4c0.5-0.1,1-0.3,1.5-0.4c0.5-0.1,1-0.2,1.5-0.3
		c0.5-0.1,0.9-0.2,1.3-0.2c0.4-0.1,0.7-0.1,0.9-0.1c0.2,0,0.4,0,0.4,0L449.9,371.1z"/>
</g>
<g id="XMLID_129_">
	<line id="XMLID_274_" class="st1" x1="441.7" y1="372.8" x2="438.7" y2="365.7"/>
	<path id="XMLID_273_" class="st1" d="M441.5,372.9c0,0-0.1,0-0.3,0c-0.2,0-0.5,0.1-0.8,0.1c-0.3,0-0.7,0-1,0c-0.4,0-0.8,0-1.1-0.1
		c-0.7-0.1-1.4-0.3-1.9-0.5c-0.5-0.3-0.9-0.6-1.1-1.1c-0.2-0.4-0.2-1,0-1.5c0.2-0.6,0.5-1.2,1-1.7c0.2-0.3,0.5-0.6,0.7-0.8
		c0.2-0.2,0.5-0.5,0.7-0.7c0.2-0.2,0.5-0.4,0.6-0.5c0.1-0.1,0.2-0.2,0.2-0.2l0.6-0.2c0,0,0.1,0.1,0.2,0.3c0.1,0.2,0.3,0.4,0.4,0.8
		c0.2,0.3,0.4,0.7,0.6,1.1c0.2,0.4,0.4,0.8,0.6,1.3c0.2,0.4,0.4,0.9,0.5,1.3c0.2,0.4,0.3,0.8,0.4,1.2c0.1,0.3,0.2,0.6,0.2,0.8
		c0.1,0.2,0.1,0.3,0.1,0.3L441.5,372.9z"/>
</g>
<g id="XMLID_130_">
	<line id="XMLID_271_" class="st1" x1="438.7" y1="365.7" x2="449.8" y2="345.1"/>
	<path id="XMLID_270_" class="st1" d="M438.5,365.6c0,0-0.1-0.1-0.1-0.4c-0.1-0.2-0.2-0.6-0.3-1c-0.1-0.4-0.2-0.9-0.3-1.5
		c-0.1-0.5-0.1-1.1-0.2-1.8c0-1.3,0.1-2.7,0.4-4c0.1-0.4,0.2-0.7,0.3-1c0.1-0.3,0.2-0.7,0.3-1c0.2-0.7,0.6-1.3,0.9-2
		c0.4-0.6,0.7-1.3,1.2-1.8c0.2-0.3,0.4-0.6,0.7-0.9c0.2-0.3,0.5-0.6,0.7-0.8c1-1,2.1-1.9,3.2-2.6c0.5-0.3,1.1-0.6,1.6-0.9
		c0.5-0.2,1-0.4,1.4-0.6c0.4-0.2,0.8-0.2,1-0.3c0.2-0.1,0.4-0.1,0.4-0.1l0.5,0.3c0,0-0.2,0.3-0.4,0.9c-0.3,0.6-0.7,1.4-1.2,2.4
		c-0.5,1-1.1,2.1-1.7,3.3c-0.6,1.2-1.3,2.5-2,3.8c-0.7,1.3-1.4,2.6-2.1,3.8c-0.7,1.2-1.3,2.3-1.9,3.3c-0.5,1-1,1.7-1.4,2.3
		c-0.3,0.5-0.5,0.9-0.5,0.9L438.5,365.6z"/>
</g>
<g id="XMLID_131_">
	<line id="XMLID_268_" class="st1" x1="449.8" y1="345.1" x2="443.1" y2="334.8"/>
	<path id="XMLID_267_" class="st1" d="M449.6,345.3c0,0-0.1,0-0.3,0c-0.2,0-0.5,0.1-0.8,0.1c-0.3,0-0.7,0-1.1,0
		c-0.4,0-0.9,0-1.3-0.1c-0.9-0.1-1.7-0.4-2.4-0.8c-0.7-0.4-1.3-0.9-1.7-1.6c-0.4-0.7-0.7-1.4-0.7-2.2c-0.1-0.8,0-1.7,0.2-2.5
		c0.1-0.4,0.3-0.8,0.4-1.2c0.1-0.4,0.3-0.7,0.5-1c0.1-0.3,0.3-0.6,0.4-0.7c0.1-0.2,0.2-0.3,0.2-0.3l0.5-0.3c0,0,0.1,0.2,0.3,0.4
		c0.2,0.3,0.5,0.6,0.9,1.1c0.3,0.5,0.7,1,1.2,1.6c0.4,0.6,0.8,1.2,1.3,1.9c0.4,0.7,0.8,1.3,1.2,1.9c0.4,0.6,0.7,1.2,1,1.7
		c0.3,0.5,0.5,0.9,0.7,1.2c0.2,0.3,0.2,0.5,0.2,0.5L449.6,345.3z"/>
</g>
<g id="XMLID_132_">
	<line id="XMLID_265_" class="st1" x1="443.1" y1="334.8" x2="446.5" y2="323.2"/>
	<path id="XMLID_264_" class="st1" d="M442.8,334.7c0,0-0.1-0.1-0.2-0.2c-0.1-0.1-0.4-0.3-0.6-0.6c-0.2-0.2-0.5-0.5-0.7-0.8
		c-0.3-0.3-0.5-0.7-0.8-1c-0.5-0.7-0.8-1.5-1-2.3c-0.2-0.8-0.1-1.6,0.1-2.3c0.2-0.7,0.6-1.4,1.2-2c0.6-0.6,1.3-1.1,2-1.4
		c0.4-0.2,0.8-0.3,1.2-0.5c0.3-0.1,0.8-0.2,1.1-0.3c0.3-0.1,0.6-0.1,0.8-0.2c0.2,0,0.3-0.1,0.3-0.1l0.6,0.2c0,0,0,0.2-0.1,0.5
		c-0.1,0.3-0.1,0.8-0.3,1.3c-0.1,0.6-0.3,1.2-0.4,1.9c-0.2,0.7-0.4,1.4-0.6,2.1c-0.2,0.7-0.4,1.4-0.7,2.1c-0.2,0.7-0.4,1.3-0.6,1.8
		c-0.2,0.5-0.4,1-0.5,1.3c-0.1,0.3-0.2,0.5-0.2,0.5L442.8,334.7z"/>
</g>
<g id="XMLID_142_">
	<path id="XMLID_262_" d="M519.5,450.1c0,0-0.1,0.1-0.4,0.2c-0.2,0.1-0.6,0.4-1,0.5c-0.4,0.2-0.9,0.5-1.5,0.7
		c-0.6,0.2-1.2,0.4-1.9,0.6c-1.3,0.4-2.9,0.6-4.5,0.7c-0.4,0-0.8,0-1.2,0c-0.4,0-0.8,0-1.2-0.1c-0.8-0.1-1.6-0.2-2.5-0.4
		c-0.8-0.2-1.6-0.4-2.4-0.7c-0.4-0.1-0.8-0.3-1.1-0.4c-0.4-0.2-0.7-0.3-1.1-0.5c-1.4-0.7-2.8-1.5-3.8-2.4c-0.5-0.4-1-0.9-1.5-1.3
		c-0.4-0.4-0.8-0.9-1.1-1.2c-0.3-0.3-0.5-0.7-0.7-0.9c-0.2-0.2-0.2-0.3-0.2-0.3l0.1-0.6c0,0,0.4,0.1,1.1,0.2c0.7,0.1,1.7,0.3,3,0.5
		c2.4,0.5,5.7,1.1,9,1.7c3.2,0.7,6.5,1.4,8.9,2c1.2,0.3,2.2,0.6,2.9,0.7c0.7,0.2,1.1,0.3,1.1,0.3L519.5,450.1z"/>
</g>
<g id="XMLID_141_">
	<path id="XMLID_260_" d="M519.3,449.6c0,0,0-0.2-0.1-0.5c0-0.3-0.1-0.8-0.1-1.4c0-0.6-0.1-1.3,0-2.1c0-0.8,0.1-1.7,0.2-2.7
		c0.2-1.9,0.6-4.1,1.3-6.3c0.1-0.6,0.3-1.1,0.5-1.7c0.2-0.6,0.4-1.1,0.6-1.7c0.4-1.1,0.9-2.2,1.4-3.3c0.6-1.1,1.1-2.2,1.7-3.2
		c0.3-0.5,0.6-1,0.9-1.5c0.3-0.5,0.6-1,1-1.4c1.3-1.9,2.8-3.5,4.1-4.9c0.7-0.7,1.3-1.3,2-1.8c0.6-0.5,1.2-0.9,1.7-1.3
		c0.5-0.4,0.9-0.6,1.2-0.8c0.3-0.2,0.5-0.3,0.5-0.3l0.5,0.3c0,0-0.2,0.6-0.7,1.5c-0.4,1-1,2.4-1.8,4c-1.6,3.3-3.6,7.6-5.7,12
		c-2.2,4.3-4.3,8.6-5.9,11.9c-0.8,1.6-1.5,2.9-2,3.9c-0.5,0.9-0.8,1.5-0.8,1.5L519.3,449.6z"/>
</g>
<g id="XMLID_140_">
	<path id="XMLID_258_" d="M536.2,415.1c0,0-0.1-0.1-0.4-0.2c-0.2-0.1-0.6-0.3-1-0.6c-0.4-0.3-0.9-0.6-1.3-1c-0.5-0.4-1-0.9-1.5-1.4
		c-1-1-2-2.3-2.8-3.7c-0.2-0.4-0.4-0.7-0.6-1.1c-0.2-0.4-0.4-0.8-0.6-1.1c-0.4-0.8-0.6-1.6-0.9-2.4c-0.2-0.8-0.5-1.7-0.6-2.5
		c-0.1-0.4-0.2-0.8-0.2-1.3c-0.1-0.4-0.1-0.8-0.1-1.3c-0.1-1.7-0.1-3.3,0.1-4.7c0.1-0.7,0.2-1.4,0.4-2c0.1-0.6,0.3-1.1,0.5-1.6
		c0.1-0.4,0.3-0.8,0.4-1.1c0.1-0.2,0.2-0.4,0.2-0.4l0.6-0.2c0,0,0.1,0.4,0.4,1.1c0.3,0.7,0.7,1.7,1.1,2.9c0.8,2.5,1.9,5.7,3,9
		c1,3.3,2,6.6,2.8,9.1c0.4,1.2,0.6,2.3,0.9,3c0.2,0.7,0.3,1.1,0.3,1.1L536.2,415.1z"/>
</g>
<g id="XMLID_138_">
	<path id="XMLID_256_" d="M527.9,377.3c0,0,0-0.1-0.1-0.3c0-0.2-0.1-0.5-0.2-0.8c-0.1-0.3-0.1-0.7-0.2-1.1c0-0.4-0.1-0.8-0.1-1.2
		c0-0.8,0.1-1.6,0.4-2.3c0.2-0.7,0.7-1.3,1.2-1.7c0.5-0.4,1.2-0.7,1.9-0.8c0.7-0.1,1.5,0,2.3,0.1c0.4,0.1,0.8,0.2,1.2,0.3
		c0.3,0.1,0.7,0.3,1,0.4c0.3,0.1,0.6,0.3,0.7,0.4c0.2,0.1,0.3,0.1,0.3,0.1l0.4,0.5c0,0-0.1,0.1-0.3,0.3c-0.2,0.2-0.5,0.5-0.9,0.9
		c-0.4,0.3-0.8,0.7-1.3,1.2c-0.5,0.4-1,0.8-1.5,1.3c-0.5,0.4-1.1,0.8-1.6,1.2c-0.5,0.4-1,0.7-1.4,1c-0.4,0.3-0.8,0.5-1,0.7
		c-0.3,0.2-0.4,0.3-0.4,0.3L527.9,377.3z"/>
</g>
<g id="XMLID_137_">
	<path id="XMLID_254_" d="M536.6,370.5c0,0,0.1-0.1,0.2-0.2c0.1-0.1,0.3-0.4,0.4-0.7c0.2-0.2,0.4-0.6,0.6-0.8
		c0.2-0.3,0.5-0.6,0.8-0.8c0.5-0.5,1.1-1,1.7-1.2c0.6-0.3,1.1-0.3,1.6-0.2c0.5,0.1,1,0.4,1.3,0.9c0.4,0.5,0.7,1.1,0.9,1.8
		c0.1,0.3,0.2,0.7,0.3,1.1c0.1,0.3,0.1,0.7,0.2,1c0,0.3,0.1,0.6,0.1,0.8c0,0.2,0,0.3,0,0.3l-0.1,0.6c0,0-0.1,0-0.4,0
		c-0.2,0-0.6,0-0.9-0.1c-0.4-0.1-0.8-0.1-1.3-0.2c-0.5-0.1-1-0.2-1.5-0.3c-0.5-0.1-1-0.3-1.5-0.4c-0.5-0.1-0.9-0.3-1.3-0.4
		c-0.4-0.1-0.7-0.3-0.9-0.3c-0.2-0.1-0.3-0.1-0.3-0.1L536.6,370.5z"/>
</g>
<g id="XMLID_136_">
	<path id="XMLID_252_" d="M544.4,372.7c0,0-0.1-0.1-0.2-0.2c-0.1-0.1-0.4-0.3-0.6-0.5c-0.2-0.2-0.5-0.5-0.7-0.7
		c-0.2-0.3-0.5-0.6-0.7-0.8c-0.4-0.6-0.8-1.2-1-1.7c-0.2-0.6-0.2-1.1,0-1.5c0.2-0.4,0.5-0.8,1.1-1.1c0.5-0.3,1.2-0.4,1.9-0.5
		c0.4,0,0.8-0.1,1.1-0.1c0.3,0,0.7,0,1,0c0.3,0,0.6,0.1,0.8,0.1c0.2,0,0.3,0,0.3,0l0.6,0.2c0,0,0,0.1-0.1,0.3
		c-0.1,0.2-0.1,0.5-0.2,0.8c-0.1,0.3-0.2,0.8-0.4,1.2c-0.2,0.4-0.3,0.9-0.5,1.3c-0.2,0.4-0.4,0.9-0.6,1.3c-0.2,0.4-0.4,0.8-0.6,1.1
		c-0.2,0.3-0.3,0.6-0.5,0.8c-0.1,0.2-0.2,0.3-0.2,0.3L544.4,372.7z"/>
</g>
<g id="XMLID_135_">
	<path id="XMLID_250_" d="M547.4,365.9c0,0-0.1,0-0.4-0.1c-0.2-0.1-0.6-0.2-1-0.3c-0.4-0.1-0.9-0.3-1.4-0.6c-0.5-0.2-1-0.5-1.6-0.8
		c-1.1-0.7-2.2-1.5-3.2-2.6c-0.3-0.2-0.5-0.5-0.7-0.8c-0.2-0.3-0.5-0.6-0.7-0.9c-0.4-0.6-0.8-1.2-1.2-1.8c-0.3-0.7-0.7-1.3-0.9-2
		c-0.1-0.3-0.2-0.7-0.3-1c-0.1-0.3-0.2-0.7-0.3-1c-0.3-1.4-0.4-2.8-0.4-4c0-0.6,0.1-1.2,0.2-1.8c0.1-0.5,0.2-1.1,0.3-1.5
		c0.1-0.4,0.2-0.8,0.3-1c0.1-0.2,0.1-0.4,0.1-0.4l0.5-0.3c0,0,0.2,0.3,0.5,0.9c0.3,0.6,0.8,1.3,1.4,2.3c0.5,1,1.2,2.1,1.9,3.3
		c0.7,1.2,1.4,2.5,2.1,3.8c0.7,1.3,1.4,2.6,2,3.8c0.6,1.2,1.2,2.4,1.7,3.3c0.5,1,0.9,1.8,1.2,2.4c0.3,0.6,0.4,0.9,0.4,0.9
		L547.4,365.9z"/>
</g>
<g id="XMLID_134_">
	<path id="XMLID_248_" d="M536.3,345c0,0-0.1-0.1-0.2-0.3c-0.1-0.2-0.3-0.4-0.4-0.7c-0.1-0.3-0.3-0.7-0.5-1
		c-0.1-0.4-0.3-0.8-0.4-1.2c-0.2-0.8-0.3-1.7-0.2-2.5c0.1-0.8,0.3-1.6,0.8-2.2c0.4-0.6,1-1.2,1.7-1.6c0.7-0.4,1.5-0.7,2.4-0.8
		c0.4-0.1,0.9-0.1,1.3-0.1c0.4,0,0.8,0,1.1,0c0.3,0,0.6,0.1,0.8,0.1c0.2,0,0.3,0,0.3,0l0.5,0.3c0,0-0.1,0.2-0.2,0.5
		c-0.2,0.3-0.4,0.7-0.7,1.2c-0.3,0.5-0.6,1.1-1,1.7c-0.4,0.6-0.8,1.3-1.2,1.9c-0.4,0.6-0.9,1.3-1.3,1.9c-0.4,0.6-0.8,1.1-1.2,1.6
		c-0.3,0.5-0.7,0.8-0.9,1.1c-0.2,0.3-0.3,0.4-0.3,0.4L536.3,345z"/>
</g>
<g id="XMLID_133_">
	<path id="XMLID_246_" d="M543,334.9c0,0-0.1,0-0.3-0.1c-0.2,0-0.5-0.1-0.8-0.2c-0.3-0.1-0.7-0.2-1.1-0.3c-0.4-0.1-0.8-0.3-1.2-0.5
		c-0.8-0.4-1.5-0.8-2-1.4c-0.6-0.6-1-1.2-1.2-2c-0.2-0.7-0.2-1.5-0.1-2.3c0.2-0.8,0.5-1.6,1-2.3c0.2-0.4,0.5-0.7,0.7-1
		c0.2-0.3,0.5-0.6,0.7-0.8c0.2-0.2,0.5-0.4,0.6-0.6c0.1-0.1,0.2-0.2,0.2-0.2l0.6-0.2c0,0,0.1,0.2,0.2,0.5c0.1,0.3,0.3,0.7,0.5,1.3
		c0.2,0.5,0.4,1.2,0.6,1.8c0.2,0.7,0.4,1.4,0.7,2.1c0.2,0.7,0.4,1.5,0.6,2.1c0.2,0.7,0.3,1.3,0.5,1.9c0.1,0.6,0.2,1,0.3,1.3
		c0.1,0.3,0.1,0.5,0.1,0.5L543,334.9z"/>
</g>
<g id="XMLID_139_">
	<path id="XMLID_244_" d="M525.1,388c0,0-0.1,0.1-0.3,0c-0.2-0.1-0.5-0.1-0.7-0.3c-0.3-0.1-0.6-0.3-0.9-0.5c-0.3-0.2-0.7-0.4-1-0.7
		c-0.6-0.5-1.2-1.1-1.6-1.7c-0.4-0.6-0.6-1.3-0.6-2c0-0.7,0.2-1.3,0.6-2c0.4-0.6,0.9-1.2,1.6-1.7c0.3-0.3,0.7-0.5,1-0.7
		c0.3-0.2,0.7-0.4,0.9-0.5c0.3-0.1,0.6,0,0.7-0.1c0.2-0.1,0.3,0.1,0.3,0.1h0.6c0,0,0-0.1,0.1,0.2c0,0.3,0.1,0.6,0.1,1.1
		c0,0.5,0.1,1,0.1,1.7c0,0.6,0,1.3,0,2c0,0.7,0,1.3,0,2c0,0.6-0.1,1.2-0.1,1.7c0,0.5-0.1,0.8-0.1,1c0,0.3-0.1,0.3-0.1,0.3H525.1z"/>
</g>
<g id="XMLID_39_">
	<line id="XMLID_242_" class="st1" x1="362.2" y1="218.9" x2="468.3" y2="315.8"/>
	<path id="XMLID_241_" class="st1" d="M362.4,218.7c0,0,0.5,0.3,1.4,0.9c0.9,0.6,2.2,1.4,3.9,2.5c1.6,1.1,3.6,2.5,5.9,4.1
		c1.1,0.8,2.3,1.7,3.6,2.6c1.3,0.9,2.5,1.9,3.9,2.9c1.3,1,2.8,2.1,4.2,3.2c1.5,1.1,2.9,2.3,4.4,3.5c3,2.4,6.2,4.9,9.4,7.7
		c1.6,1.3,3.3,2.7,4.9,4.1c1.7,1.4,3.3,2.8,5,4.3c3.3,2.9,6.7,5.9,10,8.9c3.3,3,6.6,6.1,9.8,9.2c1.6,1.5,3.2,3,4.7,4.6
		c1.6,1.5,3.1,3,4.6,4.5c3,3,5.8,5.9,8.5,8.7c1.3,1.4,2.7,2.7,3.9,4.1c1.2,1.3,2.4,2.6,3.6,3.9c2.3,2.5,4.3,4.8,6.1,6.9
		c1.8,2.1,3.3,3.9,4.6,5.5c1.3,1.5,2.2,2.8,2.9,3.6c0.6,0.8,1,1.3,1,1.3l-0.4,0.4c0,0-6.7-6-16.7-15c-10-9.1-23.3-21.1-36.6-33.2
		c-13.2-12.1-26.5-24.3-36.4-33.4c-9.9-9.2-16.5-15.3-16.5-15.3L362.4,218.7z"/>
</g>
<g id="XMLID_76_">
	<line id="XMLID_239_" class="st1" x1="468" y1="318" x2="492" y2="318"/>
	<path id="XMLID_238_" class="st1" d="M468,317.8c0,0-0.1-0.1,0.1-0.3c0.2-0.2,0.4-0.5,0.7-0.7c0.3-0.3,0.7-0.6,1.2-1
		c0.5-0.3,1-0.7,1.5-1c1.1-0.6,2.4-1.2,3.9-1.6c0.4-0.1,0.7-0.2,1.1-0.2c0.4-0.1,0.7-0.1,1.1-0.2c0.7-0.1,1.5-0.1,2.3-0.2
		c0.8,0,1.5,0,2.3,0.2c0.4,0,0.7,0.1,1.1,0.2c0.4,0.1,0.7,0.1,1.1,0.2c1.4,0.4,2.7,0.9,3.9,1.6c0.6,0.3,1.1,0.7,1.5,1
		c0.5,0.3,0.9,0.7,1.2,1c0.3,0.3,0.7,0.6,0.8,0.7c0.2,0.2,0.3,0.3,0.3,0.3v0.6c0,0-0.4,0-1.1,0.1c-0.7,0-1.6,0.1-2.8,0.1
		c-1.1,0-2.5,0.1-3.9,0.1c-1.4,0-2.9,0-4.5,0c-1.5,0-3,0-4.4,0c-1.4,0-2.7-0.1-3.9-0.1c-1.1,0-1.9-0.1-2.6-0.1
		c-0.7,0-0.9-0.1-0.9-0.1V317.8z"/>
</g>
<g id="XMLID_144_">
	<path id="XMLID_236_" d="M622.8,219.1c0,0-0.3,0.5-1,1.3c-0.7,0.8-1.6,2.1-2.9,3.6c-1.3,1.5-2.8,3.4-4.6,5.5
		c-0.9,1-1.9,2.1-2.9,3.3c-1,1.2-2.1,2.3-3.3,3.6c-1.1,1.3-2.3,2.6-3.6,3.9c-1.2,1.3-2.6,2.7-3.9,4.1c-2.7,2.8-5.5,5.8-8.5,8.7
		c-1.5,1.5-3,3-4.6,4.5c-1.6,1.5-3.1,3-4.8,4.6c-3.2,3.1-6.5,6.1-9.8,9.1c-3.3,3-6.7,6-10,8.9c-1.7,1.5-3.3,2.9-5,4.3
		c-1.7,1.4-3.3,2.8-4.9,4.1c-3.2,2.7-6.5,5.2-9.5,7.7c-1.5,1.2-3,2.4-4.4,3.5c-1.5,1.1-2.9,2.2-4.2,3.2c-2.7,2.1-5.2,3.9-7.5,5.5
		c-2.2,1.6-4.2,3-5.9,4.1c-1.6,1.1-3,2-3.9,2.5c-0.9,0.6-1.4,0.9-1.4,0.9l-0.4-0.4c0,0,6.6-6.1,16.5-15.3
		c10-9.1,23.2-21.3,36.5-33.4c13.4-12.1,26.7-24.1,36.7-33.2c10.1-9,16.8-15,16.8-15L622.8,219.1z"/>
</g>
<g id="XMLID_143_">
	<path id="XMLID_234_" d="M517,318.4c0,0,0,0.1-0.1,0.3c-0.2,0.2-0.4,0.5-0.7,0.7c-0.3,0.3-0.7,0.6-1.2,1c-0.5,0.3-1,0.7-1.5,1
		c-1.1,0.6-2.5,1.2-3.9,1.6c-0.4,0.1-0.7,0.2-1.1,0.2c-0.4,0.1-0.7,0.1-1.1,0.2c-0.7,0.1-1.5,0.1-2.3,0.2c-0.8,0-1.5,0-2.3-0.2
		c-0.4,0-0.7-0.1-1.1-0.2c-0.4-0.1-0.7-0.1-1.1-0.2c-1.4-0.4-2.8-0.9-3.9-1.6c-0.6-0.3-1.1-0.7-1.6-1c-0.5-0.3-0.9-0.7-1.2-1
		c-0.3-0.3-0.6-0.6-0.8-0.7c-0.2-0.2-0.3-0.3-0.3-0.3v-0.6c0,0,0.4,0,1-0.1c0.7,0,1.6-0.1,2.7-0.1c1.1,0,2.5-0.1,3.9-0.1
		c1.4,0,2.9,0,4.5,0c1.5,0,3,0,4.5,0c1.4,0,2.8,0.1,3.9,0.1c1.1,0,2,0.1,2.6,0.1c0.7,0,0.9,0.1,0.9,0.1V318.4z"/>
</g>
<g id="XMLID_145_">
	<line id="XMLID_232_" class="st1" x1="458.2" y1="384.3" x2="449.8" y2="380.6"/>
	<path id="XMLID_231_" class="st1" d="M458.1,384.6c0,0-0.1,0.1-0.2,0.2c-0.1,0.1-0.3,0.4-0.6,0.6c-0.2,0.2-0.5,0.5-0.8,0.7
		c-0.3,0.2-0.6,0.5-0.9,0.7c-0.7,0.4-1.3,0.7-2,0.8c-0.7,0.1-1.3,0.1-1.8-0.2c-0.5-0.2-1-0.6-1.3-1.2c-0.3-0.6-0.6-1.3-0.7-2
		c-0.1-0.4-0.1-0.8-0.1-1.2c0-0.3,0-0.7,0-1c0-0.3,0-0.6,0-0.8c0-0.2,0-0.3,0-0.3l0.2-0.5c0,0,0.1,0,0.4,0.1c0.2,0.1,0.6,0.2,1,0.3
		c0.4,0.2,0.9,0.3,1.4,0.5c0.5,0.2,1,0.4,1.6,0.6c0.5,0.2,1,0.5,1.5,0.7c0.5,0.2,0.9,0.5,1.3,0.7c0.4,0.2,0.7,0.4,0.9,0.5
		c0.2,0.1,0.3,0.2,0.3,0.2L458.1,384.6z"/>
</g>
<g id="XMLID_146_">
	<line id="XMLID_229_" class="st1" x1="449.8" y1="380.6" x2="443.1" y2="372.8"/>
	<path id="XMLID_228_" class="st1" d="M449.6,380.8c0,0-0.1,0-0.3,0.1c-0.2,0.1-0.5,0.2-0.8,0.2c-0.3,0.1-0.7,0.2-1,0.2
		c-0.4,0.1-0.8,0.1-1.2,0.2c-0.8,0.1-1.6,0-2.3-0.2c-0.7-0.2-1.2-0.6-1.7-1c-0.4-0.5-0.7-1.1-0.8-1.8c-0.1-0.7-0.1-1.5,0.1-2.3
		c0.1-0.4,0.2-0.8,0.3-1.2c0.1-0.3,0.3-0.7,0.4-1c0.1-0.3,0.3-0.6,0.3-0.7c0.1-0.2,0.1-0.3,0.1-0.3l0.5-0.4c0,0,0.1,0.1,0.3,0.3
		c0.2,0.2,0.5,0.5,0.8,0.8c0.3,0.3,0.7,0.7,1.1,1.2c0.4,0.4,0.8,0.9,1.3,1.4c0.4,0.5,0.8,1,1.2,1.5c0.4,0.5,0.7,0.9,1,1.3
		c0.3,0.4,0.5,0.7,0.7,1c0.2,0.2,0.3,0.4,0.3,0.4L449.6,380.8z"/>
</g>
<g id="XMLID_148_">
	<path id="XMLID_226_" d="M527.6,384c0,0,0-0.1,0-0.3c0-0.2,0-0.5,0-0.8c0-0.3,0-0.7,0-1c0-0.4,0.1-0.8,0.1-1.2
		c0.1-0.8,0.4-1.5,0.7-2c0.3-0.6,0.8-1,1.3-1.2c0.5-0.2,1.1-0.3,1.8-0.1c0.6,0.1,1.3,0.4,2,0.8c0.3,0.2,0.7,0.5,0.9,0.7
		c0.3,0.2,0.6,0.5,0.8,0.7c0.2,0.2,0.4,0.4,0.6,0.6c0.1,0.1,0.2,0.2,0.2,0.2l0.2,0.5c0,0-0.1,0.1-0.3,0.2c-0.2,0.1-0.5,0.3-0.9,0.5
		c-0.4,0.2-0.8,0.5-1.3,0.7c-0.5,0.2-1,0.5-1.5,0.7c-0.5,0.2-1.1,0.4-1.6,0.6c-0.5,0.2-1,0.4-1.4,0.5c-0.4,0.2-0.8,0.2-1,0.3
		c-0.2,0.1-0.4,0.1-0.4,0.1L527.6,384z"/>
</g>
<g id="XMLID_147_">
	<path id="XMLID_224_" d="M536,380.4c0,0,0-0.1-0.1-0.3c-0.1-0.2-0.2-0.5-0.3-0.7c-0.1-0.3-0.3-0.7-0.4-1c-0.1-0.4-0.3-0.8-0.3-1.2
		c-0.2-0.8-0.2-1.6-0.1-2.3c0.1-0.7,0.4-1.3,0.8-1.8c0.4-0.5,1-0.8,1.7-1c0.7-0.2,1.5-0.3,2.3-0.2c0.4,0,0.8,0.1,1.2,0.2
		c0.4,0,0.7,0.2,1,0.2c0.3,0.1,0.6,0.2,0.8,0.2c0.2,0.1,0.3,0.1,0.3,0.1l0.5,0.4c0,0-0.1,0.1-0.3,0.4c-0.2,0.2-0.4,0.6-0.7,1
		c-0.3,0.4-0.6,0.8-1,1.3c-0.4,0.5-0.8,1-1.2,1.5c-0.4,0.5-0.9,1-1.3,1.4c-0.4,0.4-0.8,0.8-1.1,1.2c-0.3,0.3-0.6,0.6-0.9,0.8
		c-0.2,0.2-0.3,0.3-0.3,0.3L536,380.4z"/>
</g>
<g id="XMLID_149_">
	<line id="XMLID_222_" class="st1" x1="492.5" y1="438.3" x2="482.1" y2="432.4"/>
	<path id="XMLID_221_" class="st1" d="M492.4,438.6c0,0-0.1,0.1-0.3,0.2c-0.2,0.1-0.4,0.3-0.7,0.5c-0.3,0.2-0.6,0.4-1,0.5
		c-0.4,0.2-0.8,0.4-1.2,0.5c-0.8,0.3-1.6,0.4-2.4,0.4c-0.8,0-1.5-0.2-2.2-0.6c-0.6-0.4-1.2-0.9-1.6-1.6c-0.4-0.7-0.7-1.5-0.9-2.3
		c-0.1-0.4-0.1-0.9-0.2-1.2c-0.1-0.4,0-0.8-0.1-1.1c0-0.3,0-0.6,0-0.8c0-0.2,0-0.3,0-0.3l0.3-0.5c0,0,0.2,0.1,0.5,0.2
		c0.3,0.1,0.7,0.3,1.2,0.6c0.5,0.3,1.1,0.5,1.7,0.9c0.6,0.3,1.3,0.7,1.9,1c0.6,0.4,1.3,0.8,1.9,1.1c0.6,0.4,1.1,0.7,1.6,1
		c0.5,0.3,0.9,0.6,1.1,0.8c0.3,0.2,0.4,0.3,0.4,0.3L492.4,438.6z"/>
</g>
<g id="XMLID_150_">
	<line id="XMLID_219_" class="st1" x1="482.1" y1="432.4" x2="484.7" y2="426.8"/>
	<path id="XMLID_218_" class="st1" d="M481.8,432.3c0,0-0.1-0.1-0.2-0.2c-0.1-0.1-0.4-0.3-0.6-0.5c-0.2-0.2-0.5-0.4-0.7-0.7
		c-0.2-0.2-0.5-0.5-0.7-0.8c-0.5-0.5-0.8-1.1-1-1.5c-0.2-0.5-0.2-0.9-0.1-1.3c0.2-0.3,0.5-0.6,1-0.8c0.5-0.2,1.1-0.2,1.8-0.2
		c0.3,0,0.7,0,1.1,0.1c0.3,0,0.7,0.1,1,0.1c0.3,0,0.6,0.1,0.7,0.1c0.2,0,0.3,0.1,0.3,0.1l0.5,0.3c0,0,0,0.1-0.1,0.3
		c0,0.2-0.1,0.4-0.2,0.7c-0.1,0.3-0.2,0.6-0.3,0.9c-0.1,0.3-0.3,0.7-0.4,1c-0.2,0.3-0.3,0.7-0.5,1c-0.2,0.3-0.4,0.6-0.5,0.9
		c-0.1,0.3-0.3,0.4-0.4,0.6c-0.1,0.1-0.2,0.2-0.2,0.2L481.8,432.3z"/>
</g>
<g id="XMLID_151_">
	<line id="XMLID_216_" class="st1" x1="484.7" y1="426.8" x2="492.5" y2="429.6"/>
	<path id="XMLID_215_" class="st1" d="M484.8,426.5c0,0,0.1-0.1,0.2-0.2c0.1-0.1,0.3-0.4,0.5-0.6c0.2-0.2,0.5-0.5,0.7-0.7
		c0.3-0.3,0.6-0.5,0.8-0.8c0.6-0.5,1.2-0.8,1.8-1c0.6-0.2,1.1-0.2,1.6,0c0.5,0.2,0.9,0.5,1.2,1.1c0.3,0.5,0.6,1.2,0.7,1.9
		c0.1,0.4,0.1,0.8,0.2,1.1c0.1,0.3,0.1,0.7,0.1,1c0,0.3,0,0.6,0,0.8c0,0.2,0,0.3,0,0.3l-0.2,0.6c0,0-0.1,0-0.4-0.1
		c-0.2-0.1-0.6-0.1-0.9-0.2c-0.4-0.1-0.8-0.2-1.3-0.4c-0.5-0.2-1-0.3-1.5-0.5c-0.5-0.2-1-0.4-1.4-0.5c-0.5-0.2-0.9-0.4-1.2-0.5
		c-0.4-0.2-0.6-0.3-0.9-0.4c-0.2-0.1-0.3-0.2-0.3-0.2L484.8,426.5z"/>
</g>
<g id="XMLID_154_">
	<path id="XMLID_213_" d="M493.8,438c0,0,0-0.1,0-0.3c0-0.2,0-0.5,0-0.8c0-0.3,0-0.7,0.1-1.1c0-0.4,0.1-0.8,0.2-1.3
		c0.2-0.8,0.5-1.6,0.9-2.3c0.4-0.7,1-1.2,1.6-1.6c0.7-0.4,1.4-0.6,2.2-0.6c0.8,0,1.6,0.1,2.4,0.4c0.4,0.1,0.8,0.3,1.2,0.5
		c0.3,0.1,0.7,0.4,1,0.5c0.3,0.1,0.5,0.4,0.7,0.5c0.2,0.1,0.3,0.2,0.3,0.2l0.3,0.5c0,0-0.2,0.1-0.4,0.3c-0.3,0.2-0.6,0.5-1.1,0.8
		c-0.5,0.3-1,0.7-1.6,1c-0.6,0.4-1.3,0.7-1.9,1.1c-0.7,0.4-1.3,0.7-1.9,1.1c-0.6,0.3-1.2,0.6-1.7,0.9c-0.5,0.3-0.9,0.4-1.2,0.6
		c-0.3,0.1-0.5,0.2-0.5,0.2L493.8,438z"/>
</g>
<g id="XMLID_153_">
	<path id="XMLID_211_" d="M504.2,432.5c0,0-0.1,0-0.3,0.1c-0.2,0-0.5,0.1-0.8,0.1c-0.3,0-0.7,0.1-1,0.1c-0.3,0-0.7,0.1-1.1,0.1
		c-0.7,0-1.3-0.1-1.8-0.2c-0.5-0.2-0.8-0.4-1-0.8c-0.1-0.4-0.2-0.8,0.1-1.3c0.2-0.5,0.6-1,1-1.6c0.2-0.3,0.5-0.5,0.7-0.8
		c0.2-0.2,0.5-0.5,0.7-0.7c0.2-0.2,0.5-0.4,0.6-0.5c0.1-0.1,0.2-0.2,0.2-0.2l0.5-0.3c0,0,0.1,0.1,0.2,0.2c0.1,0.1,0.3,0.3,0.4,0.6
		c0.1,0.3,0.3,0.5,0.5,0.9c0.2,0.3,0.3,0.7,0.5,1c0.1,0.4,0.3,0.7,0.4,1c0.1,0.3,0.2,0.7,0.3,0.9c0.1,0.3,0.1,0.5,0.2,0.7
		c0,0.2,0.1,0.3,0.1,0.3L504.2,432.5z"/>
</g>
<g id="XMLID_152_">
	<path id="XMLID_209_" d="M502,427.1c0,0,0,0.1,0,0.3c0,0.2,0,0.5,0,0.8c0,0.3,0,0.7-0.1,1c0,0.4-0.1,0.8-0.2,1.1
		c-0.2,0.7-0.4,1.4-0.7,1.9c-0.3,0.5-0.8,0.9-1.3,1.1c-0.5,0.2-1,0.2-1.6,0c-0.6-0.2-1.2-0.6-1.8-1c-0.3-0.2-0.6-0.5-0.8-0.8
		c-0.2-0.2-0.5-0.5-0.7-0.7c-0.2-0.2-0.4-0.5-0.5-0.6c-0.1-0.1-0.2-0.2-0.2-0.2l-0.2-0.6c0,0,0.1-0.1,0.3-0.2
		c0.2-0.1,0.5-0.3,0.9-0.4c0.4-0.2,0.8-0.4,1.2-0.5c0.5-0.2,0.9-0.4,1.4-0.5c0.5-0.2,1-0.3,1.5-0.5c0.5-0.2,0.9-0.3,1.3-0.4
		c0.4-0.1,0.7-0.2,0.9-0.2c0.2,0,0.4-0.1,0.4-0.1L502,427.1z"/>
</g>
<g id="XMLID_155_">
	<path id="XMLID_207_" d="M493.3,332c0,0,0.1,0.1,0.3,0.6c0.2,0.5,0.5,1.2,0.7,2.1c0.3,1,0.6,2.1,0.9,3.4c0.3,1.3,0.7,2.8,1,4.5
		c0.6,3.3,1.2,7.1,1.6,11.2c0.1,1,0.2,2.1,0.2,3.1c0.1,1.1,0.1,2.1,0.2,3.2c0.1,2.2,0.1,4.4,0.2,6.5c0,2.2,0,4.4-0.2,6.5
		c0,1.1-0.1,2.2-0.2,3.2c-0.1,1.1-0.1,2.1-0.2,3.1c-0.4,4.1-0.9,8-1.6,11.2c-0.3,1.6-0.7,3.2-1,4.5c-0.3,1.3-0.7,2.5-0.9,3.5
		c-0.3,1-0.6,1.8-0.7,2.3c-0.2,0.5-0.3,0.9-0.3,0.9h-0.6c0,0,0-1.2-0.1-3.1c0-1.9-0.1-4.7-0.1-8c0-6.6-0.1-15.4-0.1-24.2
		c0.1-8.8,0.1-17.6,0.1-24.1c0-3.3,0.1-5.9,0.1-7.8c0-1.9,0.1-2.8,0.1-2.8H493.3z"/>
</g>
</svg>
