<?xml version="1.0" encoding="utf-8"?>
<!-- Generator: Adobe Illustrator 19.0.0, SVG Export Plug-In . SVG Version: 6.00 Build 0)  -->
<svg version="1.1" id="Layer_1" xmlns="http://www.w3.org/2000/svg" xmlns:xlink="http://www.w3.org/1999/xlink" x="0px" y="0px"
	 viewBox="0 0 640 480" style="enable-background:new 0 0 640 480;" xml:space="preserve">
<style type="text/css">
	.st0{fill:none;stroke:#FFFFFF;stroke-width:3;stroke-miterlimit:10;}
	.st1{fill:#FFFFFF;}
	.st2{fill:none;stroke:#000000;stroke-width:3;stroke-miterlimit:10;}
</style>
<g id="XMLID_3_">
	<g>
		<g id="XMLID_629_">
			<path id="XMLID_630_" class="st0" d="M290.6,371.8c9.8,3,19.6,6.6,29.4,11"/>
		</g>
	</g>
</g>
<g id="XMLID_15_">
	<g>
		<path id="XMLID_628_" class="st1" d="M290.4,371.1c0,0-0.1-0.3-0.1-0.7c0-0.2-0.1-0.5-0.1-0.7c0-0.3,0-0.5,0-0.8
			c0-0.3-0.1-0.5-0.1-0.8c0.1-0.2,0.3-0.4,0.6-0.5c0.3-0.1,0.5-0.3,0.8-0.3c0.2,0,0.4-0.1,0.4-0.1c0.1,0,0.2,0,0.3,0.1
			c0,0,0.1,0.1,0.3,0.3c0.2,0.2,0.3,0.4,0.5,0.7c0.1,0.3,0.2,0.5,0.1,0.9c-0.1,0.2-0.4,0.4-0.6,0.6c-0.2,0.2-0.4,0.5-0.6,0.7
			c-0.2,0.2-0.4,0.4-0.6,0.4c-0.3,0.3-0.6,0.4-0.6,0.4C290.6,371.2,290.5,371.2,290.4,371.1z"/>
	</g>
</g>
<g id="XMLID_17_">
	<g>
		<path id="XMLID_621_" class="st1" d="M275.4,324c0,0,1.2,2.2,3,5.8c1.8,3.6,4.1,8.7,6.4,14.4c0.6,1.4,1.2,2.9,1.8,4.3
			c0.6,1.5,1.2,2.9,1.7,4.3c0.5,1.4,0.9,2.8,1.3,4.3c0.4,1.3,0.7,2.7,1,3.9c1.2,5,1.6,8.5,1.6,8.5c-0.1,0-0.2,0-0.3,0
			c0,0-1.7-3.3-3.6-8c-0.5-1.1-1-2.4-1.5-3.7c-0.5-1.3-1-2.7-1.5-4.1c-0.5-1.4-0.9-2.8-1.4-4.4c-0.5-1.4-0.9-2.9-1.4-4.3
			c-1.9-5.7-3.8-10.9-5.1-14.7c-1.4-3.7-2.3-6.1-2.3-6.1C275.2,324.2,275.3,324.1,275.4,324z"/>
	</g>
</g>
<g id="XMLID_19_">
	<g>
		<path id="XMLID_599_" class="st1" d="M275.2,321.2c0,0,0.1-0.7,0.3-1.7c0.1-0.5,0.2-1.1,0.4-1.7c0.1-0.6,0.3-1.3,0.5-2.1
			c0.2-0.7,0.2-1.4,0.5-2.1c0.2-0.7,0.6-1.2,1-1.8c0.4-0.6,0.8-1,1.1-1.3c0.3-0.3,0.5-0.4,0.5-0.4c0.1,0,0.2,0,0.3,0
			c0,0,0.1,0.2,0.2,0.6c0.1,0.4,0.1,1,0.1,1.6c0,0.7-0.1,1.4-0.4,2.1c-0.3,0.8-0.8,1.4-1.1,2.1c-0.4,0.7-0.7,1.3-1.1,2
			c-0.4,0.6-0.7,1.1-1,1.5c-0.6,0.8-1,1.3-1,1.3C275.4,321.4,275.3,321.3,275.2,321.2z"/>
	</g>
</g>
<g id="XMLID_21_">
	<g>
		<path id="XMLID_595_" class="st1" d="M278.5,310.8c0,0-0.2-1.8-0.4-4.3c-0.1-1.2-0.2-2.6-0.3-4.1c-0.1-1.4-0.2-3-0.3-4.4
			c-0.1-0.7-0.1-1.5-0.2-2.2c-0.1-0.7-0.1-1.4-0.2-2c0-0.7,0-1.3,0.1-2c0.1-0.7,0.1-1.3,0.3-2c0.4-2.4,1.1-4.6,1.1-4.7
			c0.1-0.1,0.2-0.2,0.3-0.2c0,0,0.7,1.2,1.1,3.5c0.1,0.6,0.2,1.3,0.3,2c0.1,0.7,0.1,1.5,0.1,2.4c0,0.9-0.1,1.7-0.2,2.6
			c-0.1,0.9-0.1,1.7-0.2,2.6c-0.1,1.7-0.2,3.4-0.3,5c-0.1,1.6-0.2,3.1-0.3,4.3c-0.2,2.4-0.4,3.9-0.4,3.9
			C278.8,311.1,278.7,310.9,278.5,310.8z"/>
	</g>
</g>
<g id="XMLID_12_">
	<g>
		<g id="XMLID_590_">
			<path id="XMLID_594_" class="st2" d="M350.7,370.8c-9.9,4.4-19.7,8-29.6,11"/>
		</g>
	</g>
</g>
<g id="XMLID_11_">
	<g>
		<path id="XMLID_554_" d="M350.5,371.5c0,0-0.3-0.3-0.6-0.6c-0.2-0.2-0.4-0.3-0.6-0.6c-0.2-0.2-0.4-0.4-0.6-0.7
			c-0.2-0.2-0.5-0.4-0.6-0.6c-0.1-0.2,0-0.4,0.1-0.7c0.1-0.3,0.3-0.5,0.5-0.7c0.2-0.2,0.3-0.3,0.3-0.3c0.1,0,0.2-0.1,0.3-0.1
			c0,0,0.2,0,0.4-0.1c0.3,0,0.5,0,0.8,0.1c0.3,0.1,0.5,0.3,0.6,0.5c0.1,0.3-0.1,0.7-0.1,1c0,0.3,0,0.7,0,1c0,0.3-0.1,0.6-0.1,0.9
			c0,0.5-0.1,0.9-0.1,0.9C350.7,371.5,350.6,371.5,350.5,371.5z"/>
	</g>
</g>
<g id="XMLID_10_">
	<g>
		<path id="XMLID_549_" d="M366.1,319.6c0,0-0.9,3.5-2.3,8.3c-1.3,4.9-3.3,11.2-5.2,16.9c-0.5,1.4-0.9,2.9-1.4,4.3
			c-0.4,1.4-0.9,2.7-1.4,4c-0.5,1.2-1,2.4-1.5,3.5c-0.5,1.1-1,2-1.5,2.9c-1.9,3.5-3.6,5.4-3.6,5.4c-0.1-0.1-0.2-0.1-0.3-0.2
			c0,0,0.4-2.6,1.6-6.5c0.3-1,0.6-2,1-3.1c0.4-1.1,0.8-2.2,1.3-3.5c0.5-1.2,1.1-2.5,1.7-3.7c0.6-1.3,1.2-2.7,1.8-4.1
			c2.3-5.5,4.6-11.6,6.4-16.4c1.8-4.8,3-8.2,3-8.2C365.8,319.5,366,319.6,366.1,319.6z"/>
	</g>
</g>
<g id="XMLID_9_">
	<g>
		<path id="XMLID_545_" d="M365.8,322.4c0,0-0.4-0.8-1-1.9c-0.3-0.6-0.7-1.2-1-1.9c-0.4-0.6-0.7-1.3-1.1-2c-0.4-0.7-0.9-1.2-1.1-1.9
			c-0.3-0.6-0.3-1.2-0.4-1.7c0-0.5,0-1,0.1-1.4c0.1-0.4,0.2-0.6,0.2-0.6c0.1-0.1,0.2-0.1,0.3-0.2c0,0,0.2,0,0.5,0.2
			c0.3,0.1,0.7,0.4,1.1,0.7c0.4,0.4,0.8,0.9,1,1.6c0.2,0.7,0.3,1.5,0.5,2.3c0.2,0.7,0.4,1.6,0.5,2.3c0.2,0.8,0.3,1.5,0.4,2.1
			c0.2,1.2,0.3,2.1,0.3,2.1C366,322.3,365.9,322.4,365.8,322.4z"/>
	</g>
</g>
<g id="XMLID_2_">
	<g>
		<path id="XMLID_542_" d="M360.7,310.8c0,0-0.2-1.8-0.4-4.3c-0.1-1.2-0.2-2.6-0.3-4.1c-0.1-1.4-0.2-3-0.3-4.4
			c-0.1-0.7-0.1-1.5-0.2-2.2c-0.1-0.7-0.1-1.4-0.2-2c0-0.7,0-1.3,0.1-2c0.1-0.7,0.1-1.3,0.3-2c0.4-2.4,1.1-4.6,1.1-4.7
			c0.1-0.1,0.2-0.2,0.3-0.2c0,0,0.7,1.2,1.1,3.5c0.1,0.6,0.2,1.3,0.3,2c0.1,0.7,0.1,1.5,0.1,2.4c0,0.9-0.1,1.7-0.2,2.6
			c-0.1,0.9-0.1,1.7-0.2,2.6c-0.1,1.7-0.2,3.4-0.3,5c-0.1,1.6-0.2,3.1-0.3,4.3c-0.2,2.4-0.4,3.9-0.4,3.9
			C361,311.1,360.9,310.9,360.7,310.8z"/>
	</g>
</g>
<g id="XMLID_23_">
	<g>
		<path id="XMLID_583_" class="st1" d="M279.3,286.3c0,0-0.5-0.5-1.1-1.2c-0.3-0.3-0.7-0.8-1.1-1.2c-0.4-0.4-0.8-0.9-1.2-1.3
			c-0.4-0.5-0.9-0.8-1.3-1.2c-0.3-0.5-0.5-0.9-0.5-1.3c-0.1-0.4-0.1-0.8,0-1.2c0-0.3,0.1-0.6,0.1-0.6c0.1-0.1,0.2-0.1,0.3-0.2
			c0,0,0.2,0,0.6,0c0.3,0.1,0.7,0.2,1.2,0.3c0.4,0.2,0.8,0.5,1.1,1c0.3,0.5,0.4,1.1,0.7,1.7c0.2,0.6,0.5,1.1,0.7,1.8
			c0.2,0.5,0.4,1.1,0.6,1.6c0.3,1,0.5,1.7,0.5,1.7C279.7,286.2,279.5,286.3,279.3,286.3z"/>
	</g>
</g>
<g id="XMLID_24_">
	<g>
		<path id="XMLID_580_" class="st1" d="M274.2,277.9c0,0-1.2,0.4-3.1,0.9c-0.9,0.2-2,0.5-3.2,0.7c-1.2,0.3-2.4,0.5-3.7,0.8
			c-1.3,0.2-2.5,0.7-3.7,0.7c-1.2,0.1-2.3,0.1-3.3-0.1c-1-0.1-1.8-0.2-2.4-0.4c-0.6-0.1-0.9-0.3-0.9-0.3c0-0.1,0-0.2,0-0.3
			c0,0,0.3-0.2,0.8-0.4s1.3-0.5,2.2-0.8c0.9-0.3,2-0.6,3.2-0.8c1.2-0.1,2.5,0,3.8-0.2c1.3-0.1,2.6-0.1,3.8-0.2c1.2,0,2.3,0,3.3-0.2
			c1.9,0,3.2-0.1,3.2-0.1C274.2,277.6,274.2,277.7,274.2,277.9z"/>
	</g>
</g>
<g id="XMLID_25_">
	<g>
		<path id="XMLID_566_" class="st1" d="M253.9,281.2c0,0-1.3-1-3.2-2.4c-0.9-0.7-2.1-1.5-3.2-2.3c-1.2-0.9-2.4-1.7-3.7-2.6
			c-1.2-0.9-2.6-1.6-3.7-2.3c-1.1-0.8-2-1.7-2.8-2.4c-0.8-0.8-1.3-1.4-1.7-1.9c-0.4-0.5-0.6-0.8-0.6-0.8c0.1-0.1,0.1-0.1,0.2-0.2
			c0,0,0.4,0.1,1,0.2c0.7,0.1,1.5,0.4,2.5,0.8c1,0.4,2.1,1,3.2,1.8c1.1,0.8,2.1,1.9,3.2,2.9c1.1,1,2.2,2,3.3,3.1c1,1,2,2.1,2.8,2.8
			c1.6,1.7,2.7,3,2.7,3C253.9,281.1,253.9,281.2,253.9,281.2z"/>
	</g>
</g>
<g id="XMLID_26_">
	<g>
		<path id="XMLID_560_" class="st1" d="M235,264.2c0,0,1-0.8,2.5-2c0.8-0.6,1.6-1.4,2.6-2.3c0.9-0.8,2-1.7,3-2.7c1-0.9,2-2,3-2.9
			c1-0.9,2.1-1.6,3-2.1c0.9-0.6,1.8-1,2.4-1.2c0.6-0.3,1-0.4,1-0.4c0.1,0.1,0.1,0.1,0.2,0.2c0,0-0.2,0.5-0.5,1
			c-0.3,0.7-0.9,1.5-1.6,2.4c-0.7,0.9-1.6,1.9-2.6,2.7c-1,0.9-2.3,1.5-3.4,2.3c-1.2,0.8-2.3,1.6-3.4,2.2c-1.1,0.6-2.1,1.3-3,1.7
			c-1.8,0.9-3,1.4-3,1.4C235.1,264.4,235.1,264.3,235,264.2z"/>
	</g>
</g>
<g id="XMLID_27_">
	<g>
		<path id="XMLID_557_" class="st1" d="M253.3,251.8c0,0,2.6,0.5,6.4,1.5c3.9,0.9,9,2.3,14.1,3.7c1.3,0.4,2.6,0.7,3.8,1.1
			c1.3,0.3,2.5,0.7,3.7,1.1c1.2,0.4,2.3,0.8,3.4,1.4c1.1,0.4,2.1,1,3,1.4c3.7,1.8,6,3.5,6,3.5c0,0.1-0.1,0.2-0.1,0.3
			c0,0-2.7-0.3-6.6-1.5c-1-0.2-2-0.6-3.1-0.9c-1.1-0.3-2.3-0.8-3.4-1.2c-1.2-0.4-2.4-1-3.6-1.5c-1.2-0.5-2.5-1-3.7-1.5
			c-5-1.9-10-3.7-13.7-5.1c-3.7-1.3-6.2-2.1-6.2-2.1C253.3,251.9,253.3,251.9,253.3,251.8z"/>
	</g>
</g>
<g id="XMLID_32_">
	<g>
		<path id="XMLID_537_" d="M361.4,285.4c0,0,0.2-0.5,0.5-1.3c0.2-0.4,0.3-0.8,0.6-1.4c0.2-0.5,0.5-1,0.7-1.6
			c0.3-0.6,0.4-1.2,0.7-1.7c0.3-0.5,0.7-0.9,1.1-1.2c0.4-0.4,0.8-0.6,1.2-0.7c0.3-0.1,0.6-0.2,0.6-0.2c0.1,0.1,0.2,0.1,0.3,0.2
			c0,0,0.1,0.2,0.1,0.6c0,0.3,0,0.9,0,1.4c-0.1,0.6-0.2,1.1-0.5,1.7c-0.3,0.5-0.9,0.9-1.3,1.4c-0.4,0.4-0.8,0.9-1.2,1.3
			c-0.4,0.4-0.8,0.7-1.1,1c-0.7,0.5-1.1,0.8-1.1,0.8C361.8,285.6,361.6,285.5,361.4,285.4z"/>
	</g>
</g>
<g id="XMLID_31_">
	<g>
		<path id="XMLID_533_" d="M366.8,277.9c0,0,1.3,0,3.2-0.1c1,0,2.1,0,3.3,0c1.2,0,2.5,0.1,3.8,0c1.3,0.1,2.6,0,3.8,0
			c1.2,0.1,2.3,0.4,3.2,0.8c0.9,0.3,1.7,0.7,2.2,1c0.5,0.3,0.8,0.6,0.8,0.6c0,0.1,0,0.2,0,0.3c0,0-0.3,0.1-0.9,0.3
			c-0.6,0.2-1.4,0.3-2.4,0.4c-1,0.1-2.1,0.1-3.3-0.1c-1.2-0.2-2.4-0.7-3.7-0.9c-1.3-0.3-2.5-0.5-3.7-0.8c-1.2-0.3-2.3-0.5-3.2-0.7
			c-1.9-0.4-3.1-0.7-3.1-0.7C366.8,278.1,366.8,278,366.8,277.9z"/>
	</g>
</g>
<g id="XMLID_30_">
	<g>
		<path id="XMLID_529_" d="M387,279.6c0,0,1.1-0.9,2.7-2.2c0.8-0.7,1.8-1.5,2.8-2.4c1-0.9,2.2-1.9,3.3-2.9c1.1-1,2.2-2.1,3.2-3.1
			c1.1-1,2.2-1.7,3.2-2.4c1-0.6,1.9-1.1,2.6-1.4c0.6-0.3,1.1-0.4,1.1-0.4c0.1,0.1,0.1,0.1,0.2,0.2c0,0-0.2,0.5-0.6,1
			c-0.4,0.7-1,1.5-1.7,2.5c-0.8,0.9-1.7,2-2.8,2.8c-1.1,0.9-2.5,1.7-3.7,2.5c-1.2,0.8-2.5,1.7-3.7,2.4c-1.2,0.7-2.3,1.3-3.2,1.9
			c-1.9,1-3.2,1.6-3.2,1.6C387.1,279.7,387.1,279.6,387,279.6z"/>
	</g>
</g>
<g id="XMLID_29_">
	<g>
		<path id="XMLID_525_" d="M405.9,265.8c0,0-1.2-0.9-3-2.2c-0.9-0.7-1.9-1.4-3-2.1c-1.1-0.8-2.3-1.6-3.4-2.4
			c-1.1-0.8-2.4-1.4-3.4-2.1c-1-0.7-1.9-1.6-2.6-2.3c-0.7-0.7-1.2-1.3-1.6-1.8c-0.3-0.4-0.5-0.8-0.5-0.8c0.1-0.1,0.1-0.1,0.2-0.2
			c0,0,0.4,0.1,1,0.2c0.6,0.1,1.4,0.4,2.4,0.8c0.9,0.4,2,0.9,3,1.7c1,0.7,2,1.8,3,2.7c1,0.9,2.1,1.9,3,2.9c1,1,1.8,1.8,2.6,2.7
			c1.5,1.6,2.5,2.8,2.5,2.8C406,265.6,406,265.7,405.9,265.8z"/>
	</g>
</g>
<g id="XMLID_28_">
	<g>
		<path id="XMLID_468_" d="M387.9,250.7c0,0-2.5,1.2-6.3,2.9c-3.8,1.7-8.9,3.7-13.9,5.7c-1.3,0.5-2.5,1-3.8,1.5
			c-1.2,0.5-2.5,0.9-3.7,1.3c-1.2,0.4-2.4,0.7-3.5,1c-1.1,0.3-2.2,0.5-3.2,0.7c-4,0.7-6.8,0.8-6.8,0.8c0-0.1-0.1-0.2-0.1-0.3
			c0,0,2.4-1.3,6.1-2.7c0.9-0.4,2-0.7,3-1.2c1.1-0.4,2.2-0.8,3.4-1.2c1.2-0.4,2.5-0.7,3.8-1.1c1.3-0.4,2.6-0.7,3.9-1.1
			c5.2-1.5,10.4-3.2,14.4-4.5c3.9-1.3,6.6-2.1,6.6-2.1C387.8,250.5,387.9,250.6,387.9,250.7z"/>
	</g>
</g>
<g id="XMLID_41_">
	<g>
		<path id="XMLID_461_" class="st1" d="M239.7,236.8"/>
	</g>
</g>
<g id="XMLID_40_">
	<g>
		<path id="XMLID_450_" class="st1" d="M250.6,251.3"/>
	</g>
</g>
<g id="XMLID_116_">
	<g>
		<path id="XMLID_437_" class="st1" d="M239.7,236.8"/>
	</g>
</g>
<g id="XMLID_115_">
</g>
<g id="XMLID_35_">
</g>
<g id="XMLID_34_">
</g>
<g id="XMLID_114_">
</g>
<g id="XMLID_110_">
	<g>
		<path id="XMLID_432_" class="st1" d="M307.1,251.3"/>
	</g>
</g>
<g id="XMLID_38_">
</g>
<g id="XMLID_112_">
</g>
<g id="XMLID_37_">
</g>
<g id="XMLID_36_">
</g>
<g id="XMLID_71_">
</g>
<g id="XMLID_111_">
</g>
<g id="XMLID_33_">
	<g>
		<path id="XMLID_521_" class="st1" d="M239.6,262.1c0,0-1.8-1.2-4.4-3.1c-1.3-0.9-2.9-1.9-4.5-3c-1.6-1.1-3.4-2.2-5.1-3.3
			c-0.9-0.5-1.8-1.1-2.6-1.6c-0.9-0.5-1.7-1-2.5-1.5c-0.8-0.6-1.5-1-2.2-1.6c-0.7-0.5-1.3-1-1.9-1.4c-2.3-1.9-3.6-3.3-3.6-3.3
			c0.1-0.1,0.1-0.1,0.2-0.2c0,0,2.1,0.4,4.8,1.6c0.7,0.3,1.4,0.7,2.2,1c0.8,0.3,1.5,0.8,2.3,1.3c0.8,0.6,1.6,1.1,2.3,1.7
			c0.8,0.6,1.6,1.3,2.4,1.9c1.6,1.3,3.2,2.5,4.7,3.8c1.5,1.3,2.9,2.5,4.1,3.6c2.4,2.1,4,3.7,4,3.7
			C239.7,261.9,239.7,262,239.6,262.1z"/>
	</g>
</g>
<g id="XMLID_42_">
	<g>
		<path id="XMLID_519_" class="st1" d="M212.9,242.7c0,0-1.9,0-4.6-0.2c-1.4,0-3,0-4.7-0.2c-1.7,0-3.6-0.1-5.4-0.3
			c-0.9,0-1.8-0.1-2.8-0.1c-0.9,0-1.8,0-2.7-0.1c-0.9-0.1-1.7-0.2-2.5-0.3c-0.8-0.1-1.5-0.3-2.2-0.5c-2.7-0.6-4.5-1.4-4.5-1.4
			c0-0.1,0-0.2,0-0.3c0,0,1.9-0.5,4.7-0.6c0.7,0,1.5-0.1,2.2,0c0.8,0,1.6,0,2.5,0.1c0.9,0.1,1.7,0.2,2.6,0.4
			c0.9,0.2,1.8,0.3,2.7,0.5c1.8,0.3,3.7,0.5,5.4,0.8c1.7,0.3,3.3,0.6,4.7,0.9c2.7,0.5,4.6,0.9,4.6,0.9
			C212.9,242.4,212.9,242.5,212.9,242.7z"/>
	</g>
</g>
<g id="XMLID_43_">
	<g>
		<path id="XMLID_517_" class="st1" d="M183.4,240.2c0,0-1-0.6-2.5-1.6c-0.7-0.5-1.6-1-2.5-1.6c-0.9-0.5-1.9-1.2-2.8-1.7
			c-0.9-0.6-2-1-2.8-1.6c-0.8-0.6-1.5-1.2-2.1-1.7c-0.5-0.6-1-1.1-1.2-1.5c-0.3-0.4-0.4-0.7-0.4-0.7c0.1-0.1,0.1-0.1,0.2-0.2
			c0,0,0.3,0,0.8,0c0.5,0.1,1.2,0.2,2,0.4c0.8,0.2,1.7,0.7,2.5,1.2c0.8,0.5,1.6,1.4,2.4,2.1c0.8,0.7,1.7,1.4,2.4,2.3
			c0.8,0.7,1.5,1.5,2.1,2.1c1.2,1.2,2,2.2,2,2.2C183.5,240.1,183.4,240.1,183.4,240.2z"/>
	</g>
</g>
<g id="XMLID_44_">
	<g>
		<path id="XMLID_515_" class="st1" d="M169.1,229.8c0,0-0.4-0.9-0.8-2.3c-0.2-0.7-0.5-1.4-0.8-2.1c-0.3-0.7-0.6-1.5-0.9-2.2
			c-0.3-0.8-0.7-1.4-0.9-2c-0.2-0.6-0.2-1.3-0.1-1.9c0.1-0.6,0.2-1.1,0.3-1.5c0.1-0.4,0.2-0.6,0.2-0.6c0.1-0.1,0.2-0.1,0.3-0.2
			c0,0,0.2,0.1,0.5,0.3c0.3,0.2,0.6,0.5,1,1c0.3,0.4,0.7,1.1,0.8,1.8c0.2,0.7,0.1,1.7,0.2,2.6c0.1,0.9,0.2,1.7,0.2,2.6
			c0.1,0.9,0.1,1.7,0.1,2.3c0.1,1.3,0.1,2.3,0.1,2.3C169.2,229.9,169.2,229.8,169.1,229.8z"/>
	</g>
</g>
<g id="XMLID_45_">
	<g>
		<path id="XMLID_513_" class="st1" d="M166.3,216.9c0,0,0.6,0.3,1.4,0.8c0.4,0.2,0.9,0.6,1.4,1c0.5,0.4,1,0.7,1.6,1.2
			c0.5,0.4,1.2,0.8,1.6,1.2c0.4,0.5,0.7,1.1,0.9,1.6c0.2,0.6,0.3,1.1,0.3,1.6c0,0.4,0,0.7,0,0.7c-0.1,0.1-0.1,0.1-0.2,0.2
			c0,0-0.2,0-0.6-0.2c-0.4-0.2-0.8-0.3-1.3-0.7c-0.5-0.3-1-0.7-1.4-1.2c-0.4-0.5-0.7-1.2-1.1-1.7c-0.4-0.6-0.8-1.1-1.1-1.6
			c-0.3-0.5-0.6-1-0.9-1.4c-0.5-0.8-0.9-1.3-0.9-1.3C166.1,217,166.2,217,166.3,216.9z"/>
	</g>
</g>
<g id="XMLID_46_">
	<g>
		<path id="XMLID_511_" class="st1" d="M173.6,224.8c0,0,0.5,0.1,1.2,0.3c0.4,0.1,0.8,0.2,1.2,0.3c0.5,0.2,0.9,0.4,1.4,0.5
			c0.5,0.2,1,0.3,1.4,0.5c0.4,0.3,0.6,0.6,0.8,1.1c0.2,0.4,0.3,0.9,0.4,1.2c0.1,0.3,0.1,0.6,0.1,0.6c-0.1,0.1-0.1,0.1-0.2,0.2
			c0,0-0.2,0.1-0.5,0.1c-0.3,0.1-0.7,0.1-1.1-0.1c-0.4-0.1-0.9-0.3-1.3-0.5c-0.4-0.3-0.6-0.8-1-1.1c-0.3-0.4-0.7-0.7-1-1.1
			c-0.3-0.4-0.6-0.6-0.8-0.9c-0.5-0.5-0.8-0.9-0.8-0.9C173.5,225,173.5,224.9,173.6,224.8z"/>
	</g>
</g>
<g id="XMLID_47_">
	<g>
		<path id="XMLID_509_" class="st1" d="M179,230.6c0,0,0.9-0.2,2-0.4c0.6-0.1,1.3-0.2,2-0.3c0.7-0.1,1.5-0.2,2.2-0.3
			c0.8-0.1,1.5-0.3,2.2-0.5c0.7,0,1.4,0.2,1.9,0.4c0.6,0.2,0.9,0.4,1.2,0.7c0.3,0.2,0.4,0.4,0.4,0.4c0,0.1,0,0.2,0,0.3
			c0,0,0,0.2-0.4,0.4c-0.3,0.2-0.7,0.5-1.3,0.7c-0.6,0.2-1.2,0.4-1.9,0.4c-0.7,0-1.4-0.3-2.2-0.5c-0.8-0.1-1.5-0.2-2.2-0.3
			c-0.7-0.1-1.5-0.2-2.1-0.3c-1.1-0.2-2-0.4-2-0.4c0-0.1,0-0.3,0-0.4C178.9,230.6,178.9,230.6,179,230.6z"/>
	</g>
</g>
<g id="XMLID_48_">
	<g>
		<path id="XMLID_507_" class="st1" d="M191.2,232.5c0,0-2.6-3.7-6.5-8.7c-3.9-5.1-9.1-11.7-14.2-17.6c-1.3-1.5-2.6-3-3.9-4.4
			c-1.3-1.4-2.5-2.8-3.7-4c-1.2-1.3-2.3-2.6-3.3-3.8c-1-1.3-2-2.4-2.8-3.4c-3.5-4.2-5.4-7-5.4-7c0.1-0.1,0.1-0.1,0.2-0.2
			c0,0,3,1.9,7.1,5.7c1,0.9,2.1,2,3.2,3.1c1.1,1.2,2.3,2.3,3.5,3.7c1.2,1.3,2.3,2.8,3.5,4.3c1.2,1.5,2.4,3,3.6,4.6
			c4.8,6.3,9.7,13.1,13.2,18.5c3.6,5.4,5.9,9.2,5.9,9.2C191.5,232.4,191.3,232.5,191.2,232.5z"/>
	</g>
</g>
<g id="XMLID_49_">
	<g>
		<path id="XMLID_505_" class="st1" d="M151.2,181.5c0,0-0.3-1-0.8-2.5c-0.2-0.7-0.5-1.6-0.8-2.4c-0.3-0.8-0.5-1.6-0.8-2.5
			c-0.3-0.8-0.7-1.6-0.9-2.3c-0.2-0.7-0.2-1.4-0.1-2.1c0.1-0.7,0.2-1.2,0.3-1.6c0.1-0.4,0.3-0.8,0.3-0.8c0.1-0.1,0.2-0.1,0.3-0.2
			c0,0,0.2,0.1,0.5,0.3c0.3,0.2,0.6,0.6,1,1.1c0.3,0.5,0.6,1.2,0.8,2c0.1,0.8,0.1,1.8,0.2,2.8c0.1,1,0.2,2,0.2,2.8
			c0.1,0.9,0.1,1.8,0.1,2.5c0.1,1.4,0.1,2.4,0.1,2.4C151.5,181.3,151.3,181.4,151.2,181.5z"/>
	</g>
</g>
<g id="XMLID_50_">
	<g>
		<path id="XMLID_503_" class="st1" d="M148.5,166.6c0,0-0.1-0.8-0.2-1.8c0-0.6-0.1-1.1-0.1-1.8c0-0.6,0-1.4-0.1-2
			c0-0.7-0.2-1.3-0.1-2c0.1-0.6,0.3-1.2,0.6-1.9c0.3-0.6,0.6-1.1,0.8-1.5c0.2-0.4,0.4-0.7,0.4-0.7c0.1,0,0.2-0.1,0.3-0.1
			c0,0,0.2,0.1,0.3,0.5c0.2,0.2,0.4,0.7,0.5,1.4c0.1,0.6,0.2,1.3,0.1,2.1c-0.1,0.8-0.4,1.6-0.6,2.3c-0.2,0.7-0.4,1.6-0.6,2.1
			c-0.2,0.7-0.4,1.2-0.6,1.8C148.9,166,148.6,166.6,148.5,166.6C148.6,166.6,148.5,166.6,148.5,166.6z"/>
	</g>
</g>
<g id="XMLID_51_">
	<g>
		<path id="XMLID_501_" class="st1" d="M150.2,155.4c0,0,0.3,0.5,0.6,1.5c0.2,0.4,0.4,1.1,0.6,1.8c0.2,0.7,0.4,1.4,0.6,2.1
			c0.2,0.7,0.5,1.5,0.6,2.3c0.1,0.8,0,1.5-0.1,2.1c-0.1,0.6-0.3,1.1-0.5,1.4c-0.2,0.2-0.3,0.5-0.3,0.5c-0.1,0-0.2-0.1-0.3-0.1
			c0,0-0.2-0.3-0.4-0.7c-0.3-0.4-0.5-0.9-0.8-1.5c-0.3-0.6-0.5-1.2-0.6-1.9c-0.1-0.6,0.1-1.3,0.1-2c0-0.7,0-1.4,0.1-2
			c0-0.6,0.1-1.3,0.1-1.8C150,156.2,150.1,155.4,150.2,155.4C150.1,155.4,150.2,155.4,150.2,155.4z"/>
	</g>
</g>
<g id="XMLID_52_">
	<g>
		<path id="XMLID_499_" class="st1" d="M151.5,167.7c0,0,0.9,0.7,2.3,1.8c0.7,0.6,1.5,1.2,2.3,2c0.8,0.7,1.7,1.7,2.6,2.6
			c0.9,0.9,1.8,1.7,2.6,2.7c0.7,1,1.3,2.1,1.7,3c0.4,1,0.7,1.8,0.9,2.5c0.2,0.7,0.2,1,0.2,1c-0.1,0.1-0.1,0.1-0.2,0.2
			c0,0-0.3-0.1-0.8-0.5c-0.5-0.4-1.2-1-1.9-1.7c-0.7-0.7-1.6-1.6-2.3-2.6c-0.7-1-1.3-2.2-2-3.2c-0.7-1-1.4-2.1-2.1-3
			c-0.7-0.9-1.2-1.7-1.7-2.4c-1-1.4-1.7-2.3-1.7-2.3C151.4,167.7,151.5,167.7,151.5,167.7z"/>
	</g>
</g>
<g id="XMLID_53_">
	<g>
		<path id="XMLID_497_" class="st1" d="M163.8,184c0,0-0.2-3.7-0.6-8.8c-0.4-5.1-0.8-11.5-1.2-17.3c-0.1-1.4-0.2-2.9-0.3-4.2
			c-0.1-1.4-0.2-2.7-0.3-4c0-1.4-0.1-2.5,0-3.8c0-1.2,0.1-2.4,0.1-3.5c0.2-4.4,0.8-8.3,0.8-8.4c0.1-0.2,0.2-0.3,0.3-0.5
			c0,0,0.8,1.7,1.3,6.1c0.1,1.2,0.3,2.3,0.4,3.6c0.1,1.3,0.2,2.8,0.2,4.4c0,1.6,0,3.3,0,5c0,1.6,0,3.4-0.1,5.1
			c0,6.8,0,13.6-0.1,18.6c-0.1,5-0.1,8.3-0.1,8.3C164.1,184.4,163.9,184.2,163.8,184z"/>
	</g>
</g>
<g id="XMLID_54_">
	<g>
		<path id="XMLID_495_" class="st1" d="M162.3,131.2c0,0,1-1.8,2.6-4.6c1.5-2.9,3.7-6.7,5.8-11c0.5-1.1,1-2.2,1.6-3.2
			c0.5-1.1,1-2.2,1.5-3.2c0.5-1.1,1.1-2,1.7-3c0.6-1,1.1-1.9,1.6-2.7c2.1-3.4,3.8-5.6,3.8-5.6c0.1,0,0.2,0,0.3,0.1
			c0,0-0.6,2.8-2,6.5c-0.3,0.9-0.7,1.9-1.2,3c-0.4,1-0.9,2.1-1.5,3.2c-0.6,1.1-1.2,2.2-1.8,3.2c-0.6,1-1.3,2.1-1.9,3.1
			c-2.5,4.1-5,7.9-7,10.5c-1.9,2.6-3.2,4.2-3.2,4.2C162.5,131.5,162.4,131.3,162.3,131.2z"/>
	</g>
</g>
<g id="XMLID_55_">
	<g>
		<path id="XMLID_493_" class="st1" d="M181,99.2c0,0,0.4-0.2,0.9-0.4c0.3-0.2,0.6-0.3,1-0.5c0.3-0.2,0.7-0.3,1.1-0.5
			c0.4-0.1,0.7-0.5,1.1-0.5c0.4-0.1,0.7,0,1.1,0.2c0.3,0.2,0.6,0.3,0.8,0.5c0.2,0.2,0.3,0.3,0.3,0.3c0,0.1,0,0.2,0,0.3
			c0,0-0.1,0.2-0.2,0.4c-0.1,0.2-0.3,0.5-0.6,0.9c-0.3,0.2-0.6,0.5-0.9,0.5c-0.4,0-0.8-0.1-1.2-0.3c-0.4,0-0.8-0.1-1.2-0.1
			c-0.4,0-0.7-0.1-1.1-0.2c-0.6-0.1-1-0.2-1-0.2C181.1,99.4,181,99.3,181,99.2z"/>
	</g>
</g>
<g id="XMLID_56_">
	<g>
		<path id="XMLID_491_" class="st1" d="M187.4,97.2c0,0-0.7,2.1-1.8,5.1c-0.6,1.5-1.2,3.1-1.9,4.9c-0.7,1.7-1.5,3.5-2.3,5.3
			c-0.4,0.9-0.7,1.7-1.1,2.6c-0.4,0.9-0.7,1.7-1.1,2.4c-0.4,0.8-0.8,1.4-1.3,2c-0.4,0.6-0.9,1.1-1.3,1.7c-1.6,2-3.1,2.9-3.1,2.9
			c-0.1,0-0.2-0.1-0.3-0.1c0,0,0.3-1.7,1.2-4.1c0.2-0.6,0.5-1.2,0.8-1.9c0.3-0.7,0.7-1.3,1.1-2.1c0.4-0.7,0.9-1.5,1.4-2.1
			c0.5-0.8,1-1.5,1.5-2.3c1-1.6,1.9-3.3,2.8-4.9c0.9-1.6,1.8-3.2,2.5-4.5c1.5-2.7,2.5-4.7,2.5-4.7C187.1,97.2,187.3,97.2,187.4,97.2
			z"/>
	</g>
</g>
<g id="XMLID_57_">
	<g>
		<path id="XMLID_489_" class="st1" d="M173.6,126.5c0,0,0.5,1.5,1.1,4.1c0.3,1.3,0.7,2.9,1.1,4.7c0.4,1.8,0.8,3.8,1.2,5.9
			c0.2,1,0.4,2.1,0.6,3.2c0.2,1.1,0.4,2.2,0.6,3.2c0.1,1.1,0.2,2.1,0.3,3.1c0.1,1,0.1,1.9,0.1,2.8c0.1,3.5-0.3,5.7-0.3,5.6
			c-0.1-0.1-0.2-0.1-0.3-0.2c0,0-1-2.7-1.8-6c-0.2-0.8-0.4-1.8-0.6-2.6c-0.2-1-0.4-1.9-0.5-2.8c-0.1-1-0.2-2-0.3-2.9
			c-0.1-1-0.2-1.9-0.2-3c-0.2-2-0.4-3.9-0.6-5.6c-0.2-1.7-0.3-3.3-0.4-4.8c-0.2-2.8-0.4-4.5-0.4-4.5
			C173.3,126.7,173.5,126.6,173.6,126.5z"/>
	</g>
</g>
<g id="XMLID_58_">
	<g>
		<path id="XMLID_487_" class="st1" d="M178.1,156.5c0,0,1.1-1.4,2.8-3.5c0.9-1,1.8-2.4,2.9-3.8c1.1-1.4,2.3-2.9,3.4-4.6
			c0.6-0.8,1.1-1.6,1.7-2.4c0.5-0.8,1.1-1.7,1.7-2.4c0.6-0.8,1.2-1.5,1.8-2.2c0.6-0.7,1.2-1.4,1.7-1.9c2.2-2.4,3.9-3.9,3.9-3.9
			c0.1,0.1,0.1,0.1,0.2,0.2c0,0-0.7,2.3-2.3,5.1c-0.4,0.7-0.8,1.5-1.3,2.2c-0.5,0.8-1,1.5-1.6,2.4c-0.6,0.8-1.2,1.5-1.9,2.2
			c-0.7,0.7-1.3,1.5-2,2.3c-1.3,1.5-2.6,3-3.9,4.2c-1.3,1.3-2.4,2.4-3.5,3.4c-2,1.9-3.4,2.9-3.4,2.9
			C178.2,156.7,178.2,156.6,178.1,156.5z"/>
	</g>
</g>
<g id="XMLID_59_">
	<g>
		<path id="XMLID_485_" class="st1" d="M198.1,131.6c0,0,0.5-1.4,1.3-3.7c0.4-1.1,0.8-2.5,1.3-4c0.5-1.5,1.1-3.1,1.6-4.8
			c0.3-0.9,0.5-1.7,0.8-2.6c0.2-0.9,0.5-1.7,0.8-2.6c0.3-0.8,0.6-1.6,1-2.4c0.3-0.8,0.7-1.4,1-2.1c1.3-2.7,2.6-4.6,2.6-4.6
			c0.1,0,0.2,0,0.3,0c0,0,0,2.1-0.6,5.2c-0.1,0.8-0.3,1.6-0.6,2.4c-0.2,0.8-0.5,1.7-0.8,2.5c-0.3,0.9-0.7,1.7-1.1,2.6
			c-0.4,0.8-0.8,1.7-1.2,2.5c-0.7,1.6-1.5,3.3-2.2,4.7c-0.7,1.4-1.4,2.6-2,3.8c-1.2,2-2,3.3-2,3.3
			C198.2,131.7,198.2,131.7,198.1,131.6z"/>
	</g>
</g>
<g id="XMLID_60_">
	<g>
		<path id="XMLID_483_" class="st1" d="M208.8,104.6c0,0-0.1,2.4-0.4,6c-0.1,1.8-0.3,3.9-0.5,6.1c-0.2,2.2-0.4,4.4-0.6,6.6
			c-0.1,1.2-0.2,2.2-0.3,3.3c-0.1,1.1-0.2,2.1-0.3,3.1c-0.2,1-0.3,1.9-0.6,2.7c-0.2,0.8-0.4,1.6-0.6,2.3c-0.9,2.7-1.9,3.9-1.9,3.9
			c-0.1-0.1-0.2-0.1-0.3-0.2c0,0-0.3-2.2-0.2-5c0-0.7,0.1-1.5,0.1-2.3c0.1-0.8,0.2-1.7,0.3-2.6c0.2-0.9,0.4-1.8,0.6-2.7
			c0.2-0.9,0.5-1.9,0.7-2.9c0.4-2,0.8-4.1,1.3-6.2c0.4-2.1,0.8-4.1,1.2-5.9c0.7-3.5,1.2-6.2,1.2-6.2
			C208.6,104.7,208.7,104.6,208.8,104.6z"/>
	</g>
</g>
<g id="XMLID_61_">
	<g>
		<path id="XMLID_481_" class="st1" d="M203.6,138.4c0,0-0.7,2.6-1.8,6.2c-1.1,3.7-2.6,8.4-4.2,12.8c-0.4,1.1-0.7,2.2-1.1,3.2
			c-0.3,1.1-0.7,2-1.1,3c-0.4,0.9-0.8,1.8-1.3,2.6c-0.4,0.8-0.9,1.5-1.3,2.2c-1.6,2.6-3.1,3.9-3.1,3.9c-0.1-0.1-0.2-0.1-0.3-0.2
			c0,0,0.2-2.1,1.2-4.9c0.2-0.7,0.5-1.5,0.8-2.4c0.3-0.8,0.7-1.7,1.1-2.6c0.4-0.9,0.9-1.8,1.4-2.8c0.5-0.9,1-2,1.5-3
			c2-4,3.9-8.6,5.4-12.1c1.5-3.5,2.5-6.1,2.5-6.1C203.4,138.3,203.5,138.3,203.6,138.4z"/>
	</g>
</g>
<g id="XMLID_62_">
	<g>
		<path id="XMLID_479_" class="st1" d="M189.5,173.5c0,0,0.3-0.4,0.8-1c0.3-0.4,0.5-0.7,0.9-1.1c0.3-0.4,0.7-0.9,1.1-1.3
			c0.4-0.4,0.6-1,1-1.4c0.4-0.4,0.9-0.6,1.3-0.8c0.5-0.1,0.9-0.3,1.2-0.3c0.3,0,0.5,0,0.5,0c0.1,0.1,0.1,0.1,0.2,0.2
			c0,0,0,0.2,0,0.6c0,0.3-0.2,0.8-0.4,1.3c-0.2,0.4-0.5,1-0.9,1.3c-0.4,0.3-1,0.5-1.5,0.8c-0.5,0.3-1,0.6-1.5,0.7
			c-0.5,0.3-0.9,0.4-1.3,0.6c-0.8,0.3-1.3,0.5-1.3,0.5C189.6,173.5,189.5,173.5,189.5,173.5z"/>
	</g>
</g>
<g id="XMLID_63_">
	<g>
		<path id="XMLID_477_" class="st1" d="M196.6,167.8c0,0,0.1,0.5,0.2,1.1c0,0.3,0.1,0.7,0.1,1.3c0,0.4,0,1,0.1,1.4
			c0,0.4,0.2,1,0.1,1.4c-0.1,0.4-0.3,0.7-0.6,1c-0.3,0.3-0.6,0.4-0.8,0.5c-0.2,0.1-0.4,0.1-0.4,0.1c-0.1-0.1-0.2-0.1-0.3-0.2
			c0,0-0.1-0.1-0.3-0.4c-0.2-0.2-0.4-0.5-0.5-0.9c-0.1-0.4-0.2-0.7-0.1-1.1c0.1-0.4,0.4-0.7,0.6-1.1c0.2-0.4,0.4-0.8,0.6-1.2
			c0.2-0.4,0.4-0.7,0.6-1.1c0.3-0.7,0.6-1.2,0.6-1.2C196.5,167.6,196.6,167.7,196.6,167.8z"/>
	</g>
</g>
<g id="XMLID_64_">
	<g>
		<path id="XMLID_474_" class="st1" d="M195.2,176.6c0,0,0.5,1.9,1.1,5.3c0.7,3.3,1.4,8.2,2.2,13.6c0.2,1.3,0.4,2.7,0.6,4.1
			c0.2,1.4,0.4,2.7,0.6,4.2c0.1,1.3,0.2,2.7,0.3,3.9c0.1,1.2,0.1,2.5,0.1,3.6c0,4.4-0.3,7-0.3,7c-0.1-0.1-0.2-0.2-0.3-0.2
			c0,0-1-3.5-1.8-7.9c-0.2-1.1-0.4-2.2-0.6-3.4c-0.2-1.2-0.4-2.4-0.5-3.6c-0.1-1.2-0.2-2.5-0.3-3.7c-0.1-1.3-0.1-2.5-0.2-3.7
			c-0.3-5-0.7-9.7-0.9-13.2c-0.2-3.4-0.3-5.8-0.3-5.8C195,176.8,195.1,176.7,195.2,176.6z"/>
	</g>
</g>
<g id="XMLID_65_">
	<g>
		<path id="XMLID_472_" class="st1" d="M199.7,216.9c0,0,0.5,0.3,1.3,0.8c0.4,0.2,0.8,0.6,1.3,1c0.5,0.4,0.9,0.7,1.4,1.2
			c0.5,0.4,1.1,0.8,1.5,1.4c0.4,0.5,0.6,1.1,0.8,1.7c0.1,0.6,0.2,1.1,0.2,1.4c0,0.4,0,0.7,0,0.7c-0.1,0.1-0.1,0.1-0.2,0.2
			c0,0-0.2,0-0.6-0.2c-0.4-0.2-0.8-0.4-1.2-0.7c-0.5-0.4-0.9-0.7-1.3-1.2c-0.4-0.5-0.6-1.1-0.9-1.7c-0.3-0.6-0.7-1.1-0.9-1.6
			c-0.3-0.5-0.5-1-0.8-1.4c-0.4-0.8-0.7-1.3-0.7-1.3C199.6,217,199.7,217,199.7,216.9z"/>
	</g>
</g>
<g id="XMLID_66_">
	<g>
		<path id="XMLID_471_" class="st1" d="M206.1,225.4c0,0,3.3,0.8,8.2,2c4.9,1.2,11.4,3,18,5c1.6,0.5,3.3,1,4.9,1.5
			c1.6,0.5,3.2,0.9,4.7,1.5c1.5,0.5,3,1.1,4.3,1.7c1.4,0.5,2.7,1.2,3.8,1.8c4.7,2.2,7.7,4.3,7.7,4.3c0,0.1-0.1,0.2-0.1,0.3
			c0,0-3.4-0.7-8.4-2.2c-1.2-0.4-2.6-0.8-4-1.3c-1.4-0.5-2.9-1-4.4-1.6c-1.5-0.5-3.1-1.2-4.6-1.8c-1.6-0.6-3.2-1.2-4.8-1.9
			c-6.4-2.4-12.8-4.7-17.6-6.3c-4.8-1.7-8-2.6-8-2.6C205.9,225.6,206,225.5,206.1,225.4z"/>
	</g>
</g>
<g id="XMLID_67_">
	<g>
		<path id="XMLID_470_" class="st1" d="M257.6,243.5c0,0-1.5-1.5-3.7-3.7c-1.1-1-2.4-2.3-3.8-3.6c-1.4-1.3-2.8-2.6-4.3-4
			c-0.7-0.6-1.5-1.3-2.2-1.9c-0.7-0.6-1.4-1.1-2.1-1.7c-0.6-0.6-1.2-1.2-1.8-1.7c-0.5-0.5-1-1.1-1.5-1.6c-1.8-2-2.7-3.5-2.7-3.5
			c0.1-0.1,0.1-0.1,0.2-0.2c0,0,1.8,0.6,4.2,2c0.6,0.3,1.2,0.8,1.8,1.3c0.6,0.4,1.3,1,1.9,1.6c0.6,0.6,1.3,1.2,1.9,2
			c0.6,0.7,1.3,1.4,1.9,2.2c1.3,1.4,2.6,2.9,3.8,4.4c1.2,1.4,2.3,2.8,3.3,4.1C256.4,241.7,257.7,243.5,257.6,243.5
			C257.7,243.5,257.6,243.5,257.6,243.5z"/>
	</g>
</g>
<g id="XMLID_68_">
	<g>
		<path id="XMLID_469_" class="st1" d="M235.6,220.4c0,0-0.1-0.5-0.2-1.3c-0.1-0.4-0.1-0.9-0.2-1.3c-0.1-0.5-0.1-0.9-0.1-1.5
			c0-0.5-0.2-1-0.2-1.4c0.1-0.5,0.3-0.9,0.5-1.3c0.3-0.4,0.5-0.8,0.8-1c0.2-0.2,0.4-0.4,0.4-0.4c0.1,0,0.2-0.1,0.3-0.1
			c0,0,0.2,0.2,0.3,0.3c0.2,0.3,0.4,0.5,0.5,1c0.1,0.4,0.3,0.9,0.2,1.5c-0.1,0.6-0.4,1.1-0.5,1.6c-0.2,0.5-0.3,1-0.5,1.5
			c-0.2,0.5-0.4,0.9-0.5,1.2c-0.3,0.7-0.5,1.2-0.5,1.2C235.8,220.4,235.7,220.4,235.6,220.4z"/>
	</g>
</g>
<g id="XMLID_69_">
	<g>
		<path id="XMLID_463_" class="st1" d="M236.9,212.6c0,0,0.3,0.2,0.8,0.6c0.2,0.3,0.5,0.4,0.8,0.8c0.3,0.3,0.5,0.7,0.8,1
			c0.3,0.4,0.7,0.6,0.9,1.1c0.2,0.4,0.2,0.9,0.1,1.3c-0.1,0.4-0.2,0.7-0.3,1.1c-0.1,0.3-0.2,0.4-0.2,0.4c-0.1,0-0.2,0-0.3,0.1
			c0,0-0.2,0-0.5-0.2c-0.3-0.2-0.6-0.3-0.9-0.5c-0.3-0.2-0.6-0.6-0.8-1c-0.2-0.4-0.1-0.8-0.2-1.2c-0.1-0.4-0.2-0.8-0.2-1.2
			c-0.1-0.4-0.1-0.7-0.1-1.1c-0.1-0.6-0.1-1-0.1-1C236.8,212.7,236.8,212.6,236.9,212.6z"/>
	</g>
</g>
<g id="XMLID_70_">
	<g>
		<path id="XMLID_462_" class="st1" d="M239.7,219.4c0,0,1.5,0.8,3.7,2c1.1,0.7,2.4,1.5,3.8,2.3c1.4,0.9,2.8,1.9,4.3,3
			c0.7,0.5,1.5,1,2.2,1.5c0.7,0.5,1.4,1,2.1,1.6c0.6,0.5,1.3,1.2,1.8,1.7c0.6,0.6,1.1,1.2,1.5,1.8c1.8,2.2,2.8,4.1,2.8,4.1
			c-0.1,0.1-0.1,0.1-0.2,0.2c0,0-1.8-0.8-4.1-2.5c-0.6-0.4-1.2-0.8-1.8-1.4c-0.6-0.5-1.3-1-1.9-1.5c-0.6-0.5-1.3-1.2-1.9-1.9
			c-0.6-0.6-1.3-1.2-1.9-1.9c-1.3-1.2-2.7-2.4-3.9-3.5c-1.2-1-2.4-2-3.3-2.9C240.9,220.4,239.7,219.4,239.7,219.4
			C239.7,219.4,239.7,219.4,239.7,219.4z"/>
	</g>
</g>
<g id="XMLID_72_">
	<g>
		<path id="XMLID_460_" class="st1" d="M261.7,238.4c0,0-1.4-2.1-3.5-5.2c-2.1-3-4.8-6.9-7.5-10.5c-0.7-0.9-1.4-1.8-2-2.5
			c-0.7-0.9-1.3-1.6-1.9-2.4c-0.6-0.8-1.1-1.6-1.6-2.4c-0.5-0.7-0.9-1.4-1.3-2.1c-1.6-2.6-2.3-4.5-2.3-4.5c0.1-0.1,0.1-0.1,0.2-0.2
			c0,0,1.8,1.1,4,3.2c0.6,0.5,1.1,1.1,1.7,1.8c0.6,0.6,1.2,1.4,1.8,2.2c0.6,0.8,1.1,1.7,1.7,2.7c0.6,0.9,1.1,1.9,1.7,2.9
			c2.3,3.8,4.7,7.9,6.4,11.2c1.7,3.3,2.8,5.6,2.8,5.6C261.8,238.2,261.8,238.3,261.7,238.4z"/>
	</g>
</g>
<g id="XMLID_73_">
	<g>
		<path id="XMLID_452_" class="st1" d="M240.9,207.8c0,0-0.2-2.2-0.4-5.1c-0.1-1.5-0.2-3.2-0.3-5c-0.1-1.8-0.2-3.6-0.3-5.5
			c-0.1-0.9-0.1-1.8-0.2-2.7c-0.1-0.9-0.1-1.7-0.2-2.6c0-0.8,0-1.6,0.1-2.5c0.1-0.9,0.1-1.7,0.3-2.6c0.4-3,1.1-5.8,1.1-5.8
			c0.1-0.1,0.2-0.2,0.3-0.3c0,0,0.7,1.4,1.1,4.4c0.1,0.7,0.2,1.6,0.3,2.5c0.1,0.9,0.1,1.9,0.1,2.9c0,1-0.1,2.1-0.2,3.2
			c-0.1,1.1-0.1,2.2-0.2,3.3c-0.1,2.2-0.2,4.3-0.3,6.1c-0.1,2-0.2,3.7-0.3,5.2c-0.2,3-0.4,4.7-0.4,4.7
			C241.2,208,241.1,207.8,240.9,207.8C240.9,207.7,240.9,207.7,240.9,207.8z"/>
	</g>
</g>
<g id="XMLID_74_">
	<g>
		<path id="XMLID_451_" class="st1" d="M241.9,176.9c0,0,0.4,0.5,0.9,1.5c0.3,0.5,0.6,1,0.9,1.7c0.3,0.7,0.6,1.5,0.9,2.2
			c0.3,0.8,0.7,1.6,1,2.4c0.2,0.8,0.2,1.7,0.2,2.3c-0.1,0.6-0.1,1.3-0.3,1.7c-0.1,0.4-0.2,0.6-0.2,0.6c-0.1,0-0.2,0-0.3,0
			c0,0-0.2-0.3-0.5-0.6c-0.3-0.4-0.7-0.9-1-1.6c-0.3-0.6-0.7-1.3-0.9-2c-0.2-0.7-0.1-1.5-0.2-2.3c-0.1-0.7-0.2-1.5-0.3-2.2
			c-0.1-0.7-0.1-1.4-0.2-1.9c-0.1-1.1-0.1-1.9-0.1-1.9C241.8,176.9,241.9,176.9,241.9,176.9z"/>
	</g>
</g>
<g id="XMLID_75_">
	<g>
		<path id="XMLID_449_" class="st1" d="M245.2,189.4c0,0,0.3,0.8,0.6,2.2c0.2,0.7,0.4,1.6,0.6,2.4c0.2,1,0.4,2,0.6,3.1
			c0.2,1,0.6,2.2,0.7,3.3c0.1,1.1,0,2.1-0.1,2.9c-0.1,0.8-0.3,1.5-0.5,1.8c-0.2,0.4-0.3,0.6-0.3,0.6c-0.1-0.1-0.2-0.1-0.3-0.2
			c0,0-0.2-0.3-0.5-0.9c-0.3-0.5-0.6-1.2-0.9-2.1c-0.3-0.9-0.5-1.6-0.6-2.6c-0.1-0.9,0.1-1.8,0-2.8c0-0.9,0-1.9,0-2.8
			c0-0.9,0-1.7,0.1-2.5c0-1.4,0.1-2.4,0.1-2.4C244.9,189.4,245,189.4,245.2,189.4z"/>
	</g>
</g>
<g id="XMLID_118_">
</g>
<g id="XMLID_117_">
</g>
<g id="XMLID_113_">
	<g>
		<path id="XMLID_426_" d="M400,260.1c0,0,1.6-1,4-2.7c1.2-0.9,2.6-1.9,4.1-3c1.5-1.1,3.1-2.3,4.7-3.6c0.8-0.6,1.6-1.3,2.4-1.9
			c0.8-0.6,1.6-1.4,2.3-1.9c0.8-0.5,1.6-1.2,2.3-1.7c0.8-0.6,1.5-1,2.2-1.4c2.7-1.7,4.8-2.6,4.8-2.6c0.1,0.1,0.1,0.1,0.2,0.2
			c0,0-1.3,2-3.6,4.3c-0.6,0.6-1.2,1.2-1.9,1.8c-0.7,0.7-1.4,1.2-2.2,1.8c-0.8,0.5-1.6,1.2-2.5,1.7c-0.9,0.5-1.7,1.1-2.6,1.6
			c-1.7,1.1-3.5,2.1-5.1,3.1c-1.6,0.9-3.2,1.7-4.5,2.4c-2.6,1.4-4.4,2.1-4.4,2.1C400.1,260.3,400.1,260.2,400,260.1z"/>
	</g>
</g>
<g id="XMLID_109_">
	<g>
		<path id="XMLID_420_" d="M426.9,242.1c0,0,1.8-0.3,4.6-0.7c1.4-0.2,3-0.5,4.7-0.7c1.7-0.3,3.6-0.5,5.4-0.8
			c0.9-0.2,1.8-0.3,2.7-0.5c0.9-0.2,1.8-0.3,2.6-0.4c0.9-0.1,1.7-0.1,2.5-0.1c0.8,0,1.6,0,2.3,0c2.8,0.1,4.7,0.6,4.7,0.6
			c0,0.1,0,0.2,0,0.3c0,0-1.8,0.9-4.5,1.6c-0.7,0.2-1.4,0.3-2.2,0.5c-0.8,0.2-1.6,0.3-2.5,0.3c-0.9,0.1-1.8,0.1-2.7,0.1
			c-0.9,0-1.8,0-2.8,0.1c-1.9,0.1-3.7,0.2-5.4,0.1c-1.7,0.1-3.4,0.1-4.8,0c-2.8,0.1-4.6,0-4.6,0
			C426.9,242.3,426.9,242.2,426.9,242.1z"/>
	</g>
</g>
<g id="XMLID_108_">
	<g>
		<path id="XMLID_414_" d="M456.3,238.9c0,0,0.8-0.7,2-1.6c0.6-0.5,1.3-1.1,2.1-1.7c0.8-0.7,1.6-1.3,2.5-2.1
			c0.8-0.7,1.6-1.6,2.4-2.3c0.8-0.6,1.7-1.1,2.5-1.6c0.8-0.4,1.5-0.6,2-0.8c0.5-0.1,0.8-0.2,0.8-0.2c0.1,0.1,0.1,0.1,0.2,0.2
			c0,0-0.1,0.3-0.4,0.9c-0.3,0.6-0.7,1.2-1.2,1.9c-0.6,0.7-1.2,1.4-2.1,2.1c-0.9,0.6-1.9,1-2.8,1.6c-1,0.6-1.9,1.1-2.8,1.5
			c-0.9,0.5-1.8,0.9-2.5,1.2c-1.5,0.7-2.5,1-2.5,1C456.4,239,456.4,239,456.3,238.9z"/>
	</g>
</g>
<g id="XMLID_107_">
	<g>
		<path id="XMLID_408_" d="M470.6,228.6c0,0,0-0.7,0.1-1.9c0-0.5,0.1-1.2,0.1-1.9c0.1-0.7,0.2-1.5,0.2-2.2c0.1-0.7,0-1.6,0.2-2.2
			c0.2-0.7,0.5-1.4,0.8-2c0.3-0.6,0.7-1.2,1-1.6c0.3-0.4,0.5-0.7,0.5-0.7c0.1,0,0.2,0,0.3,0c0,0,0.1,0.2,0.2,0.6
			c0.1,0.4,0.2,0.9,0.3,1.7c0,0.7,0,1.5-0.1,2.3c-0.2,0.8-0.6,1.7-0.9,2.4c-0.3,0.8-0.6,1.5-0.9,2.2c-0.3,0.7-0.6,1.3-0.8,1.7
			c-0.5,0.9-0.8,1.5-0.8,1.5C470.7,228.6,470.7,228.6,470.6,228.6z"/>
	</g>
</g>
<g id="XMLID_106_">
	<g>
		<path id="XMLID_402_" d="M473.9,216.3c0,0-0.3,0.7-0.9,1.7c-0.3,0.6-0.6,1.1-0.9,1.6c-0.3,0.6-0.7,1.2-1.1,1.8
			c-0.4,0.6-0.7,1.2-1.1,1.7c-0.4,0.5-1,0.7-1.4,1c-0.5,0.1-1,0.3-1.3,0.3c-0.4,0-0.6,0-0.6,0c-0.1-0.1-0.1-0.1-0.2-0.2
			c0,0,0-0.2,0-0.5c0-0.4,0.1-0.7,0.3-1.2c0.2-0.4,0.5-1,0.9-1.4c0.4-0.5,1.1-0.8,1.6-1.2c0.5-0.4,1.1-0.9,1.6-1.4
			c0.5-0.4,1-0.9,1.4-1.2c0.8-0.7,1.4-1.2,1.4-1.2C473.7,216.2,473.8,216.2,473.9,216.3z"/>
	</g>
</g>
<g id="XMLID_105_">
	<g>
		<path id="XMLID_396_" d="M466.5,224.6c0,0-0.3,0.5-0.8,1.1c-0.2,0.3-0.5,0.8-0.9,1.1c-0.3,0.4-0.7,0.7-1,1.1
			c-0.4,0.4-0.6,0.8-1,1.1c-0.4,0.3-0.8,0.3-1.3,0.3c-0.4,0-0.8-0.1-1.1-0.1c-0.3-0.1-0.5-0.1-0.5-0.1c-0.1-0.1-0.1-0.1-0.2-0.2
			c0,0,0-0.2,0.1-0.4c0.1-0.3,0.2-0.6,0.4-1c0.2-0.4,0.5-0.7,0.8-0.9c0.4-0.2,1-0.3,1.4-0.5c0.5-0.2,0.9-0.4,1.4-0.7
			c0.4-0.2,0.9-0.4,1.2-0.5c0.7-0.4,1.2-0.5,1.2-0.5C466.3,224.4,466.4,224.5,466.5,224.6z"/>
	</g>
</g>
<g id="XMLID_104_">
	<g>
		<path id="XMLID_390_" d="M461,230.9c0,0-1,0.2-2.1,0.4c-0.6,0.1-1.3,0.2-2,0.3c-0.7,0.1-1.5,0.2-2.3,0.3c-0.8,0.1-1.5,0.3-2.2,0.3
			c-0.7,0-1.4-0.2-1.9-0.4c-0.6-0.2-0.8-0.4-1.1-0.7c-0.3-0.2-0.3-0.4-0.3-0.4c0-0.1,0-0.2,0-0.3c0,0-0.1-0.2,0.3-0.4
			c0.3-0.2,0.7-0.5,1.2-0.7c0.6-0.2,1.2-0.4,1.9-0.4c0.7,0,1.4,0.3,2.2,0.3c0.8,0.1,1.5,0.2,2.2,0.3c0.7,0.1,1.6,0.2,2.1,0.3
			c1.1,0.2,2.1,0.4,2.1,0.4c0,0.2,0,0.4,0,0.5C461.1,230.9,461,230.9,461,230.9z"/>
	</g>
</g>
<g id="XMLID_103_">
	<g>
		<path id="XMLID_384_" d="M448.4,227.5c0,0,2.4-2.5,6-6.6c3.6-4.2,8.4-9.8,13.3-16.1c1.2-1.6,2.4-3.2,3.6-4.8
			c1.2-1.7,2.3-3.2,3.5-4.7c1.2-1.5,2.3-3,3.5-4.5c1.1-1.4,2.2-2.8,3.2-4.1c4-5,7.1-8.3,7.1-8.3c0.1,0.1,0.1,0.1,0.2,0.2
			c0,0-2,4.1-5.4,9.6c-0.9,1.4-1.8,2.8-2.8,4.4c-1,1.5-2.1,3.1-3.3,4.6c-1.2,1.5-2.4,3.1-3.7,4.6c-1.3,1.6-2.6,3.1-3.9,4.6
			c-5.2,6-10.3,11.5-14.3,15.4c-3.9,3.9-6.6,6.1-6.6,6.1C448.7,227.6,448.5,227.5,448.4,227.5z"/>
	</g>
</g>
<g id="XMLID_102_">
	<g>
		<path id="XMLID_378_" d="M488.5,180.1c0,0,0-0.8,0.1-2c0-0.6,0-1.4,0.1-2.1c0-0.7,0.1-1.5,0.2-2.4c0.1-0.8,0-1.7,0.2-2.4
			c0.2-0.8,0.5-1.5,0.8-2.2c0.3-0.7,0.7-1.3,1-1.7c0.3-0.4,0.5-0.7,0.5-0.7c0.1,0,0.2,0,0.3,0c0,0,0.1,0.3,0.3,0.6
			c0.1,0.4,0.3,1,0.3,1.8c0.1,0.7,0.1,1.6-0.1,2.5c-0.2,0.9-0.6,1.8-0.9,2.7c-0.3,0.8-0.5,1.7-0.8,2.5c-0.3,0.8-0.5,1.4-0.8,2
			c-0.5,1.1-0.8,1.7-0.8,1.7C488.8,180.5,488.6,180.3,488.5,180.1z"/>
	</g>
</g>
<g id="XMLID_101_">
	<g>
		<path id="XMLID_372_" d="M491.3,167.3c0,0-0.3-0.9-0.6-2.1c-0.2-0.6-0.4-1.3-0.6-2c-0.2-0.7-0.4-1.4-0.6-2.1
			c-0.2-0.7-0.5-1.3-0.6-1.9c-0.1-0.6,0-1.3,0.1-1.7c0.1-0.6,0.3-1.1,0.5-1.4c0.2-0.4,0.3-0.7,0.3-0.7c0.1,0,0.2-0.1,0.3-0.1
			c0,0,0.2,0.1,0.4,0.3c0.3,0.2,0.5,0.5,0.8,1.1c0.3,0.4,0.5,1.2,0.6,1.9c0.1,0.8-0.1,1.7-0.1,2.4c0,0.9,0,1.6-0.1,2.4
			c0,0.8-0.1,1.5-0.1,2c-0.1,1.2-0.2,2-0.2,2C491.4,167.4,491.3,167.4,491.3,167.3z"/>
	</g>
</g>
<g id="XMLID_100_">
	<g>
		<path id="XMLID_366_" d="M490.2,154.7c0,0,0.1,0.8,0.2,2c0,0.6,0.1,1.3,0.1,2c0,0.8,0,1.6,0.1,2.4c0,0.9,0.2,1.7,0.1,2.4
			c-0.1,0.8-0.3,1.4-0.6,1.9c-0.3,0.4-0.6,0.9-0.8,1.1c-0.2,0.2-0.4,0.3-0.4,0.3c-0.1,0-0.2-0.1-0.3-0.1c0,0-0.2-0.3-0.3-0.7
			c-0.2-0.4-0.4-0.9-0.5-1.4c-0.1-0.6-0.2-1.1-0.1-1.7c0.1-0.6,0.4-1.2,0.6-1.9c0.2-0.7,0.4-1.4,0.6-2.1c0.2-0.7,0.4-1.4,0.6-2
			c0.3-1.2,0.6-2.1,0.6-2.1C490.1,154.8,490.2,154.8,490.2,154.7z"/>
	</g>
</g>
<g id="XMLID_99_">
	<g>
		<path id="XMLID_360_" d="M488.7,166.3c0,0-0.6,1.3-1.7,3.1c-0.5,0.9-1.1,1.9-1.7,3c-0.6,1.1-1.4,2.1-2.1,3.2c-0.7,1-1.3,2.2-2,3
			c-0.7,0.8-1.6,1.5-2.3,2c-0.8,0.5-1.4,0.9-1.9,1.1c-0.5,0.2-0.8,0.3-0.8,0.3c-0.1-0.1-0.1-0.1-0.2-0.2c0,0,0.1-0.3,0.2-0.8
			c0.2-0.5,0.5-1.1,0.9-1.9c0.4-0.8,1-1.6,1.7-2.4c0.8-0.8,1.7-1.6,2.6-2.5c0.9-0.9,1.7-1.8,2.6-2.8c0.8-0.9,1.6-1.8,2.3-2.6
			C487.6,167.3,488.6,166.2,488.7,166.3C488.6,166.3,488.7,166.3,488.7,166.3z"/>
	</g>
</g>
<g id="XMLID_98_">
	<g>
		<path id="XMLID_354_" d="M475.9,180.7c0,0-0.1-3-0.1-7.3c-0.1-4.4-0.1-10-0.1-15.7c0-1.5,0-2.8-0.1-4.2c0-1.4-0.1-2.7,0-4.1
			c0-1.4,0.1-2.7,0.2-4c0.1-1.3,0.2-2.6,0.4-3.8c0.5-4.8,1.3-9.3,1.3-9.3c0.1-0.2,0.2-0.3,0.3-0.5c0,0,0.6,2.3,0.8,7.3
			c0.1,1.2,0.1,2.5,0.1,4.1c0,1.4,0,3,0,4.6c-0.1,1.7-0.2,3.4-0.3,5c-0.1,1.7-0.2,3.4-0.3,5c-0.4,6.6-0.8,12.7-1.2,16.7
			c-0.4,4.1-0.6,6.6-0.6,6.6C476.2,181.1,476,180.9,475.9,180.7z"/>
	</g>
</g>
<g id="XMLID_97_">
	<g>
		<path id="XMLID_348_" d="M477.4,134.6c0,0-1.3-2.5-3.2-6c-2-3.4-4.5-7.9-7-11.9c-0.6-1-1.3-2-1.9-2.9c-0.6-1-1.3-1.9-1.8-2.8
			c-0.5-0.9-1-1.7-1.5-2.6c-0.4-0.8-0.8-1.6-1.2-2.4c-1.4-2.9-2-4.9-2-4.9c0.1,0,0.2-0.1,0.3-0.1c0,0,1.8,1.3,3.8,3.8
			c0.5,0.6,1.1,1.3,1.6,2.1c0.6,0.8,1.1,1.6,1.7,2.6c0.5,0.9,1,1.9,1.5,3c0.5,1.1,1,2.1,1.6,3.2c2.1,4.3,4.3,9,5.8,12.6
			c1.6,3.6,2.6,6.3,2.6,6.2C477.6,134.4,477.5,134.5,477.4,134.6z"/>
	</g>
</g>
<g id="XMLID_96_">
	<g>
		<path id="XMLID_346_" d="M458.9,99.7c0,0-0.4,0.1-1,0.2c-0.3,0.1-0.7,0.1-1.1,0.2c-0.4,0.1-0.8,0.1-1.2,0.1
			c-0.4,0-0.8,0.2-1.2,0.1c-0.4-0.1-0.7-0.3-1-0.5c-0.3-0.3-0.5-0.5-0.6-0.7c-0.1-0.2-0.2-0.4-0.2-0.4c0-0.1,0-0.2,0-0.3
			c0,0,0.1-0.2,0.3-0.3c0.2-0.2,0.5-0.4,0.8-0.5c0.3-0.1,0.7-0.3,1.1-0.2c0.4,0.1,0.7,0.4,1.1,0.5c0.4,0.2,0.8,0.3,1.1,0.5
			c0.4,0.2,0.7,0.4,1,0.5c0.6,0.3,0.9,0.6,0.9,0.6C458.9,99.5,458.9,99.6,458.9,99.7z"/>
	</g>
</g>
<g id="XMLID_95_">
	<g>
		<path id="XMLID_344_" d="M452.7,99.7c0,0,1,1.2,2.5,3.3c0.7,1,1.6,2.3,2.5,3.7c0.9,1.4,1.9,2.9,2.8,4.7c0.5,0.8,1,1.6,1.5,2.5
			c0.5,0.8,1,1.7,1.4,2.5c0.4,0.9,0.8,1.8,1.1,2.5c0.3,0.8,0.6,1.7,0.8,2.3c1,3.1,1.2,5.3,1.2,5.3c-0.1,0-0.2,0-0.3,0.1
			c0,0-1.5-1.8-3.1-4.5c-0.4-0.7-0.8-1.4-1.3-2.1c-0.4-0.8-0.9-1.5-1.3-2.4c-0.4-0.8-0.8-1.7-1.1-2.6c-0.4-0.9-0.7-1.7-1.1-2.6
			c-0.8-1.7-1.6-3.3-2.3-4.9c-0.7-1.5-1.4-2.8-1.9-3.9c-1.1-2.3-1.8-3.7-1.8-3.7C452.4,99.7,452.6,99.7,452.7,99.7z"/>
	</g>
</g>
<g id="XMLID_94_">
	<g>
		<path id="XMLID_342_" d="M466.6,123.6c0,0-0.1,2.4-0.4,5.9c-0.1,1.7-0.3,3.7-0.4,5.8c-0.2,2.1-0.4,4.3-0.6,6.4
			c-0.1,1-0.2,2.2-0.2,3.2c-0.1,1-0.1,2.1-0.3,3.1c-0.1,1-0.3,1.9-0.5,2.6c-0.2,0.8-0.4,1.6-0.6,2.2c-0.8,2.6-1.8,3.8-1.8,3.8
			c-0.1-0.1-0.2-0.1-0.3-0.2c0,0-0.4-2.1-0.3-5c0-0.7,0-1.4,0.1-2.2c0-0.8,0.2-1.6,0.3-2.5c0.2-0.9,0.4-1.7,0.6-2.6
			c0.2-0.9,0.4-1.9,0.6-2.8c0.4-1.9,0.8-4,1.2-5.9c0.4-2,0.8-4,1.1-5.7c0.7-3.4,1.1-5.9,1.1-5.9
			C466.3,123.7,466.5,123.7,466.6,123.6z"/>
	</g>
</g>
<g id="XMLID_93_">
	<g>
		<path id="XMLID_340_" d="M461.6,159.1c0,0-1.4-1.7-3.4-4.3c-1-1.3-2.2-2.7-3.5-4.2c-1.3-1.5-2.6-3.1-3.9-4.6
			c-0.7-0.7-1.4-1.5-2-2.1c-0.7-0.7-1.3-1.3-1.9-2c-0.6-0.6-1.1-1.3-1.6-2c-0.5-0.6-0.9-1.2-1.3-1.8c-1.6-2.3-2.3-3.9-2.3-3.9
			c0.1-0.1,0.1-0.1,0.2-0.2c0,0,1.8,0.7,3.9,2.5c0.5,0.4,1.1,0.9,1.7,1.5c0.6,0.5,1.2,1.2,1.8,1.8c0.6,0.6,1.1,1.4,1.7,2.2
			c0.6,0.8,1.1,1.6,1.7,2.4c1.2,1.6,2.4,3.3,3.4,5c1.1,1.6,2.1,3.3,2.9,4.6c1.7,2.8,2.8,4.7,2.8,4.7
			C461.7,158.9,461.7,159,461.6,159.1z"/>
	</g>
</g>
<g id="XMLID_92_">
	<g>
		<path id="XMLID_337_" d="M441.5,134.3c0,0-0.8-2-2-4.7c-0.6-1.4-1.3-2.9-2-4.6c-0.7-1.6-1.5-3.4-2.2-4.9c-0.4-0.8-0.8-1.6-1.2-2.3
			c-0.4-0.8-0.8-1.5-1.1-2.2c-0.3-0.7-0.6-1.3-0.8-2.1c-0.2-0.6-0.4-1.2-0.6-1.8c-0.6-2.3-0.7-4-0.7-4c0.1-0.1,0.2-0.1,0.3-0.2
			c0,0,1.3,0.9,2.6,3c0.3,0.5,0.7,1,1,1.7c0.4,0.6,0.7,1.3,1,2c0.3,0.8,0.6,1.5,0.8,2.4c0.2,0.9,0.5,1.7,0.8,2.6
			c0.6,1.7,1.1,3.5,1.6,5.2c0.5,1.7,1,3.4,1.4,4.9c0.8,2.9,1.3,5,1.3,4.9C441.6,134.2,441.6,134.2,441.5,134.3z"/>
	</g>
</g>
<g id="XMLID_91_">
	<g>
		<path id="XMLID_335_" d="M431.3,107.7c0,0,0.5,1.6,1.2,4.2c0.4,1.4,0.8,3,1.2,4.9c0.4,1.9,0.8,4,1.3,6.2c0.2,1,0.5,2.2,0.7,3.3
			c0.2,1.1,0.5,2.2,0.6,3.3c0.1,1.1,0.3,2.3,0.3,3.2c0.1,1,0.1,2,0.1,2.9c0.1,3.6-0.2,5.8-0.2,5.8c-0.1-0.1-0.2-0.1-0.3-0.2
			c0,0-1-2.8-1.9-6.3c-0.2-0.9-0.4-1.8-0.6-2.7c-0.2-1-0.4-1.9-0.6-2.9c-0.1-1-0.2-2-0.3-3.1c-0.1-1-0.2-2-0.3-3.1
			c-0.2-2-0.5-4-0.6-5.8c-0.2-1.8-0.4-3.5-0.5-4.9c-0.3-2.8-0.4-4.6-0.4-4.6C431.1,107.9,431.2,107.8,431.3,107.7z"/>
	</g>
</g>
<g id="XMLID_90_">
	<g>
		<path id="XMLID_330_" d="M436.5,141.5c0,0,1,1.6,2.5,4.2c1.5,2.7,3.4,6.5,5.4,10.7c0.5,1,1,2.1,1.5,3.2c0.5,1.1,1,2.1,1.4,3.2
			c0.4,1.1,0.8,2.2,1.1,3.2c0.3,1,0.6,2,0.8,3c1,3.7,1.2,6.5,1.2,6.5c-0.1,0-0.2,0-0.3,0c0,0-1.5-2.5-3.1-5.9
			c-0.4-0.9-0.9-1.8-1.3-2.8c-0.5-1-0.9-2-1.3-3c-0.4-1.1-0.8-2.1-1.1-3.2c-0.4-1.1-0.7-2.2-1.1-3.2c-1.5-4.3-3.1-8.2-4.2-11
			c-1.1-2.9-1.8-4.6-1.8-4.6C436.3,141.7,436.4,141.6,436.5,141.5z"/>
	</g>
</g>
<g id="XMLID_89_">
	<g>
		<path id="XMLID_327_" d="M450.2,174.3c0,0-0.6-0.3-1.3-0.7c-0.4-0.2-0.9-0.5-1.3-0.8c-0.5-0.3-1-0.6-1.5-0.9
			c-0.5-0.3-1.1-0.5-1.5-0.8c-0.4-0.3-0.7-0.7-0.9-1.1c-0.2-0.4-0.3-0.7-0.4-1.1c-0.1-0.3,0-0.5,0-0.5c0.1-0.1,0.1-0.1,0.2-0.2
			c0,0,0.2,0,0.6-0.1c0.3,0,0.8-0.1,1.2,0.1c0.5,0.1,0.9,0.2,1.3,0.6c0.4,0.4,0.7,0.9,1,1.4c0.4,0.4,0.7,0.9,1.1,1.3
			c0.3,0.4,0.6,1,0.9,1.3c0.5,0.8,0.8,1.4,0.8,1.4C450.3,174.3,450.3,174.3,450.2,174.3z"/>
	</g>
</g>
<g id="XMLID_88_">
	<g>
		<path id="XMLID_323_" d="M443.5,168.1c0,0,0.3,0.3,0.6,0.8c0.2,0.3,0.4,0.5,0.6,0.9c0.2,0.4,0.4,0.8,0.6,1.2
			c0.2,0.4,0.5,0.9,0.6,1.3c0.1,0.4,0,0.9-0.1,1.3c-0.1,0.4-0.3,0.7-0.5,0.9c-0.2,0.2-0.3,0.4-0.3,0.4c-0.1,0-0.2,0-0.3,0
			c0,0-0.2-0.1-0.4-0.3c-0.3-0.2-0.5-0.5-0.8-0.7c-0.3-0.3-0.5-0.6-0.6-1c-0.1-0.4,0.1-0.8,0.1-1.2c0-0.4,0-0.8,0.1-1.2
			c0-0.4,0.1-0.7,0.1-1.1c0.1-0.7,0.2-1.1,0.2-1.1C443.4,168.3,443.5,168.2,443.5,168.1z"/>
	</g>
</g>
<g id="XMLID_87_">
	<g>
		<path id="XMLID_315_" d="M444.9,172.7c0,0-0.1,3-0.3,7.4c-0.2,4.4-0.6,10.2-0.9,15.8c-0.1,1.4-0.1,2.7-0.2,4.1
			c-0.1,1.3-0.1,2.7-0.3,3.9c-0.1,1.2-0.3,2.4-0.5,3.4c-0.2,1-0.4,2-0.6,2.8c-0.8,3.4-1.8,4.9-1.8,4.9c-0.1-0.1-0.2-0.2-0.3-0.2
			c0,0-0.4-2.8-0.3-6.2c0-0.9,0-1.9,0.1-2.8c0-1,0.1-2,0.3-3.1c0.1-1.1,0.3-2.2,0.6-3.4c0.2-1.2,0.4-2.4,0.6-3.7
			c0.8-5,1.6-10.5,2.2-15c0.6-4.4,1.1-7.7,1.1-7.7C444.7,172.9,444.8,172.8,444.9,172.7z"/>
	</g>
</g>
<g id="XMLID_86_">
	<g>
		<path id="XMLID_307_" d="M440.4,216.3c0,0-0.3,0.7-0.7,1.7c-0.2,0.4-0.5,1.1-0.8,1.6c-0.3,0.6-0.6,1.2-0.9,1.8
			c-0.3,0.6-0.5,1.2-0.9,1.7c-0.4,0.5-0.9,0.7-1.3,1c-0.5,0.1-0.9,0.3-1.3,0.3c-0.3,0.1-0.6,0-0.6,0c-0.1-0.1-0.1-0.1-0.2-0.2
			c0,0,0-0.2,0-0.5c0-0.4,0.1-0.7,0.2-1.2c0.2-0.4,0.4-0.9,0.8-1.3c0.4-0.5,1-0.7,1.5-1.2c0.5-0.4,1-0.9,1.4-1.4
			c0.5-0.4,0.9-0.9,1.3-1.2c0.8-0.7,1.3-1.2,1.3-1.2C440.3,216.2,440.3,216.2,440.4,216.3z"/>
	</g>
</g>
<g id="XMLID_85_">
	<g>
		<path id="XMLID_299_" d="M433.8,223.9c0,0-3.2,1.4-8,3.6c-4.8,2.1-11.2,4.7-17.6,7.1c-1.6,0.6-3.2,1.2-4.8,1.7
			c-1.6,0.6-3.1,1.1-4.6,1.6c-1.5,0.5-3,0.9-4.4,1.2c-1.4,0.3-2.8,0.7-4,0.9c-5,1.1-8.4,1.4-8.4,1.4c0-0.1-0.1-0.2-0.1-0.3
			c0,0,3-1.4,7.8-3.3c1.2-0.4,2.5-0.9,3.8-1.4c1.4-0.5,2.8-1,4.3-1.5c1.5-0.5,3.1-1,4.7-1.3c1.6-0.5,3.3-1,4.9-1.5
			c6.6-2,13.1-4.2,18-5.8c4.9-1.6,8.2-2.8,8.2-2.8C433.7,223.7,433.7,223.8,433.8,223.9z"/>
	</g>
</g>
<g id="XMLID_84_">
	<g>
		<path id="XMLID_275_" d="M381.8,241.1c0,0,1.3-1.2,3.2-3.1c1-1,2.1-2.1,3.3-3.3c1.2-1.3,2.5-2.7,3.8-4c0.6-0.7,1.3-1.5,1.9-2.2
			c0.6-0.7,1.2-1.5,1.9-2.2c0.6-0.6,1.3-1.3,1.9-2c0.6-0.6,1.3-1.1,1.8-1.7c2.3-2.1,4.2-3.2,4.2-3.2c0.1,0.1,0.1,0.1,0.2,0.2
			c0,0-0.9,2.1-2.7,4.7c-0.4,0.7-0.9,1.3-1.5,2c-0.5,0.7-1.1,1.4-1.8,2.1c-0.7,0.6-1.4,1.3-2.1,1.9c-0.7,0.6-1.5,1.2-2.2,1.9
			c-1.5,1.3-2.9,2.5-4.3,3.6c-1.4,1.1-2.7,2.1-3.8,2.8C383.4,240.2,381.9,241.1,381.8,241.1C381.9,241.1,381.8,241.1,381.8,241.1z"
			/>
	</g>
</g>
<g id="XMLID_83_">
	<g>
		<path id="XMLID_271_" d="M403.8,220.8c0,0-0.2-0.6-0.5-1.4c-0.2-0.4-0.3-0.8-0.5-1.4c-0.2-0.5-0.3-1-0.5-1.5
			c-0.1-0.5-0.5-0.9-0.5-1.4c-0.1-0.4,0.1-0.9,0.2-1.3c0.2-0.4,0.4-0.8,0.5-1c0.2-0.3,0.3-0.5,0.3-0.5c0.1,0,0.2-0.1,0.3-0.1
			c0,0,0.2,0,0.4,0.2c0.3,0.1,0.5,0.4,0.8,0.8c0.2,0.4,0.5,0.8,0.5,1.3c0,0.6-0.2,1.1-0.2,1.8c0,0.5-0.1,1.2-0.1,1.7
			c0,0.5-0.1,1.1-0.2,1.5c-0.1,0.8-0.2,1.3-0.2,1.3C404,220.9,403.9,220.9,403.8,220.8z"/>
	</g>
</g>
<g id="XMLID_82_">
	<g>
		<path id="XMLID_267_" d="M403.1,212.1c0,0,0,0.6-0.1,1.2c0,0.3-0.1,0.8-0.1,1.3c-0.1,0.4-0.2,1-0.2,1.4c-0.1,0.4-0.1,1-0.2,1.4
			c-0.2,0.4-0.5,0.6-0.8,0.8c-0.3,0.2-0.7,0.3-0.9,0.3c-0.3,0-0.5,0-0.5,0c-0.1,0-0.2-0.1-0.3-0.1c0,0-0.1-0.2-0.2-0.4
			c-0.1-0.3-0.2-0.6-0.3-0.9c0-0.4,0-0.7,0.1-1.1c0.2-0.4,0.6-0.5,0.9-0.9c0.3-0.4,0.5-0.7,0.8-1c0.3-0.3,0.5-0.7,0.8-1
			c0.5-0.6,0.8-1,0.8-1C403,212,403,212.1,403.1,212.1z"/>
	</g>
</g>
<g id="XMLID_81_">
	<g>
		<path id="XMLID_255_" d="M400.1,217.8c0,0-1.3,1.5-3.2,3.6c-1,1-2.1,2.2-3.4,3.5c-1.2,1.3-2.6,2.5-3.9,3.7c-0.7,0.6-1.3,1.2-2,1.9
			c-0.6,0.6-1.3,1.1-1.9,1.7c-0.7,0.5-1.3,0.9-2,1.3c-0.6,0.4-1.3,0.7-1.8,1c-2.3,1.2-4.1,1.5-4.1,1.5c-0.1-0.1-0.1-0.1-0.2-0.2
			c0,0,1-1.4,2.8-3.1c0.5-0.4,1-0.9,1.5-1.4c0.5-0.5,1.2-1,1.8-1.5c0.7-0.5,1.4-0.9,2.1-1.4c0.7-0.5,1.5-1,2.2-1.5
			c1.5-1.1,2.9-2.1,4.3-3.2c1.4-1.1,2.7-2.1,3.8-2.9c2.2-1.7,3.7-3,3.7-3C399.9,217.8,400,217.8,400.1,217.8z"/>
	</g>
</g>
<g id="XMLID_80_">
	<g>
		<path id="XMLID_250_" d="M377.6,235.2c0,0,1.1-1.5,2.8-4c1.7-2.5,4.1-6,6.4-9.8c0.6-1,1.1-1.9,1.7-2.9c0.6-1,1.1-2,1.7-2.9
			c0.6-1,1.2-1.8,1.8-2.6c0.6-0.9,1.2-1.7,1.7-2.4c2.2-3,4-4.8,4-4.8c0.1,0.1,0.1,0.1,0.2,0.2c0,0-0.7,2.5-2.3,5.9
			c-0.4,0.8-0.8,1.7-1.3,2.7c-0.5,0.9-1,1.9-1.6,2.8c-0.6,1-1.3,1.8-2,2.8c-0.7,0.9-1.4,1.9-2,2.7c-2.7,3.6-5.4,6.8-7.5,9.1
			c-2.1,2.2-3.5,3.6-3.5,3.6C377.7,235.4,377.6,235.3,377.6,235.2z"/>
	</g>
</g>
<g id="XMLID_79_">
	<g>
		<path id="XMLID_244_" d="M397,207.8c0,0-0.2-2.2-0.4-5.1c-0.1-1.5-0.2-3.2-0.3-5c-0.1-1.8-0.2-3.6-0.3-5.5
			c-0.1-0.9-0.1-1.8-0.2-2.7c-0.1-0.9-0.1-1.7-0.2-2.6c0-0.8,0-1.6,0.1-2.5c0.1-0.9,0.1-1.7,0.3-2.6c0.4-3,1.1-5.8,1.1-5.8
			c0.1-0.1,0.2-0.2,0.3-0.3c0,0,0.7,1.4,1.1,4.4c0.1,0.7,0.2,1.6,0.3,2.5c0.1,0.9,0.1,1.9,0.1,2.9c0,1-0.1,2.1-0.2,3.2
			c-0.1,1.1-0.1,2.2-0.2,3.3c-0.1,2.2-0.2,4.3-0.3,6.1c-0.1,2-0.2,3.7-0.3,5.2c-0.2,3-0.4,4.7-0.4,4.7
			C397.3,208,397.2,207.8,397,207.8C397,207.7,397,207.7,397,207.8z"/>
	</g>
</g>
<g id="XMLID_78_">
	<g>
		<path id="XMLID_238_" d="M398.1,175.7c0,0,0,0.9-0.1,2.3c0,0.7-0.1,1.4-0.2,2.3c-0.1,0.9-0.2,1.7-0.3,2.6
			c-0.1,0.9-0.1,1.8-0.3,2.5c-0.2,0.7-0.5,1.4-0.9,1.8c-0.4,0.4-0.7,0.8-1,1c-0.3,0.2-0.5,0.2-0.5,0.2c-0.1-0.1-0.2-0.1-0.3-0.2
			c0,0-0.1-0.2-0.2-0.6c-0.1-0.4-0.2-1-0.3-1.5c0-0.5,0-1.3,0.2-1.9c0.2-0.6,0.7-1.3,1-2c0.3-0.8,0.6-1.5,0.9-2.2
			c0.3-0.7,0.6-1.5,0.9-2.1c0.5-1.3,0.9-2.3,0.9-2.3C398,175.7,398,175.7,398.1,175.7z"/>
	</g>
</g>
<g id="XMLID_77_">
	<g>
		<path id="XMLID_229_" d="M394.8,188.2c0,0,0.1,1,0.1,2.8c0,0.9,0.1,1.8,0.1,2.9c0,1.1,0,2.2,0,3.4c0,1.1,0.1,2.3,0,3.4
			c-0.1,1.1-0.4,2-0.6,2.6c-0.3,0.7-0.6,1.2-0.9,1.5c-0.3,0.3-0.5,0.5-0.5,0.5c-0.1-0.1-0.2-0.1-0.3-0.2c0,0-0.1-0.3-0.3-0.8
			c-0.2-0.6-0.3-1.2-0.5-2c-0.1-0.8-0.2-1.6-0.1-2.5c0.1-0.9,0.5-1.8,0.7-2.7c0.2-0.9,0.4-1.9,0.6-2.9c0.2-1,0.4-1.9,0.6-2.8
			c0.4-1.7,0.6-2.8,0.6-2.8C394.5,188.5,394.6,188.4,394.8,188.2z"/>
	</g>
</g>
<g id="XMLID_119_">
	<g>
		<path id="XMLID_293_" class="st1" d="M319.9,345.4c0,0-0.7-0.2-1.6-0.5c-0.5-0.1-1-0.3-1.6-0.5c-0.6-0.2-1.2-0.4-1.8-0.6
			c-0.6-0.2-1.3-0.3-1.9-0.5c-0.5-0.3-1-0.7-1.3-0.9c-0.3-0.4-0.6-0.7-0.8-1c-0.2-0.3-0.2-0.4-0.2-0.4c0-0.1,0.1-0.2,0.1-0.3
			c0,0,0.2-0.1,0.6-0.2c0.4-0.1,0.8-0.1,1.3-0.2c0.5,0,1.1,0,1.6,0.3c0.5,0.3,1,0.7,1.5,1.1c0.5,0.4,1.1,0.7,1.6,1.1
			c0.5,0.4,0.9,0.7,1.3,1.1c0.8,0.7,1.3,1.2,1.3,1.2C320,345.3,319.9,345.4,319.9,345.4z"/>
	</g>
</g>
<g id="XMLID_120_">
	<g>
		<path id="XMLID_291_" class="st1" d="M310.6,340.9c0,0-0.4-0.4-1-0.9c-0.3-0.2-0.6-0.5-1-0.8c-0.4-0.3-0.7-0.6-1.1-0.9
			c-0.4-0.3-0.8-0.5-1.1-0.9c-0.3-0.3-0.4-0.7-0.4-1.1c0-0.4,0-0.7,0-1c0-0.3,0.1-0.5,0.1-0.5c0.1-0.1,0.1-0.1,0.2-0.2
			c0,0,0.2,0,0.5-0.1c0.3,0,0.7,0,1,0.2c0.4,0.1,0.7,0.3,1,0.6c0.2,0.4,0.3,0.9,0.5,1.3c0.2,0.4,0.4,0.9,0.6,1.4
			c0.2,0.4,0.3,0.9,0.4,1.3c0.3,0.8,0.4,1.4,0.4,1.3C310.7,340.8,310.6,340.8,310.6,340.9z"/>
	</g>
</g>
<g id="XMLID_122_">
	<g>
		<path id="XMLID_223_" d="M320.3,344.7c0,0,0.5-0.3,1.3-1c0.4-0.3,0.8-0.6,1.3-0.9c0.5-0.4,1-0.7,1.6-1.1c0.5-0.4,1-0.9,1.6-1.3
			c0.5-0.3,1.1-0.5,1.6-0.5c0.5,0,1-0.1,1.3,0c0.3,0.1,0.6,0.2,0.6,0.2c0,0.1,0.1,0.2,0.1,0.3c0,0-0.1,0.2-0.2,0.6
			c-0.2,0.3-0.4,0.8-0.8,1.2c-0.4,0.4-0.8,0.9-1.3,1.1c-0.6,0.2-1.2,0.3-1.9,0.5c-0.6,0.2-1.2,0.4-1.8,0.4c-0.6,0.2-1.2,0.2-1.6,0.3
			c-1,0.1-1.6,0.3-1.6,0.3C320.4,344.8,320.4,344.7,320.3,344.7z"/>
	</g>
</g>
<g id="XMLID_121_">
	<g>
		<path id="XMLID_219_" d="M329.6,340.1c0,0,0.1-0.4,0.4-1.1c0.1-0.3,0.3-0.6,0.5-1.1c0.2-0.4,0.4-0.8,0.6-1.2
			c0.2-0.4,0.3-0.9,0.5-1.3c0.3-0.3,0.6-0.7,1-0.8c0.4-0.1,0.7-0.3,1-0.4c0.3,0,0.5-0.1,0.5-0.1c0.1,0.1,0.1,0.1,0.2,0.2
			c0,0,0.1,0.2,0.1,0.5c0.1,0.3,0.1,0.8,0,1.2c-0.1,0.4-0.2,0.9-0.4,1.3c-0.3,0.3-0.8,0.5-1.1,0.9c-0.4,0.3-0.7,0.6-1.1,0.9
			c-0.4,0.3-0.7,0.4-1,0.6c-0.6,0.3-1,0.5-1,0.5C329.7,340.2,329.7,340.2,329.6,340.1z"/>
	</g>
</g>
<g id="XMLID_123_">
	<g>
		<path id="XMLID_289_" class="st1" d="M305.2,334.3c0,0,0.9-0.3,2.2-0.7c0.7-0.2,1.4-0.5,2.2-0.7c0.8-0.3,1.7-0.6,2.6-0.9
			c0.9-0.3,1.7-0.7,2.6-1c0.8-0.2,1.7-0.3,2.4-0.2c0.7,0.1,1.3,0.2,1.8,0.3c0.4,0.1,0.7,0.2,0.7,0.2c0,0.1,0.1,0.2,0.1,0.3
			c0,0-0.2,0.2-0.5,0.6c-0.4,0.3-0.9,0.7-1.5,1.1c-0.6,0.3-1.4,0.7-2.2,0.8c-0.9,0.2-1.8,0.1-2.7,0.2c-0.9,0.1-1.8,0.2-2.7,0.1
			c-0.9,0.1-1.7,0.1-2.4,0c-1.4,0.1-2.3,0-2.3,0C305.4,334.5,305.3,334.4,305.2,334.3z"/>
	</g>
</g>
<g id="XMLID_124_">
	<g>
		<path id="XMLID_287_" class="st1" d="M305.1,335.6c0,0-0.8-1.4-1.8-3.4c-0.5-1-1.2-2.2-1.8-3.3c-0.7-1.2-1.3-2.4-2-3.5
			c-0.7-1.2-1.5-2.2-2.1-3.2c-0.6-1-0.9-2.1-1.2-2.9c-0.3-0.9-0.4-1.7-0.5-2.2c-0.1-0.5-0.1-0.9-0.1-0.9c0.1,0,0.2-0.1,0.3-0.2
			c0,0,0.3,0.1,0.8,0.5c0.5,0.3,1,0.8,1.7,1.5c0.6,0.7,1.3,1.6,1.8,2.7c0.5,1.1,0.9,2.4,1.4,3.7c0.5,1.3,1,2.6,1.4,3.9
			c0.5,1.3,0.9,2.5,1.2,3.6c0.7,2.1,1.1,3.7,1.1,3.7C305.2,335.6,305.2,335.6,305.1,335.6z"/>
	</g>
</g>
<g id="XMLID_125_">
	<g>
		<path id="XMLID_285_" class="st1" d="M295.7,314.5c0,0,0.1-0.9,0.4-2.1c0.1-0.6,0.3-1.4,0.4-2.3c0.2-0.8,0.4-1.8,0.6-2.6
			c0.2-0.9,0.3-1.8,0.5-2.7c0.3-0.9,0.7-1.7,1.1-2.5c0.4-0.7,0.8-1.3,1.2-1.8c0.3-0.4,0.6-0.7,0.6-0.7c0.1,0,0.2,0,0.3,0
			c0,0,0.1,0.3,0.2,0.8c0.1,0.5,0.1,1.2,0.1,2.1c0,0.9-0.1,1.8-0.4,2.8c-0.3,1-0.8,1.9-1.2,2.8c-0.4,0.9-0.8,1.8-1.2,2.6
			c-0.4,0.8-0.8,1.5-1.1,2.1c-0.6,1.1-1.1,1.8-1.1,1.8C296,314.7,295.8,314.6,295.7,314.5z"/>
	</g>
</g>
<g id="XMLID_126_">
	<g>
		<path id="XMLID_283_" class="st1" d="M299.6,300c0,0-0.2-0.2-0.4-0.8c-0.1-0.3-0.2-0.5-0.3-0.9c-0.1-0.4-0.2-0.7-0.3-1
			c-0.1-0.4-0.3-0.6-0.4-1c0-0.4,0.2-0.6,0.4-0.9c0.2-0.3,0.4-0.6,0.7-0.9c0.2-0.2,0.4-0.5,0.4-0.5c0.1,0,0.2,0,0.3-0.1
			c0,0,0.2,0.2,0.4,0.3c0.2,0.2,0.5,0.4,0.7,0.6c0.2,0.3,0.4,0.6,0.4,1.1c0,0.4-0.3,0.8-0.4,1.2c-0.1,0.4-0.2,0.9-0.3,1.2
			c-0.1,0.4-0.2,0.5-0.3,0.8c-0.2,0.6-0.4,0.8-0.4,0.8c-0.2,0-0.3-0.1-0.5-0.1C299.6,299.8,299.6,299.9,299.6,300z"/>
	</g>
</g>
<g id="XMLID_127_">
	<g>
		<path id="XMLID_281_" class="st1" d="M300.4,294.5c0,0-0.4-0.1-1-0.4c-0.3-0.1-0.6-0.3-1-0.4c-0.4-0.1-0.7-0.3-1.1-0.5
			c-0.3-0.2-0.8-0.2-1.1-0.4c-0.3-0.2-0.4-0.6-0.5-0.8c-0.1-0.3-0.1-0.6-0.1-0.8c0-0.3,0-0.5,0-0.5c0.1-0.1,0.1-0.1,0.2-0.2
			c0,0,0.2-0.1,0.4-0.1c0.3-0.1,0.6-0.1,1-0.2c0.3,0,0.7,0,1,0.2c0.3,0.2,0.4,0.7,0.6,1c0.2,0.3,0.5,0.6,0.7,0.9
			c0.2,0.3,0.4,0.6,0.5,1c0.3,0.6,0.5,1,0.5,1C300.5,294.4,300.4,294.5,300.4,294.5z"/>
	</g>
</g>
<g id="XMLID_128_">
	<g>
		<path id="XMLID_279_" class="st1" d="M295.9,290.5c0,0-0.2,0.2-0.6,0.6c-0.2,0.2-0.4,0.3-0.6,0.5c-0.2,0.2-0.5,0.3-0.8,0.5
			c-0.3,0.2-0.5,0.5-0.7,0.6c-0.3,0.1-0.6,0-0.8-0.2c-0.3-0.2-0.5-0.3-0.7-0.5c-0.2-0.2-0.3-0.3-0.3-0.3c0-0.1-0.1-0.2-0.1-0.3
			c0,0,0-0.2,0.1-0.4c0.1-0.2,0.2-0.5,0.3-0.7c0.2-0.2,0.4-0.5,0.6-0.5c0.3,0,0.6,0.1,0.9,0c0.3,0,0.6,0,0.9,0
			c0.3,0,0.6,0.1,0.8,0.2c0.5,0.1,0.8,0.2,0.8,0.2C295.8,290.3,295.8,290.4,295.9,290.5z"/>
	</g>
</g>
<g id="XMLID_129_">
	<g>
		<path id="XMLID_277_" class="st1" d="M291.2,291.7c0,0-0.3-0.3-0.6-0.6c-0.2-0.1-0.4-0.3-0.6-0.6c-0.2-0.2-0.4-0.4-0.6-0.6
			c-0.2-0.2-0.5-0.4-0.6-0.6c-0.1-0.2,0-0.4,0.1-0.7c0.1-0.3,0.3-0.5,0.4-0.7c0.1-0.2,0.3-0.3,0.3-0.3c0.1,0,0.2-0.1,0.3-0.1
			c0,0,0.2,0,0.4-0.1c0.3,0,0.5,0,0.8,0.1c0.3,0.1,0.5,0.3,0.6,0.5c0.1,0.2,0,0.7,0,1c0,0.3,0,0.7,0,1c0,0.3,0,0.5,0,0.9
			c0,0.5-0.1,0.9-0.1,0.9C291.5,291.8,291.3,291.7,291.2,291.7z"/>
	</g>
</g>
<g id="XMLID_130_">
	<g>
		<path id="XMLID_265_" class="st1" d="M289.5,286.9c0,0,0.2-0.7,0.6-1.7c0.2-0.5,0.4-1.2,0.7-1.8c0.3-0.6,0.6-1.4,0.9-2.2
			c0.3-0.8,0.5-1.6,0.8-2.3c0.4-0.7,0.8-1.3,1.3-1.9c0.5-0.5,0.9-1,1.3-1.2c0.4-0.3,0.6-0.4,0.6-0.4c0.1,0,0.2,0,0.3,0.1
			c0,0,0.1,0.3,0.1,0.8c0,0.4,0,1.1-0.1,1.8c-0.1,0.7-0.3,1.5-0.7,2.2c-0.4,0.8-1,1.4-1.5,2c-0.5,0.7-0.9,1.3-1.4,2
			c-0.5,0.6-0.9,1.1-1.3,1.5c-0.8,0.8-1.3,1.3-1.3,1.3C289.7,287,289.6,286.9,289.5,286.9z"/>
	</g>
</g>
<g id="XMLID_131_">
	<g>
		<path id="XMLID_260_" class="st1" d="M295.7,276.5c0,0-0.4-0.4-0.9-0.9c-0.3-0.2-0.6-0.6-0.9-0.8c-0.3-0.3-0.6-0.6-1-0.9
			c-0.3-0.3-0.8-0.5-1-0.9c-0.2-0.3-0.3-0.6-0.3-1c0-0.4,0-0.6,0.1-0.9c0.1-0.3,0.2-0.5,0.2-0.5c0.1-0.1,0.2-0.1,0.3-0.2
			c0,0,0.2,0,0.5-0.1c0.3,0,0.6,0,1,0.2c0.3,0.2,0.7,0.3,0.9,0.6c0.2,0.4,0.2,0.9,0.4,1.3c0.1,0.4,0.3,0.8,0.4,1.3
			c0.1,0.4,0.2,0.9,0.3,1.2c0.2,0.8,0.3,1.2,0.3,1.2C295.9,276.3,295.8,276.4,295.7,276.5z"/>
	</g>
</g>
<g id="XMLID_132_">
	<g>
		<path id="XMLID_257_" class="st1" d="M291.9,269.9c0,0-0.1-0.5-0.1-1c0-0.3,0-0.6,0-1c0-0.4,0-0.7,0-1.2c0-0.4-0.1-0.8,0-1.2
			c0.1-0.4,0.4-0.7,0.6-0.9c0.3-0.2,0.6-0.5,0.9-0.6c0.3-0.2,0.5-0.3,0.5-0.3c0.1,0,0.2,0,0.3,0c0,0,0.1,0.2,0.3,0.4
			c0.2,0.2,0.3,0.6,0.4,0.9c0.1,0.4,0.2,0.9,0,1.2c-0.1,0.4-0.5,0.8-0.7,1.2c-0.2,0.4-0.4,0.8-0.7,1.1c-0.2,0.3-0.4,0.7-0.6,0.8
			c-0.4,0.5-0.7,0.7-0.7,0.7C292,270,292,270,291.9,269.9z"/>
	</g>
</g>
<g id="XMLID_142_">
	<g>
		<path id="XMLID_215_" d="M334.9,335c0,0-0.9,0-2.3-0.2c-0.7,0-1.5-0.1-2.4-0.2c-0.9-0.1-1.8-0.2-2.7-0.3c-0.9-0.1-1.9,0-2.7-0.2
			c-0.9-0.2-1.6-0.5-2.3-0.8c-0.6-0.3-1.2-0.6-1.5-0.9c-0.4-0.3-0.5-0.4-0.5-0.4c0-0.1,0.1-0.2,0.1-0.3c0,0,0.3-0.1,0.7-0.2
			c0.4-0.1,1.1-0.2,1.8-0.3c0.7,0,1.6-0.1,2.4,0c0.8,0.2,1.7,0.5,2.6,0.8c0.9,0.3,1.8,0.6,2.6,0.9c0.8,0.3,1.6,0.6,2.3,0.9
			c1.3,0.6,2.2,0.9,2.2,0.9C335.1,334.8,335,334.9,334.9,335z"/>
	</g>
</g>
<g id="XMLID_141_">
	<g>
		<path id="XMLID_211_" d="M334.8,333.6c0,0,0.4-1.1,1.1-2.7c0.3-0.9,0.7-1.9,1.2-3c0.4-1.1,1-2.3,1.5-3.5c0.5-1.3,0.9-2.6,1.4-3.7
			c0.6-1.2,1.2-2.3,1.8-3.3c0.6-0.9,1.2-1.8,1.7-2.3c0.5-0.5,0.8-0.9,0.8-0.9c0.1,0,0.2,0,0.3,0c0,0,0,0.4-0.1,1.1
			c-0.1,0.7-0.2,1.7-0.5,2.8c-0.3,1.1-0.6,2.3-1.2,3.7c-0.6,1.2-1.4,2.4-2.1,3.6c-0.7,1.2-1.4,2.3-2,3.3c-0.7,1-1.3,1.9-1.8,2.7
			c-1.1,1.4-1.8,2.4-1.8,2.4C335,333.7,334.9,333.7,334.8,333.6z"/>
	</g>
</g>
<g id="XMLID_140_">
	<g>
		<path id="XMLID_207_" d="M344.2,315.9c0,0-0.5-1.1-1.1-2.6c-0.3-0.8-0.7-1.6-1.1-2.5c-0.4-0.8-0.8-1.8-1.2-2.6
			c-0.4-0.9-0.9-1.6-1.2-2.4c-0.3-0.8-0.4-1.5-0.4-2.2c0-0.7,0-1.3,0.1-1.7c0.1-0.5,0.2-0.8,0.2-0.8c0.1-0.1,0.2-0.1,0.3-0.2
			c0,0,0.2,0.1,0.6,0.3c0.3,0.2,0.7,0.6,1.2,1.2c0.4,0.5,0.8,1.3,1.1,2.1c0.3,0.9,0.3,1.9,0.5,2.9c0.2,1,0.4,2,0.6,3
			c0.2,1,0.3,1.9,0.4,2.7c0.2,1.6,0.4,2.7,0.4,2.7C344.5,315.9,344.3,315.9,344.2,315.9z"/>
	</g>
</g>
<g id="XMLID_138_">
	<g>
		<path id="XMLID_203_" d="M339.6,293.9c0,0,0.2-0.3,0.5-0.8c0.2-0.3,0.3-0.5,0.5-0.8c0.2-0.3,0.4-0.6,0.7-0.9
			c0.2-0.3,0.4-0.7,0.6-1c0.3-0.2,0.6-0.3,1-0.4c0.4,0,0.7-0.1,1,0c0.3,0.1,0.4,0.1,0.4,0.1c0.1,0.1,0.1,0.1,0.2,0.2
			c0,0,0,0.2,0,0.5c0,0.3,0,0.7-0.1,1c-0.1,0.3-0.3,0.8-0.5,1c-0.3,0.2-0.7,0.2-1.1,0.4c-0.4,0.2-0.7,0.3-1.1,0.3
			c-0.3,0.1-0.7,0.2-1,0.2C340.1,293.9,339.7,294,339.6,293.9C339.7,294,339.6,293.9,339.6,293.9z"/>
	</g>
</g>
<g id="XMLID_137_">
	<g>
		<path id="XMLID_197_" d="M344.4,290.4c0,0,0.3-0.1,0.8-0.2c0.2-0.1,0.5-0.1,0.8-0.2c0.3-0.1,0.6-0.1,0.9-0.2
			c0.3,0,0.6-0.2,0.9-0.2c0.3,0.1,0.5,0.3,0.6,0.5c0.2,0.3,0.3,0.5,0.4,0.9c0.1,0.2,0.1,0.4,0.1,0.4c0,0.1-0.1,0.2-0.1,0.3
			c0,0-0.1,0.2-0.3,0.3c-0.2,0.2-0.4,0.4-0.7,0.5c-0.3,0.1-0.5,0.2-0.8,0.2c-0.3-0.1-0.5-0.4-0.7-0.6c-0.3-0.2-0.5-0.3-0.8-0.5
			c-0.2-0.2-0.5-0.4-0.6-0.5c-0.4-0.3-0.6-0.4-0.6-0.4C344.3,290.6,344.4,290.5,344.4,290.4z"/>
	</g>
</g>
<g id="XMLID_136_">
	<g>
		<path id="XMLID_190_" d="M348.8,291.3c0,0-0.1-0.3-0.1-0.7c0-0.2,0-0.5,0-0.7c0-0.3,0-0.5,0-0.8c0-0.3-0.1-0.5,0-0.8
			c0.1-0.2,0.3-0.4,0.6-0.5c0.3-0.1,0.6-0.3,0.8-0.3c0.2,0,0.4-0.1,0.4-0.1c0.1,0,0.2,0,0.3,0.1c0,0,0.1,0.1,0.3,0.3
			c0.2,0.2,0.3,0.4,0.4,0.7c0.1,0.3,0.2,0.5,0.1,0.9c-0.1,0.2-0.5,0.4-0.6,0.6c-0.2,0.2-0.4,0.4-0.6,0.6c-0.2,0.2-0.4,0.4-0.6,0.4
			c-0.3,0.3-0.6,0.4-0.6,0.4C349.1,291.4,348.9,291.3,348.8,291.3z"/>
	</g>
</g>
<g id="XMLID_135_">
	<g>
		<path id="XMLID_185_" d="M350.5,288.2c0,0-0.5-0.8-1.3-1.9c-0.4-0.6-0.8-1.2-1.3-1.9c-0.5-0.6-0.9-1.4-1.4-2
			c-0.5-0.7-1.1-1.2-1.5-1.8c-0.4-0.6-0.6-1.2-0.7-1.8c-0.1-0.5-0.1-1.1-0.1-1.4c0-0.4,0.1-0.6,0.1-0.6c0.1,0,0.2-0.1,0.3-0.1
			c0,0,0.3,0,0.6,0.2c0.4,0.1,0.8,0.3,1.3,0.8c0.5,0.3,1,0.9,1.3,1.5c0.3,0.7,0.5,1.5,0.8,2.3c0.3,0.8,0.6,1.6,0.9,2.4
			c0.3,0.8,0.5,1.5,0.7,2.2c0.4,1.3,0.6,2.3,0.6,2.3C350.7,288.3,350.6,288.2,350.5,288.2z"/>
	</g>
</g>
<g id="XMLID_134_">
	<g>
		<path id="XMLID_180_" d="M344.3,275.7c0,0,0.1-0.4,0.3-1c0.1-0.3,0.2-0.6,0.3-1c0.1-0.4,0.3-0.7,0.4-1.1c0.2-0.4,0.2-0.9,0.4-1.3
			c0.2-0.3,0.6-0.6,0.9-0.8c0.4-0.3,0.7-0.4,1-0.4c0.3,0,0.5-0.1,0.5-0.1c0.1,0.1,0.2,0.1,0.3,0.2c0,0,0.1,0.2,0.2,0.5
			c0.1,0.3,0.1,0.6,0.1,1.1c0,0.4-0.1,0.9-0.3,1.2c-0.2,0.3-0.7,0.6-1,0.9c-0.3,0.3-0.6,0.6-1,0.9c-0.3,0.3-0.6,0.4-0.9,0.6
			c-0.5,0.3-0.9,0.5-0.9,0.5C344.5,275.9,344.4,275.8,344.3,275.7z"/>
	</g>
</g>
<g id="XMLID_133_">
	<g>
		<path id="XMLID_172_" d="M348,270.6c0,0-0.3-0.5-0.7-1.1c-0.2-0.3-0.4-0.7-0.6-1c-0.2-0.3-0.4-0.7-0.7-1.1c-0.2-0.4-0.6-0.7-0.7-1
			c-0.1-0.4-0.1-0.7,0-1c0.1-0.4,0.3-0.7,0.4-0.9c0.2-0.2,0.3-0.4,0.3-0.4c0.1-0.1,0.2-0.1,0.3-0.2c0,0,0.2,0.1,0.5,0.1
			c0.3,0,0.6,0.2,0.9,0.4c0.3,0.3,0.5,0.6,0.6,0.9c0.1,0.4,0,1,0,1.4c0,0.4,0.1,1,0,1.4c0,0.4,0,0.9,0,1.2c0,0.8-0.1,1.2-0.1,1.2
			C348.1,270.5,348.1,270.5,348,270.6z"/>
	</g>
</g>
<g id="XMLID_139_">
	<g>
		<path id="XMLID_169_" d="M338,300c0,0-0.2-0.2-0.4-0.8c-0.1-0.3-0.2-0.5-0.3-0.9c-0.1-0.4-0.2-0.7-0.3-1c-0.1-0.4-0.3-0.6-0.4-1
			c0-0.4,0.2-0.6,0.4-0.9c0.2-0.3,0.4-0.6,0.7-0.9c0.2-0.2,0.4-0.5,0.4-0.5c0.1,0,0.2,0,0.3-0.1c0,0,0.2,0.2,0.4,0.3
			c0.2,0.2,0.5,0.4,0.7,0.6c0.2,0.3,0.4,0.6,0.4,1.1c0,0.4-0.3,0.8-0.4,1.2c-0.1,0.4-0.2,0.9-0.3,1.2c-0.1,0.4-0.2,0.5-0.3,0.8
			c-0.2,0.6-0.4,0.8-0.4,0.8c-0.2,0-0.3-0.1-0.5-0.1C338,299.8,338,299.9,338,300z"/>
	</g>
</g>
<g id="XMLID_39_">
	<g>
		<path id="XMLID_232_" class="st1" d="M246.8,208c0,0,3.8,2.6,9.5,6.8c5.7,4.2,13.3,10.2,20.9,16.9c1.9,1.6,3.8,3.3,5.7,5
			c1.9,1.7,3.7,3.4,5.5,5.1c1.7,1.7,3.4,3.4,4.9,5.1c1.6,1.7,3,3.2,4.3,4.8c5.3,6.1,8.6,10.8,8.6,10.7c-0.1,0.1-0.1,0.1-0.2,0.2
			c0,0-4.2-3.6-10-9.1c-1.5-1.4-3-2.8-4.7-4.4c-1.7-1.6-3.4-3.2-5.1-4.9c-1.7-1.7-3.5-3.5-5.3-5.3c-1.8-1.8-3.6-3.6-5.4-5.3
			c-7.3-7-14.6-13.3-20-17.8c-5.4-4.6-9-7.4-9-7.4C246.6,208.3,246.7,208.1,246.8,208z"/>
	</g>
</g>
<g id="XMLID_76_">
	<g>
		<path id="XMLID_593_" class="st1" d="M306,260.8c0,0,0.8-0.2,2-0.4c0.6-0.1,1.3-0.2,2.1-0.3c0.8-0.1,1.6-0.2,2.5-0.3
			c0.8-0.1,1.7-0.3,2.5-0.5c0.8,0,1.5,0.2,2.2,0.4c0.6,0.2,1,0.4,1.3,0.7c0.4,0.2,0.4,0.4,0.4,0.4c0,0.1,0,0.2,0,0.3
			c0,0,0,0.2-0.4,0.4c-0.4,0.2-0.8,0.5-1.4,0.7c-0.6,0.2-1.3,0.4-2.1,0.4c-0.8,0-1.6-0.3-2.5-0.5c-0.8-0.1-1.7-0.2-2.5-0.3
			c-0.8-0.1-1.4-0.2-2.1-0.3c-1.3-0.2-2-0.4-2-0.4C306,261.1,306,261,306,260.8z"/>
	</g>
</g>
<g id="XMLID_144_">
	<g>
		<path id="XMLID_166_" d="M392.7,202.8c0,0-3.6,4.2-9.1,10.2c-5.4,6-12.8,13.5-20.1,20.4c-1.8,1.7-3.6,3.5-5.4,5.1
			c-1.8,1.6-3.6,3.2-5.3,4.7c-1.8,1.5-3.5,2.8-5.1,4.1c-1.6,1.2-3.2,2.4-4.7,3.4c-5.8,4.1-10,6.3-10,6.3c-0.1-0.1-0.1-0.1-0.2-0.2
			c0,0,3.3-3.2,8.6-7.9c1.3-1.1,2.8-2.5,4.3-3.8c1.5-1.3,3.2-2.8,5-4.3c1.8-1.5,3.6-3,5.5-4.5c1.9-1.5,3.8-3.2,5.7-4.8
			c7.6-6.6,15.2-13.8,21-19.5c5.7-5.6,9.6-9.6,9.6-9.6C392.6,202.5,392.6,202.7,392.7,202.8z"/>
	</g>
</g>
<g id="XMLID_143_">
	<g>
		<path id="XMLID_164_" d="M334,261.1c0,0-1.1,0.2-2.3,0.4c-0.6,0.1-1.5,0.2-2.3,0.3c-0.8,0.1-1.7,0.2-2.5,0.3
			c-0.9,0.1-1.7,0.3-2.5,0.3c-0.8,0-1.6-0.2-2.2-0.4c-0.6-0.2-1.2-0.4-1.5-0.7c-0.4-0.2-0.6-0.4-0.6-0.4c0-0.1,0-0.2,0-0.3
			c0,0,0.2-0.2,0.6-0.4c0.4-0.2,0.9-0.5,1.5-0.7c0.6-0.2,1.4-0.4,2.2-0.4c0.8,0,1.6,0.3,2.5,0.3c0.9,0.1,1.7,0.2,2.5,0.3
			c0.8,0.1,1.7,0.2,2.4,0.3c1.3,0.2,2.3,0.4,2.3,0.4C334.1,260.8,334.1,260.9,334,261.1C334.1,261.1,334,261.1,334,261.1z"/>
	</g>
</g>
<g id="XMLID_145_">
	<g>
		<path id="XMLID_596_" class="st1" d="M300.5,298.2c0,0-0.4,0-0.9-0.1c-0.3,0-0.6,0-0.9-0.1c-0.3,0-0.7-0.1-1-0.2
			c-0.3,0-0.7,0.1-1-0.1c-0.3-0.1-0.5-0.4-0.6-0.7c-0.1-0.3-0.2-0.5-0.3-0.7c0-0.3,0-0.4,0-0.4c0-0.1,0.1-0.2,0.1-0.3
			c0,0,0.1-0.1,0.4-0.3c0.2-0.1,0.5-0.3,0.8-0.4c0.3-0.1,0.6-0.1,0.9-0.1c0.3,0.1,0.5,0.5,0.7,0.7c0.3,0.2,0.5,0.4,0.7,0.7
			c0.2,0.2,0.4,0.5,0.6,0.8c0.4,0.4,0.6,0.8,0.6,0.8C300.6,298.1,300.5,298.2,300.5,298.2z"/>
	</g>
</g>
<g id="XMLID_146_">
	<g>
		<path id="XMLID_597_" class="st1" d="M295.7,296.2c0,0-0.4-0.3-0.9-0.5c-0.3-0.1-0.6-0.4-0.9-0.6c-0.3-0.2-0.6-0.4-0.9-0.6
			c-0.3-0.2-0.7-0.3-1-0.6c-0.2-0.2-0.3-0.5-0.3-0.8c0-0.3,0-0.6,0.1-0.8c0.1-0.3,0.1-0.4,0.1-0.4c0.1-0.1,0.1-0.1,0.2-0.2
			c0,0,0.2,0,0.5-0.1c0.3,0,0.6-0.1,0.9,0c0.3,0.1,0.7,0.1,0.9,0.4c0.2,0.3,0.2,0.7,0.4,1c0.2,0.3,0.3,0.7,0.4,1.1
			c0.1,0.3,0.2,0.6,0.3,1c0.2,0.6,0.3,1,0.3,1C295.8,296.1,295.7,296.1,295.7,296.2z"/>
	</g>
</g>
<g id="XMLID_148_">
	<g>
		<path id="XMLID_162_" d="M339.4,297.8c0,0,0.2-0.3,0.6-0.6c0.2-0.2,0.4-0.4,0.6-0.6c0.2-0.2,0.5-0.4,0.7-0.7
			c0.3-0.2,0.5-0.6,0.7-0.7c0.3-0.1,0.6-0.1,0.9-0.1c0.3,0.1,0.6,0.2,0.8,0.4c0.2,0.1,0.4,0.3,0.4,0.3c0,0.1,0.1,0.2,0.1,0.3
			c0,0,0,0.2,0,0.4c0,0.3-0.1,0.7-0.3,0.9c-0.1,0.3-0.3,0.5-0.6,0.7c-0.3,0.1-0.7,0-1-0.1c-0.3,0-0.7,0.1-1,0c-0.3,0-0.6,0-0.9-0.1
			c-0.5,0-0.9-0.1-0.9-0.1C339.5,297.9,339.4,297.8,339.4,297.8z"/>
	</g>
</g>
<g id="XMLID_147_">
	<g>
		<path id="XMLID_161_" d="M344.1,295.6c0,0,0.1-0.3,0.3-0.8c0.1-0.3,0.2-0.5,0.3-0.8c0.1-0.3,0.3-0.7,0.5-0.9
			c0.2-0.3,0.2-0.8,0.4-1c0.2-0.3,0.6-0.4,0.9-0.6c0.3-0.1,0.7-0.2,0.9-0.2c0.3,0,0.5,0.1,0.5,0.1c0.1,0.1,0.1,0.1,0.2,0.2
			c0,0,0.1,0.2,0.1,0.4c0.1,0.3,0.1,0.7,0.1,1c0,0.3-0.1,0.8-0.3,1c-0.2,0.2-0.7,0.3-1,0.6c-0.3,0.2-0.6,0.4-0.9,0.6
			c-0.3,0.2-0.6,0.3-0.9,0.4c-0.5,0.2-0.9,0.3-0.9,0.3C344.2,295.7,344.2,295.7,344.1,295.6z"/>
	</g>
</g>
<g id="XMLID_149_">
	<g>
		<path id="XMLID_619_" class="st1" d="M319.7,328.6c0,0-0.5-0.1-1.1-0.3c-0.3-0.1-0.7-0.1-1.1-0.3c-0.4-0.1-0.8-0.2-1.2-0.4
			c-0.4-0.1-0.9-0.1-1.3-0.3c-0.3-0.2-0.6-0.5-0.8-0.8c-0.2-0.3-0.3-0.6-0.3-0.9c-0.1-0.3-0.1-0.4-0.1-0.4c0-0.1,0.1-0.2,0.1-0.3
			c0,0,0.2-0.1,0.4-0.2c0.3-0.1,0.6-0.2,1-0.3c0.4,0,0.8-0.1,1.1,0.1c0.3,0.2,0.6,0.6,0.9,0.9c0.3,0.3,0.6,0.6,0.9,0.9
			c0.3,0.3,0.5,0.6,0.8,0.9c0.4,0.5,0.7,1,0.7,1C319.7,328.4,319.7,328.5,319.7,328.6z"/>
	</g>
</g>
<g id="XMLID_150_">
	<g>
		<path id="XMLID_624_" class="st1" d="M313.8,324.8c0,0-0.1-0.3-0.1-0.6c0-0.2-0.1-0.4-0.1-0.6c0-0.2,0-0.5,0-0.6
			c0-0.2-0.1-0.4-0.1-0.6c0.1-0.2,0.3-0.3,0.6-0.3c0.3-0.1,0.5-0.1,0.8-0.2c0.2,0,0.4,0,0.4,0c0.1,0,0.2,0,0.3,0.1
			c0,0,0.1,0.1,0.3,0.3c0.2,0.2,0.3,0.4,0.4,0.6c0.1,0.2,0.2,0.5,0.1,0.7c-0.1,0.2-0.4,0.3-0.6,0.4c-0.2,0.2-0.4,0.3-0.6,0.4
			c-0.2,0.1-0.4,0.3-0.5,0.4c-0.3,0.2-0.6,0.2-0.6,0.2C314,324.9,313.9,324.8,313.8,324.8z"/>
	</g>
</g>
<g id="XMLID_151_">
	<g>
		<path id="XMLID_626_" class="st1" d="M315.4,321.8c0,0,0.3-0.1,0.8-0.1c0.2,0,0.5-0.1,0.8-0.1c0.3,0,0.6,0,0.9-0.1
			c0.3,0,0.7-0.1,0.9-0.2c0.3,0.1,0.4,0.3,0.6,0.6c0.1,0.3,0.2,0.6,0.3,0.9c0,0.2,0.1,0.4,0.1,0.4c0,0.1-0.1,0.2-0.1,0.3
			c0,0-0.1,0.1-0.3,0.3c-0.2,0.2-0.4,0.3-0.7,0.5c-0.3,0.1-0.6,0.2-0.8,0.1c-0.3-0.1-0.4-0.4-0.7-0.6c-0.2-0.2-0.5-0.4-0.7-0.6
			c-0.2-0.2-0.4-0.4-0.6-0.6c-0.3-0.3-0.6-0.5-0.6-0.5C315.3,322,315.4,321.9,315.4,321.8z"/>
	</g>
</g>
<g id="XMLID_154_">
	<g>
		<path id="XMLID_160_" d="M320.5,327.9c0,0,0.3-0.3,0.7-0.8c0.2-0.2,0.5-0.5,0.8-0.7c0.3-0.3,0.6-0.6,0.9-0.9
			c0.3-0.3,0.6-0.7,0.9-0.9c0.3-0.2,0.7-0.3,1.1-0.3c0.4,0,0.7,0.1,1,0.1c0.3,0.1,0.4,0.2,0.4,0.2c0,0.1,0.1,0.2,0.1,0.3
			c0,0,0,0.2-0.1,0.6c0,0.3-0.2,0.7-0.3,1.1c-0.2,0.3-0.4,0.8-0.8,0.8c-0.4,0.2-0.8,0.2-1.3,0.3c-0.4,0.1-0.8,0.2-1.2,0.2
			c-0.4,0.1-0.8,0.1-1.1,0.1c-0.7,0.1-1.1,0.1-1.1,0.1C320.5,328.1,320.5,328,320.5,327.9z"/>
	</g>
</g>
<g id="XMLID_153_">
	<g>
		<path id="XMLID_159_" d="M326.3,325.1c0,0-0.3-0.1-0.6-0.4c-0.2-0.1-0.4-0.2-0.5-0.4c-0.2-0.1-0.4-0.3-0.6-0.4
			c-0.2-0.2-0.5-0.2-0.6-0.4c-0.1-0.2,0-0.4,0.1-0.6c0.1-0.2,0.3-0.5,0.4-0.6c0.2-0.2,0.3-0.3,0.3-0.3c0.1,0,0.2-0.1,0.3-0.1
			c0,0,0.2,0,0.4,0c0.2,0,0.5-0.1,0.8,0c0.2,0.1,0.5,0.2,0.6,0.3c0.1,0.2-0.1,0.6-0.1,0.8c0,0.2,0,0.5,0,0.8c0,0.2-0.1,0.5-0.1,0.6
			c-0.1,0.4-0.1,0.6-0.1,0.6C326.5,325,326.4,325,326.3,325.1z"/>
	</g>
</g>
<g id="XMLID_152_">
	<g>
		<path id="XMLID_158_" d="M325,321.9c0,0-0.2,0.3-0.6,0.7c-0.2,0.2-0.4,0.4-0.6,0.6c-0.2,0.2-0.5,0.4-0.7,0.6
			c-0.2,0.2-0.4,0.5-0.7,0.6c-0.3,0.1-0.6,0-0.8-0.1c-0.3-0.1-0.5-0.3-0.7-0.5c-0.2-0.2-0.3-0.3-0.3-0.3c0-0.1-0.1-0.2-0.1-0.3
			c0,0,0-0.2,0.1-0.4c0-0.3,0.1-0.5,0.3-0.7c0.1-0.3,0.3-0.5,0.6-0.6c0.3-0.1,0.6,0.1,0.9,0c0.3,0,0.6,0,0.9-0.1
			c0.3,0,0.6,0,0.8,0.1c0.5,0,0.8,0.1,0.8,0.1C324.9,321.7,325,321.8,325,321.9z"/>
	</g>
</g>
<g id="XMLID_155_">
	<g>
		<path id="XMLID_157_" d="M320.1,268.8c0,0,0.2,2,0.4,5.6c0.2,3.7,0.4,8.6,0.7,13.8c0.1,1.3,0.1,2.6,0.2,3.9
			c0.1,1.3,0.1,2.6,0.2,3.9c0,1.3,0,2.5-0.1,3.6c-0.1,1.1-0.1,2.2-0.3,3c-0.4,3.7-1.1,5.4-1.1,5.4c-0.1-0.1-0.2-0.2-0.3-0.4
			c0,0-0.7-3.3-1.1-7c-0.1-0.9-0.2-2-0.3-3c-0.1-1.1-0.1-2-0.1-3c0-1.1,0.1-2.1,0.2-3.2c0.1-1.1,0.1-2.2,0.2-3.4
			c0.2-4.5,0.4-9,0.7-12.9c0.2-3.7,0.4-6.2,0.4-6.2c0.1-0.1,0.2-0.2,0.3-0.4C320.1,268.8,320.1,268.8,320.1,268.8z"/>
	</g>
</g>
</svg>
